<svg xmlns="http://www.w3.org/2000/svg" width="41" height="41.001"><path data-name="中マド 1" d="M20.5 41a20.375 20.375 0 01-7.98-1.611A20.43 20.43 0 016 35a20.429 20.429 0 01-4.393-6.516A20.367 20.367 0 010 20.5a20.374 20.374 0 011.611-7.98A20.436 20.436 0 016 6a20.436 20.436 0 016.516-4.394A20.374 20.374 0 0120.5 0a20.374 20.374 0 017.98 1.611A20.429 20.429 0 0135 6a20.437 20.437 0 014.393 6.516A20.376 20.376 0 0141 20.5a20.37 20.37 0 01-1.611 7.979A20.43 20.43 0 0135 35a20.436 20.436 0 01-6.516 4.394A20.374 20.374 0 0120.5 41zM13.2 9.358l.421 23.32L33.975 19.96 13.2 9.36z" fill="#fff"/></svg>