<svg xmlns="http://www.w3.org/2000/svg" width="35.914" height="29.239"><path d="M32.222 7.287c.023.32.023.64.023.959 0 9.754-7.406 20.992-20.942 20.992A20.764 20.764 0 010 25.926a15.191 15.191 0 001.777.091 14.719 14.719 0 009.138-3.152 7.376 7.376 0 01-6.882-5.117 9.261 9.261 0 001.39.114 7.767 7.767 0 001.937-.251 7.375 7.375 0 01-5.9-7.241v-.091a7.4 7.4 0 003.327.936 7.4 7.4 0 01-2.28-9.868 20.906 20.906 0 0015.177 7.721 8.348 8.348 0 01-.182-1.69A7.364 7.364 0 0130.24 2.33 14.47 14.47 0 0034.912.548a7.355 7.355 0 01-3.236 4.066 14.728 14.728 0 004.239-1.142 15.843 15.843 0 01-3.692 3.815z" fill="#00b991"/></svg>