<svg xmlns="http://www.w3.org/2000/svg" viewBox="0 0 135.1579 31.6006"><defs><style>.a{fill:#9a8b4b;}</style></defs><path class="a" d="M13.9463,11.1572a2.2838,2.2838,0,0,1-1.5137.8843q-.8672.1019-1.7519.272a3.3431,3.3431,0,0,0-.084.9184,3.4738,3.4738,0,0,1-.1543,1.0884,7.03,7.03,0,0,1,1.82,1.5991q.7647.9522,1.48,1.9385c0,.1821-.0577.29-.1709.3233a1.2955,1.2955,0,0,1-.3741.0512,1.1429,1.1429,0,0,0-.3906,0,.4084.4084,0,0,0-.289.2041q-.5449-.2724-1.0547-.5444a6.7657,6.7657,0,0,1-.9532-.6123,9.9861,9.9861,0,0,0-.1191,1.5649q-.0176,1.02.0176,2.2447.0322,1.2246.1015,2.3813.0675,1.667,0,3.2314a7.3684,7.3684,0,0,1-.6113,2.7554.9684.9684,0,0,1-.9189-.0342,3.0156,3.0156,0,0,1-.5791-.6123q-.1011-.1362-.2207-.3061a2.2845,2.2845,0,0,0-.2549-.3062,4.89,4.89,0,0,0-1.0381-.7309q-.6972-.3912-1.3262-.8164a1.7373,1.7373,0,0,1-.7656-.9019.7154.7154,0,0,0-.3574-.4761.9164.9164,0,0,1-.3565-.3061,4.2871,4.2871,0,0,1-.3232-.646,4.1524,4.1524,0,0,0-.2549-.5444,2.6953,2.6953,0,0,1,.8672.2382q.4585.2037.9355.4419.68.3062,1.4288.5952a4.2068,4.2068,0,0,0,1.5312.29,7.0587,7.0587,0,0,0,.3057-1.9224q.0336-1.0707-.0342-2.1938-.0353-1.1222-.0176-2.3809t.0518-1.769A18.7149,18.7149,0,0,0,5.9873,19.27q-1.2246,1.2423-2.416,2.4322a1.061,1.061,0,0,0-.7481.3916q-.375.391-.748.7651a2.12,2.12,0,0,1-.6641.459.8659.8659,0,0,1-.73-.0166,2.97,2.97,0,0,1-.375-.2383A.77.77,0,0,1,0,22.5864a1.3357,1.3357,0,0,0,.2041-.17c.0684-.0679.1475-.147.2383-.2378q.3061-.3061.68-.6123a.6416.6416,0,0,1,.6806-.17.4255.4255,0,0,0,.0684-.34v-.17a.9594.9594,0,0,1,.0342-.2378,18.7208,18.7208,0,0,0,2.0918-1.99q1.0722-1.1733,1.99-2.3637a25.4558,25.4558,0,0,0,1.5137-2.16A3.8534,3.8534,0,0,0,8.13,12.7217a12.3506,12.3506,0,0,0-1.4453.4424,7.9792,7.9792,0,0,1-1.2754.374,1.7483,1.7483,0,0,1-1.0039.7822A1.69,1.69,0,0,1,3.3,14.2183a3.6522,3.6522,0,0,1-1.3779-1.0371,6.9757,6.9757,0,0,1-.97-1.4122,8.43,8.43,0,0,0,1.77-.1186q.8847-.1532,1.8027-.3574.51-.1018,1.0205-.2212a10.4349,10.4349,0,0,1,1.0537-.187,8.165,8.165,0,0,1,.8682-.1021,1.7729,1.7729,0,0,0,.7314-.17.7292.7292,0,0,0,.34-.4761,3.5389,3.5389,0,0,0,.0683-.7485,5.7092,5.7092,0,0,0-.205-1.4795q-.2022-.7654-.3057-1.2417a2.9255,2.9255,0,0,0-.5264.187c-.1709.08-.3466.1528-.5273.2212a11.421,11.421,0,0,1-1.82.5952A2.8213,2.8213,0,0,1,3.3,7.415,16.5128,16.5128,0,0,1,6.1064,5.51q1.5119-.816,3.0782-1.5987c-.0684-.0678-.2266-.0449-.4766.0679s-.51.2383-.7822.3745q-.4424.2035-.8506.3911a.8391.8391,0,0,1-.5781.1192,11.1128,11.1128,0,0,1,1.3613-.7315A6.5745,6.5745,0,0,0,9.15,3.3672a1.4112,1.4112,0,0,0-.3916-.5952A3.1694,3.1694,0,0,1,8.3,2.2788c-.0449-.1133-.0508-.187-.0166-.2212a.4711.4711,0,0,1,.1182-.0849c.1367-.045.205-.1246.205-.2378a15.6963,15.6963,0,0,1,1.6153.0166,7.7387,7.7387,0,0,1,1.65.2724,2.8246,2.8246,0,0,1,1.2578.6973c.3183.2949.4306.5669.34.8164a1.4267,1.4267,0,0,1-.6113.68,7.1832,7.1832,0,0,1-1.48.6631,7.834,7.834,0,0,0-1.3437.5615,1.9562,1.9562,0,0,1,.8164,1.1733,6.2888,6.2888,0,0,1,.2051,1.6328,11.3337,11.3337,0,0,1-.1026,1.5821q.6461.238,1.5655.4931A2.8713,2.8713,0,0,1,13.9463,11.1572ZM4.8984,5.7485q.1011.1364-.3056.51a6.5645,6.5645,0,0,1-.8848.68,1.6409,1.6409,0,0,1-.6465.3061,1.8247,1.8247,0,0,1,.4932-.4424q.391-.2716.8-.5781A3.28,3.28,0,0,0,4.8984,5.7485ZM14.9326,28.811a2.5149,2.5149,0,0,1-2.0576-.646,3.688,3.688,0,0,1-1.14-1.9389,1.7528,1.7528,0,0,0,.5781-.9527,8.0865,8.0865,0,0,0,.289-1.4458q.0851-.7653.1192-1.2075v-.4419q0-.3061.0176-.6294a.6924.6924,0,0,1,.1523-.4594,1.5519,1.5519,0,0,1,.9189,1.0717,8.2547,8.2547,0,0,1,.3057,1.7857q.0674,1.0546.1367,2.1943A4.73,4.73,0,0,0,14.73,28.063a.7806.7806,0,0,0-.3066-.1021.7118.7118,0,0,0,.2548.4419A.6882.6882,0,0,1,14.9326,28.811ZM31.124,21.9741a.8646.8646,0,0,1-.748.7993,3.4565,3.4565,0,0,1-1.02.0171,6.4417,6.4417,0,0,1-1.7519-.6465,13.813,13.813,0,0,1-1.7354-1.0883q-.8334-.6123-1.5136-1.0884a1.1368,1.1368,0,0,1,.8-.3745,6.1365,6.1365,0,0,1,.9,0h.4082a9.9492,9.9492,0,0,0-2.1084-.85,8.5069,8.5069,0,0,1-1.6162.4082q-1.0035.1706-2.125.289-1.1236.1194-2.1436.2212a14.5665,14.5665,0,0,0-1.6328.2378.3767.3767,0,0,1-.1358.1363q-.205.1362-.17.3061a2.6469,2.6469,0,0,1-1.0888-.0171,2.0935,2.0935,0,0,1-.7491-.3569,2.9562,2.9562,0,0,1-.5781-.7144,4.483,4.483,0,0,0-.5439-.7485,2.0926,2.0926,0,0,1,1.122-.459,9.4485,9.4485,0,0,1,1.5313-.0513h.2383q.85.0345,1.7685.0171a6.5119,6.5119,0,0,0,1.8037-.289.9982.9982,0,0,0,0-.3575c-.0234-.124-.0468-.2548-.0683-.3911a1.3463,1.3463,0,0,1-.0342-.2382,6.486,6.486,0,0,0-.919.0683q-.476.0681-.9521.17-.4088.0689-.8.1363a4.4545,4.4545,0,0,1-.7656.0678,2.8941,2.8941,0,0,1-1.1563-.1528,1.6426,1.6426,0,0,1-.85-.8,3.1535,3.1535,0,0,1-.0683-.9863q.0336-.6123.1015-1.2925c.0449-.4761.08-.9634.1026-1.4629a6.1561,6.1561,0,0,0-.0674-1.3262,2.7728,2.7728,0,0,1-.9707-.6465A2.25,2.25,0,0,1,12.96,9.2183a.8252.8252,0,0,0,.4423-.0513,2.8425,2.8425,0,0,0,.3741-.187,1.4867,1.4867,0,0,1,.34-.1529.4064.4064,0,0,1,.3067.0167.8221.8221,0,0,1,.4765-.544A17.7623,17.7623,0,0,0,17.62,8.0273q1.3272-.2373,2.3135-.374a1.2341,1.2341,0,0,0,0-.4082c-.0225-.1582-.0459-.3061-.0684-.4424V6.7349a13.1891,13.1891,0,0,0-1.8877.2041,4.1418,4.1418,0,0,0-1.5136.5444,2.4949,2.4949,0,0,1-1.2588-.7314,3.7634,3.7634,0,0,1-.7481-1.31,6.9205,6.9205,0,0,1,2.3467-.2554,11.8633,11.8633,0,0,0,2.959-.2891q0-.3735-.0166-.8842a5.6841,5.6841,0,0,0-.1182-.9864,8.1145,8.1145,0,0,1-.9873-.8676A2.5382,2.5382,0,0,1,18.0283.8843a4.2543,4.2543,0,0,1,2.33.2719,4.06,4.06,0,0,1,1.8535,1.2925,4.0652,4.0652,0,0,0-.084.9868q.0162.51.0508.8843v.2041a7.1151,7.1151,0,0,1,2.874-.0849,3.7772,3.7772,0,0,1,2.16,1.2754,1.2,1.2,0,0,1-1.0713.5444,14.8657,14.8657,0,0,1-1.752.0342h-.9179a4.5479,4.5479,0,0,0-.8164.0678.5422.5422,0,0,0-.4942.3912q-.0849.3237-.1523.5952a2.9582,2.9582,0,0,0,1.3262.102q.6459-.1018,1.2929-.2383c.09-.0219.1866-.0449.2891-.0678s.209-.045.3223-.0679q.6812-.17,1.3271-.2725a2.9728,2.9728,0,0,1,1.3272.1021,18.0738,18.0738,0,0,1,2.7548,1.5991q-.1713.8849-1.4629.68a2.2387,2.2387,0,0,0-.5947,1.1225,11.0441,11.0441,0,0,0-.2217,1.4624,12.816,12.816,0,0,1-.2216,1.5142,2.9933,2.9933,0,0,1-.6289,1.31,1.0145,1.0145,0,0,1-.0332.5952,3.2858,3.2858,0,0,1-.2383.4253c-.0459.0679-.0918.1357-.1367.2041a.8181.8181,0,0,0-.1016.2041,8.5506,8.5506,0,0,1-1.2588.2036q-.7134.0689-1.2246.102a8.8451,8.8451,0,0,1,1.14.6124,4.011,4.011,0,0,1,1.0039.8847,2.368,2.368,0,0,1,.4415.833,1.6983,1.6983,0,0,1-.0333,1.0039,8.4092,8.4092,0,0,1,2.2442.7823A6.1712,6.1712,0,0,1,31.124,21.9741ZM32.1455,25.92a9.1529,9.1529,0,0,1-1.8379,2.585,14.9268,14.9268,0,0,1-5.85.4082,12.3893,12.3893,0,0,1-6.2256-2.2451A18.9544,18.9544,0,0,1,15.1709,20.58a6.8476,6.8476,0,0,1,1.77,1.53q.7134.8854,1.36,1.82a16.6257,16.6257,0,0,0,1.4619,1.82,6.1454,6.1454,0,0,0,2.1777.3916q1.2246.0175,2.4825-.0513a1.0364,1.0364,0,0,1,.3408.1021.5968.5968,0,0,0,.374.102,3.3989,3.3989,0,0,0,1.5312-.51,2.1884,2.1884,0,0,0,.85-.9863,3.664,3.664,0,0,0-.8672-1.5987,4.6392,4.6392,0,0,1-.9014-1.3266.8042.8042,0,0,1,.6465.0678,3.3989,3.3989,0,0,1,.5781.4082q.17.1364.3408.272a1.18,1.18,0,0,0,.3731.2041,1.3183,1.3183,0,0,0,.5273.1021,1.3239,1.3239,0,0,1,.5274.102,5.3043,5.3043,0,0,1,1.8886,1.293Q31.43,25.1717,32.1455,25.92ZM20.1035,11.2593a3.4414,3.4414,0,0,1-.0674-.9019,4.1214,4.1214,0,0,0-.0683-.9692q-1.0548.1019-1.82.17t-1.752.2383a3.24,3.24,0,0,0,.0176.7485c.0332.2266.0625.4536.084.68a2.24,2.24,0,0,1,.0517.272,2.303,2.303,0,0,1,.0166.2719,13.6963,13.6963,0,0,0,1.9053-.2719A10.4053,10.4053,0,0,1,20.1035,11.2593ZM20.0361,13.13q-.75.1019-1.7187.187A4.89,4.89,0,0,1,16.6,13.1978a2.3689,2.3689,0,0,0-.0166.5273q.0162.3575.0166.7314c0,.1587.0049.3062.0166.4424s.0176.2608.0176.374q.8847-.0681,1.8027-.1191a6.734,6.734,0,0,0,1.667-.2891Zm3.9785,10.647q-.0336.3061-.289.2382a.3157.3157,0,0,0-.3906.2041,2.0918,2.0918,0,0,0-1.19-.4423,2.9391,2.9391,0,0,1-1.2588-.3741q-.4423-.7822-.85-1.5991a5.9434,5.9434,0,0,0-.9873-1.4282c-.0224-.1133.0459-.1817.2041-.2041.1367-.0225.2149-.0684.2383-.1362a6.8885,6.8885,0,0,1,2.8067,1.2753A5.4708,5.4708,0,0,1,24.0146,23.7769Zm.2051-6.565q-.2051-.17-.4258-.3745a1.4333,1.4333,0,0,1-.3222-.4082h-.5449q-.3062,0-.545.0171a.9177.9177,0,0,0-.4082.1191q-.3735.2044-.373.9864h.7139a7.5881,7.5881,0,0,0,1.0205,0A1.5184,1.5184,0,0,0,24.22,17.2119Zm1.7-8.5039a15.7376,15.7376,0,0,0-1.9219.0508,10.9857,10.9857,0,0,0-1.956.3574,3.07,3.07,0,0,0-.0684.5781,4,4,0,0,0,.0352.51v.7822a4.3464,4.3464,0,0,1,1.6328.4253A2.6861,2.6861,0,0,1,24.7637,12.45q-.7486.1018-1.31.2041-.5625.1018-1.5137.2041a4.2206,4.2206,0,0,0-.17,1.1055q-.0351.6972.2031.8672a7.9325,7.9325,0,0,1,1.3789-.2549,4.0074,4.0074,0,0,1,1.4454.0849,5.75,5.75,0,0,0,.6113-1.7348,20.1954,20.1954,0,0,0,.3066-2.1431Q25.8184,9.6607,25.92,8.708Z"/><path class="a" d="M64.63,18.6064a1.7755,1.7755,0,0,1-.8164.357,3.8749,3.8749,0,0,0-.8672.2554,1.0387,1.0387,0,0,0-.5615.6464,6.4,6.4,0,0,0-.2891,1.6836q-.0513.97-.0508,1.99,0,.3405-.0166.6972t-.0176.6978a14.2626,14.2626,0,0,1-.2714,2.4321,4.957,4.957,0,0,1-.919,2.0576,4.3426,4.3426,0,0,1-.8506.7486,4.0989,4.0989,0,0,1-1.0205.5781,4.5675,4.5675,0,0,1-2.3808.0513,7.0178,7.0178,0,0,1-2.3135-.9868,5.365,5.365,0,0,1-1.5987-1.5474q-.2386-.2043-.6972-.5444a2.1975,2.1975,0,0,1-.5947-.5782,4.4162,4.4162,0,0,1,1.0878.0679q.5449.1019,1.0889.2041a10.4223,10.4223,0,0,0,1.4619.3062,3.7418,3.7418,0,0,0,1.5655-.1363,1.7471,1.7471,0,0,0,1.0205-.85,5.715,5.715,0,0,0,.6289-1.582,13.9514,13.9514,0,0,0,.3232-1.8535A16.0526,16.0526,0,0,0,58.6436,21.6a18.4347,18.4347,0,0,0-.1192-2.16,4.2351,4.2351,0,0,0-.5273-1.684q-2.0421-.0675-4.2862-.0166t-4.456.2041q-2.2119.153-4.1836.4082a33.4084,33.4084,0,0,0-3.4024.5952c-.1132.1137-.09.2265.0684.34a1.1094,1.1094,0,0,0,.1533.187.2714.2714,0,0,1,.0508.2554,8.1147,8.1147,0,0,0-.459,2.2622,19.9426,19.9426,0,0,0-.0166,2.5q.0673,1.2591.17,2.313a4.72,4.72,0,0,0,.0332.5781,4.181,4.181,0,0,1,.0342.51.4844.4844,0,0,0,.085.289,1.6884,1.6884,0,0,0,.1875.2212,1.1792,1.1792,0,0,1,.2207.3062.7666.7666,0,0,1,.0508.4424,2.8551,2.8551,0,0,1-1.8711-.1534,4.9033,4.9033,0,0,1-1.5811-1.1225,11.7658,11.7658,0,0,1-1.208-1.4795,1.912,1.912,0,0,0,.919-1.0884,5.8751,5.8751,0,0,0,.3232-1.6841q.05-.9345.0508-1.8535,0-.34.0176-.6636c.0107-.2153.0166-.4135.0166-.5952a3.6388,3.6388,0,0,0-1.02-1.0713,5.0793,5.0793,0,0,1-.9532-.8335,2.4549,2.4549,0,0,1,1.293-.8671,9.833,9.833,0,0,1,2.0078-.4082q1.1221-.1194,2.2276-.2041a15.2017,15.2017,0,0,0,1.9218-.2554,6.03,6.03,0,0,0-.374-.6973q-.205-.3229-.4424-.6631a23.31,23.31,0,0,0,.3233-4.15q-.0177-2.1759-.2207-4.2177-.8526.2387-1.752.4594a2.3657,2.3657,0,0,0-1.2754.6631,1.0949,1.0949,0,0,1-.4433-.0171A1.8376,1.8376,0,0,1,39.9,8.1294a1.331,1.331,0,0,0-.2217-.1187A.7305.7305,0,0,0,39.39,7.96a2.4544,2.4544,0,0,0-.73-1.0205q-.4936-.408-.9531-.7481a1.3737,1.3737,0,0,1-.5606-.7485,1.6876,1.6876,0,0,1,1.1221-.3574,3.2916,3.2916,0,0,1,1.2588.29,22.4527,22.4527,0,0,1,2.8066-.2724q1.6143-.0675,3.35-.1529T48.915,4.66a4.5446,4.5446,0,0,0,.1016-.6973,3.4328,3.4328,0,0,0-.0332-.8335,13.1445,13.1445,0,0,0-1.94-1.0376,4.1891,4.1891,0,0,1-1.7011-1.31,5.3617,5.3617,0,0,1,1.582-.3574,8.0051,8.0051,0,0,1,1.8711.0513,4.31,4.31,0,0,1,1.6152.5444,1.7527,1.7527,0,0,1,.8506,1.1221,1.3055,1.3055,0,0,1,0,.5957q-.0688.2893-.17.5952-.0688.2724-.1533.5781a2.5406,2.5406,0,0,0-.085.68A6.2858,6.2858,0,0,1,52.0107,4.49h1.2579q1.122.0345,2.2285-.0336A4.2248,4.2248,0,0,0,57.5205,3.81c.1816.0459.375.0908.5781.1362.2051.0454.4082.0908.6133.1357q.8145.1707,1.5811.4082a3.32,3.32,0,0,1,1.2412.6636,1.3654,1.3654,0,0,1,.4082,1.2075q-1.1221-.0681-2.84-.0512T55.9561,6.293a.64.64,0,0,0,.0175.34,1.051,1.051,0,0,0,.1524.272,2.341,2.341,0,0,1,.1191.29.88.88,0,0,1,.0176.3911,12.4557,12.4557,0,0,0-.6465,2.7212q-.1713,1.3953-.2217,2.8575t-.2549,3.061q.5772.0343,1.1739.0513.5948.0176,1.207.0507,1.7007.0345,3.4531.17a10.7192,10.7192,0,0,1,3.2481.748.8533.8533,0,0,0,.1015.2041c.0459.0684.0909.1362.1368.2041.09.1592.1757.3179.2548.4766A.4055.4055,0,0,1,64.63,18.6064Zm-7.2793,2.313a.3593.3593,0,0,1-.0176.2554c-.0332.0566-.0732.1187-.1191.187a.4565.4565,0,0,0-.1016.272q-.646-.0338-1.0879-.0508t-.8164-.0171a6.55,6.55,0,0,1-.0684.9185c-.0458.3178-.1015.6347-.17.9521q-.1025.6123-.1875,1.2246a6.28,6.28,0,0,0-.0508,1.2246,6.8305,6.8305,0,0,1-1.496.2383q-.75.0345-1.5313,0h-.34a1.2432,1.2432,0,0,1-.3067-.0342q-.7485-.0336-1.4453-.0341a6.5268,6.5268,0,0,0-1.3437.1362,2.25,2.25,0,0,0-.834.34,1.4954,1.4954,0,0,1-.7989.272,1.6352,1.6352,0,0,1-1.2587-.561q-.5114-.5618-.9522-1.0035.0323-.952.0684-1.8881.0321-.9354.17-1.9561a.8264.8264,0,0,0-.4766-.51,1.683,1.683,0,0,1-.5781-.3741,2.5716,2.5716,0,0,1,1.4795-.7143,14.9115,14.9115,0,0,1,2.126-.2041q1.292-.0674,2.6015-.17a6.5664,6.5664,0,0,0,2.2627-.5445q.8834.2043,1.8877.4253a12.5427,12.5427,0,0,1,1.9053.5781A3.6925,3.6925,0,0,1,57.3506,20.9194Zm-4.9317-6.9389q-1.4648.2381-3.0625.3569a26.9706,26.9706,0,0,0-3.0273.3911q0,.1707.0176.3574c.0107.125.0166.2437.0166.357,0,.227.0049.4541.0166.68a1.2722,1.2722,0,0,0,.1543.5787q1.5293-.0337,2.8574-.085,1.3257-.0513,2.8564-.1875c.0684-.3853.1241-.7764.1709-1.1733A6.0347,6.0347,0,0,0,52.4189,13.9805Zm.2032-1.0547a5.7307,5.7307,0,0,0,.1191-.7652,4.919,4.919,0,0,0,0-1.0034,1.2442,1.2442,0,0,0-.3223-.7827q-1.0224.1026-1.871.2041-.8511.1026-1.77.17-.9169.0681-2.1767.1358a2.1608,2.1608,0,0,0-.1026.68v.7828a1.6751,1.6751,0,0,1,.0352.34v.3062c.3164-.022.6289-.0508.9346-.085s.6064-.062.9013-.085q1.1572-.1355,2.2285-.187A5.2169,5.2169,0,0,1,52.6221,12.9258Zm.0341-6.5308c-.4306.0454-.8623.0738-1.2919.085q-.6475.0175-1.26.0171-.9858,0-1.9043.0508a7.5044,7.5044,0,0,0-1.6328.2548,1.3306,1.3306,0,0,1,.3574.97,4.7354,4.7354,0,0,1-.2207.9692,1.3729,1.3729,0,0,0-.1025.2554c-.0225.08-.0459.1645-.0674.2549a5.1529,5.1529,0,0,0,1.1894,0q.6123-.0675,1.2246-.17c.1368-.0224.2666-.04.3916-.0512s.2549-.0279.3916-.0508a8.63,8.63,0,0,1,1.5137-.0679,2.9891,2.9891,0,0,1,1.377.4082,5.6105,5.6105,0,0,0,.1191-1.31q-.0175-.6635-.0508-1.14C52.667,6.6216,52.6562,6.4629,52.6562,6.395Zm-.6455,14.32a18.758,18.758,0,0,0-2.6543.0513,4.7059,4.7059,0,0,0-2.2793.7993,4.2113,4.2113,0,0,1,.0176.6631c-.0117.2158-.0293.4253-.0508.6294-.0234.3179-.0341.6353-.0341.9526a3.3979,3.3979,0,0,0,.17,1.02q.3735-.0336.7314-.0683c.2383-.0225.4815-.0449.7315-.0679q.8158-.1018,1.5986-.17a6.8958,6.8958,0,0,1,1.5313.0337,10.4043,10.4043,0,0,0,.1865-1.8535Q51.9751,21.7021,52.0107,20.7153Z"/><path class="a" d="M83.6455,8.8438a2.1733,2.1733,0,0,1-.9531.6972,3.0507,3.0507,0,0,1-1.2578.1875q-.75,1.0546-1.5655,2.0918a11.0779,11.0779,0,0,0-1.3945,2.33,1.0214,1.0214,0,0,0,.6465.68,2.7824,2.7824,0,0,1,.8164.4082,6.0541,6.0541,0,0,1,1.7178,2.0068,11.3829,11.3829,0,0,1,1.0371,2.8237.8811.8811,0,0,1-.68.272,1.89,1.89,0,0,1-.7148-.2383,5.1622,5.1622,0,0,1-.9522-.7143,2.6806,2.6806,0,0,0-1.02-.6123,3.0492,3.0492,0,0,0-.2891-1.1734,5.6724,5.6724,0,0,0-.4257-.7656,27.0144,27.0144,0,0,0-.1358,3.2656q.0338,1.5652.0684,2.9937c0,.1587.0049.3179.0166.4761s.0175.3178.0175.476q.0675,1.7015.0333,3.2827a16.5267,16.5267,0,0,1-.3731,3.1465c-.0469.1133-.1084.1753-.1875.187a.67.67,0,0,1-.2559-.0171.9076.9076,0,0,0-.2031-.0341,3.3422,3.3422,0,0,1-1.5488-2.3467,13.2607,13.2607,0,0,1-.0508-3.2315q.0337-.4086.0859-.8335c.0333-.2832.0723-.5727.1192-.8676q.2022-1.4619.3057-2.9932a11.01,11.01,0,0,0-.2041-2.9936A18.3466,18.3466,0,0,1,74.75,19.3208a15.1056,15.1056,0,0,1-2.1943,2.0068q-.5449.4425-1.2412,1.02a7.594,7.594,0,0,1-1.4463.9527,3.1218,3.1218,0,0,1-1.2578.3227,1.555,1.555,0,0,1-1.1563-.5268q1.8018-1.4964,3.3672-3.0615a38.19,38.19,0,0,0,2.8906-3.2315q.6811-.8166,1.4121-1.8882a4.5884,4.5884,0,0,0,.7656-2.5342.9085.9085,0,0,0,.85-.3911,8.2729,8.2729,0,0,0,.5791-.935c.0908-.1817.1748-.3457.2548-.4937a2.5556,2.5556,0,0,1,.2891-.4248.319.319,0,0,0-.0332-.1362.1922.1922,0,0,1-.0684-.2041,5.3919,5.3919,0,0,0-2.2617.272q-1.0722.375-2.0928.8164-.3412.1706-.663.3061-.3239.1362-.6641.272a10.1513,10.1513,0,0,1-1.8027-1.7686,4.9,4.9,0,0,1-1.0537-2.3471A11.3352,11.3352,0,0,0,73.56,7.84a52.4156,52.4156,0,0,0,5.2558-.6294.2138.2138,0,0,0,.084-.2207.3283.3283,0,0,1,.1533-.2895,4.1954,4.1954,0,0,1,2.0411.1533,14.6112,14.6112,0,0,1,1.6669.6973,2.9777,2.9777,0,0,1,.3233.1533,2.8065,2.8065,0,0,0,.3232.1528,2.3332,2.3332,0,0,0,.1016.6123C83.5537,8.5835,83.6,8.708,83.6455,8.8438ZM80.9912,2.415a1.6884,1.6884,0,0,1-.34,1.2246q-.4072.5442-.8848,1.0884c-.1348.1363-.2656.2779-.3906.4253s-.2442.3008-.3574.459a3.7224,3.7224,0,0,1-.1866-1.1562,1.691,1.691,0,0,0-.289-1.0206A11.328,11.328,0,0,1,76.791,2.67a2.9933,2.9933,0,0,1-1.1738-1.3774,5.3252,5.3252,0,0,1,1.1572-.272q.5772-.0681,1.0879-.1362a4.1338,4.1338,0,0,1,1.3438.0171,2.9351,2.9351,0,0,1,1.207.476A1.3617,1.3617,0,0,1,80.9912,2.415Zm20.0361,8.334a6.667,6.667,0,0,0-1.6494.6289,3.3962,3.3962,0,0,0-1.1738,1.1055q-.205,2.3819-.4766,4.7285a18.6466,18.6466,0,0,1-.9521,4.2178h-.2725a4.0754,4.0754,0,0,0-.748,0,1.663,1.663,0,0,0-.6465.272,1.1647,1.1647,0,0,0-.9863-.7823,7.0651,7.0651,0,0,0-1.5313.0342c-.1816.023-.373.04-.5781.0508-.2031.0117-.4082.0171-.6113.0171a15.8125,15.8125,0,0,0-.2559,2.7724q-.0175,1.514-.085,3.01a16.8664,16.8664,0,0,1-.3232,2.5854,6.7778,6.7778,0,0,1-.8672,2.211,3.9392,3.9392,0,0,1-.9863-2.0581,16.86,16.86,0,0,1-.2725-2.7041V25.7837c0-.3623.0108-.7144.0342-1.0542q.0338-1.0211.0176-1.9732a10.66,10.66,0,0,0-.1543-1.7006,1.5183,1.5183,0,0,0-.2715.0337q-1.122.137-2.0752.1875a4.2752,4.2752,0,0,1-1.7-.2212,2.8848,2.8848,0,0,1-1.3271-1.1226.2178.2178,0,0,1,.1025-.2383.1318.1318,0,0,0,.1016-.1357,1.9859,1.9859,0,0,1-.3233-1.106q-.0175-.6628.0166-1.4453.0353-.6123.0352-1.2759a5.9211,5.9211,0,0,0-.1367-1.2754l-.2041-.2382a1.7886,1.7886,0,0,0,.1865-1.36,1.97,1.97,0,0,0-.7305-1.0547,1.78,1.78,0,0,0-1.1914-.374,3.2989,3.2989,0,0,1,.9531-1.2246,4.3258,4.3258,0,0,1,1.3262-.68,9.3439,9.3439,0,0,1,2.4492-.46A15.0015,15.0015,0,0,0,88.4414,8.64a13.87,13.87,0,0,0-.2041-3.1972q-.2724-1.36-.6123-2.7212-.1714-.6123-.3408-1.2925T86.9785,0a2.7,2.7,0,0,1,1.6494.7144q.8.68,1.5137,1.19.4423.3062,1.0547.748a1.7245,1.7245,0,0,1,.6465,1.4287.794.794,0,0,1-.0684.3233,2.8569,2.8569,0,0,1-.17.3232,2.0075,2.0075,0,0,0-.1191.2041,1.1462,1.1462,0,0,0-.084.2383,4.7751,4.7751,0,0,0-.1192.9185q-.0176.476-.0176.9863v.6973q0,.3573-.0341.6972.6123.0688,1.3955.1021a5.0736,5.0736,0,0,0,1.4619-.1363,1.3019,1.3019,0,0,0,.9189-.6459,2.8347,2.8347,0,0,1,.6114.0678q.3075.0688.6806.17c.2041.0684.419.1363.6465.2041a3.6136,3.6136,0,0,0,.749.1363.8154.8154,0,0,0,.4922.4761q.3912.1706.8.34a.8241.8241,0,0,1,.5108.4761,3.0593,3.0593,0,0,1,.9687.3232A1.2656,1.2656,0,0,1,101.0273,10.749Zm-12.28,3.1294a6.3687,6.3687,0,0,1-.084-1.5137,6.7778,6.7778,0,0,0-.086-1.5478,7.2175,7.2175,0,0,0-1.6152.0508,8.8053,8.8053,0,0,0-1.6162.3574c0,.2041-.0059.4028-.0166.5952s-.0176.3911-.0176.5952c-.0224.272-.0332.5562-.0332.8506v1.0205q.917-.1025,1.7344-.1533A11.279,11.279,0,0,0,88.7471,13.8784Zm-.17,5.4766a8.5313,8.5313,0,0,0,.1534-1.7691,8.107,8.107,0,0,0-.1866-1.6328,6.7738,6.7738,0,0,1-1.5488.187q-.5947-.0168-1.1728-.0849c-.0909-.0225-.1768-.0391-.2549-.0508a1.845,1.845,0,0,0-.2559-.0171,15.3584,15.3584,0,0,0,.0176,1.5986c.0332.59.085,1.1568.1523,1.7007.4766.0459.9747.0742,1.4971.085S88.0332,19.3774,88.5771,19.355Zm6.4971-8.5039a1.1838,1.1838,0,0,1-.2373-.1533.4058.4058,0,0,1-.1025-.3233c-.25.023-.499.0342-.749.0342a7.0794,7.0794,0,0,1-.7139-.0342H92.54a2.6033,2.6033,0,0,0-.6289.0684,1.3672,1.3672,0,0,0-.5957.2719,1.15,1.15,0,0,0-.3574.68c.0459.0908.0967.2041.1533.34a.65.65,0,0,1,.0518.374c-.0235.0908-.0469.1758-.0684.2553-.0234.08-.0459.1529-.0683.2207q-.0675.2388-.1192.46a.9975.9975,0,0,0,.0508.5274,5.8873,5.8873,0,0,1,1.77.7309,15.7177,15.7177,0,0,1,1.4961,1.0718q-.6459.0681-1.53.1021a7.9179,7.9179,0,0,0-1.4629.17,9.2518,9.2518,0,0,0-.085,1.0205q-.0175.5449-.0176,1.0547,0,.4078-.0166.7651c-.0107.2383-.0283.437-.0508.5952a3.1944,3.1944,0,0,0,.6631,0c.2149-.022.4258-.0449.6289-.0679q.5449-.0336,1.0381-.0341a1.5873,1.5873,0,0,1,.9014.2724,16.431,16.431,0,0,0,.6973-3.8779Q95.1079,13.3682,95.0742,10.8511Z"/><path class="a" d="M118.4775,9.3882a2.6236,2.6236,0,0,0-1.9218.17,5.2785,5.2785,0,0,0-1.5137,1.2246,14.5555,14.5555,0,0,0-1.26,1.7691,10.8,10.8,0,0,1-1.1894,1.6328,1.0735,1.0735,0,0,0,.1191.3227.6663.6663,0,0,1,.084.3233.2736.2736,0,0,1-.0332.102c-.0234.0459-.0459.0908-.0684.1362a17.699,17.699,0,0,1,2.16,1.7686,12.7423,12.7423,0,0,1,1.82,2.1431,3.2513,3.2513,0,0,0-.1025,1.0547,1.4467,1.4467,0,0,1-2.0069-.2212,10.81,10.81,0,0,1-.97-1.1568,4.2924,4.2924,0,0,0-.9346-.9692q-.07,1.0547-.0859,2.1431-.0175,1.089-.0166,2.1767,0,1.5653.085,3.0957t.0849,3.0952a10.306,10.306,0,0,1-.0849,1.31,1.8436,1.8436,0,0,1-.5957,1.14.6927.6927,0,0,1-.8165-.1528,3.4178,3.4178,0,0,1-.73-.9526,6.8062,6.8062,0,0,1-.5108-1.1734,3.14,3.14,0,0,1-.1865-.8847,4.9138,4.9138,0,0,1,.1865-1.3433,7.8706,7.8706,0,0,0,.2549-1.31q.1349-1.0882.17-2.2114t.0342-2.2109q0-1.9725-.1025-3.9116c-.0215.0229-.0625.0678-.1182.1357a.2754.2754,0,0,1-.2217.1021,1.0805,1.0805,0,0,1-.2031.4765,1.0475,1.0475,0,0,1-.375.34c-.0449,0-.08-.045-.1016-.1358q0-.17-.1025-.1362c-.1592.272-.3564.59-.5947.9526a2.4092,2.4092,0,0,1-.7656.7822.3032.3032,0,0,0,.2714.3062.4012.4012,0,0,1-.289.1191.5274.5274,0,0,1-.2207-.0849,2.2044,2.2044,0,0,1-.2715-.0684c-.0684.1138-.0576.1822.0332.2041a.3828.3828,0,0,0,.2725-.0337.3992.3992,0,0,1-.2383.4082q-.2388.1018-.4932.2041a.5727.5727,0,0,0-.3232.4761l-.2041-.17q-.4776.5785-.7989.935a2.4092,2.4092,0,0,1-.97.5953l.2041.0683a4.6406,4.6406,0,0,1-.9355.5611,3.6143,3.6143,0,0,1-1.0713.289l.2373-.3061a1.2267,1.2267,0,0,0-.51.0683q-.2724.0681-.5781.1358a.9563.9563,0,0,1-.6123-.0679q.3062-.3735-.1358-.3062a.5891.5891,0,0,1,.1016-.4082.92.92,0,0,1,.2383-.17c.0683-.0454.1308-.0849.1875-.1191a.3191.3191,0,0,0,.1191-.2212,2.3936,2.3936,0,0,0,.7481.0171,3.3481,3.3481,0,0,0,.6123-.187c.0674-.0225.1416-.0454.2207-.0684s.165-.0449.2549-.0679c0-.0449-.0508-.0678-.1524-.0678a1.2135,1.2135,0,0,0-.289.0337c-.2051.0229-.3067.0229-.3067,0,0-.1128.1016-.2041.3067-.272a1.7422,1.7422,0,0,1,.5439-.1021,1.2664,1.2664,0,0,1,.374-.7143c.1817-.1582.3623-.3062.545-.4419a3.5015,3.5015,0,0,0,.4414-.3745,1.097,1.097,0,0,0,.2724-.6123h.5108v-.0337c0-.1363-.0469-.2041-.1368-.2041.0684-.1817.1416-.2725.2207-.2725a.8028.8028,0,0,1,.2891.0684.7794.7794,0,0,0,.2383.0678.389.389,0,0,0,.1367-.1362.1233.1233,0,0,0,0-.17.422.422,0,0,0-.1367.1191.2081.2081,0,0,1-.17.085.3031.3031,0,0,1-.085-.17,1.0233,1.0233,0,0,1-.0166-.17.6174.6174,0,0,0,.34-.0337c.1133-.0454.1924-.0225.2383.0678.1133-.2719.0332-.4082-.2383-.4082a.5032.5032,0,0,1,.2715-.1362.5447.5447,0,0,1,.2383.0684.5719.5719,0,0,1,.1875-.5445.7453.7453,0,0,1,.459-.17,1.7119,1.7119,0,0,1,.4424-1.02q.4086-.4761.8506-.9863a5.79,5.79,0,0,0,.6289-.9868,1.6009,1.6009,0,0,0,.0859-1.1563.6726.6726,0,0,0,.5781-.1533,3.2588,3.2588,0,0,0,.3057-.3911,1.4143,1.4143,0,0,1,.1533-.2891.3925.3925,0,0,1,.2549-.1533,3.6312,3.6312,0,0,1,.5273-1.2412,3.2512,3.2512,0,0,1,.8672-1.0376,4.3623,4.3623,0,0,0-1.122-.1362h-.6807a13.99,13.99,0,0,0-1.6836.0341,2.1312,2.1312,0,0,0-1.3779.6123c-.0235.023-.0235.0679,0,.1363a.1722.1722,0,0,1-.0684.2041,3.242,3.242,0,0,0-.7988.17c-.2617.0908-.5156.1929-.7656.3061q-.4073.1707-.8164.3062a2.5619,2.5619,0,0,1-.8164.1362q-.2374-.4761-.4766-.9184a1.6,1.6,0,0,0-.7139-.6807.6257.6257,0,0,0-.0508-.561,3.145,3.145,0,0,0-.3574-.4253,4.3717,4.3717,0,0,1-.374-.4253,1.0723,1.0723,0,0,1-.2041-.5611.5946.5946,0,0,0,.2891-.0512c.0556-.0337.0732-.13.0517-.2891a17.0459,17.0459,0,0,0,1.9727.3574,16.3857,16.3857,0,0,0,1.9726.1187,25.587,25.587,0,0,0,3.7246-.272q1.8546-.2717,3.6905-.51l.1025-.7144q1.0533.1707,2.0576.4253a3.9669,3.9669,0,0,1,1.7862,1.0034.6322.6322,0,0,0-.1192.68,5.5309,5.5309,0,0,0,.3574.6123,1.6315,1.6315,0,0,1,.2383.3062A2.6446,2.6446,0,0,1,118.4775,9.3882ZM106.47,18.47q-.0689-.0673-.3066.17c-.09.0908-.1582.1358-.2031.1358a1.8772,1.8772,0,0,0-.4258.4253q-.1875.2549-.4932.6294.0674.0343.2549-.1363c.125-.1133.2559-.2378.3906-.374.1133-.1133.21-.2095.2891-.2891s.1426-.1191.1875-.1191Zm8.7754-14.7627a1.5889,1.5889,0,0,0-.6621.8672,5.6309,5.6309,0,0,1-.4766,1.0547,1.4426,1.4426,0,0,1-1.0722.6294,2.4917,2.4917,0,0,1-.0166-.51c.0107-.1811.0283-.3623.0508-.5444q.0336-.4761.0341-.9521a2.2811,2.2811,0,0,0-.17-.8848q-.8173-.408-1.6152-.833a16.6017,16.6017,0,0,1-1.5488-.9356,6.5837,6.5837,0,0,1,1.4121-.5781,5.4728,5.4728,0,0,1,1.48-.2041,3.0313,3.0313,0,0,1,1.9551.6123,2.0271,2.0271,0,0,1,.6641,1.8706Zm-4.0469,7.79a.1818.1818,0,0,1-.0175.2212q-.0851.1194-.1875.2548c-.0674.0914-.1358.1822-.2032.2725a.7638.7638,0,0,0-.1367.272,1.1288,1.1288,0,0,0,.6289-.459,2.97,2.97,0,0,0,.3916-.7485,1.9866,1.9866,0,0,0,.1358-.5611Zm23.8789,15.9194a2.9689,2.9689,0,0,1-.63.1362,6.0575,6.0575,0,0,1-.6289.0337,8.6031,8.6031,0,0,1-2.126-.2719,14.1414,14.1414,0,0,0-2.16-.3741c-.5449-.0454-1.0937-.0732-1.65-.0849-.5547-.0113-1.1054-.0171-1.6484-.0171a39.1823,39.1823,0,0,0-4.8818.3232,18.7781,18.7781,0,0,0-4.7452,1.2075,7.4276,7.4276,0,0,1-2.0918-1.1567,6.72,6.72,0,0,1-1.5136-1.8369q2.0068-.3061,4.0136-.4932t4.0137-.187h1.0879a8.85,8.85,0,0,1,1.0889.0679q.1024-2.0069.1025-3.9116,0-1.2246-.0342-2.5342a13.2891,13.2891,0,0,0-.3056-2.5342H122.56a7.15,7.15,0,0,0-1.8887.2549,7.252,7.252,0,0,1-1.9219.2554,1.7308,1.7308,0,0,1-.85-.1363.8444.8444,0,0,1-.3066-.3569,1.2345,1.2345,0,0,0-.4766-.46.4492.4492,0,0,1-.4766.0684,2.42,2.42,0,0,1-.0507-.2725,2.0973,2.0973,0,0,1-.0166-.272.427.427,0,0,0-.1866-.1533c-.08-.0337-.166-.0732-.2558-.1186a1.4255,1.4255,0,0,1-.374-.1875.48.48,0,0,1-.17-.4248,7.9663,7.9663,0,0,1,1.9893-.29q1.0034-.016,2.0244.0171h1.1221q.5786,0,1.1738-.0337a10.0309,10.0309,0,0,0,1.1738-.1362q-.0351-2.1087-.1367-4.6089a21.2509,21.2509,0,0,0-.7138-4.7456,10.4036,10.4036,0,0,0-1.1221-2.7891,6.1231,6.1231,0,0,1,2.8906.9864q1.292.8509,2.5176,1.8369a22.3986,22.3986,0,0,0-.5781,4.456q-.0689,2.2794-.17,4.49.816-.1356,1.6328-.2212a16.2088,16.2088,0,0,1,1.6661-.085,7.1126,7.1126,0,0,1,2.2617.3569,3.6846,3.6846,0,0,1,1.82,1.378,2.7333,2.7333,0,0,1-1.377.5781,15.473,15.473,0,0,1-2.0586.2212q-1.122.0506-2.16.1191a7.884,7.884,0,0,0-1.7168.272q-.1714,2.2112-.2559,4.439t-.3574,4.4389h.375a9.4452,9.4452,0,0,1,1.1387.0684,9.1765,9.1765,0,0,0,1.1055.0679,3.4818,3.4818,0,0,0,1.038-.1534,1.9539,1.9539,0,0,0,.8672-.561,13.5332,13.5332,0,0,1,2.2783.6631q1.09.4263,2.212.7656a1.0432,1.0432,0,0,0,.1865.3062c.08.0908.1533.1816.2217.2719a4.2953,4.2953,0,0,1,.4248.5782A.8175.8175,0,0,1,135.0771,27.4165Z"/></svg>