<svg xmlns="http://www.w3.org/2000/svg" viewBox="0 0 135.1252 30.3351"><defs><style>.a{fill:#9a8b4b;}</style></defs><path class="a" d="M32.7592,27.3014a2.6133,2.6133,0,0,1-.9873.7314,2.9527,2.9527,0,0,1-1.122.2212,4.7982,4.7982,0,0,1-2.1094-.5952,8.2242,8.2242,0,0,1-1.8369-1.31,11.5855,11.5855,0,0,0-.7481-1.939,14.4809,14.4809,0,0,1-.7822-1.9047,1.6164,1.6164,0,0,0-.834.5952c-.2383.3061-.4922.6181-.7656.9355a4.8455,4.8455,0,0,1-.9687.7993,2.5426,2.5426,0,0,1-1.48.3228,6.731,6.731,0,0,0-.084.8506q-.0175.4423-.0176.9184,0,.7823-.0683,1.5137a2.0684,2.0684,0,0,1-.4414,1.1738,1.1666,1.1666,0,0,1-1.3106-.4765,10.2806,10.2806,0,0,1-.7646-1.3946,2.7956,2.7956,0,0,1-.1192-.2719,2.7931,2.7931,0,0,0-.1191-.2725,3.0836,3.0836,0,0,0,.374-1.3433q.0674-.8334.0684-1.6157,0-.34.0175-.6636t.0508-.5952a9.8739,9.8739,0,0,0-2.0586.6631,11.9175,11.9175,0,0,1-2.0234.6978,3.9184,3.9184,0,0,1-1.4971.0507,2.97,2.97,0,0,1-1.4619-.7314,10.1061,10.1061,0,0,0-.1543,1.4458q-.05.97-.1191,1.752-1.2569.34-2.4317.6289a25.83,25.83,0,0,1-2.67.4936,1.1058,1.1058,0,0,0-.1191.7481c.0341.34-.04.5669-.2207.6806-.0684.022-.1426.0449-.2217.0679s-.1533.0449-.2207.0679a2.7079,2.7079,0,0,1-.46.1533.52.52,0,0,1-.459-.1533A2.7843,2.7843,0,0,1,3.5053,27.71a16.5332,16.5332,0,0,1-.17-2.483q0-.7821-.0176-1.6157A9.6205,9.6205,0,0,0,3.13,21.9268a1.9989,1.9989,0,0,0-.3222-.4248q-.1875-.1867-.3916-.3916a4.9331,4.9331,0,0,1-.6973-.8672,1.1688,1.1688,0,0,1,.1192-1.2075,3.1627,3.1627,0,0,0,1.581.17q.936-.1017,1.9219-.2719c.1133-.0225.2265-.04.3408-.0513a3.2911,3.2911,0,0,0,.3408-.0508,12.536,12.536,0,0,1,1.4278-.1533,2.3731,2.3731,0,0,0,.9179-.187,1.3119,1.3119,0,0,0,.6133-.646,5.323,5.323,0,0,1,2.041.2891,10.9835,10.9835,0,0,1,1.9385.8335,8.1737,8.1737,0,0,0,.374-2.2964q.0338-1.2416,0-2.5342-.0336-.4761-.0332-.9351v-.9355c0-.1587.0049-.3174.0156-.4766s.0176-.3169.0176-.4761q.0338-1.19-.0176-2.3129A3.7426,3.7426,0,0,0,12.7915,7.13q-1.3609.1025-2.9766.2382t-3.1973.3233a22.375,22.375,0,0,0-2.9091.5273c-.0674.0225-.2032.08-.4082.17-.1133.0459-.2325.0908-.3565.1362a1.0462,1.0462,0,0,1-.3574.0679,1.9354,1.9354,0,0,1-.7139-.3741A5.7912,5.7912,0,0,1,.937,7.3682,5.138,5.138,0,0,1,.2055,6.3477q-.4423-.8839.0674-1.36A.6811.6811,0,0,1,.8,4.8512a2.9772,2.9772,0,0,1,.6972.17q.545.2043,1.1055.46a3.0318,3.0318,0,0,0,.9707.289,5.2089,5.2089,0,0,0,1.0879-.0513q.6123-.0842,1.2246-.187c.2715-.0449.5332-.0849.7822-.1191s.4991-.062.7491-.085a3.636,3.636,0,0,0,.373-.0171c.1133-.0107.2266-.0166.3408-.0166.249,0,.4815-.0053.6973-.0171a1.4376,1.4376,0,0,0,.63-.187c-.0235-.1816-.0518-.3628-.086-.5444s-.0742-.3623-.1191-.5444q-.0673-.3737-.1192-.731a4.8386,4.8386,0,0,1-.0507-.6636A6.06,6.06,0,0,1,8.0288,2.3a5.228,5.228,0,0,1-1.2412-.6631,3.015,3.015,0,0,1-.9014-.97A.626.626,0,0,1,6.4985.31a2.6,2.6,0,0,1,.7139.1192c.0908.0224.1582-.0454.2051-.2041.0214-.1133.0673-.17.1347-.17A3.912,3.912,0,0,1,9.645.2418a2.2021,2.2021,0,0,1,1.14,1.0718,3.1464,3.1464,0,0,1,.1875,1.5307,5.1983,5.1983,0,0,1-.5957,1.8706,2.5262,2.5262,0,0,0,1.02.6636,2.392,2.392,0,0,1,1.0215.6973.4161.4161,0,0,0-.0342-.3741.9391.9391,0,0,0-.2725-.2382,2.3035,2.3035,0,0,1-.2549-.2212.4373.4373,0,0,1-.1191-.3233,3.2268,3.2268,0,0,1,1.14-.2041c.3965,0,.834.023,1.31.0684.3623.0224.7432.0454,1.14.0679a11.8323,11.8323,0,0,0,1.2753,0q1.6671-.1019,3.4356-.2554t3.3672-.3911a19.2572,19.2572,0,0,0,2.7217-.5782,6.5,6.5,0,0,1,1.8877.7315q.8334.4937,1.6835.9692a1.3142,1.3142,0,0,1-.9521.6123,6.4887,6.4887,0,0,1-1.1562.0342h-.7491q-1.6318.1018-3.2138.272a30.2779,30.2779,0,0,1-3.2491.17,7.7611,7.7611,0,0,1,1.293,1.8711,1.48,1.48,0,0,0-.2383.7144c-.0224.2719-.0332.5332-.0332.7822a2.8113,2.8113,0,0,1-.0176.3232,2.5493,2.5493,0,0,0-.0175.2891q.7485,0,1.65-.0679a9.2139,9.2139,0,0,0,1.7177-.289A2.767,2.767,0,0,0,25.99,9.3751a4.8129,4.8129,0,0,1,1.9551.3911,3.5392,3.5392,0,0,1,1.2246.97,12.9414,12.9414,0,0,1,.97,1.3946.8679.8679,0,0,1-.7822.2719,1.0688,1.0688,0,0,0-.8164.2041,5.6161,5.6161,0,0,1-.17,2.3814q-.34,1.1565-.7822,2.2788-.2037.51-.4083,1.0376a10.1889,10.1889,0,0,0-.3408,1.0376A7.587,7.587,0,0,0,28.2007,21.06q.7821.7315,1.6328,1.3945a13.1276,13.1276,0,0,1,1.5986,1.48,3.5138,3.5138,0,0,0,.4082,1.1225q.3062.5442.5947,1.0713A2.7089,2.7089,0,0,1,32.7592,27.3014ZM11.4311,15.6a8.9961,8.9961,0,0,1-2.1943.8843,9.7747,9.7747,0,0,1-2.6358.374,5.4927,5.4927,0,0,1-2.1093-.3911,1.9854,1.9854,0,0,1-1.2246-1.3433q1.2246-.1362,2.7382-.3061a5.42,5.42,0,0,0,2.4659-.8165q.8159.34,1.6494.629A2.5892,2.5892,0,0,1,11.4311,15.6Zm.2715-4.354a.2687.2687,0,0,0-.1016.0337q-.6123.3062-1.4628.6635a13.991,13.991,0,0,1-1.8028.6123,5.443,5.443,0,0,1-1.8369.1871A3.7518,3.7518,0,0,1,5.3764,12.42a4.3777,4.3777,0,0,1-1.1406-.68q-.4586-.39-.3564-.6972a2.6982,2.6982,0,0,1,1.497-.3911,8.4207,8.4207,0,0,0,1.9043-.2554c.09-.0225.1817-.0449.2715-.0679s.1817-.0454.2735-.0679a7.6286,7.6286,0,0,1,1.5136-.3061,2.9343,2.9343,0,0,1,1.6836.4761,1.496,1.496,0,0,1,.3731.3569A2.67,2.67,0,0,1,11.7026,11.2462ZM9.0151,20.1925a6.0716,6.0716,0,0,0-1.207.2207q-.4936.153-.9864.3061a7.9724,7.9724,0,0,1-1.207.2554,3.384,3.384,0,0,0-.0859,1.19q.0513.7485.1533,1.565.0674.714.1357,1.3945a5.554,5.554,0,0,1,0,1.2246,13.48,13.48,0,0,1,1.5479-.2554,3.7794,3.7794,0,0,0,1.3779-.3911A6.15,6.15,0,0,0,9.0327,23.73q.0175-1.2246-.0176-2.2793V20.1925ZM13.812,22.233A4.5021,4.5021,0,0,0,12.6557,20.6a1.4137,1.4137,0,0,0-.63.9526,3.7921,3.7921,0,0,0-.1534,1.19,2.9206,2.9206,0,0,0,.9532-.2719A2.5154,2.5154,0,0,1,13.812,22.233Zm5.0342-11.9053q-.1715-1.02-.2891-1.854T18.2339,6.79h-.545c-.2265,0-.4755.0117-.748.0337q-.4423,0-.9.0171-.46.0175-.8682.0171A2.4425,2.4425,0,0,1,15.7,8.2867a12.2939,12.2939,0,0,1-.1192,1.8027,1.2947,1.2947,0,0,1-.0166.2041,1.2073,1.2073,0,0,0-.0175.2041,2.4374,2.4374,0,0,0,.8164,0q.4086-.0673.8506-.1357c.3173-.0684.6181-.1245.9013-.17A.9929.9929,0,0,1,18.8462,10.3277ZM18.9135,21.11q-.0673-.7815-.0839-1.3774t.0166-1.3438V17.0968a1.9132,1.9132,0,0,0-.5616.0171c-.2148.0341-.4365.0737-.663.1191q-.5436.0681-1.0713.1357a1.4881,1.4881,0,0,1-.8672-.102,3.9637,3.9637,0,0,0-.2051,1.3266v1.565a6.6275,6.6275,0,0,1,.0352.68v.68a1.18,1.18,0,0,0,.748-.0849,5.4225,5.4225,0,0,0,.51-.3233,1.3782,1.3782,0,0,1,.2382-.187,1.9143,1.9143,0,0,1,.3067-.1528,1.3961,1.3961,0,0,1,.4414.0679c.1367.0459.2725.0908.4082.1362s.2666.0908.3916.1357A.4782.4782,0,0,0,18.9135,21.11Zm-.1347-8.9121c-.16,0-.3574.0117-.5957.0342s-.4824.0571-.7315.1021c-.3174.0459-.6357.0849-.9521.1191a3.7112,3.7112,0,0,1-.7832.0171q-.1026.85-.1358,1.4966c-.0224.4311-.0459.9072-.0673,1.4287a1.6483,1.6483,0,0,0,.8671.102,5.2666,5.2666,0,0,0,.8331-.2041,4.0345,4.0345,0,0,1,.8505-.17.8934.8934,0,0,1,.7481.34Zm7.041-.1357a4.4,4.4,0,0,0-1.0381.1191c-.3291.08-.6289.1529-.9014.2207a8.7252,8.7252,0,0,1-1.4287.2725,2.11,2.11,0,0,1-1.3945-.4082q-.1715,3.0953-.1191,6.14t.1533,5.5957A.4322.4322,0,0,0,21.16,23.9q.4746-.51,1.1563-1.2754A10.018,10.018,0,0,0,23.49,21.0084a3.1245,3.1245,0,0,0,.4922-1.53,3.4067,3.4067,0,0,0-.51-1.65q-.51-.9009-.8847-1.6157a2.6969,2.6969,0,0,0-.2383-.4424c-.09-.1357-.1816-.272-.2715-.4082q-.3061-.5435-.5605-1.0376a1.8733,1.8733,0,0,1-.2217-1.0034,3.6808,3.6808,0,0,1,.9013.51,6.0351,6.0351,0,0,1,.7315.6807,12.3779,12.3779,0,0,1,1.02,1.2412,11.8816,11.8816,0,0,0,1.0205,1.2417,4.8509,4.8509,0,0,0,.6455-2.228Q25.6835,13.5252,25.82,12.0626Z"/><path class="a" d="M48.7456,7.47a1.0924,1.0924,0,0,1-.6631.2891,7.5732,7.5732,0,0,1-1.0713.102,9.6148,9.6148,0,0,0-1.0547.085q-1.3945.1706-3.1973.3916-1.8047.2211-3.4355.561a7.73,7.73,0,0,0-2.5859.9526,12.7672,12.7672,0,0,1-1.6328-1.497A8.5574,8.5574,0,0,1,33.813,6.484q0-.3062.3408-.2041a7.3532,7.3532,0,0,0,3.4.51q1.8369-.1354,3.7422-.4082.5435-.1024,1.0878-.17l1.09-.1362a6.4076,6.4076,0,0,1-.1191-.9864,6.5971,6.5971,0,0,1-.0176-1.0547,5.4924,5.4924,0,0,0-1.4453-.9692,2.8294,2.8294,0,0,1-1.2754-1.14q.7134-.2044,1.207-.3745t1.0371-.4078a1.0721,1.0721,0,0,0,.5274.3228,5.87,5.87,0,0,0,.6289.085h.3066a1.3464,1.3464,0,0,1,.5957.5273,1.1365,1.1365,0,0,0,.6631.4932,1.7,1.7,0,0,1,.0508.97,7.2169,7.2169,0,0,1-.2891.8335c-.0674.1816-.1308.3628-.1865.5439a2.9972,2.9972,0,0,0-.1192.5786,6.2064,6.2064,0,0,1,1.8711.3912q.9845.3566,1.836.6972a.4172.4172,0,0,1,.1875.4419A.9855.9855,0,0,1,48.7456,7.47Zm17.11,1.3267c.1133.2719.1241.4541.0342.5444a1.3284,1.3284,0,0,1-.34.2378,2.146,2.146,0,0,0-.2383.1362.3311.3311,0,0,0-.1367.2041q-2.1417.1707-4.4395.2383-2.2954.0681-4.7441.3061a2.2575,2.2575,0,0,1,.373,1.31,1.7968,1.7968,0,0,1-.4756,1.2754,4.3124,4.3124,0,0,0,2.1084.17,2.7224,2.7224,0,0,0,1.7012-.7822,6.5752,6.5752,0,0,1,3.2832.9014,5.0992,5.0992,0,0,1,2.0234,2.5342,7.7293,7.7293,0,0,1-1.7685.1362,6.09,6.09,0,0,0-.63,1.854q-.2213,1.14-.4082,2.4658t-.4082,2.6362a13.0124,13.0124,0,0,1-.6289,2.398,7.1253,7.1253,0,0,1-.8164,1.5478,7.4748,7.4748,0,0,1-1.3262,1.5137,2.5167,2.5167,0,0,1-1.5312.6807,2.9621,2.9621,0,0,1-1.7686-.46A4.5675,4.5675,0,0,1,54.4428,27.37a8.6282,8.6282,0,0,1-.8837-1.7012q-.3575-.9177-.6631-1.7006a1.1044,1.1044,0,0,0-.0684-.2378,11.2682,11.2682,0,0,1,1.7344.9692,3.351,3.351,0,0,0,1.7353.6294,1.7308,1.7308,0,0,0,.7823-.187,2.0333,2.0333,0,0,0,.7148-.6636,6.2743,6.2743,0,0,0,.9-2.041,12.97,12.97,0,0,1,.7324-2.1089q-.4423-.2373-.3408-.5781a.2963.2963,0,0,0,.3408-.085.5757.5757,0,0,0,.1524-.3232c.0117-.1133-.0391-.1582-.1524-.1363a4.1015,4.1015,0,0,1,.0332-.9013q.0673-.4929.1367-1.0034c.0684-.3623.13-.7369.1875-1.1226a5.8015,5.8015,0,0,0,.0508-1.1562q-1.0547.1362-2.2969.2207t-1.955.1533a18.7516,18.7516,0,0,0-1.1573,2.3979q-.51,1.2759-1.02,2.5342a11.34,11.34,0,0,1-1.2578,2.313.3977.3977,0,0,0-.289.0854,1.1878,1.1878,0,0,0-.1543.1871.4744.4744,0,0,1-.1182.187.3021.3021,0,0,1-.2217.0849,2.12,2.12,0,0,1-.56.9527,6.3,6.3,0,0,1-.8506.68,3.3526,3.3526,0,0,0-.8.7481.3131.3131,0,0,0-.2715.0683c-.0459.023-.0977.0508-.1533.085a.2916.2916,0,0,1-.2549-.0171.6114.6114,0,0,0-.2051.2891.4106.4106,0,0,1-.2373.2554,1.1109,1.1109,0,0,0-.5439-.1534.7971.7971,0,0,1-.4766-.1528,1.3134,1.3134,0,0,0-.2891.748,6.4237,6.4237,0,0,0-.0175,1.0547,30.3689,30.3689,0,0,1-3.3672.2891,9.1644,9.1644,0,0,0-3.0274.5615v.646c-.0459.2041-.1367.3115-.2715.3233a1.66,1.66,0,0,1-.4082-.0171q-.3412-.0345-.4433.0683a1.8487,1.8487,0,0,1-1.02-1.65,23.2822,23.2822,0,0,1-.0684-2.5683c0-.2041.0059-.4136.0166-.6294s.0166-.4248.0166-.6289a7.309,7.309,0,0,0-.34-2.3135,1.9626,1.9626,0,0,0-1.5987-1.2925,1.237,1.237,0,0,1,.374-.9863.7991.7991,0,0,1,1.0547-.0342q.4761-.033,1.0547-.1191.5772-.0843,1.2246-.1871,1.1221-.17,2.2959-.3061a18.9424,18.9424,0,0,1,2.16-.1357q.2709-.1026.1865-.2554c-.0566-.1021-.0059-.21.1543-.3233q1.3594.1707,2.3975.34a5.5347,5.5347,0,0,1,1.9892.7485.5252.5252,0,0,0,0,.5781,2.8567,2.8567,0,0,0,.375.3741q.2037.1706.3574.3232a.7064.7064,0,0,1,.1866.4253,2.8481,2.8481,0,0,0-1.7686.85,3.9149,3.9149,0,0,0-.8672,1.7178,14.6208,14.6208,0,0,0-.3574,2.2622.6259.6259,0,0,0,.34-.34.9663.9663,0,0,0,.9864-.2207A2.5451,2.5451,0,0,0,49.018,24.24c-.0459-.0454-.125-.0224-.2382.0679q-.1364.1362-.2373.102.101-.1354.5781-1.1054.4746-.97,1.1562-2.4492.68-1.48,1.36-3.2315t1.19-3.5376a20.5814,20.5814,0,0,0,.6807-3.2827,4.0581,4.0581,0,0,0-2.3467.272,1.4422,1.4422,0,0,0-.4082.3232c-.1367.148-.2275.2212-.2734.2212a1.3049,1.3049,0,0,1-.85-.3569q-.51-.3912-.8847-.6973a.5979.5979,0,0,0-.17-.17q-.4425-.3735-.8848-.6973a1.6564,1.6564,0,0,1-.6113-.8335q2.04-.0673,4.2685-.3061t4.6084-.34q-.0322-.952-.0674-1.6328-.0336-.68-.17-1.6328a2.965,2.965,0,0,0-.8848-.7485,5.9,5.9,0,0,1-1.0205-.7481,1.7611,1.7611,0,0,1-.4589-.7314,1.1116,1.1116,0,0,1,.1875-.9014,4.15,4.15,0,0,1,2.4658,0,5.4737,5.4737,0,0,1,2.0244,1.19,5.3833,5.3833,0,0,1-.1875,2.3814q-.3574,1.122-.7656,2.1089a2.2875,2.2875,0,0,0-.1192.289,2.1305,2.1305,0,0,1-.1191.2891,2.19,2.19,0,0,0,.8164.0679q.51-.033,1.0889-.1021.4759-.0674.9521-.102a5.47,5.47,0,0,1,.8506,0,2.1312,2.1312,0,0,1,1.6836-.5782,6.0589,6.0589,0,0,1,1.99.4932A7.2911,7.2911,0,0,1,65.8559,8.797ZM47.5893,15.8043a1.1573,1.1573,0,0,1-.8672.8164,8.4665,8.4665,0,0,1-1.48.34q-.9522.137-1.9893.2725a15.5517,15.5517,0,0,1-2.0244.1357,7.2053,7.2053,0,0,1-2.0234-.2719,2.7767,2.7767,0,0,1-1.48-.9864,1.4849,1.4849,0,0,1,1.1572-.7485,12.9256,12.9256,0,0,1,1.667-.1021q.34,0,.68-.017t.6465-.0508a4.4335,4.4335,0,0,0,1.0722-.272,2.769,2.769,0,0,1,.9356-.2041,3.9114,3.9114,0,0,1,1.4961.2207q.7149.2556,1.36.5273c.1358.0684.2784.1309.4248.1871C47.312,15.7081,47.4526,15.7589,47.5893,15.8043Zm-.5781-4.252a1.98,1.98,0,0,1-1.2422.8335q-.9009.2549-1.7851.4248a15.9577,15.9577,0,0,1-3.6055.3575,3.0475,3.0475,0,0,1-2.4834-1.31,2.0817,2.0817,0,0,1,1.4111-.7486,18.0245,18.0245,0,0,1,1.99-.17,7.5725,7.5725,0,0,0,1.8711-.2719l.2041-.1021c.1357-.0684.2607-.13.374-.1875s.1816-.0278.2041.0854q.8832.1363,1.7178.34A2.66,2.66,0,0,1,47.0112,11.5523ZM44.936,20.5665q-1.2583.0681-2.4834.1528a8.6328,8.6328,0,0,0-2.2109.4253,5.6135,5.6135,0,0,1,.2207,1.4116q.0175.6981-.0166,1.4117T40.4292,25.38a6.7578,6.7578,0,0,0,.1875,1.4116H40.65q.85-.1692,1.8886-.3062a9.097,9.097,0,0,1,1.8868-.0678,4.1131,4.1131,0,0,0,.3574-1.5479q.0513-.9009.0508-1.8877V21.74A6.4226,6.4226,0,0,1,44.936,20.5665ZM51.91,18.5933c0-.1811-.08-.26-.2382-.2377a8.462,8.462,0,0,1-.7832,1.9389q-.51.9177-.9688,1.8027A7.35,7.35,0,0,0,49.2563,23.9q.5787-1.1229,1.02-1.9732t.8848-1.7514Q51.6025,19.2745,51.91,18.5933Z"/><path class="a" d="M99.4292,26.213a.8093.8093,0,0,1,.1191.9013,7.2759,7.2759,0,0,1-.4922.8677.71.71,0,0,0-.1367.17,6.0368,6.0368,0,0,1-3.1465.5274,9.16,9.16,0,0,1-3.2148-.9014,8.5126,8.5126,0,0,1-2.5166-1.8032q-1.3609-3.0607-2.9248-5.9185-1.566-2.8572-3.1983-5.6465a.755.755,0,0,0-.3564.2891,1.3409,1.3409,0,0,1-.2891.3233,28.3588,28.3588,0,0,1-1.7012,4.9829,20.54,20.54,0,0,1-2.416,4.0312,16.4845,16.4845,0,0,1-2.8574,2.84,19.9626,19.9626,0,0,1-3.57,2.1939.3591.3591,0,0,0-.3242-.1533,2.2723,2.2723,0,0,0-.4248.0854c-.1143.022-.2276.0449-.3408.0679a2.1224,2.1224,0,0,1-.4082.0342c-.0215-.1592.0234-.2554.1367-.29a3.067,3.067,0,0,1,.374-.0849h.0684a2.3074,2.3074,0,0,0-.6631-.0337,1.7428,1.7428,0,0,0-.4258.102,1.2629,1.2629,0,0,1-.4932.0337,1.5439,1.5439,0,0,1-.6631-.51,1.2055,1.2055,0,0,0,.4766-.1358,1.8909,1.8909,0,0,1,.373-.17q1.1925-.783,2.4668-1.6494A22.9149,22.9149,0,0,0,75.312,24.461a10.5588,10.5588,0,0,0,1.9394-2.2959q.0675-.0673,0-.3061a.5038.5038,0,0,1,0-.272,1.207,1.207,0,0,1,.4932-.5273,1.3929,1.3929,0,0,0,.4932-.4595.8.8,0,0,0,.1015-.51.68.68,0,0,1,.1026-.4765,3.3527,3.3527,0,0,1,.7822-.9014,1.5455,1.5455,0,0,0,.5449-1.1734c0-.0224-.0351-.0454-.1025-.0683-.1143-.022-.1592-.0791-.1358-.17a1.78,1.78,0,0,1,.4248-.7652,2.2571,2.2571,0,0,0,.46-.7314,4.6762,4.6762,0,0,0,.4082-1.6841,5.15,5.15,0,0,1,.3057-1.5815q-1.5307.1362-3.1983.34a11.647,11.647,0,0,0-3.0605.7822,4.6258,4.6258,0,0,1-2.4834-1.5307,9.94,9.94,0,0,1-1.3946-2.585,1.4605,1.4605,0,0,1,1.378-.1191,8.55,8.55,0,0,1,1.2412.6293c.1133.0679.1924.1138.2383.1358a13.072,13.072,0,0,0,2.5.0342q1.308-.1018,2.6025-.2383.68-.0673,1.3262-.1358t1.2588-.102a8.3041,8.3041,0,0,1-.0166-.9185c.0107-.2944.0166-.5786.0166-.85q.0336-.646.0166-1.2417a8.889,8.889,0,0,0-.1192-1.2076,1.8934,1.8934,0,0,1,.0176-.2378,2.2985,2.2985,0,0,0,.0166-.2724c.0225-.1812.0342-.2945.0342-.34a3.434,3.434,0,0,0-.34-.9526q-.2386-.4416-.5107-.8506a10.2179,10.2179,0,0,1-.6631-1.19A2.5431,2.5431,0,0,1,79.8022.2589a3.6261,3.6261,0,0,1,2.2461.6635q.9844.6973,1.87,1.4454c.1133.0913.2217.1821.3233.2724s.209.1817.3232.272c0,.25.0049.499.0166.7485s.0283.499.0508.7481q.0689,1.1228.0859,2.33a13.8125,13.8125,0,0,1-.2216,2.5683,10.6524,10.6524,0,0,0,1.99.0171q.9682-.0849,1.9219-.187.4759-.0681.9521-.1192t.9531-.0849a.7236.7236,0,0,1,.3057-.3911.5558.5558,0,0,0,.2383-.46A15.7434,15.7434,0,0,1,92.95,8.44a7.521,7.521,0,0,1,1.9736.7652A3.4831,3.4831,0,0,1,96.3,10.6c.1132.1816.1464.3232.1015.4253a.8192.8192,0,0,1-.17.2549.7138.7138,0,0,0-.1357.17,34.139,34.139,0,0,0-4.4219.0849q-2.2793.1875-4.5576.459c-.3184.023-.6465.0572-.9873.1021s-.669.08-.9864.102a34.7942,34.7942,0,0,0,2.96,4.0142A28.5344,28.5344,0,0,0,91.895,19.92a22.9761,22.9761,0,0,0,4.4736,2.8574l.0332.374a4.9171,4.9171,0,0,1,1.5313,1.3609A18.9347,18.9347,0,0,0,99.4292,26.213Z"/><path class="a" d="M118.4448,9.0011a2.6233,2.6233,0,0,0-1.9219.17,5.2812,5.2812,0,0,0-1.5137,1.2246,14.5725,14.5725,0,0,0-1.26,1.769,10.8019,10.8019,0,0,1-1.1895,1.6328,1.0716,1.0716,0,0,0,.1192.3228.667.667,0,0,1,.084.3232.2753.2753,0,0,1-.0332.1021c-.0235.0459-.0459.0908-.0684.1362a17.6814,17.6814,0,0,1,2.16,1.7686,12.7378,12.7378,0,0,1,1.82,2.143,3.2543,3.2543,0,0,0-.1026,1.0547,1.4463,1.4463,0,0,1-2.0068-.2212,10.7751,10.7751,0,0,1-.97-1.1567,4.2924,4.2924,0,0,0-.9346-.9692c-.0469.7031-.0742,1.4174-.0859,2.143s-.0166,1.4517-.0166,2.1768q0,1.5651.0849,3.0957t.085,3.0952a10.2879,10.2879,0,0,1-.085,1.31,1.8426,1.8426,0,0,1-.5957,1.14.6926.6926,0,0,1-.8164-.1528,3.42,3.42,0,0,1-.7305-.9526,6.7977,6.7977,0,0,1-.5107-1.1734,3.1408,3.1408,0,0,1-.1866-.8848,4.9137,4.9137,0,0,1,.1866-1.3432,7.8809,7.8809,0,0,0,.2549-1.31q.1347-1.0884.17-2.2114t.0342-2.2109q0-1.9725-.1026-3.9117c-.0214.023-.0625.0679-.1181.1358a.2757.2757,0,0,1-.2217.102,1.0818,1.0818,0,0,1-.2032.4766,1.0454,1.0454,0,0,1-.375.34c-.0449,0-.08-.0449-.1015-.1357q0-.17-.1025-.1362c-.1592.2719-.3565.59-.5948.9526a2.4072,2.4072,0,0,1-.7656.7822.3032.3032,0,0,0,.2715.3062.4019.4019,0,0,1-.2891.1191.5279.5279,0,0,1-.2207-.0849,2.2275,2.2275,0,0,1-.2715-.0684c-.0683.1138-.0576.1821.0333.2041a.383.383,0,0,0,.2724-.0337.3993.3993,0,0,1-.2383.4082q-.2386.1018-.4932.2041a.5727.5727,0,0,0-.3232.4761l-.2041-.17q-.4775.5785-.7988.935a2.41,2.41,0,0,1-.97.5952l.2041.0684a4.6435,4.6435,0,0,1-.9356.561,3.6105,3.6105,0,0,1-1.0713.2891l.2373-.3062a1.2271,1.2271,0,0,0-.51.0684c-.1817.0454-.374.0908-.5782.1357a.9562.9562,0,0,1-.6123-.0678c.2041-.2491.1582-.3511-.1357-.3062a.5891.5891,0,0,1,.1016-.4082.915.915,0,0,1,.2382-.17q.1026-.0681.1875-.1191a.3194.3194,0,0,0,.1192-.2212,2.396,2.396,0,0,0,.748.0171,3.3367,3.3367,0,0,0,.6123-.1871c.0674-.0224.1416-.0454.2207-.0683s.1651-.0449.2549-.0679c0-.0449-.0508-.0679-.1523-.0679a1.22,1.22,0,0,0-.2891.0337c-.2051.023-.3066.023-.3066,0,0-.1128.1015-.2041.3066-.2719a1.7428,1.7428,0,0,1,.544-.1021,1.2649,1.2649,0,0,1,.374-.7143c.1816-.1583.3623-.3062.5449-.4419a3.4869,3.4869,0,0,0,.4414-.3746,1.0964,1.0964,0,0,0,.2725-.6123h.5107v-.0337c0-.1362-.0469-.2041-.1367-.2041.0684-.1816.1416-.2724.2207-.2724a.8024.8024,0,0,1,.2891.0683.7764.7764,0,0,0,.2382.0679.3892.3892,0,0,0,.1368-.1362.1233.1233,0,0,0,0-.17.4233.4233,0,0,0-.1368.1191.2082.2082,0,0,1-.17.085.3036.3036,0,0,1-.0849-.17,1.0118,1.0118,0,0,1-.0166-.17.6155.6155,0,0,0,.34-.0337c.1133-.0454.1924-.0224.2383.0679.1133-.272.0332-.4082-.2383-.4082a.5029.5029,0,0,1,.2715-.1362.5452.5452,0,0,1,.2383.0683.5712.5712,0,0,1,.1875-.5444.7451.7451,0,0,1,.459-.17,1.7115,1.7115,0,0,1,.4423-1.02q.4087-.4761.8506-.9864a5.7824,5.7824,0,0,0,.6289-.9868,1.6,1.6,0,0,0,.0859-1.1562.6732.6732,0,0,0,.5782-.1533,3.27,3.27,0,0,0,.3057-.3912,1.4111,1.4111,0,0,1,.1533-.289.3923.3923,0,0,1,.2549-.1533,3.6292,3.6292,0,0,1,.5273-1.2412,3.2486,3.2486,0,0,1,.8672-1.0376,4.3592,4.3592,0,0,0-1.1221-.1363h-.6806a14.01,14.01,0,0,0-1.6836.0342,2.1315,2.1315,0,0,0-1.378.6123c-.0234.023-.0234.0679,0,.1362a.1721.1721,0,0,1-.0683.2041,3.2429,3.2429,0,0,0-.7989.17c-.2617.0908-.5156.1928-.7656.3061q-.4073.1707-.8164.3062a2.5614,2.5614,0,0,1-.8164.1362q-.2373-.4761-.4766-.9185a1.6,1.6,0,0,0-.7138-.6806.6266.6266,0,0,0-.0508-.5611,3.1578,3.1578,0,0,0-.3574-.4252,4.345,4.345,0,0,1-.374-.4253,1.0714,1.0714,0,0,1-.2041-.5611.5951.5951,0,0,0,.289-.0512c.0557-.0337.0733-.13.0518-.2891a17.04,17.04,0,0,0,1.9726.3574,16.3886,16.3886,0,0,0,1.9727.1187,25.601,25.601,0,0,0,3.7246-.272q1.8545-.2718,3.69-.51l.1026-.7143q1.0532.1707,2.0576.4253a3.9671,3.9671,0,0,1,1.7861,1.0034.6321.6321,0,0,0-.1191.68,5.5152,5.5152,0,0,0,.3574.6123,1.6391,1.6391,0,0,1,.2383.3061A2.6652,2.6652,0,0,1,118.4448,9.0011Zm-12.0078,9.082c-.0459-.0449-.1485.0117-.3067.17-.09.0908-.1582.1357-.2031.1357a1.8833,1.8833,0,0,0-.4258.4253q-.1875.255-.4931.6294.0673.0345.2549-.1362c.125-.1133.2558-.2378.3906-.374q.17-.17.289-.2891c.08-.0791.1426-.1191.1875-.1191ZM115.2124,3.32a1.5884,1.5884,0,0,0-.6621.8672,5.6373,5.6373,0,0,1-.4766,1.0547,1.4433,1.4433,0,0,1-1.0723.6294,2.4988,2.4988,0,0,1-.0166-.51c.0108-.1811.0284-.3623.0508-.5444q.0337-.4761.0342-.9522a2.2806,2.2806,0,0,0-.17-.8847q-.8174-.408-1.6153-.833a16.6017,16.6017,0,0,1-1.5488-.9356,6.5837,6.5837,0,0,1,1.4121-.5781,5.4736,5.4736,0,0,1,1.48-.2041,3.0313,3.0313,0,0,1,1.9551.6123,2.0273,2.0273,0,0,1,.664,1.8706Zm-4.0469,7.79a.1818.1818,0,0,1-.0176.2212q-.0849.1194-.1875.2549c-.0674.0913-.1357.1821-.2031.2725a.7606.7606,0,0,0-.1367.272,1.1288,1.1288,0,0,0,.6289-.459,2.9693,2.9693,0,0,0,.3916-.7486,1.9842,1.9842,0,0,0,.1357-.561Zm23.8789,15.92a2.9835,2.9835,0,0,1-.63.1362,6.0561,6.0561,0,0,1-.6289.0337,8.6,8.6,0,0,1-2.126-.272,14.15,14.15,0,0,0-2.16-.374c-.5449-.0454-1.0938-.0732-1.65-.085-.5547-.0112-1.1055-.017-1.6484-.017a39.1838,39.1838,0,0,0-4.8819.3232,18.7741,18.7741,0,0,0-4.7451,1.2075,7.43,7.43,0,0,1-2.0918-1.1567,6.7234,6.7234,0,0,1-1.5137-1.8369q2.0069-.3061,4.0137-.4932t4.0137-.187h1.0879a8.83,8.83,0,0,1,1.0888.0679q.1026-2.0068.1026-3.9117,0-1.2246-.0342-2.5341a13.2891,13.2891,0,0,0-.3057-2.5342h-.4082a7.1458,7.1458,0,0,0-1.8886.2549,7.2525,7.2525,0,0,1-1.9219.2553,1.7305,1.7305,0,0,1-.85-.1362.8459.8459,0,0,1-.3067-.3569,1.2334,1.2334,0,0,0-.4765-.46.45.45,0,0,1-.4766.0684,2.3978,2.3978,0,0,1-.0508-.2725,2.1163,2.1163,0,0,1-.0166-.272.4266.4266,0,0,0-.1865-.1533c-.08-.0337-.166-.0732-.2559-.1187a1.4286,1.4286,0,0,1-.374-.1875.48.48,0,0,1-.17-.4248,7.97,7.97,0,0,1,1.9893-.2895q1.0033-.016,2.0244.0171h1.122q.5787,0,1.1739-.0337a10.0764,10.0764,0,0,0,1.1738-.1362q-.0351-2.1087-.1367-4.6089a21.25,21.25,0,0,0-.7139-4.7456,10.399,10.399,0,0,0-1.1221-2.7891,6.1223,6.1223,0,0,1,2.8907.9863q1.292.8511,2.5175,1.8369a22.4079,22.4079,0,0,0-.5781,4.4561q-.0688,2.2793-.17,4.49.8158-.1354,1.6328-.2212a16.2353,16.2353,0,0,1,1.666-.0849,7.1089,7.1089,0,0,1,2.2617.3569,3.6852,3.6852,0,0,1,1.82,1.3779,2.7332,2.7332,0,0,1-1.377.5782,15.49,15.49,0,0,1-2.0586.2212q-1.122.0505-2.16.1191a7.8769,7.8769,0,0,0-1.7167.272q-.1715,2.2112-.2559,4.4389t-.3574,4.439h.375a9.4448,9.4448,0,0,1,1.1386.0684,9.1761,9.1761,0,0,0,1.1055.0678,3.482,3.482,0,0,0,1.0381-.1533,1.9545,1.9545,0,0,0,.8672-.561,13.5359,13.5359,0,0,1,2.2783.6631q1.09.4261,2.2119.7656a1.0414,1.0414,0,0,0,.1865.3061c.08.0909.1534.1817.2217.272a4.2944,4.2944,0,0,1,.4248.5781A.8177.8177,0,0,1,135.0444,27.0294Z"/></svg>