<svg xmlns="http://www.w3.org/2000/svg" viewBox="0 0 84.6055 25.9027"><defs><style>.a{fill:#9a8b4b;}</style></defs><path class="a" d="M27.1133,17.0829a1.14,1.14,0,0,1-.5635.737,2.7046,2.7046,0,0,1-.8242.2457,3.8545,3.8545,0,0,1-1.0986-.0433c-.3848-.0673-.79-.14-1.2129-.2168q-.4923-.0867-1.0411-.1879a8.6717,8.6717,0,0,0-1.1269-.13,64.5759,64.5759,0,0,0-7.0967-.0144q-3.6855.1883-6.9521.5925-.6065.0867-1.17.2168t-1.0839.2746q-.5215.1451-.9825.26a2.4042,2.4042,0,0,1-.7812.0867,2.3478,2.3478,0,0,1-1.2578-.4625A8.5949,8.5949,0,0,1,.94,17.5742,3.2486,3.2486,0,0,0,0,16.8805c.0391-.1734.1055-.27.2031-.289.0957-.019.1914-.0334.2891-.0434A.2368.2368,0,0,0,.6934,16.36a6.9419,6.9419,0,0,0,2.1113.2457q1.04-.0433,2.168-.1878.8085-.0869,1.6757-.1735a11.7212,11.7212,0,0,1,1.85-.0289,8.1238,8.1238,0,0,1-1.5019-1.0406,5.0135,5.0135,0,0,1-.8242-.9249,4.9422,4.9422,0,0,1-.5928-1.1562,4.4527,4.4527,0,0,1,1.69.1734,3.81,3.81,0,0,1,1.5762.8383,2.4153,2.4153,0,0,1,.6064.8815A1.6854,1.6854,0,0,1,9.4814,16.1q.9537-.0285,1.5459-.1012a12.722,12.722,0,0,1,1.4883-.0722,5.2625,5.2625,0,0,0,.044-.8672q-.0147-.4335-.044-.896c-.0195-.2313-.0332-.477-.0429-.7371s-.0137-.5442-.0137-.8527a11.8446,11.8446,0,0,0-1.2149.1156c-.3847.0578-.7617.1156-1.1269.1734q-.7808.1451-1.5029.2313a5.6342,5.6342,0,0,1-1.503-.0289A1.0007,1.0007,0,0,0,6.707,12.53c-.1933-.1251-.3965-.2457-.6074-.3613a5.1965,5.1965,0,0,1-.665-.4191.7619.7619,0,0,1-.2891-.65q1.1265.0292,2.0518-.0144t1.8789-.1012c.4824-.0384.9824-.0673,1.5039-.0867q.7793-.0285,1.7344-.0578a.4768.4768,0,0,0,.0722-.2891q-.016-.1443-.0439-.3179c-.02-.0962-.0381-.1924-.0576-.2891a1.023,1.023,0,0,1,0-.3468c-.3477.0388-.7657.0677-1.2579.0867s-.9628.0578-1.416.1156a2.16,2.16,0,0,0-1.0547.3758,6.9688,6.9688,0,0,1-1.6484-.7227,2.369,2.369,0,0,1-.9238-1.4452q.6342-.0576,1.3-.0578t1.3584.0289q.8085.0291,1.6914.0289a14.5432,14.5432,0,0,0,1.8066-.1156,1.3113,1.3113,0,0,0-.2031-1.3586,11.183,11.183,0,0,0-2.3408.1012,6.6876,6.6876,0,0,0-1.7051.5637A8.66,8.66,0,0,1,6.2441,6.229,4.815,4.815,0,0,1,5.001,4.856c.1533-.0189.3135-.0383.4775-.0578.1621-.0189.2451-.0962.2451-.2312a6.8942,6.8942,0,0,0,1.8213.3035q.8379.0149,1.9649-.0723c.2129,0,.4433-.0045.6933-.0144s.5117-.0239.7813-.0434q-.8966-.5778-1.4883-.9394a5.9248,5.9248,0,0,0-1.084-.5347,1.4257,1.4257,0,0,0,0-.8961,5.1513,5.1513,0,0,0-.3476-.7226C7.9883,1.513,7.91,1.373,7.834,1.2285A1.929,1.929,0,0,1,7.66.78Q10.81.607,11.7646,3.96a.6915.6915,0,0,0-.1884.3613,1.0685,1.0685,0,0,1-.1875.4191q.9828-.0867,2.0234-.13t2.5156-.0723a3.57,3.57,0,0,0,.91-1.1851A4.813,4.813,0,0,1,17.69,2.11a2.54,2.54,0,0,0-.5781-.6937,2.0554,2.0554,0,0,1-.55-.7227c.02-.1156.082-.1684.1885-.1589s.1689-.0723.1875-.2457A11.6882,11.6882,0,0,0,18.543.52a4.1737,4.1737,0,0,1,1.4306.3469,1.9013,1.9013,0,0,1,.9541,1.1561A3.7806,3.7806,0,0,1,19.67,3.2663a7.8894,7.8894,0,0,0-1.4306,1.1273,9.0977,9.0977,0,0,1,1.4453-.1445,5.0593,5.0593,0,0,1,1.7783.3179,3.0692,3.0692,0,0,1,1.373.9828.2176.2176,0,0,1-.0722.3468.7981.7981,0,0,1-.4492.1445,23.21,23.21,0,0,1-2.4571.1735q-1.3285.0291-2.5429.0289-.7809,0-1.4307.0144t-1.1416.0434a.44.44,0,0,0-.0147.2023c.0088.0773.0245.164.044.26.0176.1156.0371.2411.0566.3758a.7506.7506,0,0,1-.0566.4046,2.18,2.18,0,0,0,1.0683.13,9.2523,9.2523,0,0,0,.9834-.1879q.2593-.0867.5059-.1445a2.0791,2.0791,0,0,1,.4766-.0578,2.132,2.132,0,0,1,1.0693.2023q.4629.2318.8965.4914c.1543.0966.3027.1879.4473.2746a2.7437,2.7437,0,0,0,.4492.2168c-.0782.5013-.3086.7709-.6944.8093A5.4168,5.4168,0,0,1,18.7305,9.25c-.1153-.0189-.23-.0334-.3467-.0434s-.2315-.0144-.3467-.0144a3.78,3.78,0,0,0-.7373.0144q-.3618.0435-.7373.0723c-.3086.0389-.6211.0723-.94.1012a4.9189,4.9189,0,0,1-.996-.0145,1.6558,1.6558,0,0,0-.0723.6359,1.6072,1.6072,0,0,1-.1309.7227,6.8037,6.8037,0,0,1,.8965-.0578h.9531a16.2043,16.2043,0,0,0,1.7061-.0289,1.2741,1.2741,0,0,0,1.0107-.4047q.8394.2025,1.6485.448a2.6912,2.6912,0,0,1,1.3008.8238.1587.1587,0,0,1,.0429.1879.6062.6062,0,0,1-.13.1879,1.1382,1.1382,0,0,0-.1591.2023.4.4,0,0,0-.043.289,6.3089,6.3089,0,0,1-1.0117.029,1.4671,1.4671,0,0,0,.5634.6214.9059.9059,0,0,1,.39.7949,6.24,6.24,0,0,1-2.3984,1.2863,5.2873,5.2873,0,0,1-2.6309.1589,1.0531,1.0531,0,0,1,.333-.5781q.2739-.26.5635-.4913a4.9554,4.9554,0,0,0,.65-.5926.79.79,0,0,0,.2168-.6793.5144.5144,0,0,0-.3037-.448,1.904,1.904,0,0,0-.6787-.159c-.2129,0-.4434.01-.6944.0289s-.501.0484-.751.0868-.5019.0677-.7519.0867-.4727.0289-.6641.0289a5.2814,5.2814,0,0,1,.043.8816q-.0147.477-.043.9972c0,.2507-.0058.5013-.0156.7515s-.0137.4914-.0137.7227a23.1713,23.1713,0,0,1,3.0781-.1446q1.5762.0291,3.2813.0868h.2012a1.3688,1.3688,0,0,1,1.2724-.4192,15.0813,15.0813,0,0,1,1.6475.3035c.0957.0194.1973.0434.3037.0723s.2061.0533.3037.0723q.0572.1734-.26.2023H24.165q.1158.2025.2168.1734a1.2287,1.2287,0,0,0,.2168-.0867c.1162-.0962.2022-.1251.2608-.0867a2.413,2.413,0,0,1,1.1269.4914A2.64,2.64,0,0,0,27.1133,17.0829ZM22.3145,20.06a.4265.4265,0,0,1,.0585.3613,1.7933,1.7933,0,0,1-.1445.3035,1.903,1.903,0,0,0-1.3437.4191,2.6664,2.6664,0,0,0-.68,1.0551,6.1252,6.1252,0,0,0-.3184,1.33,7.2,7.2,0,0,1-.2461,1.214.93.93,0,0,1-.5625.6648,1.3176,1.3176,0,0,1-.65.0578,3.506,3.506,0,0,1-.5058-.1445c-.0977-.0388-.1885-.0723-.2754-.1012a2.1837,2.1837,0,0,0-.2744-.0722,13.7479,13.7479,0,0,0-2.0381-.0289q-1.1982.0576-2.4707.1878t-2.3418.2891a16.0206,16.0206,0,0,0-1.6182.3035.7357.7357,0,0,1-.55-.159,3.9353,3.9353,0,0,1-.4619-.448c-.0967-.0966-.1738-.1734-.2314-.2312a1.2119,1.2119,0,0,1-.3467-.8239,7.6755,7.6755,0,0,1,.0283-1.1417q.0293-.5487.0293-1.1706a4.165,4.165,0,0,0-.2022-1.2574,1.3736,1.3736,0,0,1-.78-.5058,2.4311,2.4311,0,0,0-.6651-.6215,1.5062,1.5062,0,0,1,1.0118-.6359,11.5436,11.5436,0,0,1,1.59-.2024q1.3008-.0867,2.9619-.1589t3.2813-.1879a26.4826,26.4826,0,0,0,2.7461-.318,3.9429,3.9429,0,0,1,1.98.1012,6.7829,6.7829,0,0,1,1.7627.8382A6.05,6.05,0,0,1,22.3145,20.06Zm-4.9707,3.5553c0-.2118.0039-.4236.0136-.6359a5.5161,5.5161,0,0,1,.0723-.6648q.0587-.6646.0723-1.33a2.6683,2.6683,0,0,0-.2452-1.214,25.1345,25.1345,0,0,0-3.541.0723q-1.6626.1592-3.5127.39a2.7863,2.7863,0,0,1-.3027.0434,3.0483,3.0483,0,0,0-.3037.0433v.8383q0,.6069.0146,1.3152a5.8532,5.8532,0,0,0,.13,1.2,17.5484,17.5484,0,0,0,2.0234.0578q1.0416-.0291,2.0518-.0867.9258-.0576,1.8223-.0867A12.3458,12.3458,0,0,1,17.3438,23.6154Z"/><path class="a" d="M55.2666,23.0084a2.812,2.812,0,0,0-.6787.6793q-.3047.4186-.6367.8093a2.13,2.13,0,0,1-.8242.5926,4.24,4.24,0,0,1-1.2852.2457,14.8686,14.8686,0,0,1-1.6055,0q-.8379-.0435-1.56-.1446a10.2508,10.2508,0,0,1-1.1563-.2168q-1.0693-.26-2.1679-.4625a4.7249,4.7249,0,0,1-1.9649-.8382.5941.5941,0,0,1-.1015-.2746.34.34,0,0,0-.1875-.2746,2.48,2.48,0,0,1-.7373-.6359,4.47,4.47,0,0,1-.65-1.0261,2.5385,2.5385,0,0,1-.2608-1.055.7874.7874,0,0,1,.1309-.4336,1.0274,1.0274,0,0,0,.1582-.4336,18.2877,18.2877,0,0,0,.2607-2.4136,12.665,12.665,0,0,0-.13-2.5,5.972,5.972,0,0,0-.7089-2.11,1.4808,1.4808,0,0,0-.3457-.0145,1.0609,1.0609,0,0,0-.2891.0723.8637.8637,0,0,0-.2031.0289.9381.9381,0,0,1-.23.0289,1.1277,1.1277,0,0,1,.375.5926,3.6433,3.6433,0,0,0,.2891.7081,4.53,4.53,0,0,1-.751,1.1129,8.2328,8.2328,0,0,0-.8672,1.1417q-.6665,1.0405-1.2861,2.2257Q37.229,19.5981,36.58,20.71a11.9749,11.9749,0,0,1-1.4317,1.98,4.8453,4.8453,0,0,1-2.0234,1.3008.3623.3623,0,0,1-.2168.3324.4207.4207,0,0,0-.2461.3324.7569.7569,0,0,1-.2012-.1156.4976.4976,0,0,0-.16-.1012.4086.4086,0,0,0-.2451-.0145c.0771-.1544.1787-.2267.3037-.2168s.2265-.1011.3027-.3324a.534.534,0,0,0-.418.0867q-.1319.1152-.2461.2313a1.0087,1.0087,0,0,1-.2031.2023.3625.3625,0,0,1-.289.0578.8231.8231,0,0,0-.1729.1446.79.79,0,0,1-.2021.1445.6063.6063,0,0,1-.376,0,1.0281,1.0281,0,0,1,.289-.3469c.1543-.135.2608-.2312.3184-.289.1729-.1735.3418-.3374.5049-.4914a2.0124,2.0124,0,0,0,.3906-.4914.522.522,0,0,1,.2168-.0144,1.9632,1.9632,0,0,0,.2168.0144h.1445a.1422.1422,0,0,0-.0293-.2168.3819.3819,0,0,0-.26-.1011q1.2714-1.8495,2.789-4.0467a27.5483,27.5483,0,0,0,2.6172-4.74c-.0781-.2313-.1269-.3853-.1445-.4625a1.621,1.621,0,0,0-.2324-.4047,2.8323,2.8323,0,0,0-1.1123.0433c-.3369.0868-.66.1784-.9678.2746a5.1,5.1,0,0,1-1.1856.3036,1.71,1.71,0,0,1-1.2714-.5059,3.6805,3.6805,0,0,1-.8672-1.0839,3.7268,3.7268,0,0,0-.8672-1.084A.7171.7171,0,0,1,31.94,10.68a2.7238,2.7238,0,0,1,.955.0867,1.8154,1.8154,0,0,1,.7227.3324q1.5879-.0576,3.41-.2312t3.8438-.318a24.2614,24.2614,0,0,1-.2158-3.1651q-.0162-1.7193-.0723-3.3385-.3765-.5778-.7949-1.1128a3.9478,3.9478,0,0,1-.65-1.2574V1.4453a1.1223,1.1223,0,0,1,.043-.318c.0293-.0962.14-.1346.333-.1156a4.424,4.424,0,0,1,1.1416.0289q.5054.0867.9677.2023a1.3979,1.3979,0,0,0,.4766.5492,6.9693,6.9693,0,0,0,.6367.3758,1.395,1.395,0,0,1,.5352.4914A2.2648,2.2648,0,0,0,43.3,3.035c.0186.1157.0381.2123.0576.2891a1.0525,1.0525,0,0,1,.0293.4047,8.4377,8.4377,0,0,0-.42,1.98q-.1289,1.2-.23,2.4425a14.5462,14.5462,0,0,1-.332,2.1968q1.0107-.0285,2.24-.1445,1.2276-.1152,2.3848-.3035a12.2836,12.2836,0,0,0,1.85-.4192,3.1855,3.1855,0,0,0,.9395.65,5.0671,5.0671,0,0,1,.9824.5926,1.4867,1.4867,0,0,1,.5058,1.1273.9951.9951,0,0,1-.2168.1589.44.44,0,0,0-.1875.1879,11.0041,11.0041,0,0,0-2.7324-.2168q-1.2568.0725-2.76.2457c-.2315.0389-.4766.0723-.7373.1012s-.5342.0533-.8233.0723a4.5476,4.5476,0,0,1,.3457,2.1678q-.0849,1.1565-.2891,2.37-.1141.8963-.2167,1.7631a7.7283,7.7283,0,0,0-.0137,1.7055,2.1183,2.1183,0,0,0,.9531,1.59,4.1266,4.1266,0,0,0,1.9512.607,7.4587,7.4587,0,0,0,2.2265-.1589,4.3575,4.3575,0,0,0,1.7188-.7371,2.4077,2.4077,0,0,1,.1738-.7516q.1451-.3468.3184-.7515c0-.1156.0039-.2312.0136-.3468s.0157-.2313.0157-.3469q.0277-.7223,0-1.33a7.97,7.97,0,0,0-.2324-1.4452,2.0358,2.0358,0,0,1,.55,1.1562q.1449.78.2607,1.4453a.44.44,0,0,0,.2012-.5059,6.1936,6.1936,0,0,0-.1446-.6793,1.1489,1.1489,0,0,1-.0566-.4335.26.26,0,0,1,.23.1589.4.4,0,0,1,.0293.3325c.02.0966.0576.0867.1152-.029.0967-.1345.1738-.1445.2314-.0289q.145.4627.2168.7082a3.1219,3.1219,0,0,1,.0723.7949.3669.3669,0,0,0,.2607-.3035,1.58,1.58,0,0,0,0-.4191v-.26A.6332.6332,0,0,1,52.81,18.47a.66.66,0,0,1,.55.318,4.9918,4.9918,0,0,1,.3174.6359,2.98,2.98,0,0,0,.2744.607.4455.4455,0,0,0,.5351.1734q.0864.2027.1875.39c.0674.1256.1309.2457.1875.3613a5.2289,5.2289,0,0,1,.3907.8527A2.3486,2.3486,0,0,1,55.2666,23.0084ZM38.0684,9.7988a2.1909,2.1909,0,0,1-1.33-.289A8.6073,8.6073,0,0,1,35.6113,8.7c-.1347-.0962-.27-.2023-.4043-.318a3.7529,3.7529,0,0,0-.4336-.3179,3.5553,3.5553,0,0,0-.3906-1.33,11.5791,11.5791,0,0,0-.65-1.0406,5.9933,5.9933,0,0,1-.6074-1.0984,5.1442,5.1442,0,0,1,3.584,1.5753A5.5351,5.5351,0,0,1,38.0684,9.7988ZM50.2363,6.1279a17.4588,17.4588,0,0,0-1.3574,1.1995A7.6268,7.6268,0,0,1,47.4336,8.44a3.7084,3.7084,0,0,1-1.8213.4913c-.0391-.1923-.0967-.289-.1728-.289a.5606.5606,0,0,0-.2891.1156,1.4811,1.4811,0,0,0-.2461.0867,1.266,1.266,0,0,1-.2754.0867,4.6072,4.6072,0,0,1,.6367-1.3585q.4336-.6354.94-1.3152a8.0755,8.0755,0,0,0,.8525-1.4308A1.3368,1.3368,0,0,0,47,4.4369a1.551,1.551,0,0,0-.1445-.3324,4.453,4.453,0,0,1-.1446-.448.7056.7056,0,0,1,.0577-.4769,5.7119,5.7119,0,0,1,2.1386.896A3.1273,3.1273,0,0,1,50.2363,6.1279Z"/><path class="a" d="M84.6055,10.8972a.9083.9083,0,0,1-.9688.5492,10.4564,10.4564,0,0,1-1.6621-.1446c-.1924-.0189-.3808-.0383-.5635-.0578s-.36-.0383-.5341-.0578A26.4525,26.4525,0,0,0,77.668,11.1q-1.4737.0583-2.7168.1445h-.0586q.4057.376.8388.7371a1.4813,1.4813,0,0,1,.4336,1.2,2.9594,2.9594,0,0,1,1.6768-.1012,5.2486,5.2486,0,0,1,1.7051.6649,2.9753,2.9753,0,0,1,1.0986,1.055,1.33,1.33,0,0,1-.9111.52,4.0728,4.0728,0,0,1-1.17-.0579q-.1173-.0283-.2168-.0433a1.3751,1.3751,0,0,0-.1875-.0145q-.4629-.0867-.94-.1445a2.4011,2.4011,0,0,0-.9111.0578.4349.4349,0,0,1-.1885.4047.4354.4354,0,0,0-.2168.318q.0292.26.0439.5347c.01.1834.0147.3613.0147.5347q.0864,1.1856.1445,2.37a17.3512,17.3512,0,0,1-.0293,2.2545,9.6981,9.6981,0,0,1-.5351,2.5581A3.4837,3.4837,0,0,1,74.1416,25.87q-1.4164-.3468-3.05-.925a13.5463,13.5463,0,0,1-2.875-1.3874,2.0411,2.0411,0,0,0-.5645-.4769c-.24-.1446-.4628-.2891-.664-.4336a.7067.7067,0,0,1-.333-.5059c.4619.0773.9013.169,1.3154.2746s.8242.2073,1.2285.3036l.1153-.1157q1.0107-.0576,1.98-.1011a6.4277,6.4277,0,0,0,1.7481-.3035,3.5249,3.5249,0,0,0,.665-1.1129A5.818,5.818,0,0,0,74.0264,19.8a8.8584,8.8584,0,0,0,.0429-2.0956q-.101-1.1124-.2451-2.2112a2.7128,2.7128,0,0,0-.0146-.2746,2.01,2.01,0,0,0-.044-.2457q-1.8486.1158-3.6855.3469a14.3,14.3,0,0,0-3.4531.8671,13.8088,13.8088,0,0,0,1.4589.8816A4.8244,4.8244,0,0,1,69.43,18.0945a3.029,3.029,0,0,1,.6221,1.0117,2.9043,2.9043,0,0,1,.1,1.4164,2.35,2.35,0,0,1-1.6035-.13,3.3166,3.3166,0,0,1-1.0547-.8816,7.2738,7.2738,0,0,1-.8105-1.3586,8.5861,8.5861,0,0,0-.751-1.33.2646.2646,0,0,1,.13-.1734c.0674-.0384.1309-.0768.1875-.1156q.2607-.1152.2607-.2313a2.7423,2.7423,0,0,1-1.5322-.0867,4.73,4.73,0,0,1-1.3291-.7371q-.6079-.4768-1.1279-.9394a1.0766,1.0766,0,0,1,.7519-.5058,6.1082,6.1082,0,0,1,.9541-.159q1.358-.1734,3.0059-.26t3.3242-.159q1.6758-.0718,3.0635-.13a1.8755,1.8755,0,0,0,.0146-.6214c-.0283-.2213-.0625-.4381-.1-.65a2.9566,2.9566,0,0,1-.087-.39c-.0195-.1251-.039-.2552-.0576-.39q-.9843-.0574-2.3418-.0144-1.3593.0434-2.832.1734-1.4751.13-2.8047.3613a6.4576,6.4576,0,0,0-1.459.4047,3.621,3.621,0,0,1-1.373.2891,2.9257,2.9257,0,0,1-1.793-.4914A16.3581,16.3581,0,0,1,59.4,10.9261q-.2022-.1734-.376-.3179c-.1162-.0963-.2314-.1925-.3467-.2891a.8353.8353,0,0,1,.6934-.5637,2.3874,2.3874,0,0,1,.9824.13,4.6328,4.6328,0,0,1,.8672.3758A27.01,27.01,0,0,1,65.6,9.7844q2.3277-.0718,4.6973-.2746a.9344.9344,0,0,0,.1738-.6215q0-.4186-.0293-.7949c0-.154-.0039-.289-.0137-.4046a.6906.6906,0,0,1,.0137-.26c-.3086,0-.6348.01-.9824.0289s-.7129.0483-1.0977.0867c-.4443.0388-.8965.0723-1.3593.1012a13.2593,13.2593,0,0,1-1.3868.0144Q65.0074,7.082,64.4,6.5181T63.2158,5.3474a1.2325,1.2325,0,0,1,.81-.3757,2.4642,2.4642,0,0,1,.9961.0867.9588.9588,0,0,1,.6221.4335h.0869q.9814.0583,2.2832.1012a7.9219,7.9219,0,0,0,2.2832-.2168A3.2286,3.2286,0,0,0,70.24,4.0178a10.49,10.49,0,0,0-.4336-1.3007q-.29-.6938-.5644-1.3875A4.7605,4.7605,0,0,1,68.91,0,11.8906,11.8906,0,0,1,70.832.607a3.9048,3.9048,0,0,1,1.6045,1.1562,2.7712,2.7712,0,0,1,.6211,1.373,3.512,3.512,0,0,1-.332,1.8933h.1728a.8722.8722,0,0,1,.2032.0289h1.0839a6.2335,6.2335,0,0,0,1.17-.1157,1.1874,1.1874,0,0,0,.5488-.2456.8468.8468,0,0,1,.55-.1879,2.3249,2.3249,0,0,1,.7949.2023,5.3386,5.3386,0,0,1,.9971.5348,2.2193,2.2193,0,0,1,.7227.7515.7518.7518,0,0,1-.0293.8238A25.92,25.92,0,0,0,75.8477,6.72a20.23,20.23,0,0,0-3.18.3613,2.67,2.67,0,0,0-.2461.9972Q72.378,8.6718,72.32,9.25q1.8793.0291,3.6563.0578t3.541.0578c.2129,0,.3476-.0623.4053-.1879a.42.42,0,0,1,.3759-.2167q.9243.1734,1.72.3468a6.2172,6.2172,0,0,1,1.46.5059A2.8216,2.8216,0,0,1,84.6055,10.8972Z"/></svg>