<svg xmlns="http://www.w3.org/2000/svg" viewBox="0 0 400.8984 35.378"><defs><style>.a{fill:#fff;}</style></defs><path class="a" d="M27.3828,23.8223a5.8216,5.8216,0,0,1-.6348,2.5991q-.5946,1.1309-1.27,2.2817-.4365.2388-1.0312.5957-.5962.3567-.6358.6744a10.76,10.76,0,0,1-2.44,1.1113,9.2934,9.2934,0,0,1-2.917.4761,5.6437,5.6437,0,0,1-1.4873-.1983,4.4768,4.4768,0,0,1-1.33-.5952,8.4466,8.4466,0,0,1-.9531-.9326,4.9288,4.9288,0,0,1-.9121-1.4092,2.5526,2.5526,0,0,1-.1983-1.31,1.61,1.61,0,0,1,.7539-1.1108A3.7708,3.7708,0,0,0,15.6562,27.91a4.2727,4.2727,0,0,0,2.2823.873,4.2038,4.2038,0,0,0,2.54-.5952,12.3184,12.3184,0,0,0,1.19-1.0913A7.7585,7.7585,0,0,0,22.8,25.5879a3.6761,3.6761,0,0,0,.4961-1.8848,2.665,2.665,0,0,0-.833-2.1035,4.8663,4.8663,0,0,0-2.2627-1.17,8.65,8.65,0,0,0-2.9365-.1787,13.2379,13.2379,0,0,0-4.0879,1.0913,18.9551,18.9551,0,0,0-3.4522,1.9248,1.1146,1.1146,0,0,1,.0791.4165v.4961a4.2031,4.2031,0,0,0,0,.8135,1.4685,1.4685,0,0,0,.3184.7739,1.5918,1.5918,0,0,0-.14.794,8.87,8.87,0,0,0,.0987.9917q.041.5954.06,1.2505a4.7383,4.7383,0,0,1-.1386,1.29,2.3038,2.3038,0,0,1-.418.6348,1.1257,1.1257,0,0,0-.2578.7939,2.9316,2.9316,0,0,1-1.4278-.1191q-.7147-.238-1.4687-.5557a17.1665,17.1665,0,0,0-1.7461-.6348,4.0488,4.0488,0,0,0-1.8652-.1191A2.22,2.22,0,0,0,1.6875,29.18a2.5176,2.5176,0,0,1-1.1709-.873.7231.7231,0,0,1,0-.3374.8929.8929,0,0,1,.1191-.2579c.0264-.1323.0528-.2709.0791-.4169a1.2126,1.2126,0,0,0-.1191-.6153.2555.2555,0,0,0-.1582.2383v.5952a.4894.4894,0,0,1-.08.2778A.2985.2985,0,0,1,.08,27.4531a1.5307,1.5307,0,0,1,.1387-.6152c.0927-.2114.1914-.3174.2978-.3174A25.9354,25.9354,0,0,1,3.6113,23.604a20.0615,20.0615,0,0,1,3.6914-2.3218q0-.3961-.0195-.893c-.0137-.3306-.0195-.6807-.0195-1.0513q0-1.4289-.04-2.9766a11.8315,11.8315,0,0,0-.3174-2.6191,6.0858,6.0858,0,0,1-2.6591.1191,8.4263,8.4263,0,0,1-2.3409-.7939A15.7641,15.7641,0,0,1,0,11.9165a.3266.3266,0,0,1,.08-.2383A.4986.4986,0,0,1,.2783,11.56c.1592-.08.2383-.1719.2383-.2778a18.7437,18.7437,0,0,0,3.5322-.417q1.4283-.3363,2.9766-.7339a6.3976,6.3976,0,0,0,.1982-1.6275q0-.8722.04-1.6665A3.76,3.76,0,0,1,7.7188,5.27a1.6941,1.6941,0,0,1,1.3691-.774A6.33,6.33,0,0,0,9.625,6.38c.25.5161.4961.999.7334,1.4487a4.3347,4.3347,0,0,1,1.7461.5156,2.6114,2.6114,0,0,1,1.1113,1.0518,1.0289,1.0289,0,0,1-.2783,1.25.7764.7764,0,0,0-.4756.2583,1.6317,1.6317,0,0,0-.3174.5357c-.0537.1059-.1465.1328-.2773.0791a.5016.5016,0,0,0-.3574.04,1.2805,1.2805,0,0,1-.1592.1186,2.67,2.67,0,0,1-.4756.4366.8666.8666,0,0,1-.6357.1987,11.3058,11.3058,0,0,0-.3965,2.2422q-.1187,1.33-.1192,2.6391v2.6587A20.9627,20.9627,0,0,1,13.91,18.3457a18.6468,18.6468,0,0,1,4.5039-.5556,11.327,11.327,0,0,1,4.2461.7934,5.4253,5.4253,0,0,1,2.0644,1.31,10.0394,10.0394,0,0,1,1.3887,1.8457Q26.7081,22.75,27.3828,23.8223Zm-20.18,3.77a4.26,4.26,0,0,0,.0205-.4365c.0264-.4229.0518-.8862.0791-1.3892a3.7382,3.7382,0,0,0-.1191-1.27q-.4761.2784-1.2695.7144a9.5336,9.5336,0,0,0-1.5079,1.0317A3.7752,3.7752,0,0,0,3.334,27.6714a2.4536,2.4536,0,0,0,1.27.4766,6.018,6.018,0,0,0,1.4688-.02q.7147-.099,1.0722-.1788h.0391A3.5064,3.5064,0,0,1,7.2031,27.5923Zm20.18-15.6758a.3481.3481,0,0,1-.3369.3174.3175.3175,0,0,0-.2979.3574,3.5019,3.5019,0,0,1-2.6777-.893,5.5725,5.5725,0,0,1-1.3691-2.3018,22.8232,22.8232,0,0,1-.6758-2.5991.26.26,0,0,0,.2383-.04.228.228,0,0,1,.1592-.0791,11.8765,11.8765,0,0,1,2.3017.9522,6.3137,6.3137,0,0,1,2.0039,1.667A3.51,3.51,0,0,1,27.3828,11.9165Z"/><path class="a" d="M69.8467,12.6309a3.3716,3.3716,0,0,1-1.7666.3174,15.6962,15.6962,0,0,1-1.8848-.2779c-.3711-.0527-.74-.1123-1.1113-.1782a6.3344,6.3344,0,0,0-1.1113-.1,18.4462,18.4462,0,0,0-2.2422.1392q-1.1309.139-1.8047.2182a8.0128,8.0128,0,0,0-.04,1.4087q.04.7741.1182,1.647.0791.7543.14,1.6074t.0595,1.7261a.6045.6045,0,0,1-.2773.3174c-.08.08-.1524.1587-.2188.2382s-.0595.2383.02.4761a.189.189,0,0,0,.1992-.1587.1348.1348,0,0,1,.0586-.1191.4077.4077,0,0,1,.2578,0,4.3637,4.3637,0,0,0-.0195.7143q.02.3575.0595.7144V22.711a2.3108,2.3108,0,0,1-.2373,1.1113,1.2039,1.2039,0,0,1-.3974.3769.8487.8487,0,0,0-.3565.4165,7.7208,7.7208,0,0,1-.08,2.917,12.5082,12.5082,0,0,1-.8925,2.6192,18.4338,18.4338,0,0,1-1.1709,2.123,17.7945,17.7945,0,0,1-2.6192,1.0913,5.6922,5.6922,0,0,0-2.3017,1.3692q.476-.6753.7929-1.1309t.5567-.7739a22.2953,22.2953,0,0,0,1.4677-2.3613,7.2982,7.2982,0,0,0,.794-2.9961,4.1308,4.1308,0,0,0-.4365-.06q-.2388-.02-.4366-.02c-.3183-.0259-.622-.0528-.913-.0791a1.7008,1.7008,0,0,1-.833-.3174.8851.8851,0,0,1-.1592-.6353,8.7057,8.7057,0,0,1-2.0244-2.0835,9.1282,9.1282,0,0,1-1.4278-2.9565,7.3,7.3,0,0,1-.2187-2.1826,3.7855,3.7855,0,0,1,.6953-1.9844,8.5266,8.5266,0,0,1,3.8086.4766A6.5868,6.5868,0,0,1,56.83,19.6153a4.2323,4.2323,0,0,0,.1777-1.627q-.0585-.9126-.2178-1.9844c-.0537-.4492-.1123-.9326-.1787-1.4482a12.591,12.591,0,0,1-.1-1.6074q-.5552.04-1.8447.0991t-2.8369.2583a18.0336,18.0336,0,0,0-2.9766.6348q-.3193.1192-.6748.2382c-.2383.0791-.4766.1724-.7139.2779q-.7558.3178-1.5283.5752a3.4572,3.4572,0,0,1-1.4883.1787,5.293,5.293,0,0,1-1.8056-.5557,8.4581,8.4581,0,0,1-1.7862-1.1709,5.2421,5.2421,0,0,1-1.21-1.4087q4.0473-.9521,8.2734-1.6665a65.8426,65.8426,0,0,1,8.5918-.873V8.7022c.0274-.5025.0528-1.0581.08-1.667A9.1355,9.1355,0,0,1,56.83,5.2891a4.5181,4.5181,0,0,1,.873-1.7461,2.24,2.24,0,0,1,1.8252-.7144,3.82,3.82,0,0,1,.6553,2.2622,21.2728,21.2728,0,0,1-.18,2.4605q-.0791.4372-.1182.873t-.04.7935q.2782.04.8535.1191a4.1448,4.1448,0,0,0,1.211-.02,1.9536,1.9536,0,0,0,1.0312-.4565,11.2893,11.2893,0,0,1,2.8965.2973,6.5937,6.5937,0,0,1,2.52,1.1709A4.164,4.164,0,0,1,69.8467,12.6309Zm-14.208,11.707a12.0626,12.0626,0,0,0-.5157-2.123,4.67,4.67,0,0,0-.9921-1.7266,2.6056,2.6056,0,0,0-1.23-.7539,2.9974,2.9974,0,0,0-1.7061.1191,9.03,9.03,0,0,0,.6944,2.4209,4.7291,4.7291,0,0,0,1.4092,1.9048,2.2946,2.2946,0,0,0,1.1113.4761A1.8316,1.8316,0,0,0,55.6387,24.3379Z"/><path class="a" d="M111.5156,12.6309a3.3677,3.3677,0,0,1-1.7656.3174,15.681,15.681,0,0,1-1.8857-.2779c-.37-.0527-.7413-.1123-1.11-.1782a6.3515,6.3515,0,0,0-1.1113-.1,18.4227,18.4227,0,0,0-2.2422.1392q-1.1308.139-1.8066.2182a7.9993,7.9993,0,0,0-.0391,1.4087q.0381.7741.1191,1.647.0792.7543.1387,1.6074t.06,1.7261a.5991.5991,0,0,1-.2783.3174c-.0792.08-.1524.1587-.2178.2382s-.06.2383.02.4761a.1871.1871,0,0,0,.1973-.1587.1343.1343,0,0,1,.0605-.1191.4071.4071,0,0,1,.2578,0,4.1621,4.1621,0,0,0-.0195.7143c.0117.2383.0322.4766.0586.7144V22.711a2.2988,2.2988,0,0,1-.2383,1.1113,1.2012,1.2012,0,0,1-.3965.3769.8656.8656,0,0,0-.3574.4165,7.6824,7.6824,0,0,1-.0791,2.917,12.4526,12.4526,0,0,1-.8936,2.6192,18.124,18.124,0,0,1-1.17,2.123,17.7932,17.7932,0,0,1-2.6191,1.0913,5.6986,5.6986,0,0,0-2.3018,1.3692q.4761-.6753.794-1.1309.3164-.4571.5546-.7739a22.1561,22.1561,0,0,0,1.4688-2.3613,7.2982,7.2982,0,0,0,.7939-2.9961,4.1636,4.1636,0,0,0-.4365-.06c-.1582-.0132-.3047-.02-.4365-.02q-.4761-.0389-.9131-.0791a1.7118,1.7118,0,0,1-.834-.3174.89.89,0,0,1-.1582-.6353,8.6847,8.6847,0,0,1-2.0234-2.0835,9.1147,9.1147,0,0,1-1.43-2.9565,7.2988,7.2988,0,0,1-.2178-2.1826,3.7843,3.7843,0,0,1,.6944-1.9844,8.5331,8.5331,0,0,1,3.8105.4766,6.5879,6.5879,0,0,1,2.9365,1.9839,4.2491,4.2491,0,0,0,.1787-1.627q-.06-.9126-.2187-1.9844c-.0528-.4492-.1133-.9326-.1787-1.4482a12.76,12.76,0,0,1-.0987-1.6074q-.5566.04-1.8457.0991t-2.8379.2583a18.0742,18.0742,0,0,0-2.9765.6348q-.3165.1192-.6738.2382c-.2383.0791-.4766.1724-.7149.2779q-.7529.3178-1.5273.5752a3.454,3.454,0,0,1-1.4883.1787,5.287,5.287,0,0,1-1.8057-.5557,8.4345,8.4345,0,0,1-1.7861-1.1709,5.2438,5.2438,0,0,1-1.2109-1.4087q4.0488-.9521,8.2753-1.6665a65.8074,65.8074,0,0,1,8.5918-.873V8.7022c.0254-.5025.0528-1.0581.0791-1.667a9.2155,9.2155,0,0,1,.2383-1.7461,4.5058,4.5058,0,0,1,.8731-1.7461,2.24,2.24,0,0,1,1.8252-.7144,3.8194,3.8194,0,0,1,.6543,2.2622,21.2783,21.2783,0,0,1-.1778,2.4605q-.0806.4372-.1191.873c-.0274.2915-.04.5557-.04.7935.1846.0269.47.0664.8536.1191a4.1369,4.1369,0,0,0,1.21-.02,1.95,1.95,0,0,0,1.0323-.4565,11.3,11.3,0,0,1,2.8974.2973,6.6025,6.6025,0,0,1,2.5195,1.1709A4.1736,4.1736,0,0,1,111.5156,12.6309Zm-14.207,11.707a12.2416,12.2416,0,0,0-.5156-2.123,4.6975,4.6975,0,0,0-.9922-1.7266,2.61,2.61,0,0,0-1.23-.7539,3,3,0,0,0-1.707.1191,9.0363,9.0363,0,0,0,.6953,2.4209,4.7192,4.7192,0,0,0,1.4082,1.9048,2.2986,2.2986,0,0,0,1.1113.4761A1.8354,1.8354,0,0,0,97.3086,24.3379Z"/><path class="a" d="M152.51,20.1709a7.0958,7.0958,0,0,1-.1973,3.75,9.6665,9.6665,0,0,1-1.6875,2.9961,16.037,16.037,0,0,1-2.2812,2.2622q-.0411-.238.5156-.7544a2.4769,2.4769,0,0,0-1.3692.4961q-.6151.4571-1.25.9727a9.1629,9.1629,0,0,1-1.5283,1.0317,2.7034,2.7034,0,0,1-1.8447.2378,6.0246,6.0246,0,0,1-2.2031.6548q-1.3681.1787-2.6387.3774a3.2428,3.2428,0,0,1,1.2891-.9726,8.3342,8.3342,0,0,1,1.5683-.4561q-.9522.5163-1.0322.7935a3.7709,3.7709,0,0,0,1.8652-1.0713q.7545-.7932,1.27-1.31.1978-.0791.2383.3965a10.7213,10.7213,0,0,1,1.5078-1.31A5.7654,5.7654,0,0,0,146.24,26.6a1.2973,1.2973,0,0,0,.1983-.5757,1.6074,1.6074,0,0,1,.1982-.6147,3.1445,3.1445,0,0,1,.7539-.8535,2.2534,2.2534,0,0,0,.6748-.8531c.1592-.37.3037-.7539.4366-1.1508s.2519-.794.3574-1.19a5.7843,5.7843,0,0,0,.1982-1.1113,9.7329,9.7329,0,0,0,.04-1.5083,1.45,1.45,0,0,0-.3575-1.0317,5.8568,5.8568,0,0,1-.8925-1.23,4.1433,4.1433,0,0,0-1.0918-1.27,1.6823,1.6823,0,0,0-.7735-.3374,4.24,4.24,0,0,1-.9336-.2974,6.0825,6.0825,0,0,0-1.4277-.4961,5.1422,5.1422,0,0,0-1.707-.1391,5.186,5.186,0,0,1-.5957.893q-.3165.3773-.6739.7739a.8162.8162,0,0,1,.3575.5157,3.0691,3.0691,0,0,0-.8536,1.1113,9.572,9.572,0,0,0-.6152,1.5478q-.2373.7939-.3574,1.27a19.6337,19.6337,0,0,0-1.25,1.7661,10.6109,10.6109,0,0,1-1.1309,1.5278,1.9132,1.9132,0,0,0,.5557.9922,6.2073,6.2073,0,0,0,.9131.6748,2.2875,2.2875,0,0,0,1.21-.6943,5.2033,5.2033,0,0,0,.8135-1.1509,9.2989,9.2989,0,0,0,.5957-1.5283,4.5589,4.5589,0,0,1,.0586,1.35q-.0587.873-.1387,1.4683c-.0263.2382-.039.3837-.039.4365a.9555.9555,0,0,1,.3574.9526,5.0358,5.0358,0,0,1-.3184.9522c-.0791.2124-.1328.3574-.1582.4365a2.96,2.96,0,0,1-2.1035.6748,4.11,4.11,0,0,1-2.1426-.8731,5.7554,5.7554,0,0,1-1.5478-1.5874,8.7729,8.7729,0,0,1-1.5088,1.25q-.9126.616-1.8652,1.1709a.9864.9864,0,0,1-.4356.1187h-.4375a2.5917,2.5917,0,0,0-.6347,0,2.5617,2.5617,0,0,0-.8331.2778.7643.7643,0,0,0-.8525.04,6.8262,6.8262,0,0,0-.7744.6743c-.0264.0268-.0537.0537-.0791.08a2.844,2.844,0,0,1-1.5879-.8931,12.4025,12.4025,0,0,1-1.0117-1.3691,3.0414,3.0414,0,0,0-1.29-1.1109,10.7728,10.7728,0,0,1,1.0323-4.4448,12.9813,12.9813,0,0,1,2.42-3.4331,29.5809,29.5809,0,0,1,3.0166-2.6787c-.0264-.0791-.0664-.1983-.1192-.357q-.6752-1.7856-1.29-3.8691a9.4477,9.4477,0,0,1-.3769-3.9092,4.9442,4.9442,0,0,1,3.2148,2.1626,9.9755,9.9755,0,0,1,1.35,3.9888,11.4007,11.4007,0,0,1,1.3691-.6948,20.7094,20.7094,0,0,1,2.1036-.7935,11.3668,11.3668,0,0,1,2.2812-.4961c.0264-.08.0528-.1587.08-.2383.0254-.0791.0527-.1587.0781-.2378q.2784-1.0319.5957-2.2421a11.801,11.801,0,0,0,.377-2.441,5.4945,5.4945,0,0,0-.3369-2.2622,3.854,3.854,0,0,1,2.4209.794,3.7,3.7,0,0,1,1.23,1.9048,7.2224,7.2224,0,0,1-.2783,4.3652,26.6261,26.6261,0,0,1,3.6318,1.21,11.2833,11.2833,0,0,1,3.5508,2.2823,9.7881,9.7881,0,0,1,1.4092,1.726,10.0739,10.0739,0,0,1,1.0908,2.1631A3.0621,3.0621,0,0,1,152.51,20.1709ZM133.1836,22.87a16.4,16.4,0,0,1-.7734-1.4883q-.4176-.8928-.794-1.8057t-.6152-1.5078q-.8731.9133-1.9444,2.0239a12.978,12.978,0,0,0-1.8457,2.4209,5.8888,5.8888,0,0,0-.8134,2.897,3.5237,3.5237,0,0,0,2.48.4365,6.6573,6.6573,0,0,0,4.3057-2.9765Zm4.5644-8.294a3.5677,3.5677,0,0,0-1.5683.3174,10.558,10.558,0,0,0-1.5469.7934,8.29,8.29,0,0,0-1.0527.754,7.3261,7.3261,0,0,0,.3769,1.27q.2988.7947.6758,1.5678c.25.5157.4824.9458.6934,1.29q.6753-1.3484,1.29-2.917Q137.2315,16.0843,137.748,14.5757Z"/><path class="a" d="M199.6172,32.2354a4.5054,4.5054,0,0,1-1.9453,2.1626,7.6793,7.6793,0,0,1-2.9571.9131,11.9452,11.9452,0,0,1-3.3535-.1192,14.7871,14.7871,0,0,1-3.1738-.9126,8.7611,8.7611,0,0,1-2.3809-1.4092q-.12-.2381-.2382-.456a3.7156,3.7156,0,0,1-.1993-.417,4.3494,4.3494,0,0,1-.4961-1.1309,3.1337,3.1337,0,0,1,.1387-1.5278,5.09,5.09,0,0,0,.16-1.31q0-.7148-.041-1.4682-.0381-.7149-.0391-1.4287a5.5679,5.5679,0,0,1,.1582-1.35.48.48,0,0,0-.4355-.1782,2.7827,2.7827,0,0,0-.5567.0991,2.1409,2.1409,0,0,1-.4355.0791,9.8285,9.8285,0,0,1-.794,2.7784,26.0237,26.0237,0,0,1-1.667,3.2339q-.9932,1.6472-2.0429,3.0561a21.1248,21.1248,0,0,1-1.8858,2.2422.3382.3382,0,0,0-.4756-.08,1.4909,1.4909,0,0,0-.4375.3574,1.2693,1.2693,0,0,1-.4765-.1592,1.8619,1.8619,0,0,1-.3565-.2773,2.6341,2.6341,0,0,0-.5166-.3374,1.4181,1.4181,0,0,0-.7539-.0991,2.5953,2.5953,0,0,1,.377-.4766.8642.8642,0,0,1,.5361-.1191,6.2842,6.2842,0,0,0,1.4688-1.3692q.6342-.8122,1.2695-1.5673a16.6851,16.6851,0,0,0-2.4209.02,22.9309,22.9309,0,0,0-2.8379.3769,7.8176,7.8176,0,0,0-2.32.7935,1.7071,1.7071,0,0,1-.2383.7544,2.0992,2.0992,0,0,0-.2783.7138,2.3376,2.3376,0,0,1-1.27-.7734,7.9217,7.9217,0,0,1-.8526-1.27,5.2543,5.2543,0,0,0-.8935-1.21,2.3651,2.3651,0,0,0,.7549-1.3491,9.0212,9.0212,0,0,0,.2578-2.0239,5.09,5.09,0,0,0-.2178-1.7466,2.286,2.286,0,0,0,.5156-1.9243,16.2551,16.2551,0,0,0-.3965-2.044,10.8018,10.8018,0,0,0-1.0127,1.647q-.4965.9727-1.11,2.0039a8.7594,8.7594,0,0,1-1.5488,1.9048,6.35,6.35,0,0,1-2.3213,1.35,2.3566,2.3566,0,0,0-.7139-.417.77.77,0,0,0-.873.1,1.4248,1.4248,0,0,1,.3164-.913,9.7779,9.7779,0,0,1,.7148-.7935,6.776,6.776,0,0,0,.6152-.6152,2.5292,2.5292,0,0,0,.4571-.7344q.2373.1194.7734-.6348a18.4672,18.4672,0,0,0,1.19-1.9844q.6549-1.23,1.31-2.6191t1.1113-2.56a11.7543,11.7543,0,0,0,.5752-1.7661,1.6317,1.6317,0,0,0,.9922-.7339,10.781,10.781,0,0,0,.5948-1.1709,3.9258,3.9258,0,0,0-.9717.2779q-.4571.1992-.8936.3969-.5948.2777-1.15.4961a2.3918,2.3918,0,0,1-1.19.1387,2.7149,2.7149,0,0,1-1.21-.4365q-.5361-.3574-1.0722-.7539a3.2672,3.2672,0,0,0-1.25-.5557,15.7227,15.7227,0,0,1,3.9492-1.29q2.3994-.4959,4.584-.774a6.0439,6.0439,0,0,0,.3965-1.29,4.3762,4.3762,0,0,0,.0586-1.4883,1.3574,1.3574,0,0,0-.6143-1.0317,3.5965,3.5965,0,0,0-.7549.6152c-.2373.252-.4629.51-.6738.7739a8.6422,8.6422,0,0,1-1.4492,1.3692,1.55,1.55,0,0,1-1.8047-.0991,6.967,6.967,0,0,1,.7929-1.7066q.6359-1.0714,1.35-2.2226a21.1347,21.1347,0,0,0,1.1113-1.9839q.4365-.9529.1191-1.4287a3.7366,3.7366,0,0,0-.9131-.9126c-.1328-.1055-.2646-.2188-.3974-.3374s-.2637-.2447-.3965-.377a.3436.3436,0,0,1,.1191-.2383A.32.32,0,0,0,166.8369.13c.3428-.0527.78-.0923,1.31-.1186a9.4184,9.4184,0,0,1,1.6074.06,4.3281,4.3281,0,0,1,1.4678.4365,1.6367,1.6367,0,0,1,.8535,1.0914,7.6147,7.6147,0,0,1-.5947,1.4482q-.3575.6547-.7149,1.33.5157.04,1.4688.0791a4.6462,4.6462,0,0,0,1.666-.1983,1.5839,1.5839,0,0,0,.5957-.4165.98.98,0,0,1,.5957-.3374,2.5838,2.5838,0,0,1,1.8848.5357,13.9468,13.9468,0,0,1,1.6074,1.3691,1.8876,1.8876,0,0,1-1.27.7344,14.2891,14.2891,0,0,1-1.7461.1782q-.6753.04-1.3291.1a2.7027,2.7027,0,0,0-1.1309.3369,1.8037,1.8037,0,0,1,.2178,1.4488,8.828,8.828,0,0,1-.5361,1.21,3.6579,3.6579,0,0,0-.2774.4961,4.4676,4.4676,0,0,0-.1982.4961,11.083,11.083,0,0,1,3.3525-.6152,4.1806,4.1806,0,0,1,2.918,1.21,1.7869,1.7869,0,0,1-1.4883,1.27,14.1341,14.1341,0,0,1-2.4414.1983q-.794,0-1.5273.0395a4.1808,4.1808,0,0,0-1.33.2779,9.561,9.561,0,0,0-.6739,1.667,4.9837,4.9837,0,0,1-.7539,1.5473,1.0672,1.0672,0,0,0,.9522.2583,5.7772,5.7772,0,0,0,1.0713-.2978c.2109-.0528.41-.1123.5957-.1787a1.5554,1.5554,0,0,1,.5156-.0992.8485.8485,0,0,0,.2188-.5752.9836.9836,0,0,1,.1777-.5756,1.9928,1.9928,0,0,1-.5156-.7539q-.1992-.4761-.3965-.8731a3.1681,3.1681,0,0,1,1.289-.1587,3.8417,3.8417,0,0,1,1.4493.357,1.3116,1.3116,0,0,1,.7929.9921,1.32,1.32,0,0,1-.1582.6949,1.9766,1.9766,0,0,0-.2383.6147,5.1462,5.1462,0,0,1,1.9043.3174,7.6714,7.6714,0,0,1,1.7461.8335,3.9885,3.9885,0,0,0,.4571-1.5278,6.9607,6.9607,0,0,0-.0391-1.8057,3.707,3.707,0,0,0-.5371-1.5078.96.96,0,0,1,.6357-.1192V9.5357a12.3973,12.3973,0,0,1-1.1709-1.4688,7.8247,7.8247,0,0,1-.7734-1.6269,6.369,6.369,0,0,1,2.8369-1.0318q1.6069-.1977,3.4326-.2778c.4493,0,.92-.0132,1.4092-.04s.9717-.0659,1.4483-.1191a1.0636,1.0636,0,0,0,.6552-.4761,1.7283,1.7283,0,0,0,.2578-.6352,16.6371,16.6371,0,0,1,3.3536.8535,6.4168,6.4168,0,0,1,2.56,1.7261.1174.1174,0,0,1-.039.08,5.03,5.03,0,0,1-.5567.9326,1.0953,1.0953,0,0,1-1.1113.2973,5.255,5.255,0,0,0-.6934,2.56q-.1,1.6471-.14,3.3535,0,.7947-.02,1.5279-.0205.7353-.06,1.3691c-.0537.5557-.0859,1.105-.1,1.647s-.02,1.0786-.02,1.6074q0,1.4282-.08,2.6391a5.5953,5.5953,0,0,1-.4756,2.0435.854.854,0,0,1-1.1514-.02q-.5948-.4563-1.07-.8931c-.1074-.1055-.1855-.1851-.2383-.2383a.6412.6412,0,0,0-.2783.08,1.4627,1.4627,0,0,1-.2783.06,1.0943,1.0943,0,0,1-.3565-.02,2.8454,2.8454,0,0,1,.4366,1.9048,20.9007,20.9007,0,0,1-.3575,2.1035q-.1992.9521-.3173,1.8452a2.8806,2.8806,0,0,0,.2382,1.647,1.8068,1.8068,0,0,0,1.1514.9526,4.834,4.834,0,0,0,1.7852.1587,9.3106,9.3106,0,0,0,1.9248-.3574,8.356,8.356,0,0,0,1.5283-.5953,10.1182,10.1182,0,0,0,.5742-2.6787,6.4165,6.4165,0,0,0-.2969-2.7578,8.3144,8.3144,0,0,0,1.5479.9722q.5948.2586,1.0322.4165a2.61,2.61,0,0,1,.9121.6352,2.33,2.33,0,0,1,.6944,1.3887q.1391.8737.3369,1.7461A2.5141,2.5141,0,0,0,199.6172,32.2354Zm-25.9151-5.9527q-.7544.159-1.5478.2779a12.5622,12.5622,0,0,0-1.5078.3174,8.0308,8.0308,0,0,0-.1787,1.4086q-.0206.6549-.0987,1.3692c.5547-.1055,1.1114-.1914,1.6661-.2578a8.6512,8.6512,0,0,0,1.5878-.3374,4.2978,4.2978,0,0,1-.0195-.7144q.019-.3171.0586-.6348,0-.3178.0195-.6552C173.6953,26.8321,173.7021,26.5738,173.7021,26.2827Zm.1983-6.0322v-.6748a8.9842,8.9842,0,0,0-.0586-1.0518.655.655,0,0,0-.457-.6147,6.9538,6.9538,0,0,0-1.5078.4561q-.6753.298-1.3887.5756v1.9048q.9111-.1194,1.7851-.2182A6.93,6.93,0,0,0,173.9,20.2505Zm-.0791,1.8652a4.87,4.87,0,0,1-1.4678.4366q-.9535.1589-1.8652.3569V24.814c.5547-.0523,1.1113-.1187,1.666-.1983s1.085-.1718,1.5879-.2778a5.3478,5.3478,0,0,0,.0791-.9521Zm6.9844,2.3809A3.571,3.571,0,0,1,178.584,24.1a2.9667,2.9667,0,0,1-1.43-1.6274c.5566-.0528,1.1309-.1055,1.7266-.1587a1.73,1.73,0,0,0,1.29-.5952,5.49,5.49,0,0,1-.5947-.8135,2.05,2.05,0,0,1-.3184-.8135,2.9832,2.9832,0,0,0,.5762-1.35,2.2546,2.2546,0,0,0-.18-1.4287,4.215,4.215,0,0,0-1.7461-.04q-1.0312.159-1.7852.3174a1.6553,1.6553,0,0,0,0,.7144c0,.1328.0059.2847.02.4565a3.4092,3.4092,0,0,1-.02.6153,1.3458,1.3458,0,0,0,.9122.5356c.3974.0664.7871.1455,1.1718.2383a1.0345,1.0345,0,0,1,.7735.6943,3.1837,3.1837,0,0,1-1.31.6348q-.7954.1992-1.5479.397a5.2759,5.2759,0,0,0-.08.8535,6.4162,6.4162,0,0,0,.041.7339,1.3961,1.3961,0,0,0,.0195.2382,1.5016,1.5016,0,0,1,.0195.2378,8.2813,8.2813,0,0,0,1.35.2979,4.7431,4.7431,0,0,1,1.289.3569,1.3922,1.3922,0,0,1,.7744.9326,8.5159,8.5159,0,0,1-1.6474.417q-.8922.1392-1.7657.3374-.041,1.5477-.1191,2.5a3.6777,3.6777,0,0,1,1.1113.08q.4761.1186.9522.2378c.1318.0532.2646.0991.3974.1392s.2637.0727.3965.0991a8.378,8.378,0,0,0,.6944-1.1509,16.2986,16.2986,0,0,0,.7939-1.7861A7.1357,7.1357,0,0,0,180.8057,24.4966Zm7.8584-3.2539a32.6844,32.6844,0,0,0,.2373-4.1074q0-2.2421-.1387-4.584t-.2979-4.4844c-.0263-.1846-.0468-.3633-.0586-.5356q-.02-.2578-.02-.4961a10.4163,10.4163,0,0,0-2.2421-.1587A7.7545,7.7545,0,0,0,184,7.2339a2.969,2.969,0,0,0-1.4883.9922,5.2793,5.2793,0,0,1,.14,1.1108q.019.6358.0195,1.1509v.794a3.8774,3.8774,0,0,0,.3975-.02c.1318-.0131.2636-.02.3964-.02a18.1437,18.1437,0,0,1,2.5391.02,3.34,3.34,0,0,1,2.2627,1.2105,20.3912,20.3912,0,0,1-2.7178.4365,26.0066,26.0066,0,0,0-2.8779.4365q-.04.6351-.06,1.4683t-.1,1.4683a5.6912,5.6912,0,0,1,1.9258-.337,5.3891,5.3891,0,0,1,2.0625.357,2.3522,2.3522,0,0,1,1.3691,1.29q-.9126.04-1.9834.1787-1.0707.14-2.0244.3174a8.4694,8.4694,0,0,0-1.5468.417,8.101,8.101,0,0,1,.0195.9326q-.0206.3773-.06.6944c-.0264.2119-.0469.43-.06.6548a3.2335,3.2335,0,0,0,.06.7739,5.3655,5.3655,0,0,0,1.8057.1587q.8525-.0792,1.7656-.2383.6738-.079,1.35-.1587A12.6468,12.6468,0,0,1,188.6641,21.2427Z"/><path class="a" d="M238.9844,31.878a3.9269,3.9269,0,0,0-.9326.9326q-.4176.5749-.8731,1.1113a2.9274,2.9274,0,0,1-1.1318.8135,5.8145,5.8145,0,0,1-1.7657.3374,20.4656,20.4656,0,0,1-2.2021,0q-1.1514-.0594-2.1436-.1983a14.1221,14.1221,0,0,1-1.5869-.2978q-1.4693-.3575-2.9765-.6348a6.4936,6.4936,0,0,1-2.6983-1.1509.8139.8139,0,0,1-.1386-.3769.4674.4674,0,0,0-.2579-.377,3.4,3.4,0,0,1-1.0127-.8735,6.1879,6.1879,0,0,1-.8925-1.4087,3.4669,3.4669,0,0,1-.3575-1.4482,1.08,1.08,0,0,1,.1788-.5953,1.4217,1.4217,0,0,0,.2187-.5957,25.7469,25.7469,0,0,0,.3574-3.3134,17.4015,17.4015,0,0,0-.18-3.4326,8.233,8.233,0,0,0-.9716-2.897,2.0246,2.0246,0,0,0-.4766-.02,1.4625,1.4625,0,0,0-.3965.0991,1.2028,1.2028,0,0,0-.2783.04,1.2833,1.2833,0,0,1-.3174.04,1.5522,1.5522,0,0,1,.5166.8134,4.994,4.994,0,0,0,.3965.9722,6.2656,6.2656,0,0,1-1.0313,1.5278,11.3108,11.3108,0,0,0-1.1914,1.5679q-.9139,1.4283-1.7656,3.0557-.8539,1.6274-1.7461,3.1548a16.4293,16.4293,0,0,1-1.9648,2.7182,6.791,6.791,0,0,1-1.19,1.0122,6.877,6.877,0,0,1-1.587.774.4986.4986,0,0,1-.2978.456.5727.5727,0,0,0-.3369.4566,1.0224,1.0224,0,0,1-.2783-.1587.6959.6959,0,0,0-.2178-.1387.5632.5632,0,0,0-.3379-.02q.1583-.3178.416-.2979t.418-.456a.7379.7379,0,0,0-.5762.1186c-.1191.1055-.2324.2119-.3379.3179a1.3722,1.3722,0,0,1-.2773.2778.5008.5008,0,0,1-.3965.0791,1.09,1.09,0,0,0-.2383.1988,1.0716,1.0716,0,0,1-.2773.1982.8318.8318,0,0,1-.5157,0,1.3994,1.3994,0,0,1,.3965-.4761c.211-.1855.3574-.3178.4356-.3969q.3573-.3574.6953-.6749a2.81,2.81,0,0,0,.5351-.6743.7105.7105,0,0,1,.2979-.02,2.6626,2.6626,0,0,0,.2978.02h.1983a.1975.1975,0,0,0-.04-.2978.5283.5283,0,0,0-.3564-.1392q1.7446-2.5386,3.8291-5.5556a37.7791,37.7791,0,0,0,3.5918-6.5083q-.1582-.4761-.1983-.6353a2.2059,2.2059,0,0,0-.3173-.5552,3.8888,3.8888,0,0,0-1.5284.06q-.6942.1779-1.3291.3769a6.9884,6.9884,0,0,1-1.6269.4166,2.35,2.35,0,0,1-1.7461-.6944,5.0509,5.0509,0,0,1-1.1914-1.4883,5.0981,5.0981,0,0,0-1.1895-1.4882.9852.9852,0,0,1,.8731-.5752,3.726,3.726,0,0,1,1.3086.1186,2.4891,2.4891,0,0,1,.9922.4566q2.1825-.0792,4.6836-.3174,2.499-.238,5.2773-.4366a33.3387,33.3387,0,0,1-.2969-4.3457q-.02-2.3605-.1-4.5835-.5155-.7932-1.0918-1.5278A5.4716,5.4716,0,0,1,216.84,2.59V2.273a1.5073,1.5073,0,0,1,.06-.4366q.06-.1977.4561-.1586a6.09,6.09,0,0,1,1.5683.04q.6943.1194,1.3291.2778a1.9125,1.9125,0,0,0,.6553.7544,9.3656,9.3656,0,0,0,.873.5157,1.9071,1.9071,0,0,1,.7344.6748,3.0384,3.0384,0,0,0,.0391.5156c.0254.1592.0527.2915.0791.397a1.4936,1.4936,0,0,1,.04.5556,11.5,11.5,0,0,0-.5761,2.7183q-.1788,1.6472-.3165,3.3535a19.8887,19.8887,0,0,1-.457,3.0161q1.3887-.0389,3.0762-.1982t3.2734-.417a16.844,16.844,0,0,0,2.54-.5752,4.3815,4.3815,0,0,0,1.29.8926,6.9648,6.9648,0,0,1,1.35.8139,2.0407,2.0407,0,0,1,.6934,1.5474,1.2734,1.2734,0,0,1-.2969.2183.608.608,0,0,0-.2578.2583,15.0854,15.0854,0,0,0-3.75-.2979q-1.7271.1-3.791.3374c-.3164.0532-.6543.0991-1.0117.1387s-.7344.0732-1.1309.0991a6.2687,6.2687,0,0,1,.4766,2.9766q-.12,1.5879-.3965,3.2544-.16,1.23-.2989,2.42a10.7426,10.7426,0,0,0-.0195,2.3418,2.91,2.91,0,0,0,1.3106,2.1826,5.6644,5.6644,0,0,0,2.6777.8335,10.2469,10.2469,0,0,0,3.0566-.2183,5.9978,5.9978,0,0,0,2.3614-1.0122,3.252,3.252,0,0,1,.2373-1.0317c.1318-.3174.2783-.6612.4365-1.0318,0-.1587.0058-.3174.02-.4765s.02-.3174.02-.4761q.04-.9916,0-1.8257a10.9,10.9,0,0,0-.3174-1.9839,2.8034,2.8034,0,0,1,.754,1.5874q.1977,1.0716.3574,1.9839a.6033.6033,0,0,0,.2773-.6943,8.9252,8.9252,0,0,0-.1982-.9326,1.548,1.548,0,0,1-.0791-.5953.3553.3553,0,0,1,.3164.2183.55.55,0,0,1,.041.4565c.0254.1329.0781.1192.1582-.04.1318-.1846.2383-.1982.3174-.04q.1977.6357.2978.9721a4.2977,4.2977,0,0,1,.1,1.0918.5015.5015,0,0,0,.3565-.417,2.098,2.098,0,0,0,0-.5752v-.3574a.8579.8579,0,0,1,.04-.2778.9038.9038,0,0,1,.7539.4365,6.9058,6.9058,0,0,1,.4366.8731,4.0265,4.0265,0,0,0,.3769.8334.6107.6107,0,0,0,.7334.2383q.12.2776.2588.5357t.2578.4961a7.2987,7.2987,0,0,1,.5361,1.17A3.2374,3.2374,0,0,1,238.9844,31.878ZM215.3711,13.7422a3.01,3.01,0,0,1-1.8252-.397,11.8319,11.8319,0,0,1-1.5479-1.1113c-.1855-.1318-.371-.2778-.5546-.4365a5.0783,5.0783,0,0,0-.5957-.4365,4.8786,4.8786,0,0,0-.5352-1.8252,15.5569,15.5569,0,0,0-.8936-1.4287,8.244,8.244,0,0,1-.833-1.5083,7.0607,7.0607,0,0,1,4.92,2.163A7.5838,7.5838,0,0,1,215.3711,13.7422Zm16.708-5.04a23.6638,23.6638,0,0,0-1.8652,1.6469A10.441,10.441,0,0,1,228.23,11.877a5.0912,5.0912,0,0,1-2.5.6743c-.0537-.2637-.1328-.3965-.2383-.3965a.773.773,0,0,0-.3965.1587,2.04,2.04,0,0,0-.3369.1191,1.761,1.761,0,0,1-.3769.1187,6.2665,6.2665,0,0,1,.873-1.8648q.5948-.873,1.2891-1.8056a10.9814,10.9814,0,0,0,1.1709-1.9649,1.8227,1.8227,0,0,0-.0791-.5356,2.0686,2.0686,0,0,0-.1993-.4561c-.0791-.2114-.1455-.417-.1982-.6152a.97.97,0,0,1,.0791-.6548,7.843,7.843,0,0,1,2.9375,1.23A4.3065,4.3065,0,0,1,232.0791,8.7022Z"/><path class="a" d="M276.208,30.45c-.1318.1851-.2646.3706-.3965.5552a1.7229,1.7229,0,0,0-.2773.6748,2.0706,2.0706,0,0,1-.9922,0c-.2647-.08-.5166-.1587-.7539-.2383a2.619,2.619,0,0,0-.3379-.1386,3.1636,3.1636,0,0,0-.377-.0992q-1.5087-1.5476-2.8964-3.2343-1.39-1.6869-2.8575-3.294a18.3236,18.3236,0,0,0-3.2939-2.8374c-.08.1328-.2256.1455-.4365.04a.6872.6872,0,0,0-.1592-.04c-.0527.1856,0,.2647.1592.2378.1054,0,.1718.0269.1982.08a10.6742,10.6742,0,0,0-1.4687,1.3491,7.8194,7.8194,0,0,1-1.5479,1.31.34.34,0,0,1-.0791.3374,1.4114,1.4114,0,0,1-.2773.1787,1.1538,1.1538,0,0,0-.2979.2183.6287.6287,0,0,0-.1387.4565,1.2752,1.2752,0,0,0-.3574-.08,2.2972,2.2972,0,0,1-.873,1.1113,2.5389,2.5389,0,0,0-.9131,1.1114,2.8328,2.8328,0,0,0-1.3291.6743q-.5757.5163-1.1309,1.0913a3.3811,3.3811,0,0,1-1.39.8535q-.04-.1985-.1582-.1987a.3758.3758,0,0,1-.3174-.1587.7264.7264,0,0,1-.417.3574c-.1719.0532-.3643.106-.5752.1587q.04-.1194.3965-.2778a2.4748,2.4748,0,0,0-1.19.0595,10.4839,10.4839,0,0,0-1.627.6153,5.1,5.1,0,0,1,1.3887-1.1709q.7939-.4556,1.4883-.9527a2.6677,2.6677,0,0,0,.9726-1.21.2265.2265,0,0,0,.2178.04q.1-.0394.0205-.3174a.6237.6237,0,0,0,.5352-.1391,4.6118,4.6118,0,0,0,.3378-.377,4.4855,4.4855,0,0,1,.337-.3769.7812.7812,0,0,1,.456-.2183,3.1224,3.1224,0,0,1,.9131-1.3891q.6342-.5553,1.2705-1.21a3.7936,3.7936,0,0,0,.9121-1.7261,3.7981,3.7981,0,0,0,.6348-.4365c.1855-.1587.37-.3037.5556-.4365a.8731.8731,0,0,1,.1983-.6353.9429.9429,0,0,0,.2383-.5952q.079-.1186.2783-.04a.29.29,0,0,0,.3574-.08q.435-.6738.833-1.3291a3.9912,3.9912,0,0,1,1.0313-1.1314.56.56,0,0,1-.1778-.2778.36.36,0,0,0-.1-.1982q.8732-1.0716,1.4883-1.8848a17.8667,17.8667,0,0,0,1.1709-1.7661,17.1761,17.1761,0,0,0,1.1113-2.3814,22.8325,22.8325,0,0,0-3.5517.2979q-1.8867.2973-3.8106.6748t-3.75.5752a.7365.7365,0,0,0-.1787.1391.9751.9751,0,0,0-.1787.2579,2.9935,2.9935,0,0,1-1.6269-.04,2.5614,2.5614,0,0,1-1.0713-.7544,6.9121,6.9121,0,0,1-.9131-1.5078,9.076,9.076,0,0,0-.9522-1.627.3393.3393,0,0,1,.1592-.2583.3108.3108,0,0,0,.1582-.2182,5.4652,5.4652,0,0,0,1.8252.7143,10.6685,10.6685,0,0,0,2.1035.1988,22.8737,22.8737,0,0,0,4.2071-.417q2.2221-.4169,4.5234-.6153,1.3887-.1186,2.7588-.1982a3.2579,3.2579,0,0,0,2.2021-.9126,2.9178,2.9178,0,0,0,.7744.2183,1.5609,1.5609,0,0,0,.8135-.0992,3.1175,3.1175,0,0,0,1.3887.8926,13.7123,13.7123,0,0,1,1.706.7144,2.41,2.41,0,0,1,1.1915,1.33,11.3039,11.3039,0,0,0-3.5127,2.6391,37.0118,37.0118,0,0,0-2.877,3.6114q-1.3491,1.9248-2.7783,3.6308,1.8647.9924,3.9492,1.9844a18.7686,18.7686,0,0,1,3.75,2.3413,10.3206,10.3206,0,0,1,2.2617,2.48A7.0693,7.0693,0,0,1,276.208,30.45Z"/><path class="a" d="M317.7979,15.29q-2.2618.16-4.4844.2383a22.2929,22.2929,0,0,1-3.69-.1192,1.7634,1.7634,0,0,1-1.1513.4566q-.7543.0593-1.27.1386-.1187.6753-.2187,1.9649-.0981,1.29-.1182,2.7973t.02,2.8575q0,.7543.06,1.4882t.1387,1.4488q.1582,1.6662.1787,3.1943a7.1265,7.1265,0,0,1-.4961,2.7979h-.04a13.7,13.7,0,0,1-1.4883.0991,2.83,2.83,0,0,1-1.8057-.6944,2.3309,2.3309,0,0,1-.5156-.6943,2.4866,2.4866,0,0,0-.5556-.7344.5649.5649,0,0,0-.4161-.1587.7081.7081,0,0,1-.457-.1587.6232.6232,0,0,1-.2178-.3769.6294.6294,0,0,0-.2187-.377.5273.5273,0,0,0-.2774-.04c-.1591.0269-.2646.0137-.3173-.04q-.3574-.2769-1.31-1.0713,1.0313.0394,2.1426.1782t2.3808.1787a17.6571,17.6571,0,0,0,.2979-3.77q-.0206-2.3013-.1-4.5239-.04-1.1507-.0791-2.2027t0-1.8852a26.3738,26.3738,0,0,1-3.1553.2778q-1.9644.08-3.71.1987a1.3827,1.3827,0,0,0-.4961.0991q-.2592.1-.4961.1788a1.7729,1.7729,0,0,1-.3964.1782.5374.5374,0,0,1-.3184.02.93.93,0,0,1-.6348-.5161,4.2443,4.2443,0,0,0-.5556-.7935,9.1637,9.1637,0,0,0-.8526-.8135,3.4906,3.4906,0,0,1-.7744-.8535.1957.1957,0,0,1,.04-.1982.6469.6469,0,0,0,.039-.1587,1.1117,1.1117,0,0,0-.2373-.397q-.12-.1977-.1992-.3569a.26.26,0,0,1,.08-.3179,2.9549,2.9549,0,0,1,1.19.1392,7.2179,7.2179,0,0,1,.9131.4165,1.5466,1.5466,0,0,1,.2578.1191,1.3747,1.3747,0,0,0,.2578.1192q1.4283.04,3.2734-.06t3.3536-.2183q.7939-.0791,1.39-.1191t.9121-.04q.12-1.6266.1-3.5322a14.7289,14.7289,0,0,0-.456-3.5713,4.7267,4.7267,0,0,0-.1992-.5556q-.1187-.2777-.2373-.5557A8.6634,8.6634,0,0,1,302.48,3.96a1.5326,1.5326,0,0,1,0-.9722,9.3561,9.3561,0,0,1,2.64,1.33q1.3287.9331,2.44,1.8452,0,.7545-.06,1.5479t-.1,1.5874q-.0791.9924-.1192,1.8852t-.039,1.6465a2.9441,2.9441,0,0,0,.3369-.02,3.4152,3.4152,0,0,1,.377-.02q.4365,0,.913-.04a1.99,1.99,0,0,0,.8731-.2778c.1055,0,.2314-.0064.3769-.02s.2979-.02.4561-.02a16.6794,16.6794,0,0,0,1.7666-.1,1.488,1.488,0,0,0,1.21-.5752q.7528.2784,1.7461.5752a8.1853,8.1853,0,0,1,1.746.7344,2.1273,2.1273,0,0,1,.8536.8931A1.5521,1.5521,0,0,1,317.7979,15.29Zm-18.89,7.0244a4.3994,4.3994,0,0,1-.7539,1.7661q-.5962.8539-1.1514,1.8057a9.4727,9.4727,0,0,1-.7138.9922,10.57,10.57,0,0,1-.9327,1.0317,1.6615,1.6615,0,0,1-.6943.4761,1.0678,1.0678,0,0,1-1.1113-.8135,12.0923,12.0923,0,0,1-.5166-1.8452q-.1186-.5955-.2578-1.1114a2.95,2.95,0,0,0-.377-.873,5.297,5.297,0,0,0,2.5-2.0239q.873-1.3485,1.7461-2.7383a1.5807,1.5807,0,0,1,1.0322.8135,9.8226,9.8226,0,0,1,.5557,1.31A3.6824,3.6824,0,0,0,298.9082,22.314Zm19.6045,3.4526a.64.64,0,0,0-.1992.4566,2.7668,2.7668,0,0,1-.1387.6147.5939.5939,0,0,1-.4961.3574,2.7312,2.7312,0,0,1-1.6465-.4365,5.2272,5.2272,0,0,1-1.4482-1.19,10.7993,10.7993,0,0,1-1.33-2.064q-.5757-1.1506-1.25-2.2617a2.2767,2.2767,0,0,0-.3174-.3574,9.8717,9.8717,0,0,1-.8535-1.1109,1,1,0,0,1-.06-1.23,18.7742,18.7742,0,0,1,4.7432,2.7382A9.2212,9.2212,0,0,1,318.5127,25.7666Zm2.1426-15.6758-.04.04a4.0857,4.0857,0,0,1-.5752.456.6849.6849,0,0,1-.8134-.02.427.427,0,0,0-.0791.1587,1.4981,1.4981,0,0,0-.1387.2578.6835.6835,0,0,0-.0205.377,8.4072,8.4072,0,0,1-2.1621-.2779,3.2592,3.2592,0,0,1-1.6875-1.0117,2.8873,2.8873,0,0,1-.5547-2.123,3.0721,3.0721,0,0,1,.8525-1.9649A4.1223,4.1223,0,0,1,317.44,4.8526a3.399,3.399,0,0,1,2.1436.9921,4.2831,4.2831,0,0,1,1.0713,1.9844A4.69,4.69,0,0,1,320.6553,10.0908Zm-1.9844-1.0317a1.0653,1.0653,0,0,0,.3379-.9521,1.0459,1.0459,0,0,0-.7344-.8731,3.9418,3.9418,0,0,0-.7744.1983,1.5747,1.5747,0,0,0-.7539.5556,1.3954,1.3954,0,0,0-.1387,1.1509,1.4513,1.4513,0,0,0,1.0518.3174A1.6143,1.6143,0,0,0,318.6709,9.0591Z"/><path class="a" d="M340.7363,21.8379a.3112.3112,0,0,0-.3174.2378,5.1211,5.1211,0,0,1-2.8769-2.1626,8.3071,8.3071,0,0,1-1.29-3.6313,12.4327,12.4327,0,0,1,1.8457.8134,6.8221,6.8221,0,0,1,1.7656,1.33,3.7083,3.7083,0,0,1,.9131,1.4883A3.2045,3.2045,0,0,1,340.7363,21.8379ZM357.0869,16.52a5.9839,5.9839,0,0,1-.7939,2.0039q-.5157.7743-.9922,1.5679c0,.106.0664.1323.1982.0791a6.9863,6.9863,0,0,1-.9326,1.6865,5.3244,5.3244,0,0,0-.8135,1.4883h-.3564a.497.497,0,0,1,0,.5952,4.15,4.15,0,0,1-.4365.5162,2.4862,2.4862,0,0,0-.377.3769.2755.2755,0,0,0,.0195.377c-.0263.08-.0927.1059-.1982.08h-.1191c0,.0533.0527.0928.1582.1192a9.431,9.431,0,0,0-.8135,1.17q-.4161.6951-.8731,1.33a3.4807,3.4807,0,0,1-.9716.9526,3.6025,3.6025,0,0,1-.8536,1.3887,12.4143,12.4143,0,0,1-1.1113.9526,5.0015,5.0015,0,0,0-1.0517,1.1109.7134.7134,0,0,0-.4366.1191,3.0659,3.0659,0,0,0-.3174.2778c-.0791-.0527-.0791-.145,0-.2778a1.9454,1.9454,0,0,0-.4169.2778.9122.9122,0,0,0-.2579.4761,1.3923,1.3923,0,0,0-1.23.6748,1.4953,1.4953,0,0,1-.2373-.02,1.2143,1.2143,0,0,0-.1992-.02,2.8447,2.8447,0,0,0-.2969-.06.4019.4019,0,0,0-.2979.0991l.0791-.1587a.7949.7949,0,0,0-.4365.04,2.6849,2.6849,0,0,0-.3965.1987,2.276,2.276,0,0,1-.3574.1782.8929.8929,0,0,1-.3174.06q.873-.9522,1.7656-1.8057a12.9776,12.9776,0,0,0,1.6475-1.9243c.1318.0533.1445.1587.0391.3174a.1953.1953,0,0,0-.0391.1983,1.731,1.731,0,0,0,.7139-.5953q.2767-.3961.5556-.7939-.1992-.0784-.4961.2778a1.7552,1.7552,0,0,0-.3769.6748c-.1055.0533-.1856.0137-.2383-.1191a.1556.1556,0,0,0-.1582-.1192q0-.1977.3965,0a.4655.4655,0,0,1,.1191-.496,3.8838,3.8838,0,0,1,.4365-.337q.1188-.079.2579-.1787a.8676.8676,0,0,0,.2187-.2182l-.1191.3174a1.3775,1.3775,0,0,0,.456-.4166q.1788-.2577.3379-.496-.12-.1194-.3574.1982a.7926.7926,0,0,1-.1982.2578c-.08.0664-.1592.02-.2383-.1387q.3954-.079.6543-.7343a7.8766,7.8766,0,0,1,.6552-1.29v.3174a3.5567,3.5567,0,0,0,.337-.4761,3.4061,3.4061,0,0,0,.2187-.4365,2.7821,2.7821,0,0,1,.416-.6353.9033.9033,0,0,1,.6953-.2378.4748.4748,0,0,1-.1-.2978.711.711,0,0,1,.06-.1787.427.427,0,0,0,.0791-.2378c.0527,0,.08.02.08.06a.3186.3186,0,0,0,.039.1386c.0528,0,.1055-.1054.1592-.3173a2.4834,2.4834,0,0,1,.1192-.397.1882.1882,0,0,0-.1993.1587.1874.1874,0,0,1-.1982.1587,1.8292,1.8292,0,0,1,.3975-.7935,10.4,10.4,0,0,0,.5947-.873c.0791.0263.0791.0664,0,.1191-.1328.0791-.1719.1724-.1192.2778a.4773.4773,0,0,0,.08-.1191,1.82,1.82,0,0,0,.2578-.3174.55.55,0,0,0-.02-.4766,13.2261,13.2261,0,0,0,1.5088-2.8769q.5947-1.5674,1.3887-3.2344a8.3354,8.3354,0,0,0-.5557-1.25,4.7468,4.7468,0,0,1-.4765-1.33.3359.3359,0,0,1,.2783-.04c.1054,0,.1719-.0264.1982-.08a9.0793,9.0793,0,0,1,2.2822,1.33A15.1763,15.1763,0,0,1,357.0869,16.52Zm-10.12,3.1353a3.2444,3.2444,0,0,1-1.9834-.794,5.7051,5.7051,0,0,1-1.5088-2.0239,10.2891,10.2891,0,0,1-.833-2.7383c.0527-.0791.0986-.145.1387-.1982a.7425.7425,0,0,1,.1787-.1587,2.1574,2.1574,0,0,0,.2383.1387,2.3184,2.3184,0,0,1,.2382.1391q.9522.5947,1.9444,1.3291a4.886,4.886,0,0,1,1.5078,1.7862A3.3975,3.3975,0,0,1,346.9668,19.6553Zm-3.0156,12.3418a.3384.3384,0,0,1,0,.3174c-.0264.08-.0137.1191.04.1191.0527-.2114.1445-.3237.2774-.3374s.2119-.1118.2382-.2974Zm4.0879-1.5078a.2464.2464,0,0,1-.1.1982c-.0665.0532-.1387.106-.2178.1587-.2129.1328-.2783.2383-.1992.3174a.3213.3213,0,0,1,.3173-.1587h.08a.3225.3225,0,0,1,.1192-.1982C348.1445,30.6221,348.1445,30.5156,348.0391,30.4893Z"/><path class="a" d="M400.8984,21.2027a.9931.9931,0,0,1-.4961.5161,1.7192,1.7192,0,0,0-.5752.4365,3.646,3.646,0,0,1-2.5595-.2183q-1.25-.575-2.3614-1.21-.2373-.1186-.4765-.2578c-.1582-.0923-.3037-.1787-.4365-.2578q-1.19-.6351-2.36-1.191t-2.56-1.1108a2.8671,2.8671,0,0,0-.2373,1.27q0,.7947.039,1.7066.04.5163.06,1.0122a7.8346,7.8346,0,0,1-.0195.9722c0,.0268-.0469.0927-.1387.1982a.4535.4535,0,0,0-.14.2383q0,.1194.1993.3174c.1318.1328.1982.2251.1982.2778a7.4,7.4,0,0,1,.06,1.31q-.0206.8334-.06,1.667-.041.4372-.06.8334-.02.397-.02.7139,0,1.5089.02,2.917t.06,2.7583a1.5407,1.5407,0,0,1-1.1514.2378,2.2045,2.2045,0,0,1-1.1113-.3569,2.5753,2.5753,0,0,0-.6143-1.21q-.4569-.4958-.8339-.9722a1.9863,1.9863,0,0,1-.417-1.1508.8216.8216,0,0,1,.1992-.5757,1.2183,1.2183,0,0,0,.2773-.5357,4.8736,4.8736,0,0,0,.1387-1.3295q-.0206-.6936-.0986-1.4878-.0411-.6745-.08-1.3892a9.193,9.193,0,0,1,.04-1.4683c.1319,0,.1719.1724.1192.5157.2383-.0791.33-.3106.2773-.6944s-.1845-.5615-.3965-.5356a7.81,7.81,0,0,1-.0195-1.0718q.019-.7932-.0205-1.3491a2.7824,2.7824,0,0,0,.1787-1.25,15.0132,15.0132,0,0,0-.1387-1.7066,3.6784,3.6784,0,0,0-.2773-1.1308.44.44,0,0,1,.1191-.08.2254.2254,0,0,0,.1582-.2778,9.6068,9.6068,0,0,1-.1386-2.2222q.06-1.11.1386-2.1826.1187-1.23.1387-2.4009a6.6646,6.6646,0,0,0-.3369-2.2422,2.2125,2.2125,0,0,0-.4766-.7544q-.3573-.3962-.7929-.7934-.5172-.5157-.9727-1.0518a1.6358,1.6358,0,0,1-.456-1.0518q.7528.04,1.8447.1788a14.9562,14.9562,0,0,1,2.2031.4565,7.3767,7.3767,0,0,1,1.9248.8335,2.169,2.169,0,0,1,1.0117,1.31,2.3683,2.3683,0,0,1,.0391.9721q-.079.5355-.1983,1.0518c-.0263.1587-.06.3174-.0986.4761a1.7957,1.7957,0,0,0-.06.4365,21.8051,21.8051,0,0,0-.1191,2.8574,28.1253,28.1253,0,0,1-.1191,3.1348,14.9528,14.9528,0,0,0,2.8574.7939q1.5468.2784,3.1152.5357a11.8916,11.8916,0,0,1,2.8369.8134q.9126,1.0327,1.7266,1.8057A7.6522,7.6522,0,0,1,400.8984,21.2027Z"/></svg>