<svg id="グループ_466" data-name="グループ 466" xmlns="http://www.w3.org/2000/svg" xmlns:xlink="http://www.w3.org/1999/xlink" width="219.809" height="210.192" viewBox="0 0 219.809 210.192">
  <defs>
    <clipPath id="clip-path">
      <rect id="長方形_274" data-name="長方形 274" width="219.809" height="210.192" fill="none"/>
    </clipPath>
  </defs>
  <g id="グループ_466-2" data-name="グループ 466" clip-path="url(#clip-path)">
    <path id="パス_5610" data-name="パス 5610" d="M219.809,105.1A105.1,105.1,0,1,1,114.713,0a105.1,105.1,0,0,1,105.1,105.1" fill="#ff5a1f"/>
    <path id="パス_5611" data-name="パス 5611" d="M42.332,150.971l65.913-130.91a12.7,12.7,0,0,1,17.016-5.723l56.07,27.848A12.694,12.694,0,0,1,187.054,59.2L121.141,190.111a12.693,12.693,0,0,1-17.016,5.723l-56.07-27.847a12.694,12.694,0,0,1-5.723-17.016" fill="#005014"/>
    <path id="パス_5612" data-name="パス 5612" d="M99.566,34.593l1.875-3.774a1.135,1.135,0,0,1,1.522-.513l.413.2a1.137,1.137,0,0,1,.512,1.523l-1.875,3.774a1.135,1.135,0,0,1-1.523.512l-.412-.2a1.136,1.136,0,0,1-.512-1.523" fill="#005014"/>
    <path id="パス_5613" data-name="パス 5613" d="M90.741,52.361l4.832-9.73a1.136,1.136,0,0,1,1.523-.512l.412.205a1.134,1.134,0,0,1,.512,1.522l-4.832,9.73a1.135,1.135,0,0,1-1.523.512l-.412-.2a1.136,1.136,0,0,1-.512-1.523" fill="#005014"/>
    <path id="パス_5614" data-name="パス 5614" d="M83.313,67.319l4.832-9.73a1.136,1.136,0,0,1,1.523-.512l.412.205a1.134,1.134,0,0,1,.512,1.522l-4.832,9.73a1.135,1.135,0,0,1-1.523.512l-.412-.2a1.136,1.136,0,0,1-.512-1.523" fill="#005014"/>
    <path id="パス_5615" data-name="パス 5615" d="M163.865,102.82l8.619-17.354a1.135,1.135,0,0,1,1.523-.512l.412.2a1.136,1.136,0,0,1,.512,1.523l-8.619,17.354a1.135,1.135,0,0,1-1.523.512l-.412-.2a1.136,1.136,0,0,1-.512-1.523" fill="#005014"/>
    <path id="パス_5616" data-name="パス 5616" d="M46.725,152.248,112.2,22.214A8.351,8.351,0,0,1,123.4,18.45l56.091,27.857A8.351,8.351,0,0,1,183.251,57.5L117.774,187.534A8.351,8.351,0,0,1,106.58,191.3L50.49,163.442a8.351,8.351,0,0,1-3.765-11.194" fill="#fff"/>
    <path id="パス_5617" data-name="パス 5617" d="M1.671,96.2l12.934,9.249,5.624-20.562L7.39,75.63Z" fill="#fff"/>
    <path id="パス_5618" data-name="パス 5618" d="M4.4,96.1l10.2,9.344L20.23,84.883,10.12,75.535Z" fill="#fff"/>
    <path id="パス_5619" data-name="パス 5619" d="M20.085,84.877,35.926,83.5,30.3,104.063,14.536,105.49Z" fill="#fff"/>
    <path id="パス_5620" data-name="パス 5620" d="M30.267,107.049l-14.578.555a.4.4,0,0,1-.4-.5l5.9-21.21a.4.4,0,0,1,.37-.292l14.578-.555a.4.4,0,0,1,.4.506l-5.9,21.209a.4.4,0,0,1-.37.292" fill="#2d2d3d"/>
    <path id="パス_5621" data-name="パス 5621" d="M.18,98.683l12.2,8a.4.4,0,0,0,.6-.227l5.9-21.21a.4.4,0,0,0-.166-.441l-12.2-8a.4.4,0,0,0-.6.227l-5.9,21.21a.4.4,0,0,0,.166.441" fill="#2d2d3d"/>
    <path id="パス_5622" data-name="パス 5622" d="M15.221,107.852l-2.56-.712a.4.4,0,0,1-.279-.494l6.073-21.84a.4.4,0,0,1,.5-.279l2.56.712a.4.4,0,0,1,.279.494l-6.074,21.84a.4.4,0,0,1-.494.279" fill="#2d2d3d"/>
    <path id="パス_5623" data-name="パス 5623" d="M41.286,92.781a18.119,18.119,0,0,1,4.022-1.067,2.35,2.35,0,0,1,2.435,1.415,1.657,1.657,0,0,1-.624,2.318s-8.741,6.1-9.195,6.139.08-.812.08-.812-1.244.773-1.7.673.429-1.1.429-1.1-1.386.957-1.884.723,1.1-1.481,1.1-1.481-1.526,1.03-1.743.627c-.381-.71,4.412-4.807,4.973-5.133.534-.874-2.959,1.792-2.962,1.262-.006-1.173,3.273-2.8,5.073-3.569" fill="#ffcec8"/>
    <path id="パス_5624" data-name="パス 5624" d="M143.682,71.329s3.549-6.277,9.309-5.871,5.087,8.535,3.834,12.519.953,12.827-2.143,21.2-10.764,12.152-13.79,18.56S137.1,130.1,124.049,132.625s-19.928,6.443-19.928,6.443l.044-19.4Z" fill="#00320f"/>
    <path id="パス_5625" data-name="パス 5625" d="M185.573,149.626c-1.357-.547-2.771-6.274-6.935-6.625a2.676,2.676,0,0,1-.758-5.3,16.032,16.032,0,0,0,2.6-.7c1.445-.514,4.008-1.546,4.342.785s1.23,8.593,1.23,8.593.875,3.787-.482,3.24" fill="#2d2d3d"/>
    <path id="パス_5626" data-name="パス 5626" d="M197.759,90.027c-1.356.55-6.354-2.581-9.59.062a2.676,2.676,0,0,1-4.23-3.28,16.032,16.032,0,0,0,1.388-2.31c.681-1.374,1.805-3.9,3.665-2.455l6.861,5.32s3.262,2.113,1.906,2.663" fill="#2d2d3d"/>
    <path id="パス_5627" data-name="パス 5627" d="M114.836,100.73a9.157,9.157,0,0,1-1.623-.775c-4.313-2.61-4.623-7.608-2.014-11.921s7.15-6.308,11.463-3.7c.158.1.311.2.462.3h0a273.062,273.062,0,0,1,35.332,24.887c.108.056.215.114.32.178a5.437,5.437,0,0,1-5.232,9.523h0Z" fill="#ffcec8"/>
    <path id="パス_5628" data-name="パス 5628" d="M110.128,87.42a9.128,9.128,0,0,1,12.534-3.085c.158.1.311.2.461.3h0c6.047,3.591,11.562,7.195,16.344,10.5l-7.805,13.633-16.827-8.04a9.128,9.128,0,0,1-4.708-13.309" fill="#7bb6dc"/>
    <path id="パス_5629" data-name="パス 5629" d="M99.432,111.752a9.219,9.219,0,0,1-1.451-1.063c-3.753-3.365-3.129-8.334.236-12.088s8.2-4.869,11.95-1.5c.138.124.269.252.4.381a273.049,273.049,0,0,1,30.1,31.015h0c.1.075.19.152.281.234a5.437,5.437,0,0,1-6.91,8.385v0Z" fill="#ffcec8"/>
    <path id="パス_5630" data-name="パス 5630" d="M97.278,97.8a9.128,9.128,0,0,1,12.889-.7c.138.123.269.251.4.38,5.275,4.651,10.025,9.216,14.11,13.354l-10.2,11.946L99.432,111.752A9.128,9.128,0,0,1,97.278,97.8" fill="#7bb6dc"/>
    <path id="パス_5631" data-name="パス 5631" d="M91.763,89.85s-.6,7.7,2.174,14.356,5.792,10.309,12.712,4.713l18.916-15.295c2.088-1.688,3.9-5.826-4.876-10.715A39.569,39.569,0,0,0,103.9,77.876a12.186,12.186,0,0,0-8.186,2.871c-4.275,3.322-3.954,9.1-3.954,9.1" fill="#7bb6dc"/>
    <path id="パス_5632" data-name="パス 5632" d="M87,85.678a92.936,92.936,0,0,0,14.669-10.44c4.485,1.962,14.243-.284,21.916-5.744s21.159-6.215,29.4-4.036c-4.455,1.234-5.778,7.319-4.938,12.1s3.572,12.97,1.329,20.035-5.839,5.748-9.455,11.893-1.614,11.181-7.565,16.611-12.773,2.655-17.623,5.459-9.514,9.471-16.714,8.472-11.863-3.54-18.151-1.946a39.155,39.155,0,0,1-8.477.911s-1.261,1.561.337-10.089,8.689-20.405,13.551-28.577S87,85.678,87,85.678" fill="#005014"/>
    <path id="パス_5633" data-name="パス 5633" d="M83.858,30.5s3.556.972,3.71,5.881c.117,3.711,3.17,6.685,7.674,5.672s8.6,1.539,9.014,4.742-1.086,5.134-.677,7.03-3.553,9.072-18.16,11.681c-20.681,3.695-25.064-1.3-25.337-6.65s-4.747-6.706-4.27-11.658,5.768-4.574,8.519-5.822,4.056-4.7,4.056-4.7,1.1-5.021,3.734-6.772c5.049-3.36,9.717-2.128,11.737.6" fill="#2d2d3d"/>
    <path id="パス_5634" data-name="パス 5634" d="M138.8,54.455A17.81,17.81,0,0,0,135.25,56.5a2.313,2.313,0,0,0-.72,2.678,1.631,1.631,0,0,0,2.044,1.185s10.341-1.8,10.681-2.09-.619-.511-.619-.511,1.406-.323,1.657-.711-1.059-.468-1.059-.468,1.631-.293,1.817-.8-1.795-.272-1.795-.272,1.78-.339,1.652-.771c-.225-.76-6.417-.3-7.034-.136-.98-.24,3.31-.8,2.945-1.173-.81-.823-4.23.314-6.02,1.026" fill="#ffcec8"/>
    <path id="パス_5635" data-name="パス 5635" d="M80.031,50.324c1.949-1.042,4.863-2,6.9-1.773,2.558.285,6.881-.744,8.738.806,2.681,2.238,5.069,11.149,7.287,15.97,1.562,3.395,1.321,4.765,5.047,9.528A41.328,41.328,0,0,1,97.433,85.083c-6.349,4.04-11.319,3.5-11.319,3.5s-3.365-6.676-6.133-9.02a15.241,15.241,0,0,1-5.428-7.847,38.8,38.8,0,0,1-1.54-5.279c-.552-2.706-1.778-4.067-1.392-6.705s5.359-7.072,7.417-8.773a7.032,7.032,0,0,1,.993-.639" fill="#d7b38d"/>
    <path id="パス_5636" data-name="パス 5636" d="M79.634,39.131l-2.329,9.606,1.132,2.393-1.266,1.179s1.819,3.939,4.668,2.53c2.492-1.232,7.221-6.34,5.848-6.584a6.587,6.587,0,0,1-2.561-.84L82.438,42Z" fill="#ffcec8"/>
    <path id="パス_5637" data-name="パス 5637" d="M77.181,48.453s2.461-2.8,3.74-4a7.925,7.925,0,0,1-3.138,5.293Z" fill="#ff9b8f"/>
    <path id="パス_5638" data-name="パス 5638" d="M81.8,44s3.532.182,3.566-1.93c.048-3.034-2.1-2.078-2.965-2.039Z" fill="#ffcec8"/>
    <path id="パス_5639" data-name="パス 5639" d="M77.753,48.512c1.671-.547,3.811-4.782,4.483-6.19-.008,0-.02.009-.028.011L83,37.017l-7.429-2.078-5.98,1.7a28.236,28.236,0,0,0,.451,6.193c.616,3.036,1.691,5.619,4.072,5.96a7.6,7.6,0,0,0,3.637-.28" fill="#ffcec8"/>
    <path id="パス_5640" data-name="パス 5640" d="M93.4,48.548s.984,8.8,5.773,12.428c4.534-1.855,3.764-9.122,3.764-9.122s-3.623-1.739-5.732-2.693a6.787,6.787,0,0,0-3.805-.613" fill="#f6bfa9"/>
    <path id="パス_5641" data-name="パス 5641" d="M72.564,57.623s.356,9.617,9.4,5.448,9-14.575,9-14.575a24.04,24.04,0,0,1-4.381-.43l-4.955,6.662-3.19-3.607s-4.42,3.96-5.877,6.5" fill="#d7b38d"/>
    <path id="パス_5642" data-name="パス 5642" d="M92.162,49.3l.829-.789a19.073,19.073,0,0,1,7.005,1c4.283,1.306,12.548,5.422,19.352,5.636s17.807-.349,17.807-.349l.661,5.792s-12.993,2.107-18.731,2.094-20.126-1.173-20.126-1.173-7.615-1.367-8.381-4.947S92.162,49.3,92.162,49.3" fill="#d7b38d"/>
    <path id="パス_5643" data-name="パス 5643" d="M57.206,80.723s9.659-14.178,10.326-15.97,2.428-3.831,5.032-7.13c1.259,2.455,4.432,15,4.432,15S66.937,81.228,62.54,86.127,45.5,96.924,45.5,96.924L43.005,91.8Z" fill="#d7b38d"/>
    <path id="パス_5644" data-name="パス 5644" d="M72.025,36.523s3.071,5.879,10.529,3.5L84.8,35.129l-10.927-2.6-3.871.6s-1.517,11.117.1,8.778a13.1,13.1,0,0,0,1.926-5.382" fill="#2d2d3d"/>
    <path id="パス_5645" data-name="パス 5645" d="M78.3,50.843l3.383,3.877-1.656,3.763L76.638,52.7Z" fill="#fff"/>
    <path id="パス_5646" data-name="パス 5646" d="M85.127,47.415l-3.5,7.312,3.014,2.635,3.042-9.107Z" fill="#fff"/>
    <path id="パス_5647" data-name="パス 5647" d="M77.8,54.689s3.436,11.087,6.19,15.8L86.2,51.036l-4.569,3.691Z" fill="#fff"/>
    <path id="パス_5648" data-name="パス 5648" d="M87,57.463l-1.1-4.294-3.624,1.317-1.423.245-3.93-.017.605,4.558,2.026-1.682C78.9,58.931,77.98,60.87,78,60.983a37.88,37.88,0,0,0,3.7,1.695l-.013-6.428.323-.055,2.136,6.062a37.855,37.855,0,0,0,2.919-2.833c-.02-.12-1.7-1.794-2.758-2.838Z" fill="#005014"/>
    <path id="パス_5649" data-name="パス 5649" d="M159.659,118.475a5.438,5.438,0,0,1-7.363-7.995h0a64.4,64.4,0,0,1,20.354-16.942,134.234,134.234,0,0,0,12.069-7.173c1.12-.964,3.809-.275,4.773.846s1.141,1.37.021,2.334c-12.743,10.938-27.93,26.938-29.4,28.5-.028.031-.056.061-.085.09l-.032.034h0c-.1.107-.214.211-.33.311" fill="#ffcec8"/>
    <path id="パス_5650" data-name="パス 5650" d="M189.49,87.209c-.964-1.12-3.653-1.809-4.773-.845a134.44,134.44,0,0,1-12.069,7.172c-1.4.766-2.726,1.557-4.013,2.362l6.789,6.644c4.5-4.378,9.454-9.021,14.087-13,1.121-.964.943-1.215-.021-2.335" fill="#2d2d3d"/>
    <path id="パス_5651" data-name="パス 5651" d="M136.414,138.171a5.438,5.438,0,0,1,1.531-10.761h0a64.414,64.414,0,0,1,26,5.04,154.348,154.348,0,0,0,14.694,5.261c1.456.257,1.3,2.049,1.044,3.5s-.52,2.023-1.975,1.766c-16.534-2.946-38.533-4.582-40.674-4.737l-.123-.008-.047,0h0c-.149-.014-.3-.032-.449-.059" fill="#ffcec8"/>
    <path id="パス_5652" data-name="パス 5652" d="M178.639,137.709a154.23,154.23,0,0,1-14.694-5.261c-1.606-.654-3.172-1.214-4.724-1.731l-1.871,9.422c6.615.74,13.9,1.69,20.356,2.84,1.456.257,1.718-.311,1.976-1.766s.411-3.247-1.043-3.5" fill="#2d2d3d"/>
    <path id="パス_5653" data-name="パス 5653" d="M35.714,144.819l15.887-.665-8.216-19.671-15.814.6Z" fill="#fff"/>
    <path id="パス_5654" data-name="パス 5654" d="M37.808,143.065,51.6,144.154l-8.217-19.671-13.72-1.15Z" fill="#fff"/>
    <path id="パス_5655" data-name="パス 5655" d="M43.268,124.567l11.643-10.83,8.211,19.672L51.575,144.231Z" fill="#fff"/>
    <path id="パス_5656" data-name="パス 5656" d="M64.935,135.783l-11.151,9.406a.4.4,0,0,1-.627-.153l-8.4-20.35a.4.4,0,0,1,.112-.457l11.152-9.406a.4.4,0,0,1,.626.153l8.4,20.349a.4.4,0,0,1-.112.458" fill="#2d2d3d"/>
    <path id="パス_5657" data-name="パス 5657" d="M36.069,147.7l14.539-1.2a.4.4,0,0,0,.337-.55l-8.4-20.35a.4.4,0,0,0-.4-.246l-14.539,1.2a.4.4,0,0,0-.336.551l8.4,20.349a.4.4,0,0,0,.4.246" fill="#2d2d3d"/>
    <path id="パス_5658" data-name="パス 5658" d="M53.567,145.673l-2.456,1.014a.4.4,0,0,1-.524-.218l-8.648-20.954a.4.4,0,0,1,.218-.525l2.456-1.013a.4.4,0,0,1,.524.218l8.648,20.954a.4.4,0,0,1-.218.524" fill="#2d2d3d"/>
    <path id="パス_5659" data-name="パス 5659" d="M166.815,44.966l-3.566,1.325a1.7,1.7,0,0,1-2.238-2.016l3.639-14.157a1.173,1.173,0,0,1,.727-.807l4.955-1.84a1.7,1.7,0,0,1,2.23,2.047l-3.656,13.171a3.4,3.4,0,0,1-2.091,2.277" fill="#2d2d3d"/>
  </g>
</svg>
