<svg xmlns="http://www.w3.org/2000/svg" viewBox="0 0 810 54"><defs><style>.a{fill:#fff;}.b{fill:#717171;}.c{fill:#32a253;}.d{fill:#c99194;}.e{fill:#4136a3;}.f{fill:#42b1ef;}.g{fill:#7ebe00;}</style></defs><rect class="a" width="810" height="54"/><rect class="b" width="45" height="54"/><path class="a" d="M9.5674,31.5312a.6587.6587,0,0,1-.58.1861.6954.6954,0,0,1-.5059-.35,1.0372,1.0372,0,0,1-.1269-.6695,1.2033,1.2033,0,0,1,.3047-.625,7.4419,7.4419,0,0,0,1.7344-3.1772,19.238,19.238,0,0,0,.5429-5.0674V20.147a.8652.8652,0,0,1,.8487-.8487h6.1162a.865.865,0,0,1,.8486.8487v9.5688q0,.4916.126.5806a1.9955,1.9955,0,0,0,.8115.0893q.7589,0,.9219-.4467a15.2742,15.2742,0,0,0,.2383-2.9615.7057.7057,0,0,1,.2461-.5058.66.66,0,0,1,.5283-.1787.766.766,0,0,1,.5205.268.7546.7546,0,0,1,.1933.55q-.0292.953-.0517,1.5332a9.7125,9.7125,0,0,1-.1113,1.146c-.06.377-.1075.66-.1417.8482a1.3177,1.3177,0,0,1-.2529.55,1.4723,1.4723,0,0,1-.3428.3574,1.6664,1.6664,0,0,1-.5136.1636,3.941,3.941,0,0,1-.6543.082q-.2828.0073-.878.0073a3.6293,3.6293,0,0,1-1.8525-.29q-.3793-.29-.38-1.4214V20.8462a.1183.1183,0,0,0-.1338-.1338h-4.36c-.08,0-.1192.0444-.1192.1338v1.2056a19.4919,19.4919,0,0,1-.707,5.7666A8.63,8.63,0,0,1,9.5674,31.5312Zm3.8252-8.4677a.7984.7984,0,0,1,.6465-.1411.826.826,0,0,1,.5586.35,31.8452,31.8452,0,0,1,1.9345,3.14.78.78,0,0,1,.06.6323.8838.8838,0,0,1-.4023.5137.7485.7485,0,0,1-.6172.06.82.82,0,0,1-.4834-.4019,31.139,31.139,0,0,0-1.9053-3.021.7915.7915,0,0,1-.1338-.61A.7756.7756,0,0,1,13.3926,23.0635Z"/><path class="a" d="M25.498,31.9482a.7522.7522,0,0,1-.5429.2232.7628.7628,0,0,1-.7588-.7588V25.9805c0-.02-.0078-.03-.0225-.03a.0516.0516,0,0,0-.0371.0151,1.3123,1.3123,0,0,0-.082.1636,1.0631,1.0631,0,0,1-.082.1636.3246.3246,0,0,1-.3643.186.4.4,0,0,1-.335-.2754l-.0449-.1191a1.81,1.81,0,0,1,.1192-1.5327,17.67,17.67,0,0,0,1.6972-5.1192.8228.8228,0,0,1,.2969-.4912.7666.7666,0,0,1,.5361-.1787.6524.6524,0,0,1,.4688.2231.5716.5716,0,0,1,.1416.4913,22.0641,22.0641,0,0,1-.7295,3.2592.7655.7655,0,0,0-.0293.253v8.4233A.7184.7184,0,0,1,25.498,31.9482Zm4.0557-11.3105a.14.14,0,0,0-.1484.1191q-.06.5061-.2383,1.399c-.0205.08.0146.1191.1045.1191H31.31a.8639.8639,0,0,1,.8486.8481V23.51A11.3294,11.3294,0,0,1,30.96,28.2725a9.2078,9.2078,0,0,1-2.85,3.393.7223.7223,0,0,1-.5586.1265.7746.7746,0,0,1-.4981-.3052.6436.6436,0,0,1-.1269-.521.7264.7264,0,0,1,.291-.4614,8.4725,8.4725,0,0,0,2.3955-2.8721.1381.1381,0,0,0-.0449-.1933q-.73-.5655-1.6514-1.1607c-.08-.0595-.1338-.0547-.1641.0147q-.1934.3875-.372.6845a.5772.5772,0,0,1-.4385.2754.5334.5334,0,0,1-.4844-.1709.9764.9764,0,0,1-.1338-1.1611A14.8419,14.8419,0,0,0,27.917,20.772c.0195-.0894-.0205-.1343-.1191-.1343h-.4024a.67.67,0,1,1,0-1.3394h4.3906a.67.67,0,1,1,0,1.3394Zm1.042,2.8726H28.959a.1493.1493,0,0,0-.1641.1191q-.2388.8034-.3867,1.19a.15.15,0,0,0,.06.1934q.684.4467,1.622,1.1606a.0882.0882,0,0,0,.0811.0225.0753.0753,0,0,0,.0674-.0523,11.3694,11.3694,0,0,0,.4765-2.5C30.7148,23.5547,30.6748,23.51,30.5957,23.51Zm2.1572,4.8813V20.4741a.73.73,0,0,1,1.459,0v7.9175a.73.73,0,0,1-1.459,0Zm2.6787-9.1675a.7329.7329,0,0,1,.5362-.2231.7541.7541,0,0,1,.5429.2231.7186.7186,0,0,1,.2315.5357V29.8647a3.9309,3.9309,0,0,1-.2461,1.8082q-.2462.3494-1.2871.35c-.2578,0-.6553-.0147-1.19-.0445a.7726.7726,0,0,1-.5137-.2231.732.732,0,0,1-.23-.5064.6106.6106,0,0,1,.1856-.4834.63.63,0,0,1,.499-.186q.684.03.7588.03c.2383,0,.38-.0371.4238-.1118a1.8624,1.8624,0,0,0,.0674-.6773V19.76A.7323.7323,0,0,1,35.4316,19.2241Z"/><path d="M103.1943,31.4775a.6984.6984,0,0,1-.5048.2022.69.69,0,0,1-.7-.7V28.7173a.0237.0237,0,0,0-.0264-.0269.0559.0559,0,0,0-.041.0137,9.6218,9.6218,0,0,1-1.2383,1.6157.5651.5651,0,0,1-.4443.1748.537.537,0,0,1-.418-.229.6555.6555,0,0,1-.1406-.498.7268.7268,0,0,1,.2353-.4575,8.5445,8.5445,0,0,0,1.6426-2.0738.0493.0493,0,0,0,0-.0674.08.08,0,0,0-.0674-.0405H100.293a.5816.5816,0,0,1-.418-.168A.55.55,0,0,1,99.7,26.55a.5977.5977,0,0,1,.5928-.5928h1.5752a.1068.1068,0,0,0,.1211-.1211V25.23a.107.107,0,0,0-.1211-.1211h-1.6026a.5763.5763,0,0,1-.5654-.5654.5653.5653,0,0,1,.1689-.4039.5311.5311,0,0,1,.3965-.1752h.7676q.1217,0,.0674-.0806a.7792.7792,0,0,1-.04-.0942q-.2564-.983-.3906-1.3736a.5252.5252,0,0,1,.04-.4443c.0449-.0625.0273-.0943-.0538-.0943H100.36a.5822.5822,0,0,1-.418-.1684.5489.5489,0,0,1-.1748-.4107.5969.5969,0,0,1,.5928-.5922h1.5078a.107.107,0,0,0,.1211-.1211v-.5118a.6991.6991,0,0,1,.2021-.5048.6662.6662,0,0,1,.4981-.209.7136.7136,0,0,1,.7138.7138v.5118a.107.107,0,0,0,.1211.1211h1.8848a.597.597,0,0,1,.5928.5922.5486.5486,0,0,1-.1749.4107.582.582,0,0,1-.4179.1684h-.1612c-.0634,0-.0859.0362-.0673.1075a.5509.5509,0,0,1-.0137.27,14.0906,14.0906,0,0,1-.5654,1.6157q-.0543.0945.0673.0943h.7139a.6.6,0,0,1,.5791.5791.5306.5306,0,0,1-.1758.3969.5635.5635,0,0,1-.4033.1685h-1.8584a.107.107,0,0,0-.1211.1211v.6059a.1068.1068,0,0,0,.1211.1211h1.71a.5993.5993,0,0,1,.5927.5928.5475.5475,0,0,1-.1757.4106.5793.5793,0,0,1-.417.168h-1.6563a.0457.0457,0,0,0-.0273.0811h.0137a.012.012,0,0,1,.0136.0132q.7675.6738,1.3467,1.2387a.6139.6139,0,0,1,.1816.4312.5828.5828,0,0,1-.1552.4306.5226.5226,0,0,1-.78.0137c-.0449-.0542-.1484-.1684-.31-.3437s-.2881-.3072-.3769-.397c-.0362-.0181-.0635-.0044-.0811.0405V30.98A.664.664,0,0,1,103.1943,31.4775Zm-.9218-7.9843a.7048.7048,0,0,1-.0137.3632c-.0186.0723,0,.108.0537.108h.8076a.1677.1677,0,0,0,.1758-.108,11.5847,11.5847,0,0,0,.6328-1.75l.04-.1215a.053.053,0,0,0,.0068-.0669.0649.0649,0,0,0-.0606-.0406h-2.0468c-.0723,0-.085.0362-.04.1075l.04.1215Q102.0967,22.82,102.2725,23.4932Zm9.1152.1211a.61.61,0,0,1,.4443.1884.6426.6426,0,0,1,.0069.9024.6018.6018,0,0,1-.4512.1885H110.89c-.0722,0-.1074.04-.1074.121v5.857a.6528.6528,0,0,1-.209.4848.6833.6833,0,0,1-.4912.2022.69.69,0,0,1-.6875-.687v-5.857c0-.081-.0351-.121-.1074-.121h-1.3594c-.09,0-.1347.0356-.1347.1074a18.5055,18.5055,0,0,1-.5723,3.5078,8.8714,8.8714,0,0,1-1.1113,2.457.536.536,0,0,1-.4239.27.6276.6276,0,0,1-.4912-.1617.8065.8065,0,0,1-.2558-.498.7953.7953,0,0,1,.1211-.5523,8.9692,8.9692,0,0,0,1.1709-3.1909,35.0622,35.0622,0,0,0,.3642-5.5342.85.85,0,0,1,.2149-.5722.7734.7734,0,0,1,.539-.2759,19.7839,19.7839,0,0,0,3.4873-.66.6068.6068,0,0,1,.4912.0469.5921.5921,0,0,1,.3028.3838.7.7,0,0,1-.0606.5117.638.638,0,0,1-.3974.3233,18.7745,18.7745,0,0,1-3.1231.6059.1273.1273,0,0,0-.1084.1343q-.0262,1.1448-.0537,1.71a.0952.0952,0,0,0,.1074.108Z"/><path d="M115.0771,28.8252c.0713,0,.1075-.04.1075-.1211V27.99c0-.0805-.0362-.1211-.1075-.1211h-1.1044a.75.75,0,0,1-.5391-.2221.715.715,0,0,1-.2285-.5318V23.5874a.7814.7814,0,0,1,.7676-.7676h1.1044a.095.095,0,0,0,.1075-.1074v-.7139c0-.0805-.0362-.1211-.1075-.1211H113.542a.5743.5743,0,0,1-.5654-.5654.5662.5662,0,0,1,.1679-.4043.5345.5345,0,0,1,.3975-.1748h1.5351a.0952.0952,0,0,0,.1075-.1079v-.4443a.6476.6476,0,0,1,.209-.4844.6817.6817,0,0,1,.4912-.2022.69.69,0,0,1,.6865.6866v.4443c0,.0723.04.1079.1211.1079h1.6289a.5978.5978,0,0,1,.5791.5791.5334.5334,0,0,1-.1748.397.5658.5658,0,0,1-.4043.1684h-1.6289a.107.107,0,0,0-.1211.1211v.7139c0,.0718.04.1074.1211.1074h1.1045a.7146.7146,0,0,1,.5312.229.7475.7475,0,0,1,.2227.5386v3.5278a.7594.7594,0,0,1-.7539.7539h-1.1045a.107.107,0,0,0-.1211.1211v.7139a.1069.1069,0,0,0,.1211.1211h1.6289a.5671.5671,0,0,1,.4043.168.5387.5387,0,0,1,0,.7944.5639.5639,0,0,1-.4043.1685h-1.6289a.1069.1069,0,0,0-.1211.121v.983a.69.69,0,0,1-.6865.687.6817.6817,0,0,1-.4912-.2022.6492.6492,0,0,1-.209-.4848v-.983c0-.0805-.0362-.121-.1075-.121H113.542a.5655.5655,0,0,1,0-1.1309Zm-.5664-4.834v.7139c0,.0718.0411.1074.1221.1074h2.5713a.095.095,0,0,0,.1074-.1074v-.7139c0-.0806-.0361-.1211-.1074-.1211h-2.5713A.1077.1077,0,0,0,114.5107,23.9912Zm.1221,2.8413h2.5713c.0713,0,.1074-.04.1074-.1216v-.7671c0-.081-.0361-.1215-.1074-.1215h-2.5713a.1078.1078,0,0,0-.1221.1215v.7671A.1078.1078,0,0,0,114.6328,26.8325Zm6.7315-.4043a.1074.1074,0,0,0,.122-.1211V24.2876a.1074.1074,0,0,0-.122-.1211h-1.4268a.5993.5993,0,0,1-.6064-.606.6191.6191,0,0,1,.0947-.3095l-.0274-.0137-.0127.0137-.0273.0268a.5315.5315,0,0,1-.458.0874.51.51,0,0,1-.3633-.29.746.746,0,0,1-.06-.5117.7726.7726,0,0,1,.2763-.4444,15.9957,15.9957,0,0,0,2.3291-2.1675,1.2233,1.2233,0,0,1,.97-.458,1.3041,1.3041,0,0,1,.9961.458,18.4732,18.4732,0,0,0,2.2353,2.1138.8144.8144,0,0,1,.2822.4575.7922.7922,0,0,1-.0537.5391.575.575,0,0,1-.2627.2554.5054.5054,0,0,1-.3428.04c-.0185-.0088-.0361-.002-.0546.0205a.0536.0536,0,0,0-.0127.0606.416.416,0,0,1,.0127.121.5978.5978,0,0,1-.6055.606h-1.1982c-.0723,0-.1075.04-.1075.1211v2.0195c0,.0811.0352.1211.1075.1211h1.7236a.62.62,0,1,1,0,1.2388h-1.7236c-.0723,0-.1075.04-.1075.1211V31.02a.693.693,0,0,1-.2158.5181.7309.7309,0,0,1-1.0234,0,.6922.6922,0,0,1-.2149-.5181V27.7881a.1076.1076,0,0,0-.122-.1211h-1.9112a.6125.6125,0,0,1-.4511-.1816.6176.6176,0,0,1,0-.875.6107.6107,0,0,1,.4511-.1822Zm-1.4268-3.4736h4.2813a.032.032,0,0,0,.0341-.0269.0331.0331,0,0,0-.02-.0405,12.94,12.94,0,0,1-2.1133-2.2622c-.0459-.0537-.09-.0488-.1347.0137a13.8991,13.8991,0,0,1-2.249,2.3291c-.0176.0185-.0137.0273.0136.0273A1.3437,1.3437,0,0,1,119.9375,22.9546Z"/><path d="M127.3369,30.7642a.5564.5564,0,0,1-.4248.0942.5424.5424,0,0,1-.3633-.2358.5549.5549,0,0,1-.0947-.4244q.2432-1.3052.3643-2.6523a.5537.5537,0,0,1,.5918-.498.5323.5323,0,0,1,.3906.2084.5448.5448,0,0,1,.1347.4244q-.1215,1.4-.3632,2.72A.5431.5431,0,0,1,127.3369,30.7642Zm-.2226-4.3086a.5458.5458,0,0,1-.417-.1485.5691.5691,0,0,1-.1885-.4038.532.532,0,0,1,.1543-.4175.656.656,0,0,1,.4111-.2021l.4981-.04a.2176.2176,0,0,0,.1884-.0943c.0264-.0361.0645-.0942.1143-.1753s.083-.1391.1006-.1748a.1625.1625,0,0,0,.0137-.1885q-.2828-.4445-1.212-1.9121a1.0185,1.0185,0,0,1-.0127-1.1714.4276.4276,0,0,1,.7266-.0136.0389.0389,0,0,0,.0137.0268l.0263.0274q.0543.0805.1084,0,.4044-.8079.7139-1.562a.6233.6233,0,0,1,.336-.3233.5828.5828,0,0,1,.458,0,.57.57,0,0,1,.3232.3433.5892.5892,0,0,1-.0137.478q-.5389,1.1989-1.0771,2.2085a.1889.1889,0,0,0,0,.2153q.0674.1077.31.5249c.0449.063.0849.0674.121.0137q.6064-1.01,1.1446-2.0469a.5488.5488,0,0,1,.3437-.3027.5856.5856,0,0,1,.4649.0469.5978.5978,0,0,1,.3027.35.5747.5747,0,0,1-.0469.458q-.082.1751-.7675,1.3867a.0428.0428,0,0,0,.0126.0537.044.044,0,0,0,.0547.0137l.1075-.0269a.7626.7626,0,0,1,.5859.0742.7192.7192,0,0,1,.3564.4644q.3633,1.36.4981,2.0332a.484.484,0,0,1-.04.3364c-.0185.0537.004.0811.0674.0811H133.51a.743.743,0,0,1,.7.4443,1.0185,1.0185,0,0,1,.0673.8887,8.1364,8.1364,0,0,1-2.37,3.1909.6192.6192,0,0,1-.4843.1416.7369.7369,0,0,1-.4581-.2358.5152.5152,0,0,1-.1406-.4375.61.61,0,0,1,.2354-.4107,7.05,7.05,0,0,0,2.0058-2.37.06.06,0,0,0-.0068-.06.0657.0657,0,0,0-.0606-.0337h-1.1035a.5532.5532,0,0,1-.3974-.1616.52.52,0,0,1-.168-.39.4846.4846,0,0,1,.0537-.2427.0579.0579,0,0,0,0-.0537.027.027,0,0,0-.041-.0132.5048.5048,0,0,1-.5781-.3774c-.0186-.0444-.0459-.0669-.0811-.0669l-.8623.0669a.1075.1075,0,0,0-.1211.1216v4.6045a.6865.6865,0,0,1-1.373,0v-4.51c0-.0718-.04-.1079-.1211-.1079Zm2.1-1.3872a.0489.0489,0,0,0,.0069.0542.07.07,0,0,0,.06.0268l1.0908-.0674c.0713,0,.0987-.0405.08-.1211-.125-.5029-.2334-.9111-.3222-1.2255-.0186-.0625-.0459-.0674-.0811-.0132Q129.78,24.18,129.2148,25.0684Zm1.5889,4.4433a.51.51,0,0,1-.4043-.1211.5029.5029,0,0,1-.1885-.3637q-.0806-.9156-.1474-1.3868a.5474.5474,0,0,1,.1006-.3969.4753.4753,0,0,1,.3437-.209.5689.5689,0,0,1,.3965.0942.4591.4591,0,0,1,.209.3369q.1347.9428.1748,1.4541a.5063.5063,0,0,1-.1211.4038A.501.501,0,0,1,130.8037,29.5117Zm3.2588.8213c.2324,0,.37-.0288.41-.0874a1.6367,1.6367,0,0,0,.06-.6128V25.8091a.1067.1067,0,0,0-.1211-.1211h-1.9385a.7814.7814,0,0,1-.7675-.7676V21.1636a.7158.7158,0,0,1,.2285-.5318.7484.7484,0,0,1,.539-.2221h1.5342a.135.135,0,0,0,.1484-.1075,1.3555,1.3555,0,0,0,.0342-.1484,1.2049,1.2049,0,0,1,.0332-.1479.8725.8725,0,0,1,.3369-.4981.8843.8843,0,0,1,.5791-.1753.6194.6194,0,0,1,.4639.2559.5932.5932,0,0,1,.1016.5117.324.324,0,0,1-.0274.0942.3274.3274,0,0,0-.0273.0943.0812.0812,0,0,0,.02.0805.095.095,0,0,0,.0742.0406h1.9932a.7482.7482,0,0,1,.5381.2221.7162.7162,0,0,1,.2285.5318V24.92a.7814.7814,0,0,1-.7666.7676h-1.71c-.081,0-.1.0537-.0547.1616a10.4366,10.4366,0,0,0,.795,1.5752c.0351.063.0849.063.1484,0q.3354-.3773.8076-.9829a.5894.5894,0,0,1,.3975-.2422.5739.5739,0,0,1,.45.1074.6186.6186,0,0,1,.249.3975.5535.5535,0,0,1-.1006.4507,12.5284,12.5284,0,0,1-1.1045,1.32.1074.1074,0,0,0-.0127.1616,11.159,11.159,0,0,0,1.0908,1.1846.79.79,0,0,1,.2491.4985.7539.7539,0,0,1-.1416.5386.6507.6507,0,0,1-.4512.2622.552.552,0,0,1-.4785-.168,12.0827,12.0827,0,0,1-1.9112-2.5854.0416.0416,0,0,0-.0273-.0132c-.0088,0-.0137.0088-.0137.0269v1.2119a3.2145,3.2145,0,0,1-.249,1.6494q-.249.3024-1.3662.3027c-.0537,0-.2608-.0088-.62-.0268a.6908.6908,0,0,1-.4444-.209.6667.6667,0,0,1-.1884-.4375.5057.5057,0,0,1,.1621-.4107.496.496,0,0,1,.417-.1411C133.748,30.3286,133.8916,30.333,134.0625,30.333Zm-1.0508-8.6709v.7134a.1068.1068,0,0,0,.1211.1211h3.8379a.1072.1072,0,0,0,.1211-.1211v-.7134c0-.0718-.041-.1079-.1211-.1079h-3.8379C133.0518,21.5542,133.0117,21.59,133.0117,21.6621Zm.1211,2.9487h3.8379a.1073.1073,0,0,0,.1211-.1211v-.7812c0-.0718-.041-.1074-.1211-.1074h-3.8379c-.081,0-.1211.0356-.1211.1074V24.49A.107.107,0,0,0,133.1328,24.6108Z"/><rect class="a" x="54" y="24.8745" width="40" height="4.252"/><path class="c" d="M74,23.875H54v.5957h3.7871l3.2257,2.5066-3.2257,2.5046H54V30.08H74v-.5982H67.7887l3.2258-2.5046-3.2258-2.5066H74Z"/><path class="c" d="M94,23.875H74v.5957h3.7871l3.2257,2.5066-3.2257,2.5046H74V30.08H94v-.5982H87.7887l3.2258-2.5046-3.2258-2.5066H94Z"/><path d="M200.6758,30.4a.7872.7872,0,0,1-.4639-.3164.9191.9191,0,0,1-.1826-.5586.4329.4329,0,0,1,.1953-.377.4479.4479,0,0,1,.4248-.0542,5.6567,5.6567,0,0,0,1.8037.2964,1.6164,1.6164,0,0,0,1.38-.5791,3.37,3.37,0,0,0,.4385-1.979V21.4062a.7814.7814,0,0,1,.7666-.7675h.0137a.7814.7814,0,0,1,.7675.7675v5.83a3.4971,3.4971,0,0,1-.8076,2.565,3.5186,3.5186,0,0,1-2.5586.8012A7.4217,7.4217,0,0,1,200.6758,30.4Z"/><path d="M209.1582,30.2524a.7407.7407,0,0,1-1.2656-.5253V21.4736a.8674.8674,0,0,1,.2158-.5859.7842.7842,0,0,1,.5518-.2759,17.9317,17.9317,0,0,1,1.9257-.1079,4.9532,4.9532,0,0,1,2.9219.7139,2.3081,2.3081,0,0,1,.9824,1.979,2.9034,2.9034,0,0,1-.5185,1.7436,2.6771,2.6771,0,0,1-1.42,1.0034.012.012,0,0,0-.0137.0132c0,.0181.0049.0269.0137.0269a3.4471,3.4471,0,0,1,1.0634,1.5889l.8623,2.1816a.4727.4727,0,0,1-.0546.4844.5014.5014,0,0,1-.4307.229,1.0871,1.0871,0,0,1-.6328-.1953,1.0666,1.0666,0,0,1-.4033-.5181l-.8487-2.1816a1.8616,1.8616,0,0,0-.626-.9356,2.7634,2.7634,0,0,0-1.3-.209h-.6865a.1072.1072,0,0,0-.1211.1216v3.1773A.7151.7151,0,0,1,209.1582,30.2524Zm.2158-8.3481v3.2451a.107.107,0,0,0,.1211.1211h.6865q2.8551,0,2.8545-1.939a1.3848,1.3848,0,0,0-.6123-1.2319,3.6394,3.6394,0,0,0-1.9726-.4106,5.6024,5.6024,0,0,0-.97.0805A.1278.1278,0,0,0,209.374,21.9043Z"/><path d="M216.49,30.7642a.5564.5564,0,0,1-.4248.0942.5424.5424,0,0,1-.3633-.2358.5553.5553,0,0,1-.0947-.4244q.2431-1.3052.3643-2.6523a.5537.5537,0,0,1,.5918-.498.5323.5323,0,0,1,.3906.2084.5452.5452,0,0,1,.1348.4244q-.1216,1.4-.3633,2.72A.5431.5431,0,0,1,216.49,30.7642Zm-.2226-4.3086a.5458.5458,0,0,1-.417-.1485.5691.5691,0,0,1-.1885-.4038.532.532,0,0,1,.1543-.4175.656.656,0,0,1,.4111-.2021l.4981-.04a.2179.2179,0,0,0,.1885-.0943c.0263-.0361.0644-.0942.1142-.1753s.083-.1391.1006-.1748a.1625.1625,0,0,0,.0137-.1885q-.2827-.4445-1.2119-1.9121a1.0182,1.0182,0,0,1-.0127-1.1714.4275.4275,0,0,1,.7265-.0136.0389.0389,0,0,0,.0137.0268l.0264.0274q.0541.0805.1084,0,.4042-.8079.7138-1.562a.6233.6233,0,0,1,.336-.3233.5828.5828,0,0,1,.458,0,.57.57,0,0,1,.3232.3433.59.59,0,0,1-.0136.478q-.5391,1.1989-1.0772,2.2085a.1889.1889,0,0,0,0,.2153q.0674.1077.31.5249c.0449.063.0849.0674.1211.0137q.6065-1.01,1.1445-2.0469a.5491.5491,0,0,1,.3437-.3027.5856.5856,0,0,1,.4649.0469.5978.5978,0,0,1,.3027.35.5746.5746,0,0,1-.0468.458q-.0821.1751-.7676,1.3867a.0427.0427,0,0,0,.0127.0537.044.044,0,0,0,.0547.0137l.1074-.0269a.7626.7626,0,0,1,.5859.0742.7194.7194,0,0,1,.3565.4644q.3631,1.36.498,2.0332a.4839.4839,0,0,1-.04.3364c-.0186.0537.0039.0811.0674.0811h1.6152a.743.743,0,0,1,.7.4443,1.0189,1.0189,0,0,1,.0674.8887,8.1376,8.1376,0,0,1-2.37,3.1909.6191.6191,0,0,1-.4843.1416.7364.7364,0,0,1-.458-.2358.5153.5153,0,0,1-.1407-.4375.61.61,0,0,1,.2354-.4107,7.05,7.05,0,0,0,2.0059-2.37.0606.0606,0,0,0-.0069-.06.0656.0656,0,0,0-.0605-.0337h-1.1035a.5533.5533,0,0,1-.3975-.1616.52.52,0,0,1-.168-.39.4846.4846,0,0,1,.0537-.2427.0579.0579,0,0,0,0-.0537.027.027,0,0,0-.041-.0132.5048.5048,0,0,1-.5781-.3774c-.0186-.0444-.0459-.0669-.0811-.0669l-.8623.0669a.1075.1075,0,0,0-.1211.1216v4.6045a.6865.6865,0,0,1-1.373,0v-4.51c0-.0718-.04-.1079-.1211-.1079Zm2.1006-1.3872a.0487.0487,0,0,0,.0068.0542.07.07,0,0,0,.06.0268l1.0909-.0674c.0713,0,.0986-.0405.08-.1211-.125-.5029-.2334-.9111-.3222-1.2255-.0186-.0625-.0459-.0674-.0811-.0132Q218.9336,24.18,218.3682,25.0684Zm1.5888,4.4433a.51.51,0,0,1-.4043-.1211.5024.5024,0,0,1-.1884-.3637q-.0807-.9156-.1475-1.3868a.5474.5474,0,0,1,.1006-.3969.4753.4753,0,0,1,.3437-.209.5689.5689,0,0,1,.3965.0942.4591.4591,0,0,1,.209.3369q.1347.9428.1748,1.4541a.5329.5329,0,0,1-.4844.5923Zm3.2588.8213c.2324,0,.37-.0288.41-.0874a1.6367,1.6367,0,0,0,.06-.6128V25.8091a.1067.1067,0,0,0-.1211-.1211H221.627a.7814.7814,0,0,1-.7676-.7676V21.1636a.7158.7158,0,0,1,.2285-.5318.7484.7484,0,0,1,.5391-.2221h1.5341a.1352.1352,0,0,0,.1485-.1075,1.38,1.38,0,0,0,.0342-.1484,1.1859,1.1859,0,0,1,.0332-.1479.8725.8725,0,0,1,.3369-.4981.8839.8839,0,0,1,.5791-.1753.6194.6194,0,0,1,.4638.2559.5932.5932,0,0,1,.1016.5117.3261.3261,0,0,1-.0273.0942.3252.3252,0,0,0-.0274.0943.0814.0814,0,0,0,.02.0805.095.095,0,0,0,.0742.0406h1.9932a.748.748,0,0,1,.5381.2221.7162.7162,0,0,1,.2285.5318V24.92a.7814.7814,0,0,1-.7666.7676h-1.71c-.081,0-.1.0537-.0546.1616a10.4265,10.4265,0,0,0,.7949,1.5752c.0351.063.0849.063.1484,0q.3354-.3773.8076-.9829a.59.59,0,0,1,.3975-.2422.5739.5739,0,0,1,.45.1074.6178.6178,0,0,1,.249.3975.5531.5531,0,0,1-.1006.4507,12.5284,12.5284,0,0,1-1.1045,1.32.1074.1074,0,0,0-.0127.1616,11.161,11.161,0,0,0,1.0909,1.1846.7907.7907,0,0,1,.249.4985.7534.7534,0,0,1-.1416.5386.6507.6507,0,0,1-.4512.2622.5521.5521,0,0,1-.4785-.168,12.079,12.079,0,0,1-1.9111-2.5854.042.042,0,0,0-.0274-.0132c-.0088,0-.0137.0088-.0137.0269v1.2119a3.2145,3.2145,0,0,1-.249,1.6494q-.249.3024-1.3662.3027-.0805,0-.62-.0268a.69.69,0,0,1-.4443-.209.6663.6663,0,0,1-.1885-.4375.5057.5057,0,0,1,.1621-.4107.496.496,0,0,1,.417-.1411C222.9014,30.3286,223.0449,30.333,223.2158,30.333Zm-1.0508-8.6709v.7134a.1068.1068,0,0,0,.1211.1211h3.8379a.1072.1072,0,0,0,.1211-.1211v-.7134c0-.0718-.041-.1079-.1211-.1079h-3.8379C222.2051,21.5542,222.165,21.59,222.165,21.6621Zm.1211,2.9487h3.8379a.1073.1073,0,0,0,.1211-.1211v-.7812c0-.0718-.041-.1074-.1211-.1074h-3.8379c-.081,0-.1211.0356-.1211.1074V24.49A.107.107,0,0,0,222.2861,24.6108Z"/><rect x="154.5313" y="24.166" width="40" height="5.6689"/><rect class="a" x="154.5313" y="25.2998" width="3.543" height="3.4014"/><path class="a" d="M184.4053,28.7012h-6.583V25.3h6.583Zm-13.1651,0h-6.583V25.3h6.583Z"/><rect class="a" x="190.9873" y="25.2998" width="3.5439" height="3.4014"/><path d="M606.2432,22.5386a.5481.5481,0,0,1-.33-.35.625.625,0,0,1,.0342-.4986,20.1178,20.1178,0,0,0,1.6152-4.416.6359.6359,0,0,1,.2969-.4243.6758.6758,0,0,1,.5117-.1011.6451.6451,0,0,1,.4238.29.6119.6119,0,0,1,.0879.5049q-.0278.1347-.0947.3974c-.0449.1748-.0811.3076-.1074.397a.2418.2418,0,0,0,.0263.2022,4.8836,4.8836,0,0,0,2.4375,2.1137.1006.1006,0,0,0,.0811-.0068.0649.0649,0,0,0,.04-.0606V15.47a.1071.1071,0,0,0-.1211-.1216H608.6a.5459.5459,0,0,1-.41-.1748.6.6,0,0,1,0-.8349.5477.5477,0,0,1,.41-.1748h6.4365a.5493.5493,0,0,1,.41.1748.6026.6026,0,0,1,0,.8349.5475.5475,0,0,1-.41.1748h-2.1816c-.0723,0-.1074.0406-.1074.1216v1.71c0,.0806.0351.1211.1074.1211h3.2178a.5969.5969,0,0,1,.5927.5923.5488.5488,0,0,1-.1748.4106.5823.5823,0,0,1-.4179.1685h-3.2178c-.0723,0-.1074.04-.1074.1211v2.37q0,.1215.0937.1348a26.6067,26.6067,0,0,0,4.0938.2421h.2822a.5738.5738,0,0,1,.4307.1822.5621.5621,0,0,1,.1621.4375.6566.6566,0,0,1-.66.6191h-.2822a20.7142,20.7142,0,0,1-5.5547-.5654,5.848,5.848,0,0,1-3.05-2.0464.0533.0533,0,0,0-.0537-.0269.0527.0527,0,0,0-.0537.04,21.9157,21.9157,0,0,1-.9824,2.2217.71.71,0,0,1-.3975.35A.7273.7273,0,0,1,606.2432,22.5386Zm11.0273-7.7959a.6866.6866,0,0,1-1.1709-.4849V13.14a.1074.1074,0,0,0-.1211-.1211h-8.3213a.107.107,0,0,0-.1211.1211v1.1177a.687.687,0,0,1-1.374,0V12.6152a.7832.7832,0,0,1,.7676-.7675h4.0264a.107.107,0,0,0,.121-.1211v-.4849a.7408.7408,0,0,1,1.4815,0v.4849a.107.107,0,0,0,.1211.1211h4.0254a.7816.7816,0,0,1,.7676.7675v1.6426A.6613.6613,0,0,1,617.2705,14.7427Z"/><path d="M619.6,19.7241a.5631.5631,0,0,1-.4033-.1679.5318.5318,0,0,1-.1748-.3975A.5979.5979,0,0,1,619.6,18.58h.1885a.0957.0957,0,0,0,.1084-.1079V13.167a.0953.0953,0,0,0-.1084-.1074h-.1074a.5926.5926,0,0,1,0-1.1851h.1074c.0723,0,.1084-.0312.1084-.0942v-.3365a.6734.6734,0,1,1,1.3467,0v.3228c0,.0723.04.1079.1211.1079h1.9921a.0948.0948,0,0,0,.1075-.1079v-.3633a.6073.6073,0,0,1,.1894-.4443.6414.6414,0,0,1,.9014-.0069.6.6,0,0,1,.1885.4512v.377a.0833.0833,0,0,0,.0947.0942h.0674a.5493.5493,0,0,1,.41.1748.6.6,0,0,1,0,.835.5479.5479,0,0,1-.41.1753h-.0674a.0833.0833,0,0,0-.0947.0942v5.3316a.0837.0837,0,0,0,.0947.0947h.04a.5978.5978,0,0,1,.5791.5786.5354.5354,0,0,1-.1748.3975.5668.5668,0,0,1-.4043.1679h-.8213a.0587.0587,0,0,0-.0468.0274.0479.0479,0,0,0-.0069.0537,15.1211,15.1211,0,0,1,.9287,1.333.5759.5759,0,0,1,.0674.4712.6323.6323,0,0,1-.2822.3906.5675.5675,0,0,1-.4648.0674.6337.6337,0,0,1-.3838-.2832q-.189-.3091-.6192-.9287a.6872.6872,0,0,1-.1347-.5523.7047.7047,0,0,1,.31-.4712l.0674-.0405a.0543.0543,0,0,0,.0137-.04.0242.0242,0,0,0-.0274-.0274H621.418a.0351.0351,0,0,0-.0137.0674l.04.0137a.8572.8572,0,0,1,.3506.498.6959.6959,0,0,1-.0947.5791,11.6577,11.6577,0,0,1-1.2246,1.562.6059.6059,0,0,1-.4444.1953.6714.6714,0,0,1-.4716-.1684.5653.5653,0,0,1-.2022-.4175.541.541,0,0,1,.1621-.4307,9.6958,9.6958,0,0,0,1.3731-1.791.0536.0536,0,0,0,.0068-.0674.0657.0657,0,0,0-.0605-.0405Zm1.6436-6.5434v.875a.1068.1068,0,0,0,.1211.1211h1.9921c.0723,0,.1075-.04.1075-.1211v-.875c0-.0811-.0352-.1211-.1075-.1211h-1.9921A.1067.1067,0,0,0,621.2432,13.1807Zm0,2.1543V16.25c0,.0718.04.1079.1211.1079h1.9921a.095.095,0,0,0,.1075-.1079V15.335c0-.0811-.0352-.1211-.1075-.1211h-1.9921A.1067.1067,0,0,0,621.2432,15.335Zm0,2.1811v.9424a.1071.1071,0,0,0,.1211.1216h1.9921c.0723,0,.1075-.0405.1075-.1216v-.9424a.095.095,0,0,0-.1075-.1079h-1.9921C621.2832,17.4082,621.2432,17.4443,621.2432,17.5161Zm7.8632,3.9317q.4029,0,.4707-.0806a1.3657,1.3657,0,0,0,.0674-.5928v-1.979c0-.081-.0361-.1211-.1074-.1211h-2.2627a.1072.1072,0,0,0-.1211.1211,10.3536,10.3536,0,0,1-.8349,3.3525.5258.5258,0,0,1-.39.31.5618.5618,0,0,1-.4853-.1211.8634.8634,0,0,1-.3028-.5117,1.041,1.041,0,0,1,.0606-.6059,8.0368,8.0368,0,0,0,.5791-2.1475,24.8816,24.8816,0,0,0,.1611-3.1846v-4.08a.7832.7832,0,0,1,.7676-.7675h3.5547a.7164.7164,0,0,1,.5322.229.7465.7465,0,0,1,.2217.5385v8.9273q0,.7266-.0264,1.0635a1.2113,1.2113,0,0,1-.1748.5654.587.587,0,0,1-.3711.2763,3.6763,3.6763,0,0,1-.6933.0469q-.4029,0-1.1709-.04a.6743.6743,0,0,1-.4581-.2017A.6586.6586,0,0,1,627.9209,22a.5315.5315,0,0,1,.1689-.4312.5234.5234,0,0,1,.4375-.1479C628.8682,21.439,629.0605,21.4478,629.1064,21.4478Zm-1.8584-9.0752v1.7236c0,.0718.04.1079.1211.1079h2.168a.0953.0953,0,0,0,.1074-.1079V12.3726c0-.0806-.0361-.1211-.1074-.1211h-2.168A.107.107,0,0,0,627.248,12.3726Zm2.2891,5.13c.0713,0,.1074-.04.1074-.1211V15.4966a.0953.0953,0,0,0-.1074-.1079h-2.168c-.081,0-.1211.0361-.1211.1079v1.8847c0,.0811.0352.1211.1075.1211Z"/><path d="M616.0586,40.4165a1.7248,1.7248,0,0,1-.915-.1885q-.189-.1619-.1885-.7676v-2.72c0-.0718-.04-.1079-.1211-.1079h-.2559c-.081,0-.1211.0361-.1211.1079a4.2538,4.2538,0,0,1-2.1006,3.5947.7253.7253,0,0,1-.539.0606.7965.7965,0,0,1-.457-.3164.2953.2953,0,0,1-.0547-.1074c-.0352-.0723-.08-.1079-.1338-.1079h-3.2188a.0708.0708,0,0,0-.08.0805.519.519,0,0,1-.1484.3706.5.5,0,0,1-.3769.1548h-.1748a.69.69,0,0,1-.6875-.6865v-3.73a.0453.0453,0,0,0-.02-.0405.0464.0464,0,0,0-.0478,0,.4188.4188,0,0,1-.4034.1279.3941.3941,0,0,1-.3095-.2759l-.0137-.0537a1.0511,1.0511,0,0,1,.2559-1.185,9.6973,9.6973,0,0,0,1.44-1.9253.0536.0536,0,0,0,.0068-.0674.0645.0645,0,0,0-.0605-.0405h-.9424a.5978.5978,0,0,1-.5791-.5787.535.535,0,0,1,.1748-.3974.5659.5659,0,0,1,.4043-.1685h1.4941a.1644.1644,0,0,0,.1485-.0942q.189-.4842.3232-.9424c.0176-.0718-.0088-.1079-.081-.1079h-.4981a.2.2,0,0,0-.1748.1079c-.0361.0537-.081.13-.1347.229a1.5546,1.5546,0,0,1-.1348.2153.7429.7429,0,0,1-.4512.3165.7836.7836,0,0,1-.5449-.0469.4875.4875,0,0,1-.2969-.3438.5368.5368,0,0,1,.0811-.4643,11.07,11.07,0,0,0,.9023-1.6563.8045.8045,0,0,1,.3565-.397.7292.7292,0,0,1,.5185-.0874.5537.5537,0,0,1,.3838.2759.5158.5158,0,0,1,.0342.4644.1332.1332,0,0,0-.0274.0537.24.24,0,0,0-.0136.0542c-.0176.063.0048.0942.0674.0942h2.666a.5923.5923,0,0,1,0,1.1846h-1.1709c-.09,0-.14.0317-.1485.0942-.1074.3775-.207.6914-.2959.9429-.0185.0718.0039.1074.0664.1074h1.7774a.5765.5765,0,0,1,.5664.5659.5662.5662,0,0,1-.169.4039.5324.5324,0,0,1-.3974.1748H608.99a.1692.1692,0,0,0-.1748.0942q-.3237.6336-.5527,1.01a.0549.0549,0,0,0-.0068.0673.0658.0658,0,0,0,.0615.0406h.875a.2.2,0,0,0,.1748-.1079,5.2154,5.2154,0,0,0,.2285-.4712.7084.7084,0,0,1,.3369-.3565.6935.6935,0,0,1,.4717-.061.5385.5385,0,0,1,.35.2764.47.47,0,0,1,.0137.4238c-.0088.0181-.0225.05-.04.0942s-.0322.0767-.041.0943c-.0361.0722-.0136.1079.0674.1079h.377a.5675.5675,0,0,1,.4043.1684.535.535,0,0,1,.1748.397.5978.5978,0,0,1-.5791.5791h-.6592a.0956.0956,0,0,0-.1084.1079v.4444c0,.0805.0361.121.1084.121h.6728a.46.46,0,0,1,.458.4576.4181.4181,0,0,1-.1347.3164.4521.4521,0,0,1-.3233.1279h-.6728c-.0723,0-.1084.04-.1084.1211V37.09a.0954.0954,0,0,0,.1084.1079h.6728a.4578.4578,0,0,1,0,.9156h-.6728a.0956.0956,0,0,0-.1084.1079v.4443c0,.0806.0361.1211.1084.1211h.7a.4866.4866,0,0,1,.4843.31q.0543.0945.1348.0542a3.0183,3.0183,0,0,0,1.3594-2.41q.0277-.1077-.0938-.1079h-.1347a.7814.7814,0,0,1-.7676-.7676V29.4561a.7814.7814,0,0,1,.7676-.7676h4.0927a.7814.7814,0,0,1,.7676.7676v6.4091a.7814.7814,0,0,1-.7676.7676h-.6054a.0949.0949,0,0,0-.1074.1079v2.1406a.7347.7347,0,0,0,.0263.27c.0186.0268.09.0493.2158.0669h.35a.264.264,0,0,0,.1884-.0806.7171.7171,0,0,0,.0811-.3232q.0264-.2556.04-.9019a.5632.5632,0,0,1,.1953-.4043.5263.5263,0,0,1,.4248-.1343.6206.6206,0,0,1,.4239.2286.6414.6414,0,0,1,.1552.458q-.0277.714-.081,1.0971t-.1211.66a.5624.5624,0,0,1-.2627.3833,1.3972,1.3972,0,0,1-.3838.1484,4.6921,4.6921,0,0,1-.6064.0674c-.0987.0088-.2461.0132-.4444.0132C616.2969,40.43,616.1484,40.4253,616.0586,40.4165ZM609.084,35.502v-.4312a.107.107,0,0,0-.1211-.1211h-.9824c-.0723,0-.1075.0405-.1075.1211v.4312c0,.0805.0352.121.1075.121h.9824A.107.107,0,0,0,609.084,35.502Zm0,1.5883V36.646a.107.107,0,0,0-.1211-.1211h-.9824c-.0723,0-.1075.04-.1075.1211V37.09a.0948.0948,0,0,0,.1075.1079h.9824C609.0439,37.1982,609.084,37.1626,609.084,37.09Zm0,1.5757v-.4443c0-.0718-.04-.1079-.1211-.1079h-.9824a.095.095,0,0,0-.1075.1079v.4443c0,.0806.0352.1211.1075.1211h.9824A.107.107,0,0,0,609.084,38.666Zm4.39-8.6445V30.87c0,.0718.041.1074.1211.1074h2.6934c.081,0,.1211-.0356.1211-.1074v-.8486a.107.107,0,0,0-.1211-.1211h-2.6934A.1073.1073,0,0,0,613.4736,30.0215Zm0,2.1543v.8755a.1074.1074,0,0,0,.1211.1211h2.6934a.107.107,0,0,0,.1211-.1211v-.8755a.107.107,0,0,0-.1211-.1211h-2.6934A.1073.1073,0,0,0,613.4736,32.1758Zm.1211,3.2451h2.6934a.107.107,0,0,0,.1211-.1211v-.9424a.1072.1072,0,0,0-.1211-.1216h-2.6934a.1075.1075,0,0,0-.1211.1216V35.3A.1073.1073,0,0,0,613.5947,35.4209Z"/><path d="M631.2607,36.7676q-.0277.5383-.041.9018a6.3018,6.3018,0,0,1-.0674.7207q-.0541.3567-.0869.5718a1.2937,1.2937,0,0,1-.1484.4243q-.1143.2088-.1816.3164a.62.62,0,0,1-.27.2022,1.9819,1.9819,0,0,1-.3369.1279,3.955,3.955,0,0,1-.45.0674,5.4169,5.4169,0,0,1-.5459.0337H628.46q-.5933,0-.9561-.02a4.58,4.58,0,0,1-.66-.0806,1.49,1.49,0,0,1-.4444-.1484.6391.6391,0,0,1-.2422-.2759,1.24,1.24,0,0,1-.1211-.397,4.46,4.46,0,0,1-.0273-.5591V34.6265a.1069.1069,0,0,0-.1211-.1211h-1.5352a.1074.1074,0,0,0-.1211.1211,6.4008,6.4008,0,0,1-.956,3.292,6.4767,6.4767,0,0,1-2.7061,2.1342.7331.7331,0,0,1-.5586.0474.7866.7866,0,0,1-.4511-.3438.5548.5548,0,0,1-.0742-.478.5476.5476,0,0,1,.3164-.3564,5.4049,5.4049,0,0,0,2.1748-1.69,5.2637,5.2637,0,0,0,.8144-2.6054c0-.0806-.0361-.1211-.1074-.1211h-2.64a.5989.5989,0,0,1-.4306-.1685.5641.5641,0,0,1-.1748-.4238.6119.6119,0,0,1,.1748-.438.576.576,0,0,1,.4306-.1816h4.3223c.0811,0,.1211-.0357.1211-.1075V29.16a.703.703,0,0,1,.2227-.5254.7319.7319,0,0,1,1.0371,0,.7061.7061,0,0,1,.2217.5254V33.186c0,.0718.04.1075.121.1075h4.3223a.5747.5747,0,0,1,.4307.1816.6078.6078,0,0,1,.1748.438.56.56,0,0,1-.1748.4238.5975.5975,0,0,1-.4307.1685h-2.8408a.1069.1069,0,0,0-.1211.1211v3.7568c0,.269.0488.4263.1475.4712a4.029,4.029,0,0,0,1.0234.0674h.3506a1.2813,1.2813,0,0,0,.2627-.0337.4944.4944,0,0,0,.208-.0811,1.0705,1.0705,0,0,0,.1416-.1679.5747.5747,0,0,0,.1074-.2627c.0137-.0943.0342-.231.0606-.4107s.0478-.3657.0605-.5591.0254-.4419.0342-.747a.6554.6554,0,0,1,.2353-.4781.6478.6478,0,0,1,.5049-.1684.671.671,0,0,1,.4912.2358A.7079.7079,0,0,1,631.2607,36.7676Zm-8.7119-4.1743a.6336.6336,0,0,1-.5254.0405.701.701,0,0,1-.4033-.35q-.5522-1.0232-1.1582-2.0064a.6248.6248,0,0,1,.2422-.8886.726.726,0,0,1,.5449-.0537.7173.7173,0,0,1,.4248.3232q.5376.8349,1.1709,2.02a.6559.6559,0,0,1,.0479.5254A.6326.6326,0,0,1,622.5488,32.5933Zm6.3418-.2559a.74.74,0,0,1-.4443.3164.7236.7236,0,0,1-.5391-.06.57.57,0,0,1-.3095-.39.61.61,0,0,1,.081-.4985,20.0325,20.0325,0,0,0,1.1445-2.0464.6753.6753,0,0,1,.3838-.37.6662.6662,0,0,1,.5323.02.6769.6769,0,0,1,.37.3838.6315.6315,0,0,1-.0205.5181A17.9433,17.9433,0,0,1,628.8906,32.3374Z"/><path d="M633.32,39.3794a.6939.6939,0,0,1-.3633-.4238.7134.7134,0,0,1,.04-.5591,23.1972,23.1972,0,0,0,2.4511-7.85.7764.7764,0,0,1,.2754-.4981.7125.7125,0,0,1,.5459-.1753.7314.7314,0,0,1,.5049.2491.663.663,0,0,1,.168.5185,23.869,23.869,0,0,1-2.5713,8.3882.7638.7638,0,0,1-.4512.3838A.7941.7941,0,0,1,633.32,39.3794Zm7.2715-8.3208c-.0723-.126-.1748-.31-.31-.5523s-.2334-.4262-.2968-.5522a.5837.5837,0,0,1-.0538-.4575.5328.5328,0,0,1,.2832-.35.6291.6291,0,0,1,.4844-.0474.5985.5985,0,0,1,.377.3032q.2021.3633.6064,1.1177a.5737.5737,0,0,1,.0469.4575.5487.5487,0,0,1-.3027.337.6147.6147,0,0,1-.4649.0336A.6026.6026,0,0,1,640.5918,31.0586Zm.9687,1.4541a.7438.7438,0,0,1,.5723.04.696.696,0,0,1,.3711.4307q.955,2.6792,1.7227,5.7358a.6475.6475,0,0,1-.087.5523.7388.7388,0,0,1-.4785.3232h-.0127a.7379.7379,0,0,1-.5791-.1079.8.8,0,0,1-.3505-.4849q-.7809-3.1771-1.629-5.601a.663.663,0,0,1,.0469-.5454A.6764.6764,0,0,1,641.5605,32.5127Zm2.1954-2a.5721.5721,0,0,1-.31.3569.6311.6311,0,0,1-.4785.0269.6223.6223,0,0,1-.37-.31q-.5245-.9426-.6192-1.1045a.58.58,0,0,1-.0469-.4643.5921.5921,0,0,1,.3028-.357.6124.6124,0,0,1,.4775-.0469.6461.6461,0,0,1,.3838.3028q.2154.3771.62,1.1313A.5608.5608,0,0,1,643.7559,30.5132Z"/><path d="M648.0244,39.3525a.6392.6392,0,0,1-.5185.0474.6914.6914,0,0,1-.3975-.33.5892.5892,0,0,1-.0469-.498.69.69,0,0,1,.33-.3906,19.9526,19.9526,0,0,0,4.4971-3.2515,14.7585,14.7585,0,0,0,2.9482-3.9522c.0274-.0625.0049-.0942-.0674-.0942h-6.14a.66.66,0,0,1,0-1.3193h7.1631a.6669.6669,0,0,1,.66.66,2.7861,2.7861,0,0,1-.2695,1.2388,14.8807,14.8807,0,0,1-2.4238,3.5142c-.045.0449-.04.0991.0136.1616q1.8574,1.71,3.3262,3.1777a.7008.7008,0,0,1,0,.9829.6473.6473,0,0,1-.4922.1953.6951.6951,0,0,1-.4912-.2089q-1.8311-1.8582-3.2851-3.191a.115.115,0,0,0-.1749,0A20.9269,20.9269,0,0,1,648.0244,39.3525Z"/><rect x="560.0049" y="24.166" width="40" height="5.6689"/><rect class="a" x="560.0049" y="25.583" width="40" height="2.835"/><path d="M721.3574,13.3955a.6734.6734,0,1,1,0-1.3467h8.7246a.7592.7592,0,0,1,.545.229.6842.6842,0,0,1,.2226.5386,9.6119,9.6119,0,0,1-2.0869,6.3555,9.47,9.47,0,0,1-5.9922,2.76.6749.6749,0,0,1-.5117-.1279.7012.7012,0,0,1-.2822-.4512.5658.5658,0,0,1,.1142-.478.6545.6545,0,0,1,.4375-.2627,8.3084,8.3084,0,0,0,4.9551-2.1543,7.6094,7.6094,0,0,0,1.8447-4.9546.0953.0953,0,0,0-.1074-.1079Z"/><path d="M735.7236,17.502a.6976.6976,0,0,1-.5117-.2154.7145.7145,0,0,1-.2158-.5249V12.251a.7145.7145,0,0,1,.2158-.5249.7.7,0,0,1,.5117-.2158.7248.7248,0,0,1,.5313.2221.7112.7112,0,0,1,.2226.5186v4.5107a.7093.7093,0,0,1-.2226.5181A.7229.7229,0,0,1,735.7236,17.502Zm6.3887-5.77a.7544.7544,0,0,1,1.2861.5322v2.814a7.4431,7.4431,0,0,1-1.4541,4.9614,7.4351,7.4351,0,0,1-4.6591,2.2154.6957.6957,0,0,1-.5186-.128.7506.7506,0,0,1-.3027-.4511.6138.6138,0,0,1,.1015-.4917.6532.6532,0,0,1,.4239-.2759,6.2743,6.2743,0,0,0,3.8173-1.7774,6.1655,6.1655,0,0,0,1.084-4.0122V12.2646A.7254.7254,0,0,1,742.1123,11.7324Z"/><path d="M747.8418,17.4619a.7.7,0,1,1,0-1.4h9.6406a.7.7,0,1,1,0,1.4Z"/><path d="M763.1172,22.6255a.6734.6734,0,0,1-1.1514-.478V18.4312c-.0088-.0088-.0224-.0088-.04,0a11.7047,11.7047,0,0,1-.8076,1.6425.4273.4273,0,0,1-.3838.2159.458.458,0,0,1-.3975-.2159,1.0227,1.0227,0,0,1,0-1.1845,12.8754,12.8754,0,0,0,1.5889-3.4336q.0264-.1077-.0938-.1079h-1.0244a.5969.5969,0,0,1-.5918-.5923.5462.5462,0,0,1,.1748-.4107.58.58,0,0,1,.417-.1684h1.0508c.0723,0,.1074-.04.1074-.1211v-1.481a.1386.1386,0,0,0-.0263-.0874.0736.0736,0,0,0-.0811-.0205q-.5655.0813-.8613.1079a.5622.5622,0,0,1-.4112-.1416.58.58,0,0,1-.2089-.3838.536.536,0,0,1,.1279-.417.52.52,0,0,1,.3838-.2021,23.0009,23.0009,0,0,0,3.2861-.5791.6188.6188,0,0,1,.4375.0542.533.533,0,0,1,.2754.3364.5436.5436,0,0,1-.04.4243.5318.5318,0,0,1-.337.2759q-.3764.1077-1.0771.2559a.1389.1389,0,0,0-.1211.1479v1.71a.1072.1072,0,0,0,.1211.1211h.9424a.582.582,0,0,1,.4179.1684.55.55,0,0,1,.1749.4107.597.597,0,0,1-.5928.5923h-.5518a.0655.0655,0,0,0-.0605.04.0525.0525,0,0,0,.0068.0674q.1349.2424.5117.936t.5655,1.0566a.6964.6964,0,0,1,.0673.4849.632.632,0,0,1-.2695.4038.4791.4791,0,0,1-.4238.0674.5292.5292,0,0,1-.33-.2827c-.0625-.1348-.1572-.3277-.2822-.5791s-.2071-.4175-.2432-.4981a.0448.0448,0,0,0-.0332-.0136c-.0137,0-.02.0048-.02.0136v5.1031A.6517.6517,0,0,1,763.1172,22.6255Zm4.8945-7.6948c.0625-.0362.0674-.0811.0137-.1348q-.4043-.3773-.6065-.5522a.5441.5441,0,0,1-.1816-.397.5.5,0,0,1,.1689-.3975.6827.6827,0,0,1,.4376-.1885.5758.5758,0,0,1,.4374.1617q.2286.202.74.6865a.0978.0978,0,0,0,.1484,0,6.6455,6.6455,0,0,0,1.333-1.5615.06.06,0,0,0-.0068-.0606.066.066,0,0,0-.0606-.0337h-2.3164a.2735.2735,0,0,0-.2011.0806,12.1491,12.1491,0,0,1-1.9659,1.4.63.63,0,0,1-.4648.06.6708.6708,0,0,1-.3838-.2627.48.48,0,0,1-.081-.4106.4993.4993,0,0,1,.2421-.33,11.0409,11.0409,0,0,0,2.4913-1.9795.9457.9457,0,0,1,1.0234-.2964l.0811.0274a.406.406,0,0,1,.2695.2558.3418.3418,0,0,1-.0674.35c-.01.0088-.01.02,0,.0332a.0436.0436,0,0,0,.04.02h2.208a.5293.5293,0,0,1,.5254.5249,2.2214,2.2214,0,0,1-.2158.9829q-1.5747,3.1239-6.0049,4.1607a.6754.6754,0,0,1-.4785-.0674.6825.6825,0,0,1-.3164-.3769.4626.4626,0,0,1,.0479-.4244.5543.5543,0,0,1,.3564-.2622A9.36,9.36,0,0,0,768.0117,14.9307Zm-2.3691,7.7959a.6191.6191,0,0,1-.4717-.0811.6865.6865,0,0,1-.2959-.39.5151.5151,0,0,1,.0537-.4312.4891.4891,0,0,1,.35-.2422,9.3384,9.3384,0,0,0,3.42-1.3061.0847.0847,0,0,0,.0137-.148c-.0449-.0449-.1074-.1079-.1885-.1884s-.1523-.1548-.2158-.2222a2.248,2.248,0,0,0-.1885-.1821.5715.5715,0,0,1,0-.8482.69.69,0,0,1,.4649-.1748.6154.6154,0,0,1,.4512.1885q.2284.2153.6728.66a.1017.1017,0,0,0,.1621,0,7.6882,7.6882,0,0,0,1.4268-1.9122c.0361-.0717.0185-.1074-.0537-.1074h-2.0469a.2741.2741,0,0,0-.2012.0669,14.9193,14.9193,0,0,1-3.084,2.1006.6476.6476,0,0,1-.4775.0337.6566.6566,0,0,1-.3838-.29.4732.4732,0,0,1-.0469-.4174.5519.5519,0,0,1,.2891-.3228A12.9272,12.9272,0,0,0,767.19,17.354a10.7062,10.7062,0,0,0,1.5752-1.3735,1.1516,1.1516,0,0,1,1.1182-.39l.1474.0269a.3308.3308,0,0,1,.2559.2153.3052.3052,0,0,1-.0537.3233.04.04,0,0,0-.0068.0405.0319.0319,0,0,0,.0341.0268h1.8575a.5533.5533,0,0,1,.3974.1617.52.52,0,0,1,.168.39,2.4378,2.4378,0,0,1-.2285,1.0772,8.0023,8.0023,0,0,1-2.6592,3.1777A10.15,10.15,0,0,1,765.6426,22.7266Z"/><path d="M774.0713,22.6187a.5686.5686,0,0,1-.4238-.148.5594.5594,0,0,1-.1954-.4038.5862.5862,0,0,1,.5518-.62q1.5483-.0937,2.1006-.1348c.0713,0,.1074-.0444.1074-.1343V20.72c0-.0806-.0361-.1211-.1074-.1211h-1.9121a.5279.5279,0,0,1-.377-.1548.5353.5353,0,0,1,0-.7675.5279.5279,0,0,1,.377-.1548h1.9121a.0952.0952,0,0,0,.1074-.1079v-.377c0-.0806-.0361-.1211-.1074-.1211h-1.4951a.7814.7814,0,0,1-.7666-.7676V15.5093a.7806.7806,0,0,1,.7666-.7671h1.4951a.0953.0953,0,0,0,.1074-.1079v-.377c0-.081-.0361-.1211-.1074-.1211H774.085a.5278.5278,0,0,1-.377-.1548.5353.5353,0,0,1,0-.7675.5278.5278,0,0,1,.377-.1548h2.0195c.0713,0,.1074-.0405.1074-.1216v-.4307a.0954.0954,0,0,0-.1074-.1079q-1.1588.0813-1.71.1079a.5464.5464,0,0,1-.4248-.1616.6077.6077,0,0,1-.1943-.4175.5323.5323,0,0,1,.1543-.4174.6.6,0,0,1,.4111-.1885q2.41-.1209,4.9678-.4844a.5884.5884,0,0,1,.458.1074.55.55,0,0,1,.2285.4043.61.61,0,0,1-.1211.4507.6034.6034,0,0,1-.4033.2358q-.5259.0807-1.6836.2154c-.08.018-.1211.0586-.1211.1211v.5654a.1075.1075,0,0,0,.1211.1216h1.791a.496.496,0,0,1,.5117.39c.0176.0542.0538.063.1075.0269a.5833.5833,0,0,1,.3506-.1074h.6865a.107.107,0,0,0,.1211-.1211q.0263-1.1852.0273-1.8985a.6406.6406,0,0,1,.2012-.478.6735.6735,0,0,1,.4853-.1953.625.625,0,0,1,.4707.1953.66.66,0,0,1,.1885.478q0,.7134-.0264,1.8985c0,.08.0352.1211.1075.1211h2.06a.7458.7458,0,0,1,.5381.2221.7164.7164,0,0,1,.23.5318v.1079q0,2.0331-.02,3.3388t-.1074,2.2823q-.0879.9769-.1827,1.4677a1.9494,1.9494,0,0,1-.3095.7876.8726.8726,0,0,1-.4307.357,2.345,2.345,0,0,1-.6055.0605q-.202,0-1.1718-.0806a.6532.6532,0,0,1-.4707-.2221.7094.7094,0,0,1-.1885-.4917.5509.5509,0,0,1,.1943-.4375.5751.5751,0,0,1,.4512-.1416,7.08,7.08,0,0,0,.7812.0542.3.3,0,0,0,.2286-.1011,1.1194,1.1194,0,0,0,.1826-.4443,6.1634,6.1634,0,0,0,.1338-.9966q.0483-.6526.0742-1.7774.0278-1.1235.0273-2.7666V14.688c0-.0718-.041-.1074-.1211-.1074H782.77c-.081,0-.1211.0356-.1211.1074a27.4073,27.4073,0,0,1-.5459,4.5039,10.58,10.58,0,0,1-1.1377,2.9961.5966.5966,0,0,1-.4169.3027.6941.6941,0,0,1-.5254-.0874.6291.6291,0,0,1-.2823-.3906.087.087,0,0,0-.0478-.04q-.0338-.0139-.0469.0131a.4984.4984,0,0,1-.2959.1348Q776.751,22.4707,774.0713,22.6187ZM775.1885,15.9v.4038a.1071.1071,0,0,0,.1211.1211h.7949c.0713,0,.1074-.04.1074-.1211V15.9a.0953.0953,0,0,0-.1074-.1079H775.31C775.23,15.792,775.1885,15.8281,775.1885,15.9Zm.916,1.9795c.0713,0,.1074-.0405.1074-.1216V17.354c0-.0806-.0361-.1211-.1074-.1211H775.31a.1073.1073,0,0,0-.1211.1211v.4038a.1075.1075,0,0,0,.1211.1216ZM777.666,20.72v.3364a.0955.0955,0,0,0,.1084.108c.5108-.0538,1.01-.108,1.4942-.1617a.4794.4794,0,0,1,.5253.2964.0618.0618,0,0,0,.0469.0337.0646.0646,0,0,0,.0606-.02,9.867,9.867,0,0,0,.9424-2.6387,25.013,25.013,0,0,0,.458-3.9858.095.095,0,0,0-.1075-.1074h-.6464a.57.57,0,0,1-.377-.1348.6426.6426,0,0,1-.2158-.3369c-.0176-.0713-.0537-.0894-.1074-.0537a.4782.4782,0,0,1-.27.081h-1.791a.1072.1072,0,0,0-.1211.1211v.377c0,.0718.041.1079.1211.1079h1.3867a.7805.7805,0,0,1,.7676.7671v2.6391a.7814.7814,0,0,1-.7676.7676h-1.3867a.1073.1073,0,0,0-.1211.1211v.377c0,.0722.041.1079.1211.1079h1.6162a.5386.5386,0,1,1,0,1.0771h-1.6162A.1073.1073,0,0,0,777.666,20.72Zm0-4.82v.4038a.1071.1071,0,0,0,.1211.1211h.7676c.0723,0,.1084-.04.1084-.1211V15.9a.0956.0956,0,0,0-.1084-.1079h-.7676C777.707,15.792,777.666,15.8281,777.666,15.9Zm0,1.4541v.4038a.1075.1075,0,0,0,.1211.1216h.7676q.1084,0,.1084-.1216V17.354c0-.0806-.0361-.1211-.1084-.1211h-.7676A.1073.1073,0,0,0,777.666,17.354Z"/><path d="M723.2686,41.4121a1.4958,1.4958,0,0,1-1.1573-.4849,8.5712,8.5712,0,0,1,0-11.4848,1.4958,1.4958,0,0,1,1.1573-.4849.2525.2525,0,0,1,.2558.1748.28.28,0,0,1-.0537.31,8.73,8.73,0,0,0,0,11.4848.2725.2725,0,0,1,.0479.31A.2568.2568,0,0,1,723.2686,41.4121Z"/><path d="M728.291,39.7964a3.18,3.18,0,0,1-2.1748-.8145,2.5141,2.5141,0,0,1-.9219-1.9458,2.8649,2.8649,0,0,1,.9493-2.08,5.61,5.61,0,0,1,2.6992-1.3536.1377.1377,0,0,0,.1211-.1479V31.5024a.1071.1071,0,0,0-.1211-.1215h-2.5449a.5756.5756,0,0,1-.5655-.5655.5662.5662,0,0,1,.169-.4038.53.53,0,0,1,.3965-.1748h2.5449a.1071.1071,0,0,0,.1211-.1216V29.16a.6733.6733,0,1,1,1.3466,0v.9555a.1071.1071,0,0,0,.1211.1216h2.4639a.5978.5978,0,0,1,.5791.5786.5351.5351,0,0,1-.1748.3975.5654.5654,0,0,1-.4043.168h-2.4639a.1071.1071,0,0,0-.1211.1215v1.7637c0,.063.04.0943.1211.0943.1885-.0181.4854-.0269.8887-.0269a5.2356,5.2356,0,0,1,3.2246.9155,2.6757,2.6757,0,0,1,1.2188,2.1812q0,2.8821-3.2041,3.4741a.6083.6083,0,0,1-.4785-.0942.6861.6861,0,0,1-.2891-.4175.5406.5406,0,0,1,.0869-.4444.6188.6188,0,0,1,.3838-.2558q2.1138-.4307,2.1143-2.1948a1.6017,1.6017,0,0,0-.835-1.3194,3.8994,3.8994,0,0,0-2.2217-.5654c-.4033,0-.7.0088-.8887.0268-.081,0-.1211.045-.1211.1348v3.0025a2.18,2.18,0,0,1-.4511,1.5752A2.2052,2.2052,0,0,1,728.291,39.7964Zm.5654-4.8877a3.9883,3.9883,0,0,0-1.7236.8755,1.7036,1.7036,0,0,0-.5918,1.2519,1.5008,1.5008,0,0,0,.5049,1.0977,1.56,1.56,0,0,0,1.11.4912.8262.8262,0,0,0,.6329-.1953,1.0513,1.0513,0,0,0,.1748-.6934V34.99C728.9639,34.918,728.9277,34.8911,728.8564,34.9087Zm6.49-4.7261q.7939,1.01,1.4267,1.9527a.6026.6026,0,0,1,.0811.4643.632.632,0,0,1-.2695.3975.5774.5774,0,0,1-.4512.08.6217.6217,0,0,1-.3838-.2695q-.6049-.9287-1.3594-1.8711a.5831.5831,0,0,1-.1416-.4443.5319.5319,0,0,1,.2227-.4043.6207.6207,0,0,1,.875.0942Z"/><path d="M739.1172,36.7671a.6278.6278,0,0,1-.4854-.0942.6747.6747,0,0,1-.2959-.4175.6219.6219,0,0,1,.087-.4781.6577.6577,0,0,1,.4111-.2895,35.758,35.758,0,0,0,3.9316-1.05c.0713-.0269.0811-.0581.0274-.0942a11.4706,11.4706,0,0,1-1.6836-1.1309.14.14,0,0,0-.1885-.0137q-.5917.3912-1.4.8213a.6193.6193,0,0,1-.498.0337.7.7,0,0,1-.3907-.3164.5578.5578,0,0,1-.0332-.4712.6406.6406,0,0,1,.3164-.3633,12.4332,12.4332,0,0,0,3.0967-2.1548,1.59,1.59,0,0,1,.4981-.35.0384.0384,0,0,0,.0136-.0268c0-.0088-.0088-.0132-.0273-.0132h-2.5176c-.081,0-.1211.0357-.1211.1074v.9024a.69.69,0,0,1-.7.7.6988.6988,0,0,1-.5049-.2022.6644.6644,0,0,1-.2089-.498v-1.36a.7832.7832,0,0,1,.7675-.7676h4.295c.081,0,.1211-.0356.1211-.1079v-.4306a.7022.7022,0,0,1,.2226-.5249.7307.7307,0,0,1,1.0371,0,.7047.7047,0,0,1,.2217.5249v.4306c0,.0723.04.1079.1211.1079h4.2949a.7814.7814,0,0,1,.7676.7676v1.36a.689.689,0,0,1-.7.7.7.7,0,0,1-.5049-.2022.6669.6669,0,0,1-.208-.498v-.9024c0-.0717-.041-.1074-.1211-.1074H743.749a.0584.0584,0,0,0-.0478.0269.048.048,0,0,0-.0069.0537.3459.3459,0,0,1-.0263.4443c-.0723.09-.126.1528-.1621.1885-.0176.0093-.02.0249-.0069.0474a.0573.0573,0,0,0,.0479.0336h4.376a.53.53,0,0,1,.3769.1548.51.51,0,0,1,.1611.3838,1.242,1.242,0,0,1-.3632.9155,11.6108,11.6108,0,0,1-2.1944,1.71.0766.0766,0,0,0-.0273.0537.0424.0424,0,0,0,.0273.0405,40.9785,40.9785,0,0,0,4.1328,1.0772.6.6,0,0,1,.3975.2759.5784.5784,0,0,1,.0742.478.6193.6193,0,0,1-.3027.4038.6791.6791,0,0,1-.4922.0811l-.8477-.2022c-.081-.0176-.1211.0093-.1211.0811V39.81a.714.714,0,0,1-.2089.5117.6953.6953,0,0,1-.5186.2153h-.2285a.4575.4575,0,0,1-.3438-.1484.4925.4925,0,0,1-.1416-.35c0-.0449-.0263-.0669-.08-.0669h-5.709c-.0537,0-.0811.022-.0811.0669a.4883.4883,0,0,1-.1416.35.4537.4537,0,0,1-.3428.1484h-.2294a.6965.6965,0,0,1-.5186-.2153.7127.7127,0,0,1-.208-.5117V36.6729q0-.1217-.1084-.0943Q739.3315,36.7265,739.1172,36.7671Zm2.3154.5517v1.4141a.107.107,0,0,0,.1211.1211h5.6279a.1069.1069,0,0,0,.1211-.1211V37.3188a.1069.1069,0,0,0-.1211-.121h-5.6279A.107.107,0,0,0,741.4326,37.3188Zm.377-1.2656c-.0088,0-.0137.0069-.0137.0205s.0049.02.0137.02h5.3047a.104.104,0,0,0-.0127-.0406,23.6523,23.6523,0,0,1-2.5987-.8886.3362.3362,0,0,0-.2295,0A23.1506,23.1506,0,0,1,741.81,36.0532Zm.3506-3.5947A8.2505,8.2505,0,0,0,744.22,33.751a.3.3,0,0,0,.2158,0,9.6637,9.6637,0,0,0,2.1133-1.4409c.0186-.0088.0225-.0245.0137-.0469s-.0225-.0337-.04-.0337h-4.1338a.3278.3278,0,0,0-.2158.0674C742.0928,32.3506,742.0879,32.4043,742.16,32.4585Z"/><path d="M754.4463,40.3418a.6734.6734,0,0,1-1.1514-.478V35.6494a.0559.0559,0,0,0-.041-.0137,11.3067,11.3067,0,0,1-.5781,1.4541.3756.3756,0,0,1-.3643.2159.4033.4033,0,0,1-.3769-.2159,1.3108,1.3108,0,0,1-.0264-1.3325,15.1013,15.1013,0,0,0,1.292-3.7837.0843.0843,0,0,0-.0195-.081.0973.0973,0,0,0-.0743-.04h-.66a.5626.5626,0,0,1-.4238-.1753.6366.6366,0,0,1,0-.8618.5641.5641,0,0,1,.4238-.1748h.7275a.1073.1073,0,0,0,.1211-.1211V29.0923a.6734.6734,0,1,1,1.3467,0V30.52a.1069.1069,0,0,0,.1211.1211h.5918a.5663.5663,0,0,1,.4248.1748.6366.6366,0,0,1,0,.8618.5648.5648,0,0,1-.4248.1753h-.4307a.0914.0914,0,0,0-.0674.0269.0624.0624,0,0,0-.0136.0674q.1215.27.3369.7807t.4043.9424c.125.2876.2422.5655.35.835a.9666.9666,0,0,1-.1885,1.0771.3963.3963,0,0,1-.6592-.1211q-.1347-.3771-.4043-1.0771a.04.04,0,0,0-.0273-.0137c-.0088,0-.0127.0093-.0127.0269v5.4668A.6517.6517,0,0,1,754.4463,40.3418Zm1.959-.5186a.61.61,0,0,1-.4981.0811.6254.6254,0,0,1-.4043-.2964.5862.5862,0,0,1-.0674-.4712.6185.6185,0,0,1,.2959-.3769,21.6646,21.6646,0,0,0,3.6631-2.5718A.2713.2713,0,0,0,759.4883,36v-.7676a.0954.0954,0,0,0-.1074-.1079h-2.7334a.5923.5923,0,0,1,0-1.1845h2.7334a.0952.0952,0,0,0,.1074-.108v-.7539a.0954.0954,0,0,0-.1074-.1079h-2.4375a.5226.5226,0,0,1-.3907-.1679.5559.5559,0,0,1-.1611-.3975.5511.5511,0,0,1,.5518-.5518h2.4375c.0712,0,.1074-.04.1074-.1215v-.6729c0-.081-.0362-.1211-.1074-.1211h-2.64a.5743.5743,0,0,1-.5781-.5791.5809.5809,0,0,1,.168-.4175.5479.5479,0,0,1,.41-.1753h1.1318a.0651.0651,0,0,0,.0606-.04.0551.0551,0,0,0-.0068-.0674c-.0635-.1255-.1573-.3052-.2832-.5386a.5156.5156,0,0,1-.0332-.4511.4656.4656,0,0,1,.33-.3028.8788.8788,0,0,1,.5586.02.7336.7336,0,0,1,.41.3569c.0625.1167.1484.28.2558.4912s.18.3525.2159.4243a.1658.1658,0,0,0,.1748.1074H761.05a.1962.1962,0,0,0,.1621-.0942q.3105-.5251.4981-.9019a.8048.8048,0,0,1,.3906-.37.7863.7863,0,0,1,.5254-.0473.525.525,0,0,1,.35.2963.51.51,0,0,1,0,.4576c-.0625.1259-.166.3144-.3086.5654a.0576.0576,0,0,0,.0059.0605.0648.0648,0,0,0,.06.0337h.7949a.5675.5675,0,0,1,.4043.1685.5374.5374,0,0,1,.1738.3975.596.596,0,0,1-.5781.5786h-2.5049c-.081,0-.1211.0361-.1211.1079v.7134a.1071.1071,0,0,0,.1211.1215H763.38a.5528.5528,0,0,1,.5527.5518.5569.5569,0,0,1-.1621.3975.521.521,0,0,1-.3906.1679h-2.3565c-.081,0-.1211.0362-.1211.1079v.7539c0,.0723.04.108.1211.108h2.6534a.5923.5923,0,0,1,0,1.1845h-2.7745v.0137a11.4349,11.4349,0,0,0,.8623,1.36.1049.1049,0,0,0,.16.0136c.2617-.2153.5566-.4892.8887-.8213a.6662.6662,0,0,1,.4453-.2021.6563.6563,0,0,1,.457.1479.58.58,0,0,1,.209.4107.5506.5506,0,0,1-.1543.438,10.541,10.541,0,0,1-1.0508.9692c-.0625.0537-.0664.1079-.0136.1616a9.6265,9.6265,0,0,0,1.2929,1.1309.7237.7237,0,0,1,.2637.4512.6917.6917,0,0,1-.1016.5048.6262.6262,0,0,1-.4179.2828.56.56,0,0,1-.4844-.1211,10.01,10.01,0,0,1-2.3027-2.5987c-.0186-.0088-.0362.0044-.0538.0406v1.2114a2.8282,2.8282,0,0,1-.29,1.6294q-.2886.3229-1.4609.3232-.1069,0-.834-.0268a.6511.6511,0,0,1-.4512-.2022.6732.6732,0,0,1-.1953-.4443.508.508,0,0,1,.1611-.4107.5369.5369,0,0,1,.418-.1547q.5655.027.6592.0268a.673.673,0,0,0,.4785-.1142,1.0764,1.0764,0,0,0,.1006-.5992v-.8213a.0567.0567,0,0,0-.0332-.0473c-.0225-.0137-.0391-.0112-.0479.0068A25.2263,25.2263,0,0,1,756.4053,39.8232Zm.5517-2.7871-.498-.498a.542.542,0,0,1-.1817-.4312.5838.5838,0,0,1,.1954-.4306.6661.6661,0,0,1,.9287.0136q.1743.1613.5117.4981a.6077.6077,0,0,1,.168.4443.63.63,0,0,1-.1954.4444.6428.6428,0,0,1-.4707.1616A.6725.6725,0,0,1,756.957,37.0361Z"/><path d="M766.0322,32.8755a.49.49,0,0,1-.4648.06.4383.4383,0,0,1-.3028-.3432,1.0062,1.0062,0,0,1,.0342-.6192,1.1417,1.1417,0,0,1,.37-.5117,10.5636,10.5636,0,0,0,2.5313-2.76,1.1063,1.1063,0,0,1,.4443-.4175.8806.8806,0,0,1,.5791-.0943l.1075.0137a.3928.3928,0,0,1,.3164.2222.4029.4029,0,0,1,.0068.3838c-.0186.0537,0,.0805.0537.0805h4.3359a.6.6,0,0,1,.5791.5791,1.3762,1.3762,0,0,1-.3769.9961q-.27.2967-.4443.458a.045.045,0,0,0,.0263.0806h2.0469a.7832.7832,0,0,1,.7676.7676v5.44a.7823.7823,0,0,1-.7676.7671h-2.2891a.04.04,0,0,1-.0136.0274,28.3044,28.3044,0,0,1,3.2588,1.2519.5676.5676,0,0,1,.3232.3638.642.642,0,0,1-.041.498.6107.6107,0,0,1-.3838.3233.6593.6593,0,0,1-.5049-.0406,32.0356,32.0356,0,0,0-3.0293-1.2387.7141.7141,0,0,1-.4238-.3907.67.67,0,0,1-.0069-.5654l.0538-.1211q.0542-.1077-.0674-.1079h-2.5987a.0667.0667,0,0,0-.06.0337.0442.0442,0,0,0,.0068.0606l.0264.0673a.7624.7624,0,0,1,.0811.5928.6916.6916,0,0,1-.3633.4575,16.01,16.01,0,0,1-3.1914,1.2388.73.73,0,0,1-.8887-.4307.5739.5739,0,0,1,.0137-.4712.531.531,0,0,1,.3632-.2963,18.55,18.55,0,0,0,3.2051-1.1983.0468.0468,0,0,0,.0137-.0337c0-.0136-.01-.0205-.0273-.0205H767.042a.7823.7823,0,0,1-.7676-.7671V32.8081c0-.0176-.0107-.0312-.0332-.04a.0724.0724,0,0,0-.0605,0,.3776.3776,0,0,0-.0743.0537A.4113.4113,0,0,1,766.0322,32.8755Zm9.169-.5654a.107.107,0,0,0-.1211-.1211h-7.2432a.1077.1077,0,0,0-.1221.1211v.5385a.1075.1075,0,0,0,.1221.1211H775.08a.1068.1068,0,0,0,.1211-.1211Zm0,2.4506v-.5791c0-.0717-.04-.1074-.1211-.1074h-7.2432c-.081,0-.1221.0357-.1221.1074v.5791a.1077.1077,0,0,0,.1221.1211H775.08A.107.107,0,0,0,775.2012,34.7607Zm0,1.9522v-.606a.107.107,0,0,0-.1211-.1211h-7.2432a.1077.1077,0,0,0-.1221.1211v.606a.1079.1079,0,0,0,.1221.1216H775.08A.1072.1072,0,0,0,775.2012,36.7129Zm-6.3682-6.584q-.1215.1479-.66.7944a.0382.0382,0,0,0-.0069.0538.0587.0587,0,0,0,.0479.0268h3.5a.2738.2738,0,0,0,.2021-.0806q.5933-.5382.8623-.8081a.044.044,0,0,0,.0127-.0537.0426.0426,0,0,0-.04-.0268h-3.73A.2188.2188,0,0,0,768.833,30.1289Z"/><path d="M780.0225,35.1782a.1392.1392,0,0,0,.1211-.1484V32.0005c0-.0718-.0411-.1079-.1211-.1079h-.795a.5745.5745,0,0,1-.4306-.1817.6058.6058,0,0,1-.1748-.4375.5623.5623,0,0,1,.1748-.4243.5988.5988,0,0,1,.4306-.1679h.795a.1076.1076,0,0,0,.1211-.1216v-1.44a.69.69,0,0,1,.7-.7.7.7,0,0,1,.5048.2022.6672.6672,0,0,1,.209.498V30.56a.1072.1072,0,0,0,.1211.1216h.5117a.6005.6005,0,0,1,.4307.1679.5659.5659,0,0,1,.1748.4243.61.61,0,0,1-.1748.4375.5762.5762,0,0,1-.4307.1817h-.5117c-.081,0-.1211.0361-.1211.1079v2.5986c0,.0718.0352.0991.1074.0806a1.58,1.58,0,0,1,.2022-.0737q.1479-.047.2285-.0743a.5.5,0,0,1,.4307.0337.4692.4692,0,0,1,.2422.3433.7621.7621,0,0,1-.087.4985.7051.7051,0,0,1-.3837.3228q-.4044.1619-.6192.229a.1731.1731,0,0,0-.1211.1616v2.33a3.3725,3.3725,0,0,1-.2363,1.6426q-.2358.309-1.2451.3095-.1084,0-.7276-.0268a.6242.6242,0,0,1-.4306-.1953.6624.6624,0,0,1-.1885-.4375.48.48,0,0,1,.1553-.3906.5071.5071,0,0,1,.3964-.148c.1885.0088.3956.0132.62.0132q.1743,0,.208-.0943a2.855,2.855,0,0,0,.0342-.6059V36.5513c0-.0713-.0362-.0987-.1075-.0806-.3232.09-.5664.1528-.7275.1885a.5631.5631,0,0,1-.6865-.4981.7322.7322,0,0,1,.1543-.4917.7708.7708,0,0,1,.4375-.29ZM790.31,38.9214a.606.606,0,1,1,0,1.2119h-7.4463a.5611.5611,0,0,1-.4238-.1753.6338.6338,0,0,1,0-.8618.5625.5625,0,0,1,.4238-.1748Zm-5.79-1.75H783.9a.7814.7814,0,0,1-.7676-.7676V29.59a.7814.7814,0,0,1,.7676-.7675h5.6142a.7182.7182,0,0,1,.5323.229.7505.7505,0,0,1,.2217.5385v6.813a.75.75,0,0,1-.2217.5386.7167.7167,0,0,1-.5323.229Zm0-7.0151V32.31a.1068.1068,0,0,0,.1211.1211h4.0664a.1068.1068,0,0,0,.1211-.1211V30.1558a.1069.1069,0,0,0-.1211-.1211h-4.0664A.107.107,0,0,0,784.52,30.1558Zm0,3.5683v2.1543a.107.107,0,0,0,.1211.1211h4.0664a.1069.1069,0,0,0,.1211-.1211V33.7241a.1071.1071,0,0,0-.1211-.1216h-4.0664A.1072.1072,0,0,0,784.52,33.7241Z"/><path d="M792.3428,41.4121a.2546.2546,0,0,1-.249-.1748.2707.2707,0,0,1,.0468-.31,8.73,8.73,0,0,0,0-11.4848.2705.2705,0,0,1-.0468-.31.2546.2546,0,0,1,.249-.1748,1.4991,1.4991,0,0,1,1.1582.4849,8.0822,8.0822,0,0,1,1.6426,2.6323,8.8366,8.8366,0,0,1,0,6.22,8.0812,8.0812,0,0,1-1.6426,2.6323A1.4991,1.4991,0,0,1,792.3428,41.4121Z"/><rect x="674.001" y="25.8667" width="40" height="2.2676"/><path d="M424.83,21.542a.7872.7872,0,0,1-.4639-.3164.9191.9191,0,0,1-.1826-.5586.4329.4329,0,0,1,.1953-.377.4479.4479,0,0,1,.4248-.0542,5.6567,5.6567,0,0,0,1.8037.2964,1.6164,1.6164,0,0,0,1.38-.5791,3.37,3.37,0,0,0,.4385-1.979V12.5479a.7814.7814,0,0,1,.7666-.7676h.0137a.7814.7814,0,0,1,.7675.7676v5.83a3.4971,3.4971,0,0,1-.8076,2.565,3.5182,3.5182,0,0,1-2.5586.8012A7.4217,7.4217,0,0,1,424.83,21.542Z"/><path d="M433.3125,21.394a.7407.7407,0,0,1-1.2656-.5253V12.6152a.8674.8674,0,0,1,.2158-.5859.7841.7841,0,0,1,.5518-.2759,17.9317,17.9317,0,0,1,1.9257-.1079,4.9532,4.9532,0,0,1,2.9219.7139,2.3081,2.3081,0,0,1,.9824,1.979,2.9032,2.9032,0,0,1-.5185,1.7436,2.6775,2.6775,0,0,1-1.42,1.0034.012.012,0,0,0-.0137.0132c0,.0181.0049.0269.0137.0269a3.4471,3.4471,0,0,1,1.0634,1.5889l.8623,2.1816a.4725.4725,0,0,1-.0547.4844.5011.5011,0,0,1-.4306.229,1.0869,1.0869,0,0,1-.6328-.1953,1.0666,1.0666,0,0,1-.4033-.5181l-.8487-2.1816a1.8616,1.8616,0,0,0-.626-.9356,2.7637,2.7637,0,0,0-1.3-.209h-.6865a.1072.1072,0,0,0-.1211.1216v3.1773A.7151.7151,0,0,1,433.3125,21.394Zm.2158-8.3481V16.291a.107.107,0,0,0,.1211.1211h.6865q2.8551,0,2.8545-1.939a1.3848,1.3848,0,0,0-.6123-1.2319,3.6394,3.6394,0,0,0-1.9726-.4106,5.6016,5.6016,0,0,0-.97.08A.1278.1278,0,0,0,433.5283,13.0459Z"/><path d="M441.3779,17.5972a.5824.5824,0,0,1-.4843-.1079.6949.6949,0,0,1-.27-.4444.6352.6352,0,0,1,.1143-.4848.6614.6614,0,0,1,.4238-.2691,19.0945,19.0945,0,0,0,4.9082-1.6025,16.1227,16.1227,0,0,0,4.06-2.72.61.61,0,0,1,.4648-.1817.5906.5906,0,0,1,.4512.2085.6847.6847,0,0,1,.1748.4981.6645.6645,0,0,1-.2158.4716,16.4066,16.4066,0,0,1-3.4463,2.437.1147.1147,0,0,0-.0547.148.9036.9036,0,0,1,.0137.1885v5.7495a.7505.7505,0,0,1-.2217.5386.733.733,0,0,1-1.0645,0,.7508.7508,0,0,1-.2216-.5386V16.291c0-.081-.0362-.103-.1075-.0674A19.3775,19.3775,0,0,1,441.3779,17.5972Z"/><path d="M453.7119,19.4414a.6965.6965,0,0,1-.2627-.4712.6792.6792,0,0,1,.1416-.5117q.4307-.5515,1.2188-1.6089.7866-1.0569.8945-1.1914a18.9333,18.9333,0,0,1,1.6094-2.0874,1.4542,1.4542,0,0,1,1.0439-.377,1.7173,1.7173,0,0,1,1.07.3233,19.7353,19.7353,0,0,1,1.7569,1.7641q2.3555,2.5314,4.0527,4.2544a.74.74,0,0,1,.2295.5386.76.76,0,0,1-.2158.5386.686.686,0,0,1-.5186.229.7069.7069,0,0,1-.5185-.2153q-2.1549-2.1943-4.0928-4.3223-.9156-.9962-1.2324-1.2925a.881.881,0,0,0-.5313-.2964c-.1084,0-.2519.106-.4316.3164s-.502.64-.9688,1.2862q-1.0781,1.5079-2.2353,2.9892a.7362.7362,0,0,1-.4844.2691A.68.68,0,0,1,453.7119,19.4414Zm7.6338-7.6611a.6716.6716,0,0,1,.5254-.0537.719.719,0,0,1,.418.3227q.457.8079.6728,1.2256a.5845.5845,0,0,1,.04.5049.6636.6636,0,0,1-.336.3838.653.653,0,0,1-.5185.0268.7188.7188,0,0,1-.3975-.3364q-.0132-.0271-.2695-.4985t-.3907-.7a.6122.6122,0,0,1-.0605-.4912A.5916.5916,0,0,1,461.3457,11.78Zm1.7578-.1685a.6273.6273,0,0,1,.33-.397.7012.7012,0,0,1,.5381-.0542.6547.6547,0,0,1,.417.337q.4584.8077.6738,1.2251a.6375.6375,0,0,1,.0537.5117.6078.6078,0,0,1-.3369.3906.7079.7079,0,0,1-.5244.04.6524.6524,0,0,1-.4043-.3364l-.6865-1.2119A.6405.6405,0,0,1,463.1035,11.6118Z"/><path d="M468.7373,13.2344a.6707.6707,0,0,1-.3564-.4107.7051.7051,0,0,1,.4785-.8955.7275.7275,0,0,1,.5654.0406q1.5615.7945,2.8672,1.5483a.6738.6738,0,0,1,.3437.4311.728.728,0,0,1-.0742.5518.6683.6683,0,0,1-.4306.3433.7235.7235,0,0,1-.5518-.0738Q470.2725,14.0152,468.7373,13.2344Zm9.291-.1748a.6987.6987,0,0,1,.4375.3027.6773.6773,0,0,1,.1006.5186q-1.5615,6.9067-9.2627,7.8632a.6665.6665,0,0,1-.5254-.1416.7084.7084,0,0,1-.2695-.478.65.65,0,0,1,.1279-.5049.6644.6644,0,0,1,.4512-.2627,10.3685,10.3685,0,0,0,5.3857-2.1137,8.5967,8.5967,0,0,0,2.7334-4.6724.663.663,0,0,1,.31-.417A.6892.6892,0,0,1,478.0283,13.06Z"/><path d="M484.1279,22.0674a.7407.7407,0,0,1-1.2656-.5254v-9.56a.7408.7408,0,1,1,1.4815,0v3.0025c0,.0805.0312.1259.0937.1347a66.93,66.93,0,0,1,6.6787,2.0059.6759.6759,0,0,1,.3975.3638.7184.7184,0,0,1,.0332.5522.6767.6767,0,0,1-.3565.397.6665.6665,0,0,1-.5322.0337,64.6507,64.6507,0,0,0-6.207-1.8985c-.0723-.018-.1074.0088-.1074.0806V21.542A.7164.7164,0,0,1,484.1279,22.0674Z"/><path d="M499.9346,11.1743a.5626.5626,0,0,1,.4238.1753.6335.6335,0,0,1,0,.8613.5626.5626,0,0,1-.4238.1753H497.834a.1326.1326,0,0,0-.1348.1211q-.1611.6732-.3359,1.2119c-.0186.0718.0039.1075.0674.1075h1.9384a.7182.7182,0,0,1,.5323.229.7513.7513,0,0,1,.2216.5385v.3907a9.7823,9.7823,0,0,1-1.4335,4.3559,8.8954,8.8954,0,0,1-3.1309,3.063.7771.7771,0,0,1-.5381.0742.8218.8218,0,0,1-.4717-.29.5159.5159,0,0,1-.1074-.4512.5686.5686,0,0,1,.2822-.3838,8.3706,8.3706,0,0,0,2.7071-2.5849q.0526-.0813-.0411-.1485-.82-.6459-1.7236-1.2519a.1018.1018,0,0,0-.1611.0268,9.71,9.71,0,0,1-.6465.835.5229.5229,0,0,1-.4375.2085.6209.6209,0,0,1-.4512-.2085.7649.7649,0,0,1-.1953-.4986.7911.7911,0,0,1,.169-.5117,12.4028,12.4028,0,0,0,2.289-4.726c.0176-.0713-.01-.1075-.081-.1075h-1.6426a.606.606,0,1,1,0-1.2119Zm-1.2119,3.8106h-1.7364a.16.16,0,0,0-.1621.0942q-.1743.4035-.498.9961c-.0362.0723-.0274.126.0273.1616q.8481.5793,1.669,1.1987a.093.093,0,0,0,.081.02.0718.0718,0,0,0,.0674-.0474,9.3912,9.3912,0,0,0,.6465-2.3022C498.835,15.0254,498.8037,14.9849,498.7227,14.9849Zm3.5957,4.7392a.687.687,0,0,1-1.1719-.4844V12.13a.6865.6865,0,0,1,1.373,0V19.24A.6627.6627,0,0,1,502.3184,19.7241Zm2.0527-8.61a.7138.7138,0,0,1,1.2187.5049v9.1157a2.8844,2.8844,0,0,1-.2832,1.6357q-.2826.3165-1.4668.3164-.2973,0-1.1318-.04a.7247.7247,0,0,1-.4844-.2085.6916.6916,0,0,1-.2158-.478.5632.5632,0,0,1,.1758-.4444.58.58,0,0,1,.457-.1753q.4586.0279.93.0274.4043,0,.4981-.1011a1.0982,1.0982,0,0,0,.0947-.5991V11.6187A.689.689,0,0,1,504.3711,11.1138Z"/><path d="M507.7441,21.313a.6.6,0,0,1-.5791-.5786.5325.5325,0,0,1,.1758-.3975.5636.5636,0,0,1,.4033-.1684H512.43a.1075.1075,0,0,0,.1221-.1211v-.7808c0-.0718-.0411-.1079-.1221-.1079h-3.3526a.7832.7832,0,0,1-.7675-.7676v-3.73a.7121.7121,0,0,1,.23-.5317.7475.7475,0,0,1,.538-.2222H512.43a.1077.1077,0,0,0,.1221-.1211v-.7138c0-.0718-.0411-.1075-.1221-.1075h-4.5508a.5792.5792,0,0,1,0-1.1582H512.43c.081,0,.1221-.0356.1221-.1079v-.39a.7031.7031,0,0,1,.2216-.5254.7321.7321,0,0,1,1.0371,0,.7065.7065,0,0,1,.2217.5254v.39c0,.0723.041.1079.1211.1079h4.5518a.5792.5792,0,0,1,0,1.1582h-4.5518c-.08,0-.1211.0357-.1211.1075v.7138a.1073.1073,0,0,0,.1211.1211h3.3526a.7481.7481,0,0,1,.539.2222.7148.7148,0,0,1,.2285.5317v3.73a.7814.7814,0,0,1-.7675.7676h-3.3526c-.08,0-.1211.0361-.1211.1079v.7808a.1072.1072,0,0,0,.1211.1211h4.6856a.5658.5658,0,0,1,.4043.1684.5351.5351,0,0,1,.1748.3975.5978.5978,0,0,1-.5791.5786h-4.6856c-.08,0-.1211.0361-.1211.1079v.7944a.7047.7047,0,0,1-.2217.5249.7307.7307,0,0,1-1.0371,0,.7013.7013,0,0,1-.2216-.5249v-.7944c0-.0718-.0411-.1079-.1221-.1079Zm1.94-6.2207v.7812a.1069.1069,0,0,0,.1211.1211h2.625a.1077.1077,0,0,0,.1221-.1211v-.7812c0-.0713-.0411-.1074-.1221-.1074h-2.625C509.7236,14.9849,509.6836,15.021,509.6836,15.0923Zm.1211,2.9892h2.625a.1075.1075,0,0,0,.1221-.1211v-.8481a.1075.1075,0,0,0-.1221-.1211h-2.625a.1067.1067,0,0,0-.1211.1211V17.96A.1067.1067,0,0,0,509.8047,18.0815Zm6.9746-3.0966h-2.626c-.08,0-.1211.0361-.1211.1074v.7812a.1073.1073,0,0,0,.1211.1211h2.626a.1069.1069,0,0,0,.1211-.1211v-.7812C516.9,15.021,516.86,14.9849,516.7793,14.9849ZM516.9,17.96v-.8481a.1067.1067,0,0,0-.1211-.1211h-2.626a.1071.1071,0,0,0-.1211.1211V17.96a.1071.1071,0,0,0,.1211.1211h2.626A.1067.1067,0,0,0,516.9,17.96Z"/><path d="M526.5146,17.772a.7814.7814,0,0,1-.7675-.7676V16.52a.7807.7807,0,0,1,.7675-.7671h.4844a.7807.7807,0,0,1,.7676.7671v.4849a.7814.7814,0,0,1-.7676.7676Z"/><path d="M427.3887,39.3931a2.3868,2.3868,0,0,1-1.8985-1.2119,4.9738,4.9738,0,0,1-.8623-2.9624,5.4168,5.4168,0,0,1,1.751-4.1807,6.5,6.5,0,0,1,4.5781-1.6089,5.2167,5.2167,0,0,1,3.7627,1.4272,4.8037,4.8037,0,0,1,1.4883,3.6221,5.7222,5.7222,0,0,1-.9766,3.4468,4.2855,4.2855,0,0,1-2.6728,1.71.6216.6216,0,0,1-.4981-.1075.734.734,0,0,1-.2959-.4443.586.586,0,0,1,.0938-.4712.69.69,0,0,1,.4043-.2832,3.2721,3.2721,0,0,0,1.9258-1.3193,4.3932,4.3932,0,0,0,.6728-2.5313,3.6188,3.6188,0,0,0-.9629-2.5581,3.7451,3.7451,0,0,0-2.4707-1.185c-.0713-.0181-.1162.018-.1347.1074a37.9384,37.9384,0,0,1-.7334,4.2885,10.1807,10.1807,0,0,1-.9492,2.6392,3.9224,3.9224,0,0,1-1.0508,1.2588A2.0069,2.0069,0,0,1,427.3887,39.3931Zm2.41-8.59a4.6243,4.6243,0,0,0-2.7939,1.4947,4.2967,4.2967,0,0,0-1.03,2.9214,3.9493,3.9493,0,0,0,.4785,1.9863q.4776.8415.9356.8413a.7241.7241,0,0,0,.4443-.1817,2.41,2.41,0,0,0,.5117-.68,7.5336,7.5336,0,0,0,.5449-1.2662,17.8335,17.8335,0,0,0,.5323-2.0664q.27-1.2993.4707-2.9555a.1177.1177,0,0,0-.0264-.0742A.0572.0572,0,0,0,429.7988,30.8027Z"/><path d="M440.3545,33.832a.6082.6082,0,0,1-.4981-.0805.6159.6159,0,0,1-.2822-.4038.6061.6061,0,0,1,.08-.4986.6192.6192,0,0,1,.4043-.2827,21.2231,21.2231,0,0,1,4.2812-.646q4.1207,0,4.12,3.4331,0,4.0935-6.3819,4.2686a.5935.5935,0,0,1-.4511-.1685.689.689,0,0,1-.2217-.4512.592.592,0,0,1,.1543-.4443.6015.6015,0,0,1,.4375-.2017,8.2863,8.2863,0,0,0,3.8242-.7944,2.2778,2.2778,0,0,0,1.1982-2.0737,2.0821,2.0821,0,0,0-.6728-1.7168,3.396,3.396,0,0,0-2.1406-.5454A19.2991,19.2991,0,0,0,440.3545,33.832Z"/><path d="M452.4863,31.1528a.61.61,0,0,1-.4443-.1884.6229.6229,0,0,1-.1885-.4581.6132.6132,0,0,1,.1817-.4511.5971.5971,0,0,1,.4375-.1817q4.9013-.027,9.708-.2422a.6118.6118,0,0,1,.4648.168.6268.6268,0,0,1,.209.438.6439.6439,0,0,1-.1621.4712.7081.7081,0,0,1-.4444.2422,9.4267,9.4267,0,0,0-4.5839,1.6025,3.5276,3.5276,0,0,0-1.5284,2.8408,2.8586,2.8586,0,0,0,.9756,2.2823,3.8323,3.8323,0,0,0,2.5918.8413,8.9573,8.9573,0,0,0,1.0235-.0669.6547.6547,0,0,1,.4853.1411.6048.6048,0,0,1,.2422.4243.6943.6943,0,0,1-.1348.4912.5809.5809,0,0,1-.4306.249,9.413,9.413,0,0,1-1.252.0811,5.4,5.4,0,0,1-3.6494-1.1714,3.9332,3.9332,0,0,1-1.36-3.1372,4.1678,4.1678,0,0,1,.8691-2.5586,6.4723,6.4723,0,0,1,2.5244-1.9253.012.012,0,0,0,.0137-.0132c0-.0092-.0088-.0136-.0274-.0136Q455.3277,31.1257,452.4863,31.1528Z"/><path d="M465.8564,39.8911a.5714.5714,0,0,1-.4033-.29.5855.5855,0,0,1-.041-.5049,68.4724,68.4724,0,0,0,2.0869-7.6748c.0176-.0718-.0088-.1074-.081-.1074h-1.2246a.606.606,0,1,1,0-1.212h1.4677a.1263.1263,0,0,0,.1338-.1079q.0543-.2958.1621-.9155a.7267.7267,0,0,1,.2823-.4575.7083.7083,0,0,1,.5117-.1485.6425.6425,0,0,1,.4443.2359.5408.5408,0,0,1,.1211.478c-.0264.18-.0762.4487-.1475.8076-.0185.0723.0137.1079.0938.1079h4.0664a.606.606,0,1,1,0,1.212h-4.3086c-.081,0-.126.0312-.1348.0942a68.1506,68.1506,0,0,1-2.1406,7.9975.76.76,0,0,1-.8887.4849Zm9.7618-1.4809a.5538.5538,0,0,1,.4443.1142.5611.5611,0,0,1,.2285.3975.6317.6317,0,0,1-.1211.4575.5957.5957,0,0,1-.4033.2427,14.3178,14.3178,0,0,1-2.2354.1748,5.5582,5.5582,0,0,1-2.8876-.6529,1.9245,1.9245,0,0,1-1.084-1.6762,2.4381,2.4381,0,0,1,.956-1.7373.5928.5928,0,0,1,.45-.1617.6964.6964,0,0,1,.4512.189.47.47,0,0,1,.1621.39.5652.5652,0,0,1-.1885.3907,1.1992,1.1992,0,0,0-.4853.7944q0,.5523.7138.9019a4.375,4.375,0,0,0,1.9121.35A13.3556,13.3556,0,0,0,475.6182,38.41Zm-4.336-4.2686a.5431.5431,0,0,1-.4306-.1343.6005.6005,0,0,1-.2149-.4043.6283.6283,0,0,1,.1475-.4507.6051.6051,0,0,1,.4179-.2221,38.9,38.9,0,0,1,4.2676-.27.6115.6115,0,0,1,.4385.1753.5747.5747,0,0,1,.1816.4307.5993.5993,0,0,1-.6064.606A37.445,37.445,0,0,0,471.2822,34.1416Z"/><path d="M481.2471,39.3931a2.3868,2.3868,0,0,1-1.8985-1.2119,4.9738,4.9738,0,0,1-.8623-2.9624,5.4168,5.4168,0,0,1,1.751-4.1807,6.4971,6.4971,0,0,1,4.5772-1.6089,5.219,5.219,0,0,1,3.7636,1.4272,4.8037,4.8037,0,0,1,1.4883,3.6221,5.729,5.729,0,0,1-.9766,3.4468,4.2906,4.2906,0,0,1-2.6728,1.71.6216.6216,0,0,1-.4981-.1075.734.734,0,0,1-.2959-.4443.586.586,0,0,1,.0938-.4712.69.69,0,0,1,.4043-.2832,3.2667,3.2667,0,0,0,1.9248-1.3193,4.3857,4.3857,0,0,0,.6738-2.5313,3.6188,3.6188,0,0,0-.9629-2.5581,3.7473,3.7473,0,0,0-2.4707-1.185c-.0722-.0181-.1172.018-.1347.1074a37.9384,37.9384,0,0,1-.7334,4.2885,10.1807,10.1807,0,0,1-.9492,2.6392,3.9224,3.9224,0,0,1-1.0508,1.2588A2.0069,2.0069,0,0,1,481.2471,39.3931Zm2.41-8.59a4.6217,4.6217,0,0,0-2.7939,1.4947,4.2918,4.2918,0,0,0-1.03,2.9214,3.9593,3.9593,0,0,0,.4775,1.9863q.4791.8415.9366.8413a.7241.7241,0,0,0,.4443-.1817,2.41,2.41,0,0,0,.5117-.68,7.5336,7.5336,0,0,0,.5449-1.2662,17.8335,17.8335,0,0,0,.5323-2.0664q.2681-1.2993.4707-2.9555a.1177.1177,0,0,0-.0264-.0742A.0572.0572,0,0,0,483.6572,30.8027Z"/><path d="M497.5391,40.0664a3.6618,3.6618,0,0,1-3.05-1.0976q-.8556-1.0973-.8545-4.0191,0-2.2617.1338-5.332a.7317.7317,0,0,1,.2363-.5186.685.685,0,0,1,.5185-.1948.7036.7036,0,0,1,.4981.2285.6765.6765,0,0,1,.1885.5117q-.1348,3.03-.1348,5.3052a11.1284,11.1284,0,0,0,.1348,1.9253,2.5926,2.5926,0,0,0,.458,1.1514,1.5792,1.5792,0,0,0,.7539.5522,3.6579,3.6579,0,0,0,1.1172.1411q2.5313,0,4.0527-3.4062a.6581.6581,0,0,1,.37-.3638.6939.6939,0,0,1,.5186-.0137.6812.6812,0,0,1,.3838.3638.62.62,0,0,1,.0068.5117,7.7816,7.7816,0,0,1-2.2686,3.1909A4.8644,4.8644,0,0,1,497.5391,40.0664Z"/><path d="M508.916,39.8643q-1.1044,0-2.0332-1.5352a7.0481,7.0481,0,0,1-.9287-3.7158,17.5474,17.5474,0,0,1,.457-3.9859.7349.7349,0,0,1,.3233-.4643.7833.7833,0,0,1,.5527-.1279.56.56,0,0,1,.4238.2558.5968.5968,0,0,1,.0879.4981,17.2979,17.2979,0,0,0-.4316,3.8242A6.0852,6.0852,0,0,0,507.92,37.34q.5508,1.11,1.1035,1.1109.3369,0,.8623-.6533a8.5617,8.5617,0,0,0,1.0635-1.8785.6532.6532,0,0,1,.37-.3769.6914.6914,0,0,1,.5186-.0132.7033.7033,0,0,1,.3906.37.6215.6215,0,0,1,.0137.5186,7.61,7.61,0,0,1-1.5957,2.5381A2.5954,2.5954,0,0,1,508.916,39.8643Zm6.4492-2.1275a18.6762,18.6762,0,0,0-1.44-6.84.6147.6147,0,0,1,0-.5049.5655.5655,0,0,1,.3633-.33.706.706,0,0,1,.539.0269.7645.7645,0,0,1,.3907.3769,18.7858,18.7858,0,0,1,1.5615,7.2847.6255.6255,0,0,1-.1953.498.7.7,0,0,1-.5049.2022.6658.6658,0,0,1-.498-.209A.75.75,0,0,1,515.3652,37.7368Z"/><path d="M524.7773,28.8906a.5629.5629,0,0,1,.4239.1753.6335.6335,0,0,1,0,.8613.5629.5629,0,0,1-.4239.1753h-2.1005a.1326.1326,0,0,0-.1348.1211q-.1611.6732-.3359,1.2119c-.0186.0718.0039.1075.0673.1075h1.9385a.7178.7178,0,0,1,.5322.229.751.751,0,0,1,.2217.5385v.3907a9.7824,9.7824,0,0,1-1.4336,4.3559,8.8952,8.8952,0,0,1-3.1308,3.063.7771.7771,0,0,1-.5381.0742.8218.8218,0,0,1-.4717-.2895.5156.5156,0,0,1-.1074-.4512.5683.5683,0,0,1,.2822-.3838,8.3682,8.3682,0,0,0,2.707-2.5849q.0528-.0813-.041-.1485-.82-.6459-1.7236-1.2519a.1018.1018,0,0,0-.1611.0268,9.71,9.71,0,0,1-.6465.835.5229.5229,0,0,1-.4375.2085.6209.6209,0,0,1-.4512-.2085.7643.7643,0,0,1-.1953-.4985.7911.7911,0,0,1,.1689-.5118,12.4016,12.4016,0,0,0,2.2891-4.726c.0176-.0713-.01-.1075-.0811-.1075h-1.6425a.606.606,0,1,1,0-1.2119Zm-1.2119,3.8106h-1.7363a.1593.1593,0,0,0-.1621.0942q-.1743.4036-.4981.9961c-.0361.0723-.0273.126.0274.1616q.8481.5795,1.6689,1.1988a.0937.0937,0,0,0,.0811.02.0717.0717,0,0,0,.0674-.0474,9.3912,9.3912,0,0,0,.6465-2.3022C523.6777,32.7417,523.6465,32.7012,523.5654,32.7012Zm3.5957,4.7392a.687.687,0,0,1-1.1718-.4843V29.8467a.6865.6865,0,0,1,1.373,0v7.1094A.6621.6621,0,0,1,527.1611,37.44Zm2.0528-8.61a.7139.7139,0,0,1,1.2187.5049v9.1157a2.8844,2.8844,0,0,1-.2832,1.6357q-.2827.3165-1.4668.3164-.2973,0-1.1318-.0405a.7247.7247,0,0,1-.4844-.2085.691.691,0,0,1-.2158-.478.5632.5632,0,0,1,.1758-.4444.58.58,0,0,1,.457-.1752q.4585.0278.93.0273.4043,0,.498-.1011a1.0979,1.0979,0,0,0,.0948-.5991V29.335A.689.689,0,0,1,529.2139,28.83Z"/><path d="M532.5869,39.0293a.6.6,0,0,1-.5791-.5786.5326.5326,0,0,1,.1758-.3975.5636.5636,0,0,1,.4033-.1684h4.6856a.1075.1075,0,0,0,.122-.1211v-.7808c0-.0718-.041-.1079-.122-.1079H533.92a.7832.7832,0,0,1-.7676-.7676v-3.73a.7125.7125,0,0,1,.23-.5317.7479.7479,0,0,1,.5381-.2222h3.3526a.1076.1076,0,0,0,.122-.1211v-.7138c0-.0718-.041-.1075-.122-.1075h-4.5508a.5792.5792,0,0,1,0-1.1582h4.5508c.081,0,.122-.0356.122-.1079v-.39a.7032.7032,0,0,1,.2217-.5254.7321.7321,0,0,1,1.0371,0,.7065.7065,0,0,1,.2217.5254v.39c0,.0723.041.1079.1211.1079h4.5518a.5792.5792,0,0,1,0,1.1582h-4.5518c-.08,0-.1211.0357-.1211.1075v.7138a.1073.1073,0,0,0,.1211.1211h3.3525a.7481.7481,0,0,1,.5391.2222.7152.7152,0,0,1,.2285.5317v3.73a.7814.7814,0,0,1-.7676.7676h-3.3525c-.08,0-.1211.0361-.1211.1079v.7808a.1072.1072,0,0,0,.1211.1211h4.6855a.5655.5655,0,0,1,.4043.1684.5352.5352,0,0,1,.1748.3975.5978.5978,0,0,1-.5791.5786h-4.6855c-.08,0-.1211.0361-.1211.1079v.7944a.7047.7047,0,0,1-.2217.5249.7307.7307,0,0,1-1.0371,0,.7014.7014,0,0,1-.2217-.5249v-.7944c0-.0718-.041-.1079-.122-.1079Zm1.9395-6.2207V33.59a.1069.1069,0,0,0,.1211.1211h2.625a.1076.1076,0,0,0,.122-.1211v-.7812c0-.0713-.041-.1074-.122-.1074h-2.625C534.5664,32.7012,534.5264,32.7373,534.5264,32.8086Zm.1211,2.9893h2.625a.1075.1075,0,0,0,.122-.1211v-.8482a.1075.1075,0,0,0-.122-.1211h-2.625a.1068.1068,0,0,0-.1211.1211v.8482A.1068.1068,0,0,0,534.6475,35.7979Zm6.9746-3.0967h-2.626c-.08,0-.1211.0361-.1211.1074V33.59a.1073.1073,0,0,0,.1211.1211h2.626a.107.107,0,0,0,.1211-.1211v-.7812C541.7432,32.7373,541.7031,32.7012,541.6221,32.7012Zm.1211,2.9756v-.8482a.1068.1068,0,0,0-.1211-.1211h-2.626a.1072.1072,0,0,0-.1211.1211v.8482a.1072.1072,0,0,0,.1211.1211h2.626A.1068.1068,0,0,0,541.7432,35.6768Z"/><rect class="d" x="243.6855" y="24.166" width="40" height="5.6689"/><rect class="a" x="243.6855" y="25.3003" width="3.543" height="3.4014"/><path class="a" d="M273.56,28.7017h-6.583V25.3h6.583Zm-13.1651,0h-6.583V25.3h6.583Z"/><rect class="a" x="280.1426" y="25.3003" width="3.543" height="3.4014"/><rect class="e" x="288.6855" y="24.166" width="40" height="5.6689"/><rect class="a" x="288.6855" y="25.2998" width="3.543" height="3.4014"/><path class="a" d="M318.56,28.7012h-6.583V25.3h6.583Zm-13.1651,0h-6.583V25.3h6.583Z"/><rect class="a" x="325.1426" y="25.2998" width="3.543" height="3.4014"/><rect class="f" x="333.6855" y="24.166" width="40" height="5.6689"/><rect class="a" x="333.6855" y="25.3003" width="3.543" height="3.4014"/><path class="a" d="M363.56,28.7017h-6.583V25.3h6.583Zm-13.1651,0h-6.583V25.3h6.583Z"/><rect class="a" x="370.1426" y="25.3003" width="3.543" height="3.4014"/><rect class="g" x="378.6855" y="24.166" width="40" height="5.6689"/><rect class="a" x="378.6855" y="25.3003" width="3.543" height="3.4014"/><path class="a" d="M408.56,28.7017h-6.583V25.3h6.583Zm-13.1651,0h-6.583V25.3h6.583Z"/><rect class="a" x="415.1426" y="25.3003" width="3.543" height="3.4014"/></svg>