<svg xmlns="http://www.w3.org/2000/svg" viewBox="0 0 261.9283 58.657"><defs><style>.a{fill:#14396b;}.b{fill:#2d70bc;}.c{fill:#259332;}.d{fill:#d3060d;}.e{fill:#e07b00;}.f{fill:#19663b;}</style></defs><rect class="a" x="-5.7242" y="13.4691" width="14.9161" height="3.4288" transform="translate(-13.4545 16.8747) rotate(-89.8387)"/><path class="a" d="M15.0932,18.9609l.0293-11.2095-3.432-.01-.0293,11.2127c0,1.83-.2568,6.7275-3.3444,8.4989a20.4368,20.4368,0,0,1-6.8055,2.5253c0,.6142-.0034,2.06-.0034,2.06,3.0747-.1657,9.2334-1.7354,11.4371-4.4557,2.1937-2.7106,2.1449-5.3139,2.1482-8.6224"/><path class="a" d="M20.784,8.3463l-1.7713.8872c1.6479,1.4234,4.1211,6.0418,4.6509,8.4045,1.5373-.9391,3.6759-2.4115,3.6759-2.4115a19.4459,19.4459,0,0,0-6.5555-6.88"/><path class="a" d="M36.6216,7.9269c-.5363,2.0085-2.7009,11.9343-6.6724,16.01-3.9163,4.0138-6.5229,4.9823-9.0645,5.7981,0,.8287-.0031,2.3433-.0031,2.3433a25.1805,25.1805,0,0,0,13.4551-7.9853c2.613-3.24,5.6-11.0177,6.4579-16.1561Z"/><path class="a" d="M81.05,19.6856A36.6857,36.6857,0,0,0,70.9974,15.337l.02-7.5465-3.4321-.01-.0586,24.0926,3.4256.0065.0391-14.2612C74.4,19.1949,78.2125,22.4612,81.03,25.2205c0,0,.02-3.78.02-5.5349"/><path class="a" d="M105.23,26.995a62.0626,62.0626,0,0,1-9.5713,1.144,26.03,26.03,0,0,1-5.1969-.273,1.4436,1.4436,0,0,1-1.0432-1.495c0-.3022.01-3.1656.0195-6.5489a67.6929,67.6929,0,0,0,7.6408-1.9338,61.5953,61.5953,0,0,0,6.4676-2.535l.01-4.0625a85.2839,85.2839,0,0,1-8.9052,4.4168c-3.2175,1.2447-3.9455,1.4983-5.2065,1.898.0129-4.8134.0228-9.8055.0228-9.8055L85.9542,7.797s-.0456,17.7778-.0488,19.0842c-.0065,1.3033-.2048,2.8633,1.7453,3.7149,1.95.8482,5.9182.8547,7.81.8645a90.4086,90.4086,0,0,0,9.7695-.5656Z"/><path class="b" d="M55.3808,0c.1074,0,.0781.078.1528.104a.1887.1887,0,0,1,.2632-.0065c.117-.0519.3219-.1266.3608.0488.15-.0423.3218-.1463.3737.0487.1139-.0714.3089-.1006.3413.0488a1.0373,1.0373,0,0,1,.4-.0228.2747.2747,0,0,1,.0293.1106c.1074-.0487.3219-.078.3219.0877a.66.66,0,0,1,.3379.0065.3455.3455,0,0,0,.01.0812c.0714-.0031.1495-.01.2275-.013.1852-.0454.4257-.1722.6207-.1071l.01.01a1.5779,1.5779,0,0,1-.221.3738,2.2386,2.2386,0,0,0-.1561.3867c-.0129.0521-.0389.0975-.0519.1463.117.1073.0032.4323-.0975.52v.02c.1787.0682-.0293.3087-.104.3608.1463.1917.0389.24-.0879.3963a1.23,1.23,0,0,1,.0846.0976c.0326.1169-.1722.2372-.234.286.1787.1852-.0552.221-.1364.3608.0812.0845-.0262.2243-.1367.2308a.2489.2489,0,0,1,.0521.0682c-.0194.1072-.1268.1691-.195.2176.1917.1561-.1073.2635-.208.3413.1559.1561-.1429.2926-.2892.2926.0552.0942-.02.2015-.1463.1917V4.69a.1556.1556,0,0,0,.026.0586.621.621,0,0,1-.299.1266c.0065.0195.0194.0488.0259.0682a.4734.4734,0,0,1-.3315.0975l-.0064.01c.01.0163.0163.0357.0259.0552a.7285.7285,0,0,1-.2988.078h0c.0389.0976-.2342.1267-.3252.14a.177.177,0,0,0,.01.039,1.1614,1.1614,0,0,1-.5135.0682c.01.0195.0163.0358.0163.0358a.6755.6755,0,0,1-.3867.0293.2854.2854,0,0,1-.0033.0422c-.104.0195-.2047.0291-.3087.039a.0871.0871,0,0,1,.0065.0292.6463.6463,0,0,1-.2991.0293.0567.0567,0,0,0-.01.026,3.2946,3.2946,0,0,1-1.9044-.4583,4.9879,4.9879,0,0,0-.845-.4063,4.5113,4.5113,0,0,0-.9589.4486c-.0975.0389-.1169-.1691-.2015-.13-.01-.0456-.0129-.0878-.0194-.1333.3379-.1592.6694-.3218,1.0107-.481-.026-.2243-.104-.416-.1235-.663a2.9355,2.9355,0,0,1,.6987-1.9306q.0732-.1608.1561-.3216a.3533.3533,0,0,1,.052.0031c.0292-.0682.1462-.2827.2308-.3022a.2586.2586,0,0,0,.0324.02c.0293-.0488.27-.325.3283-.3315a.1631.1631,0,0,1,.0293.0454h.0032c.0456-.0682.2243-.2925.312-.2892a.3245.3245,0,0,1,.0259.0455C53.0668.77,53.07.77,53.07.77c.0293-.0779.2212-.2763.3187-.2729a.4925.4925,0,0,1,.0324.0552c.0781-.0586.1821-.1853.3022-.195.0163.013.0293.0324.0488.0488.0292-.0651.182-.2016.2827-.1756.0163.02.0163.0324.0293.0423.1073-.0228.3413-.3055.4193-.0683.0877-.0422.1528-.13.2729-.1169.0163.0259.0261.0487.0391.0682h0a.3244.3244,0,0,1,.25-.0682c.0031.0194.013.0454.0194.0682A1.5913,1.5913,0,0,1,55.3808,0"/><path class="c" d="M45.7834,1.7942a.1208.1208,0,0,0,.0488.0064c.02.052.0487.1072.0715.1593a.9842.9842,0,0,1,.6045-.1105c.0164.0714.0293.1463.0488.2177a.7616.7616,0,0,1,.5428-.01c.0032.0682.01.1365.02.2112a.6626.6626,0,0,1,.4809.0975.7805.7805,0,0,1-.0423.2827h.0033a.7519.7519,0,0,1,.4778.091c-.01.0747-.013.1528-.0293.234a.7006.7006,0,0,1,.4842.2211.4394.4394,0,0,1-.0747.1982,5.0889,5.0889,0,0,1,.8354.4c-.0879.104-.2407.1237-.3478.2015-.11.0814-.1561.2471-.2827.3219.1624.078.104.3151-.0488.38,0,0,0,.0033.0065.01a.1838.1838,0,0,1,.117.1266.928.928,0,0,1-.1756.2536l.01.01a.1572.1572,0,0,1,.1007.1105c-.0682.0749-.1364.1527-.2047.2243.0358.0358.0942.0747.104.1268-.1073.0682-.2113.1333-.299.2015v.0032c.0358.0456.0651.0747.0975.1234-.1561.0619-.3153.14-.4681.2147v.0032c.0262.0454.0488.0845.0749.1234-.1171.0391-.2341.0814-.3478.117v.01a.2489.2489,0,0,1,.0358.0716c-.1171.0487-.2308.0877-.3478.1364.104.0975-.1657.1917-.2762.1852a.7238.7238,0,0,0,.0389.0975,3.2554,3.2554,0,0,1-.4388.1333.9236.9236,0,0,1,.0293.0975,2.313,2.313,0,0,1-.6142.2145c.02.0488.039.0976.0519.14a.8855.8855,0,0,1-.5005.2047l.0521.078c-.0521.1365-.325.117-.4193.2114.0064.0291.0163.0584.0261.0908a1.1558,1.1558,0,0,1-.5169.1463c.02.0163.0325.0456.0586.0586-.0293.1234-.27.0454-.3576.0389.01.0163.0163.0358.026.0488-.0779.0456-.25-.01-.312-.0423a.2741.2741,0,0,0,.0228.0586h-.01c-.1171.0519-.2959-.0877-.3934-.1268h-.0065a.1.1,0,0,1-.01.0293c-.1561-.0065-.2277-.1365-.3641-.1821a.03.03,0,0,0-.01.0195c-.1332,0-.2341-.1072-.3283-.1658a3.1834,3.1834,0,0,0-.8807-.3932,3.0741,3.0741,0,0,0-.5623.4713c-.039.0487-.0812.0877-.1268.1429-.0877.0228-.195-.2534-.195-.3314a3.9789,3.9789,0,0,0,.7411-.65c.0065-.1365.0065-.2762.0065-.4127a4.5352,4.5352,0,0,0,.0032-.7866.7906.7906,0,0,1-.0584-.3022.0921.0921,0,0,0,.0356.01c-.0162-.1072-.0942-.2926-.039-.39a.165.165,0,0,1,.0325.02A1.2141,1.2141,0,0,1,42,4.7094h.0033a.2478.2478,0,0,0,.0356.0259c-.0259-.1266.0132-.3769.1074-.4095.0129.0132.0228.0326.0292.0391a.7026.7026,0,0,1,.13-.5039.6244.6244,0,0,1,.0553.0391c.0324-.14.0876-.39.195-.468.0194.02.0389.0357.0617.0585a.6367.6367,0,0,1,.27-.4.317.317,0,0,0,.0617.0877.862.862,0,0,1,.3218-.4484.4952.4952,0,0,0,.0584.0778c.1138-.1559.2049-.403.4064-.4777a.4572.4572,0,0,0,.0682.1073.53.53,0,0,1,.3217-.286c.02.0389.0391.0812.0585.12l.01-.01c.0325-.0812.3347-.351.4713-.3055a.6947.6947,0,0,1,.0488.1169c.0487.01.3769-.26.5265-.2111a1.2781,1.2781,0,0,0,.0389.1333,4.0325,4.0325,0,0,1,.5037-.2015"/><path class="d" d="M118.4741,1.42a1.0245,1.0245,0,0,1,.1528.039.3192.3192,0,0,1-.0162.091c.01,0,.01.0065.01.0065a1.1407,1.1407,0,0,1,.6792-.0553.3407.3407,0,0,0,.013.0975c.1919-.0326.4583-.13.5135.0975a1.6811,1.6811,0,0,1,.5851.039.2677.2677,0,0,1-.01.0877.718.718,0,0,1,.3737-.0618c0,.0228.0067.0521.0067.0781.12-.0454.2436-.0877.3639-.1235,0,0,.01.039.0195.0649.1073,0,.2536-.1624.3315-.117a.1928.1928,0,0,0,.0064.0488c.12-.117.4292-.0779.5657-.1624a.0283.0283,0,0,1,.0194.0065c.0682.3022-.2795.2762-.37.4907.01.0195.013.0293.02.0454-.0456.0814-.1658.1268-.2406.1854a.2013.2013,0,0,0,.0552.0324c-.0356.0975-.0747.1852-.1136.27-.0293.0812-.013.1657-.0423.2339.0389.01.0812.0132.12.02a.5578.5578,0,0,1-.1172.4127c.02.0259.0553.0487.0684.0747-.0391.13-.0684.403-.1885.4616.1885.1818-.026.3086-.1431.429a.6615.6615,0,0,0,.0456.0975c-.1235.1071-.2113.2794-.3673.3477a.7171.7171,0,0,1,.0455.1105.5927.5927,0,0,1-.3673.1951h0a.4236.4236,0,0,0,.0293.0389.6931.6931,0,0,1-.3836.3771l.0034.01a.29.29,0,0,1,.0487.0586c-.0617.1072-.2048.13-.2665.2373.0129.01.0292.0259.0487.0389-.0877.0682-.2794.234-.3965.234.01.0293.0261.0586.0357.0877a.7234.7234,0,0,1-.2892.0943c.0065.01.01.0325.0195.0488-.091.0324-.1592.1007-.2534.1268l.0065.0031c.1852.1756-.338.2731-.4453.2731a.0338.0338,0,0,0-.01.0195c.0292.0163.0292.0845.0163.1138a1.7154,1.7154,0,0,1-.6013.0486.2329.2329,0,0,1-.0194.0814,1.3407,1.3407,0,0,1-.4681.0065v.0715c-.1559-.0131-.3152-.0293-.4713-.0326a.5733.5733,0,0,0,.0034.078c-.1691.0975-.3252-.0487-.4974-.0293-.01.0195-.01.0293-.0195.0488-.2145-.0682-.4225-.1429-.637-.2112h-.0163a.1434.1434,0,0,1,.0065.0488c-.0877,0-.221-.1463-.3216-.0975.01.01.0194.0161.0228.0259h-.0034c-.1755-.0487-.3478-.0943-.5167-.1462a.0463.0463,0,0,0-.0066.0228c-.1007.01-.1689-.0814-.2534-.117-.1268-.0423-.2633-.0781-.39-.1073,0,.0163,0,.0259.0065.0292-.0975.02-.4583-.2048-.5426-.2536-.0423-.0422-.0716-.0876-.12-.14-.1268,0-.4289.2763-.5915.325-.0618-.0617-.1463-.12-.2177-.1885.0683-.0065.13-.0163.1852-.0195.2047-.065.5786-.27.3932-.5558-.0617-.0552-.13-.1169-.195-.182-.0908-.0877-.1657-.2534-.2859-.3152h.0227c-.0291-.0975-.1852-.3088-.117-.4388a.0866.0866,0,0,1,.0456.01,2.01,2.01,0,0,0-.0586-.3185l.013-.013a.0183.0183,0,0,1,.0195,0c-.0195-.0747-.0683-.312-.0195-.38.0195,0,.026.01.0487.0129-.0227-.1006-.0227-.4972.0879-.4388.0454-.12.026-.2827.1235-.37a.0724.0724,0,0,0,.0389.02,1.8309,1.8309,0,0,1,.234-.3737.2745.2745,0,0,1,.0617.01c.0293-.0944.1333-.28.2212-.3089.0031.0163.0129.0163.0226.0293.0879-.091.2015-.2762.3283-.312a.6631.6631,0,0,1,.0617.0389A.8313.8313,0,0,1,114.6,1.95c.0228.0259.0389.0585.0586.0845a2.63,2.63,0,0,1,.4484-.2827.256.256,0,0,0,.0586.0714.66.66,0,0,1,.4679-.1852.5747.5747,0,0,0,.0325.078.9362.9362,0,0,1,.5233-.14c.013.039.0195.0812.0325.12a1.4609,1.4609,0,0,1,.5168-.156V1.547a.5417.5417,0,0,1,.02.1074h.01a.8022.8022,0,0,1,.4844-.1235.378.378,0,0,0,.0032.0649,1.4255,1.4255,0,0,1,.4484-.1429c.01.0357.02.0649.0456.078a.472.472,0,0,1,.3932-.0975c.01.0356.0195.0649.0293.0942.104-.0358.2047-.0682.3022-.1072"/><path class="e" d="M109.8842,7.0982a.2615.2615,0,0,0-.0324-.0292.72.72,0,0,1,.3152-.0911c.01-.0065.01-.0163.0261-.0259a.101.101,0,0,1-.0261-.0228c.1171-.1235.2211-.0942.3381-.1917a.0352.0352,0,0,1-.01-.0228c.2145-.1138.6077-.0456.793-.27-.1755-.13-.2178-.1008-.4-.0715-.0584.01-.12-.0195-.1884-.01-.01-.01-.0358-.0292-.0552-.0487a1.0787,1.0787,0,0,1-.3219,0V6.2662c-.1073-.0293-.3249.0488-.3348-.1236a.8684.8684,0,0,1-.2827-.0909.0543.0543,0,0,0,.0293-.0487c-.0975-.0651-.195-.01-.299-.0651V5.9346c.0259-.0195.0259-.0291.0259-.0291-.1169-.1333-.2729-.0553-.3965-.1561a.2291.2291,0,0,1,.0065-.0454c-.0779-.0911-.1917,0-.2729-.0488,0-.013.0195-.0423.0195-.0586-.0877-.078-.2438-.0519-.3283-.14a.164.164,0,0,0,.02-.0682c-.1073-.0584-.2049.013-.312-.0161a.1147.1147,0,0,1,.0259-.0716c-.0975-.0975-.2339-.0293-.3379-.0845a.7877.7877,0,0,1,.0259-.091,1.0941,1.0941,0,0,0-.3088-.0293h-.013a.1276.1276,0,0,0,.02-.0682c-.0942-.0683-.2436.01-.3476-.0162a.14.14,0,0,1-.02-.0814c-.0778-.0648-.1787.0521-.2664-.0259,0-.0228.01-.0423-.01-.0617h-.0584s0-.026-.0065-.026a2.0124,2.0124,0,0,1-.312,0c.01-.0293.01-.0423.0195-.0682-.0034-.0034-.0034-.01-.01-.01a2.1158,2.1158,0,0,0-.2568.0259.2115.2115,0,0,0-.026-.0682c-.0715.02-.1561.0682-.2145.0324V4.6769a1.1638,1.1638,0,0,1-.2437.0519c-.01-.0129-.01-.0324-.02-.0519-.0682.01-.13.0618-.1885.0618-.0065-.0228-.01-.0423-.02-.0683-.0781.0162-.1756.117-.2633.0455a.2111.2111,0,0,0-.01-.0585c-.078-.02-.2339.0813-.312.0488-.0487-.0261-.0195-.0684-.0454-.1073-.091-.02-.2178.1364-.3055.0812a.2357.2357,0,0,0-.0163-.0488c-.0618-.013-.1268.0553-.1951.0846a.4308.4308,0,0,0-.0389-.0585h-.013c-.1234.0585-.195.1788-.3185.1982a.0893.0893,0,0,0-.0228-.0682.8335.8335,0,0,0-.26.1365h-.0033c0-.0293-.0065-.052-.0293-.0618-.0747.0293-.1528.12-.2242.1561h-.0066c.0066-.0293.0066-.0456-.01-.0586-.01,0-.0194,0-.0228.0034-.0357.0389-.0682.0778-.1071.1136-.01-.0161-.0293-.0358-.0391-.0487h-.01c-.104.0682-.1722.1657-.2829.1852a.0641.0641,0,0,0-.0194-.0455c-.0942.0455-.117.1951-.234.234-.01-.01-.026-.013-.0293-.0226-.0584.0584-.104.117-.1559.1787h-.0293a1.0252,1.0252,0,0,1-.1561.1917c-.01-.01-.0161-.01-.0356-.0195h0c-.0131.0325-.0326.0617-.0487.1072-.0293.0487-.0781.0586-.1009.1008-.0293.0358-.0389.1333-.0877.1559-.0845.0488-.117.2212-.1918.2926a2.0066,2.0066,0,0,0-.53,1.03.4029.4029,0,0,0,.0682.3022.45.45,0,0,0,.0683.0683.5066.5066,0,0,0-.039.0682c-.0456.1008-.1462.4225.0584.4712.0391-.013.0488-.0487.0716-.0812a3.2709,3.2709,0,0,0,.5623.5591c.0617.0683.1268.1365.1852.2047a1.25,1.25,0,0,1,.2243.1463c.0877.0454.1885.0942.273.1429.0488.0228.0618.0682.0909.0879.0163-.01.02-.02.0293-.0293a1.4857,1.4857,0,0,0,.27.117.4687.4687,0,0,0,.0781.0682l.0129-.0163c.0683.0358.0944.1138.1561.1431a.2077.2077,0,0,1,.0291-.0391c.0846.0228.1074.13.1854.1659.0942-.0586.143.1266.2145.1592a.15.15,0,0,0,.0488-.0422c.0975.0422.195.0682.2892.1007a.1782.1782,0,0,0,.0324-.0488.5972.5972,0,0,1,.1333-.0032c.0812.0292.3055.13.3608.0488a.1038.1038,0,0,0-.0065-.0488c.0877-.0163.2438.0975.3185.0714V9.9647h.013c.0747.0065.2406.0682.299.0293V9.9322h.0033c.0942.013.195.1105.2794.0618.01-.0325-.01-.0618.01-.091.0682-.0065.13-.0065.208-.0163.0651.0163.0975.0487.1624.0261.02-.0391,0-.0456.02-.0749.0877-.01.2438.0358.3151,0,0,0,0-.013.01-.013a.288.288,0,0,1-.013-.0779c.0779-.065.3055.0488.3346-.0585a.1391.1391,0,0,0-.0291-.0747c.0942-.0976.1657-.0488.26-.0293.0228-.01.0488-.02.0812-.0325.0065-.01.0065-.0163.02-.0261-.02-.0291-.0392-.0488-.0521-.0682a.0231.0231,0,0,1,.0129-.02,1.7768,1.7768,0,0,1,.2244-.0716V9.36c0-.013-.01-.0292-.01-.039.0683-.0228.1658-.0195.2244-.0715a.2167.2167,0,0,0-.01-.0683c.1237-.1071.26-.078.3382-.2209a.7685.7685,0,0,0-.0651-.0877c.0682-.0488.27-.0586.2633-.1463a.4385.4385,0,0,1-.0618-.0521c.0781-.1917.2664-.117.3348-.2827l-.0033-.01c-.026-.01-.0358-.0162-.0454-.039.0584-.0747.1852-.1071.2241-.195-.0226-.0161-.0389-.02-.0487-.0358.0748-.0422.182-.0487.2341-.1169a.0622.0622,0,0,0-.0132-.0195c.1107-.1105.2179-.0586.3317-.1593a.1119.1119,0,0,0-.0456-.0487.4052.4052,0,0,1,.0358-.039c.078-.0487.2762-.1169.3153-.1918a.14.14,0,0,1-.0391-.0584c.0878-.13.26-.1074.3478-.1951,0,0,.0033-.01.01-.01a.23.23,0,0,0-.0391-.0324c.117-.1268.1657-.0488.2567-.143"/><polygon class="a" points="42.052 17.034 42.049 20.037 63.948 20.095 63.951 17.092 42.052 17.034"/><rect class="a" x="139.6121" y="8.7512" width="3.0031" height="21.9078" transform="translate(120.9551 160.7547) rotate(-89.8159)"/><path class="a" d="M123.476,27.6613c.741-3.4549,1.9761-10.54,2.0345-11.2843-3.7148-.01-14.8169,0-14.8169,0l-.02,2.7041,10.7057.0065s-.5493,5.8891-.9944,8.5639l-12.5811-.0325-.01,2.7788,21.8922.0521.01-2.7789Z"/><path class="f" d="M182.9326,22.7829c-1.5617-1.4234-5.2083-4.7483-10.6992-4.7645-.0944,0-.2016.01-.3024.01a9.2123,9.2123,0,0,0-3.7863-2.9445l-.3185-.15-.1153-.0584a6.3862,6.3862,0,0,1-1.0319-.5916c.0228-.0682.1007-.1559.4664-.3543.4826-.2534,2.7447-.8644,6.5666-.299l.9653.1431.0147-5.3691-.8044-.0423A30.5713,30.5713,0,0,1,163.46,4.8362l-1.2853-.79-.0067,1.5015-.0031,2.5351.2046.2436a16.1409,16.1409,0,0,0,3.0845,2.3174c-2.0346,1.0921-3.0845,2.3692-3.0876,3.8221a2.9841,2.9841,0,0,0,.0422.4484c.2031,1.4853,1.6315,2.3238,2.787,3.0031.3492.2048.6727.4.905.5656a6.3416,6.3416,0,0,1,.7215.6466,30.48,30.48,0,0,0-4.264,1.9306c-2.1108,1.1765-3.8513,2.3856-4.7971,3.0324,0,0-.5265.3574-.5428.38a3.1358,3.1358,0,0,1-.4355-.6175l-.46-.77-2.9883,1.9825.3185.66a48.002,48.002,0,0,0,2.5041,4.524l.2243.3608a1.4251,1.4251,0,0,0,1.1358.7638,1.8251,1.8251,0,0,0,1.5942-.8515c.4827-.6012,1.7956-2.3693,3.13-3.9358l-.01,2.8372.8678.27c2.3693.7607,3.52,1.1733,3.671,2.3207l.0975.7052.7216.026c2.7934.0878,4.7483-.8873,5.8241-2.8958a8.1087,8.1087,0,0,0,1.0253-3.9683,14.7263,14.7263,0,0,0-.9084-4.7484c-.052-.1429-.1105-.27-.156-.41,2.0247,1.1993,4.1242,4.43,6.5293,7.6344l.77,1.0141.6387-1.1018c.7655-1.2936,2.1434-3.9976,2.1955-4.1146l.299-.5849Zm-14.45,4.3779a14.886,14.886,0,0,1-5.0864-1.274l-.4-.1593c.4436-.4745.8678-.9134,1.2382-1.235l.0261-.02a23.8917,23.8917,0,0,1,4.0446-3.2111,7.0839,7.0839,0,0,1,.5752,2.0378,13.1127,13.1127,0,0,1,.1024,1.57,3.5913,3.5913,0,0,1-.5,2.2914"/><path class="f" d="M204.9906,16.5038a12.3975,12.3975,0,0,0-5.699-.4062c3.0989-2.5577,7.3565-6.1036,7.3565-6.1036l.013-4.3128-.9344.0975L188.7956,7.5921l-.0146,5.288s6.2059-1.2286,9.0286-1.7844c-3.6482,3.3053-10.587,9.5747-12.41,11.2517l-.53.4876,3.034,4.5988.7312-.9134c.0293-.0422,3.6612-4.8067,8.3461-6.5812,2.5351-.9686,5.049-.93,6.7276.0779,1.0319.64,1.5358,2.1256,1.5325,3.9976a4.2144,4.2144,0,0,1-2.5676,3.79,6.0449,6.0449,0,0,0-5.9459-5.135,5.7733,5.7733,0,0,0-5.894,3.237,4.3867,4.3867,0,0,0,1.2936,5.1481c2.2993,2.0281,6.18,2.496,11.2012,1.3358.0764-.0194,6.9763-1.677,7.2347-7.5563.0048-.2049.0178-.403.0178-.6046.0113-5.07-2.8064-6.7569-5.59-7.7254m-10.94,10.0329c.1821-1.0594,1.9631-1.6152,3.1883-.2795a4.129,4.129,0,0,1,.9523,2.35c-2.2832.4647-4.3795-.7052-4.1406-2.07"/><path class="f" d="M235.0862,8.8728c-2.1028.5231-4.37,1.05-6.7049,1.5177a26.8958,26.8958,0,0,1-1.222-4.8232l-.1089-.7117-.7313-.0031-5.1773-.01.2714,1.053a43.5791,43.5791,0,0,0,2.119,5.3821,85.59,85.59,0,0,1-10.0443,1.1114l-.408.0521.0033,4.3063,1.4333-.0586c1.6722-.1364,6.2857-.64,10.9982-1.2545.5882,1.16,1.175,2.2686,1.7111,3.1948a12.7348,12.7348,0,0,0-7.4831.2276,7.1151,7.1151,0,0,0-4.646,8.9084c1.2577,3.9617,6.0694,4.6248,7.883,4.8783a51.4987,51.4987,0,0,0,10.42-.1658l-.0505-5.7071-1.3308.13a62.6839,62.6839,0,0,1-6.9665.7117c-4.9433.2633-5.48-1.2187-5.6014-2.626a3.5942,3.5942,0,0,1,.7018-2.3011,4.9908,4.9908,0,0,1,3.7441-1.3422c2.1809.1755,6.2889,2.6488,8.2829,4.1437l3.5879-3.9033a26.9135,26.9135,0,0,1-5.4016-6.825,47.5506,47.5506,0,0,0,7.4476-1.469l.0065-.0781.0146-4.9661Z"/><path class="f" d="M260.7665,26.4c-14.0988,2.1677-15.888-.0488-16.1073-.78-.8337-2.8373,5.1367-4.8751,7.3906-5.6454l.546-.1852c1.8915-.6694,6.62-1.6054,8.1707-1.9174l-.005-5.2976a57.4383,57.4383,0,0,0-9.5877,2.7494,38.7,38.7,0,0,1-.2551-9.4641l.0634-.9068h-.9035l-5.1122-.01.0389.8938a61.45,61.45,0,0,0,1.6054,11.4565c-.104.0521-.2015.1073-.2988.1592-5.4861,2.8633-7.7758,6.8122-6.133,10.5563,2.1646,4.8782,12.2706,5.1871,21.0214,3.8416l.715-.1074.013-5.525Z"/><polygon class="a" points="133.704 41.494 133.691 47.298 128.049 47.288 128.065 41.484 124.158 41.468 124.119 56.532 128.026 56.538 128.039 50.408 133.684 50.428 133.665 56.557 137.568 56.561 137.61 41.503 133.704 41.494"/><rect class="a" x="174.8139" y="47.2169" width="15.0623" height="3.9017" transform="translate(132.7187 231.3885) rotate(-89.8558)"/><polygon class="a" points="153.386 41.575 148.786 41.565 145.983 45.592 143.209 41.552 138.607 41.542 143.942 49.313 143.92 56.58 147.86 56.59 147.877 49.508 153.386 41.575"/><path class="a" d="M162.6652,48.4941a4.2713,4.2713,0,0,0,1.5079-3.3509,3.8815,3.8815,0,0,0-3.5214-3.5522c-1.7452,0-2.6617-.0163-2.6617-.0163l-3.9-.0031-.044,15.0574,3.905.0163,3.97-.0487c1.8119,0,3.679-1.8331,3.6856-4.4233.008-2.5871-2.9413-3.6792-2.9413-3.6792m-4.6834-3.9293s.6614.01,1.2562.013a1.4657,1.4657,0,0,1,1.35,1.3715A1.445,1.445,0,0,1,159.311,47.47l-1.3357-.0065Zm2.0363,9.11c-.4388-.0033-2.0574.01-2.0574.01l.01-3.25s1.8379.01,2.1888.01a1.6224,1.6224,0,0,1-.1412,3.23"/><path class="a" d="M174.9016,50.4538c2.5448-.7506,3.0956-2.99,3.1006-4.7483.0048-1.755-1.7795-4.082-5.0019-4.0918l-6.07-.02-.0471,15.012,3.9294.01.0162-5.3626,3.8384,5.3432,4.6117.013Zm-2.8308-2.0767c-.5037,0-1.2187.0033-1.2187.0033l.0081-3.7181s1.0773.0032,1.2821.0032c.2974,0,1.911.3673,1.9078,1.8038a2.0362,2.0362,0,0,1-1.9793,1.9078"/><rect class="a" x="200.3102" y="55.2847" width="5.3041" height="1.3983" transform="translate(146.5198 258.8191) rotate(-89.8705)"/><polygon class="a" points="204.635 58.644 206.034 58.647 206.044 55.118 208.813 58.654 210.22 58.657 210.231 53.353 208.827 53.35 208.823 56.879 206.05 53.343 204.649 53.34 204.635 58.644"/><path class="a" d="M193.6073,53.32a1.7034,1.7034,0,0,1,1.8672,1.4462,1.5817,1.5817,0,0,1-1.1375,1.6641,8.4985,8.4985,0,0,0,2.7463-1.3422,3.5514,3.5514,0,0,0,.429-.312l.5995-1.4527h.6355a7.9564,7.9564,0,0,0,.3932-7.6637,7.7126,7.7126,0,0,0-6.7618-4.0008c-1.5713-.0065-1.6087-.0065-1.6087-.0065l-3.905-.013-.026,11.6319,3.8872.013-.005,1.3911H189.54l-.0081,1.9434h1.7274l.01-3.2988Zm-2.8811-.0357.0226-8.2193h1.4789c.91,0,3.8122,1.1179,3.8317,3.861-.01,3.4222-2.4569,4.394-4.0852,4.3876a11.2648,11.2648,0,0,1-1.248-.0293m-3.9,3.3249,1.3016.0064.0049-1.9467-1.2967-.0033Zm6.4106-2.2816c-.0779,0-.502-.0033-.502-.0033v1.378s.2779-.01.4729-.01c.2,0,.7686-.1691.77-.702.0048-.5265-.6257-.663-.7412-.663m-5.1139,4.2706,1.4041.0065.0049-1.9859-1.4041-.0032Zm6.1962-2.1646c.0082,0,.01-.0033.018-.0033a13.8959,13.8959,0,0,1-3.0778.1885l-.0065,1.989h1.4625l.0048-1.8915,1.4333,1.8915,1.7762.0065.0081-.0259Zm5.153-3.1037-.7247-.0065a5.5932,5.5932,0,0,1-1.235,1.4527l-1.5747,3.8123.0146.0259H195.93v.01h1.3488l.38-.936,2.236.0033.3672.9361,1.3554.0064Zm-1.4284,3.4417.7395-1.8038.7328,1.8038Z"/><path class="a" d="M44.7337,47.8408h.3769c1.2773.0033,2.7041-.2405,2.7106-1.872.01-1.6379-1.42-1.8786-2.7008-1.8882h-.377Zm8.5671,8.3007-4.8653-.01L44.763,50.3467H44.73l-.0161,5.7753-3.91-.01.0389-15.025,5.8371.0163c2.9738.01,5.2164,1.4332,5.21,4.6411a4.0327,4.0327,0,0,1-3.2956,4.2315Z"/><polygon class="a" points="58.296 44.438 58.293 46.954 62.693 46.963 62.684 50.272 58.283 50.259 58.273 52.853 62.915 52.862 62.908 56.167 54.354 56.148 54.396 41.123 62.947 41.146 62.937 44.451 58.296 44.438"/><path class="a" d="M73.2009,45.0361a4.1607,4.1607,0,0,0-2.59-1.0043c-.715,0-1.67.4192-1.6772,1.2481,0,.8839,1.06,1.2187,1.7324,1.443l1.0043.3022c2.0865.624,3.6984,1.6868,3.6888,4.1211a5.0763,5.0763,0,0,1-1.5634,4.0365,6.5935,6.5935,0,0,1-4.277,1.4072A9.22,9.22,0,0,1,64.25,54.861l1.68-3.146a5.3306,5.3306,0,0,0,3.4612,1.56c.9165.01,1.8981-.4421,1.8981-1.5016.0032-1.0953-1.5309-1.4853-2.366-1.7193-2.4507-.7085-4.0594-1.352-4.0561-4.2576a4.8705,4.8705,0,0,1,5.1968-5.031,10.3487,10.3487,0,0,1,4.7,1.2447Z"/><path class="a" d="M80.3316,48.4453a4.251,4.251,0,1,0,8.489.0195,4.2544,4.2544,0,0,0-8.489-.0195m12.5549.013a8.31,8.31,0,0,1-16.6208-.0422c.01-4.55,4.0073-7.7286,8.3266-7.7123,4.3292.01,8.3039,3.2111,8.2942,7.7545"/><path class="a" d="M98.0086,47.9774h.377c1.2805,0,2.72-.2341,2.72-1.8689.01-1.6314-1.43-1.8816-2.7072-1.8816l-.38-.0034Zm8.5769,8.3072-4.8718-.01-3.6694-5.7917h-.0389l-.02,5.7753-3.9-.01L94.1182,41.23l5.84.01c2.9705.01,5.2261,1.4334,5.2163,4.6412a4.0464,4.0464,0,0,1-3.2988,4.2348Z"/><polygon class="a" points="113.615 56.298 109.709 56.288 109.738 44.568 106.511 44.565 106.52 41.26 116.885 41.282 116.875 44.588 113.645 44.584 113.615 56.298"/></svg>