<svg xmlns="http://www.w3.org/2000/svg" viewBox="0 0 287.8111 43.4006"><defs><style>.a{fill:#bfbec5;}.a,.b,.c,.d,.e,.f{fill-rule:evenodd;}.b{fill:#e4e3e6;}.c,.g{fill:#4a262a;}.d{fill:#f1d2a9;}.e{fill:#c8ae65;}.f{fill:#d84738;}</style></defs><path class="a" d="M0,43.4006C.8566,7.5284,14.3808,0,23.7049,0S46.5509,7.5284,47.407,43.4006Z"/><path class="b" d="M23.7049,4.0676c2.5179,0,3.4069,1.5244,4.7533,2.3656C30.37,7.621,32.0041,6.89,33.6921,8.5309c1.6859,1.6387,1.031,3.4165,1.7509,4.74.7275,1.3278,2.5456,1.6611,3.2051,3.3957.65,1.73-.033,3.563.4081,5.0074.44,1.45,1.77,1.8763,2.2062,3.9234.4328,2.029-.4045,3.5062-.25,5.0926.1494,1.5819,1.223,3.1669,1.223,4.8146a3.482,3.482,0,0,1-3.6,3.3866c-2.0491.0719-3.347-.7312-5.0448-.5352-1.6971.2077-2.8566,1.5729-4.647,1.5729-1.8033,0-3.0167-1.2261-5.2393-1.2261s-3.44,1.2261-5.234,1.2261-2.9545-1.3652-4.6516-1.5729c-1.703-.196-2.9963.6071-5.0455.5352a3.4881,3.4881,0,0,1-3.6094-3.3866c0-1.6477,1.0757-3.2327,1.229-4.8146.1578-1.5864-.6743-3.0636-.2467-5.0926C6.58,23.55,7.905,23.124,8.3492,21.6738c.4411-1.4444-.2415-3.2776.4089-5.0074.6587-1.7346,2.4769-2.0679,3.2005-3.3957.7237-1.3233.0687-3.1011,1.759-4.74,1.6815-1.641,3.3231-.91,5.2258-2.0977,1.3547-.8412,2.24-2.3656,4.7615-2.3656"/><path class="c" d="M23.24,20.6435c-.0486.486-.1286,1.0108-.1981,1.5013a9.0294,9.0294,0,0,1-1.2051.0373.7264.7264,0,0,1-.0158-.1555c.0651-.0478.1055-.1495.21-.1809.1862-.0673.465-.0134.65-.0987.0127-.3917.0179-.7835.0179-1.1813a.4725.4725,0,0,1,.5406.0778"/><path class="c" d="M24.7762,21.7441c.2138.0882.4606.1465.699.2227a1.4544,1.4544,0,0,1,.0075.4156c-.4-.0792-.7715-.1839-1.167-.2542a12.5384,12.5384,0,0,1-.1465-1.5625c0-.0148.0044-.0283.0127-.0283.0972.0283.2227.0135.3117.0449a.5645.5645,0,0,1,.202.2033,2.12,2.12,0,0,1,.0156.2422c.0239.2228.0239.4933.065.7163"/><path class="d" d="M27.1118,12.1613a6.2458,6.2458,0,0,1-.9173.7625c-.1533.1062-.3231.2318-.4965.3469a3.46,3.46,0,0,1-.498.3408c-.1419.06-.31.0884-.4723.15a3.6373,3.6373,0,0,1-.4725.1525,5.2318,5.2318,0,0,1-1.0393-.0314c-.1539-.0284-.3146-.0612-.4612-.09-.1525-.0314-.3275-.0389-.46-.0793a3.0286,3.0286,0,0,1-.5047-.3244,9.0745,9.0745,0,0,1-1.5-1.247,5.6022,5.6022,0,0,1,.752-.8313c.2632-.2692.5093-.5592.78-.7954.0127-.012.021-.0434.0493-.04a5.317,5.317,0,0,1,.8928.2856,4.5711,4.5711,0,0,0,.4806.09,2.6281,2.6281,0,0,0,.4935.09,5.3828,5.3828,0,0,0,.9741-.1569c.2056-.0314.4888-.0763.7432-.13a1.3816,1.3816,0,0,1,.2264-.0568c.1092.015.2871.2915.3716.3843.3439.3856.74.8267,1.0594,1.1812"/><path class="e" d="M23.7206,8.4247c.086-.006.1988.1436.28.2422.2376.2616.4933.5668.7109.8254.3357.3843.6669.7326.95,1.1005a13.4446,13.4446,0,0,1-1.86.3468H23.73a7.2132,7.2132,0,0,1-1.8511-.4844c.2782-.3469.61-.6579.9165-.9824.3275-.3394.6184-.7043.9256-1.0481"/><path class="e" d="M24.2739,13.9181c.2594-.17.6071-.17.8971-.32a5.6874,5.6874,0,0,0,.4821-.3468c.4569-.3275.954-.7118,1.4221-1.1065,1.5729,1.7135,3.077,3.43,4.6418,5.142a11.43,11.43,0,0,1-2.4619,1.5176,12.6426,12.6426,0,0,1-1.2574.5757,10.2743,10.2743,0,0,1-2.8379.5816,13.7808,13.7808,0,0,1-.1727-1.5072c-.0539-.4933-.1585-.99-.2393-1.4922-.1136-.7357-.2384-1.4862-.3432-2.24-.0209-.124-.0127-.2557-.0417-.3768a1.0774,1.0774,0,0,1-.089-.4276"/><path class="e" d="M22.9692,13.7775c0,.0119.0083.0181.02.0254-.0568,1.1289-.23,2.2982-.3514,3.4421-.0726.6294-.1981,1.2663-.311,1.9377a2.6714,2.6714,0,0,1-.1376.6429c-.0807.0763-.38,0-.5136-.03-.1936-.0255-.3716-.0539-.5136-.0794a6.999,6.999,0,0,1-1.5924-.3587c-.5405-.2-1.1439-.42-1.6813-.6818-.3806-.19-.7432-.4322-1.12-.655a12.5947,12.5947,0,0,1-1.0982-.6683c1.41-1.7269,3.149-3.445,4.6158-5.1659.4036.2542.69.625,1.0541.8792a4.4908,4.4908,0,0,0,.47.2915,5.1127,5.1127,0,0,0,.4807.299c.2018.0913.4881.0435.6787.1211"/><path class="f" d="M22.99,13.8029c.3924.07.8851.0314,1.31.07.1816.9823.31,1.9947.4358,3.0025.0658.4993.1622.9958.2154,1.4891.0709.5189.0964,1.0378.1771,1.56.3476-.0045.7806-.1286,1.1237-.1346.1053.1017.1053.3094.1494.465a12.7579,12.7579,0,0,1-2.6636.3978c-.3192.0163-.6624.0627-.9741.0568-.5982-.0255-1.2126-.2348-1.7532-.28a4.6915,4.6915,0,0,1,.1286-.6833c.3633.0148.6511.1136,1.0183.1195a8.9994,8.9994,0,0,0,.275-1.3606c.2019-1.1424.323-2.3968.4651-3.6185a5.336,5.336,0,0,0,.0807-.7191c-.0083-.1152-.0762-.2572.012-.3649"/><path class="c" d="M23.657,8.184a4.1226,4.1226,0,0,1,.5376.2407,3.0651,3.0651,0,0,1,.2624.2841c.9211,1.0272,1.8421,2.0649,2.7482,3.1115.3319.3813.6863.7446,1.0137,1.1229.6594.7731,1.2867,1.5656,1.9333,2.3325.5742.676,1.1439,1.3293,1.7419,1.9976.0366.0419.0734.1047.1175.15.0358.0314.1172.0732.0926.1405-.0972,0-.19.0853-.2915.0732-.0607-.0133-.2018-.1854-.27-.2586-.59-.6384-1.2006-1.3127-1.7987-1.9123-.7162-.71-1.3545-1.4818-1.9893-2.2323-1.29-1.5581-2.6151-3.0742-3.9847-4.4649a4.3222,4.3222,0,0,0-.53.5474c-.5218.5532-1.05,1.111-1.5924,1.6491-.7109.7178-1.3584,1.5073-2.02,2.2772-.6766.7656-1.3457,1.5207-2.0013,2.3013a22.6316,22.6316,0,0,1-2.065,2.2352.8949.8949,0,0,1-.3439-.2511c.3358-.3978.7193-.7507,1.0788-1.1319.36-.3888.708-.7806,1.0392-1.1813.8493-.9973,1.7053-1.981,2.5142-3.0217.166-.2064.3589-.3753.5368-.5727.36-.3754.7394-.7327,1.1042-1.114.3641-.3783.7267-.7505,1.075-1.1393.3672-.3947.723-.7984,1.0915-1.1827"/><path class="c" d="M24.756,10.2249c-.0209.23-.0523.459-.077.6849-.0934.0179-.2191.2123-.3237.2123-.0479,0-.21-.1257-.21-.1825-.0083-.0807.11-.1883.1255-.284a3.409,3.409,0,0,0,.0083-.3439c.0283-.0868.1779-.1809.1981-.2214a1.8052,1.8052,0,0,1,.2788.1346"/><path class="c" d="M23.2556,10.382a1.9486,1.9486,0,0,1-.3229.4679,1.1261,1.1261,0,0,1-.3559.2c-.0882,0-.1211-.127-.1973-.175.1525-.2541.3386-.4769.4852-.74.222-.0687.2705.1585.3909.2468"/><path class="c" d="M24.0242,10.3371a4.5093,4.5093,0,0,1-.2147.5457,2.4134,2.4134,0,0,1-.3626.3335,1.3081,1.3081,0,0,1-.231-.0942,6.2842,6.2842,0,0,0,.42-.8194.3048.3048,0,0,1,.388.0344"/><path class="c" d="M25.46,11.76c-.0127.1362.06.2259.04.3246-.0165.1106-.2056.2093-.2549.311-.0845-.0329-.1369.06-.2139.0508-.0433-.003-.1136-.0627-.1615-.0837a.2784.2784,0,0,1-.1533-.09c.0121-.2272-.0044-.5293.1615-.625a.7758.7758,0,0,1,.5825.112"/><path class="c" d="M22.67,11.7755c0,.0822.0479.1436.0479.2227.0172.2153-.1324.4577-.3357.4486a.6277.6277,0,0,1-.2542-.0837.8283.8283,0,0,1-.1242-.15.5533.5533,0,0,1,0-.3812.8422.8422,0,0,1,.2132-.1675.4222.4222,0,0,1,.453.1107"/><path class="c" d="M26.3686,12.4274c.1166.0762.1615.2422.258.3573a1.8881,1.8881,0,0,1-.5405.5278,1.8156,1.8156,0,0,0-.2147.13,3.2535,3.2535,0,0,1-.4284.2451,5.8432,5.8432,0,0,0-.8088.2961c.13,1.0467.1615,2.0739.3109,3.0861.1377.9958.2871,2.008.3881,3.0157a2.45,2.45,0,0,1-.3552.02c-.2624-.99-.376-2.0483-.5659-3.1175-.1861-1.072-.2063-2.2219-.3394-3.3567a7.517,7.517,0,0,1,.8724-.29,3.0932,3.0932,0,0,0,.4613-.1331,2.2966,2.2966,0,0,0,.2393-.1869c.2384-.1885.5009-.3963.7229-.5936"/><path class="c" d="M23.2556,13.619a7.831,7.831,0,0,1-.0553.9795c-.0337.3169-.0337.6414-.0861.97-.0522.35-.1606.6922-.2174,1.0586-.1787,1.1138-.2468,2.2652-.433,3.4074a1.6361,1.6361,0,0,1-.4043-.0193c.0851-1.0362.2751-2.065.4118-3.07.042-.2512.0366-.4994.0659-.7551.0762-.7087.17-1.4279.2145-2.1784-.2145-.0943-.4329-.1018-.6347-.181-.1309-.0583-.2595-.1631-.3879-.2333a2.5843,2.5843,0,0,1-.3888-.2288,3.9851,3.9851,0,0,1-.5982-.6384,1.4488,1.4488,0,0,1,.3073-.2228c.0038-.0045.0285-.03.04-.0164a2.4711,2.4711,0,0,1,.3529.311,2.2929,2.2929,0,0,0,.355.299,3.1909,3.1909,0,0,0,.36.1405c.3439.1331.7319.2767,1.0989.3768"/><path class="c" d="M27.5768,14.5685a6.5045,6.5045,0,0,1-.7887-.9643,1.5285,1.5285,0,0,1,.2952-.2632c.19.2.4089.4933.6153.7536.0524.0732.19.2.1652.284-.02.1017-.2191.1017-.287.19"/><path class="c" d="M19.8855,14.5506c-.1974.003-.21-.1749-.2917-.2812.2274-.3273.4935-.613.74-.9224.0688.0389.332.1569.3358.2331.0044.06-.1265.193-.1817.2663a7.3951,7.3951,0,0,1-.6025.7042"/><path class="c" d="M21.3723,14.1364c-.1816.3843-.4118.7191-.6092,1.0915a1.6908,1.6908,0,0,1-.2834-.14,7.697,7.697,0,0,1,.566-1.1066.8871.8871,0,0,1,.3266.1556"/><path class="c" d="M26.9787,15.0754c-.0487.1017-.21.0882-.2953.1525a3.7582,3.7582,0,0,1-.5944-1.063c.1017-.06.2072-.1182.3117-.1779.2064.3527.3716.7415.578,1.0884"/><path class="c" d="M22.2089,14.5163c-.0889.4155-.1973.8042-.3146,1.1916a1.43,1.43,0,0,1-.3148-.133c.0643-.4113.1442-.8091.2414-1.1873a1.726,1.726,0,0,1,.388.1287"/><path class="c" d="M25.5433,14.4325c.1181.3633.1824.7819.28,1.1766a1.1414,1.1414,0,0,1-.34.0838c-.1046-.3887-.1966-.7775-.2827-1.1841a1.5324,1.5324,0,0,1,.3433-.0763"/><path class="c" d="M19.223,15.1636a9.9315,9.9315,0,0,1-.9383,1.1393c-.04-.0763-.2257-.0851-.2422-.1943-.0073-.0568.1452-.2093.2027-.2886a8.78,8.78,0,0,1,.6377-.8433c.0081-.006.0127-.0314.0283-.0314a1.2327,1.2327,0,0,1,.3118.2183"/><path class="c" d="M29.5212,16.125a.3392.3392,0,0,1-.1494.1016c-.04.0166-.1249.0793-.17.0763-.0718-.0029-.2093-.1839-.2744-.2451-.26-.2632-.5106-.5952-.7162-.8434a1.6058,1.6058,0,0,1,.2909-.2377c.3483.3814.6646.782,1.0189,1.1483"/><path class="c" d="M19.9706,15.7422a4.6533,4.6533,0,0,1-.3154.6026c-.1167.1943-.23.39-.36.57A.57.57,0,0,1,19,16.7709c.2183-.4111.4359-.8119.6751-1.196a.6218.6218,0,0,1,.2953.1673"/><path class="c" d="M28.4948,16.8757c-.0934.0134-.1824.124-.2834.112-.0763-.0223-.1824-.2227-.2257-.293-.1914-.3154-.3962-.6714-.5585-.9525a1.119,1.119,0,0,1,.287-.1614,3.5407,3.5407,0,0,1,.202.3185c.1943.311.4.64.5786.9764"/><path class="c" d="M20.9283,16.1818c-.1652.4457-.3558.8523-.5256,1.2919a1.7246,1.7246,0,0,1-.4-.1525c.1413-.42.3477-.8612.5136-1.2859a.0505.0505,0,0,1,.0322-.0314,1.6668,1.6668,0,0,1,.38.1779"/><path class="c" d="M27.3906,17.3152a2.4284,2.4284,0,0,1-.3387.1077c-.2026-.4127-.3924-.8268-.5584-1.2694a3.4479,3.4479,0,0,1,.3722-.1421c.1779.4411.34.8777.5249,1.3038"/><path class="c" d="M21.8292,16.4719a2.6052,2.6052,0,0,1-.1128.7,5.1819,5.1819,0,0,1-.166.68c-.1981-.0059-.27-.1391-.3828-.2318.0963-.42.1772-.8433.3019-1.2245.0046-.0135.0322-.0359.0322-.0135a1.2336,1.2336,0,0,1,.3275.09"/><path class="c" d="M25.8714,16.3822a2.7329,2.7329,0,0,1,.1779.6564,6.4455,6.4455,0,0,1,.1616.6864c-.0927.0163-.2311,0-.311.0254a11.8044,11.8044,0,0,1-.3843-1.2785,2.9965,2.9965,0,0,1,.3558-.09"/><path class="c" d="M16.2678,18.0972a5.0388,5.0388,0,0,1,.5629-.6743c.1846-.2228.3627-.4606.5458-.6878,0-.009.0314-.0285.0314-.015.0687.0568.31.0882.3281.1945.0158.0881-.186.2855-.2511.3647-.2266.29-.4523.5188-.7192.815-.0419.0508-.1016.14-.1465.14-.1242.0254-.2819-.1182-.3514-.1376"/><path class="c" d="M31.1713,18.012a1.8538,1.8538,0,0,1-.2588.2228,5.4887,5.4887,0,0,1-.6107-.5982,6.1062,6.1062,0,0,1-.5659-.6429,1.11,1.11,0,0,1,.352-.1808c.0524-.0165.25.2511.2819.2915.2714.3065.5585.6429.8015.9076"/><path class="c" d="M18.5681,17.4737a15.55,15.55,0,0,1-.8739,1.3307,1.4381,1.4381,0,0,1-.3356-.2109c.2832-.4544.5876-.897.8866-1.3456a2.0366,2.0366,0,0,1,.3229.2258"/><path class="c" d="M30.0155,18.7117c-.0936.012-.2109.1181-.3163.0927-.0763-.02-.1809-.2451-.23-.3185-.2063-.3273-.4515-.6878-.61-1.0018.1167-.0583.23-.1091.355-.1629a1.3189,1.3189,0,0,1,.21.3439c.1338.2318.2595.471.4009.7a1.6055,1.6055,0,0,1,.1906.3469"/><path class="c" d="M28.2114,17.7413c.2782.4905.542.9868.806,1.4788-.1025.0329-.2191.0673-.3335.0928a10.91,10.91,0,0,1-.7924-1.3517,1.1207,1.1207,0,0,1,.32-.22"/><path class="c" d="M19.5415,17.9c-.213.4681-.5009.9585-.7589,1.4071a1.52,1.52,0,0,1-.3169-.166,9.9469,9.9469,0,0,1,.7051-1.3622,2.2121,2.2121,0,0,1,.3707.1211"/><path class="c" d="M27.8115,19.6687a2.0106,2.0106,0,0,1-.3356.0837,4.4413,4.4413,0,0,1-.3275-.7252c-.0965-.2482-.2018-.51-.2752-.7416.0734-.0225.2386-.13.311-.1151.07.0164.15.284.1742.35.1421.3887.3193.8148.4531,1.1483"/><path class="c" d="M20.48,18.317a9.6361,9.6361,0,0,1-.55,1.4443c-.1773.042-.25-.0762-.347-.1435.1818-.474.3753-.9419.5779-1.39a1.0881,1.0881,0,0,1,.3192.09"/><path class="c" d="M26.2386,18.5009c.1053.4875.2025,1,.2915,1.5a.6048.6048,0,0,1-.2707.1495c-.1494-.5248-.3042-1.0377-.4485-1.5654a.5777.5777,0,0,1,.4277-.0838"/><path class="c" d="M21.5263,18.6669c-.0724.4292-.1413.8657-.2175,1.2784-.1383.0523-.275.16-.4456.09.033-.4829.1548-.9643.21-1.45.0083-.02.0083-.0254.0247-.036.14.0419.3028.07.4283.1182"/><path class="g" d="M28.4582,28.0881a8.1987,8.1987,0,0,1,.5345,1.2531c-.2586.17-.5584.3019-.8628.4619-.1009.0479-.1891.1122-.2863.15a7.8786,7.8786,0,0,1-1.1236.0732,7.7789,7.7789,0,0,1-.8359-.0135,3.1223,3.1223,0,0,1-.3566-.3408c-.2227-.2407-.3475-.3872-.577-.6639a3.8182,3.8182,0,0,1-.2715-.341,3.7017,3.7017,0,0,1,.1413-.4484c.0516-.166.2744-.3245.3686-.4232a2.3828,2.3828,0,0,1,.2938-.2767,3.2645,3.2645,0,0,1,.2834-.2616c.0732-.0568.5173-.4127.6668-.5532a2.1512,2.1512,0,0,0,.5943-.7132,1.5341,1.5341,0,0,0,.1212-.3454c-.0366-.0418-.7236-.1121-.8769-.1465-.3514-.0732-.6625-.0164-.9061-.1017a5.2,5.2,0,0,1-.1047-.7925,1.1608,1.1608,0,0,1,0-.5667c.5622.0374,1.18.0794,1.8226.15.2071.0254.4771.0672.5539.09a2.7424,2.7424,0,0,1,.2671.3587,1.0066,1.0066,0,0,1,.2339.7162,2.114,2.114,0,0,1,0,.34,5.5351,5.5351,0,0,1-.4935.5068c-.3423.3588-.6338.6325-.989.9659a1.79,1.79,0,0,0-.6064.8029,1.3263,1.3263,0,0,0-.0851.3978,3.56,3.56,0,0,0,.3924.1271,1.21,1.21,0,0,0,.6543-.0553c.4933-.1137,1.2611-.2886,1.4473-.3485"/><path class="g" d="M29.7679,25.7616a19.9536,19.9536,0,0,1,2.3565.2392c.089.1047.1817.2422.2915.3843a1.6418,1.6418,0,0,1,.2865.3947c.02.0988.0441.36.0568.5472a3.2006,3.2006,0,0,1,.0283.5788,2.9193,2.9193,0,0,1-.3716.49,3.6175,3.6175,0,0,1-.4089.4276,1.0861,1.0861,0,0,1-.2423-.3065,1.4042,1.4042,0,0,1-.2062-.341c.0568-.0627.3722-.2451.4485-.3138a.7075.7075,0,0,0,.19-.2707.65.65,0,0,0-.0607-.2991,1.2981,1.2981,0,0,0-.3716-.2c-.17-.0283-.651-.0583-1.0017-.0732-.36-.0284-.7236-.0284-1.007-.0762a4.9592,4.9592,0,0,1-.0276-1.1335Z"/><path class="g" d="M34.036,22.221a22.4072,22.4072,0,0,1,2.3243.2257c-.0643.5339-.133,1.0347-.2137,1.5461a5.2364,5.2364,0,0,0-.2228,2.1037c.8125-.1943,1.5475-.5636,2.4528-.7355.1047.4261.1255.9194.1944,1.3786-.6542.257-1.4107.6069-2.0858.9059a7.2335,7.2335,0,0,0-.7035.2932.7785.7785,0,0,0-.4157.6129c-.0119.0793-.0366.2393-.0366.2393.0486.1779.3686.3483.5374.4142a9.4628,9.4628,0,0,0,1.1035.2258c.38.0628.7881.1165,1.1283.2018a7.4353,7.4353,0,0,1-.1055.9629,7.2057,7.2057,0,0,1-1.3172-.2049,7.3026,7.3026,0,0,1-1.2373-.2645c-.0845-.0345-.1945-.0943-.2946-.1452a1.0056,1.0056,0,0,1-.2834-.1987,2.6957,2.6957,0,0,1-.3641-.4725,8.6855,8.6855,0,0,1-.3543-.9958,2.9991,2.9991,0,0,1,.02-.5384,2.0475,2.0475,0,0,1,.1981-.4709,4.836,4.836,0,0,1,.1862-.4635c-.7448-1.114-.5825-2.9561-.5622-4.5784a.0587.0587,0,0,1,.0522-.0418"/><path class="c" d="M12.4438,21.8906a1.3321,1.3321,0,0,1,.0164.4186,11.2843,11.2843,0,0,0-.0411,1.1647c.3356-.0224.62-.1419,1.02-.139a8.3478,8.3478,0,0,1,.0486,1.1932c-.36.04-.6466-.0164-.9988,0-.0329.1869-.0209.7954-.0448,1.1065.5757.0732,1.4123.2391,2.1553.3916.2266.0509.6714.1914.6714.1914s.3192.3081.4642.474a2.8986,2.8986,0,0,1,.4165.5324c.0036.1494-.0493.631-.0651.8478-.02.2168-.0366.5949-.0807.8208a3.1012,3.1012,0,0,1-.2624.36c-.2026.275-.3312.4321-.554.7026-.1.1211-.2019.2826-.2751.3529-.1406.0449-.299.0763-.4045.1121-.3828.1167-.7918.2318-1.1834.3425a5.0484,5.0484,0,0,1,0-2.3954,10.5908,10.5908,0,0,1,1.063.169,1.4361,1.4361,0,0,0,.1623-.4156,2.3337,2.3337,0,0,0,.1367-.4411,1.5737,1.5737,0,0,0-.32-.2692,1.4989,1.4989,0,0,0-.3625-.22s-.43.0119-.6152.0329c-.2214.0179-.4284.0493-.6.0807-.1444.7565-.42,2.0813-.6055,3.0233a6.7375,6.7375,0,0,1-.8083-.187c-.2549-.0643-.6458-.1569-.7925-.2168a5.8883,5.8883,0,0,1-1.0338-.752c-.1548-.3873-.2595-.6624-.412-1.1035-.0337-.124-.139-.3963-.139-.3963a5.7559,5.7559,0,0,1,.3408-.8387,2.44,2.44,0,0,1,.3754-.5189,2.7409,2.7409,0,0,1,.6063-.3932,3.9988,3.9988,0,0,0,.6056-.2736c-.0038-.2707.0164-.5668.0081-.7924-.1974-.0314-.6182.0342-.86.0029-.0485-.4231-.0522-.9166-.0934-1.3592a8.4244,8.4244,0,0,1,.8934.0106c0-.3918-.0606-.9839-.0366-1.4265.429-.06,1.2327-.145,1.6051-.1928M11.2155,27.224a8.3063,8.3063,0,0,0-.9906.3647,4.3261,4.3261,0,0,0,.17.7956,4.4143,4.4143,0,0,0,.9816.1524,7.6248,7.6248,0,0,0-.1614-1.3127"/><path class="c" d="M16.7575,24.6805a7.6141,7.6141,0,0,1-.6556,1.0721,9.3648,9.3648,0,0,1-.9212-.465c-.3028-.1494-.5853-.3244-.8889-.4769a4.769,4.769,0,0,1,.3319-1.0811,4.338,4.338,0,0,1,1.3578.0689,3.6307,3.6307,0,0,1,.3909.4484,3.7287,3.7287,0,0,1,.3851.4336"/><path class="c" d="M19.61,25.2114c-.04.468-.1249,1.0944-.1615,1.6612-.0044.0763-.0239.166-.0285.2228a1.826,1.826,0,0,0,.3441.305,1.8261,1.8261,0,0,0,.33-.2288c.1226-.0928.228-.1525.32-.2227.1733-.1525.3641-.4292.5584-.6341.08-.1016.1817-.1989.2907-.3109a3.7277,3.7277,0,0,1,.3029-.2871,3.8716,3.8716,0,0,1,.4037.01c.2594.0119.5218.0194.7842.042a2.8853,2.8853,0,0,1,.3753.0373c.0539.0449.15.1839.2108.2542.1585.1854.28.293.4321.4994a2.0043,2.0043,0,0,1,.1862.284,2.82,2.82,0,0,1-.1.3693c-.0337.1242-.0651.2259-.1017.3529-.2222-.003-.6587.06-.877.0284a3.2317,3.2317,0,0,1-.3035-.5307c-.0972-.2168-.1854-.4486-.25-.6115a1.4273,1.4273,0,0,0-.3439-.0928,1.9162,1.9162,0,0,0-.2961.299c-.1.1122-.1808.2108-.2572.2931a5.045,5.045,0,0,0-.5337.6145c-.1248.19-.2221.4575-.3476.6834a2.2588,2.2588,0,0,1-.3881.6234,4.322,4.322,0,0,1-.6751.1121c-.3962-.2736-.7363-.5861-1.1243-.91a3.93,3.93,0,0,1-.3679-.305c-.0314-.0853-.0762-.3693-.1046-.5189-.0889-.5367-.1526-1.063-.23-1.6028a9.121,9.121,0,0,1,1.2245-.4486,5.7954,5.7954,0,0,1,.7274.012"/><path class="g" d="M14.5879,32.2717c.0156.0075.0472.0165.0472.0285l-.0285.0314a1.72,1.72,0,0,0-.1047.6429c0,.33.0935.4934.1907.4934.0239,0,.0971-.0239.1689-.15l.0688.1048c-.04.0583-.1406.2018-.2788.2018-.0815,0-.3514-.0493-.3514-.6579a2.9265,2.9265,0,0,1,.0934-.7475Zm.8268.06a1.48,1.48,0,0,1,.3283.9867l-.2266.0568a1.2911,1.2911,0,0,0,.0121-.1987,1.34,1.34,0,0,0-.2109-.779Z"/><path class="g" d="M16.7238,32.2717c.01.0075.0337.0165.0337.0285l-.0239.0314a1.8829,1.8829,0,0,0-.1047.6429c0,.33.0949.4934.1973.4934.0239,0,.1017-.0239.17-.15l.0637.1048c-.0443.0583-.1369.2018-.2782.2018-.0846,0-.3514-.0493-.3514-.6579a3.2925,3.2925,0,0,1,.092-.7475Zm.8262.06a1.52,1.52,0,0,1,.3273.9867l-.2355.0568a1.0045,1.0045,0,0,0,.021-.1987,1.345,1.345,0,0,0-.21-.779Z"/><path class="g" d="M18.515,32.6231c.0606-.0045.3358-.0688.4015-.0763.0523-.1779.1047-.3169.1443-.4559l.1622.0672c.024.0119.0352.0239.0352.0344a.3471.3471,0,0,1-.0239.0314c-.0158.02-.0972.2451-.1159.29a1.58,1.58,0,0,1,.213-.0164c.2258,0,.3327.1017.3327.4038,0,.2391-.062.8177-.3566.8177a.7508.7508,0,0,1-.32-.118l.0419-.1121a.4072.4072,0,0,0,.21.0942c.1173,0,.222-.3574.222-.6968,0-.1974-.0366-.2946-.1862-.2946a.8029.8029,0,0,0-.1935.0239c-.1653.4771-.3148.9569-.3641,1.1034l-.1973-.0807c.0791-.1943.2414-.65.36-.9823a1.9526,1.9526,0,0,0-.3357.1122Zm1.2987-.33c.0156.0209.0477.0552.0718.0866a2.2106,2.2106,0,0,1,.2907.4486l-.2018.1436a1.3839,1.3839,0,0,0-.17-.462.7262.7262,0,0,0-.0972-.15Z"/><path class="g" d="M20.7989,32.4811c.08.006.1459.006.3156.006.0037-.2318.0037-.3051,0-.3723l.1608.0075c.0335,0,.0695.0075.0695.0283,0,.003-.0172.0314-.02.0419-.0045.006-.02.3364-.02.52a.8668.8668,0,0,1,.5211-.2347c.2916,0,.4778.2287.4778.5772a.5534.5534,0,0,1-.6109.604,1.3722,1.3722,0,0,1-.1419-.006l-.0075-.1151a.6378.6378,0,0,0,.1367.0224c.3963,0,.4038-.3753.4038-.4934,0-.287-.12-.465-.3148-.465a.6958.6958,0,0,0-.4687.2542c-.0038.0942-.0038.1795-.0038.4336,0,.0314,0,.2138.0038.4352h-.2108c.0052-.0869.0127-.5488.0254-.6491a2.02,2.02,0,0,0-.2632.3574l-.1406-.157a.8021.8021,0,0,0,.1159-.1c.089-.1.1383-.15.2879-.3036v-.29a1.9086,1.9086,0,0,0-.3156.0194Z"/><path class="g" d="M23.4215,33.7639a1.7344,1.7344,0,0,0-.42-.5426L23.07,33.15a2.8267,2.8267,0,0,1,.5339.444Z"/><path class="g" d="M24.9983,32.2717c.0165.0075.0411.0165.0411.0285l-.0209.0314a1.6016,1.6016,0,0,0-.11.6429c0,.33.0972.4934.1989.4934.02,0,.0926-.0239.1615-.15l.0725.1048c-.0366.0583-.1414.2018-.2833.2018-.08,0-.3469-.0493-.3469-.6579a3.2333,3.2333,0,0,1,.0928-.7475Zm.8283.06a1.4992,1.4992,0,0,1,.3275.9867l-.2266.0568a1.2911,1.2911,0,0,0,.0121-.1987,1.3687,1.3687,0,0,0-.21-.779Z"/><path class="g" d="M27.132,32.2717c.0164.0075.0366.0165.0366.0285l-.02.0314a1.788,1.788,0,0,0-.1048.6429c0,.33.0884.4934.1945.4934.0157,0,.0957-.0239.169-.15l.0642.1048c-.04.0583-.1375.2018-.2781.2018-.0814,0-.3514-.0493-.3514-.6579a3.05,3.05,0,0,1,.0921-.7475Zm.8245.06a1.5322,1.5322,0,0,1,.3311.9867l-.2256.0568c.0075-.0731.0075-.1584.0075-.1987a1.3755,1.3755,0,0,0-.2057-.779Z"/><path class="g" d="M28.9074,32.7771c.2266-.0089.3312-.0089.6109-.0283a.4681.4681,0,0,0,.2176-.202,2.4791,2.4791,0,0,0,.2467-.4559l.1734.0672c.0209,0,.04.0119.04.03,0,.0046-.0037.0046-.0075.0106-.0366.0314-.041.0314-.0485.0537a2.4275,2.4275,0,0,1-.3514.4712c.0523,0,.2909-.0166.3514-.0166.0643-.0029.1771-.0179.2953-.0283l.0037.1225a1.2307,1.2307,0,0,0-.6953.166.4476.4476,0,0,0-.2228.3588c0,.2677.2348.3125.409.3125a.7528.7528,0,0,0,.23-.0283l-.0075.1331a1.498,1.498,0,0,1-.5576-.0524.3723.3723,0,0,1-.2782-.341c0-.1284.0882-.3872.4882-.5218a5.9107,5.9107,0,0,0-.89.0868Zm.501-.1465a1.4537,1.4537,0,0,0-.3192-.4381l.0687-.07a2.9866,2.9866,0,0,1,.4157.3558Z"/><path class="g" d="M31.4135,32.4182c.012.0031.0449.0106.0449.0241a.3506.3506,0,0,1-.0329.0493c-.0247.0912-.0809.3783-.0973.4934a.9791.9791,0,0,1,.6393-.2647.4583.4583,0,0,1,.5127.4561c0,.5426-.74.583-.9823.5935l-.0239-.1046a1.2835,1.2835,0,0,0,.5778-.1315.4054.4054,0,0,0,.2095-.3574.33.33,0,0,0-.3634-.341.7481.7481,0,0,0-.6309.4186l-.169-.0254c.04-.3618.1091-.7266.1293-.8552Zm.0688-.3483a2.2342,2.2342,0,0,1,.7191.16l-.0972.2124a1.501,1.501,0,0,0-.6549-.2782Z"/><path class="g" d="M33.5912,33.7639a1.8372,1.8372,0,0,0-.4238-.5426L33.24,33.15a3.1049,3.1049,0,0,1,.5339.444Z"/><path class="g" d="M17.0677,35.1829c.0173.0031.0494.0164.0494.0224,0,.009-.0285.0329-.0285.0329a1.6039,1.6039,0,0,0-.1084.6534c0,.3245.1.4875.1891.4875.0285,0,.1055-.0255.1735-.15l.0651.1047c-.0366.0508-.1383.1973-.2781.1973-.0816,0-.3484-.04-.3484-.6579a3.0089,3.0089,0,0,1,.0889-.74Zm.8254.0553a1.5034,1.5034,0,0,1,.3281.9914l-.2228.06c.0075-.0778.0113-.1646.0113-.2035a1.2839,1.2839,0,0,0-.21-.7759Z"/><path class="g" d="M19.2029,35.1829c.0127.0031.0366.0164.0366.0224a.0729.0729,0,0,1-.0239.0329,1.7267,1.7267,0,0,0-.11.6534c0,.3245.0972.4875.1935.4875.0322,0,.1025-.0255.1787-.15l.0636.1047c-.0351.0508-.14.1973-.2833.1973-.0793,0-.35-.04-.35-.6579a2.9672,2.9672,0,0,1,.0919-.74Zm.8237.0553a1.5482,1.5482,0,0,1,.3328.9914l-.2311.06a2.02,2.02,0,0,0,.0083-.2035,1.3127,1.3127,0,0,0-.207-.7759Z"/><path class="g" d="M21.6557,36.6452c-.0687-.3438-.145-.68-.2183-1.0316a3.5852,3.5852,0,0,0-.4163.1629l-.0479-.154c.08-.0164.1413-.0329.25-.0613.0576-.0194.1255-.0389.1862-.0568a3.6281,3.6281,0,0,0-.1048-.4366l.1862-.0075c.0524-.0045.06,0,.06.0075a.2129.2129,0,0,1-.0158.0448,3.4591,3.4591,0,0,0,.0734.3439c.1045-.0194.1688-.0374.299-.0524a1.0227,1.0227,0,0,0,.1764-.3841l.175.0478a.4.4,0,0,1,.06.0284c0,.0089-.0366.0374-.0441.0418a1.0875,1.0875,0,0,1-.17.25c.2991.0209.4979.1211.4979.36s-.2019.38-.5346.38c-.0926,0-.1494-.0031-.1816-.0031l.0083-.118a.9678.9678,0,0,0,.1532.0164c.178,0,.332-.0927.332-.2646,0-.1765-.1623-.2542-.3807-.2542a1.66,1.66,0,0,0-.3752.0538c.0321.1376.145.6714.2339,1.0377Z"/><path class="g" d="M23.8463,35.7361c-.1452,0-.3514,0-.5578.0119v-.1165c.0853.006.4523.0164.5578.0164a2.6652,2.6652,0,0,0-.0083-.2676c-.2386.0119-.4523.0194-.6019.0344V35.283a3.9912,3.9912,0,0,0,.6019.0106c0-.16,0-.2333-.0037-.2886l.19.0239c.0209,0,.0366,0,.0366.015,0,.0119-.0157.0239-.0157.0343-.0053.018-.0053.1765-.0053.2154.3477-.015.4374-.0181.5219-.024V35.38H24.04v.2616c.2707-.0075.3806-.01.49-.0239v.1211c-.1092-.0075-.4053-.0075-.49-.0075.0053.0659.0053.2153.0127.3229a1.6312,1.6312,0,0,1,.55.2827l-.1084.1779a1.4541,1.4541,0,0,0-.4328-.314v.1c0,.2137-.1048.3273-.3724.3273-.2174,0-.4485-.0776-.4485-.263,0-.2632.3312-.3529.6108-.335Zm-.0817.4037c-.1733,0-.3431.0927-.3431.2259,0,.0851.0936.1584.2184.1584.1091,0,.1779-.04.1981-.1182.0164-.04.0164-.06.0164-.2616a.551.551,0,0,0-.09-.0045"/><path class="g" d="M25.2,35.5493a3.0618,3.0618,0,0,0,.3433-.0046c.0081-.0672.0081-.3842.0081-.4606l.1833.0121c.0553.0089.0553.0195.0553.0374a.1664.1664,0,0,0-.0239.0493c0,.0224-.0127.305-.0127.3543.299-.0044.3327-.0044.51-.0074v-.1809a3.0254,3.0254,0,0,0-.0165-.3289l.1944.0164c.0322.0075.0322.0239.0322.0239,0,.0075-.0083.0554-.0083.0733-.0075.0044-.0075.3514-.0075.3932.1286,0,.19-.0045.3231-.0135v.1346a2.9734,2.9734,0,0,0-.3231-.0164v.2811c0,.19-.0522.2885-.2466.2885h-.1458l-.0158-.1152h.089c.0726,0,.1084-.0148.1211-.0836.0038-.0448.0038-.2991.0038-.3708-.1981,0-.3918.0029-.51.006-.0112.1346-.0187.32-.0187.4036,0,.329.068.47.4194.47a4.3542,4.3542,0,0,0,.46-.0389v.1241c-.1376.0089-.4157.0089-.4763.0089-.3274,0-.598-.021-.598-.49,0-.0628.003-.39.003-.4634-.0367.0029-.2258.0119-.3433.0313Z"/><path class="g" d="M28.1875,35.0782c.0119.0059.04.018.04.0269,0,.0045,0,.0075-.0083.015-.0075.0135-.0239.0179-.0283.021-.0158.0239-.2863.6264-.3268.7221a.5513.5513,0,0,1,.3634-.16.23.23,0,0,1,.2624.2437c0,.0659-.04.3649-.04.4382,0,.0942.0277.1256.0921.1256.0208,0,.2077,0,.349-.341l.1054.0628c-.0522.1211-.2018.4232-.5143.4232a.2216.2216,0,0,1-.2392-.2452c0-.0643.0366-.3633.0366-.4351,0-.0628-.0119-.16-.1249-.16-.1689,0-.388.2153-.5778.8179l-.1945-.0733c0-.0089.3319-.8613.4045-1.0272.145-.3439.154-.3543.2145-.5278Z"/><path class="g" d="M30.2046,36.3745a.2931.2931,0,1,1-.2954-.2945.2917.2917,0,0,1,.2954.2945m-.5054,0a.2139.2139,0,0,0,.21.2093.2052.2052,0,0,0,.2072-.2093.2094.2094,0,0,0-.2072-.2152.2129.2129,0,0,0-.21.2152"/><path class="g" d="M70.7383,15c-1.0166-.0176-1.8877-.0527-2.7422-.0527-1.919,0-2.0479,0-2.0479.6318,0,.4736-.0166.9639-.0166,1.49,1.1612,0,2.9034.0176,3.71.0176a1.2917,1.2917,0,0,1,1.3867,1.42,15.38,15.38,0,0,1-1.7744,5.0489,5.3221,5.3221,0,0,0,2.2588,2.0166.8857.8857,0,0,1,.5478.8593,1.014,1.014,0,0,1-.9511,1.0518c-.1133,0-1.1944,0-2.7588-2.4541-1.3545,1.91-2.709,2.6123-3.1445,2.6123a.879.879,0,0,1-.8067-.9473.9012.9012,0,0,1,.5-.8418,6.7356,6.7356,0,0,0,2.5322-2.4892A13.5565,13.5565,0,0,1,66.1094,18.63H65.916c-.081,2.8574-.3877,6.1357-1.9678,8.292a.871.871,0,0,1-.71.3857.9541.9541,0,0,1-.9356-.9111.8631.8631,0,0,1,.1778-.5264,3.5581,3.5581,0,0,0,.209-.3154h-.0967a.6779.6779,0,0,1-.5157-.28,31.9707,31.9707,0,0,1-4.1933,1.8232.8877.8877,0,0,1-.7744-.9462.7037.7037,0,0,1,.4844-.72c.2412-.0693.5156-.1748.8222-.28V23.7667c0-2.1387.0156-4.9268.0322-5.5225a1.4907,1.4907,0,0,1,.1456-.6318.6868.6868,0,0,1-.3711.0879.9388.9388,0,0,1-.9356-.8936.9788.9788,0,0,1,.29-.6318,15.6123,15.6123,0,0,0,1.9512-2.7344,1.6454,1.6454,0,0,1,1.42-.9648,1.8328,1.8328,0,0,1,1.4834.93,22.7066,22.7066,0,0,0,1.3877,1.9277.828.828,0,0,1,.209.5439.9979.9979,0,0,1-.9033.9639.7847.7847,0,0,1-.6123-.333,21.9708,21.9708,0,0,1-1.3389-2.1387c-.0156-.0351-.081-.0527-.1289-.0527-.0644,0-.1289.0176-.1455.0527a20.833,20.833,0,0,1-1.7412,2.6826,2.4475,2.4475,0,0,1,1.0645-.2285v-.5957a.78.78,0,0,1,1.5478,0v.6133c.0645,0,.1455.0176.1934.0176a1.4285,1.4285,0,0,1,1.4521,1.4209c.0156.5254.0479,1.1738.0479,1.8056,0,1.7881-.0479,2.5772-2.5479,2.5772-.3555,0-.71-.0176-.92-.0352v1.9288L61.1738,24.1a.7549.7549,0,0,1-.2256-.5088.7345.7345,0,0,1,.7256-.7012c.5,0,1.419,1.0176,1.6289,1.5782a13.988,13.988,0,0,0,1.0166-5.8731c0-1.2451-.081-2.4726-.081-3.6123a1.55,1.55,0,0,1,1.6933-1.7c.79-.0176,1.5323-.0351,2.2579-.0351.871,0,1.71.0175,2.5644.0351a.8521.8521,0,0,1,.8389.877A.8133.8133,0,0,1,70.7539,15Zm-8.8067,4.0332c0-.8945-.0156-.9121-.9511-.9121-.6778,0-.9356.0351-.9522.456,0,.1055-.0156.2627-.0156.4561Zm-1.9189,1.2441c0,.4209.0156.8067.0156,1,.1621.0176.5488.0176.9033.0176.6934,0,.9522-.0351.9844-.4385,0-.1757.0156-.3681.0156-.5791ZM67.4961,18.63a13.532,13.532,0,0,0,.8223,3.12,11.6588,11.6588,0,0,0,.9355-2.7871.3086.3086,0,0,0-.3379-.333Z"/><path class="g" d="M80.3047,13.51a.8663.8663,0,0,1,.9355-.876.9006.9006,0,0,1,.9844.876L82.208,25.169c.9522,0,1.8711-.0175,2.5645-.0527.9355-.0352.9355-.666.9355-2.3838,0-1.8057-.0488-4.6992-.0644-5.085v-.0527a.8632.8632,0,0,1,.9189-.876.919.919,0,0,1,.9678.9112c.0166.3506.0322,1.9287.0322,3.4892s-.0156,3.1211-.0322,3.4717a2.22,2.22,0,0,1-2.209,2.3311c-1.1133.0527-2.6455.07-4.1455.07s-2.9678-.0176-3.9512-.07c-1.3389-.0518-2.0488-.8057-2.081-2.3311,0-.333-.0157-1.9287-.0157-3.5244s.0157-3.19.0157-3.4893a.8986.8986,0,0,1,.92-.9463.9189.9189,0,0,1,.9511.9122v.0517c-.0156.4736-.0322,4.12-.0322,5.751,0,1.1924,0,1.7529.8545,1.77.6943.0352,1.5645.0527,2.4844.0527Z"/><path class="g" d="M91.4355,26.4845a.8041.8041,0,0,1-.8222-.7891,1.0648,1.0648,0,0,1,.1455-.4912,8.2044,8.2044,0,0,0,.8867-2.8926.7112.7112,0,0,1,.71-.7012.831.831,0,0,1,.8056.876,11.3637,11.3637,0,0,1-1.0156,3.5772A.7981.7981,0,0,1,91.4355,26.4845Zm1.9034.2627.0644-5.9258a16.4854,16.4854,0,0,1-1.7578.2451.7409.7409,0,0,1-.6777-.8242.6538.6538,0,0,1,.581-.7188c.1778,0,.3867-.0176.6133-.0351.2734-.333.58-.7539.8867-1.209a15.6093,15.6093,0,0,0-1.7422-1.543.864.864,0,0,1-.3545-.667.7518.7518,0,0,1,.7256-.7705.915.915,0,0,1,.4034.1045,11.8757,11.8757,0,0,0,1.1611-2.8574.6982.6982,0,0,1,.7256-.5615.888.888,0,0,1,.9355.8066,13.51,13.51,0,0,1-1.6123,3.542l.5967.56a18.0808,18.0808,0,0,0,1.1445-2.3662.7675.7675,0,0,1,.7256-.5263.8682.8682,0,0,1,.8877.8242c0,.5781-1.42,2.84-2.581,4.4531l1.4521-.1758c-.291-.6133-.291-.6308-.291-.7363a.6293.6293,0,0,1,.6455-.5957c.7578,0,1.3867,1.8408,1.3867,2.2266a.8142.8142,0,0,1-.209.5605c.3711-.0166.709-.0342,1.1289-.0342.6123,0,1.5.0342,1.5,1.1739a2.4447,2.4447,0,0,1-.0644.5615c-.5488,2.8222-2.3711,4.8916-3.0645,4.8916a.9831.9831,0,0,1-.9033-.9473.7314.7314,0,0,1,.3389-.6133,6.4369,6.4369,0,0,0,2.1289-3.3838.1416.1416,0,0,0-.1455-.1572h-.0323l-.871.0694h-.0323a.6883.6883,0,0,1-.6445-.7715.942.942,0,0,1,.1445-.5254h-.08a.5163.5163,0,0,1-.5488-.4561l-.9189.1924.0322,6.1895a.86.86,0,0,1-.8555.9121.8208.8208,0,0,1-.8222-.8946Zm2.29-2.753a4.6862,4.6862,0,0,0-.4678-1.63.6782.6782,0,0,1-.08-.333.6517.6517,0,0,1,.6767-.6142.6115.6115,0,0,1,.5166.28,4.8693,4.8693,0,0,1,.7744,2.1044.8306.8306,0,0,1-.791.876C95.9678,24.6778,95.6777,24.4679,95.6289,23.9942ZM99.92,19.629c-2.2265-.1055-2.7588-.1582-2.7588-2.542,0-.6318.0323-1.2451.0489-1.9111.0644-1.5606,1.4511-1.6309,2.3545-1.6309.1132-.5078.21-1.0869.21-1.0869a.7843.7843,0,0,1,.8223-.5957.8543.8543,0,0,1,.9355.8066,3.4777,3.4777,0,0,1-.1933.876c.4189,0,.8545.0176,1.3222.0352a1.55,1.55,0,0,1,1.6455,1.4726c.0157.5967.0323,1.1924.0323,1.7705,0,.3516,0,.72-.0166,1.07a1.6711,1.6711,0,0,1-1.7735,1.6827l-1.13.0527.0166.4033a10.6717,10.6717,0,0,0,.7579,1.7881,8.1354,8.1354,0,0,0,1.3554-1.332.68.68,0,0,1,.5479-.2989.9818.9818,0,0,1,.9033.9473c0,.7012-1.6289,1.7354-1.9834,1.9639a7.5272,7.5272,0,0,0,2.0479,1.9111.9073.9073,0,0,1,.4511.7881.95.95,0,0,1-.9023.9648c-.6621,0-2.0322-1.1748-3.1944-3.77l.1133,2.42v.14a1.9152,1.9152,0,0,1-2.0156,2.1562c-1.0322,0-1.5322-.2627-1.5322-.999,0-.4561.2578-.9121.6933-.9121a.4081.4081,0,0,1,.1446.0176,3.1183,3.1183,0,0,0,.6132.0879c.3389,0,.5-.1924.5-.9463Zm-1.2422-2.4375c0,.123.0157.2637.0157.3857.0322.5616.3877.6143,2.1132.6143,1.5967,0,1.9034-.0879,1.9356-.6309,0-.123.0156-.2461.0156-.3691Zm4.0645-1.5772A.5751.5751,0,0,0,102.1455,15c-.5-.0176-.9844-.0352-1.4521-.0352s-.919.0176-1.3711.0352a.61.61,0,0,0-.6123.6318l-.0166.28h4.0644Z"/><path class="g" d="M113.0176,23.8018v.9463c.4678,0,.9355,0,1.3554-.0175h.0323a.6034.6034,0,0,1,.5644.6669.4586.4586,0,0,1-.0166.14,2.991,2.991,0,0,0,1.3711-2.2617.7159.7159,0,0,1,.7422-.666.8344.8344,0,0,1,.8711.789.5051.5051,0,0,1-.0166.1573,4.722,4.722,0,0,1-4.1934,4.2255.885.885,0,0,1-.9033-.9111.7671.7671,0,0,1,.5166-.7891c-.42,0-.8554.0176-1.3066.0176-2.6778,0-3.1778,0-3.1778-2.0693,0-.8936.0166-2.0156.0489-2.91l-.0323.0352a.8722.8722,0,0,1-.6777.333.7641.7641,0,0,1-.7578-.7539.8131.8131,0,0,1,.3066-.6309,11.6282,11.6282,0,0,0,2.209-2.7177h-1.3545a.7284.7284,0,0,1-.0478-1.4551.7194.7194,0,0,1-.5488-.6485.603.603,0,0,1,.1777-.4209,7.52,7.52,0,0,0,1.4678-2.35.629.629,0,0,1,.6123-.4033.8592.8592,0,0,1,.8877.7363c0,.1055-.0323.1758-.2266.5967h3.21a.7454.7454,0,0,1,0,1.49h-1.5c-.1289.333-.2579.666-.4034.999l2.1612-.0176a.7406.7406,0,0,1,0,1.4727l-2.8545-.0176c-.2578.4736-.5322.9463-.8223,1.4023h1.08c.0967-.2451.1934-.5078.3232-.9111a.5626.5626,0,0,1,.58-.3506c.4033,0,.8545.2451.8545.6133a1.747,1.747,0,0,1-.2412.6484h1.209a.632.632,0,0,1-.0156,1.2627h-.0166c-.419,0-.9512-.0176-1.4678-.0176v.7539h1.13a.5611.5611,0,1,1,0,1.1221h-1.13V22.68h1.13a.561.561,0,1,1,0,1.122Zm-3.0479-8.871c-.6133.8583-.79.9638-.9189.999H110.68c.1445-.3155.2734-.6485.4033-.999Zm1.5645,6.96h-1.1778c0,.2627-.0156.5264-.0156.7891h1.1934Zm0,1.9111h-1.1934v.4561c0,.2451.0967.4551.4678.4727.2256,0,.4678.0175.7256.0175Zm0-3.7871c-.3067,0-.5645.0176-.7578.0176-.2422,0-.3711.1572-.3877.4209,0,.0879-.0157.21-.0157.3154h1.1612Zm10.1767,3.419a.8266.8266,0,0,1,.8389.8418v.122c0,1.8584-.4512,3.0684-2.4512,3.0684-1.6455,0-1.8711-1.0518-1.8711-2.1387,0-1,.0166-1.9463.0489-2.8935-.4356,0-.8555-.0166-1.3067-.0342a1.59,1.59,0,0,1-1.6133-1.7363c-.0156-1.0694-.0322-2.2617-.0322-3.4541,0-.9991.0166-2.0157.0322-2.9981a1.6067,1.6067,0,0,1,1.629-1.665c.4521-.0352.8876-.0352,1.3232-.0352s.8867,0,1.3545.0352a1.6864,1.6864,0,0,1,1.6445,1.6484c.0332,1.0342.0488,2.1387.0488,3.2432,0,1.0869-.0156,2.1914-.0488,3.208a1.7689,1.7689,0,0,1-1.4668,1.7363c-.0322,1.0518-.0654,1.9278-.0654,2.752,0,.3857.0654.5439.4033.5439.5811,0,.791-.0879.791-1.2275v-.1924A.7373.7373,0,0,1,121.7109,23.4337Zm-1.9511-6.627h-2.8545v1.209H119.76Zm-.0323-2.1045c0-.6132-.1132-.6132-1.4834-.6132-.9843,0-1.3232.0175-1.3232.6308v.5967h2.8223Zm-2.8066,4.8037v.7891c0,.4561.1289.6143,1.2578.6143,1.3233,0,1.5166,0,1.5488-.6319,0-.2627.0157-.5254.0157-.7715Z"/><path class="g" d="M125.3916,27.7989a.9313.9313,0,0,1-.8867-1.0166.8831.8831,0,0,1,.5644-.8769c3.2745-.9991,4.0479-3.2256,4.3223-5.3477a.8631.8631,0,0,1,.9033-.7705.9368.9368,0,0,1,.9834.9111.962.962,0,0,1-.0156.211c-.5,2.56-1.4356,5.5048-5.4678,6.8193A1.1453,1.1453,0,0,1,125.3916,27.7989Zm12.3867-8.1348-3.79-.0527c0,1.6836-.0322,5.0147-.0322,5.2422.0156.5088.21.7188,1.2255.7188,1.0811,0,1.7422-.2276,1.7422-1.6133a.8717.8717,0,0,1,.8867-.9639.9615.9615,0,0,1,1,1.0693c0,3.1387-1.9834,3.3663-3.7255,3.3663-1.5157,0-2.919-.0879-2.919-2.1915V19.5938c-.8389,0-1.8555.0176-2,.0176s-3.8389.0352-4.4844.0527h-.0322a.8393.8393,0,0,1-.87-.8769.8981.8981,0,0,1,.9023-.9287l5.1289.0176-.0322-4.9268a.8666.8666,0,0,1,.9356-.8769.8907.8907,0,0,1,.9521.8769l-.0166,4.9268,5.1289-.0176a.8539.8539,0,0,1,.8545.9111.827.827,0,0,1-.8379.8945Zm-9.6289-2.7177a5.6444,5.6444,0,0,0-1.3379-1.6475.825.825,0,0,1-.3554-.6846.99.99,0,0,1,.9521-.9462c.6445,0,2.4834,1.7177,2.4834,2.6826a1.0949,1.0949,0,0,1-1,1.122A.8335.8335,0,0,1,128.1494,16.9464Zm6.2256.5439a.901.901,0,0,1-.8867-.9121,1.045,1.045,0,0,1,.3066-.7012,12.8619,12.8619,0,0,0,1.5645-2.1035.776.776,0,0,1,.6933-.4385,1.128,1.128,0,0,1,1.0489,1.087,1.0089,1.0089,0,0,1-.21.6132C135.2305,17.3321,134.7783,17.49,134.375,17.49Z"/><path class="g" d="M146.07,14.86c-.0967.5079-.2256,1.0166-.3711,1.5079h1.5488a1.4051,1.4051,0,0,1,1.5,1.455c0,.07-.3876,6.3643-5.0644,9.625a1.1857,1.1857,0,0,1-.6943.2451.9865.9865,0,0,1-.9834-.9638,1.0351,1.0351,0,0,1,.5488-.877,8.4791,8.4791,0,0,0,3.3545-3.8213,4.8055,4.8055,0,0,0-1.0488-.4384.7413.7413,0,0,1-.5645-.7539,1.0324,1.0324,0,0,1,.9521-1.0342,3.3661,3.3661,0,0,1,1.2735.5078,10.5109,10.5109,0,0,0,.3555-2.0508c0-.123-.0489-.2637-.2256-.2637h-.0332c-.1123,0-1.0157.0176-1.4512.0176a19.243,19.243,0,0,1-1.9834,3.9629,1.1483,1.1483,0,0,1-.92.5781.8814.8814,0,0,1-.8867-.8769,1.0651,1.0651,0,0,1,.2421-.666,15.396,15.396,0,0,0,2.7256-6.1534h-1.8066a.8311.8311,0,0,1-.8545-.8593.8217.8217,0,0,1,.8545-.8594H148.78a.805.805,0,0,1,.8222.8594.8142.8142,0,0,1-.8222.8593Zm3.71-.5615a.84.84,0,0,1,.8545-.9111.8791.8791,0,0,1,.8867.9287v8.8369a.8707.8707,0,0,1-1.7412,0Zm5.0957,10.87v.0352c0,1.0517-.6934,2.3672-2.7578,2.3672-.919,0-1.919-.0879-1.919-1.1045,0-.5088.29-1.0176.79-1.0176a.72.72,0,0,1,.1933.0176,4.8951,4.8951,0,0,0,1.0645.2109c.42,0,.8066-.1933.8066-.8594l.0322-11.4482a.88.88,0,1,1,1.7579,0v9.6074Z"/><path class="g" d="M166.1523,25.046l.0166,2.0342a.9.9,0,0,1-1.791,0l.0166-2.0342-5.1933.0176a.8063.8063,0,1,1,0-1.6123l5.1933.0175.0157-.9648c-.709,0-1.4346-.0176-2.129-.0352a1.6334,1.6334,0,0,1-1.79-1.6123c-.0156-.6142-.0322-1.2275-.0322-1.8056,0-.4912.0166-.9649.0322-1.3858a1.6249,1.6249,0,0,1,1.7422-1.5781c.5645-.0176,1.3389-.0342,2.1768-.0342l-.0157-.8769-4.5478.0175a.7982.7982,0,1,1,0-1.5957l4.5312.0176V12.669a.8284.8284,0,0,1,.8877-.8418.8416.8416,0,0,1,.9033.8418v.9463l4.6612-.0176a.7989.7989,0,0,1,0,1.5957l-4.6778-.0175-.0156.8769c.87,0,1.7256.0166,2.419.0342a1.6621,1.6621,0,0,1,1.6455,1.4385c.0322.3857.0322.8584.0322,1.3672,0,.666-.0166,1.3847-.0322,1.9463a1.7206,1.7206,0,0,1-1.7588,1.63c-.7578.0176-1.5322.0352-2.3057.0352l.0156.9648,5.2745-.0175a.8077.8077,0,0,1,0,1.6123ZM164.41,17.4727c-.6446,0-1.2413.0176-1.709.0352a.6286.6286,0,0,0-.6778.6309c0,.123-.0156.2451-.0156.3857h2.419Zm.0166,2.4366h-2.419c0,.6318,0,1.1045.709,1.122.5166.0176,1.0811.0176,1.6934.0176Zm4.21-1.3848c0-.1406-.0166-.28-.0166-.4033-.0322-.6309-.21-.6485-2.4834-.6485l-.0166,1.0518ZM166.12,19.9093l.0166,1.14c.6289,0,1.2578-.0176,1.8223-.0176.6777,0,.6777-.5078.6777-1.122Z"/><path class="g" d="M251.6959,28.4754a29.5258,29.5258,0,0,1,1.9124,4.7906,26.7862,26.7862,0,0,1-3.0831,1.7688,8.8977,8.8977,0,0,1-1.0048.5713,23.5714,23.5714,0,0,1-4.0056.2975,28.3271,28.3271,0,0,1-2.986-.0613,11.3329,11.3329,0,0,1-1.2679-1.29c-.7984-.9359-1.25-1.5056-2.065-2.5733a9.3566,9.3566,0,0,1-.9538-1.3052,11.05,11.05,0,0,1,.474-1.71c.1958-.6266.9883-1.25,1.3083-1.6553.1988-.2586.637-.6129,1.0586-1.0226a11.4717,11.4717,0,0,1,1.0092-1.03c.2691-.2049,1.86-1.555,2.3834-2.11a8.2378,8.2378,0,0,0,2.1336-2.7406,5.0994,5.0994,0,0,0,.4187-1.307,30.0327,30.0327,0,0,0-3.134-.5547c-1.2349-.2915-2.3474-.0837-3.2325-.3841a20.7292,20.7292,0,0,1-.3739-3.0622,4.9084,4.9084,0,0,1,0-2.1561c2.0141.1285,4.2345.299,6.5325.5667a12.8769,12.8769,0,0,1,1.9558.3423,8.7523,8.7523,0,0,1,.9494,1.3742,4.2307,4.2307,0,0,1,.8509,2.7256,10.9651,10.9651,0,0,1,0,1.3189,24.2326,24.2326,0,0,1-1.7494,1.9406c-1.271,1.3757-2.2878,2.4253-3.5482,3.71a6.7011,6.7011,0,0,0-2.1726,3.0757,6.2577,6.2577,0,0,0-.299,1.51,9.9281,9.9281,0,0,0,1.407.5233,4.2368,4.2368,0,0,0,2.3356-.2153c1.7463-.4709,4.4856-1.1065,5.1464-1.3367"/><path class="g" d="M256.3968,19.5445a67.118,67.118,0,0,1,8.3821.9c.3529.4232.661.9391,1.0646,1.5042a6.5638,6.5638,0,0,1,1.0108,1.4968c.0807.3872.1569,1.383.2228,2.0992a20.977,20.977,0,0,1,.1076,2.2264,13.4476,13.4476,0,0,1-1.3412,1.86,20.1977,20.1977,0,0,1-1.4548,1.6791,5.1557,5.1557,0,0,1-.8852-1.1991,6.2414,6.2414,0,0,1-.7311-1.3234c.2168-.2168,1.3486-.94,1.6163-1.1976a2.9825,2.9825,0,0,0,.6549-1.02,2.5078,2.5078,0,0,0-.2033-1.1439,3.8943,3.8943,0,0,0-1.3368-.78c-.59-.1107-2.3041-.22-3.5855-.2887a31.4438,31.4438,0,0,1-3.5809-.314,20.4486,20.4486,0,0,1-.1-4.32Z"/><path class="g" d="M271.618,5.9547a77.8283,77.8283,0,0,1,8.285.8753c-.2048,2.0223-.4591,3.9826-.7641,5.9189-.4231,2.6839-1.3636,5.2272-.7716,8.0831,2.8947-.7507,5.5323-2.1561,8.7381-2.835.3782,1.66.4544,3.55.7057,5.3036-2.3475.9837-5.0463,2.304-7.4491,3.4478a27.3223,27.3223,0,0,0-2.5134,1.1379,2.94,2.94,0,0,0-1.4683,2.3654c-.0495.3081-.1346.9285-.1346.9285.1808.6654,1.31,1.2979,1.9287,1.5386a26.592,26.592,0,0,0,3.9205.8791c1.38.2767,2.811.4665,4.043.7686a32.3979,32.3979,0,0,1-.38,3.7051,24.5321,24.5321,0,0,1-4.698-.7684,26.9762,26.9762,0,0,1-4.43-1.0318,6.8423,6.8423,0,0,1-1.0586-.5457,4.8812,4.8812,0,0,1-.9914-.7417,9.0555,9.0555,0,0,1-1.3068-1.8436,30.221,30.221,0,0,1-1.28-3.8233A13.1216,13.1216,0,0,1,272.07,27.26a7.3894,7.3894,0,0,1,.7058-1.7943c.23-.6309.38-1.1693.6474-1.8031-2.633-4.245-2.0752-11.3083-1.993-17.5508a.283.283,0,0,1,.1883-.1569"/><path class="g" d="M190.1362,25.1367a28.4389,28.4389,0,0,0-3.522,1.4174,16.188,16.188,0,0,0,.6017,3.0428,13.41,13.41,0,0,0,3.49.5845,28.3472,28.3472,0,0,0-.57-5.0447m4.3861-20.4381a5.23,5.23,0,0,1,.0747,1.6052c-.1069,1.5856-.2116,3.2274-.1673,4.47a33.36,33.36,0,0,1,3.66-.5159,41.1551,41.1551,0,0,1,.1779,4.5529c-1.2971.1436-2.3221-.0522-3.5788-.006-.1047.7207-.068,3.0682-.1623,4.245,2.0762.272,5.0456.9211,7.699,1.5145.8117.1885,2.3848.7463,2.3848.7463s1.1237,1.1676,1.66,1.79a10.7613,10.7613,0,0,1,1.5043,2.0544c.0187.592-.18,2.4013-.237,3.2237-.0659.8447-.1406,2.3055-.2827,3.1638a15.4327,15.4327,0,0,1-.9465,1.404c-.7266,1.0182-1.1909,1.6447-1.9751,2.6854-.3543.4665-.7259,1.0661-.9943,1.3351-.5039.1945-1.0549.3125-1.4413.4367-1.3742.4559-2.8192.8776-4.2344,1.2964a20.8811,20.8811,0,0,1,.0148-9.1717,35.41,35.41,0,0,1,3.7875.6475,6.4291,6.4291,0,0,0,.59-1.5864,11.4777,11.4777,0,0,0,.495-1.7,6.4073,6.4073,0,0,0-1.1537-1.0347,5.81,5.81,0,0,0-1.2978-.8372s-1.5326.0612-2.1882.1255a18.7306,18.7306,0,0,0-2.1449.3154c-.5106,2.9083-1.4937,7.9905-2.1441,11.5983a20.01,20.01,0,0,1-2.8895-.716c-.9338-.2588-2.32-.6042-2.8379-.8359a21.833,21.833,0,0,1-3.7014-2.9022c-.542-1.4742-.9157-2.5269-1.4608-4.2239-.145-.4606-.5047-1.5238-.5047-1.5238a17.8821,17.8821,0,0,1,1.2336-3.1981,9.9457,9.9457,0,0,1,1.3255-2.014,10.8308,10.8308,0,0,1,2.195-1.4878,13.6,13.6,0,0,0,2.13-1.0406c-.0187-1.0571.0464-2.1727.04-3.04-.711-.127-2.2061.1406-3.0891.0135-.17-1.6537-.1756-3.5212-.3177-5.22a28.4786,28.4786,0,0,1,3.187.036c-.0045-1.51-.2288-3.753-.1233-5.4651,1.5332-.2414,4.3952-.5628,5.7139-.74"/><path class="g" d="M209.9146,15.4089a28.8693,28.8693,0,0,1-2.3213,4.1027c-1.1019-.4993-2.1971-1.1422-3.2961-1.7733-1.0653-.6-2.0918-1.2319-3.1467-1.8465a18.2727,18.2727,0,0,1,1.16-4.1477,13.7914,13.7914,0,0,1,4.8295.2841,14.4318,14.4318,0,0,1,1.4271,1.6881,16.0241,16.0241,0,0,1,1.3472,1.6926"/><path class="g" d="M220.1247,17.4213c-.145,1.8288-.4336,4.2061-.5847,6.3682-.0239.2974-.0815.6459-.089.8716a7.7033,7.7033,0,0,0,1.2224,1.1693,5.9373,5.9373,0,0,0,1.1678-.8732c.4485-.3573.83-.598,1.1408-.8778a28.3092,28.3092,0,0,0,1.9871-2.4341c.32-.3664.6638-.7521,1.0512-1.1618a14.0643,14.0643,0,0,1,1.0825-1.12c.3094-.03.9854.03,1.4489.0478.924.0448,1.8645.0793,2.8064.1465a8.7835,8.7835,0,0,1,1.3172.15,7.8418,7.8418,0,0,1,.7612.9718c.5772.7237.9869,1.1274,1.5445,1.9467a7.33,7.33,0,0,1,.6833,1.0646,11.8793,11.8793,0,0,1-.3677,1.4071c-.1257.4634-.2363.8627-.3649,1.3606a29.4342,29.4342,0,0,1-3.1355.1181,13.7174,13.7174,0,0,1-1.0705-2.0619c-.36-.8133-.6655-1.7179-.9077-2.3325a3.9907,3.9907,0,0,0-1.217-.3335,7.3426,7.3426,0,0,0-1.0452,1.1066c-.38.4634-.6519.8088-.9509,1.1722a21.3659,21.3659,0,0,0-1.8975,2.331c-.456.7475-.7983,1.7643-1.2259,2.6346a9.02,9.02,0,0,1-1.4056,2.3773,14.6352,14.6352,0,0,1-2.3954.4352c-1.4308-1.0542-2.6315-2.2549-4.03-3.4929a15.5632,15.5632,0,0,1-1.3187-1.1753,17.617,17.617,0,0,1-.3573-1.99c-.3252-2.0514-.5532-4.0759-.8172-6.13a28.4316,28.4316,0,0,1,4.3451-1.7419,18.0526,18.0526,0,0,1,2.6226.0463"/></svg>