<svg xmlns="http://www.w3.org/2000/svg" viewBox="0 0 195.3686 98.2614"><defs><style>.a{fill:#e16ba7;}.b{fill:#fff;stroke:#e16ba7;stroke-miterlimit:10;stroke-width:1.0951px;}.c{fill:none;}</style></defs><path d="M1.7734,31.3493a.3241.3241,0,0,1-.37.0449.3248.3248,0,0,1-.1914-.3125v-.0771a1.4259,1.4259,0,0,1,.5615-1.1729l1.4414-1.1611a1.961,1.961,0,0,1,1.25-.4346.6986.6986,0,0,1,.7012.7022v7.9092a.7036.7036,0,0,1-1.1992.497.6772.6772,0,0,1-.2041-.497V29.78c0-.0088-.0039-.0127-.0127-.0127l-.0254.0127Z"/><path d="M9.0566,33.3767a.5738.5738,0,1,1,0-1.1475H19.3887a.5738.5738,0,1,1,0,1.1475h-7.168a.1314.1314,0,0,0-.1406.1152c-.0176.0762-.0772.2852-.1787.625-.0176.0762.0088.1152.0761.1152h6.06a.6175.6175,0,0,1,.4844.2168.6381.6381,0,0,1,.166.4981q-.1026,1.0313-.2109,1.664a7.3828,7.3828,0,0,1-.2422,1.0391,1.2284,1.2284,0,0,1-.3633.5938,1.1959,1.1959,0,0,1-.4717.2421,3.18,3.18,0,0,1-.6894.0577q-.548,0-2.41-.0772a.6313.6313,0,0,1-.4336-.1914.6158.6158,0,0,1-.1914-.42.526.526,0,0,1,.5606-.5615q1.3651.0628,2.0283.0634a1.852,1.852,0,0,0,.3769-.0254c.0713-.0175.1446-.0957.2168-.2363a1.93,1.93,0,0,0,.1651-.5488q.0585-.3369.1474-1.09c.0166-.0683-.0176-.1015-.1025-.1015h-5.459a.1492.1492,0,0,0-.1533.0888c-.0772.2041-.1914.4932-.3447.8672a.8014.8014,0,0,1-.3887.4209.7789.7789,0,0,1-.5684.0645.5411.5411,0,0,1-.3818-.3125.6088.6088,0,0,1-.0127-.5039,25.9628,25.9628,0,0,0,.8926-2.5137c.0166-.0586-.0088-.09-.0762-.09Zm8.84-5.8418a.7406.7406,0,0,1,.7275.7275V30.737a.6768.6768,0,0,1-.2168.5039.7138.7138,0,0,1-.5107.21H10.5488a.71.71,0,0,1-.51-.21.6768.6768,0,0,1-.2168-.5039V28.2624a.7406.7406,0,0,1,.7265-.7275Zm-.6377,2.7939V28.76a.102.102,0,0,0-.1152-.1153H11.3018a.1017.1017,0,0,0-.1143.1153v1.5693c0,.0674.0381.1026.1143.1026h5.8418C17.2207,30.4314,17.2588,30.3962,17.2588,30.3288Z"/><path d="M2.8193,56.2048a.0353.0353,0,0,0-.0127.0254.0114.0114,0,0,0,.0127.0127H6.1865a.5766.5766,0,0,1,.4082.9814.5508.5508,0,0,1-.4082.166h-4.72a.5653.5653,0,0,1-.5732-.5742,1.16,1.16,0,0,1,.4462-.9306,19.3034,19.3034,0,0,0,3.1436-2.9786,3.6139,3.6139,0,0,0,.8232-2.1494q0-1.6318-1.7343-1.6328a4.7929,4.7929,0,0,0-1.8887.4473.4366.4366,0,0,1-.4082-.0254.3784.3784,0,0,1-.1914-.3457,1.0308,1.0308,0,0,1,.166-.5733.8152.8152,0,0,1,.459-.3447,6.7077,6.7077,0,0,1,2.0537-.332,3.1872,3.1872,0,0,1,2.2139.709,2.52,2.52,0,0,1,.7841,1.9707,4.3161,4.3161,0,0,1-.8095,2.455A17.3607,17.3607,0,0,1,2.8193,56.2048Z"/><path d="M9.0566,53.2194a.5653.5653,0,0,1-.5742-.5732.5669.5669,0,0,1,.5742-.5742H19.3887a.5669.5669,0,0,1,.5742.5742.5653.5653,0,0,1-.5742.5732h-7.168a.1308.1308,0,0,0-.1406.1153q-.0264.1142-.1787.625c-.0176.0761.0088.1142.0761.1142h6.06a.6175.6175,0,0,1,.4844.2168.6381.6381,0,0,1,.166.4981q-.1026,1.0326-.2109,1.664a7.4007,7.4007,0,0,1-.2422,1.04,1.2244,1.2244,0,0,1-.3633.5927,1.1831,1.1831,0,0,1-.4717.2422,3.1079,3.1079,0,0,1-.6894.0586q-.548,0-2.41-.0771a.6357.6357,0,0,1-.4336-.1914.6164.6164,0,0,1-.1914-.4209.5247.5247,0,0,1,.5606-.5606q1.3651.063,2.0283.0625a1.852,1.852,0,0,0,.3769-.0254c.0713-.0166.1446-.0957.2168-.2353a1.94,1.94,0,0,0,.1651-.5488q.0585-.3384.1474-1.0909c.0166-.0683-.0176-.1015-.1025-.1015h-5.459a.1485.1485,0,0,0-.1533.09c-.0772.2031-.1914.4922-.3447.8672a.7962.7962,0,0,1-.3887.42.7789.7789,0,0,1-.5684.0645.5387.5387,0,0,1-.3818-.3125.6088.6088,0,0,1-.0127-.5039,25.8686,25.8686,0,0,0,.8926-2.5137c.0166-.0586-.0088-.0889-.0762-.0889Zm8.84-5.8418a.7406.7406,0,0,1,.7275.7276V50.58a.6784.6784,0,0,1-.2168.5039.7142.7142,0,0,1-.5107.21H10.5488a.71.71,0,0,1-.51-.21.6784.6784,0,0,1-.2168-.5039V48.1052a.7406.7406,0,0,1,.7265-.7276Zm-.6377,2.794v-1.57a.1013.1013,0,0,0-.1152-.1143H11.3018a.101.101,0,0,0-.1143.1143v1.57c0,.0674.0381.1015.1143.1015h5.8418C17.2207,50.2731,17.2588,50.239,17.2588,50.1716Z"/><path d="M6.2246,69.4646,3.9033,71.7224a.0387.0387,0,0,0-.0127.0263c0,.0088.0039.0127.0127.0127h.2422a2.6827,2.6827,0,0,1,1.9268.6563A2.4813,2.4813,0,0,1,6.7607,74.3a2.8929,2.8929,0,0,1-.8867,2.2578,3.5779,3.5779,0,0,1-2.4931.8037,6.8116,6.8116,0,0,1-1.7989-.2421.8092.8092,0,0,1-.4531-.3125.8984.8984,0,0,1-.1719-.542.4022.4022,0,0,1,.1973-.3575.45.45,0,0,1,.415-.0507,5.509,5.509,0,0,0,1.8116.3564,2.02,2.02,0,0,0,1.46-.4971A1.8722,1.8722,0,0,0,5.3574,74.3a1.2981,1.2981,0,0,0-.5547-1.1543,3.3082,3.3082,0,0,0-1.8047-.376H2.6406a.547.547,0,0,1-.5361-.5361,1.1862,1.1862,0,0,1,.3828-.9053l2.3477-2.22a.04.04,0,0,0,.0127-.0254A.0114.0114,0,0,0,4.835,69.07H1.4668a.5742.5742,0,1,1,0-1.1484H6.06a.5653.5653,0,0,1,.5732.5742A1.268,1.268,0,0,1,6.2246,69.4646Z"/><path d="M9.0566,73.0622a.5773.5773,0,0,1-.4082-.9824.56.56,0,0,1,.4082-.166H19.3887a.5773.5773,0,0,1,.4082.9824.551.551,0,0,1-.4082.166h-7.168a.1315.1315,0,0,0-.1406.1152c-.0176.0762-.0772.2852-.1787.625-.0176.0762.0088.1153.0761.1153h6.06a.6171.6171,0,0,1,.4844.2168.6368.6368,0,0,1,.166.497q-.1026,1.0327-.2109,1.6651a7.4115,7.4115,0,0,1-.2422,1.039,1.2376,1.2376,0,0,1-.3633.5938,1.2108,1.2108,0,0,1-.4717.2422,3.2585,3.2585,0,0,1-.6894.0566q-.548,0-2.41-.0761a.6354.6354,0,0,1-.4336-.1915.6179.6179,0,0,1-.1914-.4209.526.526,0,0,1,.5606-.5615q1.3651.0645,2.0283.0645a1.93,1.93,0,0,0,.3769-.0254c.0713-.0176.1446-.0957.2168-.2363a1.9406,1.9406,0,0,0,.1651-.5489c.039-.2246.0879-.5888.1474-1.09q.0249-.1026-.1025-.1026h-5.459a.15.15,0,0,0-.1533.0889c-.0772.2051-.1914.4942-.3447.8672a.8.8,0,0,1-.3887.4219.78.78,0,0,1-.5684.0635.5387.5387,0,0,1-.3818-.3125.609.609,0,0,1-.0127-.504,26.0318,26.0318,0,0,0,.8926-2.5126c.0166-.06-.0088-.09-.0762-.09Zm8.84-5.8418a.7406.7406,0,0,1,.7275.7266v2.4746a.6768.6768,0,0,1-.2168.5039.711.711,0,0,1-.5107.2109H10.5488a.7071.7071,0,0,1-.51-.2109.6768.6768,0,0,1-.2168-.5039V67.947a.7407.7407,0,0,1,.7265-.7266Zm-.6377,2.793V68.445a.102.102,0,0,0-.1152-.1152H11.3018a.1017.1017,0,0,0-.1143.1152v1.5684q0,.1024.1143.1025h5.8418C17.2207,70.1159,17.2588,70.0817,17.2588,70.0134Z"/><path d="M.5615,95.0349a.5367.5367,0,0,1-.3955-.166A.54.54,0,0,1,0,94.4743a1.75,1.75,0,0,1,.3193-1.0215l3.5586-5.1269a1.2344,1.2344,0,0,1,1.084-.5625.6988.6988,0,0,1,.6895.6894V93.81c0,.0683.0381.1015.1142.1015H6.582a.5593.5593,0,0,1,.3955.9571.5364.5364,0,0,1-.3955.166H5.7656a.1016.1016,0,0,0-.1142.1152v1.2363a.6858.6858,0,0,1-1.1739.4854.664.664,0,0,1-.2041-.4854V95.15a.1019.1019,0,0,0-.1152-.1152Zm.8545-1.16c0,.0078-.0019.0117-.0058.0117s-.0069.0049-.0069.0137.0039.0117.0127.0117H4.1582c.0772,0,.1152-.0332.1152-.1015V89.8044c0-.0078-.0048-.0117-.0127-.0117-.0175,0-.0253.0039-.0253.0117Z"/><path d="M9.0566,92.904a.5738.5738,0,1,1,0-1.1475H19.3887a.5738.5738,0,1,1,0,1.1475h-7.168a.1315.1315,0,0,0-.1406.1152c-.0176.0762-.0772.2852-.1787.625-.0176.0762.0088.1153.0761.1153h6.06a.6171.6171,0,0,1,.4844.2168.6378.6378,0,0,1,.166.498q-.1026,1.0313-.2109,1.6641a7.3776,7.3776,0,0,1-.2422,1.039,1.2284,1.2284,0,0,1-.3633.5938,1.1975,1.1975,0,0,1-.4717.2422,3.1814,3.1814,0,0,1-.6894.0576q-.548,0-2.41-.0771a.6314.6314,0,0,1-.4336-.1915.6156.6156,0,0,1-.1914-.42.526.526,0,0,1,.5606-.5615q1.3651.063,2.0283.0635a1.852,1.852,0,0,0,.3769-.0254c.0713-.0176.1446-.0957.2168-.2363a1.93,1.93,0,0,0,.1651-.5489q.0585-.3369.1474-1.09c.0166-.0684-.0176-.1016-.1025-.1016h-5.459a.1491.1491,0,0,0-.1533.0889c-.0772.2041-.1914.4932-.3447.8672a.8021.8021,0,0,1-.3887.4209.7794.7794,0,0,1-.5684.0644.5406.5406,0,0,1-.3818-.3125.6088.6088,0,0,1-.0127-.5039,25.9613,25.9613,0,0,0,.8926-2.5136c.0166-.0586-.0088-.09-.0762-.09Zm8.84-5.8418a.7406.7406,0,0,1,.7275.7275v2.4747a.6771.6771,0,0,1-.2168.5039.7141.7141,0,0,1-.5107.21H10.5488a.71.71,0,0,1-.51-.21.6771.6771,0,0,1-.2168-.5039V87.79a.7406.7406,0,0,1,.7265-.7275Zm-.6377,2.794V88.2868a.1019.1019,0,0,0-.1152-.1152H11.3018a.1017.1017,0,0,0-.1143.1152v1.5694c0,.0673.0381.1025.1143.1025h5.8418C17.2207,89.9587,17.2588,89.9235,17.2588,89.8562Z"/><path d="M110.36,17.4939a16.9654,16.9654,0,0,0-4.1065-3.9122h13.7617v.9375H108.7832a13.688,13.688,0,0,1,2.38,2.4981Zm5.623-12.3477A16.7819,16.7819,0,0,0,120.09,9.0739H106.3281V8.1364h11.2324a13.6983,13.6983,0,0,1-2.38-2.5Z"/><path class="a" d="M117.8242,32.6315a.3911.3911,0,0,1,0,.6749l-8.2041,4.746a.3992.3992,0,0,1-.59-.35l-.0127-9.48a.3724.3724,0,0,1,.1992-.3438.3563.3563,0,0,1,.3916.0059Z"/><path class="a" d="M116.74,47.7272a.3546.3546,0,0,1,.3916-.0068.3727.3727,0,0,1,.1983.3438l-.0117,9.4814a.3846.3846,0,0,1-.1983.3486.3455.3455,0,0,1-.3916,0l-8.2041-4.7461a.39.39,0,0,1,0-.6738Z"/><path class="a" d="M117.8242,72.3161a.391.391,0,0,1,0,.6748L109.62,77.738a.3992.3992,0,0,1-.59-.35l-.0127-9.4815a.3708.3708,0,0,1,.1992-.3427.3563.3563,0,0,1,.3916.0058Z"/><path class="a" d="M116.74,87.4118a.3563.3563,0,0,1,.3916-.0058.3715.3715,0,0,1,.1983.3437l-.0117,9.48a.3863.3863,0,0,1-.1983.35.3491.3491,0,0,1-.3916,0l-8.2041-4.7461a.3911.3911,0,0,1,0-.6748Z"/><rect class="b" x="31.5278" y="0.5476" width="68" height="20"/><path d="M51.5215,10.7282a.0422.0422,0,0,0,.0254-.039q-.753-.4585-1.62-.9688a.5251.5251,0,0,1-.2618-.4023.4782.4782,0,0,1,.1729-.4395l.1269-.1152a.04.04,0,0,0,.0127-.0508.0385.0385,0,0,0-.038-.0254H48.6387a.5235.5235,0,0,1,0-1.0469H49.876a.062.062,0,0,0,.0576-.0312.0424.0424,0,0,0-.0068-.0576.7276.7276,0,0,1-.0889-.3194V6.8239c0-.0674-.0381-.1015-.1152-.1015H47.6436a.5678.5678,0,0,1-.5489-.5489.5678.5678,0,0,1,.5489-.5488h2.0791c.0771,0,.1152-.0332.1152-.1016v-.332a.66.66,0,0,1,.1914-.4775.6287.6287,0,0,1,.4717-.1983.6753.6753,0,0,1,.6758.6758v.332a.09.09,0,0,0,.1025.1016H54.251c.0771,0,.1152-.0332.1152-.1016v-.332a.66.66,0,0,1,.1914-.4775.6289.6289,0,0,1,.4717-.1983.6753.6753,0,0,1,.6758.6758v.332a.09.09,0,0,0,.1025.1016h2.0918a.5415.5415,0,0,1,.3828.9317.5229.5229,0,0,1-.3828.166H55.8076a.09.09,0,0,0-.1025.1015v.4082a.7276.7276,0,0,1-.0889.3194.0423.0423,0,0,0-.0068.0576.062.062,0,0,0,.0576.0312h1.4922a.5251.5251,0,0,1,.5234.5235.9129.9129,0,0,1-.4336.8164,28.9817,28.9817,0,0,1-3.2021,1.709c-.0088.0175-.0088.03,0,.039h3.8525a.5679.5679,0,0,1,.5488.5479,1.5772,1.5772,0,0,1-.332.9824,14.17,14.17,0,0,1-1.9775,2.0791.7185.7185,0,0,1-.49.1719.7779.7779,0,0,1-.4912-.1846.5053.5053,0,0,1-.1728-.4268.5888.5888,0,0,1,.2109-.415,13.8336,13.8336,0,0,0,1.6455-1.582c.0342-.0508.0254-.0762-.0254-.0762h-2.666a.0906.0906,0,0,0-.1025.1025V14.529a5.2494,5.2494,0,0,1-.044.8037.7411.7411,0,0,1-.2617.44,1.0159,1.0159,0,0,1-.5615.2227,10.35,10.35,0,0,1-1.0459.0391q-.1026,0-1.6328-.0518a.6423.6423,0,0,1-.4151-.1719.5723.5723,0,0,1-.1845-.4013.4868.4868,0,0,1,.1465-.3828.4649.4649,0,0,1,.3769-.1543q1.0709.0395,1.5176.039a1.5232,1.5232,0,0,0,.6377-.07c.0595-.0469.09-.2148.09-.5039V12.17a.0546.0546,0,0,0-.0263-.0449.0354.0354,0,0,0-.0508.0059,17.6576,17.6576,0,0,1-4.4649,3.125.6308.6308,0,0,1-.49.0322.7258.7258,0,0,1-.39-.3.5205.5205,0,0,1-.0507-.4463.5386.5386,0,0,1,.2929-.3311,17.4185,17.4185,0,0,0,3.7119-2.3222.033.033,0,0,0-.0126-.0635H47.6436a.5484.5484,0,0,1,0-1.0967ZM50.4248,8.7507q1.6451.9448,2.1934,1.2881a.1984.1984,0,0,0,.1914.0254q1.327-.586,2.6279-1.3135a.05.05,0,0,0,.0127-.0381.0223.0223,0,0,0-.0254-.0254H50.4375c-.0176,0-.0254.0078-.0254.0254A.05.05,0,0,0,50.4248,8.7507Zm.752-1.5186a.7276.7276,0,0,1-.0889.3194.0423.0423,0,0,0-.0068.0576.062.062,0,0,0,.0576.0312h3.2656a.062.062,0,0,0,.0576-.0312.0423.0423,0,0,0-.0068-.0576.7276.7276,0,0,1-.0889-.3194V6.8239c0-.0674-.0381-.1015-.1152-.1015H51.2793a.09.09,0,0,0-.1025.1015Z"/><path d="M73.2314,15.7282a.59.59,0,0,1-.4335-.1211.5472.5472,0,0,1-.2168-.3886.5605.5605,0,0,1,.1337-.4336.5845.5845,0,0,1,.4024-.2178q.5859-.063,1.76-.2168a.1245.1245,0,0,0,.1152-.1279v-1.211c0-.0683-.0381-.1025-.1152-.1025H73.2832a.4927.4927,0,0,1-.37-.1592.525.525,0,0,1-.1533-.3769.5234.5234,0,0,1,.5234-.5225H74.877c.0771,0,.1152-.0342.1152-.1025v-.7393a.101.101,0,0,0-.1152-.1143H73.6143a.7406.7406,0,0,1-.7266-.7275V5.6892a.7406.7406,0,0,1,.7266-.7266h4.0312a.7406.7406,0,0,1,.7266.7266V9.3239c0,.0518.03.0684.09.0518a.65.65,0,0,1,.23-.0381h2.1172q.0264,0,.0381-.0322c.0088-.0205.0049-.0362-.0127-.044q-.65-.6767-1.3389-1.3017a.5474.5474,0,0,1-.1846-.4014.5649.5649,0,0,1,.1592-.415.5747.5747,0,0,1,.4209-.1787.6.6,0,0,1,.4209.166q.1275.1141.3633.3506t.3633.35c.0517.0508.0976.0557.1406.0137q.65-.7147,1.25-1.5185c.043-.06.0254-.0889-.0508-.0889H79.3926a.5742.5742,0,1,1,0-1.1484h3.916a.5669.5669,0,0,1,.5742.5742,1.7759,1.7759,0,0,1-.3183,1.0586,18.7783,18.7783,0,0,1-1.5567,1.9648c-.0508.0508-.0469.1016.0127.1524l.3828.4218a.2216.2216,0,0,0,.1787.0762h1.1485a.5653.5653,0,0,1,.5732.5742A2.8492,2.8492,0,0,1,84.1,11.0085a12.6955,12.6955,0,0,1-.8037,1.6064.566.566,0,0,1-.376.2754.5535.5535,0,0,1-.4531-.0839.6174.6174,0,0,1-.1914-.8282,11.3722,11.3722,0,0,0,.7275-1.3906.0912.0912,0,0,0-.0068-.0762.0613.0613,0,0,0-.0566-.039H81.8936a.102.102,0,0,0-.1153.1152v3.5586a3.4663,3.4663,0,0,1-.2041,1.5625q-.2035.2871-1.1221.2871c-.4082,0-.7578-.0078-1.0468-.0254a.6223.6223,0,0,1-.4209-.1914.6341.6341,0,0,1-.1905-.4336.4962.4962,0,0,1,.1524-.4023.53.53,0,0,1,.4082-.1465q.2813.0132.6767.0137c.2208,0,.3506-.0284.3887-.084a1.5374,1.5374,0,0,0,.0576-.58V10.5876a.1019.1019,0,0,0-.1152-.1152H78.6914a.5308.5308,0,0,1-.2422-.0508c-.06-.0332-.1064-.0176-.1406.0508a.6726.6726,0,0,1-.6631.4218H76.4463a.1007.1007,0,0,0-.1143.1143v.7393q0,.1025.1143.1025h1.4668a.523.523,0,1,1,0,1.0459H76.4463a.1017.1017,0,0,0-.1143.1152v1.02a.119.119,0,0,0,.0313.0771.0616.0616,0,0,0,.07.0254c.6035-.0928,1.0967-.1748,1.48-.2422a.4382.4382,0,0,1,.37.0957.4676.4676,0,0,1,.1787.3506.56.56,0,0,1-.1406.4082.6867.6867,0,0,1-.3828.23Q75.2226,15.4733,73.2314,15.7282ZM74.1,6.1872V7.36a.09.09,0,0,0,.1016.1025h.6758c.0771,0,.1152-.0342.1152-.1025V6.1872c0-.0683-.0381-.1025-.1152-.1025h-.6758A.09.09,0,0,0,74.1,6.1872Zm.7774,3.6856a.1013.1013,0,0,0,.1152-.1143V8.5339A.1009.1009,0,0,0,74.877,8.42h-.6758c-.0684,0-.1016.0371-.1016.1143V9.7585c0,.0762.0332.1143.1016.1143Zm1.455-3.6856V7.36q0,.1025.1143.1025h.6377c.0771,0,.1152-.0342.1152-.1025V6.1872c0-.0683-.0381-.1025-.1152-.1025h-.6377Q76.332,6.0847,76.332,6.1872Zm0,2.3467V9.7585a.101.101,0,0,0,.1143.1143h.6377a.1013.1013,0,0,0,.1152-.1143V8.5339A.1009.1009,0,0,0,77.084,8.42h-.6377A.1006.1006,0,0,0,76.332,8.5339Z"/><path class="c" d="M47.166,36.54a3.5061,3.5061,0,0,1-5.167,0,6.1,6.1,0,0,1-.86-3.6474,6.1009,6.1009,0,0,1,.86-3.6484,3.5061,3.5061,0,0,1,5.167,0,6.1,6.1,0,0,1,.86,3.6484A6.0987,6.0987,0,0,1,47.166,36.54ZM46.12,30.0661a1.8312,1.8312,0,0,0-3.0742,0,5.7806,5.7806,0,0,0-.5039,2.8262,5.7739,5.7739,0,0,0,.5039,2.8242,1.8312,1.8312,0,0,0,3.0742,0,5.7983,5.7983,0,0,0,.5029-2.8242A5.805,5.805,0,0,0,46.12,30.0661Z"/><path d="M52.6826,37.6755q-3.3809,0-3.3808-4.21a6.5826,6.5826,0,0,1,1.02-4.0244,3.4737,3.4737,0,0,1,2.9345-1.333,6.3814,6.3814,0,0,1,1.1983.1143.68.68,0,0,1,.4277.2617.792.792,0,0,1,.1592.4922.4006.4006,0,0,1-.1787.3437.4886.4886,0,0,1-.4082.0762,5.2257,5.2257,0,0,0-1.1983-.1406,2.1442,2.1442,0,0,0-1.6523.7207,3.4674,3.4674,0,0,0-.7842,2.0605c0,.0176.0039.0254.0127.0254h.0254a2.898,2.898,0,0,1,2.1426-.7656,2.85,2.85,0,0,1,3.0615,3.0625,3.2118,3.2118,0,0,1-.918,2.4355A3.41,3.41,0,0,1,52.6826,37.6755Zm0-5.32a1.8859,1.8859,0,0,0-1.41.5556,1.9845,1.9845,0,0,0-.542,1.4483,2.2265,2.2265,0,0,0,.5488,1.581,1.8333,1.8333,0,0,0,1.4033.587,1.9052,1.9052,0,0,0,1.4541-.5547,2.2677,2.2677,0,0,0,.5225-1.6133,1.9735,1.9735,0,0,0-.542-1.461A1.94,1.94,0,0,0,52.6826,32.3552Z"/><path d="M59.0479,32.573a.7424.7424,0,0,1-.7276-.7276v-.459a.7406.7406,0,0,1,.7276-.7265h.2041a.7407.7407,0,0,1,.7265.7265v.459a.7424.7424,0,0,1-.7265.7276Zm0,4.9746A.7406.7406,0,0,1,58.32,36.82v-.459a.7406.7406,0,0,1,.7276-.7265h.2041a.7407.7407,0,0,1,.7265.7265v.459a.7406.7406,0,0,1-.7265.7276Z"/><path d="M68.0781,29.779l-2.3213,2.2578a.0371.0371,0,0,0-.0127.0254c0,.0088.0039.0137.0127.0137h.2422a2.6784,2.6784,0,0,1,1.9258.6562,2.4741,2.4741,0,0,1,.6895,1.8809,2.89,2.89,0,0,1-.8868,2.2578,3.5748,3.5748,0,0,1-2.4941.8047,6.8515,6.8515,0,0,1-1.7979-.2422.8154.8154,0,0,1-.4531-.3125.8953.8953,0,0,1-.1719-.543.4044.4044,0,0,1,.1973-.3574.456.456,0,0,1,.4151-.0508,5.4813,5.4813,0,0,0,1.8105.3575,2.0195,2.0195,0,0,0,1.4609-.4981,1.87,1.87,0,0,0,.5166-1.416,1.3,1.3,0,0,0-.5547-1.1543,3.3183,3.3183,0,0,0-1.8046-.375h-.3575a.5455.5455,0,0,1-.5361-.5371,1.1826,1.1826,0,0,1,.3828-.9043l2.3467-2.2207a.0351.0351,0,0,0,.0137-.0254c0-.0078-.0049-.0117-.0137-.0117H63.32a.5743.5743,0,1,1,0-1.1485h4.5918a.5671.5671,0,0,1,.5742.5743A1.2691,1.2691,0,0,1,68.0781,29.779Z"/><path d="M76.3,36.54a3.5061,3.5061,0,0,1-5.167,0,6.1,6.1,0,0,1-.86-3.6474,6.1009,6.1009,0,0,1,.86-3.6484,3.5061,3.5061,0,0,1,5.167,0,6.1009,6.1009,0,0,1,.86,3.6484A6.0994,6.0994,0,0,1,76.3,36.54Zm-1.0459-6.4736a1.8312,1.8312,0,0,0-3.0742,0,5.7806,5.7806,0,0,0-.5039,2.8262,5.7739,5.7739,0,0,0,.5039,2.8242,1.8312,1.8312,0,0,0,3.0742,0,5.7983,5.7983,0,0,0,.5029-2.8242A5.805,5.805,0,0,0,75.2539,30.0661Z"/><path d="M86.5742,32.6755c-.0762,0-.1152.0332-.1152.1016v1.2753a.1024.1024,0,0,0,.1152.1153h2.6026a.578.578,0,0,1,.4082.9824.5607.5607,0,0,1-.4082.165H86.5742a.1017.1017,0,0,0-.1152.1143v1.6328c0,.18.041.2871.1221.3262a2.6264,2.6264,0,0,0,.746.0566,1.6869,1.6869,0,0,0,.86-.1328q.1728-.1347.2236-.7978a.6739.6739,0,0,1,.2168-.4463.566.566,0,0,1,.459-.1534.6573.6573,0,0,1,.459.2354.686.686,0,0,1,.166.4922c-.0166.3223-.04.582-.07.7773a1.4713,1.4713,0,0,1-.1777.5235,1.34,1.34,0,0,1-.2618.3379,1.0573,1.0573,0,0,1-.4658.1718,4.4976,4.4976,0,0,1-.6572.0772c-.2119.0088-.5273.0127-.9434.0127a8.5482,8.5482,0,0,1-1.3711-.0762.8235.8235,0,0,1-.5429-.2617,1.1311,1.1311,0,0,1-.127-.6192V35.4294a.1013.1013,0,0,0-.1152-.1143H83.1172a.1235.1235,0,0,0-.127.1143,4.341,4.341,0,0,1-3.3681,3.1387.6257.6257,0,0,1-.4912-.0508.7334.7334,0,0,1-.3379-.3828.5307.5307,0,0,1,.0254-.4531.5878.5878,0,0,1,.3574-.3,3.3808,3.3808,0,0,0,2.373-1.9775c.0166-.0586-.0088-.0889-.0771-.0889H79.2266a.5654.5654,0,0,1-.5743-.5732.5671.5671,0,0,1,.5743-.5742h2.4365c.0683,0,.1025-.0391.1025-.1153,0-.0175.002-.0507.0059-.1015s.0068-.086.0068-.1026V32.7771c0-.0684-.039-.1016-.1152-.1016h-.4844a.5181.5181,0,0,1-.498-.32c-.0342-.0674-.0762-.08-.127-.0371q-.5493.3574-1.2119.7265a.5619.5619,0,0,1-.4717.045.6022.6022,0,0,1-.3574-.3125.6528.6528,0,0,1-.0381-.4913A.6208.6208,0,0,1,78.78,31.91q1.0077-.548,1.5947-.9444a.0593.0593,0,0,0,.0381-.0634.1038.1038,0,0,0-.0254-.0762c-.7568-.6817-1.1484-1.0332-1.1738-1.06a.54.54,0,0,1-.1973-.4082.5515.5515,0,0,1,.1719-.4209.6884.6884,0,0,1,.4463-.1914.6586.6586,0,0,1,.459.1533q.2432.2037,1.289,1.1612a.1336.1336,0,0,0,.166.0117,9.16,9.16,0,0,0,1.3643-1.4278.0425.0425,0,0,0,.0068-.0576.0648.0648,0,0,0-.0576-.0322H80.5664a.5491.5491,0,0,1-.3955-.1592.5193.5193,0,0,1-.166-.39.5669.5669,0,0,1,.5615-.5606H84.1a1.2055,1.2055,0,0,1,1.084.625,8.3412,8.3412,0,0,0,.5488.7774.08.08,0,0,0,.1406.0136q.4336-.4848.8165-.97a.6224.6224,0,0,1,.3945-.249.6514.6514,0,0,1,.46.083.5574.5574,0,0,1,.2608.37.5176.5176,0,0,1-.0947.4209q-.5113.65-1.02,1.1992a.0951.0951,0,0,0,0,.1534c.1953.1777.4335.3828.7138.6113a.107.107,0,0,0,.1533,0,15.0983,15.0983,0,0,0,.9688-1.16.6241.6241,0,0,1,.4023-.248.658.658,0,0,1,.4659.082.5575.5575,0,0,1,.2607.377.5282.5282,0,0,1-.0947.4267q-.4468.561-1.0342,1.1992a.0871.0871,0,0,0-.0186.0772.0657.0657,0,0,0,.045.0625q.74.46,1.0332.6133a.6524.6524,0,0,1,.3125.3759.6427.6427,0,0,1-.0323.4913.573.573,0,0,1-.37.3183.6038.6038,0,0,1-.4844-.0508q-.4467-.2549-1.1611-.7265c-.06-.0342-.1064-.0176-.14.0508a.52.52,0,0,1-.4981.3066Zm-4.8857-1.1231H86.69a.04.04,0,0,0,.038-.0253.0267.0267,0,0,0-.0127-.0391A12.62,12.62,0,0,1,84.24,28.8864c-.0341-.0508-.0722-.0468-.1152.0127a12.4584,12.4584,0,0,1-2.4619,2.5889.0262.0262,0,0,0-.0127.0391A.04.04,0,0,0,81.6885,31.5524Zm3.4062,2.5V32.7771c0-.0684-.0381-.1016-.1152-.1016H83.2578c-.0771,0-.1152.0332-.1152.1016v1.2753a.102.102,0,0,0,.1152.1153H84.98A.102.102,0,0,0,85.0947,34.0524Z"/><path d="M42.5293,51.1911a.3426.3426,0,0,1-.5615-.2685v-.0772a1.4242,1.4242,0,0,1,.5615-1.1728l1.4414-1.1612a1.96,1.96,0,0,1,1.25-.4336.6969.6969,0,0,1,.7012.7012v7.9092a.7017.7017,0,1,1-1.4033,0V49.6208c0-.0078-.004-.0117-.0127-.0117l-.0254.0117Z"/><path d="M49.3535,55.3493a.5668.5668,0,0,1-.5615-.5615,1.7541,1.7541,0,0,1,.3184-1.02l3.56-5.1279a1.2356,1.2356,0,0,1,1.084-.5616.697.697,0,0,1,.6885.6895v5.3574c0,.0684.039.1016.1152.1016h.8164a.5615.5615,0,0,1,0,1.123h-.8164a.1017.1017,0,0,0-.1152.1143v1.2373a.6885.6885,0,0,1-1.377,0V55.4636a.1013.1013,0,0,0-.1152-.1143Zm.8545-1.1611c0,.0088-.0019.0127-.0068.0127s-.0059.0039-.0059.0127.0039.0127.0127.0127H52.95c.0771,0,.1152-.0332.1152-.1016V50.1189a.0118.0118,0,0,0-.0127-.0127c-.0175,0-.0254.0048-.0254.0127Z"/><path d="M59.0479,52.4157a.7422.7422,0,0,1-.7276-.7275v-.46a.7406.7406,0,0,1,.7276-.7265h.2041a.7407.7407,0,0,1,.7265.7265v.46a.7423.7423,0,0,1-.7265.7275Zm0,4.9746a.7406.7406,0,0,1-.7276-.7275v-.46a.7406.7406,0,0,1,.7276-.7265h.2041a.7407.7407,0,0,1,.7265.7265v.46a.7406.7406,0,0,1-.7265.7275Z"/><path d="M64.6729,56.2028a.0391.0391,0,0,0-.0127.0264c0,.0088.0039.0127.0127.0127H68.04a.5742.5742,0,1,1,0,1.1484H63.32a.5669.5669,0,0,1-.5742-.5742,1.1615,1.1615,0,0,1,.4463-.9316,19.2374,19.2374,0,0,0,3.1445-2.9785,3.6122,3.6122,0,0,0,.8233-2.1495q0-1.6332-1.7354-1.6318a4.8184,4.8184,0,0,0-1.8877.4453.431.431,0,0,1-.4082-.0254.3764.3764,0,0,1-.1914-.3437,1.032,1.032,0,0,1,.166-.5742.815.815,0,0,1,.459-.3448,6.7017,6.7017,0,0,1,2.0537-.331,3.193,3.193,0,0,1,2.2139.707,2.5219,2.5219,0,0,1,.7842,1.9707,4.32,4.32,0,0,1-.8106,2.4561A17.32,17.32,0,0,1,64.6729,56.2028Z"/><path d="M71.5225,57.2878a.7665.7665,0,0,1-.4463-.3193.94.94,0,0,1-.166-.5479.386.386,0,0,1,.1972-.3506.4637.4637,0,0,1,.4151-.0449,5.1483,5.1483,0,0,0,1.6836.3438,1.889,1.889,0,0,0,2.1689-2.1036q0-1.7739-1.6582-1.7734a2.3089,2.3089,0,0,0-1.0469.23,2.7168,2.7168,0,0,1-1.084.331.5664.5664,0,0,1-.4267-.1777.5452.5452,0,0,1-.16-.4219l.1914-3.6484a.7913.7913,0,0,1,.2422-.5156.7237.7237,0,0,1,.5235-.211h3.8652a.5743.5743,0,1,1,0,1.1485H72.6064c-.0683,0-.1015.0381-.1015.1152l-.1279,2.4229c0,.0087.0087.0127.0253.0127l.0254-.0127a3.2541,3.2541,0,0,1,1.544-.37,2.77,2.77,0,0,1,2.0664.753,2.8939,2.8939,0,0,1,.7392,2.1181,3.12,3.12,0,0,1-.9052,2.43,3.8389,3.8389,0,0,1-2.666.8223A6.0851,6.0851,0,0,1,71.5225,57.2878Z"/><path d="M89.4443,51.114a.4806.4806,0,0,1,.3633.1533.5081.5081,0,0,1,0,.7139.481.481,0,0,1-.3633.1533H82.3516a.12.12,0,0,0-.127.1015c-.0088.0352-.0234.086-.0449.1534s-.0361.1191-.0449.1533c-.0166.0683.0088.1015.0771.1015h5.9317a.7072.7072,0,0,1,.51.211.6784.6784,0,0,1,.2168.5039v4.5156a.6806.6806,0,0,1-.2041.49.6647.6647,0,0,1-.4971.211h-.2548a.4572.4572,0,0,1-.4473-.4463.056.056,0,0,0-.0635-.0635H82.2119c-.0508,0-.0771.0215-.0771.0635a.4378.4378,0,0,1-.127.3125.41.41,0,0,1-.3066.1338H81.459a.6742.6742,0,0,1-.6885-.6885v-2.666c0-.0166-.0068-.0254-.0195-.0254a.0436.0436,0,0,0-.0313.0127,7.5017,7.5017,0,0,1-1.4414,1.7734.511.511,0,0,1-.46.1328.5739.5739,0,0,1-.4082-.2607.7605.7605,0,0,1-.1143-.5225.744.744,0,0,1,.2549-.4726,7.8218,7.8218,0,0,0,2.334-3.6231c.0175-.0673-.0078-.1015-.0762-.1015H78.8564a.4809.4809,0,0,1-.3632-.1533.5081.5081,0,0,1,0-.7139.4805.4805,0,0,1,.3632-.1533h4.6182c.0684,0,.1016-.0381.1016-.1143V50.68c0-.0772-.0332-.1143-.1016-.1143h-3.61a.5018.5018,0,0,1-.4971-.498.4585.4585,0,0,1,.1465-.3448.4923.4923,0,0,1,.3506-.14h3.61c.0684,0,.1016-.0391.1016-.1152V49.15c0-.0771-.0332-.1152-.1016-.1152H79.252a.5236.5236,0,0,1-.5225-.5235.5231.5231,0,0,1,.1533-.3759.4908.4908,0,0,1,.3692-.1592h2.1435a.0629.0629,0,0,0,.0576-.0323.0436.0436,0,0,0-.0068-.0576.2841.2841,0,0,1-.0508-.082.3082.3082,0,0,0-.0508-.084.469.469,0,0,1-.039-.4394.4609.4609,0,0,1,.332-.3.8078.8078,0,0,1,.5488.0127.8254.8254,0,0,1,.4209.3574l.3057.5351a.1644.1644,0,0,0,.1533.09h2.2324a.1949.1949,0,0,0,.166-.09c.0332-.0586.1231-.2207.2676-.4843a.892.892,0,0,1,.4082-.3829.8312.8312,0,0,1,.5489-.0644.5191.5191,0,0,1,.3632.3008.4879.4879,0,0,1-.02.4648c-.0088.0176-.0254.0449-.0508.084a.7283.7283,0,0,0-.0508.082.057.057,0,0,0,.0059.0576.0629.0629,0,0,0,.0576.0323h2.0537a.4941.4941,0,0,1,.37.1592.5269.5269,0,0,1,.1534.3759.5237.5237,0,0,1-.5235.5235H85.0947a.1016.1016,0,0,0-.1152.1152v.3184a.102.102,0,0,0,.1152.1152h3.3418a.4923.4923,0,0,1,.3506.14.4585.4585,0,0,1,.1465.3448.5018.5018,0,0,1-.4971.498H85.0947a.1009.1009,0,0,0-.1152.1143V51a.1013.1013,0,0,0,.1152.1143Zm-7.3095,2.6533v.3574a.1017.1017,0,0,0,.1152.1143h5.1152c.0674,0,.1016-.0381.1016-.1143v-.3574a.09.09,0,0,0-.1016-.1016H82.25C82.1738,53.6657,82.1348,53.6989,82.1348,53.7673Zm0,1.4414v.3437a.102.102,0,0,0,.1152.1153h5.1152c.0674,0,.1016-.0381.1016-.1153v-.3437c0-.0762-.0342-.1152-.1016-.1152H82.25A.1023.1023,0,0,0,82.1348,55.2087Zm0,1.4287v.3565a.1019.1019,0,0,0,.1152.1152h5.1152c.0674,0,.1016-.0381.1016-.1152v-.3565c0-.0771-.0342-.1143-.1016-.1143H82.25A.1013.1013,0,0,0,82.1348,56.6374Z"/><path d="M42.5293,71.0329a.342.342,0,0,1-.5615-.2676v-.0761a1.4264,1.4264,0,0,1,.5615-1.1739l1.4414-1.16a1.9606,1.9606,0,0,1,1.25-.4346.6969.6969,0,0,1,.7012.7022V76.531a.7017.7017,0,1,1-1.4033,0V69.4646c0-.0088-.004-.0137-.0127-.0137l-.0254.0137Z"/><path d="M51.6113,76.0466a.0353.0353,0,0,0-.0127.0254.0114.0114,0,0,0,.0127.0127h3.3672a.5653.5653,0,0,1,.5742.5732.5669.5669,0,0,1-.5742.5742h-4.72a.5669.5669,0,0,1-.5742-.5742,1.1627,1.1627,0,0,1,.4463-.9307,19.2806,19.2806,0,0,0,3.1445-2.9785,3.6139,3.6139,0,0,0,.8232-2.1494q0-1.6319-1.7353-1.6328a4.7885,4.7885,0,0,0-1.8877.4473.4366.4366,0,0,1-.4082-.0254.3784.3784,0,0,1-.1914-.3457,1.0308,1.0308,0,0,1,.166-.5733.8149.8149,0,0,1,.459-.3447,6.7029,6.7029,0,0,1,2.0537-.332,3.1889,3.1889,0,0,1,2.2139.709,2.52,2.52,0,0,1,.7841,1.9707,4.3174,4.3174,0,0,1-.8105,2.455A17.3812,17.3812,0,0,1,51.6113,76.0466Z"/><path d="M59.0479,72.2575a.7406.7406,0,0,1-.7276-.7265v-.459a.7406.7406,0,0,1,.7276-.7276h.2041a.7406.7406,0,0,1,.7265.7276v.459a.7407.7407,0,0,1-.7265.7265Zm0,4.9746a.7406.7406,0,0,1-.7276-.7265v-.459a.7406.7406,0,0,1,.7276-.7276h.2041a.7406.7406,0,0,1,.7265.7276v.459a.7407.7407,0,0,1-.7265.7265Z"/><path d="M62.415,75.1911a.5651.5651,0,0,1-.5615-.5605,1.7524,1.7524,0,0,1,.3184-1.02l3.5595-5.128a1.2359,1.2359,0,0,1,1.084-.5615.697.697,0,0,1,.6885.6885v5.3574c0,.0684.0391.1025.1152.1025h.8164a.5611.5611,0,0,1,0,1.1221h-.8164a.1024.1024,0,0,0-.1152.1153v1.2373a.6885.6885,0,0,1-1.3769,0V75.3064a.102.102,0,0,0-.1153-.1153Zm.8545-1.16c0,.0078-.0019.0127-.0068.0127s-.0059.0048-.0059.0127.0039.0126.0127.0126h2.7422c.0772,0,.1153-.0341.1153-.1025V69.9616a.0114.0114,0,0,0-.0127-.0127c-.0176,0-.0254.0039-.0254.0127Z"/><path d="M71.5225,77.1306a.7694.7694,0,0,1-.4463-.3184.9446.9446,0,0,1-.166-.5488.39.39,0,0,1,.1972-.3516.4632.4632,0,0,1,.4151-.0439,5.1522,5.1522,0,0,0,1.6836.3447,1.89,1.89,0,0,0,2.1689-2.1055q0-1.7724-1.6582-1.7734a2.3079,2.3079,0,0,0-1.0469.2305,2.7385,2.7385,0,0,1-1.084.332.5685.5685,0,0,1-.4267-.18.5423.5423,0,0,1-.16-.42l.1914-3.6485a.7917.7917,0,0,1,.2422-.5175.7269.7269,0,0,1,.5235-.21h3.8652a.5742.5742,0,1,1,0,1.1484H72.6064c-.0683,0-.1015.0381-.1015.1143l-.1279,2.4238c0,.0088.0087.0127.0253.0127l.0254-.0127a3.265,3.265,0,0,1,1.544-.3691,2.7658,2.7658,0,0,1,2.0664.7519,2.8918,2.8918,0,0,1,.7392,2.1172,3.1158,3.1158,0,0,1-.9052,2.43,3.84,3.84,0,0,1-2.666.8233A6.1229,6.1229,0,0,1,71.5225,77.1306Z"/><path d="M86.5742,72.36c-.0762,0-.1152.0341-.1152.1025V73.738a.1016.1016,0,0,0,.1152.1142h2.6026a.5738.5738,0,1,1,0,1.1475H86.5742a.1023.1023,0,0,0-.1152.1152v1.6329c0,.1787.041.2871.1221.3252a2.6131,2.6131,0,0,0,.746.0576,1.6845,1.6845,0,0,0,.86-.1338q.1728-.1333.2236-.7979a.6741.6741,0,0,1,.2168-.4453.567.567,0,0,1,.459-.1543.6579.6579,0,0,1,.459.2363.6853.6853,0,0,1,.166.4913q-.0249.4848-.07.7783a1.4769,1.4769,0,0,1-.1777.5234,1.3384,1.3384,0,0,1-.2618.3379,1.0571,1.0571,0,0,1-.4658.1719,4.3727,4.3727,0,0,1-.6572.0762c-.2119.0087-.5273.0136-.9434.0136a8.5208,8.5208,0,0,1-1.3711-.0771.819.819,0,0,1-.5429-.2617,1.1272,1.1272,0,0,1-.127-.6182V75.1149A.102.102,0,0,0,84.98,75H83.1172a.1243.1243,0,0,0-.127.1152,4.3421,4.3421,0,0,1-3.3681,3.1387.6222.6222,0,0,1-.4912-.0517.7282.7282,0,0,1-.3379-.3819.5306.5306,0,0,1,.0254-.4531.59.59,0,0,1,.3574-.3008,3.38,3.38,0,0,0,2.373-1.9765c.0166-.0586-.0088-.09-.0771-.09H79.2266a.5738.5738,0,1,1,0-1.1475h2.4365q.1024,0,.1025-.1142,0-.0264.0059-.1025c.0039-.0508.0068-.085.0068-.1026v-1.07c0-.0684-.039-.1025-.1152-.1025h-.4844a.5173.5173,0,0,1-.498-.3194c-.0342-.0683-.0762-.08-.127-.0381q-.5493.3575-1.2119.7276a.5651.5651,0,0,1-.4717.0449.6055.6055,0,0,1-.3574-.3125.6547.6547,0,0,1-.0381-.4922.6237.6237,0,0,1,.3057-.376q1.0077-.5478,1.5947-.9443c.0254-.0078.0381-.0293.0381-.0635a.1036.1036,0,0,0-.0254-.0761q-1.1352-1.021-1.1738-1.06a.5373.5373,0,0,1-.1973-.4082.5505.5505,0,0,1,.1719-.42.683.683,0,0,1,.4463-.1914.6572.6572,0,0,1,.459.1523q.2432.205,1.289,1.1611a.1349.1349,0,0,0,.166.0127,9.2031,9.2031,0,0,0,1.3643-1.4287.0423.0423,0,0,0,.0068-.0576.064.064,0,0,0-.0576-.0313H80.5664a.5462.5462,0,0,1-.3955-.16.5175.5175,0,0,1-.166-.3887.5651.5651,0,0,1,.5615-.5605H84.1a1.2036,1.2036,0,0,1,1.084.625,8.34,8.34,0,0,0,.5488.7773.08.08,0,0,0,.1406.0127q.4336-.4848.8165-.97a.6208.6208,0,0,1,.3945-.2481.6561.6561,0,0,1,.46.0821.5567.5567,0,0,1,.2608.3711.5155.5155,0,0,1-.0947.42q-.5113.65-1.02,1.1992a.095.095,0,0,0,0,.1533q.293.2681.7138.6123a.1068.1068,0,0,0,.1533,0,15.0943,15.0943,0,0,0,.9688-1.16.6256.6256,0,0,1,.4023-.2491.6539.6539,0,0,1,.4659.0831.5574.5574,0,0,1,.2607.3759.5268.5268,0,0,1-.0947.4268q-.4468.5625-1.0342,1.1992a.0889.0889,0,0,0-.0186.0772.066.066,0,0,0,.045.0634c.4931.3067.8369.51,1.0332.6123a.6557.6557,0,0,1,.3125.376.6447.6447,0,0,1-.0323.4922.5759.5759,0,0,1-.37.3184.6082.6082,0,0,1-.4844-.0508q-.4467-.2549-1.1611-.7276c-.06-.0341-.1064-.0166-.14.0518a.52.52,0,0,1-.4981.3057ZM81.6885,71.238H86.69a.0411.0411,0,0,0,.038-.0264.0257.0257,0,0,0-.0127-.0381A12.6226,12.6226,0,0,1,84.24,68.572c-.0341-.0518-.0722-.0469-.1152.0117a12.4891,12.4891,0,0,1-2.4619,2.59.0252.0252,0,0,0-.0127.0381A.0413.0413,0,0,0,81.6885,71.238Zm3.4062,2.5V72.4626c0-.0684-.0381-.1025-.1152-.1025H83.2578c-.0771,0-.1152.0341-.1152.1025V73.738a.1012.1012,0,0,0,.1152.1142H84.98A.1012.1012,0,0,0,85.0947,73.738Z"/><path d="M43.5752,95.8884a.0371.0371,0,0,0-.0127.0254c0,.0088.0039.0136.0127.0136h3.3672a.5738.5738,0,1,1,0,1.1475h-4.72a.5671.5671,0,0,1-.5743-.5742,1.16,1.16,0,0,1,.4463-.9307,19.278,19.278,0,0,0,3.1446-2.9785,3.6165,3.6165,0,0,0,.8232-2.15q0-1.6319-1.7354-1.6318a4.8028,4.8028,0,0,0-1.8876.4463.4343.4343,0,0,1-.4083-.0254.377.377,0,0,1-.1914-.3447,1.03,1.03,0,0,1,.1661-.5733.8207.8207,0,0,1,.4589-.3457,6.7024,6.7024,0,0,1,2.0538-.331,3.1882,3.1882,0,0,1,2.2138.708,2.5214,2.5214,0,0,1,.7842,1.9707,4.3174,4.3174,0,0,1-.81,2.455A17.3191,17.3191,0,0,1,43.5752,95.8884Z"/><path d="M50.5654,90.8757a.3426.3426,0,0,1-.5615-.2686V90.531a1.4277,1.4277,0,0,1,.5615-1.1739l1.4414-1.16a1.96,1.96,0,0,1,1.25-.4336.6952.6952,0,0,1,.7012.7012v7.9082a.7017.7017,0,1,1-1.4033,0V89.3064a.0113.0113,0,0,0-.0127-.0127l-.0254.0127Z"/><path d="M59.0479,92.1a.7424.7424,0,0,1-.7276-.7275v-.459a.7406.7406,0,0,1,.7276-.7266h.2041a.7407.7407,0,0,1,.7265.7266v.459a.7424.7424,0,0,1-.7265.7275Zm0,4.9746a.7406.7406,0,0,1-.7276-.7275v-.459a.7406.7406,0,0,1,.7276-.7266h.2041a.7407.7407,0,0,1,.7265.7266v.459a.7406.7406,0,0,1-.7265.7275Z"/><path d="M68.2637,96.0671a3.5063,3.5063,0,0,1-5.167,0,6.0991,6.0991,0,0,1-.86-3.6475,6.1,6.1,0,0,1,.86-3.6484,3.5063,3.5063,0,0,1,5.167,0,6.1011,6.1011,0,0,1,.86,3.6484A6.1,6.1,0,0,1,68.2637,96.0671Zm-1.0459-6.4736a1.8311,1.8311,0,0,0-3.0742,0,8.17,8.17,0,0,0,0,5.65,1.8312,1.8312,0,0,0,3.0742,0,8.1872,8.1872,0,0,0,0-5.65Z"/><path d="M76.3,96.0671a3.5063,3.5063,0,0,1-5.167,0,6.1,6.1,0,0,1-.86-3.6475,6.1011,6.1011,0,0,1,.86-3.6484,3.5063,3.5063,0,0,1,5.167,0,6.1011,6.1011,0,0,1,.86,3.6484A6.1,6.1,0,0,1,76.3,96.0671Zm-1.0459-6.4736a1.8311,1.8311,0,0,0-3.0742,0,8.1719,8.1719,0,0,0,0,5.65,1.8312,1.8312,0,0,0,3.0742,0,8.1872,8.1872,0,0,0,0-5.65Z"/><path d="M89.4443,90.7985a.4807.4807,0,0,1,.3633.1534.508.508,0,0,1,0,.7138.4815.4815,0,0,1-.3633.1543H82.3516a.12.12,0,0,0-.127.1016c-.0088.0342-.0234.0849-.0449.1523s-.0361.1192-.0449.1543c-.0166.0674.0088.1016.0771.1016h5.9317a.7071.7071,0,0,1,.51.2109.6754.6754,0,0,1,.2168.5039V97.56a.6839.6839,0,0,1-.2041.49.6649.6649,0,0,1-.4971.2109h-.2548a.4588.4588,0,0,1-.4473-.4472.0553.0553,0,0,0-.0635-.0625H82.2119c-.0508,0-.0771.02-.0771.0625a.4378.4378,0,0,1-.127.3125.4075.4075,0,0,1-.3066.1347H81.459a.674.674,0,0,1-.6885-.6894V94.906c0-.0166-.0068-.0254-.0195-.0254a.0409.0409,0,0,0-.0313.0136,7.4975,7.4975,0,0,1-1.4414,1.7725.5146.5146,0,0,1-.46.1338.5751.5751,0,0,1-.4082-.2617.7608.7608,0,0,1-.1143-.5225.7446.7446,0,0,1,.2549-.4717,7.832,7.832,0,0,0,2.334-3.623c.0175-.0684-.0078-.1016-.0762-.1016H78.8564a.4814.4814,0,0,1-.3632-.1543.508.508,0,0,1,0-.7138.4806.4806,0,0,1,.3632-.1534h4.6182c.0684,0,.1016-.0371.1016-.1142v-.3194c0-.0761-.0332-.1142-.1016-.1142h-3.61a.502.502,0,0,1-.4971-.4971.46.46,0,0,1,.1465-.3457.4919.4919,0,0,1,.3506-.14h3.61c.0684,0,.1016-.0381.1016-.1143v-.3193c0-.0772-.0332-.1143-.1016-.1143H79.252a.5251.5251,0,0,1-.5225-.5234.5271.5271,0,0,1,.1533-.377.4948.4948,0,0,1,.3692-.1592h2.1435a.0628.0628,0,0,0,.0576-.0322.0423.0423,0,0,0-.0068-.0566.2917.2917,0,0,1-.0508-.083.3145.3145,0,0,0-.0508-.083.47.47,0,0,1-.039-.44.4626.4626,0,0,1,.332-.3008.8277.8277,0,0,1,.97.37l.3057.5362a.1653.1653,0,0,0,.1533.0888h2.2324a.1964.1964,0,0,0,.166-.0888c.0332-.06.1231-.2207.2676-.4844a.8872.8872,0,0,1,.4082-.3828A.8191.8191,0,0,1,86.69,86.64a.52.52,0,0,1,.3632.3.49.49,0,0,1-.02.4659.89.89,0,0,1-.0508.083.7166.7166,0,0,0-.0508.083.0552.0552,0,0,0,.0059.0566.0628.0628,0,0,0,.0576.0322h2.0537a.4981.4981,0,0,1,.37.1592.5309.5309,0,0,1,.1534.377.5253.5253,0,0,1-.5235.5234H85.0947a.1009.1009,0,0,0-.1152.1143v.3193a.1013.1013,0,0,0,.1152.1143h3.3418a.4919.4919,0,0,1,.3506.14.46.46,0,0,1,.1465.3457.502.502,0,0,1-.4971.4971H85.0947a.1013.1013,0,0,0-.1152.1142v.3194a.1009.1009,0,0,0,.1152.1142Zm-7.3095,2.6543v.3565a.1012.1012,0,0,0,.1152.1142h5.1152c.0674,0,.1016-.0371.1016-.1142v-.3565a.09.09,0,0,0-.1016-.1025H82.25C82.1738,93.35,82.1348,93.3845,82.1348,93.4528Zm0,1.4414v.3438a.1023.1023,0,0,0,.1152.1152h5.1152c.0674,0,.1016-.039.1016-.1152v-.3438c0-.0771-.0342-.1152-.1016-.1152H82.25A.1019.1019,0,0,0,82.1348,94.8942Zm0,1.4278v.3574a.1023.1023,0,0,0,.1152.1152h5.1152c.0674,0,.1016-.039.1016-.1152V96.322c0-.0762-.0342-.1143-.1016-.1143H82.25A.1017.1017,0,0,0,82.1348,96.322Z"/><rect class="b" x="126.821" y="0.5476" width="68" height="20"/><path d="M142.8232,11.4929a.55.55,0,0,1-.3955-.1592.5172.5172,0,0,1-.166-.3887.5651.5651,0,0,1,.5615-.5615h1.0459a.101.101,0,0,0,.1143-.1143V5.7146a.7406.7406,0,0,1,.7275-.7266h7.36a.5174.5174,0,0,1,.3887.166.5472.5472,0,0,1,.1591.3945.5532.5532,0,0,1-.1591.3965.5235.5235,0,0,1-.3887.1651h-6.6084q-.1143,0-.1143.1025v.5225q0,.1025.1143.1025h6.2891a.46.46,0,0,1,.3447.1465.51.51,0,0,1,0,.7012.46.46,0,0,1-.3447.1464h-6.2891c-.0762,0-.1143.0352-.1143.1026v.5478a.1013.1013,0,0,0,.1143.1153h6.2891a.46.46,0,0,1,.3447.1465.4925.4925,0,0,1,.14.3515.4785.4785,0,0,1-.4843.4844h-6.2891a.1013.1013,0,0,0-.1143.1152v.5742a.101.101,0,0,0,.1143.1143h7.8457a.5651.5651,0,0,1,.56.5615.5169.5169,0,0,1-.166.3887.5488.5488,0,0,1-.3945.1592h-5.1924q-.0249,0-.0439.0381c-.0137.0254-.0108.0429.0058.0507a9.7041,9.7041,0,0,0,2.13,1.7735c.043.0342.0977.0254.166-.0254a11.041,11.041,0,0,0,1.1612-1.1856.7129.7129,0,0,1,.4462-.2617.6976.6976,0,0,1,.4971.0957.5232.5232,0,0,1,.2617.376.5052.5052,0,0,1-.1211.44q-.5361.6123-1.122,1.16c-.0518.0508-.0469.09.0127.1152a17.8938,17.8938,0,0,0,1.8877.7774.4828.4828,0,0,1,.3.3007.5156.5156,0,0,1-.02.4268.7784.7784,0,0,1-.3691.3389.6259.6259,0,0,1-.4854.0185,12.7227,12.7227,0,0,1-6.3007-4.3369.2228.2228,0,0,0-.1787-.1025h-.8809a.1013.1013,0,0,0-.1143.1152v2.9336c0,.0772.042.1064.127.0889q1.6713-.2169,2.9346-.4453a.5182.5182,0,0,1,.4013.0888.4725.4725,0,0,1,.211.3448.6145.6145,0,0,1-.1026.42.512.512,0,0,1-.3574.23,52.6444,52.6444,0,0,1-5.37.7393.5676.5676,0,0,1-.4268-.1211.55.55,0,0,1-.2109-.39.5182.5182,0,0,1,.1152-.4.53.53,0,0,1,.37-.1983c.0928-.0088.2315-.0215.4141-.0381s.3213-.03.415-.039c.0762,0,.1143-.042.1143-.127V11.6081a.1013.1013,0,0,0-.1143-.1152Z"/><path d="M168.5254,15.7282a.59.59,0,0,1-.4336-.1211.5475.5475,0,0,1-.2168-.3886.56.56,0,0,1,.1338-.4336.5841.5841,0,0,1,.4023-.2178q.586-.063,1.76-.2168a.1245.1245,0,0,0,.1152-.1279v-1.211c0-.0683-.0381-.1025-.1152-.1025h-1.5938a.4929.4929,0,0,1-.37-.1592.5254.5254,0,0,1-.1533-.3769.5234.5234,0,0,1,.5234-.5225h1.5938c.0771,0,.1152-.0342.1152-.1025v-.7393a.101.101,0,0,0-.1152-.1143h-1.2627a.7406.7406,0,0,1-.7266-.7275V5.6892a.7406.7406,0,0,1,.7266-.7266H172.94a.7407.7407,0,0,1,.7265.7266V9.3239c0,.0518.03.0684.09.0518a.6494.6494,0,0,1,.23-.0381h2.1171q.0264,0,.0381-.0322c.0088-.0205.0049-.0362-.0127-.044q-.65-.6767-1.3388-1.3017a.5467.5467,0,0,1-.1846-.4014.5641.5641,0,0,1,.1592-.415.5745.5745,0,0,1,.4209-.1787.6.6,0,0,1,.4209.166q.1274.1141.3633.3506t.3632.35c.0518.0508.0977.0557.1407.0137q.65-.7147,1.25-1.5185c.0429-.06.0253-.0889-.0508-.0889h-2.9854a.5742.5742,0,1,1,0-1.1484h3.916a.5671.5671,0,0,1,.5743.5742,1.776,1.776,0,0,1-.3184,1.0586,18.7772,18.7772,0,0,1-1.5566,1.9648c-.0508.0508-.0469.1016.0127.1524l.3828.4218a.2213.2213,0,0,0,.1787.0762h1.1484a.5654.5654,0,0,1,.5733.5742,2.8492,2.8492,0,0,1-.2041,1.0967,12.6967,12.6967,0,0,1-.8038,1.6064.5656.5656,0,0,1-.3759.2754.5538.5538,0,0,1-.4532-.0839.6174.6174,0,0,1-.1914-.8282,11.3728,11.3728,0,0,0,.7276-1.3906.0913.0913,0,0,0-.0069-.0762.0612.0612,0,0,0-.0566-.039h-1.0459a.1019.1019,0,0,0-.1152.1152v3.5586a3.4678,3.4678,0,0,1-.2041,1.5625q-.2037.2871-1.1221.2871c-.4082,0-.7578-.0078-1.0469-.0254a.6227.6227,0,0,1-.4209-.1914.634.634,0,0,1-.19-.4336.4961.4961,0,0,1,.1523-.4023.53.53,0,0,1,.4082-.1465q.2813.0132.6768.0137c.2207,0,.3506-.0284.3887-.084a1.5374,1.5374,0,0,0,.0576-.58V10.5876a.102.102,0,0,0-.1153-.1152h-1.6708a.53.53,0,0,1-.2422-.0508c-.06-.0332-.1065-.0176-.1407.0508a.6725.6725,0,0,1-.663.4218H171.74a.1006.1006,0,0,0-.1142.1143v.7393q0,.1025.1142.1025h1.4668a.523.523,0,1,1,0,1.0459H171.74a.1017.1017,0,0,0-.1142.1152v1.02a.1189.1189,0,0,0,.0312.0771.0616.0616,0,0,0,.07.0254c.6036-.0928,1.0967-.1748,1.48-.2422a.4381.4381,0,0,1,.37.0957.4677.4677,0,0,1,.1788.3506.56.56,0,0,1-.1407.4082.6863.6863,0,0,1-.3828.23Q170.5166,15.4733,168.5254,15.7282Zm.8682-9.541V7.36a.09.09,0,0,0,.1015.1025h.6758c.0771,0,.1152-.0342.1152-.1025V6.1872c0-.0683-.0381-.1025-.1152-.1025h-.6758A.09.09,0,0,0,169.3936,6.1872Zm.7773,3.6856a.1013.1013,0,0,0,.1152-.1143V8.5339a.1009.1009,0,0,0-.1152-.1143h-.6758c-.0683,0-.1015.0371-.1015.1143V9.7585c0,.0762.0332.1143.1015.1143Zm1.4551-3.6856V7.36q0,.1025.1142.1025h.6377c.0772,0,.1153-.0342.1153-.1025V6.1872c0-.0683-.0381-.1025-.1153-.1025H171.74Q171.6261,6.0847,171.626,6.1872Zm0,2.3467V9.7585a.101.101,0,0,0,.1142.1143h.6377a.1013.1013,0,0,0,.1153-.1143V8.5339a.1009.1009,0,0,0-.1153-.1143H171.74A.1006.1006,0,0,0,171.626,8.5339Z"/><path class="c" d="M142.46,36.54a3.5061,3.5061,0,0,1-5.167,0,6.0987,6.0987,0,0,1-.86-3.6474,6.1,6.1,0,0,1,.86-3.6484,3.5061,3.5061,0,0,1,5.167,0,6.1009,6.1009,0,0,1,.86,3.6484A6.1,6.1,0,0,1,142.46,36.54Zm-1.0459-6.4736a1.8313,1.8313,0,0,0-3.0743,0,5.7806,5.7806,0,0,0-.5039,2.8262,5.7739,5.7739,0,0,0,.5039,2.8242,1.8313,1.8313,0,0,0,3.0743,0,5.8,5.8,0,0,0,.5029-2.8242A5.8062,5.8062,0,0,0,141.4141,30.0661Z"/><path d="M150.4443,36.948a4.7689,4.7689,0,0,1-5.0634,0,2.3679,2.3679,0,0,1-.9121-1.9522,2.1567,2.1567,0,0,1,.5039-1.3711,3.2234,3.2234,0,0,1,1.3964-.9756c.0088,0,.0127-.0039.0127-.0127a.0114.0114,0,0,0-.0127-.0127,2.741,2.741,0,0,1-1.167-.9189,2.2018,2.2018,0,0,1-.415-1.3008,1.99,1.99,0,0,1,.8291-1.6641,4.4893,4.4893,0,0,1,4.5928,0,1.99,1.99,0,0,1,.8291,1.6641,2.2028,2.2028,0,0,1-1.582,2.0918c-.0088,0-.0127.0049-.0127.0137s.0039.0117.0127.0117a2.4673,2.4673,0,0,1,1.9,2.4746A2.3679,2.3679,0,0,1,150.4443,36.948Zm-2.6972-3.7764a3.2765,3.2765,0,0,0-1.4541.709,1.41,1.41,0,0,0-.4981,1.0527,1.4423,1.4423,0,0,0,.5684,1.2051,2.4689,2.4689,0,0,0,1.55.4394,2.3586,2.3586,0,0,0,1.5234-.4394,1.47,1.47,0,0,0,.543-1.2051q0-1.3023-2.0283-1.7617A.4509.4509,0,0,0,147.7471,33.1716Zm-1.6075-2.64a1.233,1.233,0,0,0,.4209.9121,2.6274,2.6274,0,0,0,1.2374.5928.5049.5049,0,0,0,.2294,0,2.9737,2.9737,0,0,0,1.27-.6191,1.185,1.185,0,0,0,.4394-.8858,1.1522,1.1522,0,0,0-.4717-.97,2.205,2.205,0,0,0-1.3515-.3574,2.1191,2.1191,0,0,0-1.32.3516A1.1609,1.1609,0,0,0,146.14,30.5319Z"/><path d="M154.3418,32.573a.7424.7424,0,0,1-.7275-.7276v-.459a.7406.7406,0,0,1,.7275-.7265h.2041a.7407.7407,0,0,1,.7266.7265v.459a.7424.7424,0,0,1-.7266.7276Zm0,4.9746a.7406.7406,0,0,1-.7275-.7276v-.459a.7406.7406,0,0,1,.7275-.7265h.2041a.7407.7407,0,0,1,.7266.7265v.459a.7406.7406,0,0,1-.7266.7276Z"/><path d="M158.9209,31.3483a.3426.3426,0,0,1-.5615-.2685v-.0762a1.4274,1.4274,0,0,1,.5615-1.1738l1.4414-1.16a1.96,1.96,0,0,1,1.25-.4336.6954.6954,0,0,1,.7012.7012v7.9082a.7017.7017,0,1,1-1.4033,0V29.779a.0114.0114,0,0,0-.0127-.0127l-.0254.0127Z"/><path d="M166.957,31.3483a.3426.3426,0,0,1-.5615-.2685v-.0762a1.4274,1.4274,0,0,1,.5615-1.1738l1.4414-1.16a1.9606,1.9606,0,0,1,1.25-.4336.6954.6954,0,0,1,.7012.7012v7.9082a.7017.7017,0,1,1-1.4033,0V29.779a.0114.0114,0,0,0-.0127-.0127l-.0254.0127Z"/><path d="M184.7383,31.2712a.4813.4813,0,0,1,.3633.1533.5084.5084,0,0,1,0,.7139.4822.4822,0,0,1-.3633.1543h-7.0928a.1194.1194,0,0,0-.1269.1015c-.0088.0342-.0235.085-.045.1524s-.0361.1191-.0449.1543c-.0166.0674.0088.1015.0772.1015h5.9316a.7076.7076,0,0,1,.51.211.6756.6756,0,0,1,.2168.5039v4.5156a.6843.6843,0,0,1-.2041.49.665.665,0,0,1-.4971.211h-.2549a.459.459,0,0,1-.4473-.4473.0553.0553,0,0,0-.0634-.0625h-5.1914c-.0508,0-.0772.02-.0772.0625a.4377.4377,0,0,1-.1269.3125.4074.4074,0,0,1-.3067.1348h-.2422a.674.674,0,0,1-.6884-.6895v-2.666c0-.0166-.0069-.0254-.02-.0254a.04.04,0,0,0-.0312.0137,7.5019,7.5019,0,0,1-1.4414,1.7725.5148.5148,0,0,1-.46.1337.5749.5749,0,0,1-.4082-.2617.7609.7609,0,0,1-.1143-.5224.7446.7446,0,0,1,.2549-.4717,7.831,7.831,0,0,0,2.334-3.6231c.0176-.0683-.0078-.1015-.0762-.1015H174.15a.4822.4822,0,0,1-.3633-.1543.5081.5081,0,0,1,0-.7139.4813.4813,0,0,1,.3633-.1533h4.6182c.0683,0,.1015-.0371.1015-.1143v-.3193c0-.0762-.0332-.1143-.1015-.1143h-3.61a.5018.5018,0,0,1-.4971-.497.4606.4606,0,0,1,.1465-.3457.4923.4923,0,0,1,.3506-.14h3.61c.0683,0,.1015-.0381.1015-.1142v-.3194c0-.0771-.0332-.1142-.1015-.1142h-4.2227a.5253.5253,0,0,1-.5225-.5235.5267.5267,0,0,1,.1534-.3769.4942.4942,0,0,1,.3691-.1592H176.69a.0629.0629,0,0,0,.0576-.0322.0425.0425,0,0,0-.0069-.0567.29.29,0,0,1-.0507-.083.3162.3162,0,0,0-.0508-.083.4692.4692,0,0,1-.0391-.4394.4628.4628,0,0,1,.332-.3008.8278.8278,0,0,1,.97.37l.3056.5361a.1654.1654,0,0,0,.1534.0889h2.2324a.1964.1964,0,0,0,.166-.0889c.0332-.0595.123-.2207.2676-.4843a.8865.8865,0,0,1,.4082-.3829.8187.8187,0,0,1,.5488-.0644.5205.5205,0,0,1,.3633.3.49.49,0,0,1-.02.4658.8491.8491,0,0,1-.0507.083.7107.7107,0,0,0-.0508.083.0553.0553,0,0,0,.0058.0567.063.063,0,0,0,.0577.0322h2.0537a.4979.4979,0,0,1,.37.1592.5308.5308,0,0,1,.1533.3769.5251.5251,0,0,1-.5234.5235h-3.9541a.1009.1009,0,0,0-.1153.1142v.3194a.1013.1013,0,0,0,.1153.1142h3.3418a.4923.4923,0,0,1,.3506.14.4605.4605,0,0,1,.1464.3457.5016.5016,0,0,1-.497.497h-3.3418a.1013.1013,0,0,0-.1153.1143v.3193a.1009.1009,0,0,0,.1153.1143Zm-7.31,2.6543v.3564a.1013.1013,0,0,0,.1152.1143h5.1153c.0674,0,.1015-.0371.1015-.1143v-.3564a.09.09,0,0,0-.1015-.1025h-5.1153C177.4678,33.823,177.4287,33.8571,177.4287,33.9255Zm0,1.4414v.3437a.1024.1024,0,0,0,.1152.1153h5.1153c.0674,0,.1015-.0391.1015-.1153v-.3437c0-.0772-.0341-.1152-.1015-.1152h-5.1153A.1019.1019,0,0,0,177.4287,35.3669Zm0,1.4277v.3575a.1024.1024,0,0,0,.1152.1152h5.1153c.0674,0,.1015-.0391.1015-.1152v-.3575c0-.0761-.0341-.1142-.1015-.1142h-5.1153A.1017.1017,0,0,0,177.4287,36.7946Z"/><path d="M137.8232,51.1911a.3426.3426,0,0,1-.5615-.2685v-.0772a1.4242,1.4242,0,0,1,.5615-1.1728l1.4414-1.1612a1.9606,1.9606,0,0,1,1.25-.4336.6969.6969,0,0,1,.7012.7012v7.9092a.7017.7017,0,1,1-1.4033,0V49.6208c0-.0078-.0039-.0117-.0127-.0117l-.0254.0117Z"/><path d="M145.8594,51.1911a.3426.3426,0,0,1-.5615-.2685v-.0772a1.4242,1.4242,0,0,1,.5615-1.1728l1.4414-1.1612a1.96,1.96,0,0,1,1.25-.4336.6969.6969,0,0,1,.7012.7012v7.9092a.7017.7017,0,1,1-1.4034,0V49.6208c0-.0078-.0039-.0117-.0127-.0117l-.0254.0117Z"/><path d="M154.3418,52.4157a.7422.7422,0,0,1-.7275-.7275v-.46a.7406.7406,0,0,1,.7275-.7265h.2041a.7407.7407,0,0,1,.7266.7265v.46a.7423.7423,0,0,1-.7266.7275Zm0,4.9746a.7406.7406,0,0,1-.7275-.7275v-.46a.7406.7406,0,0,1,.7275-.7265h.2041a.7407.7407,0,0,1,.7266.7265v.46a.7406.7406,0,0,1-.7266.7275Z"/><path d="M163.3721,49.6208l-2.3213,2.2578a.0391.0391,0,0,0-.0127.0264c0,.0088.0039.0127.0127.0127h.2422a2.6784,2.6784,0,0,1,1.9258.6562,2.4781,2.4781,0,0,1,.6894,1.8819,2.8931,2.8931,0,0,1-.8867,2.2578,3.58,3.58,0,0,1-2.4942.8037,6.8086,6.8086,0,0,1-1.7978-.2422.8058.8058,0,0,1-.4531-.3125.8917.8917,0,0,1-.1719-.542.4019.4019,0,0,1,.1973-.3574.45.45,0,0,1,.415-.0508,5.5039,5.5039,0,0,0,1.81.3565,2.0237,2.0237,0,0,0,1.461-.4971,1.8723,1.8723,0,0,0,.5166-1.416,1.2981,1.2981,0,0,0-.5547-1.1543,3.3085,3.3085,0,0,0-1.8047-.376h-.3574a.5453.5453,0,0,1-.5361-.5361,1.1861,1.1861,0,0,1,.3828-.9053l2.3466-2.22a.0369.0369,0,0,0,.0137-.0254c0-.0088-.0049-.0127-.0137-.0127h-3.3671a.5743.5743,0,1,1,0-1.1485h4.5918a.5671.5671,0,0,1,.5742.5743A1.268,1.268,0,0,1,163.3721,49.6208Z"/><path d="M171.5938,56.3825a3.5082,3.5082,0,0,1-5.167,0,6.1022,6.1022,0,0,1-.86-3.6484,6.1028,6.1028,0,0,1,.86-3.6485,3.5084,3.5084,0,0,1,5.167,0,6.1036,6.1036,0,0,1,.86,3.6485A6.103,6.103,0,0,1,171.5938,56.3825Zm-1.0459-6.4746a1.8325,1.8325,0,0,0-3.0743,0,5.7856,5.7856,0,0,0-.5039,2.8262,5.7787,5.7787,0,0,0,.5039,2.8252,1.8325,1.8325,0,0,0,3.0743,0,5.8043,5.8043,0,0,0,.5029-2.8252A5.8113,5.8113,0,0,0,170.5479,49.9079Z"/><path d="M181.8682,52.5173c-.0762,0-.1153.0332-.1153.1016v1.2753a.102.102,0,0,0,.1153.1153h2.6025a.5742.5742,0,1,1,0,1.1484h-2.6025a.1017.1017,0,0,0-.1153.1143V56.905c0,.1787.041.2871.1221.3252a2.5744,2.5744,0,0,0,.7461.0576,1.6715,1.6715,0,0,0,.86-.1338q.1729-.1347.2237-.7969a.6736.6736,0,0,1,.2168-.4472.5618.5618,0,0,1,.459-.1524.6563.6563,0,0,1,.4589.2354.6836.6836,0,0,1,.1661.4912c-.0166.3232-.04.582-.07.7783a1.4574,1.4574,0,0,1-.1777.5225,1.32,1.32,0,0,1-.2617.3379,1.0575,1.0575,0,0,1-.4658.1728,4.7912,4.7912,0,0,1-.6573.0772c-.2119.0078-.5273.0117-.9433.0117a8.5482,8.5482,0,0,1-1.3711-.0762.8193.8193,0,0,1-.543-.2617,1.1322,1.1322,0,0,1-.1269-.6192V55.2722a.1013.1013,0,0,0-.1153-.1143h-1.8623a.1235.1235,0,0,0-.1269.1143A4.34,4.34,0,0,1,174.916,58.41a.6224.6224,0,0,1-.4912-.0508.7309.7309,0,0,1-.3379-.3828.5313.5313,0,0,1,.0254-.4532.5836.5836,0,0,1,.3574-.2988,3.3833,3.3833,0,0,0,2.3731-1.9775c.0166-.06-.0088-.0889-.0772-.0889h-2.2451a.5742.5742,0,1,1,0-1.1484h2.4365c.0684,0,.1026-.0381.1026-.1153,0-.0166.0019-.0507.0058-.1015s.0069-.085.0069-.1016V52.6189c0-.0684-.0391-.1016-.1153-.1016h-.4843a.5175.5175,0,0,1-.4981-.3193c-.0342-.0674-.0762-.0811-.1269-.0381q-.5495.3573-1.212.7265a.5545.5545,0,0,1-.4716.045.5992.5992,0,0,1-.3575-.3125.65.65,0,0,1-.038-.49.6247.6247,0,0,1,.3056-.3769q1.0079-.548,1.5947-.9434a.06.06,0,0,0,.0381-.0644.1069.1069,0,0,0-.0254-.0762q-1.1352-1.0211-1.1738-1.0586a.5425.5425,0,0,1-.1973-.4082.5527.5527,0,0,1,.1719-.4219.6986.6986,0,0,1,.4463-.1914.6546.6546,0,0,1,.459.1543q.2432.2035,1.2891,1.16a.135.135,0,0,0,.166.0126,9.1626,9.1626,0,0,0,1.3642-1.4287.0412.0412,0,0,0,.0069-.0566.063.063,0,0,0-.0577-.0322H175.86a.5534.5534,0,0,1-.3956-.1592.5229.5229,0,0,1-.166-.39.5668.5668,0,0,1,.5616-.5615h3.5332a1.2054,1.2054,0,0,1,1.0839.625,8.3612,8.3612,0,0,0,.5489.7783.0807.0807,0,0,0,.1406.0127c.2891-.3222.56-.6464.8164-.9687a.6183.6183,0,0,1,.3945-.249.6465.6465,0,0,1,.46.083.5557.5557,0,0,1,.2607.3691.5186.5186,0,0,1-.0947.4219q-.5112.65-1.02,1.1992a.0941.0941,0,0,0,0,.1523q.2929.2682.7139.6124a.107.107,0,0,0,.1533,0q.42-.4468.9687-1.1612a.6286.6286,0,0,1,.4024-.248.6683.6683,0,0,1,.4658.082.5594.5594,0,0,1,.2607.377.5293.5293,0,0,1-.0947.4277q-.4467.561-1.0342,1.1992a.0856.0856,0,0,0-.0185.0762.068.068,0,0,0,.0449.0635c.4932.3056.8369.5107,1.0332.6123a.6572.6572,0,0,1,.3125.3769.6394.6394,0,0,1-.0322.49.5774.5774,0,0,1-.37.3193.6.6,0,0,1-.4844-.0518q-.4469-.2548-1.1611-.7265c-.06-.0332-.1065-.0176-.14.0507a.5179.5179,0,0,1-.498.3067Zm-4.8858-1.1231h5.001a.04.04,0,0,0,.0381-.0253.0258.0258,0,0,0-.0127-.0381,12.5993,12.5993,0,0,1-2.4746-2.6026c-.0342-.0508-.0723-.0468-.1153.0137a12.51,12.51,0,0,1-2.4619,2.5889.0252.0252,0,0,0-.0127.0381A.04.04,0,0,0,176.9824,51.3942Zm3.4063,2.5V52.6189c0-.0684-.0381-.1016-.1153-.1016h-1.7216c-.0772,0-.1153.0332-.1153.1016v1.2753a.1016.1016,0,0,0,.1153.1153h1.7216A.1016.1016,0,0,0,180.3887,53.8942Z"/><path d="M137.8232,71.0329a.342.342,0,0,1-.5615-.2676v-.0761a1.4264,1.4264,0,0,1,.5615-1.1739l1.4414-1.16a1.961,1.961,0,0,1,1.25-.4346.6969.6969,0,0,1,.7012.7022V76.531a.7017.7017,0,1,1-1.4033,0V69.4646c0-.0088-.0039-.0137-.0127-.0137l-.0254.0137Z"/><path d="M145.7188,77.1306a.7691.7691,0,0,1-.4463-.3184.9447.9447,0,0,1-.1661-.5488.39.39,0,0,1,.1973-.3516.4631.4631,0,0,1,.4151-.0439,5.1522,5.1522,0,0,0,1.6835.3447,1.89,1.89,0,0,0,2.169-2.1055q0-1.7724-1.6582-1.7734a2.3079,2.3079,0,0,0-1.0469.2305,2.7385,2.7385,0,0,1-1.084.332.5685.5685,0,0,1-.4267-.18.5423.5423,0,0,1-.16-.42l.1914-3.6485a.7917.7917,0,0,1,.2422-.5175.7266.7266,0,0,1,.5234-.21h3.8653a.5742.5742,0,1,1,0,1.1484h-3.2149c-.0683,0-.1015.0381-.1015.1143l-.128,2.4238c0,.0088.0088.0127.0254.0127l.0254-.0127a3.2647,3.2647,0,0,1,1.544-.3691,2.7658,2.7658,0,0,1,2.0664.7519,2.8918,2.8918,0,0,1,.7392,2.1172,3.1158,3.1158,0,0,1-.9052,2.43,3.84,3.84,0,0,1-2.6661.8233A6.1227,6.1227,0,0,1,145.7188,77.1306Z"/><path d="M154.3418,72.2575a.7406.7406,0,0,1-.7275-.7265v-.459a.7406.7406,0,0,1,.7275-.7276h.2041a.7406.7406,0,0,1,.7266.7276v.459a.7407.7407,0,0,1-.7266.7265Zm0,4.9746a.7406.7406,0,0,1-.7275-.7265v-.459a.7406.7406,0,0,1,.7275-.7276h.2041a.7406.7406,0,0,1,.7266.7276v.459a.7407.7407,0,0,1-.7266.7265Z"/><path d="M158.9209,71.0329a.342.342,0,0,1-.5615-.2676v-.0761a1.4264,1.4264,0,0,1,.5615-1.1739l1.4414-1.16a1.9606,1.9606,0,0,1,1.25-.4346.6969.6969,0,0,1,.7012.7022V76.531a.7017.7017,0,1,1-1.4033,0V69.4646c0-.0088-.004-.0137-.0127-.0137l-.0254.0137Z"/><path d="M169.0742,77.36q-3.3808,0-3.3808-4.21a6.5809,6.5809,0,0,1,1.02-4.0234,3.4745,3.4745,0,0,1,2.9345-1.334,6.382,6.382,0,0,1,1.1983.1152.6763.6763,0,0,1,.4277.2617.7914.7914,0,0,1,.1592.4912.4037.4037,0,0,1-.1787.3448.4957.4957,0,0,1-.4082.0761,5.2306,5.2306,0,0,0-1.1983-.1406,2.1412,2.1412,0,0,0-1.6523.7207,3.468,3.468,0,0,0-.7842,2.0606c0,.0166.0039.0254.0127.0254h.0254a2.898,2.898,0,0,1,2.1426-.7657,2.8486,2.8486,0,0,1,3.0615,3.0616,3.2143,3.2143,0,0,1-.918,2.4365A3.414,3.414,0,0,1,169.0742,77.36Zm0-5.3194a1.8891,1.8891,0,0,0-1.41.5547,1.9858,1.9858,0,0,0-.542,1.4483,2.2233,2.2233,0,0,0,.5488,1.581,1.8305,1.8305,0,0,0,1.4033.5879,1.9048,1.9048,0,0,0,1.4541-.5547,2.27,2.27,0,0,0,.5225-1.6142,1.9725,1.9725,0,0,0-.542-1.46A1.9406,1.9406,0,0,0,169.0742,72.0407Z"/><path d="M184.7383,70.9567a.4837.4837,0,0,1,.3633.1524.5095.5095,0,0,1,0,.7148.4845.4845,0,0,1-.3633.1533h-7.0928a.12.12,0,0,0-.1269.1026c-.0088.0332-.0235.084-.045.1523s-.0361.1192-.0449.1534c-.0166.0673.0088.1025.0772.1025h5.9316a.71.71,0,0,1,.51.21.6756.6756,0,0,1,.2168.5039v4.5156a.6866.6866,0,0,1-.2041.4912.6653.6653,0,0,1-.4971.2109h-.2549a.4588.4588,0,0,1-.4473-.4472.0556.0556,0,0,0-.0634-.0635h-5.1914c-.0508,0-.0772.02-.0772.0635a.44.44,0,0,1-.1269.3125.4077.4077,0,0,1-.3067.1347h-.2422a.6755.6755,0,0,1-.6884-.6894v-2.666c0-.0176-.0069-.0254-.02-.0254a.04.04,0,0,0-.0312.0127,7.48,7.48,0,0,1-1.4414,1.7724.5179.5179,0,0,1-.46.1348.5755.5755,0,0,1-.4082-.2617.7639.7639,0,0,1-.1143-.5235.7471.7471,0,0,1,.2549-.4716,7.8286,7.8286,0,0,0,2.334-3.6221q.0264-.1026-.0762-.1026H174.15a.4845.4845,0,0,1-.3633-.1533.5092.5092,0,0,1,0-.7148.4837.4837,0,0,1,.3633-.1524h4.6182c.0683,0,.1015-.038.1015-.1152v-.3184c0-.0761-.0332-.1152-.1015-.1152h-3.61a.5.5,0,0,1-.4971-.4971.46.46,0,0,1,.1465-.3447.4894.4894,0,0,1,.3506-.1406h3.61c.0683,0,.1015-.0371.1015-.1143v-.3193c0-.0762-.0332-.1143-.1015-.1143h-4.2227a.5236.5236,0,0,1-.5225-.5224.5253.5253,0,0,1,.1534-.377.4918.4918,0,0,1,.3691-.16H176.69a.0622.0622,0,0,0,.0576-.0313.0421.0421,0,0,0-.0069-.0566.2853.2853,0,0,1-.0507-.084.2919.2919,0,0,0-.0508-.082.4714.4714,0,0,1-.0391-.4405.4634.4634,0,0,1,.332-.3.8255.8255,0,0,1,.97.3692l.3056.5371a.1663.1663,0,0,0,.1534.0879h2.2324a.1978.1978,0,0,0,.166-.0879c.0332-.0606.123-.2217.2676-.4854a.8919.8919,0,0,1,.4082-.3828.819.819,0,0,1,.5488-.0635.5215.5215,0,0,1,.3633.2989.4923.4923,0,0,1-.02.4668c-.0087.0166-.0253.0439-.0507.082a.7812.7812,0,0,0-.0508.084.0554.0554,0,0,0,.0058.0566.0622.0622,0,0,0,.0577.0313h2.0537a.4955.4955,0,0,1,.37.16.5293.5293,0,0,1,.1533.377.5234.5234,0,0,1-.5234.5224h-3.9541a.1013.1013,0,0,0-.1153.1143v.3193a.1009.1009,0,0,0,.1153.1143h3.3418a.4894.4894,0,0,1,.3506.1406.46.46,0,0,1,.1464.3447.5.5,0,0,1-.497.4971h-3.3418a.102.102,0,0,0-.1153.1152v.3184a.1016.1016,0,0,0,.1153.1152Zm-7.31,2.6534v.3564a.1019.1019,0,0,0,.1152.1152h5.1153c.0674,0,.1015-.038.1015-.1152V73.61a.0907.0907,0,0,0-.1015-.1026h-5.1153C177.4678,73.5075,177.4287,73.5427,177.4287,73.61Zm0,1.4414v.3447a.1017.1017,0,0,0,.1152.1143h5.1153c.0674,0,.1015-.0381.1015-.1143v-.3447c0-.0772-.0341-.1143-.1015-.1143h-5.1153A.1013.1013,0,0,0,177.4287,75.0515Zm0,1.4287v.3574a.1017.1017,0,0,0,.1152.1143h5.1153c.0674,0,.1015-.0381.1015-.1143V76.48c0-.0762-.0341-.1153-.1015-.1153h-5.1153A.1024.1024,0,0,0,177.4287,76.48Z"/><path d="M137.8232,90.8757a.3426.3426,0,0,1-.5615-.2686V90.531a1.4277,1.4277,0,0,1,.5615-1.1739l1.4414-1.16a1.96,1.96,0,0,1,1.25-.4336.6952.6952,0,0,1,.7012.7012v7.9082a.7017.7017,0,1,1-1.4033,0V89.3064a.0113.0113,0,0,0-.0127-.0127l-.0254.0127Z"/><path d="M150.4443,96.4753a4.7689,4.7689,0,0,1-5.0634,0,2.3678,2.3678,0,0,1-.9121-1.9522,2.1564,2.1564,0,0,1,.5039-1.371,3.2225,3.2225,0,0,1,1.3964-.9756c.0088,0,.0127-.0039.0127-.0127a.0114.0114,0,0,0-.0127-.0127,2.7419,2.7419,0,0,1-1.167-.919,2.2017,2.2017,0,0,1-.415-1.3007,1.99,1.99,0,0,1,.8291-1.6641,4.4893,4.4893,0,0,1,4.5928,0,1.99,1.99,0,0,1,.8291,1.6641,2.2027,2.2027,0,0,1-1.582,2.0917c-.0088,0-.0127.0049-.0127.0137s.0039.0117.0127.0117a2.4673,2.4673,0,0,1,1.9,2.4746A2.3678,2.3678,0,0,1,150.4443,96.4753Zm-2.6972-3.7764a3.2776,3.2776,0,0,0-1.4541.709,1.4106,1.4106,0,0,0-.4981,1.0527,1.4421,1.4421,0,0,0,.5684,1.2051,2.4689,2.4689,0,0,0,1.55.4395,2.3586,2.3586,0,0,0,1.5234-.4395,1.47,1.47,0,0,0,.543-1.2051q0-1.3021-2.0283-1.7617A.4509.4509,0,0,0,147.7471,92.6989Zm-1.6075-2.64a1.2333,1.2333,0,0,0,.4209.9121,2.6283,2.6283,0,0,0,1.2374.5928.5077.5077,0,0,0,.2294,0,2.9738,2.9738,0,0,0,1.27-.6192,1.185,1.185,0,0,0,.4394-.8857,1.1521,1.1521,0,0,0-.4717-.97,2.205,2.205,0,0,0-1.3515-.3575,2.1191,2.1191,0,0,0-1.32.3516A1.1612,1.1612,0,0,0,146.14,90.0593Z"/><path d="M154.3418,92.1a.7424.7424,0,0,1-.7275-.7275v-.459a.7406.7406,0,0,1,.7275-.7266h.2041a.7406.7406,0,0,1,.7266.7266v.459a.7424.7424,0,0,1-.7266.7275Zm0,4.9746a.7406.7406,0,0,1-.7275-.7275v-.459a.7406.7406,0,0,1,.7275-.7266h.2041a.7406.7406,0,0,1,.7266.7266v.459a.7406.7406,0,0,1-.7266.7275Z"/><path d="M158.78,96.9724a.7651.7651,0,0,1-.4463-.3184.9432.9432,0,0,1-.166-.5488.388.388,0,0,1,.1972-.3506.46.46,0,0,1,.4151-.044,5.1724,5.1724,0,0,0,1.6836.3438,1.8892,1.8892,0,0,0,2.1689-2.1045q0-1.7739-1.6582-1.7734a2.3207,2.3207,0,0,0-1.0469.23,2.7231,2.7231,0,0,1-1.0839.332.5677.5677,0,0,1-.4268-.1787.5436.5436,0,0,1-.16-.4209l.1914-3.6485a.7918.7918,0,0,1,.2422-.5166.7274.7274,0,0,1,.5235-.21h3.8652a.5742.5742,0,1,1,0,1.1484h-3.2148c-.0684,0-.1016.0371-.1016.1143l-.1279,2.4228c0,.01.0088.0137.0254.0137l.0253-.0137a3.265,3.265,0,0,1,1.544-.3691,2.77,2.77,0,0,1,2.0664.7519,2.8937,2.8937,0,0,1,.7393,2.1182,3.1174,3.1174,0,0,1-.9053,2.43,3.84,3.84,0,0,1-2.666.8232A6.0859,6.0859,0,0,1,158.78,96.9724Z"/><path d="M166.8164,96.9724a.7654.7654,0,0,1-.4463-.3184.9432.9432,0,0,1-.166-.5488.3879.3879,0,0,1,.1973-.3506.46.46,0,0,1,.415-.044,5.1724,5.1724,0,0,0,1.6836.3438,1.8892,1.8892,0,0,0,2.1689-2.1045q0-1.7739-1.6582-1.7734a2.32,2.32,0,0,0-1.0468.23,2.7234,2.7234,0,0,1-1.084.332.568.568,0,0,1-.4268-.1787.5435.5435,0,0,1-.16-.4209l.1914-3.6485a.7913.7913,0,0,1,.2422-.5166.727.727,0,0,1,.5234-.21h3.8652a.5742.5742,0,1,1,0,1.1484H167.9c-.0684,0-.1016.0371-.1016.1143l-.1279,2.4228c0,.01.0088.0137.0254.0137l.0254-.0137a3.2646,3.2646,0,0,1,1.5439-.3691,2.77,2.77,0,0,1,2.0664.7519,2.8937,2.8937,0,0,1,.7393,2.1182,3.1174,3.1174,0,0,1-.9053,2.43,3.84,3.84,0,0,1-2.666.8232A6.0864,6.0864,0,0,1,166.8164,96.9724Z"/><path d="M181.8682,92.2028c-.0762,0-.1153.0332-.1153.1016V93.58a.1024.1024,0,0,0,.1153.1152h2.6025a.578.578,0,0,1,.4082.9824.5606.5606,0,0,1-.4082.1651h-2.6025a.1017.1017,0,0,0-.1153.1142V96.59c0,.18.041.2871.1221.3261a2.6256,2.6256,0,0,0,.7461.0567,1.6873,1.6873,0,0,0,.86-.1328q.1729-.1349.2237-.7979a.6739.6739,0,0,1,.2168-.4463.5661.5661,0,0,1,.459-.1533.6566.6566,0,0,1,.4589.2353.6862.6862,0,0,1,.1661.4922c-.0166.3223-.04.5821-.07.7774a1.4682,1.4682,0,0,1-.1777.5234,1.3361,1.3361,0,0,1-.2617.3379,1.0576,1.0576,0,0,1-.4658.1719,4.5122,4.5122,0,0,1-.6573.0771c-.2119.0088-.5273.0127-.9433.0127a8.5633,8.5633,0,0,1-1.3711-.0761.8234.8234,0,0,1-.543-.2618,1.1315,1.1315,0,0,1-.1269-.6191V94.9567a.1013.1013,0,0,0-.1153-.1142h-1.8623a.1234.1234,0,0,0-.1269.1142,4.3408,4.3408,0,0,1-3.3682,3.1387.6258.6258,0,0,1-.4912-.0508.7343.7343,0,0,1-.3379-.3828.5307.5307,0,0,1,.0254-.4531.588.588,0,0,1,.3574-.3,3.381,3.381,0,0,0,2.3731-1.9775c.0166-.0586-.0088-.0889-.0772-.0889h-2.2451a.5654.5654,0,0,1-.5742-.5733.5669.5669,0,0,1,.5742-.5742h2.4365c.0684,0,.1026-.039.1026-.1152,0-.0176.0019-.0508.0058-.1016s.0069-.0859.0069-.1025V92.3044c0-.0684-.0391-.1016-.1153-.1016h-.4843a.5182.5182,0,0,1-.4981-.32c-.0342-.0674-.0762-.08-.1269-.0371q-.5495.3574-1.212.7266a.5616.5616,0,0,1-.4716.0449.6024.6024,0,0,1-.3575-.3125.6525.6525,0,0,1-.038-.4912.62.62,0,0,1,.3056-.376q1.0079-.5478,1.5947-.9443a.0594.0594,0,0,0,.0381-.0635.1038.1038,0,0,0-.0254-.0762c-.7568-.6816-1.1484-1.0332-1.1738-1.0595a.5411.5411,0,0,1-.1973-.4082.5519.5519,0,0,1,.1719-.4209.6885.6885,0,0,1,.4463-.1915.658.658,0,0,1,.459.1534q.2432.2036,1.2891,1.1611a.1334.1334,0,0,0,.166.0117,9.1677,9.1677,0,0,0,1.3642-1.4277.0426.0426,0,0,0,.0069-.0576.065.065,0,0,0-.0577-.0323H175.86a.55.55,0,0,1-.3956-.1591.52.52,0,0,1-.166-.39.5669.5669,0,0,1,.5616-.5605h3.5332a1.2054,1.2054,0,0,1,1.0839.625,8.3594,8.3594,0,0,0,.5489.7773.08.08,0,0,0,.1406.0137q.4336-.485.8164-.97a.6224.6224,0,0,1,.3945-.2491.6521.6521,0,0,1,.46.083.5577.5577,0,0,1,.2607.37.5173.5173,0,0,1-.0947.4209q-.5112.65-1.02,1.1992a.095.095,0,0,0,0,.1533c.1953.1777.4336.3828.7139.6113a.1068.1068,0,0,0,.1533,0q.42-.4453.9687-1.16a.6243.6243,0,0,1,.4024-.2481.6578.6578,0,0,1,.4658.0821.5571.5571,0,0,1,.2607.3769.5281.5281,0,0,1-.0947.4268q-.4467.561-1.0342,1.1992a.0867.0867,0,0,0-.0185.0771.0656.0656,0,0,0,.0449.0625q.74.46,1.0332.6133a.6526.6526,0,0,1,.3125.376.642.642,0,0,1-.0322.4912.5734.5734,0,0,1-.37.3184.6045.6045,0,0,1-.4844-.0508q-.4469-.2549-1.1611-.7266c-.06-.0342-.1065-.0176-.14.0508a.5193.5193,0,0,1-.498.3066Zm-4.8858-1.123h5.001a.04.04,0,0,0,.0381-.0254.0268.0268,0,0,0-.0127-.0391,12.6226,12.6226,0,0,1-2.4746-2.6015c-.0342-.0508-.0723-.0469-.1153.0127a12.4605,12.4605,0,0,1-2.4619,2.5888.0262.0262,0,0,0-.0127.0391A.04.04,0,0,0,176.9824,91.08Zm3.4063,2.5V92.3044c0-.0684-.0381-.1016-.1153-.1016h-1.7216c-.0772,0-.1153.0332-.1153.1016V93.58a.102.102,0,0,0,.1153.1152h1.7216A.102.102,0,0,0,180.3887,93.58Z"/></svg>