<svg xmlns="http://www.w3.org/2000/svg" viewBox="0 0 195.0403 58.5764"><defs><style>.a{fill:#7ebe00;}.b{fill:#fff;stroke:#7ebe00;stroke-miterlimit:10;stroke-width:1.0951px;}.c{fill:none;}</style></defs><path d="M.7821,34.6008a.4089.4089,0,0,1-.4278.1084.42.42,0,0,1-.3125-.3252,1.0024,1.0024,0,0,1,.0127-.6123,1.0724,1.0724,0,0,1,.3574-.51,10.3885,10.3885,0,0,0,2.0918-2.334.6186.6186,0,0,1,.8418-.205.665.665,0,0,1,.2871.3828.5611.5611,0,0,1-.0576.459A11.5047,11.5047,0,0,1,2.67,32.84a.2631.2631,0,0,0-.0772.1914v5.001a.6537.6537,0,0,1-.6631.6631.6627.6627,0,0,1-.4785-.1914.63.63,0,0,1-.1973-.4717V34.2189a.0421.0421,0,0,0-.0253-.039q-.0264-.0117-.0381,0A4.1411,4.1411,0,0,1,.7821,34.6008ZM.5653,29.3459a9.5058,9.5058,0,0,0,1.9257-1.748.7076.7076,0,0,1,.4209-.2549.6483.6483,0,0,1,.4717.0761.52.52,0,0,1,.2617.3643.508.508,0,0,1-.1084.4268A10.8332,10.8332,0,0,1,1.075,30.468a.5177.5177,0,0,1-.44.0576.5216.5216,0,0,1-.3379-.2871A.7169.7169,0,0,1,.2713,29.74.6873.6873,0,0,1,.5653,29.3459Zm10.6894,7.793a.5665.5665,0,0,1,.586.5879.5664.5664,0,0,1-.586.5859H3.7918a.5718.5718,0,0,1-.414-.166.5988.5988,0,0,1,0-.8418.58.58,0,0,1,.414-.166H6.79a.1006.1006,0,0,0,.1142-.1143V34.3713a.1016.1016,0,0,0-.1142-.1152H4.4168a.5671.5671,0,0,1-.5742-.5743.5653.5653,0,0,1,.5742-.5732H6.79q.1141,0,.1142-.1025V30.8254q0-.1026-.1142-.1025H4.1492a.58.58,0,0,1-.4277-.1719.5677.5677,0,0,1-.1719-.4141.6088.6088,0,0,1,.6-.6h6.9522a.5619.5619,0,0,1,.4141.1719.6076.6076,0,0,1,.0068.8418.5576.5576,0,0,1-.4209.1719H8.3846c-.0771,0-.1152.0341-.1152.1025v2.1807c0,.0683.0381.1025.1152.1025h2.2578a.538.538,0,0,1,.4014.165.57.57,0,0,1,.1592.4082.5629.5629,0,0,1-.1592.4082.5312.5312,0,0,1-.4014.1661H8.3846a.1019.1019,0,0,0-.1152.1152v2.6533a.1009.1009,0,0,0,.1152.1143Zm-2.36-7.9336a19.7867,19.7867,0,0,0-3.0108-.8926.5046.5046,0,0,1-.3564-.2617.5309.5309,0,0,1-.0391-.4405.713.713,0,0,1,.3125-.3886.6534.6534,0,0,1,.4785-.083,21.4263,21.4263,0,0,1,3.0616.9179.5837.5837,0,0,1,.3447.3194.6449.6449,0,0,1-.3194.8164A.6075.6075,0,0,1,8.8944,29.2053Z"/><path d="M12.81,38.1086v-.0635a.5368.5368,0,0,1,.0762-.3955.5188.5188,0,0,1,.3193-.23c.0508-.0176.0762-.0469.0762-.09v-4.35a.5886.5886,0,0,1,.6-.6.5942.5942,0,0,1,.4336.1787.578.578,0,0,1,.1787.4209v3.98q0,.1026.1025.0762l.3828-.1152c.0762-.0332.1143-.08.1143-.14V31.8205c0-.0762-.0342-.1152-.1016-.1152H13.8055a.72.72,0,0,1-.7148-.7149V28.2229a.72.72,0,0,1,.7148-.7149H17.02a.7072.7072,0,0,1,.51.2109.6789.6789,0,0,1,.2168.504v1.5693a.031.031,0,0,0,.02.0322c.0127.0039.0274-.0019.044-.02a11.6345,11.6345,0,0,0,1.48-2.207.8441.8441,0,0,1,.3759-.3829.788.788,0,0,1,.5166-.0761.5081.5081,0,0,1,.3575.2617.4743.4743,0,0,1,.0253.4267,1.6323,1.6323,0,0,1-.09.2178c-.0254.0586-.0078.0879.0518.0879H23.576a.5678.5678,0,0,1,.5488.5488,1.8776,1.8776,0,0,1-.2929,1.0079,10.4679,10.4679,0,0,1-1.6709,1.9775c-.0518.0508-.0469.0937.0127.1279a10.92,10.92,0,0,0,1.9892,1.0967.7294.7294,0,0,1,.37.3379.71.71,0,0,1,.0762.4912.4856.4856,0,0,1-.2422.3506.4481.4481,0,0,1-.4209.0322c-.0508-.0176-.0761,0-.0761.0508V37.93a.6326.6326,0,0,1-.1983.4726.664.664,0,0,1-.4775.1914h-.1153a.5468.5468,0,0,1-.5488-.5488.079.079,0,0,0-.0889-.09H19.6473a.079.079,0,0,0-.0889.09.5451.5451,0,0,1-.5488.5488H18.908a.652.652,0,0,1-.65-.65V34.1164c0-.06-.0341-.081-.1025-.0635-.0088,0-.0127.002-.0127.0059s-.0049.0059-.0127.0059a.51.51,0,0,1-.6885-.3184c-.0175-.0684-.0556-.085-.1152-.0508a.5808.5808,0,0,1-.2549.0508h-.5869a.1019.1019,0,0,0-.1152.1152v2.5q0,.1026.1025.0762c.2207-.0684.4678-.1523.7393-.2549a.4244.4244,0,0,1,.3955.044.4469.4469,0,0,1,.2168.3379.7328.7328,0,0,1-.1016.4667.7005.7005,0,0,1-.37.2989q-2.1563.7529-3.8906,1.1992a.4794.4794,0,0,1-.4141-.0635A.5075.5075,0,0,1,12.81,38.1086Zm1.6963-7.4746h1.8877q.1025,0,.1025-.1143V28.7209a.0906.0906,0,0,0-.1025-.1025H14.5067q-.1143,0-.1143.1025V30.52A.101.101,0,0,0,14.5067,30.634Zm3.24.3564a.6756.6756,0,0,1-.2168.5039.7069.7069,0,0,1-.51.211h-.5361a.1023.1023,0,0,0-.1152.1152v.6758c0,.0684.039.1016.1152.1016h.5869a.5321.5321,0,0,1,.5225.3574.0649.0649,0,0,0,.0517.0322.0665.0665,0,0,0,.0635-.0195.5864.5864,0,0,1,.166-.0889A11.1132,11.1132,0,0,0,20.12,31.7443a.07.07,0,0,0,.0439-.0644.0865.0865,0,0,0-.0186-.0762,11.6743,11.6743,0,0,1-1.0459-1.1357.0876.0876,0,0,0-.1279-.0127q-.0762.1024-.28.332a.5808.5808,0,0,1-.4277.2031.6155.6155,0,0,1-.4531-.1523c-.042-.043-.0635-.0293-.0635.0381Zm5.332,2.7178a11.2228,11.2228,0,0,1-1.85-1.1611.14.14,0,0,0-.1787,0,14.0148,14.0148,0,0,1-2.0664,1.1611c-.0088.0166-.0088.03,0,.0381h4.082c.0166,0,.0254-.0039.0254-.0127A.0353.0353,0,0,0,23.0789,33.7082ZM22.53,36.77V34.9455a.1016.1016,0,0,0-.1142-.1152H19.6727a.1017.1017,0,0,0-.1143.1152V36.77a.1017.1017,0,0,0,.1143.1153h2.7432A.1017.1017,0,0,0,22.53,36.77Zm-2.73-7.4883a.0786.0786,0,0,0,0,.1026,10.5819,10.5819,0,0,0,1.2627,1.4922.0951.0951,0,0,0,.1533,0A9.0812,9.0812,0,0,0,22.53,29.3205a.0437.0437,0,0,0,.0068-.0586.0639.0639,0,0,0-.0576-.0312H19.9032A.1233.1233,0,0,0,19.8006,29.2814Z"/><path d="M.82,53.8693a.4211.4211,0,0,1-.4277.1153A.41.41,0,0,1,.08,53.6652a1.02,1.02,0,0,1,.0127-.6181A1.1139,1.1139,0,0,1,.4373,52.53a10.5333,10.5333,0,0,0,2.1045-2.334.57.57,0,0,1,.6885-.2676.1577.1577,0,0,0,.1787-.0507,12.1458,12.1458,0,0,0,1.3526-2.5645.8129.8129,0,0,1,.3251-.3955.7116.7116,0,0,1,.4913-.1025.5246.5246,0,0,1,.3759.25.5136.5136,0,0,1,.0577.4521.0514.0514,0,0,0-.0127.0381.0564.0564,0,0,1-.0127.039c-.0176.0674.0039.1016.0634.1016h5.0518a.5669.5669,0,0,1,.5615.5606.5193.5193,0,0,1-.166.39.5507.5507,0,0,1-.3955.1592H5.6034a.15.15,0,0,0-.1534.1015c-.0254.043-.0595.1094-.1015.1983s-.0772.1553-.1026.1982q-.0513.0762.0645.0762h5.2422a.7406.7406,0,0,1,.7275.7266v2.6025a.7406.7406,0,0,1-.7275.7275H7.16a.1244.1244,0,0,0-.1279.1153.3356.3356,0,0,1-.0762.165.3924.3924,0,0,1-.0645.0772.3315.3315,0,0,0-.0634.0761c-.0176.0342-.0039.06.038.0762H10.54a.5.5,0,0,1,.497.4981,1.2,1.2,0,0,1-.3183.8671,6.9879,6.9879,0,0,1-1.544,1.25.046.046,0,0,0-.0254.045.0467.0467,0,0,0,.0254.0449,19.4143,19.4143,0,0,0,2.1436.6.4828.4828,0,0,1,.3379.2539.5455.5455,0,0,1,.0449.4219.6267.6267,0,0,1-.2871.3506.6158.6158,0,0,1-.4531.0693,16.35,16.35,0,0,1-3.0489-1.0332.2829.2829,0,0,0-.2041,0,18.5728,18.5728,0,0,1-3.6474,1.06.6875.6875,0,0,1-.4785-.07.654.654,0,0,1-.3125-.3643.42.42,0,0,1,.0254-.4014.4587.4587,0,0,1,.331-.2353,18.1431,18.1431,0,0,0,2.8828-.6758c.0518-.0176.0469-.0469-.0127-.09a9.89,9.89,0,0,1-1.3134-1.0206.1151.1151,0,0,0-.1661-.0126q-.3573.2431-.6757.4462a.6162.6162,0,0,1-.4659.07.6571.6571,0,0,1-.4013-.2745.5061.5061,0,0,1-.07-.4209.522.522,0,0,1,.2617-.3447,8.3494,8.3494,0,0,0,1.8877-1.4668.051.051,0,0,0,.0185-.0508.029.029,0,0,0-.0312-.0254H4.9784a.7424.7424,0,0,1-.7276-.7275V51.0119c0-.0176-.0058-.0273-.0185-.0312s-.0235.0019-.0323.0185a.4134.4134,0,0,0-.0312.0381c-.0137.0176-.0244.0293-.0322.0391a.6057.6057,0,0,1-.7022.2168.1275.1275,0,0,0-.1523.0507q-.3193.4453-.6123.7911a.2759.2759,0,0,0-.0772.2031v5.5488a.6535.6535,0,0,1-.65.65.6535.6535,0,0,1-.65-.65v-4.4c0-.0176-.0107-.0293-.0322-.0381s-.0361-.0087-.0439,0Q.8963,53.8044.82,53.8693Zm1.709-6.6211a.7044.7044,0,0,1,.4151-.2539.63.63,0,0,1,.4648.0762.5179.5179,0,0,1,.2617.3633.5017.5017,0,0,1-.1084.4277,10.5678,10.5678,0,0,1-2.4492,2.2578.5149.5149,0,0,1-.4394.0567.5211.5211,0,0,1-.3389-.2871.7432.7432,0,0,1-.0313-.4971.6623.6623,0,0,1,.2872-.3955A9.3951,9.3951,0,0,0,2.5291,47.2482ZM5.54,50.425v.4082c0,.0772.0332.1143.1015.1143H9.826a.1006.1006,0,0,0,.1143-.1143V50.425a.1007.1007,0,0,0-.1143-.1143H5.6414C5.5731,50.3107,5.54,50.3479,5.54,50.425Zm0,1.4932v.4843c0,.0762.0332.1153.1015.1153H9.826a.1017.1017,0,0,0,.1143-.1153v-.4843a.1013.1013,0,0,0-.1143-.1153H5.6414C5.5731,51.8029,5.54,51.841,5.54,51.9182ZM9.366,54.9406H6.3045a.0419.0419,0,0,0-.0381.0254.0541.0541,0,0,0,0,.0518,7.1054,7.1054,0,0,0,1.4932,1.02.1627.1627,0,0,0,.1777,0,5.8786,5.8786,0,0,0,1.4541-1.02.0433.0433,0,0,0,.0137-.0518A.0422.0422,0,0,0,9.366,54.9406Z"/><path d="M12.81,57.9514v-.0645a.5341.5341,0,0,1,.0762-.3945.5237.5237,0,0,1,.3193-.2305.0928.0928,0,0,0,.0762-.0889v-4.35a.5888.5888,0,0,1,.6-.6.5907.5907,0,0,1,.4336.1787.5767.5767,0,0,1,.1787.4209v3.98q0,.1026.1025.0762l.3828-.1143c.0762-.0341.1143-.081.1143-.14V51.6623c0-.0762-.0342-.1152-.1016-.1152H13.8055a.7186.7186,0,0,1-.7148-.7139V48.0647a.7184.7184,0,0,1,.7148-.7139H17.02a.71.71,0,0,1,.51.21.6789.6789,0,0,1,.2168.504v1.57a.0289.0289,0,0,0,.02.0312c.0127.0039.0274-.0019.044-.02a11.6345,11.6345,0,0,0,1.48-2.207.8441.8441,0,0,1,.3759-.3829.7942.7942,0,0,1,.5166-.0761.5108.5108,0,0,1,.3575.2617.4764.4764,0,0,1,.0253.4277,1.5215,1.5215,0,0,1-.09.2168c-.0254.06-.0078.0889.0518.0889H23.576a.5678.5678,0,0,1,.5488.5488,1.882,1.882,0,0,1-.2929,1.0078A10.5,10.5,0,0,1,22.161,51.51c-.0518.0507-.0469.0937.0127.1269a10.8665,10.8665,0,0,0,1.9892,1.0977.7252.7252,0,0,1,.37.3379.7067.7067,0,0,1,.0762.49.4855.4855,0,0,1-.2422.3516.4479.4479,0,0,1-.4209.0312c-.0508-.0166-.0761,0-.0761.0508v3.7764a.63.63,0,0,1-.1983.4716.66.66,0,0,1-.4775.1914h-.1153a.5451.5451,0,0,1-.5488-.5488.0787.0787,0,0,0-.0889-.0889H19.6473a.0787.0787,0,0,0-.0889.0889.5435.5435,0,0,1-.5488.5488H18.908a.652.652,0,0,1-.65-.65V53.9592q0-.0909-.1025-.0645c-.0088,0-.0127.002-.0127.0059s-.0049.0068-.0127.0068a.4866.4866,0,0,1-.415-.0068.4769.4769,0,0,1-.2735-.3125c-.0175-.0674-.0556-.084-.1152-.0508a.567.567,0,0,1-.2549.0508h-.5869a.1023.1023,0,0,0-.1152.1152v2.5q0,.1026.1025.0762c.2207-.0674.4678-.1523.7393-.2539a.4216.4216,0,0,1,.3955.0439.4456.4456,0,0,1,.2168.3379.73.73,0,0,1-.1016.4658.7016.7016,0,0,1-.37.3q-2.1563.7515-3.8906,1.1993a.4862.4862,0,0,1-.4141-.0635A.5116.5116,0,0,1,12.81,57.9514Zm1.6963-7.4746h1.8877c.0683,0,.1025-.0391.1025-.1153V48.5627a.09.09,0,0,0-.1025-.1016H14.5067c-.0762,0-.1143.0332-.1143.1016v1.7988A.1017.1017,0,0,0,14.5067,50.4768Zm3.24.3564a.6756.6756,0,0,1-.2168.5039.71.71,0,0,1-.51.21h-.5361a.1023.1023,0,0,0-.1152.1152v.6758c0,.0683.039.1025.1152.1025h.5869a.5326.5326,0,0,1,.5225.3565.0657.0657,0,0,0,.0517.0332.0687.0687,0,0,0,.0635-.02.5893.5893,0,0,1,.166-.09A11.0668,11.0668,0,0,0,20.12,51.5861a.068.068,0,0,0,.0439-.0644.0873.0873,0,0,0-.0186-.0762,11.7712,11.7712,0,0,1-1.0459-1.1348.087.087,0,0,0-.1279-.0136c-.0508.0683-.1445.18-.28.332a.5854.5854,0,0,1-.4277.2041A.6163.6163,0,0,1,17.81,50.68c-.042-.042-.0635-.0293-.0635.039Zm5.332,2.7178a11.2307,11.2307,0,0,1-1.85-1.1621.1425.1425,0,0,0-.1787,0,14.109,14.109,0,0,1-2.0664,1.1621c-.0088.0166-.0088.0293,0,.0371h4.082c.0166,0,.0254-.0039.0254-.0117A.0337.0337,0,0,0,23.0789,53.551Zm-.5488,3.06V54.7873a.101.101,0,0,0-.1142-.1143H19.6727a.101.101,0,0,0-.1143.1143v1.8242a.1017.1017,0,0,0,.1143.1153h2.7432A.1017.1017,0,0,0,22.53,56.6115Zm-2.73-7.4873a.0786.0786,0,0,0,0,.1026,10.6321,10.6321,0,0,0,1.2627,1.4921.0962.0962,0,0,0,.1533,0A9.1215,9.1215,0,0,0,22.53,49.1623a.0424.0424,0,0,0,.0068-.0576.0648.0648,0,0,0-.0576-.0322H19.9032A.1216.1216,0,0,0,19.8006,49.1242Z"/><path d="M110.0321,17.4934a16.9889,16.9889,0,0,0-4.1065-3.9131h13.7617v.9375H108.4549a13.6953,13.6953,0,0,1,2.38,2.5Zm5.623-12.3487a16.7457,16.7457,0,0,0,4.1065,3.9278H106V8.135h11.2325a13.6846,13.6846,0,0,1-2.38-2.4981Z"/><path class="a" d="M117.4959,32.6311a.39.39,0,0,1,0,.6738l-8.2041,4.7461a.3992.3992,0,0,1-.59-.3487l-.0127-9.4814a.3733.3733,0,0,1,.1992-.3437.3545.3545,0,0,1,.3916.0068Z"/><path class="a" d="M116.4119,47.7268a.3546.3546,0,0,1,.3916-.0069.3711.3711,0,0,1,.1983.3428l-.0117,9.4824a.3848.3848,0,0,1-.1983.3487.3459.3459,0,0,1-.3916,0l-8.2041-4.7471a.39.39,0,0,1,0-.6738Z"/><rect class="b" x="31.1995" y="0.5476" width="68" height="20"/><path d="M47.201,11.4934a.55.55,0,0,1-.3955-.1592.5158.5158,0,0,1-.166-.3887.5668.5668,0,0,1,.5615-.5615h1.0459a.101.101,0,0,0,.1143-.1143V5.715a.7406.7406,0,0,1,.7275-.7265h7.36a.52.52,0,0,1,.3886.166.5709.5709,0,0,1,0,.791.5193.5193,0,0,1-.3886.165H49.8407q-.1143,0-.1143.1026v.5224q0,.1026.1143.1026H56.13a.46.46,0,0,1,.3447.1465.51.51,0,0,1,0,.7011.4568.4568,0,0,1-.3447.1475h-6.289c-.0762,0-.1143.0342-.1143.1016v.5488a.101.101,0,0,0,.1143.1143H56.13a.4607.4607,0,0,1,.3447.1474.4923.4923,0,0,1,.14.3506A.4772.4772,0,0,1,56.13,9.58h-6.289a.1013.1013,0,0,0-.1143.1152V10.27a.101.101,0,0,0,.1143.1143h7.8457a.5669.5669,0,0,1,.56.5615.5158.5158,0,0,1-.166.3887.549.549,0,0,1-.3945.1592H52.494c-.0166,0-.0313.0136-.044.039s-.0107.042.0059.0508a9.7264,9.7264,0,0,0,2.13,1.7734c.0429.0332.0976.0254.166-.0263a10.9482,10.9482,0,0,0,1.1611-1.1856.7178.7178,0,0,1,.4463-.2617.6978.6978,0,0,1,.4971.0957.5232.5232,0,0,1,.2617.376.5044.5044,0,0,1-.1211.44q-.5361.6123-1.1221,1.16c-.0517.0517-.0468.09.0127.1152a18.0923,18.0923,0,0,0,1.8877.7783.4788.4788,0,0,1,.3.3.5156.5156,0,0,1-.02.4268.7788.7788,0,0,1-.3691.3389.6264.6264,0,0,1-.4854.0185A12.7226,12.7226,0,0,1,50.9,11.5959a.2222.2222,0,0,0-.1787-.1025h-.8808a.1017.1017,0,0,0-.1143.1152v2.9336c0,.0771.042.1064.127.09q1.6713-.2167,2.9345-.4463a.5189.5189,0,0,1,.4014.0889.4727.4727,0,0,1,.2109.3447.6187.6187,0,0,1-.1025.4209.5143.5143,0,0,1-.3574.2295,52.3919,52.3919,0,0,1-5.37.7393.5637.5637,0,0,1-.4267-.1211.5494.5494,0,0,1-.2109-.3887.5189.5189,0,0,1,.1152-.4013.5338.5338,0,0,1,.37-.1983c.0928-.0088.2314-.0215.4141-.0381s.3213-.03.415-.0381c.0762,0,.1143-.0429.1143-.1279V11.6086a.1017.1017,0,0,0-.1143-.1152Z"/><path d="M72.9032,15.7287a.59.59,0,0,1-.4336-.1211.5453.5453,0,0,1-.2168-.3887.56.56,0,0,1,.1338-.4335.5875.5875,0,0,1,.4023-.2178q.5859-.063,1.76-.2168a.1236.1236,0,0,0,.1152-.127V13.0119c0-.0683-.0381-.1025-.1152-.1025H72.9549a.4932.4932,0,0,1-.37-.1592.5231.5231,0,0,1-.1533-.376.5234.5234,0,0,1,.5234-.5234h1.5938c.0771,0,.1152-.0332.1152-.1016v-.74a.1013.1013,0,0,0-.1152-.1143H73.286a.7406.7406,0,0,1-.7266-.7275V5.69a.7406.7406,0,0,1,.7266-.7266h4.0312a.7406.7406,0,0,1,.7266.7266V9.3254c0,.0508.03.0684.09.0508a.65.65,0,0,1,.23-.0381H80.48c.0176,0,.03-.0108.0381-.0322s.0049-.0362-.0127-.044q-.65-.6768-1.3389-1.3017a.547.547,0,0,1-.1845-.4014.5659.5659,0,0,1,.1591-.415.5748.5748,0,0,1,.4209-.1788.6.6,0,0,1,.4209.1661c.085.0771.2061.1933.3633.3505s.2783.2745.3633.3516c.0518.0508.0977.0547.1406.0127q.65-.7149,1.25-1.5186c.043-.0585.0254-.0888-.0508-.0888H79.0643a.5743.5743,0,1,1,0-1.1485H82.98a.5671.5671,0,0,1,.5742.5743,1.7759,1.7759,0,0,1-.3183,1.0586A18.7651,18.7651,0,0,1,81.68,8.6877c-.0508.0508-.0469.1016.0127.1533l.3828.4209a.2216.2216,0,0,0,.1787.0762h1.1485a.5653.5653,0,0,1,.5732.5742,2.8492,2.8492,0,0,1-.2041,1.0967,12.7653,12.7653,0,0,1-.8037,1.6074.5653.5653,0,0,1-.376.2744.5491.5491,0,0,1-.4531-.083.6189.6189,0,0,1-.1914-.8291,11.3722,11.3722,0,0,0,.7275-1.3906.0912.0912,0,0,0-.0068-.0762.06.06,0,0,0-.0566-.0381H81.5653a.1013.1013,0,0,0-.1153.1143v3.5586a3.4718,3.4718,0,0,1-.2041,1.5635q-.2036.2856-1.122.2861c-.4082,0-.7579-.0078-1.0469-.0254a.6225.6225,0,0,1-.4209-.1914.6336.6336,0,0,1-.19-.4336.4941.4941,0,0,1,.1523-.4014.5231.5231,0,0,1,.4082-.1465c.1875.0079.4131.0127.6768.0127.2207,0,.35-.0283.3886-.083a1.5471,1.5471,0,0,0,.0576-.581V10.5881a.1013.1013,0,0,0-.1152-.1143H78.3631a.5308.5308,0,0,1-.2422-.0517c-.0595-.0332-.1064-.0166-.1406.0517a.673.673,0,0,1-.6631.4209H76.118a.101.101,0,0,0-.1143.1143v.74c0,.0684.0381.1016.1143.1016h1.4668a.523.523,0,1,1,0,1.0459H76.118a.1017.1017,0,0,0-.1143.1152v1.0205a.1169.1169,0,0,0,.0313.0762.0616.0616,0,0,0,.07.0254q.9052-.1392,1.48-.2422a.4382.4382,0,0,1,.37.0957.4691.4691,0,0,1,.1787.3506.56.56,0,0,1-.1406.4082.6811.6811,0,0,1-.3828.2295Q74.8943,15.4738,72.9032,15.7287Zm.8681-9.541V7.3605a.09.09,0,0,0,.1016.1026h.6758c.0771,0,.1152-.0342.1152-.1026V6.1877c0-.0684-.0381-.1025-.1152-.1025h-.6758A.09.09,0,0,0,73.7713,6.1877Zm.7774,3.6865a.1019.1019,0,0,0,.1152-.1152V8.5344a.1013.1013,0,0,0-.1152-.1143h-.6758c-.0684,0-.1016.0381-.1016.1143V9.759c0,.0762.0332.1152.1016.1152Zm1.455-3.6865V7.3605q0,.1026.1143.1026h.6377c.0771,0,.1152-.0342.1152-.1026V6.1877c0-.0684-.0381-.1025-.1152-.1025H76.118Q76.0037,6.0852,76.0037,6.1877Zm0,2.3467V9.759a.1017.1017,0,0,0,.1143.1152h.6377a.1019.1019,0,0,0,.1152-.1152V8.5344a.1013.1013,0,0,0-.1152-.1143H76.118A.101.101,0,0,0,76.0037,8.5344Z"/><path class="c" d="M46.8377,36.54a3.5082,3.5082,0,0,1-5.167,0,6.1009,6.1009,0,0,1-.86-3.6484,6.1051,6.1051,0,0,1,.86-3.6484,3.5082,3.5082,0,0,1,5.167,0,6.1043,6.1043,0,0,1,.86,3.6484A6.1,6.1,0,0,1,46.8377,36.54Zm-1.0459-6.4736a1.8312,1.8312,0,0,0-3.0742,0,5.7785,5.7785,0,0,0-.5039,2.8252,5.7761,5.7761,0,0,0,.5039,2.8252,1.8312,1.8312,0,0,0,3.0742,0,5.8,5.8,0,0,0,.503-2.8252A5.8027,5.8027,0,0,0,45.7918,30.0666Z"/><path d="M51.908,34.4865a2.9687,2.9687,0,0,1-2.2451-.8486,3.2323,3.2323,0,0,1-.8164-2.3408,3.0349,3.0349,0,0,1,.918-2.3272,3.453,3.453,0,0,1,2.4619-.8613q3.3809,0,3.3809,4.082a6.9183,6.9183,0,0,1-1.002,4.1641,3.4726,3.4726,0,0,1-2.9531,1.32,7.7263,7.7263,0,0,1-1.3262-.127.6754.6754,0,0,1-.4277-.2617.7708.7708,0,0,1-.1592-.4785.415.415,0,0,1,.1787-.3574.4885.4885,0,0,1,.4082-.0762,5.7414,5.7414,0,0,0,1.3262.1533,2.2423,2.2423,0,0,0,1.7412-.7207,3.0868,3.0868,0,0,0,.6953-2.0605c0-.0166-.0039-.0254-.0127-.0254h-.0254A2.8942,2.8942,0,0,1,51.908,34.4865Zm.3184-5.23a1.9523,1.9523,0,0,0-1.4541.5293,2.0621,2.0621,0,0,0-.5225,1.5117,2.166,2.166,0,0,0,.542,1.5693,1.9044,1.9044,0,0,0,1.4346.5615,1.8457,1.8457,0,0,0,1.416-.5742,2.19,2.19,0,0,0,.5361-1.5566,2.0156,2.0156,0,0,0-.5546-1.48A1.8851,1.8851,0,0,0,52.2264,29.2561Z"/><path d="M58.72,32.5734a.7422.7422,0,0,1-.7276-.7275v-.459a.7406.7406,0,0,1,.7276-.7275h.2041a.7406.7406,0,0,1,.7265.7275v.459a.7423.7423,0,0,1-.7265.7275Zm0,4.9746a.74.74,0,0,1-.7276-.7275v-.459a.7406.7406,0,0,1,.7276-.7275h.2041a.7406.7406,0,0,1,.7265.7275v.459a.74.74,0,0,1-.7265.7275Z"/><path d="M62.0867,35.507a.5668.5668,0,0,1-.5615-.5615,1.7548,1.7548,0,0,1,.3184-1.0205l3.56-5.1279a1.2355,1.2355,0,0,1,1.0839-.5616.6972.6972,0,0,1,.6885.69v5.3574c0,.0684.0391.1016.1153.1016h.8164a.5615.5615,0,0,1,0,1.123h-.8164a.1017.1017,0,0,0-.1153.1143v1.2373a.6885.6885,0,0,1-1.3769,0V35.6213a.1013.1013,0,0,0-.1153-.1143Zm.8545-1.1611c0,.0088-.0019.0127-.0068.0127s-.0059.0049-.0059.0127.004.0127.0127.0127h2.7422c.0772,0,.1153-.0332.1153-.1016V30.2766a.0118.0118,0,0,0-.0127-.0127c-.0176,0-.0254.0049-.0254.0127Z"/><path d="M73.452,37.675q-3.3809,0-3.3809-4.209a6.5826,6.5826,0,0,1,1.02-4.0244,3.4739,3.4739,0,0,1,2.9346-1.333,6.38,6.38,0,0,1,1.1982.1143.6756.6756,0,0,1,.4278.2617.7918.7918,0,0,1,.1592.4912.4023.4023,0,0,1-.1788.3447.4885.4885,0,0,1-.4082.0762,5.2249,5.2249,0,0,0-1.1982-.1406,2.1439,2.1439,0,0,0-1.6523.7207,3.4667,3.4667,0,0,0-.7842,2.0605c0,.0166.0039.0254.0127.0254h.0254a2.8977,2.8977,0,0,1,2.1425-.7656,2.8486,2.8486,0,0,1,3.0616,3.0615,3.2141,3.2141,0,0,1-.918,2.4365A3.41,3.41,0,0,1,73.452,37.675Zm0-5.3193a1.8861,1.8861,0,0,0-1.41.5556,1.9825,1.9825,0,0,0-.542,1.4473,2.227,2.227,0,0,0,.5489,1.582,1.8332,1.8332,0,0,0,1.4033.5869,1.9051,1.9051,0,0,0,1.4541-.5546,2.2692,2.2692,0,0,0,.5224-1.6143,1.9726,1.9726,0,0,0-.5419-1.46A1.9407,1.9407,0,0,0,73.452,32.3557Z"/><path d="M86.2459,32.675c-.0761,0-.1152.0342-.1152.1025v1.2754a.1017.1017,0,0,0,.1152.1143h2.6026a.5742.5742,0,1,1,0,1.1484H86.2459a.1017.1017,0,0,0-.1152.1143v1.6328c0,.1787.041.2871.1221.3252a2.57,2.57,0,0,0,.7461.0576,1.6717,1.6717,0,0,0,.86-.1338q.1728-.1332.2236-.7969a.6739.6739,0,0,1,.2168-.4462.5631.5631,0,0,1,.459-.1534.6566.6566,0,0,1,.459.2354.685.685,0,0,1,.166.4912q-.0249.4848-.07.7783a1.4713,1.4713,0,0,1-.1777.5235,1.34,1.34,0,0,1-.2617.3378,1.0569,1.0569,0,0,1-.4659.1719,4.496,4.496,0,0,1-.6572.0772c-.2119.0078-.5273.0127-.9433.0127a8.5169,8.5169,0,0,1-1.3711-.0772.8149.8149,0,0,1-.543-.2617,1.127,1.127,0,0,1-.127-.6182V35.43a.1013.1013,0,0,0-.1152-.1143H82.7889a.1235.1235,0,0,0-.127.1143,4.3424,4.3424,0,0,1-3.3681,3.1387.6222.6222,0,0,1-.4912-.0518.728.728,0,0,1-.3379-.3818.531.531,0,0,1,.0254-.4532.5848.5848,0,0,1,.3574-.3,3.3808,3.3808,0,0,0,2.373-1.9775c.0166-.0586-.0088-.0889-.0771-.0889H78.8983a.5742.5742,0,1,1,0-1.1484h2.4365q.1026,0,.1025-.1143,0-.0262.0059-.1025c.0039-.0508.0068-.085.0068-.1016V32.7775c0-.0683-.039-.1025-.1152-.1025H80.85a.5172.5172,0,0,1-.498-.3193c-.0342-.0674-.0762-.08-.127-.0381q-.5493.3575-1.2119.7275a.5614.5614,0,0,1-.4717.0449.6048.6048,0,0,1-.3574-.3125.653.653,0,0,1-.0381-.4912.6252.6252,0,0,1,.3057-.3769q1.0079-.548,1.5947-.9434a.06.06,0,0,0,.0381-.0644.1071.1071,0,0,0-.0254-.0762q-1.1352-1.021-1.1738-1.0586a.54.54,0,0,1-.1973-.4082.5513.5513,0,0,1,.1719-.4209.6887.6887,0,0,1,.4463-.1914.6539.6539,0,0,1,.459.1533q.2431.2037,1.289,1.16a.1352.1352,0,0,0,.166.0127,9.1677,9.1677,0,0,0,1.3643-1.4287.0413.0413,0,0,0,.0068-.0567.0628.0628,0,0,0-.0576-.0322H80.2381a.5492.5492,0,0,1-.3955-.1592.5212.5212,0,0,1-.166-.39.5651.5651,0,0,1,.5615-.5606h3.5332a1.2036,1.2036,0,0,1,1.084.625,8.3412,8.3412,0,0,0,.5488.7774.08.08,0,0,0,.1407.0126q.4335-.4833.8164-.9687a.622.622,0,0,1,.3945-.249.6517.6517,0,0,1,.46.083.5553.5553,0,0,1,.2607.37.5176.5176,0,0,1-.0947.4209q-.5112.65-1.02,1.1992a.0942.0942,0,0,0,0,.1524q.293.268.7138.6123a.1071.1071,0,0,0,.1534,0q.42-.4453.9687-1.16a.63.63,0,0,1,.4023-.249.6637.6637,0,0,1,.4659.083.5574.5574,0,0,1,.2607.376.5293.5293,0,0,1-.0947.4277q-.4468.561-1.0342,1.1992a.0859.0859,0,0,0-.0186.0762.0662.0662,0,0,0,.045.0635q.74.46,1.0332.6123a.6572.6572,0,0,1,.3125.3769.642.642,0,0,1-.0323.4912.5756.5756,0,0,1-.37.3184.6035.6035,0,0,1-.4843-.0508q-.4468-.2548-1.1612-.7275c-.06-.0332-.1064-.0166-.14.0517a.5188.5188,0,0,1-.4981.3057ZM81.36,31.5529h5.001a.0411.0411,0,0,0,.038-.0263.0257.0257,0,0,0-.0126-.0381,12.6211,12.6211,0,0,1-2.4747-2.6016c-.0341-.0517-.0722-.0469-.1152.0127a12.5079,12.5079,0,0,1-2.4619,2.5889.0252.0252,0,0,0-.0127.0381A.0414.0414,0,0,0,81.36,31.5529Zm3.4062,2.5V32.7775c0-.0683-.038-.1025-.1152-.1025H82.93c-.0771,0-.1152.0342-.1152.1025v1.2754a.1013.1013,0,0,0,.1152.1143h1.7217A.1013.1013,0,0,0,84.7664,34.0529Z"/><path d="M42.201,51.1906a.342.342,0,0,1-.5615-.2676v-.0771a1.4245,1.4245,0,0,1,.5615-1.1729l1.4414-1.1611a1.96,1.96,0,0,1,1.25-.4336.6969.6969,0,0,1,.7012.7012v7.9092a.7017.7017,0,1,1-1.4033,0V49.6213a.0114.0114,0,0,0-.0127-.0127l-.0254.0127Z"/><path d="M54.8221,56.79a4.7685,4.7685,0,0,1-5.0635,0,2.3644,2.3644,0,0,1-.9121-1.9511A2.1532,2.1532,0,0,1,49.35,53.468a3.2259,3.2259,0,0,1,1.3965-.9766c.0088,0,.0127-.0039.0127-.0127a.0114.0114,0,0,0-.0127-.0127,2.7393,2.7393,0,0,1-1.167-.918,2.2052,2.2052,0,0,1-.415-1.3007,1.9918,1.9918,0,0,1,.8291-1.6651,4.4891,4.4891,0,0,1,4.5927,0,1.9919,1.9919,0,0,1,.8292,1.6651,2.2046,2.2046,0,0,1-1.5821,2.0918c-.0088,0-.0127.0039-.0127.0127s.0039.0127.0127.0127a2.4665,2.4665,0,0,1,1.9,2.4746A2.3644,2.3644,0,0,1,54.8221,56.79Zm-2.6973-3.7754a3.2672,3.2672,0,0,0-1.4541.7081,1.4106,1.4106,0,0,0-.498,1.0527,1.4422,1.4422,0,0,0,.5683,1.2051,2.47,2.47,0,0,0,1.55.44,2.36,2.36,0,0,0,1.5234-.44,1.47,1.47,0,0,0,.543-1.2051q0-1.3023-2.0284-1.7608A.4245.4245,0,0,0,52.1248,53.0148Zm-1.6074-2.6406a1.2312,1.2312,0,0,0,.4209.9121,2.6274,2.6274,0,0,0,1.2373.5928.5054.5054,0,0,0,.2295,0,2.9832,2.9832,0,0,0,1.27-.6182,1.1864,1.1864,0,0,0,.44-.8867,1.1522,1.1522,0,0,0-.4717-.97,2.2119,2.2119,0,0,0-1.3515-.3565,2.12,2.12,0,0,0-1.32.3506A1.1627,1.1627,0,0,0,50.5174,50.3742Z"/><path d="M58.72,52.4152a.7406.7406,0,0,1-.7276-.7265v-.46a.74.74,0,0,1,.7276-.7265h.2041a.74.74,0,0,1,.7265.7265v.46a.7407.7407,0,0,1-.7265.7265Zm0,4.9746a.7406.7406,0,0,1-.7276-.7265v-.46a.7406.7406,0,0,1,.7276-.7265h.2041a.7407.7407,0,0,1,.7265.7265v.46a.7407.7407,0,0,1-.7265.7265Z"/><path d="M67.75,49.6213l-2.3213,2.2578a.0375.0375,0,0,0-.0126.0264.0113.0113,0,0,0,.0126.0127h.2422a2.6784,2.6784,0,0,1,1.9258.6562,2.4763,2.4763,0,0,1,.6895,1.8819,2.8928,2.8928,0,0,1-.8868,2.2578,3.5792,3.5792,0,0,1-2.4941.8037,6.85,6.85,0,0,1-1.7978-.2422.8112.8112,0,0,1-.4532-.3125.8922.8922,0,0,1-.1718-.542.402.402,0,0,1,.1972-.3574.45.45,0,0,1,.4151-.0508,5.5036,5.5036,0,0,0,1.8105.3564,2.0234,2.0234,0,0,0,1.4609-.497,1.8735,1.8735,0,0,0,.5166-1.416,1.298,1.298,0,0,0-.5546-1.1543,3.3087,3.3087,0,0,0-1.8047-.376h-.3574A.5455.5455,0,0,1,63.63,52.39a1.1845,1.1845,0,0,1,.3828-.9052l2.3467-2.22a.0385.0385,0,0,0,.0137-.0253c0-.0088-.0049-.0127-.0137-.0127H62.992a.5743.5743,0,1,1,0-1.1485h4.5918a.5669.5669,0,0,1,.5742.5742A1.2692,1.2692,0,0,1,67.75,49.6213Z"/><path d="M75.9715,56.382a3.5061,3.5061,0,0,1-5.167,0,6.1,6.1,0,0,1-.86-3.6474,6.1015,6.1015,0,0,1,.86-3.6485,3.5063,3.5063,0,0,1,5.167,0,6.1007,6.1007,0,0,1,.86,3.6485A6.0987,6.0987,0,0,1,75.9715,56.382Zm-1.0459-6.4736a1.8323,1.8323,0,0,0-3.0742,0,5.783,5.783,0,0,0-.5039,2.8262,5.779,5.779,0,0,0,.5039,2.8252,1.8324,1.8324,0,0,0,3.0742,0,5.8034,5.8034,0,0,0,.5029-2.8252A5.8074,5.8074,0,0,0,74.9256,49.9084Z"/><path d="M89.116,51.1145a.4833.4833,0,0,1,.3633.1523.5092.5092,0,0,1,0,.7148.4843.4843,0,0,1-.3633.1534H82.0233a.12.12,0,0,0-.127.1015c-.0088.0342-.0234.085-.0449.1533s-.0361.1192-.0449.1534c-.0166.0673.0088.1015.0771.1015h5.9317a.7068.7068,0,0,1,.51.211.6752.6752,0,0,1,.2168.5039v4.5156a.6822.6822,0,0,1-.2041.49.6646.6646,0,0,1-.497.211h-.2549a.4572.4572,0,0,1-.4473-.4463.0556.0556,0,0,0-.0635-.0635H81.8836c-.0508,0-.0771.02-.0771.0635a.4394.4394,0,0,1-.127.3125.41.41,0,0,1-.3066.1338h-.2422a.6742.6742,0,0,1-.6885-.6885v-2.666c0-.0176-.0068-.0254-.0195-.0254a.04.04,0,0,0-.0313.0127A7.4771,7.4771,0,0,1,78.95,56.9816a.5143.5143,0,0,1-.46.1338.5741.5741,0,0,1-.4082-.2607.7631.7631,0,0,1-.1143-.5234.7446.7446,0,0,1,.2549-.4717,7.8268,7.8268,0,0,0,2.334-3.6231c.0176-.0674-.0078-.1015-.0762-.1015H78.5282a.4843.4843,0,0,1-.3633-.1534.5092.5092,0,0,1,0-.7148.4833.4833,0,0,1,.3633-.1523h4.6181c.0684,0,.1016-.0381.1016-.1153v-.3183c0-.0772-.0332-.1153-.1016-.1153h-3.61a.5.5,0,0,1-.4971-.497.4583.4583,0,0,1,.1465-.3448.489.489,0,0,1,.3506-.1406h3.61c.0684,0,.1016-.0381.1016-.1143V49.15c0-.0762-.0332-.1142-.1016-.1142H78.9237a.5236.5236,0,0,1-.5225-.5235.5235.5235,0,0,1,.1533-.376.492.492,0,0,1,.3692-.16h2.1435a.0621.0621,0,0,0,.0576-.0313.0435.0435,0,0,0-.0068-.0576.2778.2778,0,0,1-.0508-.083.3162.3162,0,0,0-.0508-.083.4694.4694,0,0,1-.039-.44.4613.4613,0,0,1,.332-.3.809.809,0,0,1,.5488.0127.82.82,0,0,1,.4209.3565l.3057.5361a.1653.1653,0,0,0,.1533.0889h2.2324a.1966.1966,0,0,0,.1661-.0889c.0332-.06.123-.2207.2675-.4844a.8923.8923,0,0,1,.4082-.3828.8251.8251,0,0,1,.5489-.0644.52.52,0,0,1,.3632.3.49.49,0,0,1-.02.4658.8767.8767,0,0,1-.0508.083.7907.7907,0,0,0-.0507.083.0569.0569,0,0,0,.0058.0576.0621.0621,0,0,0,.0576.0313h2.0537a.4957.4957,0,0,1,.37.16.5276.5276,0,0,1,.1533.376.5236.5236,0,0,1-.5235.5235H84.7664a.1012.1012,0,0,0-.1152.1142v.3193a.1013.1013,0,0,0,.1152.1143h3.3418a.489.489,0,0,1,.3506.1406.4583.4583,0,0,1,.1465.3448.5.5,0,0,1-.4971.497H84.7664a.1016.1016,0,0,0-.1152.1153v.3183a.1016.1016,0,0,0,.1152.1153Zm-7.3095,2.6533v.3564a.102.102,0,0,0,.1152.1153h5.1152c.0674,0,.1016-.0381.1016-.1153v-.3564a.09.09,0,0,0-.1016-.1026H81.9217C81.8455,53.6652,81.8065,53.6994,81.8065,53.7678Zm0,1.4414v.3437a.102.102,0,0,0,.1152.1153h5.1152c.0674,0,.1016-.0381.1016-.1153v-.3437c0-.0772-.0342-.1153-.1016-.1153H81.9217A.102.102,0,0,0,81.8065,55.2092Zm0,1.4287v.3564a.102.102,0,0,0,.1152.1153h5.1152c.0674,0,.1016-.0381.1016-.1153v-.3564c0-.0772-.0342-.1152-.1016-.1152H81.9217A.1019.1019,0,0,0,81.8065,56.6379Z"/><rect class="b" x="126.4928" y="0.5476" width="68" height="20"/><path d="M142.533,6.5188a.5357.5357,0,0,1,0-1.0713h4.4258a.1013.1013,0,0,0,.1153-.1143V5.1926a.6606.6606,0,0,1,.1914-.4785.6624.6624,0,0,1,.9433,0,.661.661,0,0,1,.1914.4785v.1406a.1013.1013,0,0,0,.1153.1143h4.4257a.5357.5357,0,0,1,0,1.0713h-4.4257a.1016.1016,0,0,0-.1153.1152v.7012a.1016.1016,0,0,0,.1153.1152h3.8525a.7406.7406,0,0,1,.7266.7266v6.0976a2.735,2.735,0,0,1-.2676,1.5567q-.268.2929-1.416.2929-.3575,0-1.1612-.0381a.6371.6371,0,0,1-.6-.6.5253.5253,0,0,1,.5489-.5488c.4589.0254.7656.0381.9179.0381a1.0807,1.0807,0,0,0,.5811-.0889q.0952-.0894.0957-.5742V8.675c0-.0684-.0381-.1025-.1153-.1025h-7.8828c-.0771,0-.1152.0341-.1152.1025v6.8242a.6465.6465,0,0,1-.1914.4658.6326.6326,0,0,1-.918,0,.6465.6465,0,0,1-.1914-.4658V8.177a.7406.7406,0,0,1,.7276-.7266h3.8515a.1016.1016,0,0,0,.1153-.1152V6.634a.1016.1016,0,0,0-.1153-.1152Zm5.6758,9.28a.6624.6624,0,0,1-.9433,0,.6606.6606,0,0,1-.1914-.4785V14.2619a.102.102,0,0,0-.1153-.1152h-2.1045a.5243.5243,0,0,1-.3759-.1524.5076.5076,0,0,1,0-.74.5251.5251,0,0,1,.3759-.1533h2.1045a.1013.1013,0,0,0,.1153-.1143V12.08c0-.0674-.0381-.1016-.1153-.1016h-2.206a.5234.5234,0,0,1-.5235-.5234.5231.5231,0,0,1,.1533-.376.4919.4919,0,0,1,.37-.1592h1.0713c.0673,0,.0927-.03.0761-.09q-.3062-.9052-.3955-1.16a.5172.5172,0,0,1,.0254-.4472.5422.5422,0,0,1,.3447-.28.6846.6846,0,0,1,.4844.0508.6317.6317,0,0,1,.3193.3574q.318.88.4971,1.4795c.0088.0595.0518.09.1279.09h.8165a.1508.1508,0,0,0,.1533-.09,11.8583,11.8583,0,0,0,.65-1.4922.6491.6491,0,0,1,.7783-.4082.541.541,0,0,1,.3564.2871.5539.5539,0,0,1,.0254.4658,12.2038,12.2038,0,0,1-.4844,1.1348c-.0341.0683-.0127.1025.0635.1025h1.06a.491.491,0,0,1,.3691.1592.5228.5228,0,0,1,.1534.376.5236.5236,0,0,1-.5225.5234h-2.207c-.0772,0-.1153.0342-.1153.1016v.9062a.1013.1013,0,0,0,.1153.1143H150.62a.5268.5268,0,0,1,.3759.1533.5076.5076,0,0,1,0,.74.5259.5259,0,0,1-.3759.1524h-2.1045a.102.102,0,0,0-.1153.1152v1.0586A.661.661,0,0,1,148.2088,15.799Z"/><path d="M155.1356,13.7a.6421.6421,0,0,1-.3633-.3438.6136.6136,0,0,1-.0068-.498,23.5361,23.5361,0,0,0,1.4668-4.72.6954.6954,0,0,1,.2871-.4336.6524.6524,0,0,1,.5039-.1016.6941.6941,0,0,1,.4336.28.6336.6336,0,0,1,.1025.4971,24.8755,24.8755,0,0,1-1.4932,4.9238.699.699,0,0,1-.3818.3828A.717.717,0,0,1,155.1356,13.7Zm5.0957-8.7891a.6931.6931,0,0,1,.9824,0,.6688.6688,0,0,1,.2109.4981v8.8652c0,.3067-.0068.5488-.0195.7276a2.4245,2.4245,0,0,1-.0889.5039.8013.8013,0,0,1-.1728.3378.8742.8742,0,0,1-.3379.1788,1.9177,1.9177,0,0,1-.4912.0888q-.2549.0132-.7139.0127-.3705,0-1.4033-.0381a.6793.6793,0,0,1-.6377-.6377.5146.5146,0,0,1,.166-.415.5568.5568,0,0,1,.4336-.1592q.9185.0381,1.2246.0381a1.0214,1.0214,0,0,0,.5547-.083,1.1042,1.1042,0,0,0,.083-.58v-8.84A.6713.6713,0,0,1,160.2313,4.9113Zm4.9814,8.4317q-.65-2.3848-1.62-4.9492a.6138.6138,0,0,1,.0322-.4971.6436.6436,0,0,1,.376-.332.6969.6969,0,0,1,.5293.0322.68.68,0,0,1,.3633.3886,50.5369,50.5369,0,0,1,1.6455,5.0137.6374.6374,0,0,1-.0635.5166.6744.6744,0,0,1-.4209.3125.6606.6606,0,0,1-.5224-.0635A.6691.6691,0,0,1,165.2127,13.343Z"/><path d="M168.6053,11.9016a.5419.5419,0,0,1-.459.0517.6429.6429,0,0,1-.37-.2939.5449.5449,0,0,1-.0508-.459.6355.6355,0,0,1,.294-.37,22.122,22.122,0,0,0,3.9414-2.8574,1.8226,1.8226,0,0,1,1.2373-.4844h.2549a1.8229,1.8229,0,0,1,1.2373.4844,22.1184,22.1184,0,0,0,3.9414,2.8574.6426.6426,0,0,1,.2939.37.5455.5455,0,0,1-.0517.459.64.64,0,0,1-.376.2939.5555.5555,0,0,1-.4658-.0517c-.042-.0254-.11-.0655-.2041-.1211s-.1612-.0957-.2041-.1211a.0422.0422,0,0,0-.0567-.0059.0619.0619,0,0,0-.0322.0576v3.7627a.6529.6529,0,0,1-.1983.4785.6645.6645,0,0,1-.49.1973h-.1279a.5491.5491,0,0,1-.3955-.1592.5209.5209,0,0,1-.166-.39c0-.06-.0254-.0889-.0762-.0889H170.57a.0783.0783,0,0,0-.0888.0889.5453.5453,0,0,1-.5488.5488h-.128a.6667.6667,0,0,1-.4912-.1973.6524.6524,0,0,1-.1973-.4785V11.7111a.0619.0619,0,0,0-.0322-.0576.0434.0434,0,0,0-.0576.0059c-.042.0254-.11.0664-.2041.1211S168.6571,11.8762,168.6053,11.9016Zm2.1055-6.5948a.6884.6884,0,0,1,.4209-.2041.5532.5532,0,0,1,.4336.1407.6381.6381,0,0,1,.2226.415.5383.5383,0,0,1-.1338.4395,11.5454,11.5454,0,0,1-2.959,2.36.59.59,0,0,1-.4716.0576.6127.6127,0,0,1-.3828-.2871.5714.5714,0,0,1-.0645-.4531.5884.5884,0,0,1,.2813-.3633A11.944,11.944,0,0,0,170.7108,5.3068Zm-.3067,5.46a.0252.0252,0,0,0-.0127.0381.04.04,0,0,0,.0381.0254h5.791a.0294.0294,0,0,0,.0323-.0254.0315.0315,0,0,0-.0186-.0381,21.9912,21.9912,0,0,1-2.832-2.373.0962.0962,0,0,0-.1533,0A20.8933,20.8933,0,0,1,170.4041,10.7668Zm5.753,3.5586v-2.27c0-.0762-.0342-.1143-.1016-.1143h-5.46a.101.101,0,0,0-.1142.1143v2.2705q0,.1026.1142.1025h5.46A.09.09,0,0,0,176.1571,14.3254Zm-1.4287-9.0947a.65.65,0,0,1,.4208-.2422.6347.6347,0,0,1,.4727.1142A26.5907,26.5907,0,0,1,178.4657,7.4a.5754.5754,0,0,1,.2041.4268.5984.5984,0,0,1-.1651.4531.578.578,0,0,1-.4209.2041.5876.5876,0,0,1-.4472-.166,29.2665,29.2665,0,0,0-2.793-2.2451.5367.5367,0,0,1-.2363-.3955A.5733.5733,0,0,1,174.7284,5.2307Z"/><path d="M137.495,31.3488a.3426.3426,0,0,1-.5616-.2685v-.0762a1.4261,1.4261,0,0,1,.5616-1.1738l1.4414-1.16a1.9612,1.9612,0,0,1,1.25-.4346.6971.6971,0,0,1,.7011.7022v7.9082a.7017.7017,0,1,1-1.4033,0V29.78c0-.0088-.0039-.0127-.0127-.0127l-.0254.0127Z"/><path d="M144.3192,35.507a.567.567,0,0,1-.5616-.5615,1.7548,1.7548,0,0,1,.3184-1.0205l3.56-5.1279a1.2356,1.2356,0,0,1,1.084-.5616.6972.6972,0,0,1,.6884.69v5.3574c0,.0684.0391.1016.1153.1016h.8164a.5615.5615,0,0,1,0,1.123h-.8164a.1017.1017,0,0,0-.1153.1143v1.2373a.6885.6885,0,0,1-1.3769,0V35.6213a.1013.1013,0,0,0-.1152-.1143Zm.8545-1.1611c0,.0088-.002.0127-.0069.0127s-.0058.0049-.0058.0127.0039.0127.0127.0127h2.7422c.0771,0,.1152-.0332.1152-.1016V30.2766a.0118.0118,0,0,0-.0127-.0127c-.0176,0-.0254.0049-.0254.0127Z"/><path d="M154.0135,32.5734a.7422.7422,0,0,1-.7275-.7275v-.459a.7406.7406,0,0,1,.7275-.7275h.2041a.7406.7406,0,0,1,.7266.7275v.459a.7423.7423,0,0,1-.7266.7275Zm0,4.9746a.74.74,0,0,1-.7275-.7275v-.459a.7406.7406,0,0,1,.7275-.7275h.2041a.7406.7406,0,0,1,.7266.7275v.459a.74.74,0,0,1-.7266.7275Z"/><path d="M163.2293,36.54a3.5082,3.5082,0,0,1-5.167,0,6.1009,6.1009,0,0,1-.86-3.6484,6.1051,6.1051,0,0,1,.86-3.6484,3.5082,3.5082,0,0,1,5.167,0,6.1043,6.1043,0,0,1,.86,3.6484A6.1,6.1,0,0,1,163.2293,36.54Zm-1.0459-6.4736a1.8312,1.8312,0,0,0-3.0742,0,5.7785,5.7785,0,0,0-.5039,2.8252,5.7761,5.7761,0,0,0,.5039,2.8252,1.8312,1.8312,0,0,0,3.0742,0,5.8,5.8,0,0,0,.503-2.8252A5.8027,5.8027,0,0,0,162.1834,30.0666Z"/><path d="M165.4168,35.507a.5668.5668,0,0,1-.5615-.5615,1.7541,1.7541,0,0,1,.3184-1.0205l3.56-5.1279a1.2356,1.2356,0,0,1,1.084-.5616.6972.6972,0,0,1,.6885.69v5.3574c0,.0684.0391.1016.1152.1016h.8164a.5615.5615,0,0,1,0,1.123h-.8164a.1017.1017,0,0,0-.1152.1143v1.2373a.6885.6885,0,0,1-1.377,0V35.6213a.1013.1013,0,0,0-.1152-.1143Zm.8545-1.1611c0,.0088-.0019.0127-.0068.0127s-.0059.0049-.0059.0127.0039.0127.0127.0127h2.7422c.0772,0,.1152-.0332.1152-.1016V30.2766a.0118.0118,0,0,0-.0127-.0127c-.0175,0-.0253.0049-.0253.0127Z"/><path d="M184.41,31.2717a.4813.4813,0,0,1,.3633.1533.5081.5081,0,0,1,0,.7139.4813.4813,0,0,1-.3633.1533h-7.0928a.12.12,0,0,0-.1269.1025c-.0088.0342-.0235.085-.045.1524s-.0361.1191-.0449.1533c-.0166.0684.0088.1025.0772.1025h5.9316a.71.71,0,0,1,.51.21.6787.6787,0,0,1,.2168.5039v4.5156a.6849.6849,0,0,1-.2041.4912.665.665,0,0,1-.4971.211H182.88a.4588.4588,0,0,1-.4472-.4473.056.056,0,0,0-.0635-.0635h-5.1914c-.0508,0-.0772.0215-.0772.0635a.4381.4381,0,0,1-.1269.3125.4074.4074,0,0,1-.3067.1348h-.2422a.6756.6756,0,0,1-.6884-.69v-2.666c0-.0166-.0069-.0254-.02-.0254a.0433.0433,0,0,0-.0312.0127A7.5041,7.5041,0,0,1,174.244,37.14a.5146.5146,0,0,1-.46.1338.5755.5755,0,0,1-.4082-.2617.76.76,0,0,1-.1142-.5224.7466.7466,0,0,1,.2548-.4727,7.8231,7.8231,0,0,0,2.334-3.6221q.0264-.1025-.0762-.1025h-1.9521a.4813.4813,0,0,1-.3633-.1533.5081.5081,0,0,1,0-.7139.4813.4813,0,0,1,.3633-.1533H178.44c.0683,0,.1015-.0381.1015-.1143v-.3193c0-.0762-.0332-.1143-.1015-.1143h-3.61a.5018.5018,0,0,1-.4971-.498.46.46,0,0,1,.1465-.3447.4923.4923,0,0,1,.3506-.14h3.61c.0683,0,.1015-.0381.1015-.1152v-.3184c0-.0771-.0332-.1152-.1015-.1152h-4.2227a.5236.5236,0,0,1-.5225-.5225.525.525,0,0,1,.1534-.3769.4906.4906,0,0,1,.3691-.1592h2.1436a.063.063,0,0,0,.0576-.0322.0423.0423,0,0,0-.0069-.0567.2918.2918,0,0,1-.0507-.083.2852.2852,0,0,0-.0508-.083.4709.4709,0,0,1-.0391-.44.463.463,0,0,1,.3321-.3.8138.8138,0,0,1,.5488.0127.8258.8258,0,0,1,.4209.3574l.3056.5361a.1654.1654,0,0,0,.1534.0889h2.2324a.1964.1964,0,0,0,.166-.0889c.0332-.06.123-.2217.2676-.4853a.8908.8908,0,0,1,.4082-.3828.8238.8238,0,0,1,.5488-.0635.52.52,0,0,1,.3633.3.49.49,0,0,1-.02.4658c-.0088.0166-.0254.0439-.0508.083a.7023.7023,0,0,0-.0508.083.0553.0553,0,0,0,.0059.0567.063.063,0,0,0,.0576.0322h2.0537a.4943.4943,0,0,1,.37.1592.5291.5291,0,0,1,.1533.3769.5234.5234,0,0,1-.5234.5225H180.06a.1016.1016,0,0,0-.1153.1152v.3184a.1016.1016,0,0,0,.1153.1152h3.3418a.4923.4923,0,0,1,.3506.14.46.46,0,0,1,.1464.3447.5016.5016,0,0,1-.497.498H180.06a.1013.1013,0,0,0-.1153.1143v.3193a.1013.1013,0,0,0,.1153.1143ZM177.1,33.925v.3574a.1017.1017,0,0,0,.1153.1143h5.1152c.0674,0,.1016-.0381.1016-.1143V33.925a.09.09,0,0,0-.1016-.1016h-5.1152C177.14,33.8234,177.1,33.8576,177.1,33.925Zm0,1.4414v.3447a.1017.1017,0,0,0,.1153.1143h5.1152c.0674,0,.1016-.0381.1016-.1143v-.3447c0-.0762-.0342-.1142-.1016-.1142h-5.1152A.1017.1017,0,0,0,177.1,35.3664Zm0,1.4287v.3574a.1017.1017,0,0,0,.1153.1143h5.1152c.0674,0,.1016-.0381.1016-.1143v-.3574c0-.0762-.0342-.1142-.1016-.1142h-5.1152A.1017.1017,0,0,0,177.1,36.7951Z"/><path d="M137.495,51.1906a.342.342,0,0,1-.5616-.2676v-.0771a1.4246,1.4246,0,0,1,.5616-1.1729l1.4414-1.1611a1.96,1.96,0,0,1,1.25-.4336.6969.6969,0,0,1,.7011.7012v7.9092a.7017.7017,0,1,1-1.4033,0V49.6213a.0114.0114,0,0,0-.0127-.0127l-.0254.0127Z"/><path d="M145.3905,57.2883a.7663.7663,0,0,1-.4463-.3194.9393.9393,0,0,1-.166-.5478.3887.3887,0,0,1,.1972-.3516.4635.4635,0,0,1,.4151-.0439,5.1478,5.1478,0,0,0,1.6836.3437,1.8892,1.8892,0,0,0,2.1689-2.1045q0-1.7724-1.6582-1.7734a2.3092,2.3092,0,0,0-1.0469.23,2.7334,2.7334,0,0,1-1.084.331.5672.5672,0,0,1-.4267-.1787.5431.5431,0,0,1-.16-.4209l.1914-3.6484a.7915.7915,0,0,1,.2422-.5166.7269.7269,0,0,1,.5235-.21h3.8652a.5743.5743,0,1,1,0,1.1485h-3.2149c-.0683,0-.1015.038-.1015.1142l-.1279,2.4238c0,.0088.0087.0127.0253.0127l.0254-.0127a3.2552,3.2552,0,0,1,1.544-.37,2.766,2.766,0,0,1,2.0664.753,2.8914,2.8914,0,0,1,.7392,2.1171,3.1172,3.1172,0,0,1-.9052,2.43,3.8391,3.8391,0,0,1-2.666.8233A6.1229,6.1229,0,0,1,145.3905,57.2883Z"/><path d="M154.0135,52.4152a.7406.7406,0,0,1-.7275-.7265v-.46a.74.74,0,0,1,.7275-.7265h.2041a.74.74,0,0,1,.7266.7265v.46a.7407.7407,0,0,1-.7266.7265Zm0,4.9746a.7406.7406,0,0,1-.7275-.7265v-.46a.7406.7406,0,0,1,.7275-.7265h.2041a.7407.7407,0,0,1,.7266.7265v.46a.7407.7407,0,0,1-.7266.7265Z"/><path d="M158.5926,51.1906a.342.342,0,0,1-.5615-.2676v-.0771a1.4245,1.4245,0,0,1,.5615-1.1729l1.4414-1.1611a1.96,1.96,0,0,1,1.25-.4336.6969.6969,0,0,1,.7012.7012v7.9092a.7017.7017,0,1,1-1.4033,0V49.6213a.0114.0114,0,0,0-.0127-.0127l-.0254.0127Z"/><path d="M168.7459,57.5178q-3.3809,0-3.3808-4.21a6.5826,6.5826,0,0,1,1.02-4.0244A3.4737,3.4737,0,0,1,169.32,47.95a6.39,6.39,0,0,1,1.1983.1152.6763.6763,0,0,1,.4277.2617.7876.7876,0,0,1,.1592.4913.4007.4007,0,0,1-.1787.3437.4924.4924,0,0,1-.4082.0772,5.2253,5.2253,0,0,0-1.1983-.1407,2.1412,2.1412,0,0,0-1.6523.7207,3.4648,3.4648,0,0,0-.7842,2.06c0,.0176.0039.0264.0127.0264h.0254a2.894,2.894,0,0,1,2.1426-.7657,2.8486,2.8486,0,0,1,3.0615,3.0616,3.2156,3.2156,0,0,1-.918,2.4365A3.414,3.414,0,0,1,168.7459,57.5178Zm0-5.3194a1.8853,1.8853,0,0,0-1.41.5547,1.9844,1.9844,0,0,0-.542,1.4483,2.2232,2.2232,0,0,0,.5488,1.581,1.8332,1.8332,0,0,0,1.4033.5869,1.9015,1.9015,0,0,0,1.4541-.5546,2.2662,2.2662,0,0,0,.5225-1.6133,1.975,1.975,0,0,0-.542-1.461A1.94,1.94,0,0,0,168.7459,52.1984Z"/><path d="M181.54,52.5178c-.0762,0-.1153.0332-.1153.1015v1.2754a.102.102,0,0,0,.1153.1153h2.6025a.5737.5737,0,1,1,0,1.1474H181.54a.1024.1024,0,0,0-.1153.1153v1.6328c0,.1787.0411.2871.1221.3252a2.61,2.61,0,0,0,.7461.0576,1.6833,1.6833,0,0,0,.86-.1338q.1728-.1347.2236-.7979a.6739.6739,0,0,1,.2168-.4462.5659.5659,0,0,1,.459-.1534.6578.6578,0,0,1,.459.2364.6835.6835,0,0,1,.166.4912c-.0166.3232-.04.582-.07.7783a1.4642,1.4642,0,0,1-.1778.5225,1.3173,1.3173,0,0,1-.2617.3378,1.0561,1.0561,0,0,1-.4658.1729,4.6355,4.6355,0,0,1-.6572.0762c-.212.0088-.5274.0127-.9434.0127a8.5482,8.5482,0,0,1-1.3711-.0762.8241.8241,0,0,1-.543-.2617,1.1322,1.1322,0,0,1-.1269-.6192V55.2727a.102.102,0,0,0-.1153-.1153h-1.8623a.1243.1243,0,0,0-.1269.1153,4.34,4.34,0,0,1-3.3682,3.1377.6224.6224,0,0,1-.4912-.0508.7309.7309,0,0,1-.3379-.3828.5315.5315,0,0,1,.0254-.4532.5883.5883,0,0,1,.3574-.3,3.3822,3.3822,0,0,0,2.3731-1.9765c.0166-.06-.0088-.09-.0772-.09h-2.2451a.5737.5737,0,1,1,0-1.1474h2.4365c.0684,0,.1026-.0381.1026-.1153,0-.0166.0019-.0508.0058-.1015s.0069-.085.0069-.1026V52.6193c0-.0683-.0391-.1015-.1153-.1015h-.4843a.5175.5175,0,0,1-.4981-.3194c-.0342-.0683-.0762-.081-.1269-.038q-.5493.3573-1.2119.7265a.5579.5579,0,0,1-.4717.0449.5981.5981,0,0,1-.3574-.3125.6514.6514,0,0,1-.0381-.4912.6227.6227,0,0,1,.3056-.3759q1.0078-.548,1.5948-.9444c.0253-.0078.038-.0293.038-.0635a.1037.1037,0,0,0-.0253-.0761q-1.1353-1.0211-1.1739-1.06a.5391.5391,0,0,1-.1972-.4082.5516.5516,0,0,1,.1718-.4209.6934.6934,0,0,1,.4463-.1914.6584.6584,0,0,1,.459.1533q.2431.2051,1.2891,1.1611a.1349.1349,0,0,0,.166.0127,9.2068,9.2068,0,0,0,1.3642-1.4287.0423.0423,0,0,0,.0069-.0576.0639.0639,0,0,0-.0576-.0312h-2.2959a.55.55,0,0,1-.3955-.16.5189.5189,0,0,1-.1661-.3887.567.567,0,0,1,.5616-.5615h3.5332a1.2054,1.2054,0,0,1,1.0839.625,8.3612,8.3612,0,0,0,.5489.7783.0807.0807,0,0,0,.1406.0127q.4337-.4848.8164-.97a.6174.6174,0,0,1,.3945-.2481.6517.6517,0,0,1,.46.0821.5575.5575,0,0,1,.2607.37.5165.5165,0,0,1-.0947.4209q-.5112.65-1.02,1.1992a.0951.0951,0,0,0,0,.1533q.293.2681.7139.6123a.1068.1068,0,0,0,.1533,0q.42-.4467.9687-1.1611a.6246.6246,0,0,1,.4024-.248.6578.6578,0,0,1,.4658.082.5594.5594,0,0,1,.2608.3769.5268.5268,0,0,1-.0948.4268q-.4467.5625-1.0342,1.1992a.0886.0886,0,0,0-.0185.0772.0677.0677,0,0,0,.0449.0634q.74.4586,1.0332.6124a.6544.6544,0,0,1,.3125.3759.6414.6414,0,0,1-.0322.4912.5776.5776,0,0,1-.37.3194.6039.6039,0,0,1-.4844-.0518q-.4468-.2548-1.1611-.7265c-.06-.0342-.1065-.0176-.14.0507a.5194.5194,0,0,1-.498.3067Zm-4.8858-1.1231h5.001a.04.04,0,0,0,.0381-.0254.0257.0257,0,0,0-.0127-.038,12.6018,12.6018,0,0,1-2.4746-2.6026c-.0342-.0508-.0723-.0469-.1152.0127a12.49,12.49,0,0,1-2.462,2.59.0252.0252,0,0,0-.0127.038A.04.04,0,0,0,176.6541,51.3947Zm3.4063,2.5V52.6193c0-.0683-.0381-.1015-.1153-.1015h-1.7216c-.0772,0-.1153.0332-.1153.1015v1.2754a.1016.1016,0,0,0,.1153.1153h1.7216A.1016.1016,0,0,0,180.06,53.8947Z"/></svg>