<svg xmlns="http://www.w3.org/2000/svg" viewBox="0 0 195.0403 58.5769"><defs><style>.a{fill:#2145a3;}.b{fill:#fff;stroke:#2145a3;stroke-miterlimit:10;stroke-width:1.0951px;}</style></defs><path d="M.7821,34.6013a.4091.4091,0,0,1-.4278.1084.42.42,0,0,1-.3125-.3252,1.0024,1.0024,0,0,1,.0127-.6123,1.0719,1.0719,0,0,1,.3574-.51,10.3907,10.3907,0,0,0,2.0918-2.334.6188.6188,0,0,1,.8418-.2051.6655.6655,0,0,1,.2871.3829.5608.5608,0,0,1-.0576.4589A11.5053,11.5053,0,0,1,2.67,32.8405a.2631.2631,0,0,0-.0772.1914v5.001a.6537.6537,0,0,1-.6631.6631.6627.6627,0,0,1-.4785-.1914.63.63,0,0,1-.1973-.4717V34.2194a.0421.0421,0,0,0-.0253-.039q-.0264-.0117-.0381,0A4.1411,4.1411,0,0,1,.7821,34.6013ZM.5653,29.3464A9.5062,9.5062,0,0,0,2.491,27.5983a.7075.7075,0,0,1,.4209-.2548.6483.6483,0,0,1,.4717.0761.52.52,0,0,1,.2617.3643.5078.5078,0,0,1-.1084.4267A10.8313,10.8313,0,0,1,1.075,30.4685a.5177.5177,0,0,1-.44.0576.5216.5216,0,0,1-.3379-.2871.7169.7169,0,0,1-.0254-.4981A.687.687,0,0,1,.5653,29.3464Zm10.6894,7.793a.5665.5665,0,0,1,.586.5878.5664.5664,0,0,1-.586.586H3.7918a.5718.5718,0,0,1-.414-.166.5988.5988,0,0,1,0-.8418.58.58,0,0,1,.414-.166H6.79a.1006.1006,0,0,0,.1142-.1143V34.3718a.1017.1017,0,0,0-.1142-.1153H4.4168a.5669.5669,0,0,1-.5742-.5742.5653.5653,0,0,1,.5742-.5732H6.79q.1141,0,.1142-.1026V30.8259q0-.1026-.1142-.1026H4.1492a.58.58,0,0,1-.4277-.1718.5677.5677,0,0,1-.1719-.4141.6088.6088,0,0,1,.6-.6h6.9522a.5619.5619,0,0,1,.4141.1719.6076.6076,0,0,1,.0068.8418.5575.5575,0,0,1-.4209.1718H8.3846c-.0771,0-.1152.0342-.1152.1026v2.1806c0,.0684.0381.1026.1152.1026h2.2578a.5376.5376,0,0,1,.4014.165.57.57,0,0,1,.1592.4082.5629.5629,0,0,1-.1592.4082.5311.5311,0,0,1-.4014.166H8.3846a.102.102,0,0,0-.1152.1153v2.6533a.101.101,0,0,0,.1152.1143Zm-2.36-7.9336a19.7754,19.7754,0,0,0-3.0108-.8926.5046.5046,0,0,1-.3564-.2617.5309.5309,0,0,1-.0391-.4405.713.713,0,0,1,.3125-.3886.6534.6534,0,0,1,.4785-.083,21.4134,21.4134,0,0,1,3.0616.9179.5834.5834,0,0,1,.3447.3194.645.645,0,0,1-.3194.8164A.6075.6075,0,0,1,8.8944,29.2058Z"/><path d="M12.81,38.1091v-.0635a.5367.5367,0,0,1,.0762-.3955.5188.5188,0,0,1,.3193-.23c.0508-.0176.0762-.0469.0762-.09v-4.35a.5888.5888,0,0,1,.6-.6.5943.5943,0,0,1,.4336.1788.578.578,0,0,1,.1787.4209v3.98q0,.1026.1025.0762l.3828-.1152c.0762-.0332.1143-.08.1143-.14V31.821c0-.0762-.0342-.1152-.1016-.1152H13.8055a.72.72,0,0,1-.7148-.7149V28.2233a.72.72,0,0,1,.7148-.7148H17.02a.7072.7072,0,0,1,.51.2109.6789.6789,0,0,1,.2168.5039v1.5694a.031.031,0,0,0,.02.0322c.0127.0039.0274-.0019.044-.02a11.632,11.632,0,0,0,1.48-2.2071.8444.8444,0,0,1,.3759-.3828.7874.7874,0,0,1,.5166-.0761.5081.5081,0,0,1,.3575.2617.4743.4743,0,0,1,.0253.4267,1.64,1.64,0,0,1-.09.2178c-.0254.0586-.0078.0879.0518.0879H23.576a.5678.5678,0,0,1,.5488.5488,1.8772,1.8772,0,0,1-.2929,1.0078,10.4655,10.4655,0,0,1-1.6709,1.9776c-.0518.0508-.0469.0937.0127.1279a10.92,10.92,0,0,0,1.9892,1.0967.7294.7294,0,0,1,.37.3379.71.71,0,0,1,.0762.4912.4856.4856,0,0,1-.2422.3506.4481.4481,0,0,1-.4209.0322c-.0508-.0176-.0761,0-.0761.0508V37.93a.6326.6326,0,0,1-.1983.4726.664.664,0,0,1-.4775.1914h-.1153a.5468.5468,0,0,1-.5488-.5488.079.079,0,0,0-.0889-.09H19.6473a.079.079,0,0,0-.0889.09.5451.5451,0,0,1-.5488.5488H18.908a.6519.6519,0,0,1-.65-.65V34.1169c0-.06-.0341-.0811-.1025-.0635-.0088,0-.0127.002-.0127.0059s-.0049.0058-.0127.0058a.51.51,0,0,1-.6885-.3183c-.0175-.0684-.0556-.085-.1152-.0508a.5808.5808,0,0,1-.2549.0508h-.5869a.1019.1019,0,0,0-.1152.1152v2.5q0,.1026.1025.0762c.2207-.0684.4678-.1524.7393-.2549a.4244.4244,0,0,1,.3955.0439.4473.4473,0,0,1,.2168.3379.7329.7329,0,0,1-.1016.4668.7005.7005,0,0,1-.37.2989q-2.1563.7529-3.8906,1.1992a.4794.4794,0,0,1-.4141-.0635A.5077.5077,0,0,1,12.81,38.1091Zm1.6963-7.4746h1.8877q.1025,0,.1025-.1143V28.7214a.0906.0906,0,0,0-.1025-.1025H14.5067q-.1143,0-.1143.1025V30.52A.101.101,0,0,0,14.5067,30.6345Zm3.24.3564a.6756.6756,0,0,1-.2168.5039.7069.7069,0,0,1-.51.211h-.5361a.1023.1023,0,0,0-.1152.1152v.6758c0,.0683.039.1015.1152.1015h.5869a.5322.5322,0,0,1,.5225.3575.0652.0652,0,0,0,.0517.0322.0665.0665,0,0,0,.0635-.02.5864.5864,0,0,1,.166-.0889A11.1132,11.1132,0,0,0,20.12,31.7448a.07.07,0,0,0,.0439-.0644.0865.0865,0,0,0-.0186-.0762,11.6743,11.6743,0,0,1-1.0459-1.1357.0876.0876,0,0,0-.1279-.0127q-.0762.1025-.28.332a.5812.5812,0,0,1-.4277.2031.6155.6155,0,0,1-.4531-.1523c-.042-.043-.0635-.0293-.0635.0381Zm5.332,2.7178a11.2228,11.2228,0,0,1-1.85-1.1611.14.14,0,0,0-.1787,0,14.0239,14.0239,0,0,1-2.0664,1.1611c-.0088.0166-.0088.03,0,.0381h4.082c.0166,0,.0254-.0039.0254-.0127A.0353.0353,0,0,0,23.0789,33.7087ZM22.53,36.77V34.946a.1016.1016,0,0,0-.1142-.1152H19.6727a.1017.1017,0,0,0-.1143.1152V36.77a.1017.1017,0,0,0,.1143.1153h2.7432A.1017.1017,0,0,0,22.53,36.77Zm-2.73-7.4883a.0786.0786,0,0,0,0,.1026,10.5876,10.5876,0,0,0,1.2627,1.4922.0951.0951,0,0,0,.1533,0A9.0851,9.0851,0,0,0,22.53,29.321a.0437.0437,0,0,0,.0068-.0586.0639.0639,0,0,0-.0576-.0312H19.9032A.1233.1233,0,0,0,19.8006,29.2819Z"/><path d="M.82,53.87a.4211.4211,0,0,1-.4277.1153A.41.41,0,0,1,.08,53.6657a1.02,1.02,0,0,1,.0127-.6181A1.1139,1.1139,0,0,1,.4373,52.53a10.5333,10.5333,0,0,0,2.1045-2.334.57.57,0,0,1,.6885-.2676.1576.1576,0,0,0,.1787-.0508,12.1427,12.1427,0,0,0,1.3526-2.5644.8129.8129,0,0,1,.3251-.3955.7116.7116,0,0,1,.4913-.1026.5251.5251,0,0,1,.3759.25.5139.5139,0,0,1,.0577.4522.0514.0514,0,0,0-.0127.0381.0566.0566,0,0,1-.0127.039c-.0176.0674.0039.1016.0634.1016h5.0518a.5669.5669,0,0,1,.5615.5605.52.52,0,0,1-.166.39.5511.5511,0,0,1-.3955.1592H5.6034a.15.15,0,0,0-.1534.1015c-.0254.043-.0595.1094-.1015.1983s-.0772.1553-.1026.1982q-.0513.0762.0645.0762h5.2422a.7406.7406,0,0,1,.7275.7266v2.6025a.7406.7406,0,0,1-.7275.7275H7.16a.1244.1244,0,0,0-.1279.1153.3356.3356,0,0,1-.0762.165.3924.3924,0,0,1-.0645.0772.3294.3294,0,0,0-.0634.0761c-.0176.0342-.0039.06.038.0762H10.54a.5.5,0,0,1,.497.498,1.2,1.2,0,0,1-.3183.8672,6.9879,6.9879,0,0,1-1.544,1.25.0459.0459,0,0,0-.0254.045.0468.0468,0,0,0,.0254.0449,19.4143,19.4143,0,0,0,2.1436.6.4828.4828,0,0,1,.3379.2539.5455.5455,0,0,1,.0449.4219.6267.6267,0,0,1-.2871.3506.6163.6163,0,0,1-.4531.0693,16.35,16.35,0,0,1-3.0489-1.0332.2829.2829,0,0,0-.2041,0,18.5728,18.5728,0,0,1-3.6474,1.06.687.687,0,0,1-.4785-.07.6535.6535,0,0,1-.3125-.3642.42.42,0,0,1,.0254-.4014.4587.4587,0,0,1,.331-.2353,18.1541,18.1541,0,0,0,2.8828-.6758c.0518-.0176.0469-.0469-.0127-.09a9.882,9.882,0,0,1-1.3134-1.02.1152.1152,0,0,0-.1661-.0127q-.3573.2432-.6757.4463a.6158.6158,0,0,1-.4659.07.6565.6565,0,0,1-.4013-.2744.5062.5062,0,0,1-.07-.4209.522.522,0,0,1,.2617-.3447,8.3494,8.3494,0,0,0,1.8877-1.4668.051.051,0,0,0,.0185-.0508.029.029,0,0,0-.0312-.0254H4.9784a.7424.7424,0,0,1-.7276-.7275V51.0124c0-.0176-.0058-.0273-.0185-.0312S4.2088,50.9831,4.2,51a.4134.4134,0,0,0-.0312.0381c-.0137.0176-.0244.0293-.0322.0391a.6058.6058,0,0,1-.7022.2168.1275.1275,0,0,0-.1523.0507q-.3193.4453-.6123.7911a.2759.2759,0,0,0-.0772.2031v5.5488a.6535.6535,0,0,1-.65.65.6535.6535,0,0,1-.65-.65v-4.4c0-.0176-.0107-.0293-.0322-.0381s-.0361-.0088-.0439,0Q.8963,53.8049.82,53.87Zm1.709-6.6211a.7044.7044,0,0,1,.4151-.2539.63.63,0,0,1,.4648.0762.5179.5179,0,0,1,.2617.3633.5017.5017,0,0,1-.1084.4277A10.5678,10.5678,0,0,1,1.1131,50.12a.5152.5152,0,0,1-.4394.0567.5211.5211,0,0,1-.3389-.2871.7432.7432,0,0,1-.0313-.4971.6623.6623,0,0,1,.2872-.3955A9.3951,9.3951,0,0,0,2.5291,47.2487ZM5.54,50.4255v.4082c0,.0771.0332.1143.1015.1143H9.826a.1007.1007,0,0,0,.1143-.1143v-.4082a.1006.1006,0,0,0-.1143-.1143H5.6414C5.5731,50.3112,5.54,50.3483,5.54,50.4255Zm0,1.4932v.4843c0,.0762.0332.1153.1015.1153H9.826A.1017.1017,0,0,0,9.94,52.403v-.4843a.1013.1013,0,0,0-.1143-.1153H5.6414C5.5731,51.8034,5.54,51.8415,5.54,51.9187ZM9.366,54.9411H6.3045a.0419.0419,0,0,0-.0381.0254.0541.0541,0,0,0,0,.0518A7.1092,7.1092,0,0,0,7.76,56.0378a.1627.1627,0,0,0,.1777,0,5.8813,5.8813,0,0,0,1.4541-1.0195.0433.0433,0,0,0,.0137-.0518A.0422.0422,0,0,0,9.366,54.9411Z"/><path d="M12.81,57.9519v-.0645a.5341.5341,0,0,1,.0762-.3945.5237.5237,0,0,1,.3193-.23.0928.0928,0,0,0,.0762-.0889v-4.35a.5888.5888,0,0,1,.6-.6.5907.5907,0,0,1,.4336.1787.5767.5767,0,0,1,.1787.4209v3.98q0,.1026.1025.0762l.3828-.1143c.0762-.0341.1143-.081.1143-.14V51.6628c0-.0762-.0342-.1152-.1016-.1152H13.8055a.7186.7186,0,0,1-.7148-.7139V48.0651a.7184.7184,0,0,1,.7148-.7138H17.02a.71.71,0,0,1,.51.21.6789.6789,0,0,1,.2168.5039v1.57a.0289.0289,0,0,0,.02.0312c.0127.0039.0274-.002.044-.02a11.632,11.632,0,0,0,1.48-2.2071.8444.8444,0,0,1,.3759-.3828.7936.7936,0,0,1,.5166-.0761.51.51,0,0,1,.3575.2617.4764.4764,0,0,1,.0253.4277,1.5215,1.5215,0,0,1-.09.2168c-.0254.06-.0078.0889.0518.0889H23.576a.5678.5678,0,0,1,.5488.5488,1.8822,1.8822,0,0,1-.2929,1.0078,10.5,10.5,0,0,1-1.6709,1.9776c-.0518.0507-.0469.0937.0127.1269a10.8665,10.8665,0,0,0,1.9892,1.0977.7243.7243,0,0,1,.37.3379.7067.7067,0,0,1,.0762.49.4851.4851,0,0,1-.2422.3515.4479.4479,0,0,1-.4209.0313c-.0508-.0166-.0761,0-.0761.0508v3.7763a.6305.6305,0,0,1-.1983.4717.66.66,0,0,1-.4775.1914h-.1153a.5451.5451,0,0,1-.5488-.5488.0787.0787,0,0,0-.0889-.0889H19.6473a.0787.0787,0,0,0-.0889.0889.5435.5435,0,0,1-.5488.5488H18.908a.6519.6519,0,0,1-.65-.65V53.96q0-.0909-.1025-.0645c-.0088,0-.0127.002-.0127.0059s-.0049.0068-.0127.0068a.4866.4866,0,0,1-.415-.0068.4769.4769,0,0,1-.2735-.3125c-.0175-.0674-.0556-.084-.1152-.0508a.567.567,0,0,1-.2549.0508h-.5869a.1023.1023,0,0,0-.1152.1152v2.5q0,.1026.1025.0762c.2207-.0674.4678-.1524.7393-.2539a.4216.4216,0,0,1,.3955.0439.4456.4456,0,0,1,.2168.3379.73.73,0,0,1-.1016.4658.7016.7016,0,0,1-.37.3q-2.1563.7515-3.8906,1.1993a.4865.4865,0,0,1-.4141-.0635A.5118.5118,0,0,1,12.81,57.9519Zm1.6963-7.4747h1.8877c.0683,0,.1025-.039.1025-.1152V48.5632a.09.09,0,0,0-.1025-.1016H14.5067c-.0762,0-.1143.0332-.1143.1016V50.362A.1017.1017,0,0,0,14.5067,50.4772Zm3.24.3565a.6756.6756,0,0,1-.2168.5039.71.71,0,0,1-.51.21h-.5361a.1023.1023,0,0,0-.1152.1152v.6758c0,.0683.039.1025.1152.1025h.5869a.5326.5326,0,0,1,.5225.3565.066.066,0,0,0,.0517.0332.0687.0687,0,0,0,.0635-.02.5893.5893,0,0,1,.166-.09A11.0668,11.0668,0,0,0,20.12,51.5866a.068.068,0,0,0,.0439-.0644.0873.0873,0,0,0-.0186-.0762,11.7712,11.7712,0,0,1-1.0459-1.1348.087.087,0,0,0-.1279-.0136c-.0508.0683-.1445.18-.28.332a.5857.5857,0,0,1-.4277.2041A.6163.6163,0,0,1,17.81,50.68c-.042-.042-.0635-.0293-.0635.039Zm5.332,2.7178a11.2307,11.2307,0,0,1-1.85-1.1621.1425.1425,0,0,0-.1787,0,14.1182,14.1182,0,0,1-2.0664,1.1621c-.0088.0166-.0088.0293,0,.0371h4.082c.0166,0,.0254-.0039.0254-.0117A.0337.0337,0,0,0,23.0789,53.5515ZM22.53,56.612V54.7878a.101.101,0,0,0-.1142-.1143H19.6727a.101.101,0,0,0-.1143.1143V56.612a.1017.1017,0,0,0,.1143.1152h2.7432A.1016.1016,0,0,0,22.53,56.612Zm-2.73-7.4873a.0785.0785,0,0,0,0,.1025,10.6334,10.6334,0,0,0,1.2627,1.4922.0962.0962,0,0,0,.1533,0A9.1253,9.1253,0,0,0,22.53,49.1628a.0424.0424,0,0,0,.0068-.0576.0648.0648,0,0,0-.0576-.0322H19.9032A.1216.1216,0,0,0,19.8006,49.1247Z"/><path d="M110.0321,17.4939a16.985,16.985,0,0,0-4.1065-3.9131h13.7617v.9375H108.4549a13.6953,13.6953,0,0,1,2.38,2.5Zm5.623-12.3487a16.7457,16.7457,0,0,0,4.1065,3.9278H106V8.1355h11.2325a13.6846,13.6846,0,0,1-2.38-2.4981Z"/><path class="a" d="M117.4959,32.6315a.39.39,0,0,1,0,.6739l-8.2041,4.747a.3992.3992,0,0,1-.59-.3486l-.0127-9.4824a.372.372,0,0,1,.1992-.3428.3545.3545,0,0,1,.3916.0069Z"/><path class="a" d="M116.4119,47.7272a.3565.3565,0,0,1,.3916-.0058.37.37,0,0,1,.1983.3428l-.0117,9.4814a.3862.3862,0,0,1-.1983.35.3491.3491,0,0,1-.3916,0l-8.2041-4.7471a.3911.3911,0,0,1,0-.6748Z"/><rect class="b" x="31.1995" y="0.5476" width="68" height="20"/><path d="M47.201,11.4929a.5528.5528,0,0,1-.3955-.1582.52.52,0,0,1-.166-.39.5668.5668,0,0,1,.5615-.5615h1.0459a.101.101,0,0,0,.1143-.1143V5.7155a.7406.7406,0,0,1,.7275-.7275h7.36a.5206.5206,0,0,1,.3886.166.5709.5709,0,0,1,0,.791.5194.5194,0,0,1-.3886.1651H49.8407c-.0762,0-.1143.0351-.1143.1025v.5225q0,.1025.1143.1025H56.13a.46.46,0,0,1,.3447.1475.51.51,0,0,1,0,.7011.46.46,0,0,1-.3447.1465h-6.289c-.0762,0-.1143.0342-.1143.1016v.5488a.1017.1017,0,0,0,.1143.1152H56.13a.46.46,0,0,1,.3447.1465.4923.4923,0,0,1,.14.3506.4788.4788,0,0,1-.4844.4854h-6.289a.1006.1006,0,0,0-.1143.1142v.5742a.101.101,0,0,0,.1143.1143h7.8457a.5669.5669,0,0,1,.56.5615.52.52,0,0,1-.166.39.5522.5522,0,0,1-.3945.1582H52.494c-.0166,0-.0313.0136-.044.039s-.0107.043.0059.0508a9.73,9.73,0,0,0,2.13,1.7735c.0429.0332.0976.0253.166-.0254a11.0509,11.0509,0,0,0,1.1611-1.1866.7178.7178,0,0,1,.4463-.2617.7029.7029,0,0,1,.4971.0957.5232.5232,0,0,1,.2617.376.5044.5044,0,0,1-.1211.44q-.5361.6123-1.1221,1.1612c-.0517.0507-.0468.0888.0127.1152a18.3291,18.3291,0,0,0,1.8877.7773.4788.4788,0,0,1,.3.3.5154.5154,0,0,1-.02.4268.7739.7739,0,0,1-.3691.3389.626.626,0,0,1-.4854.0185A12.7226,12.7226,0,0,1,50.9,11.5954a.2249.2249,0,0,0-.1787-.1025h-.8808a.1017.1017,0,0,0-.1143.1152v2.9336c0,.0772.042.1074.127.09q1.6713-.2168,2.9345-.4462a.5221.5221,0,0,1,.4014.0888.4745.4745,0,0,1,.2109.3448.6159.6159,0,0,1-.1025.4208.5139.5139,0,0,1-.3574.2295,52.0889,52.0889,0,0,1-5.37.7393.5633.5633,0,0,1-.4267-.1211.5476.5476,0,0,1-.2109-.3887.52.52,0,0,1,.1152-.4013.5338.5338,0,0,1,.37-.1983c.0928-.0078.2314-.0215.4141-.0381s.3213-.03.415-.038c.0762,0,.1143-.043.1143-.127V11.6081a.1017.1017,0,0,0-.1143-.1152Z"/><path d="M72.9032,15.7292a.5943.5943,0,0,1-.4336-.1211.5492.5492,0,0,1-.2168-.39.5624.5624,0,0,1,.1338-.4336.5875.5875,0,0,1,.4023-.2178q.5859-.063,1.76-.2168a.123.123,0,0,0,.1152-.127V13.0114c0-.0674-.0381-.1025-.1152-.1025H72.9549a.4956.4956,0,0,1-.37-.1582.5271.5271,0,0,1-.1533-.377.5234.5234,0,0,1,.5234-.5234h1.5938c.0771,0,.1152-.0332.1152-.1016v-.74a.1013.1013,0,0,0-.1152-.1143H73.286a.7406.7406,0,0,1-.7266-.7275V5.69a.7406.7406,0,0,1,.7266-.7275h4.0312a.7406.7406,0,0,1,.7266.7275V9.3249c0,.0508.03.0684.09.0508a.6505.6505,0,0,1,.23-.0371H80.48c.0176,0,.03-.0117.0381-.0332s.0049-.0352-.0127-.044q-.65-.6753-1.3389-1.3017a.5453.5453,0,0,1-.1845-.4014.5659.5659,0,0,1,.1591-.415.5738.5738,0,0,1,.4209-.1778.5958.5958,0,0,1,.4209.166c.085.0762.2061.1934.3633.35q.2358.2373.3633.3515c.0518.0508.0977.0547.1406.0127q.65-.7134,1.25-1.5185c.043-.0586.0254-.0889-.0508-.0889H79.0643a.5638.5638,0,0,1-.5733-.5733.5654.5654,0,0,1,.5733-.5742H82.98a.5669.5669,0,0,1,.5742.5742,1.7776,1.7776,0,0,1-.3183,1.0586A18.85,18.85,0,0,1,81.68,8.6872c-.0508.0518-.0469.1025.0127.1533l.3828.4209a.2223.2223,0,0,0,.1787.0772h1.1485a.5636.5636,0,0,1,.5732.5732,2.8492,2.8492,0,0,1-.2041,1.0967,12.6984,12.6984,0,0,1-.8037,1.6074.565.565,0,0,1-.376.2744.5491.5491,0,0,1-.4531-.083.6188.6188,0,0,1-.1914-.8291,11.3589,11.3589,0,0,0,.7275-1.39.0932.0932,0,0,0-.0068-.0772.06.06,0,0,0-.0566-.0381H81.5653a.1016.1016,0,0,0-.1153.1153v3.5586a3.4693,3.4693,0,0,1-.2041,1.5625q-.2036.2871-1.122.2871c-.4082,0-.7579-.0088-1.0469-.0254a.627.627,0,0,1-.4209-.1914.6338.6338,0,0,1-.19-.4336.4949.4949,0,0,1,.1523-.4024.5263.5263,0,0,1,.4082-.1464c.1875.0078.4131.0127.6768.0127.2207,0,.35-.0284.3886-.0831a1.5363,1.5363,0,0,0,.0576-.58V10.5886a.1016.1016,0,0,0-.1152-.1153H78.3631a.5441.5441,0,0,1-.2422-.0507c-.0595-.0342-.1064-.0176-.1406.0507a.673.673,0,0,1-.6631.4209H76.118a.101.101,0,0,0-.1143.1143v.74c0,.0684.0381.1016.1143.1016h1.4668a.5235.5235,0,0,1,0,1.0469H76.118a.101.101,0,0,0-.1143.1142v1.0205a.1169.1169,0,0,0,.0313.0762.06.06,0,0,0,.07.0254q.9052-.1392,1.48-.2422a.4382.4382,0,0,1,.37.0957.4711.4711,0,0,1,.1787.3516.5615.5615,0,0,1-.1406.4082.68.68,0,0,1-.3828.2285Q74.8943,15.4733,72.9032,15.7292Zm.8681-9.542V7.36a.09.09,0,0,0,.1016.1025h.6758c.0771,0,.1152-.0342.1152-.1025V6.1872c0-.0674-.0381-.1025-.1152-.1025h-.6758A.09.09,0,0,0,73.7713,6.1872Zm.7774,3.6865a.1019.1019,0,0,0,.1152-.1152V8.5339a.1013.1013,0,0,0-.1152-.1143h-.6758c-.0684,0-.1016.0381-.1016.1143V9.7585c0,.0762.0332.1152.1016.1152Zm1.455-3.6865V7.36q0,.1025.1143.1025h.6377c.0771,0,.1152-.0342.1152-.1025V6.1872c0-.0674-.0381-.1025-.1152-.1025H76.118C76.0418,6.0847,76.0037,6.12,76.0037,6.1872Zm0,2.3467V9.7585a.1017.1017,0,0,0,.1143.1152h.6377a.1019.1019,0,0,0,.1152-.1152V8.5339a.1013.1013,0,0,0-.1152-.1143H76.118A.101.101,0,0,0,76.0037,8.5339Z"/><path d="M42.201,31.3483a.3419.3419,0,0,1-.5615-.2675v-.0772a1.4229,1.4229,0,0,1,.5615-1.1728L43.6424,28.67a1.9611,1.9611,0,0,1,1.25-.4345.6984.6984,0,0,1,.7012.7021v7.9092a.7017.7017,0,1,1-1.4033,0V29.779c0-.0088-.0039-.0127-.0127-.0127l-.0254.0127Z"/><path d="M54.8221,36.948a4.7746,4.7746,0,0,1-5.0635,0,2.3647,2.3647,0,0,1-.9121-1.9512,2.1492,2.1492,0,0,1,.5039-1.3711,3.2177,3.2177,0,0,1,1.3965-.9766c.0088,0,.0127-.0039.0127-.0127s-.0039-.0127-.0127-.0127a2.74,2.74,0,0,1-1.167-.9179,2.2055,2.2055,0,0,1-.415-1.3008,1.9946,1.9946,0,0,1,.8291-1.666,4.4946,4.4946,0,0,1,4.5927,0,1.9947,1.9947,0,0,1,.8292,1.666,2.2063,2.2063,0,0,1-1.5821,2.0918c-.0088,0-.0127.0039-.0127.0117,0,.01.0039.0137.0127.0137a2.4658,2.4658,0,0,1,1.9,2.4746A2.3647,2.3647,0,0,1,54.8221,36.948Zm-2.6973-3.7754a3.2762,3.2762,0,0,0-1.4541.707,1.4122,1.4122,0,0,0-.498,1.0527,1.44,1.44,0,0,0,.5683,1.2051,2.4634,2.4634,0,0,0,1.55.4414,2.3532,2.3532,0,0,0,1.5234-.4414,1.4678,1.4678,0,0,0,.543-1.2051q0-1.3008-2.0284-1.76A.4011.4011,0,0,0,52.1248,33.1726Zm-1.6074-2.6407a1.2327,1.2327,0,0,0,.4209.9121,2.6369,2.6369,0,0,0,1.2373.5928.535.535,0,0,0,.2295,0,2.9843,2.9843,0,0,0,1.27-.6181,1.1867,1.1867,0,0,0,.44-.8868,1.1522,1.1522,0,0,0-.4717-.97,2.2119,2.2119,0,0,0-1.3515-.3564,2.1262,2.1262,0,0,0-1.32.35A1.1655,1.1655,0,0,0,50.5174,30.5319Z"/><path d="M58.72,32.573a.7406.7406,0,0,1-.7276-.7266v-.46a.7406.7406,0,0,1,.7276-.7275h.2041a.7406.7406,0,0,1,.7265.7275v.46a.7407.7407,0,0,1-.7265.7266Zm0,4.9746a.7406.7406,0,0,1-.7276-.7266v-.46a.7406.7406,0,0,1,.7276-.7275h.2041a.7406.7406,0,0,1,.7265.7275v.46a.7407.7407,0,0,1-.7265.7266Z"/><path d="M62.0867,35.5065a.5669.5669,0,0,1-.5615-.5605,1.7559,1.7559,0,0,1,.3184-1.0215l3.56-5.1269a1.2342,1.2342,0,0,1,1.0839-.5625.6986.6986,0,0,1,.6885.6894v5.3574c0,.0684.0391.1016.1153.1016h.8164a.5593.5593,0,0,1,.3955.957.5363.5363,0,0,1-.3955.166h-.8164a.1024.1024,0,0,0-.1153.1153v1.2363a.6885.6885,0,0,1-1.3769,0V35.6218a.102.102,0,0,0-.1153-.1153Zm.8545-1.16c0,.0078-.0019.0117-.0068.0117s-.0059.0049-.0059.0137.004.0117.0127.0117h2.7422c.0772,0,.1153-.0332.1153-.1016V30.2761c0-.0078-.0049-.0117-.0127-.0117-.0176,0-.0254.0039-.0254.0117Z"/><path d="M75.92,36.948a4.7746,4.7746,0,0,1-5.0635,0,2.3647,2.3647,0,0,1-.9121-1.9512,2.1487,2.1487,0,0,1,.5039-1.3711,3.2171,3.2171,0,0,1,1.3965-.9766c.0088,0,.0127-.0039.0127-.0127s-.0039-.0127-.0127-.0127a2.7386,2.7386,0,0,1-1.167-.9179,2.2056,2.2056,0,0,1-.4151-1.3008,1.9949,1.9949,0,0,1,.8291-1.666,4.4948,4.4948,0,0,1,4.5928,0,1.9949,1.9949,0,0,1,.8291,1.666,2.2062,2.2062,0,0,1-1.582,2.0918c-.0088,0-.0127.0039-.0127.0117,0,.01.0039.0137.0127.0137a2.4658,2.4658,0,0,1,1.9,2.4746A2.3647,2.3647,0,0,1,75.92,36.948Zm-2.6973-3.7754a3.2757,3.2757,0,0,0-1.4541.707,1.4123,1.4123,0,0,0-.4981,1.0527,1.44,1.44,0,0,0,.5684,1.2051,2.4629,2.4629,0,0,0,1.55.4414,2.353,2.353,0,0,0,1.5234-.4414,1.4676,1.4676,0,0,0,.543-1.2051q0-1.3008-2.0283-1.76A.4011.4011,0,0,0,73.2225,33.1726Zm-1.6074-2.6407a1.2327,1.2327,0,0,0,.4209.9121,2.6359,2.6359,0,0,0,1.2373.5928.535.535,0,0,0,.2295,0,2.9843,2.9843,0,0,0,1.27-.6181,1.1866,1.1866,0,0,0,.4394-.8868,1.1524,1.1524,0,0,0-.4716-.97,2.2124,2.2124,0,0,0-1.3516-.3564,2.126,2.126,0,0,0-1.32.35A1.1655,1.1655,0,0,0,71.6151,30.5319Z"/><path d="M86.2459,32.6745c-.0761,0-.1152.0342-.1152.1026v1.2753a.1013.1013,0,0,0,.1152.1143h2.6026a.5653.5653,0,0,1,.5732.5742.5653.5653,0,0,1-.5732.5742H86.2459a.1024.1024,0,0,0-.1152.1153v1.6328c0,.1777.041.2871.1221.3242a2.5536,2.5536,0,0,0,.7461.0586,1.6683,1.6683,0,0,0,.86-.1348q.1728-.1332.2236-.7968a.6739.6739,0,0,1,.2168-.4463.5631.5631,0,0,1,.459-.1534.658.658,0,0,1,.459.2364.6826.6826,0,0,1,.166.49c-.0166.3242-.04.583-.07.7793a1.4661,1.4661,0,0,1-.1777.5225,1.3242,1.3242,0,0,1-.2617.3379,1.058,1.058,0,0,1-.4659.1728,4.6322,4.6322,0,0,1-.6572.0762c-.2119.0078-.5273.0127-.9433.0127a8.5169,8.5169,0,0,1-1.3711-.0772.8149.8149,0,0,1-.543-.2617,1.127,1.127,0,0,1-.127-.6182V35.43a.102.102,0,0,0-.1152-.1153H82.7889a.1244.1244,0,0,0-.127.1153,4.3414,4.3414,0,0,1-3.3681,3.1377.6181.6181,0,0,1-.4912-.0518.7243.7243,0,0,1-.3379-.3818.5309.5309,0,0,1,.0254-.4531.5847.5847,0,0,1,.3574-.3,3.382,3.382,0,0,0,2.373-1.9765c.0166-.06-.0088-.09-.0771-.09H78.8983a.5669.5669,0,0,1-.5742-.5742.5669.5669,0,0,1,.5742-.5742h2.4365c.0684,0,.1025-.0371.1025-.1143,0-.0166.002-.0517.0059-.1025s.0068-.084.0068-.1016V32.7771c0-.0684-.039-.1026-.1152-.1026H80.85a.5165.5165,0,0,1-.498-.3183c-.0342-.0684-.0762-.0811-.127-.0391q-.5493.3574-1.2119.7275a.5582.5582,0,0,1-.4717.045.6022.6022,0,0,1-.3574-.3125.6526.6526,0,0,1-.0381-.4913.6279.6279,0,0,1,.3057-.3769q1.0079-.5478,1.5947-.9434.0381-.0117.0381-.0644a.1071.1071,0,0,0-.0254-.0762q-1.1352-1.02-1.1738-1.0586a.5387.5387,0,0,1-.1973-.4082.5515.5515,0,0,1,.1719-.4209.6932.6932,0,0,1,.4463-.1914.6539.6539,0,0,1,.459.1533q.2431.205,1.289,1.16a.1367.1367,0,0,0,.166.0137,9.2157,9.2157,0,0,0,1.3643-1.43.0411.0411,0,0,0,.0068-.0567.062.062,0,0,0-.0576-.0312H80.2381a.55.55,0,0,1-.3955-.16.5207.5207,0,0,1-.166-.3887.5653.5653,0,0,1,.5615-.5615h3.5332a1.2036,1.2036,0,0,1,1.084.625,8.3415,8.3415,0,0,0,.5488.7783.0808.0808,0,0,0,.1407.0118q.4335-.4834.8164-.9688a.617.617,0,0,1,.3945-.248.6512.6512,0,0,1,.46.082.5553.5553,0,0,1,.2607.37.5168.5168,0,0,1-.0947.4209q-.5112.65-1.02,1.1992a.0942.0942,0,0,0,0,.1524c.1953.18.4336.3828.7138.6133a.1071.1071,0,0,0,.1534,0q.42-.4469.9687-1.1612a.63.63,0,0,1,.4023-.249.6637.6637,0,0,1,.4659.083.56.56,0,0,1,.2607.376.5276.5276,0,0,1-.0947.4277q-.4468.5625-1.0342,1.1992a.0876.0876,0,0,0-.0186.0762.0685.0685,0,0,0,.045.0645q.74.4584,1.0332.6113a.66.66,0,0,1,.3125.3769.6417.6417,0,0,1-.0323.4913.58.58,0,0,1-.37.3193.6037.6037,0,0,1-.4843-.0518q-.4468-.2549-1.1612-.7275c-.06-.0332-.1064-.0166-.14.0518a.5187.5187,0,0,1-.4981.3056ZM81.36,31.5524h5.001a.041.041,0,0,0,.038-.0263.0247.0247,0,0,0-.0126-.0371,12.6,12.6,0,0,1-2.4747-2.6026c-.0341-.0517-.0722-.0468-.1152.0127a12.5367,12.5367,0,0,1-2.4619,2.59.0243.0243,0,0,0-.0127.0371A.0412.0412,0,0,0,81.36,31.5524Zm3.4062,2.5V32.7771c0-.0684-.038-.1026-.1152-.1026H82.93c-.0771,0-.1152.0342-.1152.1026v1.2753a.1009.1009,0,0,0,.1152.1143h1.7217A.1009.1009,0,0,0,84.7664,34.0524Z"/><path d="M43.2469,56.2038a.0353.0353,0,0,0-.0127.0254.0114.0114,0,0,0,.0127.0127h3.3672a.5653.5653,0,0,1,.5742.5732.5671.5671,0,0,1-.5742.5743h-4.72a.5673.5673,0,0,1-.5743-.5743,1.1626,1.1626,0,0,1,.4463-.9306A19.2824,19.2824,0,0,0,44.911,52.906a3.6143,3.6143,0,0,0,.8232-2.1495q0-1.6317-1.7353-1.6328a4.79,4.79,0,0,0-1.8877.4473.4366.4366,0,0,1-.4082-.0254.3783.3783,0,0,1-.1914-.3457,1.03,1.03,0,0,1,.166-.5732.8143.8143,0,0,1,.459-.3448A6.7029,6.7029,0,0,1,44.19,47.95a3.1885,3.1885,0,0,1,2.2138.709,2.52,2.52,0,0,1,.7842,1.9707,4.318,4.318,0,0,1-.81,2.4551A17.3847,17.3847,0,0,1,43.2469,56.2038Z"/><path d="M50.2371,51.19a.3419.3419,0,0,1-.5615-.2675v-.0762a1.426,1.426,0,0,1,.5615-1.1738l1.4414-1.16a1.961,1.961,0,0,1,1.25-.4346.6969.6969,0,0,1,.7012.7022v7.9082a.7017.7017,0,1,1-1.4033,0V49.6218c0-.0088-.0039-.0137-.0127-.0137l-.0254.0137Z"/><path d="M58.72,52.4147a.74.74,0,0,1-.7276-.7265v-.459a.7406.7406,0,0,1,.7276-.7275h.2041a.7406.7406,0,0,1,.7265.7275v.459a.74.74,0,0,1-.7265.7265Zm0,4.9747a.7406.7406,0,0,1-.7276-.7266v-.459a.7406.7406,0,0,1,.7276-.7275h.2041a.7406.7406,0,0,1,.7265.7275v.459a.7407.7407,0,0,1-.7265.7266Z"/><path d="M67.9354,56.3815a3.5061,3.5061,0,0,1-5.167,0,6.0966,6.0966,0,0,1-.86-3.6474,6.1028,6.1028,0,0,1,.86-3.6485,3.5063,3.5063,0,0,1,5.167,0,6.1036,6.1036,0,0,1,.86,3.6485A6.0974,6.0974,0,0,1,67.9354,56.3815ZM66.89,49.9089a1.8312,1.8312,0,0,0-3.0742,0,5.7758,5.7758,0,0,0-.5039,2.8252,5.7763,5.7763,0,0,0,.5039,2.8252,1.8312,1.8312,0,0,0,3.0742,0,5.8019,5.8019,0,0,0,.5029-2.8252A5.8014,5.8014,0,0,0,66.89,49.9089Z"/><path d="M75.9715,56.3815a3.5061,3.5061,0,0,1-5.167,0,6.0974,6.0974,0,0,1-.86-3.6474,6.1036,6.1036,0,0,1,.86-3.6485,3.5063,3.5063,0,0,1,5.167,0,6.1028,6.1028,0,0,1,.86,3.6485A6.0966,6.0966,0,0,1,75.9715,56.3815Zm-1.0459-6.4726a1.8312,1.8312,0,0,0-3.0742,0,5.7758,5.7758,0,0,0-.5039,2.8252,5.7763,5.7763,0,0,0,.5039,2.8252,1.8312,1.8312,0,0,0,3.0742,0,5.8007,5.8007,0,0,0,.5029-2.8252A5.8,5.8,0,0,0,74.9256,49.9089Z"/><path d="M89.116,51.114a.4833.4833,0,0,1,.3633.1523.5093.5093,0,0,1,0,.7149.4846.4846,0,0,1-.3633.1533H82.0233a.12.12,0,0,0-.127.1025c-.0088.0332-.0234.084-.0449.1524s-.0361.1191-.0449.1533c-.0166.0674.0088.1025.0771.1025h5.9317a.71.71,0,0,1,.51.21.6752.6752,0,0,1,.2168.5039v4.5156a.6861.6861,0,0,1-.2041.4912.665.665,0,0,1-.497.211h-.2549a.459.459,0,0,1-.4473-.4473.0556.0556,0,0,0-.0635-.0635H81.8836c-.0508,0-.0771.02-.0771.0635a.4394.4394,0,0,1-.127.3125.4076.4076,0,0,1-.3066.1348h-.2422a.6758.6758,0,0,1-.6885-.69v-2.666c0-.0176-.0068-.0254-.0195-.0254a.04.04,0,0,0-.0313.0127A7.48,7.48,0,0,1,78.95,56.9812a.5179.5179,0,0,1-.46.1347.5753.5753,0,0,1-.4082-.2617.7631.7631,0,0,1-.1143-.5234.747.747,0,0,1,.2549-.4717,7.8289,7.8289,0,0,0,2.334-3.6221q.0264-.1024-.0762-.1025H78.5282a.4846.4846,0,0,1-.3633-.1533.5093.5093,0,0,1,0-.7149.4833.4833,0,0,1,.3633-.1523h4.6181c.0684,0,.1016-.0381.1016-.1153V50.68c0-.0762-.0332-.1153-.1016-.1153h-3.61a.5.5,0,0,1-.4971-.497.46.46,0,0,1,.1465-.3448.489.489,0,0,1,.3506-.1406h3.61c.0684,0,.1016-.0371.1016-.1142v-.3194c0-.0761-.0332-.1142-.1016-.1142H78.9237a.5236.5236,0,0,1-.5225-.5225.5254.5254,0,0,1,.1533-.3769.4918.4918,0,0,1,.3692-.16h2.1435a.0621.0621,0,0,0,.0576-.0313.0421.0421,0,0,0-.0068-.0566.2852.2852,0,0,1-.0508-.084.2919.2919,0,0,0-.0508-.082.4715.4715,0,0,1-.039-.44.4629.4629,0,0,1,.332-.3.8256.8256,0,0,1,.97.3691l.3057.5371a.1662.1662,0,0,0,.1533.0879h2.2324a.198.198,0,0,0,.1661-.0879c.0332-.06.123-.2217.2675-.4853a.892.892,0,0,1,.4082-.3829.8186.8186,0,0,1,.5489-.0634.5208.5208,0,0,1,.3632.2988.492.492,0,0,1-.02.4668c-.0088.0166-.0254.0439-.0508.082a.7757.7757,0,0,0-.0507.084.0552.0552,0,0,0,.0058.0566.0621.0621,0,0,0,.0576.0313h2.0537a.4954.4954,0,0,1,.37.16.53.53,0,0,1,.1533.3769.5236.5236,0,0,1-.5235.5225H84.7664a.1013.1013,0,0,0-.1152.1142v.3194a.1009.1009,0,0,0,.1152.1142h3.3418a.489.489,0,0,1,.3506.1406.46.46,0,0,1,.1465.3448.5.5,0,0,1-.4971.497H84.7664a.102.102,0,0,0-.1152.1153v.3183a.1016.1016,0,0,0,.1152.1153Zm-7.3095,2.6533v.3564a.102.102,0,0,0,.1152.1153h5.1152c.0674,0,.1016-.0381.1016-.1153v-.3564a.0908.0908,0,0,0-.1016-.1026H81.9217C81.8455,53.6647,81.8065,53.7,81.8065,53.7673Zm0,1.4414v.3447a.1017.1017,0,0,0,.1152.1143h5.1152c.0674,0,.1016-.0381.1016-.1143v-.3447c0-.0772-.0342-.1143-.1016-.1143H81.9217A.1013.1013,0,0,0,81.8065,55.2087Zm0,1.4287v.3574a.1017.1017,0,0,0,.1152.1143h5.1152c.0674,0,.1016-.0381.1016-.1143v-.3574c0-.0762-.0342-.1152-.1016-.1152H81.9217A.1023.1023,0,0,0,81.8065,56.6374Z"/><rect class="b" x="126.4928" y="0.5476" width="68" height="20"/><path d="M142.2264,7.8327a.5722.5722,0,0,1-.4141-.166.5423.5423,0,0,1-.1728-.4082.5669.5669,0,0,1,.5742-.5742h.5615a.1211.1211,0,0,0,.128-.1016q.0249-.1919.1523-1.34a.6333.6333,0,0,1,.2236-.4268.6163.6163,0,0,1,.4532-.1592.5733.5733,0,0,1,.4209.2032.55.55,0,0,1,.14.4336q-.0249.1918-.07.625-.044.435-.0693.6513c-.0176.0762.0127.1143.0888.1143h.6885a.7077.7077,0,0,1,.5107.2109.6784.6784,0,0,1,.2168.5039,14.2373,14.2373,0,0,1-.8418,5.1406.2163.2163,0,0,0,.0127.1915q.318.51.5743.9687a.8393.8393,0,0,1,.0888.5176.9653.9653,0,0,1-.2168.49.3969.3969,0,0,1-.37.1348.4044.4044,0,0,1-.3184-.2363q-.0263-.0513-.37-.6641c-.0341-.0508-.0683-.0459-.1025.0137a8.8963,8.8963,0,0,1-1.4668,1.7734.43.43,0,0,1-.4141.1143.4683.4683,0,0,1-.3506-.2686.849.849,0,0,1-.0644-.5225.9359.9359,0,0,1,.2422-.4716,8.2986,8.2986,0,0,0,1.3017-1.7862.1734.1734,0,0,0-.0127-.1914c-.2041-.2627-.3408-.4336-.4082-.5107-.0341-.0332-.06-.0293-.0771.0137a.3215.3215,0,0,1-.2607.2168.33.33,0,0,1-.3262-.1016l-.0889-.09a.9818.9818,0,0,1-.2549-1.0976,23.9351,23.9351,0,0,0,.752-3.1c.0176-.0674-.0127-.1016-.0889-.1016Zm1.11,2.8184a.1932.1932,0,0,0,.0508.1914c.2119.2383.37.418.4717.5361a.0532.0532,0,0,0,.0508.0195.0581.0581,0,0,0,.0391-.0322,12.4971,12.4971,0,0,0,.5224-3.4316.09.09,0,0,0-.1015-.1016h-.3067a.12.12,0,0,0-.1269.1016A24.0974,24.0974,0,0,1,143.3367,10.6511Zm6.9639-4.0938a.1013.1013,0,0,0-.1142.1153v.51a.1017.1017,0,0,0,.1142.1153h2.1944a.71.71,0,0,1,.5107.21.6757.6757,0,0,1,.2168.5039V9.4655a.7406.7406,0,0,1-.7275.7266h-2.1944a.1016.1016,0,0,0-.1142.1152v.6377a.1006.1006,0,0,0,.1142.1143h2.5772a.6551.6551,0,0,1,.4912.2051.6427.6427,0,0,1,.1845.497,9.68,9.68,0,0,1-.1845,1.3975,1.0811,1.0811,0,0,1-.2744.5732.8054.8054,0,0,1-.51.1338c-.0859,0-.2559-.0078-.5107-.0254a.5718.5718,0,0,1-.3887-.1718.6277.6277,0,0,1-.1856-.377.3713.3713,0,0,1,.1211-.3311.4338.4338,0,0,1,.3389-.1279.1055.1055,0,0,1,.0381.0137h.0127a.1617.1617,0,0,0,.166-.0957,2.6962,2.6962,0,0,0,.0762-.5293c0-.0772-.0342-.1152-.1026-.1152h-1.7343c-.0684,0-.0938.0332-.0762.1015a4.3972,4.3972,0,0,0,2.7929,2.666.632.632,0,0,1,.3321.3379.5027.5027,0,0,1-.0127.4531.6933.6933,0,0,1-.377.3379.6235.6235,0,0,1-.5029-.02,6.8793,6.8793,0,0,1-1.7227-1.0771,5.9023,5.9023,0,0,1-1.2373-1.4483c-.0341-.0508-.0722-.0469-.1142.0137a6.7256,6.7256,0,0,1-3.126,2.5254.6456.6456,0,0,1-.4971.0058.6933.6933,0,0,1-.37-.3379.5121.5121,0,0,1-.0185-.4531.6036.6036,0,0,1,.3252-.3379,4.6772,4.6772,0,0,0,2.87-2.666c.0166-.0683-.0088-.1015-.0772-.1015h-1.416a.1194.1194,0,0,0-.1269.1015.705.705,0,0,0-.0254.1153.84.84,0,0,1-.0264.1152.719.719,0,0,1-.28.4267.7.7,0,0,1-.497.1338.5785.5785,0,0,1-.4981-.6894q.23-1.084.3955-2.3975a.7675.7675,0,0,1,.2686-.5039.7931.7931,0,0,1,.5351-.1982h1.8116a.1006.1006,0,0,0,.1142-.1143V8.4577a.1016.1016,0,0,0-.1142-.1152h-2.0157a.5225.5225,0,1,1,0-1.0449h2.0157a.1017.1017,0,0,0,.1142-.1153v-.51a.1013.1013,0,0,0-.1142-.1153h-2.4874a.5668.5668,0,0,1-.5615-.5615.5228.5228,0,0,1,.166-.39.5524.5524,0,0,1,.3955-.1582h2.4874a.1017.1017,0,0,0,.1142-.1153V5.154a.6668.6668,0,0,1,.1914-.4785.6614.6614,0,0,1,.9444,0,.6627.6627,0,0,1,.1914.4785v.1787a.1017.1017,0,0,0,.1142.1153h2.8067a.5524.5524,0,0,1,.3955.1582.5228.5228,0,0,1,.166.39.5668.5668,0,0,1-.5615.5615Zm-1.4414,4.3877v-.6377a.1017.1017,0,0,0-.1142-.1152H147.47a.1157.1157,0,0,0-.1153.1025c-.0088.0674-.0234.1748-.0449.3194s-.0361.25-.0439.3183c-.0176.085.0166.127.1015.127h1.378A.1006.1006,0,0,0,148.8592,10.945Zm1.4414-2.6025a.1016.1016,0,0,0-.1142.1152v.6377a.1006.1006,0,0,0,.1142.1143h1.544c.0683,0,.1025-.0371.1025-.1143V8.4577c0-.0762-.0342-.1152-.1025-.1152Z"/><path d="M167.8914,7.96a.5738.5738,0,1,1,0-1.1475h.5235a.101.101,0,0,0,.1142-.1142V5.3708a.6272.6272,0,0,1,.1983-.4717.6587.6587,0,0,1,.4775-.1914.6537.6537,0,0,1,.6641.6631V6.698a.101.101,0,0,0,.1142.1142h.3321a.5669.5669,0,0,1,.5742.5742c0,.0166.0058.0254.0185.0254a.1178.1178,0,0,0,.045-.0127,1.39,1.39,0,0,1,.1406-.1152,18.6842,18.6842,0,0,0,2.6015-2.1045,1.7259,1.7259,0,0,1,2.4239,0,18.6345,18.6345,0,0,0,2.6025,2.1045.9488.9488,0,0,1,.3506.44.894.894,0,0,1,.0322.5674.4631.4631,0,0,1-.3.332.4791.4791,0,0,1-.4531-.0507l-.5361-.3829a.04.04,0,0,0-.044,0c-.0137.0079-.0195.0166-.0195.0254a.5005.5005,0,0,1-.5108.51h-1.5556a.1024.1024,0,0,0-.1153.1152V9.67a.1017.1017,0,0,0,.1153.1143h2.7676a.5459.5459,0,0,1,.5615.5615.5909.5909,0,0,1-.1592.4151.5264.5264,0,0,1-.4023.1718h-7.0918a.5268.5268,0,0,1-.4024-.1718.5909.5909,0,0,1-.1592-.4151.5459.5459,0,0,1,.5616-.5615h2.7675a.1013.1013,0,0,0,.1153-.1143V8.8405a.102.102,0,0,0-.1153-.1152h-1.5556a.5005.5005,0,0,1-.5108-.51c0-.0341-.0166-.0429-.0507-.0254-.2383.17-.4209.2969-.5489.3829a.4775.4775,0,0,1-.4521.0507.4594.4594,0,0,1-.3-.332.8558.8558,0,0,1-.0127-.3945c0-.0518-.0215-.0645-.0645-.0391a.5242.5242,0,0,1-.3183.1016h-.3321a.1016.1016,0,0,0-.1142.1152V10.6c0,.06.0332.082.1015.0644A.918.918,0,0,0,170.13,10.6a1.1042,1.1042,0,0,1,.16-.0635.41.41,0,0,1,.3955.0254.4688.4688,0,0,1,.23.332.7745.7745,0,0,1-.083.4844.6615.6615,0,0,1-.3506.3194q-.3325.1273-.5108.1914a.1472.1472,0,0,0-.1015.1523v2.2324a3.2994,3.2994,0,0,1-.2168,1.5567q-.2183.293-1.1485.2929c-.06,0-.2255-.0078-.497-.0254a.6838.6838,0,0,1-.4151-.1914.5835.5835,0,0,1-.1845-.4082.463.463,0,0,1,.1523-.3759.4509.4509,0,0,1,.3828-.1338c.2217.0175.34.0254.3574.0254.11,0,.1768-.0293.1973-.09a2.7828,2.7828,0,0,0,.0322-.5859v-1.85c0-.0684-.0341-.0938-.1015-.0772-.1026.0264-.2471.0635-.4346.1153a.4812.4812,0,0,1-.4209-.07.504.504,0,0,1-.2168-.3759.7566.7566,0,0,1,.1348-.4727.66.66,0,0,1,.4013-.28c.06-.0166.1465-.04.2618-.07s.2011-.0527.2617-.0693a.132.132,0,0,0,.1142-.1406V8.0749a.1016.1016,0,0,0-.1142-.1152ZM177.88,11.698a.7073.7073,0,0,1,.51.2109.675.675,0,0,1,.2168.5029v3.0235a.66.66,0,0,1-.2041.4912.6763.6763,0,0,1-.4844.1972H177.79a.5494.5494,0,0,1-.3955-.1591.52.52,0,0,1-.166-.39c0-.0586-.0254-.0889-.0762-.0889h-4.5537a.0794.0794,0,0,0-.09.0889.5434.5434,0,0,1-.5478.5488h-.1026a.6535.6535,0,0,1-.65-.65V12.4118a.675.675,0,0,1,.2168-.5029.7081.7081,0,0,1,.5108-.2109Zm-.6513,2.5634V12.9226c0-.0762-.0342-.1153-.1016-.1153h-4.5029a.1024.1024,0,0,0-.1153.1153v1.3388a.102.102,0,0,0,.1153.1153h4.5029C177.1942,14.3767,177.2284,14.3386,177.2284,14.2614ZM172.8534,7.54a.0412.0412,0,0,0-.0127.0508.04.04,0,0,0,.038.0254h1.25a.102.102,0,0,0,.1153-.1152V7.1062a.66.66,0,0,1,.1914-.4786.66.66,0,0,1,.9433,0,.6594.6594,0,0,1,.1914.4786v.3945a.1024.1024,0,0,0,.1153.1152h1.25a.04.04,0,0,0,.0381-.0254.0413.0413,0,0,0-.0127-.0508,17.63,17.63,0,0,1-1.9776-1.8125q-.0761-.1009-.1523,0A17.6371,17.6371,0,0,1,172.8534,7.54Z"/><path d="M137.495,31.3483a.342.342,0,0,1-.5616-.2675v-.0772a1.423,1.423,0,0,1,.5616-1.1728l1.4414-1.1612a1.9611,1.9611,0,0,1,1.25-.4345.6984.6984,0,0,1,.7011.7021v7.9092a.7017.7017,0,1,1-1.4033,0V29.779c0-.0088-.0039-.0127-.0127-.0127l-.0254.0127Z"/><path d="M147.202,34.486a2.9649,2.9649,0,0,1-2.2451-.8486,3.2294,3.2294,0,0,1-.8164-2.34,3.0371,3.0371,0,0,1,.9179-2.3282,3.453,3.453,0,0,1,2.4619-.8613q3.3809,0,3.3809,4.082a6.9163,6.9163,0,0,1-1.002,4.1641,3.4721,3.4721,0,0,1-2.9531,1.32,7.7335,7.7335,0,0,1-1.3261-.1269.6721.6721,0,0,1-.4278-.2618.7694.7694,0,0,1-.1592-.4785.4162.4162,0,0,1,.1787-.3574.4959.4959,0,0,1,.4083-.0762,5.74,5.74,0,0,0,1.3261.1534,2.2425,2.2425,0,0,0,1.7412-.7207,3.0857,3.0857,0,0,0,.6953-2.06c0-.0176-.0039-.0254-.0126-.0254h-.0254A2.8975,2.8975,0,0,1,147.202,34.486Zm.3183-5.2295a1.9489,1.9489,0,0,0-1.4541.5293,2.0593,2.0593,0,0,0-.5224,1.5118,2.1631,2.1631,0,0,0,.542,1.5683,1.9,1.9,0,0,0,1.4345.5615,1.8459,1.8459,0,0,0,1.4161-.5742,2.1869,2.1869,0,0,0,.5361-1.5556,2.018,2.018,0,0,0-.5547-1.48A1.8876,1.8876,0,0,0,147.52,29.2565Z"/><path d="M154.0135,32.573a.7406.7406,0,0,1-.7275-.7266v-.46a.7406.7406,0,0,1,.7275-.7275h.2041a.7406.7406,0,0,1,.7266.7275v.46a.7406.7406,0,0,1-.7266.7266Zm0,4.9746a.7406.7406,0,0,1-.7275-.7266v-.46a.7406.7406,0,0,1,.7275-.7275h.2041a.7406.7406,0,0,1,.7266.7275v.46a.7406.7406,0,0,1-.7266.7266Z"/><path d="M159.6385,36.361a.0372.0372,0,0,0-.0127.0264c0,.0078.0039.0117.0127.0117h3.3672a.5743.5743,0,1,1,0,1.1485h-4.72a.5673.5673,0,0,1-.5743-.5743,1.1645,1.1645,0,0,1,.4463-.9316,19.2391,19.2391,0,0,0,3.1446-2.9785,3.6094,3.6094,0,0,0,.8232-2.1485q0-1.6332-1.7353-1.6328a4.8046,4.8046,0,0,0-1.8877.4463.4338.4338,0,0,1-.4082-.0254.3778.3778,0,0,1-.1914-.3447,1.0312,1.0312,0,0,1,.166-.5742.8088.8088,0,0,1,.459-.3438,6.7029,6.7029,0,0,1,2.0537-.332,3.193,3.193,0,0,1,2.2138.708,2.52,2.52,0,0,1,.7842,1.9707,4.3207,4.3207,0,0,1-.8105,2.4561A17.3837,17.3837,0,0,1,159.6385,36.361Z"/><path d="M167.6746,36.361a.0376.0376,0,0,0-.0127.0264c0,.0078.004.0117.0127.0117h3.3672a.5743.5743,0,1,1,0,1.1485h-4.72a.5671.5671,0,0,1-.5742-.5743,1.1642,1.1642,0,0,1,.4463-.9316,19.2374,19.2374,0,0,0,3.1445-2.9785,3.6094,3.6094,0,0,0,.8232-2.1485q0-1.6332-1.7353-1.6328a4.8054,4.8054,0,0,0-1.8877.4463.4338.4338,0,0,1-.4082-.0254.3778.3778,0,0,1-.1914-.3447,1.032,1.032,0,0,1,.166-.5742.8094.8094,0,0,1,.459-.3438,6.7029,6.7029,0,0,1,2.0537-.332,3.1935,3.1935,0,0,1,2.2139.708,2.52,2.52,0,0,1,.7841,1.9707,4.3207,4.3207,0,0,1-.8105,2.4561A17.38,17.38,0,0,1,167.6746,36.361Z"/><path d="M184.41,31.2722a.484.484,0,0,1,.3633.1523.5093.5093,0,0,1,0,.7149.484.484,0,0,1-.3633.1523h-7.0928a.121.121,0,0,0-.1269.1025c-.0088.0342-.0235.085-.045.1534s-.0361.1191-.0449.1523c-.0166.0684.0088.1025.0772.1025h5.9316a.7107.7107,0,0,1,.51.21.6787.6787,0,0,1,.2168.5039v4.5156a.6832.6832,0,0,1-.2041.4912.665.665,0,0,1-.4971.211H182.88a.457.457,0,0,1-.4472-.4463.0563.0563,0,0,0-.0635-.0645h-5.1914c-.0508,0-.0772.0215-.0772.0645a.44.44,0,0,1-.1269.3125.41.41,0,0,1-.3067.1338h-.2422a.6756.6756,0,0,1-.6884-.6885V35.38c0-.0176-.0069-.0254-.02-.0254a.0426.0426,0,0,0-.0312.0117,7.4866,7.4866,0,0,1-1.4414,1.7735.5148.5148,0,0,1-.46.1337.574.574,0,0,1-.4082-.2607.763.763,0,0,1-.1142-.5234.7466.7466,0,0,1,.2548-.4727,7.8181,7.8181,0,0,0,2.334-3.6221c.0176-.0673-.0078-.1025-.0762-.1025h-1.9521a.484.484,0,0,1-.3633-.1523.5093.5093,0,0,1,0-.7149.484.484,0,0,1,.3633-.1523H178.44c.0683,0,.1015-.0391.1015-.1153v-.3183c0-.0772-.0332-.1153-.1015-.1153h-3.61a.5.5,0,0,1-.4971-.498.4582.4582,0,0,1,.1465-.3438.4894.4894,0,0,1,.3506-.1406h3.61c.0683,0,.1015-.0381.1015-.1152v-.3184c0-.0761-.0332-.1152-.1015-.1152h-4.2227a.522.522,0,0,1-.5225-.5225.5211.5211,0,0,1,.1534-.3759.488.488,0,0,1,.3691-.16h2.1436a.0621.0621,0,0,0,.0576-.0313.0434.0434,0,0,0-.0069-.0576.2779.2779,0,0,1-.0507-.083.2866.2866,0,0,0-.0508-.083.4707.4707,0,0,1-.0391-.44.4619.4619,0,0,1,.3321-.2988.8078.8078,0,0,1,.5488.0117.8258.8258,0,0,1,.4209.3574l.3056.5361a.1654.1654,0,0,0,.1534.0889h2.2324a.1964.1964,0,0,0,.166-.0889c.0332-.0595.123-.2216.2676-.4853a.8965.8965,0,0,1,.4082-.3828.83.83,0,0,1,.5488-.0635.5205.5205,0,0,1,.3633.3.49.49,0,0,1-.02.4658c-.0088.0166-.0254.044-.0508.083a.7966.7966,0,0,0-.0508.083.057.057,0,0,0,.0059.0576.0621.0621,0,0,0,.0576.0313h2.0537a.4916.4916,0,0,1,.37.16.5251.5251,0,0,1,.1533.3759.5219.5219,0,0,1-.5234.5225H180.06a.102.102,0,0,0-.1153.1152v.3184a.1016.1016,0,0,0,.1153.1152h3.3418a.4894.4894,0,0,1,.3506.1406.4581.4581,0,0,1,.1464.3438.5.5,0,0,1-.497.498H180.06a.1016.1016,0,0,0-.1153.1153v.3183a.102.102,0,0,0,.1153.1153Zm-7.31,2.6523v.3574a.1024.1024,0,0,0,.1153.1153h5.1152c.0674,0,.1016-.0391.1016-.1153v-.3574a.09.09,0,0,0-.1016-.1015h-5.1152C177.14,33.823,177.1,33.8571,177.1,33.9245Zm0,1.4414v.3447a.1013.1013,0,0,0,.1153.1143h5.1152c.0674,0,.1016-.0371.1016-.1143v-.3447c0-.0762-.0342-.1142-.1016-.1142h-5.1152A.1017.1017,0,0,0,177.1,35.3659Zm0,1.43v.3565a.1013.1013,0,0,0,.1153.1142h5.1152c.0674,0,.1016-.0371.1016-.1142v-.3565c0-.0771-.0342-.1152-.1016-.1152h-5.1152A.102.102,0,0,0,177.1,36.7956Z"/><path d="M138.5409,56.2038a.0353.0353,0,0,0-.0127.0254.0114.0114,0,0,0,.0127.0127h3.3671a.5654.5654,0,0,1,.5743.5732.5673.5673,0,0,1-.5743.5743h-4.72a.5671.5671,0,0,1-.5742-.5743,1.1623,1.1623,0,0,1,.4463-.9306,19.2807,19.2807,0,0,0,3.1445-2.9785,3.6145,3.6145,0,0,0,.8233-2.1495q0-1.6317-1.7354-1.6328a4.7907,4.7907,0,0,0-1.8877.4473.4366.4366,0,0,1-.4082-.0254.3785.3785,0,0,1-.1914-.3457,1.0311,1.0311,0,0,1,.166-.5732.815.815,0,0,1,.459-.3448,6.7034,6.7034,0,0,1,2.0537-.332,3.1888,3.1888,0,0,1,2.2139.709,2.52,2.52,0,0,1,.7842,1.9707,4.3181,4.3181,0,0,1-.8106,2.4551A17.3833,17.3833,0,0,1,138.5409,56.2038Z"/><path d="M150.1678,56.3815a3.5061,3.5061,0,0,1-5.167,0,6.0974,6.0974,0,0,1-.86-3.6474,6.1036,6.1036,0,0,1,.86-3.6485,3.5063,3.5063,0,0,1,5.167,0,6.1035,6.1035,0,0,1,.86,3.6485A6.0974,6.0974,0,0,1,150.1678,56.3815Zm-1.0459-6.4726a1.8312,1.8312,0,0,0-3.0742,0,5.7758,5.7758,0,0,0-.5039,2.8252,5.7763,5.7763,0,0,0,.5039,2.8252,1.8312,1.8312,0,0,0,3.0742,0,5.8007,5.8007,0,0,0,.5029-2.8252A5.8,5.8,0,0,0,149.1219,49.9089Z"/><path d="M154.0135,52.4147a.74.74,0,0,1-.7275-.7265v-.459a.7406.7406,0,0,1,.7275-.7275h.2041a.7406.7406,0,0,1,.7266.7275v.459a.74.74,0,0,1-.7266.7265Zm0,4.9747a.7406.7406,0,0,1-.7275-.7266v-.459a.7406.7406,0,0,1,.7275-.7275h.2041a.7406.7406,0,0,1,.7266.7275v.459a.7406.7406,0,0,1-.7266.7266Z"/><path d="M163.0438,49.6218,160.7225,51.88a.0337.0337,0,0,0-.0127.0254.0114.0114,0,0,0,.0127.0127h.2422a2.6745,2.6745,0,0,1,1.9258.6572,2.4729,2.4729,0,0,1,.6894,1.8809,2.8917,2.8917,0,0,1-.8867,2.2578,3.5794,3.5794,0,0,1-2.4941.8037,6.85,6.85,0,0,1-1.7979-.2422.8107.8107,0,0,1-.4531-.3125.8917.8917,0,0,1-.1719-.542.4019.4019,0,0,1,.1973-.3574.4526.4526,0,0,1,.415-.0508,5.4815,5.4815,0,0,0,1.8106.3574,2.02,2.02,0,0,0,1.4609-.498,1.8738,1.8738,0,0,0,.5166-1.416,1.2981,1.2981,0,0,0-.5547-1.1543,3.3175,3.3175,0,0,0-1.8047-.376H159.46a.5435.5435,0,0,1-.5361-.5361,1.1846,1.1846,0,0,1,.3828-.9053l2.3467-2.22a.0373.0373,0,0,0,.0136-.0254.0121.0121,0,0,0-.0136-.0127H158.286a.5743.5743,0,1,1,0-1.1485h4.5918a.5671.5671,0,0,1,.5742.5743A1.2716,1.2716,0,0,1,163.0438,49.6218Z"/><path d="M171.2655,56.3815a3.5061,3.5061,0,0,1-5.167,0,6.0966,6.0966,0,0,1-.86-3.6474,6.1028,6.1028,0,0,1,.86-3.6485,3.5063,3.5063,0,0,1,5.167,0,6.1036,6.1036,0,0,1,.86,3.6485A6.0974,6.0974,0,0,1,171.2655,56.3815ZM170.22,49.9089a1.8313,1.8313,0,0,0-3.0743,0,5.7758,5.7758,0,0,0-.5039,2.8252,5.7763,5.7763,0,0,0,.5039,2.8252,1.8313,1.8313,0,0,0,3.0743,0,5.8019,5.8019,0,0,0,.5029-2.8252A5.8014,5.8014,0,0,0,170.22,49.9089Z"/><path d="M181.54,52.5173c-.0762,0-.1153.0342-.1153.1025v1.2754a.1017.1017,0,0,0,.1153.1143h2.6025a.5737.5737,0,1,1,0,1.1474H181.54a.1024.1024,0,0,0-.1153.1153V56.905c0,.1787.0411.2871.1221.3252a2.61,2.61,0,0,0,.7461.0576,1.6833,1.6833,0,0,0,.86-.1338q.1728-.1334.2236-.7978a.6742.6742,0,0,1,.2168-.4454.5669.5669,0,0,1,.459-.1543.6578.6578,0,0,1,.459.2364.685.685,0,0,1,.166.4912q-.0249.4848-.07.7783a1.475,1.475,0,0,1-.1778.5234,1.3342,1.3342,0,0,1-.2617.3379,1.0576,1.0576,0,0,1-.4658.1719,4.3612,4.3612,0,0,1-.6572.0762c-.212.0088-.5274.0137-.9434.0137a8.5178,8.5178,0,0,1-1.3711-.0772.82.82,0,0,1-.543-.2617,1.1282,1.1282,0,0,1-.1269-.6182V55.2722a.102.102,0,0,0-.1153-.1153h-1.8623a.1243.1243,0,0,0-.1269.1153,4.3423,4.3423,0,0,1-3.3682,3.1386.6222.6222,0,0,1-.4912-.0517.7286.7286,0,0,1-.3379-.3819.5309.5309,0,0,1,.0254-.4531.59.59,0,0,1,.3574-.3008,3.38,3.38,0,0,0,2.3731-1.9765c.0166-.0586-.0088-.09-.0772-.09h-2.2451a.5737.5737,0,1,1,0-1.1474h2.4365q.1026,0,.1026-.1143c0-.0176.0019-.0517.0058-.1025s.0069-.085.0069-.1026V52.62c0-.0683-.0391-.1025-.1153-.1025h-.4843a.5176.5176,0,0,1-.4981-.3193c-.0342-.0684-.0762-.08-.1269-.0381q-.5493.3573-1.2119.7275a.5652.5652,0,0,1-.4717.0449.6045.6045,0,0,1-.3574-.3125.6542.6542,0,0,1-.0381-.4922.6227.6227,0,0,1,.3056-.3759q1.0078-.548,1.5948-.9444c.0253-.0078.038-.0293.038-.0634a.1038.1038,0,0,0-.0253-.0762q-1.1353-1.0211-1.1739-1.06a.5375.5375,0,0,1-.1972-.4082.5508.5508,0,0,1,.1718-.42.6834.6834,0,0,1,.4463-.1914.6571.6571,0,0,1,.459.1523q.2431.205,1.2891,1.1612a.135.135,0,0,0,.166.0126,9.2068,9.2068,0,0,0,1.3642-1.4287.0423.0423,0,0,0,.0069-.0576.0639.0639,0,0,0-.0576-.0312h-2.2959a.5462.5462,0,0,1-.3955-.16.5175.5175,0,0,1-.1661-.3887.5653.5653,0,0,1,.5616-.5605h3.5332a1.2034,1.2034,0,0,1,1.0839.625,8.3594,8.3594,0,0,0,.5489.7773.08.08,0,0,0,.1406.0127q.4337-.4848.8164-.97a.6209.6209,0,0,1,.3945-.248.6563.6563,0,0,1,.46.082.5571.5571,0,0,1,.2607.3711.515.515,0,0,1-.0947.42q-.5112.65-1.02,1.1992a.0951.0951,0,0,0,0,.1533q.293.2682.7139.6124a.107.107,0,0,0,.1533,0,15.1,15.1,0,0,0,.9687-1.16.6255.6255,0,0,1,.4024-.249.6531.6531,0,0,1,.4658.083.5575.5575,0,0,1,.2608.376.5266.5266,0,0,1-.0948.4267q-.4467.5625-1.0342,1.1992a.0886.0886,0,0,0-.0185.0772.066.066,0,0,0,.0449.0635c.4932.3066.8369.51,1.0332.6123a.6544.6544,0,0,1,.3125.3759.6441.6441,0,0,1-.0322.4922.5758.5758,0,0,1-.37.3184.6078.6078,0,0,1-.4844-.0508q-.4468-.2548-1.1611-.7275c-.06-.0342-.1065-.0166-.14.0517a.52.52,0,0,1-.498.3057Zm-4.8858-1.1221h5.001a.0414.0414,0,0,0,.0381-.0263.0258.0258,0,0,0-.0127-.0381,12.62,12.62,0,0,1-2.4746-2.6016c-.0342-.0518-.0723-.0469-.1152.0117a12.49,12.49,0,0,1-2.462,2.59.0253.0253,0,0,0-.0127.0381A.0414.0414,0,0,0,176.6541,51.3952Zm3.4063,2.5V52.62c0-.0683-.0381-.1025-.1153-.1025h-1.7216c-.0772,0-.1153.0342-.1153.1025v1.2754a.1013.1013,0,0,0,.1153.1143h1.7216A.1013.1013,0,0,0,180.06,53.8952Z"/></svg>