<svg xmlns="http://www.w3.org/2000/svg" viewBox="0 0 194.7299 78.4187"><defs><style>.a{fill:#42b1ef;}.b{fill:#fff;stroke:#42b1ef;stroke-miterlimit:10;stroke-width:1.0951px;}</style></defs><path d="M1.1348,31.3493a.3228.3228,0,0,1-.3692.044.3241.3241,0,0,1-.1914-.3125v-.0772a1.4258,1.4258,0,0,1,.5606-1.1728L2.5762,28.67a1.9622,1.9622,0,0,1,1.25-.4336.6969.6969,0,0,1,.7021.7012v7.9092a.6984.6984,0,0,1-.7021.7021.6984.6984,0,0,1-.7012-.7021V29.779c0-.0078-.0049-.0117-.0127-.0117l-.0254.0117Z"/><path d="M8.4189,33.3767a.5774.5774,0,0,1-.4082-.9825.5587.5587,0,0,1,.4082-.166H18.751a.5669.5669,0,0,1,.5742.5742.5671.5671,0,0,1-.5742.5743H11.582a.1327.1327,0,0,0-.1406.1152c-.0166.0762-.0762.2852-.1787.625-.0166.0762.0088.1152.0771.1152h6.0586a.6194.6194,0,0,1,.4854.2168.6364.6364,0,0,1,.165.4971q-.1011,1.0328-.21,1.665a7.5577,7.5577,0,0,1-.2422,1.0391,1.2534,1.2534,0,0,1-.3633.5938,1.2054,1.2054,0,0,1-.4727.2421,3.24,3.24,0,0,1-.6884.0567q-.5493,0-2.4112-.0762a.64.64,0,0,1-.4336-.1914.627.627,0,0,1-.1914-.4209.5276.5276,0,0,1,.5616-.5615q1.3651.0643,2.0283.0644a1.9124,1.9124,0,0,0,.376-.0254c.0722-.0175.1445-.0957.2168-.2363a1.9083,1.9083,0,0,0,.166-.5488c.0381-.2246.0869-.5889.1464-1.09.0167-.0683-.0166-.1025-.1015-.1025H10.97a.1514.1514,0,0,0-.1533.0889q-.1143.3075-.3437.8672a.8057.8057,0,0,1-.39.4218.776.776,0,0,1-.5674.0635.5384.5384,0,0,1-.3828-.3125.613.613,0,0,1-.0127-.5039,25.5149,25.5149,0,0,0,.8926-2.5127c.0176-.06-.0078-.09-.0762-.09Zm8.84-5.8418a.7407.7407,0,0,1,.7266.7265V30.736a.6772.6772,0,0,1-.2168.5039.7072.7072,0,0,1-.51.211H9.9111A.7074.7074,0,0,1,9.4,31.24a.6772.6772,0,0,1-.2168-.5039V28.2614a.7406.7406,0,0,1,.7275-.7265Zm-.6377,2.7929V28.76a.1024.1024,0,0,0-.1152-.1153H10.6641a.102.102,0,0,0-.1153.1153v1.5683c0,.0684.0381.1026.1153.1026h5.8418C16.582,30.43,16.6211,30.3962,16.6211,30.3278Z"/><path d="M2.1807,56.2038a.0417.0417,0,0,0-.0127.0264c0,.0078.0049.0117.0127.0117H5.5488a.5742.5742,0,1,1,0,1.1484H.8291a.5669.5669,0,0,1-.5742-.5742,1.1613,1.1613,0,0,1,.4463-.9316A19.28,19.28,0,0,0,3.8457,52.906a3.6079,3.6079,0,0,0,.8223-2.1485q0-1.6332-1.7344-1.6328a4.8036,4.8036,0,0,0-1.8877.4463.4338.4338,0,0,1-.4082-.0254.3761.3761,0,0,1-.1914-.3447,1.024,1.024,0,0,1,.166-.5742.809.809,0,0,1,.459-.3438,6.6986,6.6986,0,0,1,2.0537-.332,3.189,3.189,0,0,1,2.2129.708A2.5176,2.5176,0,0,1,6.123,50.63a4.32,4.32,0,0,1-.8105,2.456A17.3616,17.3616,0,0,1,2.1807,56.2038Z"/><path d="M8.4189,53.2185a.5738.5738,0,1,1,0-1.1475H18.751a.5738.5738,0,1,1,0,1.1475H11.582a.1327.1327,0,0,0-.1406.1152c-.0166.0762-.0762.2852-.1787.625-.0166.0762.0088.1152.0771.1152h6.0586a.6194.6194,0,0,1,.4854.2168.6374.6374,0,0,1,.165.4981q-.1011,1.0313-.21,1.664a7.526,7.526,0,0,1-.2422,1.0391,1.2426,1.2426,0,0,1-.3633.5937,1.1925,1.1925,0,0,1-.4727.2422,3.1636,3.1636,0,0,1-.6884.0577q-.5493,0-2.4112-.0772a.6352.6352,0,0,1-.4336-.1914.6247.6247,0,0,1-.1914-.42.5276.5276,0,0,1,.5616-.5615q1.3651.0628,2.0283.0634a1.8357,1.8357,0,0,0,.376-.0254c.0722-.0175.1445-.0957.2168-.2363a1.8993,1.8993,0,0,0,.166-.5488q.0572-.3369.1464-1.09c.0167-.0683-.0166-.1015-.1015-.1015H10.97a.15.15,0,0,0-.1533.0888q-.1143.3061-.3437.8672a.8072.8072,0,0,1-.39.4209.7763.7763,0,0,1-.5674.0645.5408.5408,0,0,1-.3828-.3125A.613.613,0,0,1,9.12,55.822a25.4384,25.4384,0,0,0,.8926-2.5137c.0176-.0586-.0078-.09-.0762-.09Zm8.84-5.8418a.7406.7406,0,0,1,.7266.7275v2.4746a.6772.6772,0,0,1-.2168.5039.71.71,0,0,1-.51.21H9.9111a.71.71,0,0,1-.5107-.21.6772.6772,0,0,1-.2168-.5039V48.1042a.7406.7406,0,0,1,.7275-.7275Zm-.6377,2.7939V48.6013a.1024.1024,0,0,0-.1152-.1153H10.6641a.102.102,0,0,0-.1153.1153v1.5693c0,.0674.0381.1025.1153.1025h5.8418C16.582,50.2731,16.6211,50.238,16.6211,50.1706Z"/><path d="M4.8984,76.9528a.1017.1017,0,0,0,.1143-.1152v-.7012a.1017.1017,0,0,0-.1143-.1152H2.1807a.4562.4562,0,0,1-.3438-.1465.49.49,0,0,1-.1406-.3516.48.48,0,0,1,.4844-.4843H4.8984a.101.101,0,0,0,.1143-.1143v-.6123c0-.0683-.0381-.1016-.1143-.1016H2.1934a.1831.1831,0,0,0-.1651.0762,8.46,8.46,0,0,1-.957,1.1485.5473.5473,0,0,1-.4336.165.62.62,0,0,1-.4336-.2041.639.639,0,0,1-.1465-.4648.7193.7193,0,0,1,.1973-.4532A9.7645,9.7645,0,0,0,1.76,72.4118a.0567.0567,0,0,0-.0059-.0576.0628.0628,0,0,0-.0576-.0322H1.5811a.6976.6976,0,0,1-.51-.2168.698.698,0,0,1-.2168-.51V67.947a.6978.6978,0,0,1,.2168-.51.6976.6976,0,0,1,.51-.2168H9.5156a.6787.6787,0,0,1,.5039.2168.707.707,0,0,1,.211.51v3.6484a.7072.7072,0,0,1-.211.51.6787.6787,0,0,1-.5039.2168H6.3008a.0534.0534,0,0,0-.044.0322c-.0127.02-.0107.0361.0059.0439a.6769.6769,0,0,1,.1533.4336v.2432a.0907.0907,0,0,0,.1016.1025h3.623a.5225.5225,0,0,1,.5108.51.5038.5038,0,0,1-.1534.3692.4906.4906,0,0,1-.3574.1542H6.5176a.09.09,0,0,0-.1016.1016v.6123c0,.0762.0342.1143.1016.1143h3.126a.4885.4885,0,0,1,.3505.1406.459.459,0,0,1,.1465.3437.5.5,0,0,1-.497.4981H6.5176c-.0674,0-.1016.0391-.1016.1152v.7012c0,.0762.0342.1152.1016.1152h4.0312a.535.535,0,0,1,.3828.1592.51.51,0,0,1,0,.7529.5387.5387,0,0,1-.3828.1592H.5479a.5368.5368,0,0,1-.3819-.1592.51.51,0,0,1,0-.7529.5331.5331,0,0,1,.3819-.1592Zm-2.666-8.5341v.7656a.101.101,0,0,0,.1143.1142h6.416q.1026,0,.1025-.1142v-.7656q0-.1143-.1025-.1143H2.3467A.101.101,0,0,0,2.2324,68.4187Zm0,1.9775v.8291a.101.101,0,0,0,.1143.1143h6.416q.1026,0,.1025-.1143v-.8291c0-.0762-.0341-.1152-.1025-.1152H2.3467A.1017.1017,0,0,0,2.2324,70.3962Zm2.666,2.7812c.0762,0,.1143-.0351.1143-.1025v-.2432a.68.68,0,0,1,.1406-.4336q.0249-.05-.0381-.0761H3.0615c-.0683,0-.0937.039-.0771.1152a.5129.5129,0,0,1-.0508.3438l-.1533.3066a.0422.0422,0,0,0-.0059.0566.0627.0627,0,0,0,.0576.0332Z"/><path d="M13.457,77.9978a.5738.5738,0,1,1,0-1.1475h4.0313a.101.101,0,0,0,.1142-.1143V74.5671a.1006.1006,0,0,0-.1142-.1143H14.5928a.55.55,0,0,1-.3955-.16.519.519,0,0,1-.1661-.3887.567.567,0,0,1,.5616-.5615h7.4238a.5668.5668,0,0,1,.5615.5615.5189.5189,0,0,1-.166.3887.552.552,0,0,1-.3955.16H19.1211a.1009.1009,0,0,0-.1152.1143V76.736a.1013.1013,0,0,0,.1152.1143h4.03a.5738.5738,0,1,1,0,1.1475Zm6.8887-5.3692a2.9,2.9,0,0,1-1.2441-.1982c-.1739-.1143-.2618-.3633-.2618-.7461V69.0817c0-.0761-.0341-.1142-.1015-.1142h-.8672a.1012.1012,0,0,0-.1152.1142q-.1788,2.9093-4.0694,3.9668a.5711.5711,0,0,1-.4463-.0566.5592.5592,0,0,1-.28-.3516.491.491,0,0,1,.0576-.414.5748.5748,0,0,1,.3379-.2617A5.2449,5.2449,0,0,0,15.6387,70.83a2.4756,2.4756,0,0,0,.7783-1.7481q0-.1141-.1025-.1142H14.4014a.1013.1013,0,0,0-.1153.1142v.9444a.6735.6735,0,0,1-.6757.6758.6282.6282,0,0,1-.4717-.1973.6623.6623,0,0,1-.1914-.4785V68.5847a.7406.7406,0,0,1,.7265-.7276h3.8145a.1009.1009,0,0,0,.1142-.1142v-.46a.7018.7018,0,0,1,1.4034,0v.46a.1012.1012,0,0,0,.1152.1142h3.8135a.7406.7406,0,0,1,.7275.7276v.8291a.661.661,0,0,1-.1914.4785.6313.6313,0,0,1-.4717.1973.6752.6752,0,0,1-.6767-.6758v-.3321a.101.101,0,0,0-.1143-.1142H20.2939a.101.101,0,0,0-.1142.1142v2.0547c0,.2032.0185.3223.0576.3565a1.0457,1.0457,0,0,0,.4268.0771c.11.0078.2812.0117.5107.0117s.3994-.0039.51-.0117a3.6071,3.6071,0,0,0,.4082-.0322.47.47,0,0,0,.1914-.083.3644.3644,0,0,0,.1279-.2168.7693.7693,0,0,1,.2676-.4336.6014.6014,0,0,1,.459-.1406.6275.6275,0,0,1,.44.2363.6367.6367,0,0,1,.1465.4785q-.1026.8292-.4395,1.0264a3.9612,3.9612,0,0,1-1.5634.2236c-.0762,0-.1915.002-.3438.0059s-.2685.0058-.3447.0058C20.7285,72.64,20.498,72.6364,20.3457,72.6286Z"/><path d="M109.7217,17.4939a16.9654,16.9654,0,0,0-4.1065-3.9122H119.377v.9375H108.1445a13.6846,13.6846,0,0,1,2.38,2.4981Zm5.623-12.3477a16.7805,16.7805,0,0,0,4.1065,3.9277H105.69V8.1364h11.2324a13.6953,13.6953,0,0,1-2.38-2.5Z"/><path class="a" d="M117.1855,32.6306a.391.391,0,0,1,0,.6748l-8.2041,4.747a.3992.3992,0,0,1-.59-.35l-.0127-9.4814a.3709.3709,0,0,1,.1992-.3428.3563.3563,0,0,1,.3916.0059Z"/><path class="a" d="M116.1016,47.7263a.3563.3563,0,0,1,.3916-.0059.3716.3716,0,0,1,.1982.3438l-.0117,9.48a.3861.3861,0,0,1-.1983.35.3491.3491,0,0,1-.3916,0l-8.2041-4.7461a.3911.3911,0,0,1,0-.6748Z"/><path class="a" d="M117.1855,72.3161a.39.39,0,0,1,0,.6738l-8.2041,4.7471a.3992.3992,0,0,1-.59-.3486l-.0127-9.4824a.3719.3719,0,0,1,.1992-.3428.3547.3547,0,0,1,.3916.0068Z"/><rect class="b" x="30.8891" y="0.5476" width="68" height="20"/><path d="M46.7754,13.7a.6422.6422,0,0,1-.3633-.3437.6139.6139,0,0,1-.0068-.4981,23.53,23.53,0,0,0,1.4668-4.72.6956.6956,0,0,1,.2871-.4336.6525.6525,0,0,1,.5039-.1016.6941.6941,0,0,1,.4336.28.6336.6336,0,0,1,.1025.4971,24.882,24.882,0,0,1-1.4931,4.9238.7.7,0,0,1-.3819.3828A.7165.7165,0,0,1,46.7754,13.7Zm5.0957-8.7891a.6931.6931,0,0,1,.9824,0,.6691.6691,0,0,1,.211.4981v8.8652q0,.46-.02.7276a2.4245,2.4245,0,0,1-.0888.5039.8024.8024,0,0,1-.1729.3379.8756.8756,0,0,1-.3379.1787,1.9134,1.9134,0,0,1-.4912.0888q-.2548.0132-.7139.0127-.37,0-1.4033-.0381a.6793.6793,0,0,1-.6377-.6376.5146.5146,0,0,1,.166-.4151.5572.5572,0,0,1,.4336-.1592q.9184.0381,1.2246.0381a1.0212,1.0212,0,0,0,.5547-.083,1.1042,1.1042,0,0,0,.083-.58v-8.84A.6715.6715,0,0,1,51.8711,4.9108Zm4.9814,8.4317q-.65-2.3848-1.62-4.9492a.6142.6142,0,0,1,.0322-.4971.6439.6439,0,0,1,.376-.332.6969.6969,0,0,1,.5293.0322.68.68,0,0,1,.3633.3887,50.5267,50.5267,0,0,1,1.6455,5.0136.6374.6374,0,0,1-.0635.5166.6737.6737,0,0,1-.4209.3125.661.661,0,0,1-.5224-.0634A.67.67,0,0,1,56.8525,13.3425Z"/><path d="M59.3018,8.9167a.5868.5868,0,0,1-.2237-.3955.5311.5311,0,0,1,.1338-.4336.64.64,0,0,1,.4151-.2236.6076.6076,0,0,1,.4531.1211q.6621.4848,1.39,1.1357a.6193.6193,0,0,1,.2237.4336.6306.6306,0,0,1-.1465.459.5907.5907,0,0,1-.4151.2109.5779.5779,0,0,1-.4394-.1465Q59.8881,9.3631,59.3018,8.9167Zm1.5048,3.1377a.5666.5666,0,0,1,.3067-.3125.5327.5327,0,0,1,.4336-.0059.6616.6616,0,0,1,.3379.3252.5767.5767,0,0,1,.02.4659,15.7224,15.7224,0,0,1-1.4033,3.01.5335.5335,0,0,1-.39.2617.6091.6091,0,0,1-.4648-.0957.6785.6785,0,0,1-.2617-.4082.5943.5943,0,0,1,.083-.4716A17.82,17.82,0,0,0,60.8066,12.0544ZM59.876,6.1228a.5892.5892,0,0,1-.2237-.4014.5408.5408,0,0,1,.1338-.44.6036.6036,0,0,1,.4209-.2295.6339.6339,0,0,1,.459.1279q.8292.65,1.1611.9434a.5677.5677,0,0,1,.2168.4277.6579.6579,0,0,1-.1533.4658.5888.5888,0,0,1-.414.21.5821.5821,0,0,1-.4405-.1465Q60.5894,6.6843,59.876,6.1228Zm9.4131-1.0645a.6316.6316,0,0,1,.9189,0,.6459.6459,0,0,1,.1914.4648v9.8477a.6465.6465,0,0,1-.1914.4658.6314.6314,0,0,1-.9189,0,.6493.6493,0,0,1-.1905-.4658V12.8835a.1017.1017,0,0,0-.1152-.1143h-.8291a.1017.1017,0,0,0-.1152.1143v2.3857a.6377.6377,0,1,1-1.2754,0V12.4118a.6784.6784,0,0,1,.2168-.5039.7077.7077,0,0,1,.5107-.2109h1.4922a.1017.1017,0,0,0,.1152-.1143v-.7783c0-.0674-.039-.1016-.1152-.1016H63.957a.101.101,0,0,0-.1142.1143q-.0264.5112-.0508.7529c0,.085.0332.127.1016.127h1.3779a.7071.7071,0,0,1,.51.2109.6784.6784,0,0,1,.2168.5039v2.8574a.6377.6377,0,1,1-1.2753,0V12.8835a.101.101,0,0,0-.1143-.1143H63.74a.1132.1132,0,0,0-.1142.1016,10.711,10.711,0,0,1-.8672,2.6787.4556.4556,0,0,1-.377.2744.4772.4772,0,0,1-.4394-.1718l-.0127-.0127a1.0158,1.0158,0,0,1-.1914-1.1739,9.37,9.37,0,0,0,.65-2.29A21.3308,21.3308,0,0,0,62.58,9.0183v-3.52a.6377.6377,0,1,1,1.2754,0v1.875a.1016.1016,0,0,0,.1152.1152h.7647a.1016.1016,0,0,0,.1152-.1152v-1.85a.6321.6321,0,0,1,.625-.625.582.582,0,0,1,.4336.1856.61.61,0,0,1,.1787.4394V7.8454a.7186.7186,0,0,1-.7149.7139H63.9707a.1016.1016,0,0,0-.1152.1152v.7783c0,.0674.0381.1016.1152.1016h5.0127c.0762,0,.1152-.0342.1152-.1016V8.6745a.1019.1019,0,0,0-.1152-.1152H67.58a.71.71,0,0,1-.51-.21.6751.6751,0,0,1-.2168-.5039V5.5231a.625.625,0,0,1,1.25,0v1.85c0,.0771.0332.1152.1016.1152h.7783a.1019.1019,0,0,0,.1152-.1152v-1.85A.6487.6487,0,0,1,69.2891,5.0583Z"/><path d="M72.3379,8.9167a.5676.5676,0,0,1-.2168-.3955.5534.5534,0,0,1,.1406-.4336.64.64,0,0,1,.4141-.2236.6065.6065,0,0,1,.4531.1211q.6636.4848,1.3906,1.1357a.5839.5839,0,0,1,.2227.4277.613.613,0,0,1-.1592.4649.5884.5884,0,0,1-.4141.2109.5815.5815,0,0,1-.44-.1465Q72.9244,9.3631,72.3379,8.9167Zm1.5947,3.0742a.5186.5186,0,0,1,.3125-.3125.55.55,0,0,1,.44.0186.7317.7317,0,0,1,.3438.37.6379.6379,0,0,1,.0127.4853,17.67,17.67,0,0,1-1.416,2.9844.5335.5335,0,0,1-.3887.2617.6514.6514,0,0,1-.4785-.0957.641.641,0,0,1-.2676-.415.6618.6618,0,0,1,.0889-.49A17.1081,17.1081,0,0,0,73.9326,11.9909ZM72.9248,6.1228a.59.59,0,0,1-.2236-.4014.5411.5411,0,0,1,.1347-.44.6017.6017,0,0,1,.4209-.2295.6339.6339,0,0,1,.459.1279q.7266.5742,1.1475.9434a.5852.5852,0,0,1,.2236.4277.64.64,0,0,1-.1465.4658.591.591,0,0,1-.415.21.58.58,0,0,1-.44-.1465Q73.6392,6.6843,72.9248,6.1228Zm7.6279,4.3115a9.8907,9.8907,0,0,0,2.5127,4.3115.6715.6715,0,0,1,.2041.46.6487.6487,0,0,1-.165.4716.6286.6286,0,0,1-.44.2227.5723.5723,0,0,1-.4532-.1592,10.3448,10.3448,0,0,1-1.7988-2.3594,12.5429,12.5429,0,0,1-1.2109-2.9472.132.132,0,0,0-.1407-.1143H77.5938c-.0772,0-.1153.0342-.1153.1016a12.2961,12.2961,0,0,1-1.2754,5.166.5572.5572,0,0,1-.3955.3.651.651,0,0,1-.4971-.083.68.68,0,0,1-.2939-.4268.721.721,0,0,1,.0645-.5166,9.0326,9.0326,0,0,0,.8671-2.6025,21.9668,21.9668,0,0,0,.2549-3.7246V5.8806a.7406.7406,0,0,1,.7276-.7266h5.2422a.7406.7406,0,0,1,.7275.7266V9.5925a.7406.7406,0,0,1-.7275.7275H80.63C80.5615,10.32,80.5361,10.3581,80.5527,10.4343ZM77.6191,9.1716h3.8272a.101.101,0,0,0,.1142-.1143V6.4421a.1016.1016,0,0,0-.1142-.1152H77.6191c-.0683,0-.1025.039-.1025.1152V9.07A.09.09,0,0,0,77.6191,9.1716Z"/><path d="M41.8906,31.3483a.3426.3426,0,0,1-.5615-.2685v-.0762a1.426,1.426,0,0,1,.5615-1.1738l1.4414-1.16a1.9615,1.9615,0,0,1,1.25-.4345.6969.6969,0,0,1,.7012.7021v7.9082a.7017.7017,0,1,1-1.4033,0V29.779c0-.0088-.0039-.0127-.0127-.0127l-.0254.0127Z"/><path d="M54.5635,36.54a3.5082,3.5082,0,0,1-5.167,0,6.1,6.1,0,0,1-.86-3.6484,6.1043,6.1043,0,0,1,.86-3.6484,3.5082,3.5082,0,0,1,5.167,0,6.1051,6.1051,0,0,1,.86,3.6484A6.1009,6.1009,0,0,1,54.5635,36.54Zm-1.0459-6.4736a1.8312,1.8312,0,0,0-3.0742,0,5.7776,5.7776,0,0,0-.5039,2.8252,5.7746,5.7746,0,0,0,.5039,2.8252,1.8312,1.8312,0,0,0,3.0742,0,5.8014,5.8014,0,0,0,.5029-2.8252A5.8043,5.8043,0,0,0,53.5176,30.0661Z"/><path d="M58.4092,32.573a.7424.7424,0,0,1-.7276-.7276v-.459a.7406.7406,0,0,1,.7276-.7275h.2041a.7406.7406,0,0,1,.7265.7275v.459a.7424.7424,0,0,1-.7265.7276Zm0,4.9746a.7406.7406,0,0,1-.7276-.7276v-.459a.7406.7406,0,0,1,.7276-.7275h.2041a.7406.7406,0,0,1,.7265.7275v.459a.7406.7406,0,0,1-.7265.7276Z"/><path d="M61.7764,35.5065a.567.567,0,0,1-.5616-.5615,1.7551,1.7551,0,0,1,.3184-1.02l3.56-5.1279a1.2358,1.2358,0,0,1,1.084-.5615.697.697,0,0,1,.6884.6894v5.3574c0,.0684.0391.1016.1153.1016h.8164a.5615.5615,0,0,1,0,1.123h-.8164a.1017.1017,0,0,0-.1153.1143v1.2373a.6885.6885,0,0,1-1.3769,0V35.6208a.1013.1013,0,0,0-.1153-.1143Zm.8545-1.1611c0,.0088-.002.0127-.0069.0127s-.0058.0049-.0058.0127.0039.0127.0127.0127H65.373c.0772,0,.1153-.0332.1153-.1016V30.2761a.0118.0118,0,0,0-.0127-.0127c-.0176,0-.0254.0049-.0254.0127Z"/><path d="M75.6611,36.54a3.5082,3.5082,0,0,1-5.167,0,6.1009,6.1009,0,0,1-.86-3.6484,6.1051,6.1051,0,0,1,.86-3.6484,3.5082,3.5082,0,0,1,5.167,0,6.1043,6.1043,0,0,1,.86,3.6484A6.1,6.1,0,0,1,75.6611,36.54Zm-1.0459-6.4736a1.8312,1.8312,0,0,0-3.0742,0,5.7787,5.7787,0,0,0-.5039,2.8252,5.7758,5.7758,0,0,0,.5039,2.8252,1.8312,1.8312,0,0,0,3.0742,0,5.8,5.8,0,0,0,.503-2.8252A5.8029,5.8029,0,0,0,74.6152,30.0661Z"/><path d="M85.9355,32.6745c-.0761,0-.1152.0342-.1152.1026v1.2753a.1017.1017,0,0,0,.1152.1143h2.6026a.5742.5742,0,1,1,0,1.1484H85.9355a.1017.1017,0,0,0-.1152.1143v1.6328c0,.1787.041.2871.1221.3252a2.5706,2.5706,0,0,0,.7461.0576,1.6715,1.6715,0,0,0,.86-.1338q.173-.1332.2237-.7968a.6734.6734,0,0,1,.2168-.4463.5627.5627,0,0,1,.4589-.1534.6573.6573,0,0,1,.459.2354.6846.6846,0,0,1,.166.4912q-.0249.4849-.07.7783a1.4694,1.4694,0,0,1-.1777.5235,1.34,1.34,0,0,1-.2617.3379,1.0583,1.0583,0,0,1-.4658.1718,4.4989,4.4989,0,0,1-.6573.0772c-.2119.0078-.5273.0127-.9433.0127a8.5178,8.5178,0,0,1-1.3711-.0772.8149.8149,0,0,1-.543-.2617,1.1271,1.1271,0,0,1-.1269-.6182V35.4294a.1013.1013,0,0,0-.1153-.1143H82.4785a.1235.1235,0,0,0-.1269.1143,4.3426,4.3426,0,0,1-3.3682,3.1387.6218.6218,0,0,1-.4912-.0518.7284.7284,0,0,1-.3379-.3818.5307.5307,0,0,1,.0254-.4531.5847.5847,0,0,1,.3574-.3A3.3812,3.3812,0,0,0,80.91,35.404c.0166-.0586-.0088-.0889-.0772-.0889H78.5879a.5742.5742,0,1,1,0-1.1484h2.4365q.1026,0,.1026-.1143,0-.0262.0058-.1025c.0039-.0508.0068-.085.0068-.1016V32.7771c0-.0684-.039-.1026-.1152-.1026H80.54a.5172.5172,0,0,1-.498-.3193c-.0342-.0674-.0762-.08-.127-.0381q-.5493.3574-1.2119.7275a.5618.5618,0,0,1-.4717.045.6055.6055,0,0,1-.3574-.3125.6533.6533,0,0,1-.0381-.4913.6254.6254,0,0,1,.3057-.3769q1.0079-.5478,1.5947-.9434a.06.06,0,0,0,.0381-.0644.1071.1071,0,0,0-.0254-.0762q-1.1352-1.021-1.1738-1.0586a.54.54,0,0,1-.1973-.4082.5518.5518,0,0,1,.1719-.4209.6887.6887,0,0,1,.4463-.1914.6539.6539,0,0,1,.459.1533q.2432.2037,1.289,1.16a.1352.1352,0,0,0,.1661.0127,9.1714,9.1714,0,0,0,1.3642-1.4287.0413.0413,0,0,0,.0068-.0567.0627.0627,0,0,0-.0576-.0322H79.9277a.5492.5492,0,0,1-.3955-.1592.5212.5212,0,0,1-.166-.39.5653.5653,0,0,1,.5615-.5606h3.5332a1.2036,1.2036,0,0,1,1.084.625,8.3421,8.3421,0,0,0,.5489.7774.08.08,0,0,0,.1406.0127q.4335-.4834.8164-.9688a.6224.6224,0,0,1,.3945-.249.6517.6517,0,0,1,.46.083.5553.5553,0,0,1,.2607.37.5172.5172,0,0,1-.0947.4209q-.5112.65-1.02,1.1992a.0942.0942,0,0,0,0,.1524q.293.2681.7138.6123a.1071.1071,0,0,0,.1534,0q.42-.4454.9687-1.16a.63.63,0,0,1,.4024-.249.6634.6634,0,0,1,.4658.083.5578.5578,0,0,1,.2607.376.5293.5293,0,0,1-.0947.4277q-.4468.561-1.0342,1.1992a.0856.0856,0,0,0-.0185.0762.066.066,0,0,0,.0449.0635q.74.46,1.0332.6123a.6575.6575,0,0,1,.3125.3769.6427.6427,0,0,1-.0322.4913.5759.5759,0,0,1-.37.3183.6035.6035,0,0,1-.4843-.0508q-.4468-.2549-1.1612-.7275c-.0595-.0332-.1064-.0166-.14.0518a.5186.5186,0,0,1-.4981.3056ZM81.05,31.5524h5.001a.0412.0412,0,0,0,.0381-.0263.0258.0258,0,0,0-.0127-.0381,12.62,12.62,0,0,1-2.4746-2.6016c-.0342-.0517-.0723-.0468-.1153.0127a12.5079,12.5079,0,0,1-2.4619,2.5889.0252.0252,0,0,0-.0127.0381A.0412.0412,0,0,0,81.05,31.5524Zm3.4063,2.5V32.7771c0-.0684-.0381-.1026-.1153-.1026H82.6191c-.0771,0-.1152.0342-.1152.1026v1.2753a.1013.1013,0,0,0,.1152.1143h1.7217A.1013.1013,0,0,0,84.4561,34.0524Z"/><path d="M41.8906,51.19a.3419.3419,0,0,1-.5615-.2675v-.0772a1.4242,1.4242,0,0,1,.5615-1.1728l1.4414-1.1612a1.9606,1.9606,0,0,1,1.25-.4336.6969.6969,0,0,1,.7012.7012v7.9092a.7017.7017,0,1,1-1.4033,0V49.6208a.0114.0114,0,0,0-.0127-.0127l-.0254.0127Z"/><path d="M52.0439,57.5173q-3.3809,0-3.3808-4.21a6.5826,6.5826,0,0,1,1.02-4.0244,3.4739,3.4739,0,0,1,2.9346-1.333,6.39,6.39,0,0,1,1.1982.1152.676.676,0,0,1,.4277.2618.7871.7871,0,0,1,.1592.4912.4.4,0,0,1-.1787.3437.4924.4924,0,0,1-.4082.0772,5.225,5.225,0,0,0-1.1982-.1407,2.1413,2.1413,0,0,0-1.6524.7207,3.4648,3.4648,0,0,0-.7842,2.06c0,.0176.0039.0264.0127.0264H50.22a2.894,2.894,0,0,1,2.1426-.7656,2.8484,2.8484,0,0,1,3.0615,3.0615,3.2156,3.2156,0,0,1-.9179,2.4365A3.4141,3.4141,0,0,1,52.0439,57.5173Zm0-5.3193a1.8852,1.8852,0,0,0-1.41.5546,1.9849,1.9849,0,0,0-.542,1.4483,2.2232,2.2232,0,0,0,.5488,1.581,1.8334,1.8334,0,0,0,1.4033.587,1.9014,1.9014,0,0,0,1.4541-.5547,2.2662,2.2662,0,0,0,.5225-1.6133,1.975,1.975,0,0,0-.542-1.461A1.94,1.94,0,0,0,52.0439,52.198Z"/><path d="M58.4092,52.4147a.74.74,0,0,1-.7276-.7265v-.46a.7406.7406,0,0,1,.7276-.7265h.2041a.7407.7407,0,0,1,.7265.7265v.46a.74.74,0,0,1-.7265.7265Zm0,4.9747a.7406.7406,0,0,1-.7276-.7266v-.46a.7406.7406,0,0,1,.7276-.7265h.2041a.7407.7407,0,0,1,.7265.7265v.46a.7407.7407,0,0,1-.7265.7266Z"/><path d="M62.8477,57.2878a.7665.7665,0,0,1-.4463-.3193.94.94,0,0,1-.166-.5479.3887.3887,0,0,1,.1972-.3516.4635.4635,0,0,1,.4151-.0439,5.1482,5.1482,0,0,0,1.6835.3438A1.8893,1.8893,0,0,0,66.7,54.2644q0-1.7726-1.6582-1.7735a2.3092,2.3092,0,0,0-1.0469.23,2.7334,2.7334,0,0,1-1.084.331.5672.5672,0,0,1-.4267-.1787.5431.5431,0,0,1-.16-.4209l.1914-3.6484a.7915.7915,0,0,1,.2422-.5166.7266.7266,0,0,1,.5234-.21h3.8653a.5743.5743,0,1,1,0,1.1485H63.9316c-.0683,0-.1015.0381-.1015.1142l-.128,2.4239c0,.0087.0088.0127.0254.0127l.0254-.0127a3.2541,3.2541,0,0,1,1.544-.37,2.766,2.766,0,0,1,2.0664.753,2.8915,2.8915,0,0,1,.7392,2.1172,3.1171,3.1171,0,0,1-.9052,2.43,3.8392,3.8392,0,0,1-2.6661.8233A6.1227,6.1227,0,0,1,62.8477,57.2878Z"/><path d="M71.3936,56.7136a36.0388,36.0388,0,0,1,3.457-7.4492c0-.0088.0019-.0127.0068-.0127s.0059-.0049.0059-.0127-.0039-.0127-.0127-.0127H70.6543a.5743.5743,0,1,1,0-1.1485h4.9746a.5671.5671,0,0,1,.5742.5743,2,2,0,0,1-.2939,1.0585,34.01,34.01,0,0,0-3.0615,6.99.9806.9806,0,0,1-.3633.4971.9576.9576,0,0,1-.58.1914h-.0127a.5046.5046,0,0,1-.4277-.2168A.4624.4624,0,0,1,71.3936,56.7136Z"/><path d="M88.8057,51.114a.4833.4833,0,0,1,.3632.1523.5093.5093,0,0,1,0,.7149.4845.4845,0,0,1-.3632.1533H81.7129a.12.12,0,0,0-.127.1015c-.0088.0342-.0234.085-.0449.1534s-.0361.1191-.0449.1533c-.0166.0674.0088.1015.0771.1015h5.9317a.7072.7072,0,0,1,.51.211.6752.6752,0,0,1,.2168.5039v4.5156a.6822.6822,0,0,1-.2041.49.6646.6646,0,0,1-.497.211h-.2549a.4572.4572,0,0,1-.4473-.4463.0556.0556,0,0,0-.0635-.0635H81.5732c-.0507,0-.0771.02-.0771.0635a.4394.4394,0,0,1-.127.3125.41.41,0,0,1-.3066.1338H80.82a.6742.6742,0,0,1-.6885-.6885v-2.666c0-.0176-.0068-.0254-.0195-.0254a.04.04,0,0,0-.0312.0127A7.48,7.48,0,0,1,78.64,56.9812a.5145.5145,0,0,1-.46.1337.5741.5741,0,0,1-.4082-.2607.7631.7631,0,0,1-.1143-.5234.7446.7446,0,0,1,.2549-.4717,7.8268,7.8268,0,0,0,2.334-3.6231c.0176-.0673-.0078-.1015-.0762-.1015H78.2178a.4846.4846,0,0,1-.3633-.1533.5093.5093,0,0,1,0-.7149.4833.4833,0,0,1,.3633-.1523h4.6181c.0684,0,.1016-.0381.1016-.1153V50.68c0-.0772-.0332-.1153-.1016-.1153h-3.61a.5.5,0,0,1-.4971-.497.4585.4585,0,0,1,.1465-.3448.4892.4892,0,0,1,.3506-.1406h3.61c.0684,0,.1016-.0381.1016-.1142v-.3194c0-.0761-.0332-.1142-.1016-.1142H78.6133a.5236.5236,0,0,1-.5225-.5235.5231.5231,0,0,1,.1533-.3759.4919.4919,0,0,1,.3692-.16h2.1435a.0622.0622,0,0,0,.0577-.0313.0436.0436,0,0,0-.0069-.0576.2778.2778,0,0,1-.0508-.083.3137.3137,0,0,0-.0507-.083.4689.4689,0,0,1-.0391-.4394.4611.4611,0,0,1,.332-.3.8081.8081,0,0,1,.5489.0127.8192.8192,0,0,1,.4209.3564l.3056.5361a.1653.1653,0,0,0,.1533.0889H84.66a.1965.1965,0,0,0,.166-.0889c.0332-.0595.123-.2207.2676-.4843a.8911.8911,0,0,1,.4082-.3829.8248.8248,0,0,1,.5488-.0644.5205.5205,0,0,1,.3633.3.49.49,0,0,1-.02.4658.892.892,0,0,1-.0507.083.7966.7966,0,0,0-.0508.083.0568.0568,0,0,0,.0058.0576.0622.0622,0,0,0,.0576.0313H88.41a.4954.4954,0,0,1,.37.16.5272.5272,0,0,1,.1533.3759.5236.5236,0,0,1-.5234.5235H84.4561a.1013.1013,0,0,0-.1153.1142v.3194a.1013.1013,0,0,0,.1153.1142h3.3418a.489.489,0,0,1,.35.1406.4585.4585,0,0,1,.1465.3448.5.5,0,0,1-.497.497H84.4561a.1016.1016,0,0,0-.1153.1153v.3183a.1016.1016,0,0,0,.1153.1153Zm-7.31,2.6533v.3564a.102.102,0,0,0,.1152.1153h5.1153c.0673,0,.1015-.0381.1015-.1153v-.3564a.09.09,0,0,0-.1015-.1026H81.6113C81.5352,53.6647,81.4961,53.6989,81.4961,53.7673Zm0,1.4414v.3437a.102.102,0,0,0,.1152.1153h5.1153c.0673,0,.1015-.0381.1015-.1153v-.3437c0-.0772-.0342-.1152-.1015-.1152H81.6113A.1019.1019,0,0,0,81.4961,55.2087Zm0,1.4287v.3565a.102.102,0,0,0,.1152.1152h5.1153c.0673,0,.1015-.0381.1015-.1152v-.3565c0-.0771-.0342-.1152-.1015-.1152H81.6113A.102.102,0,0,0,81.4961,56.6374Z"/><path d="M41.8906,71.0329a.342.342,0,0,1-.5615-.2676v-.0771a1.4245,1.4245,0,0,1,.5615-1.1729l1.4414-1.1611a1.96,1.96,0,0,1,1.25-.4336.6969.6969,0,0,1,.7012.7012V76.531a.7017.7017,0,1,1-1.4033,0V69.4636a.0114.0114,0,0,0-.0127-.0127l-.0254.0127Z"/><path d="M54.5117,76.6325a4.7685,4.7685,0,0,1-5.0635,0,2.3645,2.3645,0,0,1-.9121-1.9511A2.1532,2.1532,0,0,1,49.04,73.31a3.2259,3.2259,0,0,1,1.3965-.9766c.0088,0,.0127-.0039.0127-.0127a.0114.0114,0,0,0-.0127-.0127,2.7393,2.7393,0,0,1-1.167-.918,2.2061,2.2061,0,0,1-.415-1.3007,1.9921,1.9921,0,0,1,.8291-1.6651,4.4893,4.4893,0,0,1,4.5928,0,1.9921,1.9921,0,0,1,.8291,1.6651,2.2046,2.2046,0,0,1-1.5821,2.0918c-.0088,0-.0127.0039-.0127.0126s.0039.0127.0127.0127a2.4666,2.4666,0,0,1,1.9,2.4747A2.3645,2.3645,0,0,1,54.5117,76.6325Zm-2.6972-3.7754a3.2677,3.2677,0,0,0-1.4541.708,1.4108,1.4108,0,0,0-.4981,1.0528,1.4424,1.4424,0,0,0,.5684,1.2051,2.47,2.47,0,0,0,1.55.44,2.3593,2.3593,0,0,0,1.5234-.44,1.4706,1.4706,0,0,0,.543-1.2051q0-1.3023-2.0283-1.7608A.4245.4245,0,0,0,51.8145,72.8571ZM50.207,70.2165a1.2317,1.2317,0,0,0,.4209.9121,2.6284,2.6284,0,0,0,1.2373.5928.5054.5054,0,0,0,.23,0,2.9837,2.9837,0,0,0,1.27-.6182,1.1869,1.1869,0,0,0,.4394-.8867,1.1522,1.1522,0,0,0-.4717-.97,2.2119,2.2119,0,0,0-1.3515-.3565,2.1192,2.1192,0,0,0-1.32.3506A1.1625,1.1625,0,0,0,50.207,70.2165Z"/><path d="M58.4092,72.2575a.7406.7406,0,0,1-.7276-.7265v-.46a.7406.7406,0,0,1,.7276-.7266h.2041a.7407.7407,0,0,1,.7265.7266v.46a.7407.7407,0,0,1-.7265.7265Zm0,4.9746a.7406.7406,0,0,1-.7276-.7265v-.46a.7406.7406,0,0,1,.7276-.7266h.2041a.7407.7407,0,0,1,.7265.7266v.46a.7407.7407,0,0,1-.7265.7265Z"/><path d="M62.9883,71.0329a.342.342,0,0,1-.5615-.2676v-.0771a1.4245,1.4245,0,0,1,.5615-1.1729L64.43,68.3542a1.96,1.96,0,0,1,1.25-.4336.6969.6969,0,0,1,.7012.7012V76.531a.7017.7017,0,1,1-1.4034,0V69.4636a.0114.0114,0,0,0-.0127-.0127l-.0253.0127Z"/><path d="M71.3936,76.5564a36.04,36.04,0,0,1,3.457-7.4493c0-.0088.0019-.0127.0068-.0127s.0059-.0048.0059-.0127-.0039-.0127-.0127-.0127H70.6543a.5742.5742,0,1,1,0-1.1484h4.9746a.5669.5669,0,0,1,.5742.5742,2,2,0,0,1-.2939,1.0586,34.0075,34.0075,0,0,0-3.0615,6.99.98.98,0,0,1-.3633.497.957.957,0,0,1-.58.1914h-.0127a.5044.5044,0,0,1-.4277-.2168A.4622.4622,0,0,1,71.3936,76.5564Z"/><path d="M85.9355,72.36c-.0761,0-.1152.0332-.1152.1015V73.737a.1019.1019,0,0,0,.1152.1152h2.6026a.5738.5738,0,1,1,0,1.1475H85.9355a.1024.1024,0,0,0-.1152.1152v1.6329c0,.1787.041.2871.1221.3252a2.614,2.614,0,0,0,.7461.0576,1.6837,1.6837,0,0,0,.86-.1338q.173-.1349.2237-.7979a.6739.6739,0,0,1,.2168-.4463.566.566,0,0,1,.4589-.1533.6579.6579,0,0,1,.459.2363.6835.6835,0,0,1,.166.4913c-.0166.3232-.04.582-.07.7783a1.4629,1.4629,0,0,1-.1777.5224,1.3185,1.3185,0,0,1-.2617.3379,1.0567,1.0567,0,0,1-.4658.1729,4.6352,4.6352,0,0,1-.6573.0762c-.2119.0087-.5273.0126-.9433.0126a8.5513,8.5513,0,0,1-1.3711-.0761.8238.8238,0,0,1-.543-.2617,1.1313,1.1313,0,0,1-.1269-.6192V75.1149A.102.102,0,0,0,84.3408,75H82.4785a.1243.1243,0,0,0-.1269.1152,4.34,4.34,0,0,1-3.3682,3.1377.622.622,0,0,1-.4912-.0507.7308.7308,0,0,1-.3379-.3829.5309.5309,0,0,1,.0254-.4531.588.588,0,0,1,.3574-.3A3.3824,3.3824,0,0,0,80.91,75.09c.0166-.06-.0088-.09-.0772-.09H78.5879a.5738.5738,0,1,1,0-1.1475h2.4365c.0684,0,.1026-.038.1026-.1152,0-.0166.0019-.0508.0058-.1015s.0068-.085.0068-.1026V72.4616c0-.0683-.039-.1015-.1152-.1015H80.54a.5173.5173,0,0,1-.498-.3194c-.0342-.0683-.0762-.081-.127-.0381q-.5493.3575-1.2119.7266a.5578.5578,0,0,1-.4717.0449.599.599,0,0,1-.3574-.3125.6523.6523,0,0,1-.0381-.4912.6237.6237,0,0,1,.3057-.376q1.0079-.5478,1.5947-.9443c.0254-.0078.0381-.0293.0381-.0635a.1036.1036,0,0,0-.0254-.0761q-1.1352-1.021-1.1738-1.06a.5388.5388,0,0,1-.1973-.4082.5516.5516,0,0,1,.1719-.4209.6932.6932,0,0,1,.4463-.1914.6581.6581,0,0,1,.459.1533q.2432.205,1.289,1.1611a.1351.1351,0,0,0,.1661.0127,9.2068,9.2068,0,0,0,1.3642-1.4287.0423.0423,0,0,0,.0068-.0576.0639.0639,0,0,0-.0576-.0313H79.9277a.55.55,0,0,1-.3955-.16.52.52,0,0,1-.166-.3887.5668.5668,0,0,1,.5615-.5615h3.5332a1.2055,1.2055,0,0,1,1.084.625,8.3557,8.3557,0,0,0,.5489.7783.0807.0807,0,0,0,.1406.0127q.4335-.4848.8164-.97a.6168.6168,0,0,1,.3945-.2481.6518.6518,0,0,1,.46.0821.5573.5573,0,0,1,.2607.37.5165.5165,0,0,1-.0947.4209q-.5112.65-1.02,1.1992a.095.095,0,0,0,0,.1533q.293.2681.7138.6123a.1069.1069,0,0,0,.1534,0q.42-.4467.9687-1.1611a.6245.6245,0,0,1,.4024-.2481.6583.6583,0,0,1,.4658.0821.5592.5592,0,0,1,.2607.3769.5264.5264,0,0,1-.0947.4268q-.4468.5625-1.0342,1.1992a.0886.0886,0,0,0-.0185.0772.0678.0678,0,0,0,.0449.0634q.74.4586,1.0332.6123a.6557.6557,0,0,1,.3125.376.6418.6418,0,0,1-.0322.4912.5775.5775,0,0,1-.37.3194.6041.6041,0,0,1-.4843-.0518q-.4468-.2549-1.1612-.7266c-.0595-.0341-.1064-.0175-.14.0508a.52.52,0,0,1-.4981.3067ZM81.05,71.237h5.001a.04.04,0,0,0,.0381-.0254.0258.0258,0,0,0-.0127-.0381,12.6014,12.6014,0,0,1-2.4746-2.6025c-.0342-.0508-.0723-.0469-.1153.0127a12.4891,12.4891,0,0,1-2.4619,2.59.0252.0252,0,0,0-.0127.0381A.04.04,0,0,0,81.05,71.237Zm3.4063,2.5V72.4616c0-.0683-.0381-.1015-.1153-.1015H82.6191c-.0771,0-.1152.0332-.1152.1015V73.737a.1015.1015,0,0,0,.1152.1152h1.7217A.1016.1016,0,0,0,84.4561,73.737Z"/><rect class="b" x="126.1824" y="0.5476" width="68" height="20"/><path d="M142.0693,13.7a.6417.6417,0,0,1-.3632-.3437.6143.6143,0,0,1-.0069-.4981,23.5232,23.5232,0,0,0,1.4668-4.72.6964.6964,0,0,1,.2871-.4336.6525.6525,0,0,1,.5039-.1016.6938.6938,0,0,1,.4336.28.6332.6332,0,0,1,.1026.4971A24.8821,24.8821,0,0,1,143,13.3044a.6994.6994,0,0,1-.3818.3828A.7168.7168,0,0,1,142.0693,13.7Zm5.0957-8.7891a.6932.6932,0,0,1,.9825,0,.669.669,0,0,1,.2109.4981v8.8652q0,.46-.0195.7276a2.4245,2.4245,0,0,1-.0889.5039.8024.8024,0,0,1-.1729.3379.8743.8743,0,0,1-.3378.1787,1.9142,1.9142,0,0,1-.4913.0888q-.2548.0132-.7138.0127-.3706,0-1.4033-.0381a.6791.6791,0,0,1-.6377-.6376.5143.5143,0,0,1,.166-.4151.5571.5571,0,0,1,.4336-.1592q.9184.0381,1.2246.0381a1.0217,1.0217,0,0,0,.5547-.083,1.1042,1.1042,0,0,0,.083-.58v-8.84A.6718.6718,0,0,1,147.165,4.9108Zm4.9815,8.4317q-.65-2.3848-1.62-4.9492a.6134.6134,0,0,1,.0322-.4971.6436.6436,0,0,1,.376-.332.697.697,0,0,1,.5293.0322.6793.6793,0,0,1,.3632.3887,50.5276,50.5276,0,0,1,1.6456,5.0136.6381.6381,0,0,1-.0635.5166.674.674,0,0,1-.4209.3125.6613.6613,0,0,1-.5225-.0634A.6694.6694,0,0,1,152.1465,13.3425Z"/><path d="M167.6826,8.05a.5889.5889,0,0,1-.414-.16.52.52,0,0,1-.1719-.4014.5869.5869,0,0,1,.5859-.5869h3.2149a.5465.5465,0,0,1,.4082.1719.58.58,0,0,1,.166.415.532.532,0,0,1-.166.4014.5671.5671,0,0,1-.4082.16Zm.332-2.96h2.6407a.5615.5615,0,0,1,0,1.123h-2.6407a.5615.5615,0,0,1,0-1.123Zm3.24,8.0625v1.8623a.7406.7406,0,0,1-.7276.7265H168.73a.0567.0567,0,0,0-.0645.0635.4591.4591,0,0,1-.4462.4473h-.1534a.5907.5907,0,0,1-.4336-.1787.5767.5767,0,0,1-.1787-.4209v-2.5a.7406.7406,0,0,1,.7276-.7276h2.3466a.7406.7406,0,0,1,.7276.7276Zm-3.1641-3.2784a.5057.5057,0,0,1-.376-.166.5351.5351,0,0,1-.1591-.3828.5452.5452,0,0,1,.5351-.5361h2.5518a.5452.5452,0,0,1,.5351.5361.5351.5351,0,0,1-.1591.3828.5057.5057,0,0,1-.376.166Zm0,1.8233a.5048.5048,0,0,1-.376-.1651.54.54,0,0,1,0-.7656.506.506,0,0,1,.376-.166h2.5518a.506.506,0,0,1,.376.166.54.54,0,0,1,0,.7656.5048.5048,0,0,1-.376.1651Zm2.0156,2.8447V13.611q0-.1025-.1142-.1025H168.78c-.0772,0-.1153.0342-.1153.1025v.9307a.1016.1016,0,0,0,.1153.1152h1.2119A.1012.1012,0,0,0,170.1064,14.5417Zm8.3047-6.4541a.5611.5611,0,0,1,0,1.1221h-1.9775a.2613.2613,0,0,0-.1914.0771q-.6123.6123-.9434.9053c-.0429.043-.03.0635.0381.0635h2.3086a.68.68,0,0,1,.5039.2177.7066.7066,0,0,1,.21.51V15.486a.6629.6629,0,0,1-.1914.4786.6283.6283,0,0,1-.4717.1972h-.23a.4573.4573,0,0,1-.4463-.4463.056.056,0,0,0-.0635-.0634h-3.0488c-.0518,0-.0771.02-.0771.0634a.4374.4374,0,0,1-.127.3125.41.41,0,0,1-.3066.1338h-.2168a.6158.6158,0,0,1-.459-.1972.6469.6469,0,0,1-.1914-.4659V12.3356a.062.062,0,0,0-.0323-.0576.0421.0421,0,0,0-.0566.0059c-.0264.0176-.0723.0449-.1406.083s-.1153.0664-.1406.083a.6.6,0,0,1-.4844.0508.5756.5756,0,0,1-.37-.3184.6283.6283,0,0,1-.0323-.4853.6573.6573,0,0,1,.3125-.3692,14.9408,14.9408,0,0,0,2.9346-2.0537c.0166-.0176.02-.0322.0127-.0449a.0439.0439,0,0,0-.0381-.02h-2.3984a.5611.5611,0,0,1,0-1.1221h1.7217a.1016.1016,0,0,0,.1152-.1152V6.863a.1019.1019,0,0,0-.1152-.1152h-1.1993a.5438.5438,0,0,1-.5351-.5352.5348.5348,0,0,1,.1592-.3828.5053.5053,0,0,1,.3759-.166h1.1993a.1013.1013,0,0,0,.1152-.1143V5.154a.661.661,0,0,1,.1914-.4785.6293.6293,0,0,1,.4717-.1983.6753.6753,0,0,1,.6758.6768V5.55q0,.1143.1025.1143h2.0029a.1649.1649,0,0,0,.1524-.0889.0683.0683,0,0,1,.0127-.0322.2275.2275,0,0,1,.0263-.0322.7406.7406,0,0,1,.376-.3184.6214.6214,0,0,1,.4785.0127.5815.5815,0,0,1,.3184.3447.5133.5133,0,0,1-.0381.459,15.5391,15.5391,0,0,1-1.3262,1.9893c-.0429.06-.0341.09.0254.09Zm-1.4931,3.2783h-2.9717a.1017.1017,0,0,0-.1152.1143v.8291a.1019.1019,0,0,0,.1152.1152h2.9717c.0683,0,.1025-.0381.1025-.1152V11.48Q177.0205,11.3659,176.918,11.3659Zm.1025,3.0869v-.8672c0-.0771-.0342-.1152-.1025-.1152h-2.9717a.1019.1019,0,0,0-.1152.1152v.8672c0,.0684.039.1016.1152.1016h2.9717A.09.09,0,0,0,177.0205,14.4528Zm-.3066-7.6152c.0429-.06.03-.09-.0381-.09H175.375c-.0684,0-.1025.039-.1025.1152V7.9724c0,.0771.0341.1152.1025.1152h.23a.1858.1858,0,0,0,.166-.0762Q176.3564,7.3348,176.7139,6.8376Z"/><path d="M137.1846,31.3483a.3426.3426,0,0,1-.5616-.2685v-.0762a1.4261,1.4261,0,0,1,.5616-1.1738l1.4414-1.16a1.9611,1.9611,0,0,1,1.25-.4345.6969.6969,0,0,1,.7011.7021v7.9082a.7017.7017,0,1,1-1.4033,0V29.779c0-.0088-.0039-.0127-.0127-.0127l-.0254.0127Z"/><path d="M146.2666,36.361a.0371.0371,0,0,0-.0127.0254c0,.0088.0039.0127.0127.0127h3.3672a.5743.5743,0,1,1,0,1.1485h-4.72a.5673.5673,0,0,1-.5743-.5743,1.1633,1.1633,0,0,1,.4463-.9316,19.2391,19.2391,0,0,0,3.1446-2.9785,3.612,3.612,0,0,0,.8232-2.1494q0-1.6318-1.7353-1.6319a4.8046,4.8046,0,0,0-1.8877.4463.4338.4338,0,0,1-.4082-.0254.3779.3779,0,0,1-.1915-.3447,1.0313,1.0313,0,0,1,.1661-.5742.8142.8142,0,0,1,.4589-.3447,6.7025,6.7025,0,0,1,2.0538-.3311,3.1887,3.1887,0,0,1,2.2138.708,2.52,2.52,0,0,1,.7842,1.9707,4.3177,4.3177,0,0,1-.81,2.4551A17.3487,17.3487,0,0,1,146.2666,36.361Z"/><path d="M153.7031,32.573a.7424.7424,0,0,1-.7275-.7276v-.459a.7406.7406,0,0,1,.7275-.7275h.2041a.7406.7406,0,0,1,.7266.7275v.459a.7424.7424,0,0,1-.7266.7276Zm0,4.9746a.7406.7406,0,0,1-.7275-.7276v-.459a.7406.7406,0,0,1,.7275-.7275h.2041a.7406.7406,0,0,1,.7266.7275v.459a.7406.7406,0,0,1-.7266.7276Z"/><path d="M158.1416,37.445a.77.77,0,0,1-.4463-.3183.9457.9457,0,0,1-.166-.5489.387.387,0,0,1,.1973-.3506.4635.4635,0,0,1,.415-.0449,5.1531,5.1531,0,0,0,1.6836.3448,1.89,1.89,0,0,0,2.1689-2.1045q0-1.7741-1.6582-1.7735a2.3082,2.3082,0,0,0-1.0468.23,2.7218,2.7218,0,0,1-1.084.332.5676.5676,0,0,1-.4268-.1787.5446.5446,0,0,1-.16-.4209l.1914-3.6484a.7906.7906,0,0,1,.2422-.5166.7238.7238,0,0,1,.5234-.2109H162.44a.5742.5742,0,1,1,0,1.1484h-3.2148c-.0684,0-.1016.0381-.1016.1152l-.1279,2.4229c0,.0088.0088.0127.0254.0127l.0254-.0127a3.2644,3.2644,0,0,1,1.5439-.3692,2.7692,2.7692,0,0,1,2.0664.752,2.8937,2.8937,0,0,1,.7393,2.1182,3.1185,3.1185,0,0,1-.9053,2.43,3.8389,3.8389,0,0,1-2.666.8223A6.0861,6.0861,0,0,1,158.1416,37.445Z"/><path d="M168.4355,37.6745q-3.3808,0-3.3808-4.209a6.5826,6.5826,0,0,1,1.02-4.0244,3.4739,3.4739,0,0,1,2.9346-1.333,6.38,6.38,0,0,1,1.1982.1143.6758.6758,0,0,1,.4277.2617.7912.7912,0,0,1,.1592.4912.4021.4021,0,0,1-.1787.3447.4885.4885,0,0,1-.4082.0762,5.2249,5.2249,0,0,0-1.1982-.1406,2.1443,2.1443,0,0,0-1.6524.7207,3.4674,3.4674,0,0,0-.7842,2.0605c0,.0166.0039.0254.0127.0254h.0254a2.898,2.898,0,0,1,2.1426-.7656,2.8484,2.8484,0,0,1,3.0615,3.0615,3.2141,3.2141,0,0,1-.9179,2.4365A3.41,3.41,0,0,1,168.4355,37.6745Zm0-5.3193a1.8859,1.8859,0,0,0-1.41.5556,1.9825,1.9825,0,0,0-.542,1.4473,2.2274,2.2274,0,0,0,.5488,1.582,1.8334,1.8334,0,0,0,1.4033.587,1.905,1.905,0,0,0,1.4541-.5547,2.2687,2.2687,0,0,0,.5225-1.6143,1.9727,1.9727,0,0,0-.542-1.46A1.94,1.94,0,0,0,168.4355,32.3552Z"/><path d="M184.1,31.2712a.4813.4813,0,0,1,.3633.1533.5081.5081,0,0,1,0,.7139.4813.4813,0,0,1-.3633.1533h-7.0928a.12.12,0,0,0-.1269.1025c-.0088.0342-.0235.085-.0449.1524s-.0362.1191-.045.1533c-.0166.0684.0088.1025.0772.1025h5.9316a.71.71,0,0,1,.51.21.6787.6787,0,0,1,.2168.5039v4.5156a.6849.6849,0,0,1-.2041.4912.665.665,0,0,1-.4971.211h-.2549a.459.459,0,0,1-.4472-.4473.056.056,0,0,0-.0635-.0635h-5.1914c-.0508,0-.0772.0215-.0772.0635a.4377.4377,0,0,1-.1269.3125.4074.4074,0,0,1-.3067.1348h-.2421a.6756.6756,0,0,1-.6885-.6895v-2.666c0-.0166-.0069-.0254-.02-.0254a.0435.0435,0,0,0-.0312.0127,7.5066,7.5066,0,0,1-1.4414,1.7735.5147.5147,0,0,1-.46.1337.5749.5749,0,0,1-.4082-.2617.7609.7609,0,0,1-.1142-.5224.7467.7467,0,0,1,.2549-.4727,7.8237,7.8237,0,0,0,2.3339-3.6221q.0264-.1025-.0761-.1025h-1.9522a.4813.4813,0,0,1-.3633-.1533.5084.5084,0,0,1,0-.7139.4813.4813,0,0,1,.3633-.1533H178.13c.0683,0,.1015-.0381.1015-.1143v-.3193c0-.0762-.0332-.1143-.1015-.1143h-3.61a.5016.5016,0,0,1-.497-.498.46.46,0,0,1,.1464-.3447.4923.4923,0,0,1,.3506-.14h3.61c.0683,0,.1015-.0381.1015-.1152v-.3184c0-.0771-.0332-.1152-.1015-.1152h-4.2227a.5234.5234,0,0,1-.5224-.5225.525.525,0,0,1,.1533-.3769.4906.4906,0,0,1,.3691-.1592h2.1436a.0628.0628,0,0,0,.0576-.0322.0423.0423,0,0,0-.0068-.0567.29.29,0,0,1-.0508-.083.2866.2866,0,0,0-.0508-.083.4715.4715,0,0,1-.0391-.44.4636.4636,0,0,1,.3321-.3.8138.8138,0,0,1,.5488.0127.8254.8254,0,0,1,.4209.3574l.3057.5361a.1651.1651,0,0,0,.1533.0889h2.2324a.1964.1964,0,0,0,.166-.0889c.0332-.0595.1231-.2216.2676-.4853a.8913.8913,0,0,1,.4082-.3828.8238.8238,0,0,1,.5488-.0635.5205.5205,0,0,1,.3633.3.49.49,0,0,1-.0195.4658c-.0088.0166-.0254.044-.0508.083a.7107.7107,0,0,0-.0508.083.0553.0553,0,0,0,.0059.0567.0628.0628,0,0,0,.0576.0322h2.0537a.4943.4943,0,0,1,.37.1592.5291.5291,0,0,1,.1533.3769.5234.5234,0,0,1-.5234.5225H179.75a.1016.1016,0,0,0-.1152.1152v.3184a.1016.1016,0,0,0,.1152.1152h3.3418a.4923.4923,0,0,1,.3506.14.46.46,0,0,1,.1465.3447.5018.5018,0,0,1-.4971.498H179.75a.1013.1013,0,0,0-.1152.1143v.3193a.1013.1013,0,0,0,.1152.1143Zm-7.31,2.6533v.3574a.1017.1017,0,0,0,.1153.1143h5.1152c.0674,0,.1016-.0381.1016-.1143v-.3574a.09.09,0,0,0-.1016-.1015h-5.1152C176.8291,33.823,176.79,33.8571,176.79,33.9245Zm0,1.4414v.3447a.1017.1017,0,0,0,.1153.1143h5.1152c.0674,0,.1016-.0381.1016-.1143v-.3447c0-.0762-.0342-.1142-.1016-.1142h-5.1152A.1017.1017,0,0,0,176.79,35.3659Zm0,1.4287v.3575a.1017.1017,0,0,0,.1153.1142h5.1152c.0674,0,.1016-.0381.1016-.1142v-.3575c0-.0761-.0342-.1142-.1016-.1142h-5.1152A.1017.1017,0,0,0,176.79,36.7946Z"/><path d="M137.1846,51.19a.342.342,0,0,1-.5616-.2675v-.0772a1.4243,1.4243,0,0,1,.5616-1.1728l1.4414-1.1612a1.96,1.96,0,0,1,1.25-.4336.6969.6969,0,0,1,.7011.7012v7.9092a.7017.7017,0,1,1-1.4033,0V49.6208a.0114.0114,0,0,0-.0127-.0127l-.0254.0127Z"/><path d="M144.0088,55.3483a.5651.5651,0,0,1-.5615-.5605,1.7527,1.7527,0,0,1,.3183-1.02l3.56-5.1279a1.2356,1.2356,0,0,1,1.084-.5616.697.697,0,0,1,.6885.6885v5.3574c0,.0684.039.1026.1152.1026h.8164a.561.561,0,0,1,0,1.122h-.8164a.1024.1024,0,0,0-.1152.1153v1.2373a.6885.6885,0,0,1-1.377,0V55.4636a.102.102,0,0,0-.1152-.1153Zm.8545-1.16c0,.0078-.002.0127-.0069.0127s-.0058.0039-.0058.0127.0039.0127.0127.0127h2.7422c.0771,0,.1152-.0342.1152-.1026V50.1189a.0114.0114,0,0,0-.0127-.0127c-.0176,0-.0254.0039-.0254.0127Z"/><path d="M153.7031,52.4147a.74.74,0,0,1-.7275-.7265v-.46a.7406.7406,0,0,1,.7275-.7265h.2041a.7407.7407,0,0,1,.7266.7265v.46a.74.74,0,0,1-.7266.7265Zm0,4.9747a.7406.7406,0,0,1-.7275-.7266v-.46a.7406.7406,0,0,1,.7275-.7265h.2041a.7407.7407,0,0,1,.7266.7265v.46a.7406.7406,0,0,1-.7266.7266Z"/><path d="M162.7334,49.6208l-2.3213,2.2578a.0372.0372,0,0,0-.0127.0264.0114.0114,0,0,0,.0127.0127h.2422a2.6784,2.6784,0,0,1,1.9258.6562,2.4767,2.4767,0,0,1,.6894,1.8819,2.8931,2.8931,0,0,1-.8867,2.2578,3.5794,3.5794,0,0,1-2.4941.8037,6.8509,6.8509,0,0,1-1.7979-.2422.811.811,0,0,1-.4531-.3125.8923.8923,0,0,1-.1719-.542.4019.4019,0,0,1,.1973-.3574.45.45,0,0,1,.415-.0508,5.504,5.504,0,0,0,1.8106.3565,2.0234,2.0234,0,0,0,1.4609-.4971,1.8738,1.8738,0,0,0,.5166-1.416,1.2981,1.2981,0,0,0-.5547-1.1543,3.3085,3.3085,0,0,0-1.8047-.376h-.3574a.5455.5455,0,0,1-.5361-.5361,1.1846,1.1846,0,0,1,.3828-.9053l2.3467-2.22a.0387.0387,0,0,0,.0136-.0254c0-.0088-.0048-.0127-.0136-.0127h-3.3672a.5743.5743,0,1,1,0-1.1485h4.5918a.5671.5671,0,0,1,.5742.5743A1.2691,1.2691,0,0,1,162.7334,49.6208Z"/><path d="M170.77,49.6208l-2.3213,2.2578a.0376.0376,0,0,0-.0127.0264.0114.0114,0,0,0,.0127.0127h.2422a2.6784,2.6784,0,0,1,1.9258.6562,2.4764,2.4764,0,0,1,.69,1.8819,2.8928,2.8928,0,0,1-.8868,2.2578,3.5792,3.5792,0,0,1-2.4941.8037,6.85,6.85,0,0,1-1.7978-.2422.8112.8112,0,0,1-.4532-.3125.8922.8922,0,0,1-.1718-.542.402.402,0,0,1,.1972-.3574.45.45,0,0,1,.4151-.0508,5.5035,5.5035,0,0,0,1.8105.3565,2.0234,2.0234,0,0,0,1.4609-.4971,1.8735,1.8735,0,0,0,.5166-1.416,1.298,1.298,0,0,0-.5546-1.1543,3.3087,3.3087,0,0,0-1.8047-.376h-.3575a.5455.5455,0,0,1-.5361-.5361,1.1846,1.1846,0,0,1,.3828-.9053l2.3467-2.22a.0389.0389,0,0,0,.0137-.0254c0-.0088-.0049-.0127-.0137-.0127h-3.3672a.5743.5743,0,1,1,0-1.1485h4.5918a.5671.5671,0,0,1,.5742.5743A1.2691,1.2691,0,0,1,170.77,49.6208Z"/><path d="M181.23,52.5173c-.0762,0-.1152.0332-.1152.1016v1.2753a.102.102,0,0,0,.1152.1153h2.6025a.5737.5737,0,1,1,0,1.1474H181.23a.1024.1024,0,0,0-.1152.1153V56.905c0,.1787.041.2871.122.3252a2.61,2.61,0,0,0,.7461.0576,1.6833,1.6833,0,0,0,.86-.1338q.1728-.1347.2236-.7978a.6739.6739,0,0,1,.2168-.4463.5659.5659,0,0,1,.459-.1534.6578.6578,0,0,1,.459.2364.6835.6835,0,0,1,.166.4912c-.0166.3232-.04.582-.07.7783a1.4642,1.4642,0,0,1-.1778.5225,1.32,1.32,0,0,1-.2617.3379,1.057,1.057,0,0,1-.4658.1728,4.6338,4.6338,0,0,1-.6572.0762c-.2119.0088-.5274.0127-.9434.0127a8.5482,8.5482,0,0,1-1.3711-.0762.8235.8235,0,0,1-.5429-.2617,1.1311,1.1311,0,0,1-.127-.6192V55.2722a.102.102,0,0,0-.1152-.1153h-1.8623a.1244.1244,0,0,0-.127.1153,4.34,4.34,0,0,1-3.3682,3.1377.6224.6224,0,0,1-.4912-.0508.7309.7309,0,0,1-.3379-.3828.5319.5319,0,0,1,.0254-.4532.5882.5882,0,0,1,.3575-.3,3.382,3.382,0,0,0,2.373-1.9765c.0166-.06-.0088-.09-.0771-.09h-2.2452a.5737.5737,0,1,1,0-1.1474h2.4366c.0683,0,.1025-.0381.1025-.1153,0-.0166.002-.0507.0059-.1015s.0068-.085.0068-.1026V52.6189c0-.0684-.0391-.1016-.1152-.1016h-.4844a.5176.5176,0,0,1-.4981-.3193c-.0341-.0684-.0761-.0811-.1269-.0381q-.5493.3573-1.2119.7265a.5583.5583,0,0,1-.4717.045.5988.5988,0,0,1-.3574-.3125.6516.6516,0,0,1-.0381-.4913.6231.6231,0,0,1,.3056-.3759q1.0079-.548,1.5948-.9444a.0579.0579,0,0,0,.0381-.0634.1038.1038,0,0,0-.0254-.0762q-1.1354-1.0211-1.1739-1.06a.5389.5389,0,0,1-.1972-.4082.5513.5513,0,0,1,.1719-.4209.693.693,0,0,1,.4462-.1914.6582.6582,0,0,1,.459.1533q.2432.205,1.2891,1.1612a.135.135,0,0,0,.166.0126,9.2125,9.2125,0,0,0,1.3643-1.4287.0424.0424,0,0,0,.0068-.0576.0639.0639,0,0,0-.0576-.0312h-2.2959a.55.55,0,0,1-.3955-.16.5188.5188,0,0,1-.166-.3887.5668.5668,0,0,1,.5615-.5615h3.5332a1.2055,1.2055,0,0,1,1.084.625,8.3415,8.3415,0,0,0,.5488.7783.0807.0807,0,0,0,.1406.0127q.4337-.4848.8164-.97a.6172.6172,0,0,1,.3946-.248.6509.6509,0,0,1,.46.082.5574.5574,0,0,1,.2608.37.5168.5168,0,0,1-.0948.4209q-.5112.65-1.02,1.1992a.0951.0951,0,0,0,0,.1533q.293.2682.7139.6124a.107.107,0,0,0,.1533,0q.42-.4468.9688-1.1612a.6241.6241,0,0,1,.4023-.248.6578.6578,0,0,1,.4658.082.5593.5593,0,0,1,.2608.377.5266.5266,0,0,1-.0948.4267q-.4467.5625-1.0341,1.1992a.0886.0886,0,0,0-.0186.0772.0681.0681,0,0,0,.0449.0635q.74.4584,1.0332.6123a.6544.6544,0,0,1,.3125.3759.6416.6416,0,0,1-.0322.4913.5774.5774,0,0,1-.37.3193.6039.6039,0,0,1-.4844-.0518q-.4467-.2548-1.1611-.7265c-.06-.0342-.1065-.0176-.14.0507a.5194.5194,0,0,1-.498.3067Zm-4.8857-1.1231h5.0009a.04.04,0,0,0,.0381-.0253.0258.0258,0,0,0-.0127-.0381,12.5993,12.5993,0,0,1-2.4746-2.6026c-.0342-.0508-.0723-.0468-.1152.0127a12.49,12.49,0,0,1-2.4619,2.59.0252.0252,0,0,0-.0127.0381A.04.04,0,0,0,176.3438,51.3942Zm3.4062,2.5V52.6189c0-.0684-.0381-.1016-.1152-.1016h-1.7217c-.0772,0-.1152.0332-.1152.1016v1.2753a.1016.1016,0,0,0,.1152.1153h1.7217A.1016.1016,0,0,0,179.75,53.8942Z"/><path d="M138.2305,76.0456a.0372.0372,0,0,0-.0127.0264.0114.0114,0,0,0,.0127.0127h3.3672a.5737.5737,0,1,1,0,1.1474h-4.72a.5669.5669,0,0,1-.5742-.5742,1.1613,1.1613,0,0,1,.4463-.9307,19.272,19.272,0,0,0,3.1445-2.9785,3.6134,3.6134,0,0,0,.8233-2.1494q0-1.6332-1.7354-1.6328a4.8036,4.8036,0,0,0-1.8877.4463.4338.4338,0,0,1-.4082-.0254.377.377,0,0,1-.1914-.3447,1.0316,1.0316,0,0,1,.166-.5733.8152.8152,0,0,1,.459-.3447,6.7039,6.7039,0,0,1,2.0537-.332,3.1931,3.1931,0,0,1,2.2139.708,2.5214,2.5214,0,0,1,.7842,1.9707,4.32,4.32,0,0,1-.8106,2.456A17.3493,17.3493,0,0,1,138.2305,76.0456Z"/><path d="M145.2207,71.0329a.342.342,0,0,1-.5615-.2676v-.0771a1.4245,1.4245,0,0,1,.5615-1.1729l1.4414-1.1611a1.96,1.96,0,0,1,1.25-.4336.6969.6969,0,0,1,.7012.7012V76.531a.7017.7017,0,1,1-1.4033,0V69.4636a.0114.0114,0,0,0-.0127-.0127l-.0254.0127Z"/><path d="M153.7031,72.2575a.7406.7406,0,0,1-.7275-.7265v-.46a.7406.7406,0,0,1,.7275-.7266h.2041a.7406.7406,0,0,1,.7266.7266v.46a.7407.7407,0,0,1-.7266.7265Zm0,4.9746a.7406.7406,0,0,1-.7275-.7265v-.46a.7406.7406,0,0,1,.7275-.7266h.2041a.7406.7406,0,0,1,.7266.7266v.46a.7407.7407,0,0,1-.7266.7265Z"/><path d="M162.9189,76.2243a3.506,3.506,0,0,1-5.1669,0,6.0987,6.0987,0,0,1-.86-3.6474,6.1007,6.1007,0,0,1,.86-3.6485,3.5062,3.5062,0,0,1,5.1669,0,6.1007,6.1007,0,0,1,.86,3.6485A6.0987,6.0987,0,0,1,162.9189,76.2243Zm-1.0459-6.4736a1.8323,1.8323,0,0,0-3.0742,0,5.783,5.783,0,0,0-.5039,2.8262,5.779,5.779,0,0,0,.5039,2.8252,1.8324,1.8324,0,0,0,3.0742,0,5.8032,5.8032,0,0,0,.503-2.8252A5.8072,5.8072,0,0,0,161.873,69.7507Z"/><path d="M167.3643,76.0456a.0372.0372,0,0,0-.0127.0264.0114.0114,0,0,0,.0127.0127h3.3671a.5737.5737,0,1,1,0,1.1474h-4.72a.5669.5669,0,0,1-.5742-.5742,1.1613,1.1613,0,0,1,.4463-.9307,19.2763,19.2763,0,0,0,3.1445-2.9785,3.614,3.614,0,0,0,.8233-2.1494q0-1.6332-1.7354-1.6328a4.8036,4.8036,0,0,0-1.8877.4463.4338.4338,0,0,1-.4082-.0254.377.377,0,0,1-.1914-.3447,1.0316,1.0316,0,0,1,.166-.5733.8152.8152,0,0,1,.459-.3447,6.7039,6.7039,0,0,1,2.0537-.332,3.1933,3.1933,0,0,1,2.2139.708,2.5217,2.5217,0,0,1,.7842,1.9707,4.32,4.32,0,0,1-.8106,2.456A17.3493,17.3493,0,0,1,167.3643,76.0456Z"/><path d="M184.1,70.9567a.4837.4837,0,0,1,.3633.1524.5092.5092,0,0,1,0,.7148.4845.4845,0,0,1-.3633.1533h-7.0928a.12.12,0,0,0-.1269.1016c-.0088.0342-.0235.085-.0449.1533s-.0362.1192-.045.1534c-.0166.0673.0088.1015.0772.1015h5.9316a.707.707,0,0,1,.51.211.6756.6756,0,0,1,.2168.5039v4.5156a.6826.6826,0,0,1-.2041.49.6654.6654,0,0,1-.4971.211h-.2549a.4572.4572,0,0,1-.4472-.4463.0556.0556,0,0,0-.0635-.0635h-5.1914c-.0508,0-.0772.02-.0772.0635a.44.44,0,0,1-.1269.3125.41.41,0,0,1-.3067.1338h-.2421a.674.674,0,0,1-.6885-.6885v-2.666c0-.0176-.0069-.0254-.02-.0254a.04.04,0,0,0-.0312.0127,7.48,7.48,0,0,1-1.4414,1.7724.5145.5145,0,0,1-.46.1338.5743.5743,0,0,1-.4082-.2607.7638.7638,0,0,1-.1142-.5235.7441.7441,0,0,1,.2549-.4716,7.827,7.827,0,0,0,2.3339-3.6231c.0176-.0674-.0078-.1016-.0761-.1016h-1.9522a.4845.4845,0,0,1-.3633-.1533.5095.5095,0,0,1,0-.7148.4837.4837,0,0,1,.3633-.1524H178.13c.0683,0,.1015-.038.1015-.1152v-.3184c0-.0771-.0332-.1152-.1015-.1152h-3.61a.5.5,0,0,1-.497-.4971.4585.4585,0,0,1,.1464-.3447.4894.4894,0,0,1,.3506-.1406h3.61c.0683,0,.1015-.0381.1015-.1143v-.3193c0-.0762-.0332-.1143-.1015-.1143h-4.2227a.5234.5234,0,0,1-.5224-.5234.5231.5231,0,0,1,.1533-.376.4918.4918,0,0,1,.3691-.16h2.1436a.0621.0621,0,0,0,.0576-.0313.0435.0435,0,0,0-.0068-.0576.2778.2778,0,0,1-.0508-.083.3162.3162,0,0,0-.0508-.083.47.47,0,0,1-.0391-.4395.4616.4616,0,0,1,.3321-.3.809.809,0,0,1,.5488.0127.819.819,0,0,1,.4209.3565l.3057.5361a.1651.1651,0,0,0,.1533.0889h2.2324a.1964.1964,0,0,0,.166-.0889c.0332-.06.1231-.2207.2676-.4844a.8919.8919,0,0,1,.4082-.3828.8248.8248,0,0,1,.5488-.0644.52.52,0,0,1,.3633.3.49.49,0,0,1-.0195.4658.8767.8767,0,0,1-.0508.083.7966.7966,0,0,0-.0508.083.0569.0569,0,0,0,.0059.0576.0621.0621,0,0,0,.0576.0313h2.0537a.4955.4955,0,0,1,.37.16.5272.5272,0,0,1,.1533.376.5234.5234,0,0,1-.5234.5234H179.75a.1013.1013,0,0,0-.1152.1143v.3193a.1013.1013,0,0,0,.1152.1143h3.3418a.4894.4894,0,0,1,.3506.1406.4586.4586,0,0,1,.1465.3447.5.5,0,0,1-.4971.4971H179.75a.1016.1016,0,0,0-.1152.1152v.3184a.1015.1015,0,0,0,.1152.1152ZM176.79,73.61v.3564a.102.102,0,0,0,.1153.1152h5.1152c.0674,0,.1016-.038.1016-.1152V73.61a.09.09,0,0,0-.1016-.1026h-5.1152C176.8291,73.5075,176.79,73.5417,176.79,73.61Zm0,1.4414v.3437a.102.102,0,0,0,.1153.1153h5.1152c.0674,0,.1016-.0381.1016-.1153v-.3437c0-.0772-.0342-.1153-.1016-.1153h-5.1152A.102.102,0,0,0,176.79,75.0515Zm0,1.4287v.3564a.102.102,0,0,0,.1153.1153h5.1152c.0674,0,.1016-.0381.1016-.1153V76.48c0-.0772-.0342-.1153-.1016-.1153h-5.1152A.102.102,0,0,0,176.79,76.48Z"/></svg>