<svg xmlns="http://www.w3.org/2000/svg" viewBox="0 0 195.0403 58.5759"><defs><style>.a{fill:#59b7ad;}.b{fill:#fff;stroke:#59b7ad;stroke-miterlimit:10;stroke-width:1.0951px;}.c{fill:none;}</style></defs><path d="M.7821,34.6013a.4091.4091,0,0,1-.4278.1084.42.42,0,0,1-.3125-.3252,1.0024,1.0024,0,0,1,.0127-.6123,1.08,1.08,0,0,1,.3574-.5108,10.3476,10.3476,0,0,0,2.0918-2.334.6041.6041,0,0,1,.3829-.2734.5935.5935,0,0,1,.4589.07.66.66,0,0,1,.2871.3819.5636.5636,0,0,1-.0576.46A11.6,11.6,0,0,1,2.67,32.8415a.26.26,0,0,0-.0772.1914v5a.6537.6537,0,0,1-.6631.6631.6627.6627,0,0,1-.4785-.1914.63.63,0,0,1-.1973-.4717V34.2185a.0418.0418,0,0,0-.0253-.0381q-.0264-.0132-.0381,0A4.036,4.036,0,0,1,.7821,34.6013ZM.5653,29.3454A9.4727,9.4727,0,0,0,2.491,27.5983a.7075.7075,0,0,1,.4209-.2548.6528.6528,0,0,1,.4717.0761.5242.5242,0,0,1,.2617.3633.5074.5074,0,0,1-.1084.4277A10.8085,10.8085,0,0,1,1.075,30.4685a.5177.5177,0,0,1-.44.0576.5216.5216,0,0,1-.3379-.2871.7141.7141,0,0,1-.0254-.4971A.6917.6917,0,0,1,.5653,29.3454ZM11.2547,37.14a.596.596,0,0,1,.4209,1.0078.5757.5757,0,0,1-.4209.1651H3.7918a.5788.5788,0,0,1-.414-.1651.5614.5614,0,0,1-.1729-.4218.5541.5541,0,0,1,.1729-.42.5715.5715,0,0,1,.414-.1661H6.79a.1016.1016,0,0,0,.1142-.1152V34.3718a.1006.1006,0,0,0-.1142-.1143H4.4168a.5742.5742,0,1,1,0-1.1484H6.79c.0761,0,.1142-.0342.1142-.1016V30.8259c0-.0684-.0381-.1016-.1142-.1016H4.1492a.5849.5849,0,0,1-.4277-.1728.5667.5667,0,0,1-.1719-.4151.6124.6124,0,0,1,.6-.6h6.9522a.5666.5666,0,0,1,.4141.1729.6077.6077,0,0,1,.0068.8418.562.562,0,0,1-.4209.1728H8.3846c-.0771,0-.1152.0332-.1152.1016v2.1816c0,.0674.0381.1016.1152.1016h2.2578a.5315.5315,0,0,1,.4014.166.6029.6029,0,0,1,0,.8164.5347.5347,0,0,1-.4014.166H8.3846a.1009.1009,0,0,0-.1152.1143v2.6533a.1019.1019,0,0,0,.1152.1152Zm-2.36-7.9345a19.8923,19.8923,0,0,0-3.0108-.8936.5034.5034,0,0,1-.3564-.2607.5309.5309,0,0,1-.0391-.4405.713.713,0,0,1,.3125-.3886.6486.6486,0,0,1,.4785-.083,21.18,21.18,0,0,1,3.0616.9189.5867.5867,0,0,1,.3447.79.5831.5831,0,0,1-.3194.3448A.6036.6036,0,0,1,8.8944,29.2058Z"/><path d="M12.81,38.1091v-.0635a.5358.5358,0,0,1,.0762-.3955.5188.5188,0,0,1,.3193-.23.0928.0928,0,0,0,.0762-.0889v-4.35a.5888.5888,0,0,1,.6-.6.59.59,0,0,1,.4336.1778.5769.5769,0,0,1,.1787.4218v3.9785c0,.0684.0342.0938.1025.0772l.3828-.1143q.1143-.0511.1143-.1406V31.82c0-.0761-.0342-.1142-.1016-.1142H13.8055a.7186.7186,0,0,1-.7148-.7139V28.2233a.7184.7184,0,0,1,.7148-.7138H17.02a.71.71,0,0,1,.51.21.6789.6789,0,0,1,.2168.5039v1.5694a.0282.0282,0,0,0,.02.0312c.0127.0049.0274-.0019.044-.0185a11.6638,11.6638,0,0,0,1.48-2.2071.84.84,0,0,1,.3759-.3828.7818.7818,0,0,1,.5166-.0761.51.51,0,0,1,.3575.2607.4764.4764,0,0,1,.0253.4277,1.4039,1.4039,0,0,1-.09.2168c-.0254.0606-.0078.09.0518.09H23.576a.5678.5678,0,0,1,.5488.5488,1.8822,1.8822,0,0,1-.2929,1.0078,10.49,10.49,0,0,1-1.6709,1.9766c-.0518.0508-.0469.0937.0127.1269a10.8606,10.8606,0,0,0,1.9892,1.0977.7333.7333,0,0,1,.37.3379.71.71,0,0,1,.0762.4912.4818.4818,0,0,1-.2422.3506.4451.4451,0,0,1-.4209.0312c-.0508-.0156-.0761,0-.0761.0518v3.7764a.6286.6286,0,0,1-.1983.4707.6563.6563,0,0,1-.4775.1914h-.1153a.5436.5436,0,0,1-.5488-.5479.0783.0783,0,0,0-.0889-.0889H19.6473a.0783.0783,0,0,0-.0889.0889.542.542,0,0,1-.5488.5479H18.908a.6519.6519,0,0,1-.65-.65V34.1169q0-.0894-.1025-.0645c-.0088,0-.0127.002-.0127.0069s-.0049.0068-.0127.0068a.4935.4935,0,0,1-.415-.0068.4769.4769,0,0,1-.2735-.3125c-.0175-.0674-.0556-.085-.1152-.0508a.567.567,0,0,1-.2549.0508h-.5869a.1016.1016,0,0,0-.1152.1142v2.5c0,.0684.0342.0938.1025.0772.2207-.0674.4678-.1533.7393-.2549a.4247.4247,0,0,1,.3955.0449.4423.4423,0,0,1,.2168.3379.7275.7275,0,0,1-.1016.4649.7083.7083,0,0,1-.37.3007q-2.1563.7515-3.8906,1.1993a.4832.4832,0,0,1-.4141-.0645A.5077.5077,0,0,1,12.81,38.1091Zm1.6963-7.4746h1.8877c.0683,0,.1025-.0391.1025-.1153V28.72a.09.09,0,0,0-.1025-.1015H14.5067c-.0762,0-.1143.0341-.1143.1015v1.7988A.1017.1017,0,0,0,14.5067,30.6345Zm3.24.3574a.6787.6787,0,0,1-.2168.5039.71.71,0,0,1-.51.21h-.5361a.1016.1016,0,0,0-.1152.1142v.6768c0,.0674.039.1025.1152.1025h.5869a.5326.5326,0,0,1,.5225.3565.0649.0649,0,0,0,.0517.0322.0689.0689,0,0,0,.0635-.02.6126.6126,0,0,1,.166-.0889A11.12,11.12,0,0,0,20.12,31.7439a.0667.0667,0,0,0,.0439-.0635.0886.0886,0,0,0-.0186-.0772,11.7821,11.7821,0,0,1-1.0459-1.1347.086.086,0,0,0-.1279-.0127q-.0762.1025-.28.331a.5831.5831,0,0,1-.4277.2051.6247.6247,0,0,1-.4531-.1533c-.042-.042-.0635-.03-.0635.0381Zm5.332,2.7168a11.2833,11.2833,0,0,1-1.85-1.1611.1425.1425,0,0,0-.1787,0,14.1063,14.1063,0,0,1-2.0664,1.1611c-.0088.0176-.0088.0293,0,.0381h4.082c.0166,0,.0254-.0049.0254-.0127A.0353.0353,0,0,0,23.0789,33.7087Zm-.5488,3.06V34.946a.1006.1006,0,0,0-.1142-.1143H19.6727a.1007.1007,0,0,0-.1143.1143v1.8232a.1013.1013,0,0,0,.1143.1153h2.7432A.1013.1013,0,0,0,22.53,36.7692Zm-2.73-7.4863a.0773.0773,0,0,0,0,.1016,10.5308,10.5308,0,0,0,1.2627,1.4922.0963.0963,0,0,0,.1533,0A9.0915,9.0915,0,0,0,22.53,29.32a.0411.0411,0,0,0,.0068-.0566.0628.0628,0,0,0-.0576-.0322H19.9032A.1194.1194,0,0,0,19.8006,29.2829Z"/><path d="M.82,53.87a.4186.4186,0,0,1-.4277.1143A.4073.4073,0,0,1,.08,53.6657a1.0234,1.0234,0,0,1,.0127-.6191,1.1079,1.1079,0,0,1,.3447-.5156,10.56,10.56,0,0,0,2.1045-2.335.5719.5719,0,0,1,.6885-.2686.1577.1577,0,0,0,.1787-.0507,12.1145,12.1145,0,0,0,1.3526-2.5635.8129.8129,0,0,1,.3251-.3955.7058.7058,0,0,1,.4913-.1016.5225.5225,0,0,1,.3759.2481.5157.5157,0,0,1,.0577.4531.05.05,0,0,0-.0127.0381.0543.0543,0,0,1-.0127.0381c-.0176.0683.0039.1025.0634.1025h5.0518a.5651.5651,0,0,1,.5615.5615.52.52,0,0,1-.166.3887.5511.5511,0,0,1-.3955.1592H5.6034a.1494.1494,0,0,0-.1534.1025c-.0254.043-.0595.1084-.1015.1973s-.0772.1553-.1026.1972c-.0342.0518-.0127.0772.0645.0772h5.2422a.7406.7406,0,0,1,.7275.7275v2.6016a.7422.7422,0,0,1-.7275.7275H7.16a.1243.1243,0,0,0-.1279.1143.3313.3313,0,0,1-.0762.166.3427.3427,0,0,1-.0645.0762.4017.4017,0,0,0-.0634.0771c-.0176.0342-.0039.06.038.0762H10.54a.5018.5018,0,0,1,.497.4971,1.2038,1.2038,0,0,1-.3183.8681,6.9879,6.9879,0,0,1-1.544,1.25.0463.0463,0,0,0-.0254.044.0457.0457,0,0,0,.0254.0449,18.7738,18.7738,0,0,0,2.1436.6.483.483,0,0,1,.3379.2559.54.54,0,0,1,.0449.42.6223.6223,0,0,1-.2871.3516.6309.6309,0,0,1-.4531.07,16.4969,16.4969,0,0,1-3.0489-1.0332.2829.2829,0,0,0-.2041,0A18.7149,18.7149,0,0,1,4.06,58.3728a.6974.6974,0,0,1-.4785-.07.6547.6547,0,0,1-.3125-.3632.4217.4217,0,0,1,.0254-.4024.46.46,0,0,1,.331-.2363,17.9272,17.9272,0,0,0,2.8828-.6758c.0518-.0166.0469-.0469-.0127-.0889a9.882,9.882,0,0,1-1.3134-1.02.1168.1168,0,0,0-.1661-.0127c-.2382.1612-.4638.3106-.6757.4463a.6158.6158,0,0,1-.4659.07.6606.6606,0,0,1-.4013-.2744.5073.5073,0,0,1-.07-.4209.52.52,0,0,1,.2617-.3437,8.41,8.41,0,0,0,1.8877-1.4678.0516.0516,0,0,0,.0185-.0508.03.03,0,0,0-.0312-.0254H4.9784a.7441.7441,0,0,1-.7276-.7275V51.0124a.03.03,0,0,0-.0185-.0322C4.22,50.9763,4.2088,50.9821,4.2,51a.31.31,0,0,0-.0312.0381c-.0137.0166-.0244.03-.0322.0381a.6.6,0,0,1-.7022.2168.1287.1287,0,0,0-.1523.0508q-.3193.4482-.6123.791a.2776.2776,0,0,0-.0772.2051v5.5488a.6535.6535,0,0,1-.65.65.6535.6535,0,0,1-.65-.65V53.487a.0413.0413,0,0,0-.0322-.0381c-.02-.0078-.0361-.0078-.0439,0Q.8963,53.8064.82,53.87Zm1.709-6.62a.7068.7068,0,0,1,.4151-.2558.6388.6388,0,0,1,.4648.0771.5179.5179,0,0,1,.2617.3633.5.5,0,0,1-.1084.4267,10.5076,10.5076,0,0,1-2.4492,2.2579.5123.5123,0,0,1-.4394.0585A.5205.5205,0,0,1,.3348,49.89a.7465.7465,0,0,1-.0313-.498.6623.6623,0,0,1,.2872-.3955A9.3911,9.3911,0,0,0,2.5291,47.25ZM5.54,50.4255v.4082c0,.0762.0332.1152.1015.1152H9.826a.1017.1017,0,0,0,.1143-.1152v-.4082A.1017.1017,0,0,0,9.826,50.31H5.6414C5.5731,50.31,5.54,50.3493,5.54,50.4255Zm0,1.4922v.4844c0,.0771.0332.1152.1015.1152H9.826a.1013.1013,0,0,0,.1143-.1152v-.4844a.101.101,0,0,0-.1143-.1143H5.6414C5.5731,51.8034,5.54,51.8415,5.54,51.9177ZM9.366,54.9411H6.3045a.0419.0419,0,0,0-.0381.0254.0522.0522,0,0,0,0,.0508A7.0724,7.0724,0,0,0,7.76,56.0388a.171.171,0,0,0,.1777,0,5.8577,5.8577,0,0,0,1.4541-1.0215.0417.0417,0,0,0,.0137-.0508A.0422.0422,0,0,0,9.366,54.9411Z"/><path d="M12.81,57.9509v-.0625a.5383.5383,0,0,1,.0762-.3965.5135.5135,0,0,1,.3193-.2285c.0508-.0176.0762-.0469.0762-.09v-4.35a.5888.5888,0,0,1,.6-.6.5934.5934,0,0,1,.4336.1778.5785.5785,0,0,1,.1787.4218v3.98c0,.0684.0342.0938.1025.0772l.3828-.1153q.1143-.05.1143-.1406V51.6628c0-.0762-.0342-.1143-.1016-.1143H13.8055a.72.72,0,0,1-.7148-.7148V48.0661a.72.72,0,0,1,.7148-.7148H17.02a.7072.7072,0,0,1,.51.2109.6787.6787,0,0,1,.2168.5039v1.5684a.03.03,0,0,0,.02.0322c.0127.0049.0274-.002.044-.0186a11.6631,11.6631,0,0,0,1.48-2.207.84.84,0,0,1,.3759-.3828.7758.7758,0,0,1,.5166-.0762.507.507,0,0,1,.3575.2608.4743.4743,0,0,1,.0253.4267,1.5064,1.5064,0,0,1-.09.2178c-.0254.06-.0078.0889.0518.0889H23.576a.5678.5678,0,0,1,.5488.5488,1.8772,1.8772,0,0,1-.2929,1.0078A10.4621,10.4621,0,0,1,22.161,51.51c-.0518.0508-.0469.0937.0127.1279a10.92,10.92,0,0,0,1.9892,1.0967.7372.7372,0,0,1,.37.3379.7137.7137,0,0,1,.0762.4922.4819.4819,0,0,1-.2422.35.4453.4453,0,0,1-.4209.0322c-.0508-.0166-.0761,0-.0761.0518v3.7753a.6307.6307,0,0,1-.1983.4717.66.66,0,0,1-.4775.1914h-.1153a.5451.5451,0,0,1-.5488-.5478.0786.0786,0,0,0-.0889-.09H19.6473a.0786.0786,0,0,0-.0889.09.5434.5434,0,0,1-.5488.5478H18.908a.6519.6519,0,0,1-.65-.65V53.9587c0-.0586-.0341-.08-.1025-.0635-.0088,0-.0127.002-.0127.0069s-.0049.0058-.0127.0058a.49.49,0,0,1-.415-.0058.4791.4791,0,0,1-.2735-.3125c-.0175-.0684-.0556-.086-.1152-.0508a.5808.5808,0,0,1-.2549.0508h-.5869a.1012.1012,0,0,0-.1152.1142v2.5c0,.0684.0342.0938.1025.0772.2207-.0684.4678-.1534.7393-.2559a.4272.4272,0,0,1,.3955.0449.4439.4439,0,0,1,.2168.3379.73.73,0,0,1-.1016.4658.7062.7062,0,0,1-.37.3q-2.1563.753-3.8906,1.1993a.4772.4772,0,0,1-.4141-.0645A.5037.5037,0,0,1,12.81,57.9509Zm1.6963-7.4746h1.8877q.1025,0,.1025-.1143V48.5632a.0911.0911,0,0,0-.1025-.1026H14.5067c-.0762,0-.1143.0352-.1143.1026V50.362A.101.101,0,0,0,14.5067,50.4763Zm3.24.3574a.6787.6787,0,0,1-.2168.5039.7072.7072,0,0,1-.51.2109h-.5361a.1017.1017,0,0,0-.1152.1143V52.34c0,.0673.039.1015.1152.1015h.5869a.5322.5322,0,0,1,.5225.3574.0642.0642,0,0,0,.0517.0313.0665.0665,0,0,0,.0635-.02.6124.6124,0,0,1,.166-.0879A11.1716,11.1716,0,0,0,20.12,51.5866a.0686.0686,0,0,0,.0439-.0635.0876.0876,0,0,0-.0186-.0771A11.6743,11.6743,0,0,1,19.0994,50.31a.0867.0867,0,0,0-.1279-.0118c-.0508.0684-.1445.1778-.28.3311a.5786.5786,0,0,1-.4277.2041.624.624,0,0,1-.4531-.1523c-.042-.043-.0635-.03-.0635.0371Zm5.332,2.7168a11.2762,11.2762,0,0,1-1.85-1.16.14.14,0,0,0-.1787,0,14.0215,14.0215,0,0,1-2.0664,1.16c-.0088.0176-.0088.03,0,.0391h4.082c.0166,0,.0254-.0049.0254-.0137A.0371.0371,0,0,0,23.0789,53.5505ZM22.53,56.612V54.7888a.1013.1013,0,0,0-.1142-.1153H19.6727a.1013.1013,0,0,0-.1143.1153V56.612a.1013.1013,0,0,0,.1143.1152h2.7432A.1012.1012,0,0,0,22.53,56.612Zm-2.73-7.4873a.0773.0773,0,0,0,0,.1016,10.4747,10.4747,0,0,0,1.2627,1.4922.0951.0951,0,0,0,.1533,0A9.0471,9.0471,0,0,0,22.53,49.1628a.0423.0423,0,0,0,.0068-.0576.0621.0621,0,0,0-.0576-.0313H19.9032A.1208.1208,0,0,0,19.8006,49.1247Z"/><path d="M110.0321,17.4939a16.9654,16.9654,0,0,0-4.1065-3.9122h13.7617v.9375H108.4549a13.6846,13.6846,0,0,1,2.38,2.4981Zm5.623-12.3477a16.7805,16.7805,0,0,0,4.1065,3.9277H106V8.1364h11.2325a13.6953,13.6953,0,0,1-2.38-2.5Z"/><path class="a" d="M117.4959,32.6315a.3911.3911,0,0,1,0,.6749l-8.2041,4.746a.3992.3992,0,0,1-.59-.35l-.0127-9.48a.3724.3724,0,0,1,.1992-.3438.3563.3563,0,0,1,.3916.0059Z"/><path class="a" d="M116.4119,47.7272a.3546.3546,0,0,1,.3916-.0068.3725.3725,0,0,1,.1983.3438l-.0117,9.4814a.3846.3846,0,0,1-.1983.3486.3455.3455,0,0,1-.3916,0l-8.2041-4.7461a.39.39,0,0,1,0-.6738Z"/><rect class="b" x="31.1995" y="0.5476" width="68" height="20"/><path d="M47.201,11.4939a.5465.5465,0,0,1-.3955-.16.5143.5143,0,0,1-.166-.3887.5651.5651,0,0,1,.5615-.5605h1.0459a.1017.1017,0,0,0,.1143-.1153V5.7146a.7406.7406,0,0,1,.7275-.7266h7.36a.5206.5206,0,0,1,.3886.166.5709.5709,0,0,1,0,.791.52.52,0,0,1-.3886.166H49.8407c-.0762,0-.1143.0332-.1143.1016V6.736c0,.0684.0381.1016.1143.1016H56.13a.46.46,0,0,1,.3447.1465.51.51,0,0,1,0,.7012.4571.4571,0,0,1-.3447.1474h-6.289q-.1143,0-.1143.1026v.5478a.1006.1006,0,0,0,.1143.1143H56.13a.4607.4607,0,0,1,.3447.1474.4923.4923,0,0,1,.14.3506A.4772.4772,0,0,1,56.13,9.58h-6.289a.1017.1017,0,0,0-.1143.1152v.5742a.1017.1017,0,0,0,.1143.1153h7.8457a.5651.5651,0,0,1,.56.5605.5143.5143,0,0,1-.166.3887.5459.5459,0,0,1-.3945.16H52.494c-.0166,0-.0313.0126-.044.038s-.0107.042.0059.0508a9.73,9.73,0,0,0,2.13,1.7735c.0429.0341.0976.0253.166-.0264a10.9482,10.9482,0,0,0,1.1611-1.1856.7178.7178,0,0,1,.4463-.2617.7029.7029,0,0,1,.4971.0957.5269.5269,0,0,1,.2617.377.5024.5024,0,0,1-.1211.4394q-.5361.6123-1.1221,1.16c-.0517.0517-.0468.09.0127.1152a17.6872,17.6872,0,0,0,1.8877.7783.4811.4811,0,0,1,.3.3.5181.5181,0,0,1-.02.4278.7768.7768,0,0,1-.3691.3379.6265.6265,0,0,1-.4854.0195A12.724,12.724,0,0,1,50.9,11.5954a.2213.2213,0,0,0-.1787-.1015h-.8808a.1013.1013,0,0,0-.1143.1152v2.9336c0,.0762.042.1054.127.0888q1.6713-.2168,2.9345-.4462a.5189.5189,0,0,1,.4014.09.469.469,0,0,1,.2109.3438.6185.6185,0,0,1-.1025.4208.5107.5107,0,0,1-.3574.2295,52.6459,52.6459,0,0,1-5.37.74.5678.5678,0,0,1-.4267-.1211.5515.5515,0,0,1-.2109-.39.52.52,0,0,1,.1152-.4013.529.529,0,0,1,.37-.1973c.0928-.01.2314-.0215.4141-.0391s.3213-.0293.415-.038c.0762,0,.1143-.042.1143-.128V11.6091a.1013.1013,0,0,0-.1143-.1152Z"/><path d="M72.9032,15.7282a.5854.5854,0,0,1-.4336-.1211.5452.5452,0,0,1-.2168-.3886.56.56,0,0,1,.1338-.4336.586.586,0,0,1,.4023-.2168q.5859-.0645,1.76-.2168c.0771-.0176.1152-.06.1152-.128V13.0114c0-.0683-.0381-.1015-.1152-.1015H72.9549a.4906.4906,0,0,1-.37-.16.5217.5217,0,0,1-.1533-.376.5217.5217,0,0,1,.5234-.5224h1.5938c.0771,0,.1152-.0342.1152-.1026V11.01a.1016.1016,0,0,0-.1152-.1153H73.286a.7407.7407,0,0,1-.7266-.7265V5.6892a.7406.7406,0,0,1,.7266-.7266h4.0312a.7406.7406,0,0,1,.7266.7266V9.3249c0,.0518.03.0684.09.0518a.65.65,0,0,1,.23-.0391H80.48a.04.04,0,0,0,.0381-.0312c.0088-.0215.0049-.0372-.0127-.045q-.65-.6767-1.3389-1.3008a.5487.5487,0,0,1-.1845-.4023.5641.5641,0,0,1,.1591-.4141.576.576,0,0,1,.4209-.18.6041.6041,0,0,1,.4209.166c.085.0771.2061.1933.3633.3515s.2783.2735.3633.3506c.0518.0508.0977.0557.1406.0127q.65-.7147,1.25-1.5176c.043-.0595.0254-.09-.0508-.09H79.0643a.578.578,0,0,1-.4082-.9824.5614.5614,0,0,1,.4082-.166H82.98a.5669.5669,0,0,1,.5742.5742,1.7759,1.7759,0,0,1-.3183,1.0586A18.6617,18.6617,0,0,1,81.68,8.6872c-.0508.0508-.0469.1016.0127.1533l.3828.4209a.2216.2216,0,0,0,.1787.0762h1.1485a.5653.5653,0,0,1,.5732.5742,2.8543,2.8543,0,0,1-.2041,1.0977,12.7489,12.7489,0,0,1-.8037,1.6064.5622.5622,0,0,1-.376.2744.5491.5491,0,0,1-.4531-.083.6188.6188,0,0,1-.1914-.8291,11.3,11.3,0,0,0,.7275-1.3906.0912.0912,0,0,0-.0068-.0762.06.06,0,0,0-.0566-.0381H81.5653a.1013.1013,0,0,0-.1153.1143v3.5586a3.4688,3.4688,0,0,1-.2041,1.5635q-.2036.2856-1.122.2861c-.4082,0-.7579-.0078-1.0469-.0254a.6225.6225,0,0,1-.4209-.1914.6336.6336,0,0,1-.19-.4336.4941.4941,0,0,1,.1523-.4014.5227.5227,0,0,1,.4082-.1464q.2813.0132.6768.0127c.2207,0,.35-.0274.3886-.0831a1.5471,1.5471,0,0,0,.0576-.581V10.5876a.1013.1013,0,0,0-.1152-.1143H78.3631a.5194.5194,0,0,1-.2422-.0517c-.0595-.0332-.1064-.0166-.1406.0517a.673.673,0,0,1-.6631.4209H76.118a.1013.1013,0,0,0-.1143.1153v.7392q0,.1026.1143.1026h1.4668a.5225.5225,0,1,1,0,1.0449H76.118a.1017.1017,0,0,0-.1143.1152v1.0205a.1193.1193,0,0,0,.0313.0772.0631.0631,0,0,0,.07.0254q.9052-.1407,1.48-.2422a.4349.4349,0,0,1,.37.0957.4655.4655,0,0,1,.1787.35.5585.5585,0,0,1-.1406.4082.6882.6882,0,0,1-.3828.2305Q74.8943,15.4743,72.9032,15.7282Zm.8681-9.541V7.361a.0893.0893,0,0,0,.1016.1016h.6758c.0771,0,.1152-.0332.1152-.1016V6.1872c0-.0683-.0381-.1016-.1152-.1016h-.6758A.0893.0893,0,0,0,73.7713,6.1872Zm.7774,3.6865a.1013.1013,0,0,0,.1152-.1142V8.5349a.1016.1016,0,0,0-.1152-.1153h-.6758c-.0684,0-.1016.0381-.1016.1153V9.76c0,.0761.0332.1142.1016.1142Zm1.455-3.6865V7.361c0,.0684.0381.1016.1143.1016h.6377c.0771,0,.1152-.0332.1152-.1016V6.1872c0-.0683-.0381-.1016-.1152-.1016H76.118C76.0418,6.0856,76.0037,6.1189,76.0037,6.1872Zm0,2.3477V9.76a.101.101,0,0,0,.1143.1142h.6377a.1013.1013,0,0,0,.1152-.1142V8.5349a.1016.1016,0,0,0-.1152-.1153H76.118A.1013.1013,0,0,0,76.0037,8.5349Z"/><path class="c" d="M46.8377,36.54a3.5061,3.5061,0,0,1-5.167,0,6.1,6.1,0,0,1-.86-3.6474,6.1009,6.1009,0,0,1,.86-3.6484,3.5061,3.5061,0,0,1,5.167,0,6.1,6.1,0,0,1,.86,3.6484A6.0987,6.0987,0,0,1,46.8377,36.54Zm-1.0459-6.4736a1.8312,1.8312,0,0,0-3.0742,0,5.7806,5.7806,0,0,0-.5039,2.8262,5.7739,5.7739,0,0,0,.5039,2.8242,1.8312,1.8312,0,0,0,3.0742,0,5.7981,5.7981,0,0,0,.503-2.8242A5.8048,5.8048,0,0,0,45.7918,30.0661Z"/><path d="M51.908,34.486a2.9719,2.9719,0,0,1-2.2451-.8476,3.2348,3.2348,0,0,1-.8164-2.3418,3.0364,3.0364,0,0,1,.918-2.3272,3.453,3.453,0,0,1,2.4619-.8613q3.3809,0,3.3809,4.082a6.9238,6.9238,0,0,1-1.002,4.1651,3.475,3.475,0,0,1-2.9531,1.32,7.7436,7.7436,0,0,1-1.3262-.1279.676.676,0,0,1-.4277-.2618.768.768,0,0,1-.1592-.4775.4126.4126,0,0,1,.1787-.3574.482.482,0,0,1,.4082-.0762,5.7958,5.7958,0,0,0,1.3262.1524,2.2426,2.2426,0,0,0,1.7412-.7207,3.0871,3.0871,0,0,0,.6953-2.0606c0-.0166-.0039-.0254-.0127-.0254h-.0254A2.8938,2.8938,0,0,1,51.908,34.486Zm.3184-5.23a1.9562,1.9562,0,0,0-1.4541.5293,2.0621,2.0621,0,0,0-.5225,1.5117,2.1658,2.1658,0,0,0,.542,1.5693,1.9044,1.9044,0,0,0,1.4346.5615,1.8457,1.8457,0,0,0,1.416-.5742,2.1894,2.1894,0,0,0,.5361-1.5566,2.0132,2.0132,0,0,0-.5546-1.4785A1.8821,1.8821,0,0,0,52.2264,29.2556Z"/><path d="M58.72,32.573a.7424.7424,0,0,1-.7276-.7276v-.459A.7406.7406,0,0,1,58.72,30.66h.2041a.7407.7407,0,0,1,.7265.7265v.459a.7424.7424,0,0,1-.7265.7276Zm0,4.9746a.7406.7406,0,0,1-.7276-.7276v-.459a.7406.7406,0,0,1,.7276-.7265h.2041a.7407.7407,0,0,1,.7265.7265v.459a.7406.7406,0,0,1-.7265.7276Z"/><path d="M67.9354,36.54a3.5061,3.5061,0,0,1-5.167,0,6.0987,6.0987,0,0,1-.86-3.6474,6.1,6.1,0,0,1,.86-3.6484,3.5061,3.5061,0,0,1,5.167,0,6.1009,6.1009,0,0,1,.86,3.6484A6.1,6.1,0,0,1,67.9354,36.54ZM66.89,30.0661a1.8312,1.8312,0,0,0-3.0742,0,5.7806,5.7806,0,0,0-.5039,2.8262,5.7739,5.7739,0,0,0,.5039,2.8242,1.8312,1.8312,0,0,0,3.0742,0,5.8,5.8,0,0,0,.5029-2.8242A5.8062,5.8062,0,0,0,66.89,30.0661Z"/><path d="M71.1942,37.445a.7649.7649,0,0,1-.4463-.3183.9435.9435,0,0,1-.166-.5489.3882.3882,0,0,1,.1972-.3506.46.46,0,0,1,.4151-.0439,5.175,5.175,0,0,0,1.6836.3438,1.8892,1.8892,0,0,0,2.1689-2.1045q0-1.7741-1.6582-1.7735a2.322,2.322,0,0,0-1.0469.23,2.7218,2.7218,0,0,1-1.084.332.5672.5672,0,0,1-.4267-.1787.5435.5435,0,0,1-.16-.4209l.1914-3.6484a.7915.7915,0,0,1,.2422-.5166.7274.7274,0,0,1,.5235-.21H75.493a.5743.5743,0,1,1,0,1.1485H72.2782c-.0684,0-.1016.0371-.1016.1142l-.1279,2.4229c0,.01.0088.0137.0254.0137l.0253-.0137a3.2651,3.2651,0,0,1,1.544-.3692,2.7694,2.7694,0,0,1,2.0664.752,2.8937,2.8937,0,0,1,.7393,2.1182,3.117,3.117,0,0,1-.9053,2.43,3.8391,3.8391,0,0,1-2.666.8233A6.0859,6.0859,0,0,1,71.1942,37.445Z"/><path d="M86.2459,32.6755c-.0761,0-.1152.0332-.1152.1016v1.2753a.1024.1024,0,0,0,.1152.1153h2.6026a.578.578,0,0,1,.4082.9824.5607.5607,0,0,1-.4082.165H86.2459a.1017.1017,0,0,0-.1152.1143v1.6328c0,.18.041.2871.1221.3262a2.6268,2.6268,0,0,0,.7461.0566,1.6864,1.6864,0,0,0,.86-.1328q.1728-.1347.2236-.7978a.6739.6739,0,0,1,.2168-.4463.566.566,0,0,1,.459-.1534.6573.6573,0,0,1,.459.2354.686.686,0,0,1,.166.4922c-.0166.3223-.04.582-.07.7773a1.4713,1.4713,0,0,1-.1777.5235,1.3425,1.3425,0,0,1-.2617.3379,1.0583,1.0583,0,0,1-.4659.1718,4.496,4.496,0,0,1-.6572.0772c-.2119.0088-.5273.0127-.9433.0127a8.5474,8.5474,0,0,1-1.3711-.0762.8238.8238,0,0,1-.543-.2617,1.1311,1.1311,0,0,1-.127-.6192V35.4294a.1013.1013,0,0,0-.1152-.1143H82.7889a.1235.1235,0,0,0-.127.1143,4.341,4.341,0,0,1-3.3681,3.1387.6258.6258,0,0,1-.4912-.0508.7334.7334,0,0,1-.3379-.3828.5307.5307,0,0,1,.0254-.4531.5878.5878,0,0,1,.3574-.3,3.3808,3.3808,0,0,0,2.373-1.9775c.0166-.0586-.0088-.0889-.0771-.0889H78.8983a.5653.5653,0,0,1-.5742-.5732.5669.5669,0,0,1,.5742-.5742h2.4365c.0684,0,.1025-.0391.1025-.1153,0-.0175.002-.0507.0059-.1015s.0068-.086.0068-.1026V32.7771c0-.0684-.039-.1016-.1152-.1016H80.85a.5181.5181,0,0,1-.498-.32c-.0342-.0674-.0762-.08-.127-.0371q-.5493.3574-1.2119.7265a.5618.5618,0,0,1-.4717.045.6022.6022,0,0,1-.3574-.3125.6533.6533,0,0,1-.0381-.4913.6208.6208,0,0,1,.3057-.3759q1.0079-.548,1.5947-.9444a.0593.0593,0,0,0,.0381-.0634.1038.1038,0,0,0-.0254-.0762c-.7568-.6817-1.1484-1.0332-1.1738-1.06a.54.54,0,0,1-.1973-.4082.5515.5515,0,0,1,.1719-.4209.6887.6887,0,0,1,.4463-.1914.6586.6586,0,0,1,.459.1533q.2431.2037,1.289,1.1612a.1336.1336,0,0,0,.166.0117,9.16,9.16,0,0,0,1.3643-1.4278.0425.0425,0,0,0,.0068-.0576.0648.0648,0,0,0-.0576-.0322H80.2381a.5492.5492,0,0,1-.3955-.1592.52.52,0,0,1-.166-.39.5669.5669,0,0,1,.5615-.5606h3.5332a1.2055,1.2055,0,0,1,1.084.625,8.3412,8.3412,0,0,0,.5488.7774.0806.0806,0,0,0,.1407.0136q.4335-.4848.8164-.97a.6224.6224,0,0,1,.3945-.249.6517.6517,0,0,1,.46.083.5575.5575,0,0,1,.2607.37.5176.5176,0,0,1-.0947.4209q-.5112.65-1.02,1.1992a.0951.0951,0,0,0,0,.1534c.1953.1777.4336.3828.7138.6113a.1071.1071,0,0,0,.1534,0q.42-.4454.9687-1.16a.6241.6241,0,0,1,.4023-.248.658.658,0,0,1,.4659.082.5575.5575,0,0,1,.2607.377.5279.5279,0,0,1-.0947.4267q-.4468.561-1.0342,1.1992a.0871.0871,0,0,0-.0186.0772.0658.0658,0,0,0,.045.0625q.74.46,1.0332.6133a.6524.6524,0,0,1,.3125.3759.6422.6422,0,0,1-.0323.4913.573.573,0,0,1-.37.3183.6035.6035,0,0,1-.4843-.0508q-.4468-.2549-1.1612-.7265c-.06-.0342-.1064-.0176-.14.0508a.52.52,0,0,1-.4981.3066ZM81.36,31.5524h5.001a.04.04,0,0,0,.038-.0253.0267.0267,0,0,0-.0126-.0391,12.6211,12.6211,0,0,1-2.4747-2.6016c-.0341-.0508-.0722-.0468-.1152.0127a12.4584,12.4584,0,0,1-2.4619,2.5889.0262.0262,0,0,0-.0127.0391A.04.04,0,0,0,81.36,31.5524Zm3.4062,2.5V32.7771c0-.0684-.038-.1016-.1152-.1016H82.93c-.0771,0-.1152.0332-.1152.1016v1.2753a.102.102,0,0,0,.1152.1153h1.7217A.102.102,0,0,0,84.7664,34.0524Z"/><path d="M42.201,51.1911a.3426.3426,0,0,1-.5615-.2685v-.0772a1.4242,1.4242,0,0,1,.5615-1.1728l1.4414-1.1612a1.96,1.96,0,0,1,1.25-.4336.6969.6969,0,0,1,.7012.7012v7.9092a.7017.7017,0,1,1-1.4033,0V49.6208c0-.0078-.0039-.0117-.0127-.0117l-.0254.0117Z"/><path d="M52.3543,57.5173q-3.3809,0-3.3808-4.209a6.5839,6.5839,0,0,1,1.02-4.0254,3.473,3.473,0,0,1,2.9345-1.332,6.3888,6.3888,0,0,1,1.1983.1142.676.676,0,0,1,.4277.2618.7871.7871,0,0,1,.1592.4912.4.4,0,0,1-.1787.3437.4857.4857,0,0,1-.4082.0772,5.2253,5.2253,0,0,0-1.1983-.1407,2.1446,2.1446,0,0,0-1.6523.7207,3.4648,3.4648,0,0,0-.7842,2.06c0,.0176.0039.0264.0127.0264H50.53a2.894,2.894,0,0,1,2.1426-.7656,2.8486,2.8486,0,0,1,3.0615,3.0615,3.2156,3.2156,0,0,1-.918,2.4365A3.41,3.41,0,0,1,52.3543,57.5173Zm0-5.3193a1.8822,1.8822,0,0,0-1.41.5556,1.9805,1.9805,0,0,0-.542,1.4473,2.2274,2.2274,0,0,0,.5488,1.582,1.8359,1.8359,0,0,0,1.4033.586,1.9015,1.9015,0,0,0,1.4541-.5547,2.2646,2.2646,0,0,0,.5225-1.6133,1.975,1.975,0,0,0-.542-1.461A1.94,1.94,0,0,0,52.3543,52.198Z"/><path d="M58.72,52.4157a.7422.7422,0,0,1-.7276-.7275v-.46a.7406.7406,0,0,1,.7276-.7265h.2041a.7407.7407,0,0,1,.7265.7265v.46a.7423.7423,0,0,1-.7265.7275Zm0,4.9746a.7406.7406,0,0,1-.7276-.7275v-.46a.7406.7406,0,0,1,.7276-.7265h.2041a.7407.7407,0,0,1,.7265.7265v.46a.7406.7406,0,0,1-.7265.7275Z"/><path d="M67.75,49.6208l-2.3213,2.2578a.0393.0393,0,0,0-.0126.0264c0,.0088.0039.0127.0126.0127h.2422a2.6784,2.6784,0,0,1,1.9258.6562,2.4778,2.4778,0,0,1,.6895,1.8819,2.8928,2.8928,0,0,1-.8868,2.2578,3.5792,3.5792,0,0,1-2.4941.8037,6.8086,6.8086,0,0,1-1.7978-.2422.8064.8064,0,0,1-.4532-.3125.8922.8922,0,0,1-.1718-.542.402.402,0,0,1,.1972-.3574.45.45,0,0,1,.4151-.0508,5.5039,5.5039,0,0,0,1.8105.3565,2.0234,2.0234,0,0,0,1.4609-.4971,1.872,1.872,0,0,0,.5166-1.416,1.298,1.298,0,0,0-.5546-1.1543,3.3087,3.3087,0,0,0-1.8047-.376h-.3574a.5455.5455,0,0,1-.5362-.5361,1.1861,1.1861,0,0,1,.3828-.9053l2.3467-2.22a.0369.0369,0,0,0,.0137-.0254c0-.0088-.0049-.0127-.0137-.0127H62.992a.5743.5743,0,1,1,0-1.1485h4.5918a.5671.5671,0,0,1,.5742.5743A1.2676,1.2676,0,0,1,67.75,49.6208Z"/><path d="M75.9715,56.3825a3.5082,3.5082,0,0,1-5.167,0,6.103,6.103,0,0,1-.86-3.6484,6.1036,6.1036,0,0,1,.86-3.6485,3.5084,3.5084,0,0,1,5.167,0,6.1028,6.1028,0,0,1,.86,3.6485A6.1022,6.1022,0,0,1,75.9715,56.3825Zm-1.0459-6.4746a1.8324,1.8324,0,0,0-3.0742,0,5.7856,5.7856,0,0,0-.5039,2.8262,5.7787,5.7787,0,0,0,.5039,2.8252,1.8324,1.8324,0,0,0,3.0742,0,5.8031,5.8031,0,0,0,.5029-2.8252A5.81,5.81,0,0,0,74.9256,49.9079Z"/><path d="M89.116,51.114a.4806.4806,0,0,1,.3633.1533.5081.5081,0,0,1,0,.7139.481.481,0,0,1-.3633.1533H82.0233a.12.12,0,0,0-.127.1015c-.0088.0352-.0234.086-.0449.1534s-.0361.1191-.0449.1533c-.0166.0683.0088.1015.0771.1015h5.9317a.7072.7072,0,0,1,.51.211.6784.6784,0,0,1,.2168.5039v4.5156a.6806.6806,0,0,1-.2041.49.6646.6646,0,0,1-.497.211h-.2549a.4572.4572,0,0,1-.4473-.4463.056.056,0,0,0-.0635-.0635H81.8836c-.0508,0-.0771.0215-.0771.0635a.4378.4378,0,0,1-.127.3125.41.41,0,0,1-.3066.1338h-.2422a.6742.6742,0,0,1-.6885-.6885v-2.666c0-.0166-.0068-.0254-.0195-.0254a.0436.0436,0,0,0-.0313.0127A7.5017,7.5017,0,0,1,78.95,56.9821a.511.511,0,0,1-.46.1328.5741.5741,0,0,1-.4082-.2607.7605.7605,0,0,1-.1143-.5225.7444.7444,0,0,1,.2549-.4726,7.8218,7.8218,0,0,0,2.334-3.6231c.0176-.0673-.0078-.1015-.0762-.1015H78.5282a.481.481,0,0,1-.3633-.1533.5081.5081,0,0,1,0-.7139.4806.4806,0,0,1,.3633-.1533h4.6181c.0684,0,.1016-.0381.1016-.1143V50.68c0-.0772-.0332-.1143-.1016-.1143h-3.61a.5018.5018,0,0,1-.4971-.498.4585.4585,0,0,1,.1465-.3448.4923.4923,0,0,1,.3506-.14h3.61c.0684,0,.1016-.0391.1016-.1152V49.15c0-.0771-.0332-.1152-.1016-.1152H78.9237a.5236.5236,0,0,1-.5225-.5235.5231.5231,0,0,1,.1533-.3759.4908.4908,0,0,1,.3692-.1592h2.1435a.0629.0629,0,0,0,.0576-.0323.0436.0436,0,0,0-.0068-.0576.2841.2841,0,0,1-.0508-.082.3082.3082,0,0,0-.0508-.084.469.469,0,0,1-.039-.4394.4609.4609,0,0,1,.332-.3.8078.8078,0,0,1,.5488.0127.8254.8254,0,0,1,.4209.3574l.3057.5351a.1645.1645,0,0,0,.1533.09h2.2324a.1952.1952,0,0,0,.1661-.09c.0332-.0586.123-.2207.2675-.4843a.892.892,0,0,1,.4082-.3829.8312.8312,0,0,1,.5489-.0644.5191.5191,0,0,1,.3632.3008.4879.4879,0,0,1-.02.4648c-.0088.0176-.0254.0449-.0508.084a.7086.7086,0,0,0-.0507.082.0567.0567,0,0,0,.0058.0576.0629.0629,0,0,0,.0576.0323h2.0537a.4945.4945,0,0,1,.37.1592.5272.5272,0,0,1,.1533.3759.5236.5236,0,0,1-.5235.5235H84.7664a.1016.1016,0,0,0-.1152.1152v.3184a.102.102,0,0,0,.1152.1152h3.3418a.4923.4923,0,0,1,.3506.14.4585.4585,0,0,1,.1465.3448.5018.5018,0,0,1-.4971.498H84.7664a.1009.1009,0,0,0-.1152.1143V51a.1013.1013,0,0,0,.1152.1143Zm-7.3095,2.6533v.3574a.1017.1017,0,0,0,.1152.1143h5.1152c.0674,0,.1016-.0381.1016-.1143v-.3574a.09.09,0,0,0-.1016-.1016H81.9217C81.8455,53.6657,81.8065,53.6989,81.8065,53.7673Zm0,1.4414v.3437a.102.102,0,0,0,.1152.1153h5.1152c.0674,0,.1016-.0381.1016-.1153v-.3437c0-.0762-.0342-.1152-.1016-.1152H81.9217A.1023.1023,0,0,0,81.8065,55.2087Zm0,1.4287v.3565a.1019.1019,0,0,0,.1152.1152h5.1152c.0674,0,.1016-.0381.1016-.1152v-.3565c0-.0771-.0342-.1143-.1016-.1143H81.9217A.1013.1013,0,0,0,81.8065,56.6374Z"/><rect class="b" x="126.4928" y="0.5476" width="68" height="20"/><path d="M143.3621,7.8581a.6509.6509,0,0,1-1.11-.459V6.072a.7406.7406,0,0,1,.7275-.7266h3.9414a.1024.1024,0,0,0,.1153-.1152V4.9626a.7012.7012,0,0,1,1.4023,0V5.23a.1023.1023,0,0,0,.1152.1152h3.9415a.7406.7406,0,0,1,.7275.7266V7.3991a.6509.6509,0,0,1-1.3018,0V6.5056a.101.101,0,0,0-.1142-.1143h-8.1387a.101.101,0,0,0-.1143.1143v.8935A.6284.6284,0,0,1,143.3621,7.8581Zm-.5742,4.082a.7406.7406,0,0,1,.7266-.7275H151.96a.7406.7406,0,0,1,.7266.7275V15.448a.6752.6752,0,0,1-.6758.6767h-.23a.4074.4074,0,0,1-.3067-.1348.4394.4394,0,0,1-.1269-.3125c0-.0429-.0264-.0634-.0772-.0634h-7.0664a.0555.0555,0,0,0-.0634.0634.4609.4609,0,0,1-.4473.4473h-.23a.6752.6752,0,0,1-.6758-.6767Zm.8672-2.9082a.7406.7406,0,0,1,.7275-.7275h6.709a.7406.7406,0,0,1,.7276.7275v1.0459a.6787.6787,0,0,1-.2168.5039.7078.7078,0,0,1-.5108.211h-6.709a.7076.7076,0,0,1-.5107-.211.6787.6787,0,0,1-.2168-.5039Zm7.2842-1.1611H144.535a.4971.4971,0,0,1,0-.9941h6.4043a.4971.4971,0,0,1,0,.9941Zm-6.7988,4.4775V12.82c0,.0762.0332.1153.1015.1153h2.7549c.0684,0,.1025-.0391.1025-.1153v-.4717c0-.0771-.0341-.1142-.1025-.1142H144.242C144.1737,12.2341,144.1405,12.2712,144.1405,12.3483Zm0,1.6582v.5108c0,.0762.0332.1142.1015.1142h2.7549q.1026,0,.1025-.1142v-.5108c0-.0771-.0341-.1142-.1025-.1142H144.242C144.1737,13.8923,144.1405,13.9294,144.1405,14.0065Zm.8925-4.63v.4589a.09.09,0,0,0,.1016.1016H150.34c.0762,0,.1142-.0332.1142-.1016V9.3767q0-.1026-.1142-.1026h-5.2051A.09.09,0,0,0,145.033,9.3767Zm3.3418,2.9716V12.82a.102.102,0,0,0,.1153.1153h2.7422a.1024.1024,0,0,0,.1152-.1153v-.4717a.1013.1013,0,0,0-.1152-.1142H148.49A.1009.1009,0,0,0,148.3748,12.3483Zm0,1.6582v.5108a.1013.1013,0,0,0,.1153.1142h2.7422a.1016.1016,0,0,0,.1152-.1142v-.5108a.1013.1013,0,0,0-.1152-.1142H148.49A.1009.1009,0,0,0,148.3748,14.0065Z"/><path d="M155.5438,9.363a.5872.5872,0,0,1-.6-.6.59.59,0,0,1,.1787-.4336.5735.5735,0,0,1,.4209-.1777h4.1328a.1024.1024,0,0,0,.1152-.1153V5.6257a.66.66,0,0,1,.2041-.4844.7074.7074,0,0,1,.9942,0,.66.66,0,0,1,.2041.4844V8.0368a.1024.1024,0,0,0,.1152.1153h4.1328a.575.575,0,0,1,.4209.1777.59.59,0,0,1,.1787.4336.5872.5872,0,0,1-.6.6h-4.1328a.1023.1023,0,0,0-.1152.1152v4.8731a.1016.1016,0,0,0,.1152.1142h3.5078a.5884.5884,0,0,1,.5869.5869.5842.5842,0,0,1-.1718.4278.57.57,0,0,1-.4151.1719h-8.6484a.5683.5683,0,0,1-.4151-.1719.5842.5842,0,0,1-.1718-.4278.5884.5884,0,0,1,.5869-.5869h3.5078a.1016.1016,0,0,0,.1152-.1142V9.4782a.1023.1023,0,0,0-.1152-.1152Z"/><path d="M168.6825,16.01a.6236.6236,0,0,1-.4786-.0645.6841.6841,0,0,1-.3125-.3828.548.548,0,0,1,.0381-.4453.5048.5048,0,0,1,.3574-.2686q2.6016-.6753,2.9463-2.3086c.0176-.0771-.0127-.1142-.0888-.1142h-1.5567a.7424.7424,0,0,1-.7265-.7285V5.7536a.7407.7407,0,0,1,.7265-.7265h7.4756a.7407.7407,0,0,1,.7266.7265V11.697a.7424.7424,0,0,1-.7266.7285h-1.748a.1006.1006,0,0,0-.1143.1142v1.837c0,.1953.0225.3144.0693.3574a.8229.8229,0,0,0,.4151.0762c.11.0078.28.0127.51.0127.2383,0,.417-.0049.5362-.0127a1.1634,1.1634,0,0,0,.4717-.0831.55.55,0,0,0,.2109-.3251,4.0349,4.0349,0,0,0,.1211-.8809.6423.6423,0,0,1,.2226-.44.5913.5913,0,0,1,.4659-.1464.6577.6577,0,0,1,.459.2363.6357.6357,0,0,1,.1533.49q-.0381.5625-.083.9121a2.3871,2.3871,0,0,1-.1592.625,1.5848,1.5848,0,0,1-.2236.4024.8132.8132,0,0,1-.3692.2109,2.6294,2.6294,0,0,1-.5107.1074c-.166.0176-.4063.0293-.7207.0391-.0762,0-.1914.0019-.3448.0059s-.2714.0058-.3564.0058q-.4468,0-.6768-.0117a3.2175,3.2175,0,0,1-1.2939-.2051c-.1748-.11-.2617-.3574-.2617-.7392V12.54a.1009.1009,0,0,0-.1153-.1142h-.9814a.1235.1235,0,0,0-.1279.1142Q172.2289,15.09,168.6825,16.01Zm1.5556-9.7207V7.08c0,.0762.0342.1152.1026.1152h5.97a.1016.1016,0,0,0,.1142-.1152v-.791a.101.101,0,0,0-.1142-.1143h-5.97Q170.2381,6.1745,170.2381,6.2888Zm0,2.041v.791c0,.0762.0342.1152.1026.1152h5.97a.1016.1016,0,0,0,.1142-.1152V8.33a.101.101,0,0,0-.1142-.1143h-5.97Q170.2381,8.2155,170.2381,8.33Zm.1026,2.9473h5.97a.1017.1017,0,0,0,.1142-.1153v-.791a.1016.1016,0,0,0-.1142-.1152h-5.97c-.0684,0-.1026.039-.1026.1152v.791C170.2381,11.238,170.2723,11.2771,170.3407,11.2771Z"/><path d="M137.495,31.3483a.3426.3426,0,0,1-.5616-.2685v-.0762a1.4274,1.4274,0,0,1,.5616-1.1738l1.4414-1.16a1.96,1.96,0,0,1,1.25-.4336.6954.6954,0,0,1,.7011.7012v7.9082a.7017.7017,0,1,1-1.4033,0V29.779a.0114.0114,0,0,0-.0127-.0127l-.0254.0127Z"/><path d="M145.5311,31.3483a.3426.3426,0,0,1-.5615-.2685v-.0762a1.4274,1.4274,0,0,1,.5615-1.1738l1.4414-1.16a1.96,1.96,0,0,1,1.25-.4336.6954.6954,0,0,1,.7012.7012v7.9082a.7017.7017,0,1,1-1.4034,0V29.779a.0114.0114,0,0,0-.0127-.0127l-.0253.0127Z"/><path d="M154.0135,32.573a.7424.7424,0,0,1-.7275-.7276v-.459a.7406.7406,0,0,1,.7275-.7265h.2041a.7407.7407,0,0,1,.7266.7265v.459a.7424.7424,0,0,1-.7266.7276Zm0,4.9746a.7406.7406,0,0,1-.7275-.7276v-.459a.7406.7406,0,0,1,.7275-.7265h.2041a.7407.7407,0,0,1,.7266.7265v.459a.7406.7406,0,0,1-.7266.7276Z"/><path d="M163.0438,29.779l-2.3213,2.2578a.0371.0371,0,0,0-.0127.0254c0,.0088.0039.0137.0127.0137h.2422a2.6784,2.6784,0,0,1,1.9258.6562,2.4744,2.4744,0,0,1,.6894,1.8809,2.89,2.89,0,0,1-.8867,2.2578,3.5749,3.5749,0,0,1-2.4941.8047,6.85,6.85,0,0,1-1.7979-.2422.8151.8151,0,0,1-.4531-.3125.8946.8946,0,0,1-.1719-.543.4042.4042,0,0,1,.1973-.3574.4558.4558,0,0,1,.415-.0508,5.4819,5.4819,0,0,0,1.8106.3575,2.02,2.02,0,0,0,1.4609-.4981,1.8707,1.8707,0,0,0,.5166-1.416,1.3,1.3,0,0,0-.5547-1.1543,3.3187,3.3187,0,0,0-1.8047-.375H159.46a.5453.5453,0,0,1-.5361-.5371,1.1826,1.1826,0,0,1,.3828-.9043l2.3467-2.2207a.0353.0353,0,0,0,.0136-.0254c0-.0078-.0049-.0117-.0136-.0117H158.286a.5743.5743,0,1,1,0-1.1485h4.5918a.5671.5671,0,0,1,.5742.5743A1.27,1.27,0,0,1,163.0438,29.779Z"/><path d="M171.2137,36.948a4.7691,4.7691,0,0,1-5.0635,0,2.3679,2.3679,0,0,1-.9121-1.9522,2.1572,2.1572,0,0,1,.5039-1.3711,3.2243,3.2243,0,0,1,1.3965-.9756c.0088,0,.0127-.0039.0127-.0127a.0114.0114,0,0,0-.0127-.0127,2.741,2.741,0,0,1-1.167-.9189,2.2011,2.2011,0,0,1-.415-1.3008,1.99,1.99,0,0,1,.8291-1.6641,4.4893,4.4893,0,0,1,4.5928,0,1.99,1.99,0,0,1,.8291,1.6641,2.2028,2.2028,0,0,1-1.5821,2.0918c-.0088,0-.0127.0049-.0127.0137s.0039.0117.0127.0117a2.4674,2.4674,0,0,1,1.9,2.4746A2.3679,2.3679,0,0,1,171.2137,36.948Zm-2.6973-3.7764a3.2771,3.2771,0,0,0-1.4541.709,1.4106,1.4106,0,0,0-.498,1.0527,1.4422,1.4422,0,0,0,.5683,1.2051,2.4694,2.4694,0,0,0,1.55.4394,2.3588,2.3588,0,0,0,1.5234-.4394,1.47,1.47,0,0,0,.543-1.2051q0-1.3023-2.0284-1.7617A.4509.4509,0,0,0,168.5164,33.1716Zm-1.6074-2.64a1.2327,1.2327,0,0,0,.4209.9121,2.6274,2.6274,0,0,0,1.2373.5928.5054.5054,0,0,0,.2295,0,2.9733,2.9733,0,0,0,1.27-.6191,1.1848,1.1848,0,0,0,.4395-.8858,1.1522,1.1522,0,0,0-.4717-.97,2.205,2.205,0,0,0-1.3515-.3574,2.12,2.12,0,0,0-1.32.3516A1.1611,1.1611,0,0,0,166.909,30.5319Z"/><path d="M184.41,31.2712a.4813.4813,0,0,1,.3633.1533.5081.5081,0,0,1,0,.7139.4822.4822,0,0,1-.3633.1543h-7.0928a.1194.1194,0,0,0-.1269.1015c-.0088.0342-.0235.085-.045.1524s-.0361.1191-.0449.1543c-.0166.0674.0088.1015.0772.1015h5.9316a.7076.7076,0,0,1,.51.211.6756.6756,0,0,1,.2168.5039v4.5156a.6843.6843,0,0,1-.2041.49.665.665,0,0,1-.4971.211H182.88a.4588.4588,0,0,1-.4472-.4473.0553.0553,0,0,0-.0635-.0625h-5.1914c-.0508,0-.0772.02-.0772.0625a.4377.4377,0,0,1-.1269.3125.4074.4074,0,0,1-.3067.1348h-.2422a.674.674,0,0,1-.6884-.6895v-2.666c0-.0166-.0069-.0254-.02-.0254a.04.04,0,0,0-.0312.0137,7.5019,7.5019,0,0,1-1.4414,1.7725.5148.5148,0,0,1-.46.1337.5749.5749,0,0,1-.4082-.2617.76.76,0,0,1-.1142-.5224.744.744,0,0,1,.2548-.4717,7.831,7.831,0,0,0,2.334-3.6231c.0176-.0683-.0078-.1015-.0762-.1015h-1.9521a.4822.4822,0,0,1-.3633-.1543.5081.5081,0,0,1,0-.7139.4813.4813,0,0,1,.3633-.1533H178.44c.0683,0,.1015-.0371.1015-.1143v-.3193c0-.0762-.0332-.1143-.1015-.1143h-3.61a.5018.5018,0,0,1-.4971-.497.4606.4606,0,0,1,.1465-.3457.4923.4923,0,0,1,.3506-.14h3.61c.0683,0,.1015-.0381.1015-.1142v-.3194c0-.0771-.0332-.1142-.1015-.1142h-4.2227a.5253.5253,0,0,1-.5225-.5235.5267.5267,0,0,1,.1534-.3769.4942.4942,0,0,1,.3691-.1592h2.1436a.0628.0628,0,0,0,.0576-.0322.0425.0425,0,0,0-.0069-.0567.29.29,0,0,1-.0507-.083.3162.3162,0,0,0-.0508-.083.4692.4692,0,0,1-.0391-.4394.4628.4628,0,0,1,.3321-.3008.8277.8277,0,0,1,.97.37l.3056.5361a.1654.1654,0,0,0,.1534.0889h2.2324a.1964.1964,0,0,0,.166-.0889c.0332-.0595.123-.2207.2676-.4843a.8865.8865,0,0,1,.4082-.3829.8187.8187,0,0,1,.5488-.0644.5205.5205,0,0,1,.3633.3.49.49,0,0,1-.02.4658.8767.8767,0,0,1-.0508.083.7107.7107,0,0,0-.0508.083.0551.0551,0,0,0,.0059.0567.0628.0628,0,0,0,.0576.0322h2.0537a.4979.4979,0,0,1,.37.1592.5308.5308,0,0,1,.1533.3769.5251.5251,0,0,1-.5234.5235H180.06a.1009.1009,0,0,0-.1153.1142v.3194a.1013.1013,0,0,0,.1153.1142h3.3418a.4923.4923,0,0,1,.3506.14.4605.4605,0,0,1,.1464.3457.5016.5016,0,0,1-.497.497H180.06a.1013.1013,0,0,0-.1153.1143v.3193a.1009.1009,0,0,0,.1153.1143Zm-7.31,2.6543v.3564a.1013.1013,0,0,0,.1153.1143h5.1152c.0674,0,.1016-.0371.1016-.1143v-.3564a.09.09,0,0,0-.1016-.1025h-5.1152C177.14,33.823,177.1,33.8571,177.1,33.9255Zm0,1.4414v.3437a.1024.1024,0,0,0,.1153.1153h5.1152c.0674,0,.1016-.0391.1016-.1153v-.3437c0-.0772-.0342-.1152-.1016-.1152h-5.1152A.102.102,0,0,0,177.1,35.3669Zm0,1.4277v.3575a.1024.1024,0,0,0,.1153.1152h5.1152c.0674,0,.1016-.0391.1016-.1152v-.3575c0-.0761-.0342-.1142-.1016-.1142h-5.1152A.1017.1017,0,0,0,177.1,36.7946Z"/><path d="M137.495,51.1911a.3426.3426,0,0,1-.5616-.2685v-.0772a1.4243,1.4243,0,0,1,.5616-1.1728l1.4414-1.1612a1.96,1.96,0,0,1,1.25-.4336.6969.6969,0,0,1,.7011.7012v7.9092a.7017.7017,0,1,1-1.4033,0V49.6208c0-.0078-.0039-.0117-.0127-.0117l-.0254.0117Z"/><path d="M149.9823,49.6208l-2.3213,2.2578a.0391.0391,0,0,0-.0127.0264c0,.0088.0039.0127.0127.0127h.2422a2.678,2.678,0,0,1,1.9257.6562,2.4778,2.4778,0,0,1,.69,1.8819,2.8931,2.8931,0,0,1-.8867,2.2578,3.58,3.58,0,0,1-2.4942.8037,6.8086,6.8086,0,0,1-1.7978-.2422.8058.8058,0,0,1-.4531-.3125.8917.8917,0,0,1-.1719-.542.402.402,0,0,1,.1972-.3574.45.45,0,0,1,.4151-.0508,5.5039,5.5039,0,0,0,1.81.3565,2.0238,2.0238,0,0,0,1.461-.4971,1.8723,1.8723,0,0,0,.5166-1.416,1.2981,1.2981,0,0,0-.5547-1.1543,3.3085,3.3085,0,0,0-1.8047-.376h-.3574a.5455.5455,0,0,1-.5362-.5361,1.1862,1.1862,0,0,1,.3829-.9053l2.3466-2.22a.0369.0369,0,0,0,.0137-.0254c0-.0088-.0049-.0127-.0137-.0127h-3.3672a.5743.5743,0,1,1,0-1.1485h4.5918a.5673.5673,0,0,1,.5743.5743A1.268,1.268,0,0,1,149.9823,49.6208Z"/><path d="M154.0135,52.4157a.7422.7422,0,0,1-.7275-.7275v-.46a.7406.7406,0,0,1,.7275-.7265h.2041a.7407.7407,0,0,1,.7266.7265v.46a.7423.7423,0,0,1-.7266.7275Zm0,4.9746a.7406.7406,0,0,1-.7275-.7275v-.46a.7406.7406,0,0,1,.7275-.7265h.2041a.7407.7407,0,0,1,.7266.7265v.46a.7406.7406,0,0,1-.7266.7275Z"/><path d="M163.0438,49.6208l-2.3213,2.2578a.0391.0391,0,0,0-.0127.0264c0,.0088.0039.0127.0127.0127h.2422a2.6784,2.6784,0,0,1,1.9258.6562,2.4781,2.4781,0,0,1,.6894,1.8819,2.8931,2.8931,0,0,1-.8867,2.2578,3.5794,3.5794,0,0,1-2.4941.8037,6.8088,6.8088,0,0,1-1.7979-.2422.8058.8058,0,0,1-.4531-.3125.8917.8917,0,0,1-.1719-.542.4019.4019,0,0,1,.1973-.3574.45.45,0,0,1,.415-.0508,5.504,5.504,0,0,0,1.8106.3565,2.0236,2.0236,0,0,0,1.4609-.4971,1.8723,1.8723,0,0,0,.5166-1.416,1.2981,1.2981,0,0,0-.5547-1.1543,3.3085,3.3085,0,0,0-1.8047-.376H159.46a.5453.5453,0,0,1-.5361-.5361,1.1861,1.1861,0,0,1,.3828-.9053l2.3467-2.22a.0371.0371,0,0,0,.0136-.0254c0-.0088-.0049-.0127-.0136-.0127H158.286a.5743.5743,0,1,1,0-1.1485h4.5918a.5671.5671,0,0,1,.5742.5743A1.268,1.268,0,0,1,163.0438,49.6208Z"/><path d="M171.2137,56.7907a4.7741,4.7741,0,0,1-5.0635,0,2.3676,2.3676,0,0,1-.9121-1.9521,2.1532,2.1532,0,0,1,.5039-1.3711,3.216,3.216,0,0,1,1.3965-.9756c.0088,0,.0127-.0039.0127-.0137,0-.0078-.0039-.0117-.0127-.0117a2.7417,2.7417,0,0,1-1.167-.9189,2.2055,2.2055,0,0,1-.415-1.3008,1.9931,1.9931,0,0,1,.8291-1.6651,4.4954,4.4954,0,0,1,4.5928,0,1.9934,1.9934,0,0,1,.8291,1.6651,2.2046,2.2046,0,0,1-1.5821,2.0918.0114.0114,0,0,0-.0127.0127c0,.0088.0039.0127.0127.0127a2.4666,2.4666,0,0,1,1.9,2.4746A2.3676,2.3676,0,0,1,171.2137,56.7907Zm-2.6973-3.7763a3.2661,3.2661,0,0,0-1.4541.708,1.4122,1.4122,0,0,0-.498,1.0527,1.4409,1.4409,0,0,0,.5683,1.2051,2.47,2.47,0,0,0,1.55.44,2.36,2.36,0,0,0,1.5234-.44,1.4692,1.4692,0,0,0,.543-1.2051q0-1.3008-2.0284-1.7607A.4245.4245,0,0,0,168.5164,53.0144Zm-1.6074-2.64a1.2343,1.2343,0,0,0,.4209.9121,2.627,2.627,0,0,0,1.2373.5918.5054.5054,0,0,0,.2295,0,2.9729,2.9729,0,0,0,1.27-.6181,1.1864,1.1864,0,0,0,.4395-.8858,1.154,1.154,0,0,0-.4717-.9707,2.2119,2.2119,0,0,0-1.3515-.3564,2.12,2.12,0,0,0-1.32.35A1.1645,1.1645,0,0,0,166.909,50.3747Z"/><path d="M181.54,52.5173c-.0762,0-.1153.0332-.1153.1016v1.2753a.102.102,0,0,0,.1153.1153h2.6025a.5742.5742,0,1,1,0,1.1484H181.54a.1017.1017,0,0,0-.1153.1143V56.905c0,.1787.0411.2871.1221.3252a2.5744,2.5744,0,0,0,.7461.0576,1.6722,1.6722,0,0,0,.86-.1338q.1728-.1347.2236-.7969a.6741.6741,0,0,1,.2168-.4472.5619.5619,0,0,1,.459-.1524.6567.6567,0,0,1,.459.2354.6835.6835,0,0,1,.166.4912c-.0166.3232-.04.582-.07.7783a1.4575,1.4575,0,0,1-.1778.5225,1.32,1.32,0,0,1-.2617.3379,1.0575,1.0575,0,0,1-.4658.1728,4.7916,4.7916,0,0,1-.6572.0772c-.212.0078-.5274.0117-.9434.0117a8.5482,8.5482,0,0,1-1.3711-.0762.82.82,0,0,1-.543-.2617,1.1322,1.1322,0,0,1-.1269-.6192V55.2722a.1013.1013,0,0,0-.1153-.1143h-1.8623a.1235.1235,0,0,0-.1269.1143,4.34,4.34,0,0,1-3.3682,3.1377.6224.6224,0,0,1-.4912-.0508.7309.7309,0,0,1-.3379-.3828.5317.5317,0,0,1,.0254-.4532.5836.5836,0,0,1,.3574-.2988,3.3833,3.3833,0,0,0,2.3731-1.9775c.0166-.06-.0088-.0889-.0772-.0889h-2.2451a.5742.5742,0,1,1,0-1.1484h2.4365c.0684,0,.1026-.0381.1026-.1153,0-.0166.0019-.0507.0058-.1015s.0069-.085.0069-.1016V52.6189c0-.0684-.0391-.1016-.1153-.1016h-.4843a.5176.5176,0,0,1-.4981-.3193c-.0342-.0674-.0762-.0811-.1269-.0381q-.5493.3573-1.2119.7265a.5547.5547,0,0,1-.4717.045.5988.5988,0,0,1-.3574-.3125.65.65,0,0,1-.0381-.49.6247.6247,0,0,1,.3056-.3769q1.0078-.548,1.5948-.9434a.06.06,0,0,0,.038-.0644.1069.1069,0,0,0-.0253-.0762q-1.1353-1.0211-1.1739-1.0586a.5421.5421,0,0,1-.1972-.4082.5523.5523,0,0,1,.1718-.4219.6986.6986,0,0,1,.4463-.1914.6546.6546,0,0,1,.459.1543q.2431.2035,1.2891,1.16a.135.135,0,0,0,.166.0126,9.1626,9.1626,0,0,0,1.3642-1.4287.0412.0412,0,0,0,.0069-.0566.0628.0628,0,0,0-.0576-.0322h-2.2959a.553.553,0,0,1-.3955-.1592.5226.5226,0,0,1-.1661-.39.567.567,0,0,1,.5616-.5615h3.5332a1.2054,1.2054,0,0,1,1.0839.625,8.3612,8.3612,0,0,0,.5489.7783.0807.0807,0,0,0,.1406.0127c.2891-.3222.5605-.6464.8164-.9687a.6183.6183,0,0,1,.3945-.249.6465.6465,0,0,1,.46.083.5557.5557,0,0,1,.2607.3691.5186.5186,0,0,1-.0947.4219q-.5112.65-1.02,1.1992a.0942.0942,0,0,0,0,.1523q.293.2682.7139.6124a.107.107,0,0,0,.1533,0q.42-.4468.9687-1.1612a.6286.6286,0,0,1,.4024-.248.6683.6683,0,0,1,.4658.082.56.56,0,0,1,.2608.377.53.53,0,0,1-.0948.4277q-.4467.561-1.0342,1.1992a.0856.0856,0,0,0-.0185.0762.068.068,0,0,0,.0449.0635c.4932.3056.8369.5107,1.0332.6123a.6564.6564,0,0,1,.3125.3769.6394.6394,0,0,1-.0322.49.5774.5774,0,0,1-.37.3193.6.6,0,0,1-.4844-.0518q-.4468-.2548-1.1611-.7265c-.06-.0332-.1065-.0176-.14.0507a.5179.5179,0,0,1-.498.3067Zm-4.8858-1.1231h5.001a.04.04,0,0,0,.0381-.0253.0258.0258,0,0,0-.0127-.0381,12.5993,12.5993,0,0,1-2.4746-2.6026c-.0342-.0508-.0723-.0468-.1152.0137a12.511,12.511,0,0,1-2.462,2.5889.0253.0253,0,0,0-.0127.0381A.04.04,0,0,0,176.6541,51.3942Zm3.4063,2.5V52.6189c0-.0684-.0381-.1016-.1153-.1016h-1.7216c-.0772,0-.1153.0332-.1153.1016v1.2753a.1016.1016,0,0,0,.1153.1153h1.7216A.1016.1016,0,0,0,180.06,53.8942Z"/></svg>