<svg xmlns="http://www.w3.org/2000/svg" viewBox="0 0 195.0403 58.5769"><defs><style>.a{fill:#c99194;}.b{fill:#fff;stroke:#c99194;stroke-miterlimit:10;stroke-width:1.0951px;}.c{fill:none;}</style></defs><path d="M.7821,34.6a.41.41,0,0,1-.4278.1094.4208.4208,0,0,1-.3125-.3262.9992.9992,0,0,1,.0127-.6113,1.07,1.07,0,0,1,.3574-.5108,10.3691,10.3691,0,0,0,2.0918-2.334.6092.6092,0,0,1,.3829-.2744.6022.6022,0,0,1,.4589.07.6624.6624,0,0,1,.2871.3829.5613.5613,0,0,1-.0576.4589A11.5053,11.5053,0,0,1,2.67,32.8405a.2615.2615,0,0,0-.0772.1914v5a.6537.6537,0,0,1-.6631.6641.6668.6668,0,0,1-.4785-.1914.632.632,0,0,1-.1973-.4727V34.2185a.0408.0408,0,0,0-.0253-.0381q-.0264-.0132-.0381,0A4.0039,4.0039,0,0,1,.7821,34.6ZM.5653,29.3454A9.5282,9.5282,0,0,0,2.491,27.5983a.709.709,0,0,1,.4209-.2558.6578.6578,0,0,1,.4717.0762.5235.5235,0,0,1,.2617.3642.5064.5064,0,0,1-.1084.4268A10.7878,10.7878,0,0,1,1.075,30.4675a.5145.5145,0,0,1-.44.0586.5216.5216,0,0,1-.3379-.2871.7171.7171,0,0,1-.0254-.4981A.69.69,0,0,1,.5653,29.3454Zm10.6894,7.794a.587.587,0,1,1,0,1.1738H3.7918a.5759.5759,0,0,1-.414-.166.5988.5988,0,0,1,0-.8418.5755.5755,0,0,1,.414-.166H6.79a.1013.1013,0,0,0,.1142-.1153V34.3718a.1013.1013,0,0,0-.1142-.1153H4.4168a.5669.5669,0,0,1-.5742-.5742.5669.5669,0,0,1,.5742-.5742H6.79c.0761,0,.1142-.0332.1142-.1016V30.8249c0-.0684-.0381-.1016-.1142-.1016H4.1492a.584.584,0,0,1-.4277-.1718.57.57,0,0,1-.1719-.4151.6106.6106,0,0,1,.6-.6h6.9522a.5628.5628,0,0,1,.4141.1729.6077.6077,0,0,1,.0068.8418.5611.5611,0,0,1-.4209.1718H8.3846c-.0771,0-.1152.0332-.1152.1016v2.1816c0,.0684.0381.1016.1152.1016h2.2578a.5351.5351,0,0,1,.4014.166.6029.6029,0,0,1,0,.8164.5311.5311,0,0,1-.4014.166H8.3846a.1016.1016,0,0,0-.1152.1153v2.6523a.1016.1016,0,0,0,.1152.1153Zm-2.36-7.9336a19.79,19.79,0,0,0-3.0108-.8936.5061.5061,0,0,1-.3564-.2607.5327.5327,0,0,1-.0391-.4414.7164.7164,0,0,1,.3125-.3887.6482.6482,0,0,1,.4785-.082,21.1718,21.1718,0,0,1,3.0616.9179.6192.6192,0,0,1,.0253,1.1348A.6071.6071,0,0,1,8.8944,29.2058Z"/><path d="M12.81,38.1081v-.0625a.5384.5384,0,0,1,.0762-.3965.5135.5135,0,0,1,.3193-.2285c.0508-.0176.0762-.0469.0762-.09v-4.35a.5888.5888,0,0,1,.6-.6.5934.5934,0,0,1,.4336.1778.5786.5786,0,0,1,.1787.4219v3.9794c0,.0684.0342.0938.1025.0772l.3828-.1152q.1143-.05.1143-.1407V31.82c0-.0761-.0342-.1142-.1016-.1142H13.8055a.72.72,0,0,1-.7148-.7149V28.2233a.72.72,0,0,1,.7148-.7148H17.02a.7072.7072,0,0,1,.51.2109.6789.6789,0,0,1,.2168.5039v1.5684a.03.03,0,0,0,.02.0322c.0127.0049.0274-.0019.044-.0185a11.6638,11.6638,0,0,0,1.48-2.2071.84.84,0,0,1,.3759-.3828.7758.7758,0,0,1,.5166-.0761.5071.5071,0,0,1,.3575.2607.4745.4745,0,0,1,.0253.4268,1.5079,1.5079,0,0,1-.09.2177c-.0254.06-.0078.0889.0518.0889H23.576a.5678.5678,0,0,1,.5488.5488,1.8772,1.8772,0,0,1-.2929,1.0078,10.4589,10.4589,0,0,1-1.6709,1.9766c-.0518.0508-.0469.0938.0127.1279a10.92,10.92,0,0,0,1.9892,1.0967.7381.7381,0,0,1,.37.3379.7138.7138,0,0,1,.0762.4922.4819.4819,0,0,1-.2422.35.4453.4453,0,0,1-.4209.0322c-.0508-.0166-.0761,0-.0761.0518V37.93a.6308.6308,0,0,1-.1983.4717.66.66,0,0,1-.4775.1914h-.1153a.5453.5453,0,0,1-.5488-.5479.0786.0786,0,0,0-.0889-.09H19.6473a.0786.0786,0,0,0-.0889.09.5436.5436,0,0,1-.5488.5479H18.908a.6519.6519,0,0,1-.65-.65V34.1159c0-.0586-.0341-.08-.1025-.0635-.0088,0-.0127.002-.0127.0069s-.0049.0058-.0127.0058a.49.49,0,0,1-.415-.0058.4791.4791,0,0,1-.2735-.3125c-.0175-.0684-.0556-.086-.1152-.0508a.5808.5808,0,0,1-.2549.0508h-.5869a.1012.1012,0,0,0-.1152.1142v2.5c0,.0684.0342.0938.1025.0772.2207-.0684.4678-.1533.7393-.2559a.4275.4275,0,0,1,.3955.0449.4439.4439,0,0,1,.2168.3379.73.73,0,0,1-.1016.4659.7072.7072,0,0,1-.37.3q-2.1563.7529-3.8906,1.1992a.4765.4765,0,0,1-.4141-.0645A.5037.5037,0,0,1,12.81,38.1081Zm1.6963-7.4746h1.8877q.1025,0,.1025-.1143V28.72a.091.091,0,0,0-.1025-.1025H14.5067c-.0762,0-.1143.0351-.1143.1025v1.7988A.101.101,0,0,0,14.5067,30.6335Zm3.24.3574a.6787.6787,0,0,1-.2168.5039.7069.7069,0,0,1-.51.211h-.5361a.1016.1016,0,0,0-.1152.1142v.6768c0,.0674.039.1015.1152.1015h.5869a.5322.5322,0,0,1,.5225.3575.0642.0642,0,0,0,.0517.0312.0663.0663,0,0,0,.0635-.02.6124.6124,0,0,1,.166-.0879A11.1715,11.1715,0,0,0,20.12,31.7439a.0687.0687,0,0,0,.0439-.0635.0877.0877,0,0,0-.0186-.0772,11.6743,11.6743,0,0,1-1.0459-1.1357.0866.0866,0,0,0-.1279-.0117c-.0508.0683-.1445.1777-.28.331a.5786.5786,0,0,1-.4277.2041.6236.6236,0,0,1-.4531-.1523c-.042-.043-.0635-.03-.0635.0371Zm5.332,2.7168a11.2686,11.2686,0,0,1-1.85-1.16.14.14,0,0,0-.1787,0,14.0121,14.0121,0,0,1-2.0664,1.16c-.0088.0176-.0088.03,0,.0391h4.082c.0166,0,.0254-.0049.0254-.0137A.0371.0371,0,0,0,23.0789,33.7077ZM22.53,36.7692V34.946a.1013.1013,0,0,0-.1142-.1152H19.6727a.1013.1013,0,0,0-.1143.1152v1.8232a.1013.1013,0,0,0,.1143.1153h2.7432A.1013.1013,0,0,0,22.53,36.7692Zm-2.73-7.4873a.0773.0773,0,0,0,0,.1016,10.4747,10.4747,0,0,0,1.2627,1.4922.0951.0951,0,0,0,.1533,0A9.0471,9.0471,0,0,0,22.53,29.32a.0423.0423,0,0,0,.0068-.0576.062.062,0,0,0-.0576-.0312H19.9032A.121.121,0,0,0,19.8006,29.2819Z"/><path d="M.82,53.87a.4207.4207,0,0,1-.4277.1143A.4084.4084,0,0,1,.08,53.6647a1.02,1.02,0,0,1,.0127-.6181A1.116,1.116,0,0,1,.4373,52.53a10.5555,10.5555,0,0,0,2.1045-2.334.5708.5708,0,0,1,.6885-.2686.1577.1577,0,0,0,.1787-.0507,12.1363,12.1363,0,0,0,1.3526-2.5635.8158.8158,0,0,1,.3251-.3965.7111.7111,0,0,1,.4913-.1016.5237.5237,0,0,1,.3759.2491.5136.5136,0,0,1,.0577.4521.0524.0524,0,0,0-.0127.0391.0559.0559,0,0,1-.0127.0381c-.0176.0673.0039.1025.0634.1025h5.0518a.5651.5651,0,0,1,.5615.5605.5174.5174,0,0,1-.166.3887.548.548,0,0,1-.3955.16H5.6034a.1486.1486,0,0,0-.1534.1015c-.0254.043-.0595.1094-.1015.1973-.043.09-.0772.1563-.1026.1982-.0342.0518-.0127.0772.0645.0772h5.2422a.7406.7406,0,0,1,.7275.7266v2.6015a.7422.7422,0,0,1-.7275.7285H7.16a.1235.1235,0,0,0-.1279.1143.3316.3316,0,0,1-.0762.165.3652.3652,0,0,1-.0645.0772.3505.3505,0,0,0-.0634.0771c-.0176.0332-.0039.0586.038.0762H10.54a.5.5,0,0,1,.497.4971,1.2038,1.2038,0,0,1-.3183.8681,7.0164,7.0164,0,0,1-1.544,1.25.0453.0453,0,0,0-.0254.044.0467.0467,0,0,0,.0254.0449,19.196,19.196,0,0,0,2.1436.6.4844.4844,0,0,1,.3379.2549.5431.5431,0,0,1,.0449.4209.6379.6379,0,0,1-.74.4209,16.4231,16.4231,0,0,1-3.0489-1.0332.2829.2829,0,0,0-.2041,0A18.5767,18.5767,0,0,1,4.06,58.3718a.6869.6869,0,0,1-.4785-.07.6488.6488,0,0,1-.3125-.3633.422.422,0,0,1,.0254-.4024.4614.4614,0,0,1,.331-.2353,18.0345,18.0345,0,0,0,2.8828-.6758c.0518-.0166.0469-.0469-.0127-.0889a9.8064,9.8064,0,0,1-1.3134-1.0214.1159.1159,0,0,0-.1661-.0118c-.2382.1612-.4638.3106-.6757.4454a.6078.6078,0,0,1-.4659.07.6556.6556,0,0,1-.4013-.2735.5088.5088,0,0,1-.07-.4218.5224.5224,0,0,1,.2617-.3438,8.4037,8.4037,0,0,0,1.8877-1.4668.0522.0522,0,0,0,.0185-.0508.029.029,0,0,0-.0312-.0254H4.9784a.744.744,0,0,1-.7276-.7285V51.0124a.03.03,0,0,0-.0185-.0322c-.0127-.0049-.0235.0019-.0323.0185a.3356.3356,0,0,0-.0312.0391l-.0322.0381a.6031.6031,0,0,1-.7022.2168.1287.1287,0,0,0-.1523.0508q-.3193.4467-.6123.791a.2769.2769,0,0,0-.0772.2041v5.5488a.6535.6535,0,0,1-.65.65.6535.6535,0,0,1-.65-.65v-4.4c0-.0176-.0107-.03-.0322-.039s-.0361-.0079-.0439,0Q.8963,53.8053.82,53.87Zm1.709-6.6211a.7053.7053,0,0,1,.4151-.2548.63.63,0,0,1,.4648.0771.5139.5139,0,0,1,.2617.3633.5.5,0,0,1-.1084.4267,10.527,10.527,0,0,1-2.4492,2.2579.5158.5158,0,0,1-.4394.0576.5211.5211,0,0,1-.3389-.2871.7465.7465,0,0,1-.0313-.4981.66.66,0,0,1,.2872-.3945A9.4235,9.4235,0,0,0,2.5291,47.2487ZM5.54,50.4245v.4082c0,.0772.0332.1153.1015.1153H9.826a.1013.1013,0,0,0,.1143-.1153v-.4082A.101.101,0,0,0,9.826,50.31H5.6414C5.5731,50.31,5.54,50.3483,5.54,50.4245Zm0,1.4932v.4844c0,.0771.0332.1152.1015.1152H9.826a.1013.1013,0,0,0,.1143-.1152v-.4844a.1006.1006,0,0,0-.1143-.1143H5.6414C5.5731,51.8034,5.54,51.8405,5.54,51.9177ZM9.366,54.94H6.3045a.0436.0436,0,0,0-.0381.0254.0541.0541,0,0,0,0,.0518,7.1058,7.1058,0,0,0,1.4932,1.02.1667.1667,0,0,0,.1777,0,5.8563,5.8563,0,0,0,1.4541-1.02.043.043,0,0,0,.0137-.0518A.0439.0439,0,0,0,9.366,54.94Z"/><path d="M12.81,57.9509v-.0635a.5367.5367,0,0,1,.0762-.3955.5188.5188,0,0,1,.3193-.23c.0508-.0176.0762-.0469.0762-.09v-4.35a.5888.5888,0,0,1,.6-.6.5943.5943,0,0,1,.4336.1788.578.578,0,0,1,.1787.4209v3.98q0,.1026.1025.0762l.3828-.1152c.0762-.0332.1143-.08.1143-.14V51.6628c0-.0762-.0342-.1152-.1016-.1152H13.8055a.72.72,0,0,1-.7148-.7149V48.0651a.72.72,0,0,1,.7148-.7148H17.02a.7072.7072,0,0,1,.51.2109.6789.6789,0,0,1,.2168.5039v1.5694a.031.031,0,0,0,.02.0322c.0127.0039.0274-.002.044-.02a11.632,11.632,0,0,0,1.48-2.2071.8444.8444,0,0,1,.3759-.3828.7874.7874,0,0,1,.5166-.0761.5078.5078,0,0,1,.3575.2617.4743.4743,0,0,1,.0253.4267,1.64,1.64,0,0,1-.09.2178c-.0254.0586-.0078.0879.0518.0879H23.576a.5678.5678,0,0,1,.5488.5488,1.8772,1.8772,0,0,1-.2929,1.0078A10.4655,10.4655,0,0,1,22.161,51.51c-.0518.0508-.0469.0937.0127.1279a10.92,10.92,0,0,0,1.9892,1.0967.729.729,0,0,1,.37.3379.71.71,0,0,1,.0762.4912.4856.4856,0,0,1-.2422.3506.4481.4481,0,0,1-.4209.0322c-.0508-.0176-.0761,0-.0761.0508v3.7754a.6326.6326,0,0,1-.1983.4726.664.664,0,0,1-.4775.1914h-.1153a.5468.5468,0,0,1-.5488-.5488.079.079,0,0,0-.0889-.09H19.6473a.079.079,0,0,0-.0889.09.5451.5451,0,0,1-.5488.5488H18.908a.6519.6519,0,0,1-.65-.65V53.9587c0-.06-.0341-.0811-.1025-.0635-.0088,0-.0127.002-.0127.0059s-.0049.0058-.0127.0058a.51.51,0,0,1-.6885-.3183c-.0175-.0684-.0556-.085-.1152-.0508a.5808.5808,0,0,1-.2549.0508h-.5869a.1019.1019,0,0,0-.1152.1152v2.5q0,.1026.1025.0762c.2207-.0684.4678-.1524.7393-.2549a.4244.4244,0,0,1,.3955.0439.4473.4473,0,0,1,.2168.3379.7329.7329,0,0,1-.1016.4668.7005.7005,0,0,1-.37.2989q-2.1563.7528-3.8906,1.1992a.48.48,0,0,1-.4141-.0635A.5077.5077,0,0,1,12.81,57.9509Zm1.6963-7.4746h1.8877q.1025,0,.1025-.1143V48.5632a.0907.0907,0,0,0-.1025-.1026H14.5067q-.1143,0-.1143.1026V50.362A.101.101,0,0,0,14.5067,50.4763Zm3.24.3564a.6756.6756,0,0,1-.2168.5039.7073.7073,0,0,1-.51.211h-.5361a.1023.1023,0,0,0-.1152.1152v.6758c0,.0683.039.1015.1152.1015h.5869a.5322.5322,0,0,1,.5225.3575.0652.0652,0,0,0,.0517.0322.0665.0665,0,0,0,.0635-.02.5864.5864,0,0,1,.166-.0889A11.1183,11.1183,0,0,0,20.12,51.5866a.07.07,0,0,0,.0439-.0644.0865.0865,0,0,0-.0186-.0762A11.6743,11.6743,0,0,1,19.0994,50.31a.0876.0876,0,0,0-.1279-.0127q-.0762.1025-.28.332a.5812.5812,0,0,1-.4277.2031A.6155.6155,0,0,1,17.81,50.68c-.042-.043-.0635-.0293-.0635.0381Zm5.332,2.7178a11.2228,11.2228,0,0,1-1.85-1.1611.14.14,0,0,0-.1787,0,14.0239,14.0239,0,0,1-2.0664,1.1611c-.0088.0166-.0088.03,0,.0381h4.082c.0166,0,.0254-.0039.0254-.0127A.0353.0353,0,0,0,23.0789,53.5505ZM22.53,56.612V54.7878a.1016.1016,0,0,0-.1142-.1152H19.6727a.1017.1017,0,0,0-.1143.1152V56.612a.1017.1017,0,0,0,.1143.1152h2.7432A.1016.1016,0,0,0,22.53,56.612Zm-2.73-7.4883a.0786.0786,0,0,0,0,.1026,10.5876,10.5876,0,0,0,1.2627,1.4922.0951.0951,0,0,0,.1533,0A9.0851,9.0851,0,0,0,22.53,49.1628a.0437.0437,0,0,0,.0068-.0586.0639.0639,0,0,0-.0576-.0312H19.9032A.1233.1233,0,0,0,19.8006,49.1237Z"/><path d="M110.0321,17.4929a16.9822,16.9822,0,0,0-4.1065-3.9121h13.7617v.9375H108.4549a13.688,13.688,0,0,1,2.38,2.499Zm5.623-12.3477a16.7643,16.7643,0,0,0,4.1065,3.9278H106V8.1355h11.2325a13.6887,13.6887,0,0,1-2.38-2.4991Z"/><path class="a" d="M117.4959,32.6315a.39.39,0,0,1,0,.6739l-8.2041,4.7461a.3992.3992,0,0,1-.59-.3487l-.0127-9.4814a.3735.3735,0,0,1,.1992-.3438.3547.3547,0,0,1,.3916.0069Z"/><path class="a" d="M116.4119,47.7272a.3546.3546,0,0,1,.3916-.0068.371.371,0,0,1,.1983.3428l-.0117,9.4824a.3846.3846,0,0,1-.1983.3486.3455.3455,0,0,1-.3916,0l-8.2041-4.747a.39.39,0,0,1,0-.6739Z"/><rect class="b" x="31.1995" y="0.5476" width="68" height="20"/><path d="M47.201,11.4939a.55.55,0,0,1-.3955-.1592.518.518,0,0,1-.166-.39.5651.5651,0,0,1,.5615-.5605h1.0459a.1017.1017,0,0,0,.1143-.1153V5.7155a.7406.7406,0,0,1,.7275-.7275h7.36a.5206.5206,0,0,1,.3886.166.5709.5709,0,0,1,0,.791.52.52,0,0,1-.3886.166H49.8407c-.0762,0-.1143.0342-.1143.1016V6.736c0,.0684.0381.1016.1143.1016H56.13a.46.46,0,0,1,.3447.1475.51.51,0,0,1,0,.7011.46.46,0,0,1-.3447.1465h-6.289q-.1143,0-.1143.1026v.5478a.1013.1013,0,0,0,.1143.1152H56.13a.46.46,0,0,1,.3447.1465.4923.4923,0,0,1,.14.3506.4788.4788,0,0,1-.4844.4854h-6.289a.101.101,0,0,0-.1143.1142v.5742a.1017.1017,0,0,0,.1143.1153h7.8457a.5651.5651,0,0,1,.56.5605.518.518,0,0,1-.166.39.549.549,0,0,1-.3945.1592H52.494c-.0166,0-.0313.0126-.044.038s-.0107.043.0059.0508a9.73,9.73,0,0,0,2.13,1.7735c.0429.0341.0976.0253.166-.0254a11.0509,11.0509,0,0,0,1.1611-1.1866.7178.7178,0,0,1,.4463-.2617.708.708,0,0,1,.4971.0957.5269.5269,0,0,1,.2617.377.5024.5024,0,0,1-.1211.4394q-.5361.6123-1.1221,1.1612c-.0517.0507-.0468.0888.0127.1152a17.9132,17.9132,0,0,0,1.8877.7773.4811.4811,0,0,1,.3.3.5179.5179,0,0,1-.02.4278.7719.7719,0,0,1-.3691.3379.6265.6265,0,0,1-.4854.0195A12.724,12.724,0,0,1,50.9,11.5954a.2236.2236,0,0,0-.1787-.1015h-.8808a.1013.1013,0,0,0-.1143.1152v2.9336c0,.0762.042.1064.127.0888q1.6713-.2168,2.9345-.4462a.5227.5227,0,0,1,.4014.09.4708.4708,0,0,1,.2109.3438.6159.6159,0,0,1-.1025.4208.5107.5107,0,0,1-.3574.2295,52.3677,52.3677,0,0,1-5.37.74.5678.5678,0,0,1-.4267-.1211.55.55,0,0,1-.2109-.39.5212.5212,0,0,1,.1152-.4013.529.529,0,0,1,.37-.1973c.0928-.0088.2314-.0215.4141-.0391s.3213-.0293.415-.038c.0762,0,.1143-.042.1143-.127V11.6091a.1013.1013,0,0,0-.1143-.1152Z"/><path d="M72.9032,15.7292a.59.59,0,0,1-.4336-.1211.5492.5492,0,0,1-.2168-.39.5624.5624,0,0,1,.1338-.4336.586.586,0,0,1,.4023-.2168q.5859-.0645,1.76-.2168a.1245.1245,0,0,0,.1152-.128V13.0114c0-.0674-.0381-.1015-.1152-.1015H72.9549a.4932.4932,0,0,1-.37-.1592.5256.5256,0,0,1-.1533-.377.5217.5217,0,0,1,.5234-.5224h1.5938c.0771,0,.1152-.0342.1152-.1026V11.01a.1016.1016,0,0,0-.1152-.1153H73.286a.7407.7407,0,0,1-.7266-.7265V5.69a.7406.7406,0,0,1,.7266-.7275h4.0312a.7406.7406,0,0,1,.7266.7275V9.3249c0,.0518.03.0684.09.0518a.65.65,0,0,1,.23-.0381H80.48c.0176,0,.03-.0108.0381-.0322s.0049-.0362-.0127-.045q-.65-.6753-1.3389-1.3008a.547.547,0,0,1-.1845-.4023.5641.5641,0,0,1,.1591-.4141.5751.5751,0,0,1,.4209-.1787.6.6,0,0,1,.4209.166q.1275.1143.3633.3506t.3633.3506c.0518.0508.0977.0557.1406.0127q.65-.7134,1.25-1.5176c.043-.0595.0254-.09-.0508-.09H79.0643a.5738.5738,0,1,1,0-1.1475H82.98a.5669.5669,0,0,1,.5742.5742,1.7776,1.7776,0,0,1-.3183,1.0586A18.745,18.745,0,0,1,81.68,8.6872c-.0508.0518-.0469.1025.0127.1533l.3828.4209a.2223.2223,0,0,0,.1787.0772h1.1485a.5636.5636,0,0,1,.5732.5732,2.8543,2.8543,0,0,1-.2041,1.0977,12.6887,12.6887,0,0,1-.8037,1.6064.5622.5622,0,0,1-.376.2744.5491.5491,0,0,1-.4531-.083.6188.6188,0,0,1-.1914-.8291,11.2866,11.2866,0,0,0,.7275-1.39.0932.0932,0,0,0-.0068-.0772.06.06,0,0,0-.0566-.0381H81.5653a.1016.1016,0,0,0-.1153.1153v3.5586a3.4663,3.4663,0,0,1-.2041,1.5625q-.2036.2871-1.122.2871c-.4082,0-.7579-.0088-1.0469-.0254a.627.627,0,0,1-.4209-.1914.6338.6338,0,0,1-.19-.4336.4949.4949,0,0,1,.1523-.4024.5263.5263,0,0,1,.4082-.1464q.2813.0132.6768.0127c.2207,0,.35-.0274.3886-.0831a1.5363,1.5363,0,0,0,.0576-.58V10.5886a.1016.1016,0,0,0-.1152-.1153H78.3631a.5321.5321,0,0,1-.2422-.0507c-.0595-.0342-.1064-.0176-.1406.0507a.673.673,0,0,1-.6631.4209H76.118a.1013.1013,0,0,0-.1143.1153v.7392q0,.1026.1143.1026h1.4668a.523.523,0,1,1,0,1.0459H76.118a.101.101,0,0,0-.1143.1142v1.0205a.1193.1193,0,0,0,.0313.0772.0616.0616,0,0,0,.07.0254q.9052-.1407,1.48-.2422a.4349.4349,0,0,1,.37.0957.4674.4674,0,0,1,.1787.3506.56.56,0,0,1-.1406.4082.6867.6867,0,0,1-.3828.2295Q74.8943,15.4743,72.9032,15.7292Zm.8681-9.542V7.361a.0893.0893,0,0,0,.1016.1016h.6758c.0771,0,.1152-.0332.1152-.1016V6.1872c0-.0674-.0381-.1016-.1152-.1016h-.6758A.09.09,0,0,0,73.7713,6.1872Zm.7774,3.6865a.1013.1013,0,0,0,.1152-.1142V8.5349a.1016.1016,0,0,0-.1152-.1153h-.6758c-.0684,0-.1016.0381-.1016.1153V9.76c0,.0761.0332.1142.1016.1142Zm1.455-3.6865V7.361c0,.0684.0381.1016.1143.1016h.6377c.0771,0,.1152-.0332.1152-.1016V6.1872c0-.0674-.0381-.1016-.1152-.1016H76.118C76.0418,6.0856,76.0037,6.12,76.0037,6.1872Zm0,2.3477V9.76a.101.101,0,0,0,.1143.1142h.6377a.1013.1013,0,0,0,.1152-.1142V8.5349a.1016.1016,0,0,0-.1152-.1153H76.118A.1013.1013,0,0,0,76.0037,8.5349Z"/><path class="c" d="M46.8377,36.54a3.5061,3.5061,0,0,1-5.167,0,6.1,6.1,0,0,1-.86-3.6474,6.1009,6.1009,0,0,1,.86-3.6484,3.5061,3.5061,0,0,1,5.167,0,6.1,6.1,0,0,1,.86,3.6484A6.0987,6.0987,0,0,1,46.8377,36.54Zm-1.0459-6.4736a1.8324,1.8324,0,0,0-3.0742,0,5.783,5.783,0,0,0-.5039,2.8262,5.7787,5.7787,0,0,0,.5039,2.8252,1.8324,1.8324,0,0,0,3.0742,0,5.8029,5.8029,0,0,0,.503-2.8252A5.8072,5.8072,0,0,0,45.7918,30.0661Z"/><path d="M51.908,34.486a2.9682,2.9682,0,0,1-2.2451-.8476,3.2323,3.2323,0,0,1-.8164-2.3408,3.0387,3.0387,0,0,1,.918-2.3282,3.453,3.453,0,0,1,2.4619-.8613q3.3809,0,3.3809,4.082a6.9218,6.9218,0,0,1-1.002,4.1651,3.475,3.475,0,0,1-2.9531,1.32,7.7436,7.7436,0,0,1-1.3262-.1279.6718.6718,0,0,1-.4277-.2618.766.766,0,0,1-.1592-.4775.4138.4138,0,0,1,.1787-.3574.4885.4885,0,0,1,.4082-.0762,5.7958,5.7958,0,0,0,1.3262.1524,2.2426,2.2426,0,0,0,1.7412-.7207,3.0862,3.0862,0,0,0,.6953-2.06c0-.0176-.0039-.0254-.0127-.0254h-.0254A2.8973,2.8973,0,0,1,51.908,34.486Zm.3184-5.2295a1.9527,1.9527,0,0,0-1.4541.5293,2.0593,2.0593,0,0,0-.5225,1.5118,2.1635,2.1635,0,0,0,.542,1.5683,1.9007,1.9007,0,0,0,1.4346.5615,1.8457,1.8457,0,0,0,1.416-.5742,2.1869,2.1869,0,0,0,.5361-1.5556,2.0156,2.0156,0,0,0-.5546-1.4795A1.8848,1.8848,0,0,0,52.2264,29.2565Z"/><path d="M58.72,32.573a.7406.7406,0,0,1-.7276-.7266v-.46A.7406.7406,0,0,1,58.72,30.66h.2041a.7407.7407,0,0,1,.7265.7265v.46a.7407.7407,0,0,1-.7265.7266Zm0,4.9746a.7406.7406,0,0,1-.7276-.7266v-.46a.7406.7406,0,0,1,.7276-.7265h.2041a.7407.7407,0,0,1,.7265.7265v.46a.7407.7407,0,0,1-.7265.7266Z"/><path d="M63.2987,31.3483a.342.342,0,0,1-.5616-.2675v-.0772a1.4243,1.4243,0,0,1,.5616-1.1728L64.74,28.67a1.96,1.96,0,0,1,1.25-.4336.6969.6969,0,0,1,.7011.7012v7.9092a.7017.7017,0,1,1-1.4033,0V29.779a.0114.0114,0,0,0-.0127-.0127l-.0254.0127Z"/><path d="M71.7039,36.8718a36.039,36.039,0,0,1,3.4571-7.4492c0-.0088.0019-.0127.0068-.0127s.0059-.0049.0059-.0127-.0039-.0127-.0127-.0127H70.9647a.5743.5743,0,1,1,0-1.1485h4.9746a.5671.5671,0,0,1,.5742.5743,2,2,0,0,1-.2939,1.0586,34.0068,34.0068,0,0,0-3.0616,6.99.98.98,0,0,1-.3632.4971.9576.9576,0,0,1-.58.1914H72.202a.5049.5049,0,0,1-.4278-.2168A.4629.4629,0,0,1,71.7039,36.8718Z"/><path d="M86.2459,32.6755c-.0761,0-.1152.0332-.1152.1016v1.2753a.102.102,0,0,0,.1152.1153h2.6026a.5737.5737,0,1,1,0,1.1474H86.2459a.1024.1024,0,0,0-.1152.1153v1.6328c0,.1787.041.2871.1221.3252a2.61,2.61,0,0,0,.7461.0576,1.6829,1.6829,0,0,0,.86-.1338q.1728-.1347.2236-.7978a.6739.6739,0,0,1,.2168-.4463.566.566,0,0,1,.459-.1534.658.658,0,0,1,.459.2364.6835.6835,0,0,1,.166.4912c-.0166.3232-.04.582-.07.7783a1.4661,1.4661,0,0,1-.1777.5225,1.3242,1.3242,0,0,1-.2617.3379,1.058,1.058,0,0,1-.4659.1728,4.6322,4.6322,0,0,1-.6572.0762c-.2119.0088-.5273.0127-.9433.0127a8.5474,8.5474,0,0,1-1.3711-.0762.8238.8238,0,0,1-.543-.2617,1.1311,1.1311,0,0,1-.127-.6192V35.43a.102.102,0,0,0-.1152-.1153H82.7889a.1244.1244,0,0,0-.127.1153,4.34,4.34,0,0,1-3.3681,3.1377.622.622,0,0,1-.4912-.0508.73.73,0,0,1-.3379-.3828.5309.5309,0,0,1,.0254-.4531.5878.5878,0,0,1,.3574-.3,3.382,3.382,0,0,0,2.373-1.9765c.0166-.06-.0088-.09-.0771-.09H78.8983a.5737.5737,0,1,1,0-1.1474h2.4365c.0684,0,.1025-.0381.1025-.1153,0-.0166.002-.0507.0059-.1015s.0068-.085.0068-.1026V32.7771c0-.0684-.039-.1016-.1152-.1016H80.85a.5174.5174,0,0,1-.498-.3193c-.0342-.0684-.0762-.0811-.127-.0381q-.5493.3574-1.2119.7265a.5582.5582,0,0,1-.4717.045.599.599,0,0,1-.3574-.3125.6526.6526,0,0,1-.0381-.4913.6232.6232,0,0,1,.3057-.3759q1.0079-.548,1.5947-.9444a.0579.0579,0,0,0,.0381-.0634.1038.1038,0,0,0-.0254-.0762q-1.1352-1.0211-1.1738-1.06a.5387.5387,0,0,1-.1973-.4082.5515.5515,0,0,1,.1719-.4209.6932.6932,0,0,1,.4463-.1914.6586.6586,0,0,1,.459.1533q.2431.205,1.289,1.1612a.1352.1352,0,0,0,.166.0127,9.2079,9.2079,0,0,0,1.3643-1.4288.0423.0423,0,0,0,.0068-.0576.0639.0639,0,0,0-.0576-.0312H80.2381a.55.55,0,0,1-.3955-.16.5191.5191,0,0,1-.166-.3887.5668.5668,0,0,1,.5615-.5615h3.5332a1.2055,1.2055,0,0,1,1.084.625,8.3415,8.3415,0,0,0,.5488.7783.0808.0808,0,0,0,.1407.0127q.4335-.4848.8164-.97a.617.617,0,0,1,.3945-.248.6512.6512,0,0,1,.46.082.5575.5575,0,0,1,.2607.37.5168.5168,0,0,1-.0947.4209q-.5112.65-1.02,1.1992a.0951.0951,0,0,0,0,.1534q.293.268.7138.6123a.1071.1071,0,0,0,.1534,0q.42-.4469.9687-1.1612a.6241.6241,0,0,1,.4023-.248.658.658,0,0,1,.4659.082.5594.5594,0,0,1,.2607.377.5262.5262,0,0,1-.0947.4267q-.4468.5625-1.0342,1.1992a.0889.0889,0,0,0-.0186.0772.0682.0682,0,0,0,.045.0635q.74.4584,1.0332.6123a.6552.6552,0,0,1,.3125.3759.6417.6417,0,0,1-.0323.4913.5772.5772,0,0,1-.37.3193.6037.6037,0,0,1-.4843-.0518q-.4468-.2549-1.1612-.7265c-.06-.0342-.1064-.0176-.14.0508a.52.52,0,0,1-.4981.3066ZM81.36,31.5524h5.001a.04.04,0,0,0,.038-.0253.0257.0257,0,0,0-.0126-.0381,12.6,12.6,0,0,1-2.4747-2.6026c-.0341-.0508-.0722-.0468-.1152.0127a12.487,12.487,0,0,1-2.4619,2.59.0252.0252,0,0,0-.0127.0381A.04.04,0,0,0,81.36,31.5524Zm3.4062,2.5V32.7771c0-.0684-.038-.1016-.1152-.1016H82.93c-.0771,0-.1152.0332-.1152.1016v1.2753a.1016.1016,0,0,0,.1152.1153h1.7217A.1016.1016,0,0,0,84.7664,34.0524Z"/><path d="M42.201,51.1911a.3426.3426,0,0,1-.5615-.2685v-.0762a1.426,1.426,0,0,1,.5615-1.1738l1.4414-1.16a1.9606,1.9606,0,0,1,1.25-.4346.6969.6969,0,0,1,.7012.7022v7.9082a.7017.7017,0,1,1-1.4033,0V49.6218c0-.0088-.0039-.0127-.0127-.0127l-.0254.0127Z"/><path d="M52.3543,57.5173q-3.3809,0-3.3808-4.209a6.5826,6.5826,0,0,1,1.02-4.0244,3.4737,3.4737,0,0,1,2.9345-1.333,6.3888,6.3888,0,0,1,1.1983.1142.676.676,0,0,1,.4277.2618.791.791,0,0,1,.1592.4912.4024.4024,0,0,1-.1787.3447.4889.4889,0,0,1-.4082.0762,5.2253,5.2253,0,0,0-1.1983-.1407,2.1446,2.1446,0,0,0-1.6523.7207A3.468,3.468,0,0,0,50.492,51.88c0,.0166.0039.0254.0127.0254H50.53a2.898,2.898,0,0,1,2.1426-.7656,2.8486,2.8486,0,0,1,3.0615,3.0615,3.2141,3.2141,0,0,1-.918,2.4365A3.41,3.41,0,0,1,52.3543,57.5173Zm0-5.3193a1.8859,1.8859,0,0,0-1.41.5556,1.9821,1.9821,0,0,0-.542,1.4473,2.2274,2.2274,0,0,0,.5488,1.582,1.8332,1.8332,0,0,0,1.4033.5869,1.9048,1.9048,0,0,0,1.4541-.5547,2.2685,2.2685,0,0,0,.5225-1.6142,1.9725,1.9725,0,0,0-.542-1.46A1.94,1.94,0,0,0,52.3543,52.198Z"/><path d="M58.72,52.4157a.7422.7422,0,0,1-.7276-.7275v-.459a.7406.7406,0,0,1,.7276-.7275h.2041a.7406.7406,0,0,1,.7265.7275v.459a.7423.7423,0,0,1-.7265.7275Zm0,4.9746a.7406.7406,0,0,1-.7276-.7275v-.459a.7406.7406,0,0,1,.7276-.7275h.2041a.7406.7406,0,0,1,.7265.7275v.459a.7406.7406,0,0,1-.7265.7275Z"/><path d="M67.9354,56.3825a3.5082,3.5082,0,0,1-5.167,0,6.1,6.1,0,0,1-.86-3.6484,6.1048,6.1048,0,0,1,.86-3.6485,3.5084,3.5084,0,0,1,5.167,0,6.1056,6.1056,0,0,1,.86,3.6485A6.1009,6.1009,0,0,1,67.9354,56.3825ZM66.89,49.9089a1.8312,1.8312,0,0,0-3.0742,0,5.7785,5.7785,0,0,0-.5039,2.8252,5.7763,5.7763,0,0,0,.5039,2.8252,1.8312,1.8312,0,0,0,3.0742,0,5.8019,5.8019,0,0,0,.5029-2.8252A5.804,5.804,0,0,0,66.89,49.9089Z"/><path d="M71.3348,51.1911a.3426.3426,0,0,1-.5615-.2685v-.0762a1.426,1.426,0,0,1,.5615-1.1738l1.4414-1.16a1.9606,1.9606,0,0,1,1.25-.4346.6969.6969,0,0,1,.7012.7022v7.9082a.7017.7017,0,1,1-1.4033,0V49.6218c0-.0088-.004-.0127-.0127-.0127l-.0254.0127Z"/><path d="M89.116,51.114a.4806.4806,0,0,1,.3633.1533.5081.5081,0,0,1,0,.7139.481.481,0,0,1-.3633.1533H82.0233a.12.12,0,0,0-.127.1025c-.0088.0342-.0234.085-.0449.1524s-.0361.1191-.0449.1533c-.0166.0683.0088.1025.0771.1025h5.9317a.71.71,0,0,1,.51.21.6784.6784,0,0,1,.2168.5039v4.5156a.6845.6845,0,0,1-.2041.4912.665.665,0,0,1-.497.211h-.2549a.459.459,0,0,1-.4473-.4473.056.056,0,0,0-.0635-.0635H81.8836c-.0508,0-.0771.0215-.0771.0635a.4378.4378,0,0,1-.127.3125.4076.4076,0,0,1-.3066.1348h-.2422a.6758.6758,0,0,1-.6885-.69v-2.666c0-.0166-.0068-.0254-.0195-.0254a.0436.0436,0,0,0-.0313.0127A7.5017,7.5017,0,0,1,78.95,56.9821a.5143.5143,0,0,1-.46.1338.5753.5753,0,0,1-.4082-.2617.7605.7605,0,0,1-.1143-.5225.7469.7469,0,0,1,.2549-.4726,7.8239,7.8239,0,0,0,2.334-3.6221q.0264-.1024-.0762-.1025H78.5282a.481.481,0,0,1-.3633-.1533.5081.5081,0,0,1,0-.7139.4806.4806,0,0,1,.3633-.1533h4.6181c.0684,0,.1016-.0381.1016-.1143V50.68c0-.0762-.0332-.1143-.1016-.1143h-3.61a.5018.5018,0,0,1-.4971-.498.46.46,0,0,1,.1465-.3448.4923.4923,0,0,1,.3506-.14h3.61c.0684,0,.1016-.0381.1016-.1152V49.15c0-.0771-.0332-.1152-.1016-.1152H78.9237a.5236.5236,0,0,1-.5225-.5225.5254.5254,0,0,1,.1533-.3769.4908.4908,0,0,1,.3692-.1592h2.1435a.0629.0629,0,0,0,.0576-.0323.0422.0422,0,0,0-.0068-.0566.2917.2917,0,0,1-.0508-.083.2852.2852,0,0,0-.0508-.083.4712.4712,0,0,1-.039-.44.4629.4629,0,0,1,.332-.3.8138.8138,0,0,1,.5488.0127.8254.8254,0,0,1,.4209.3574l.3057.5361a.1653.1653,0,0,0,.1533.0889h2.2324a.1966.1966,0,0,0,.1661-.0889c.0332-.06.123-.2217.2675-.4853a.892.892,0,0,1,.4082-.3829.8247.8247,0,0,1,.5489-.0634.52.52,0,0,1,.3632.3.49.49,0,0,1-.02.4658c-.0088.0166-.0254.0439-.0508.083a.6978.6978,0,0,0-.0507.083.0551.0551,0,0,0,.0058.0566.0629.0629,0,0,0,.0576.0323h2.0537a.4945.4945,0,0,1,.37.1592.53.53,0,0,1,.1533.3769.5236.5236,0,0,1-.5235.5225H84.7664a.1016.1016,0,0,0-.1152.1152v.3184a.1016.1016,0,0,0,.1152.1152h3.3418a.4923.4923,0,0,1,.3506.14.46.46,0,0,1,.1465.3448.5018.5018,0,0,1-.4971.498H84.7664a.1013.1013,0,0,0-.1152.1143V51a.1013.1013,0,0,0,.1152.1143Zm-7.3095,2.6533v.3574a.1017.1017,0,0,0,.1152.1143h5.1152c.0674,0,.1016-.0381.1016-.1143v-.3574a.09.09,0,0,0-.1016-.1016H81.9217C81.8455,53.6657,81.8065,53.7,81.8065,53.7673Zm0,1.4414v.3447a.1017.1017,0,0,0,.1152.1143h5.1152c.0674,0,.1016-.0381.1016-.1143v-.3447c0-.0762-.0342-.1143-.1016-.1143H81.9217A.1017.1017,0,0,0,81.8065,55.2087Zm0,1.4287v.3574a.1017.1017,0,0,0,.1152.1143h5.1152c.0674,0,.1016-.0381.1016-.1143v-.3574c0-.0762-.0342-.1143-.1016-.1143H81.9217A.1017.1017,0,0,0,81.8065,56.6374Z"/><rect class="b" x="126.4928" y="0.5476" width="68" height="20"/><path d="M142.5711,10.8054a.6382.6382,0,1,1,0-1.2764h4.3242c.0684,0,.1016-.0381.1016-.1143V5.3708a.7406.7406,0,0,1,.7275-.7266h.0254a.7406.7406,0,0,1,.7276.7266V9.4147c0,.0762.0332.1143.1015.1143h4.3243a.6382.6382,0,1,1,0,1.2764h-4.3243a.09.09,0,0,0-.1015.1015v4.6182a.7406.7406,0,0,1-.7276.7266h-.0254a.7406.7406,0,0,1-.7275-.7266V10.9069a.09.09,0,0,0-.1016-.1015Z"/><path d="M156.59,16.06a.697.697,0,0,1-.6885-.6885V5.8171a.7406.7406,0,0,1,.7266-.7266h7.73a.7406.7406,0,0,1,.7266.7266v9.5547a.697.697,0,0,1-.6885.6885h-.0127a.6537.6537,0,0,1-.6631-.6631.0906.0906,0,0,0-.1025-.1026h-6.25c-.06,0-.09.0342-.09.1026a.63.63,0,0,1-.1973.4717.661.661,0,0,1-.4785.1914Zm.6885-9.6817V9.3767q0,.1142.1025.1142h6.2246a.1012.1012,0,0,0,.1152-.1142V6.3786a.1012.1012,0,0,0-.1152-.1142h-6.2246Q157.2781,6.2644,157.2782,6.3786Zm0,4.375v3.291a.0906.0906,0,0,0,.1025.1026h6.2246c.0772,0,.1152-.0342.1152-.1026v-3.291a.1012.1012,0,0,0-.1152-.1142h-6.2246Q157.2781,10.6394,157.2782,10.7536Z"/><path d="M168.9442,14.364a.694.694,0,0,1-.9571,0,.6323.6323,0,0,1-.1982-.4717V5.779a.676.676,0,0,1,.2178-.5039.7086.7086,0,0,1,.51-.21h4.9366a.7168.7168,0,0,1,.7138.7139v.09a.1017.1017,0,0,0,.1153.1142h4.248a.587.587,0,1,1,0,1.1738h-.5488c-.0684,0-.1016.0381-.1016.1143v6.9394a9.5809,9.5809,0,0,1-.039,1.0206.8877.8877,0,0,1-.7842.791,9.2482,9.2482,0,0,1-1.001.0381q-.3061,0-1.2764-.0381a.6613.6613,0,0,1-.4394-.1914.6138.6138,0,0,1-.1983-.4209.5277.5277,0,0,1,.5616-.5616c.5615.0254.9394.0391,1.1357.0391q.4967,0,.58-.09a1.151,1.151,0,0,0,.083-.587V7.2712q0-.1143-.1026-.1143h-2.1171a.1017.1017,0,0,0-.1153.1143v6.3916a.6293.6293,0,0,1-.1777.4521.5944.5944,0,0,1-.4473.1856h-.0381a.5676.5676,0,0,1-.4267-.1787.586.586,0,0,1-.1729-.4209c0-.06-.0341-.09-.1015-.09H169.244a.0907.0907,0,0,0-.1026.1026v.1787A.6351.6351,0,0,1,168.9442,14.364Zm.1972-8.0489v2.334c0,.0772.0342.1153.1026.1153h1.0586a.1013.1013,0,0,0,.1142-.1153V6.3151q0-.1025-.1142-.1025H169.244A.0907.0907,0,0,0,169.1414,6.3151Zm0,3.6348v2.4619c0,.0772.0342.1153.1026.1153h1.0586a.1013.1013,0,0,0,.1142-.1153V9.95a.101.101,0,0,0-.1142-.1143H169.244Q169.1414,9.8356,169.1414,9.95Zm2.4746-3.6348v2.334a.1016.1016,0,0,0,.1153.1153H172.79a.1013.1013,0,0,0,.1142-.1153V6.3151q0-.1025-.1142-.1025h-1.0586C171.6541,6.2126,171.616,6.2468,171.616,6.3151Zm0,3.6348v2.4619a.1016.1016,0,0,0,.1153.1153H172.79a.1013.1013,0,0,0,.1142-.1153V9.95a.101.101,0,0,0-.1142-.1143h-1.0586A.1013.1013,0,0,0,171.616,9.95Z"/><path d="M137.495,31.3483a.342.342,0,0,1-.5616-.2675v-.0772a1.4243,1.4243,0,0,1,.5616-1.1728l1.4414-1.1612a1.96,1.96,0,0,1,1.25-.4336.6969.6969,0,0,1,.7011.7012v7.9092a.7017.7017,0,1,1-1.4033,0V29.779a.0114.0114,0,0,0-.0127-.0127l-.0254.0127Z"/><path d="M145.5311,31.3483a.3419.3419,0,0,1-.5615-.2675v-.0772a1.4242,1.4242,0,0,1,.5615-1.1728l1.4414-1.1612a1.96,1.96,0,0,1,1.25-.4336.6969.6969,0,0,1,.7012.7012v7.9092a.7017.7017,0,1,1-1.4034,0V29.779a.0114.0114,0,0,0-.0127-.0127l-.0253.0127Z"/><path d="M154.0135,32.573a.7406.7406,0,0,1-.7275-.7266v-.46a.7406.7406,0,0,1,.7275-.7265h.2041a.7407.7407,0,0,1,.7266.7265v.46a.7406.7406,0,0,1-.7266.7266Zm0,4.9746a.7406.7406,0,0,1-.7275-.7266v-.46a.7406.7406,0,0,1,.7275-.7265h.2041a.7407.7407,0,0,1,.7266.7265v.46a.7406.7406,0,0,1-.7266.7266Z"/><path d="M157.3807,35.5065a.5651.5651,0,0,1-.5615-.5605,1.7527,1.7527,0,0,1,.3183-1.02l3.56-5.1279a1.2356,1.2356,0,0,1,1.084-.5616.697.697,0,0,1,.6885.6885v5.3574c0,.0684.039.1026.1152.1026h.8164a.561.561,0,0,1,0,1.122h-.8164a.1024.1024,0,0,0-.1152.1153v1.2373a.6885.6885,0,0,1-1.377,0V35.6218a.102.102,0,0,0-.1152-.1153Zm.8545-1.16c0,.0078-.002.0127-.0068.0127s-.0059.0039-.0059.0127.0039.0127.0127.0127h2.7422c.0771,0,.1152-.0342.1152-.1026V30.2771a.0114.0114,0,0,0-.0127-.0127c-.0176,0-.0254.0039-.0254.0127Z"/><path d="M166.6287,31.3483a.3419.3419,0,0,1-.5615-.2675v-.0772a1.4242,1.4242,0,0,1,.5615-1.1728L168.07,28.67a1.9606,1.9606,0,0,1,1.25-.4336.6969.6969,0,0,1,.7012.7012v7.9092a.7017.7017,0,1,1-1.4033,0V29.779a.0114.0114,0,0,0-.0127-.0127l-.0254.0127Z"/><path d="M184.41,31.2722a.484.484,0,0,1,.3633.1523.5093.5093,0,0,1,0,.7149.4849.4849,0,0,1-.3633.1533h-7.0928a.12.12,0,0,0-.1269.1015c-.0088.0342-.0235.085-.045.1534s-.0361.1191-.0449.1533c-.0166.0674.0088.1015.0772.1015h5.9316a.7076.7076,0,0,1,.51.211.6756.6756,0,0,1,.2168.5039v4.5156a.6826.6826,0,0,1-.2041.49.665.665,0,0,1-.4971.211H182.88a.457.457,0,0,1-.4472-.4463.0556.0556,0,0,0-.0635-.0635h-5.1914c-.0508,0-.0772.02-.0772.0635a.44.44,0,0,1-.1269.3125.41.41,0,0,1-.3067.1338h-.2422a.674.674,0,0,1-.6884-.6885V35.38c0-.0176-.0069-.0254-.02-.0254a.04.04,0,0,0-.0312.0127,7.482,7.482,0,0,1-1.4414,1.7725.5148.5148,0,0,1-.46.1337.574.574,0,0,1-.4082-.2607.763.763,0,0,1-.1142-.5234.744.744,0,0,1,.2548-.4717,7.826,7.826,0,0,0,2.334-3.6231c.0176-.0673-.0078-.1015-.0762-.1015h-1.9521a.4849.4849,0,0,1-.3633-.1533.5093.5093,0,0,1,0-.7149.484.484,0,0,1,.3633-.1523H178.44c.0683,0,.1015-.0381.1015-.1153v-.3183c0-.0772-.0332-.1153-.1015-.1153h-3.61a.5.5,0,0,1-.4971-.497.4588.4588,0,0,1,.1465-.3448.4894.4894,0,0,1,.3506-.1406h3.61c.0683,0,.1015-.0381.1015-.1142v-.3194c0-.0761-.0332-.1142-.1015-.1142h-4.2227a.5237.5237,0,0,1-.5225-.5235.5228.5228,0,0,1,.1534-.3759.4915.4915,0,0,1,.3691-.16h2.1436a.0621.0621,0,0,0,.0576-.0313.0435.0435,0,0,0-.0069-.0576.2779.2779,0,0,1-.0507-.083.3162.3162,0,0,0-.0508-.083.4689.4689,0,0,1-.0391-.4394.4613.4613,0,0,1,.3321-.3.8078.8078,0,0,1,.5488.0127.8192.8192,0,0,1,.4209.3564l.3056.5361a.1654.1654,0,0,0,.1534.0889h2.2324a.1964.1964,0,0,0,.166-.0889c.0332-.0595.123-.2207.2676-.4843a.8916.8916,0,0,1,.4082-.3829.8248.8248,0,0,1,.5488-.0644.5205.5205,0,0,1,.3633.3.49.49,0,0,1-.02.4658.8767.8767,0,0,1-.0508.083.7966.7966,0,0,0-.0508.083.0569.0569,0,0,0,.0059.0576.0621.0621,0,0,0,.0576.0313h2.0537a.4952.4952,0,0,1,.37.16.5268.5268,0,0,1,.1533.3759.5236.5236,0,0,1-.5234.5235H180.06a.1013.1013,0,0,0-.1153.1142v.3194a.1013.1013,0,0,0,.1153.1142h3.3418a.4894.4894,0,0,1,.3506.1406.4587.4587,0,0,1,.1464.3448.5.5,0,0,1-.497.497H180.06a.1016.1016,0,0,0-.1153.1153v.3183a.1016.1016,0,0,0,.1153.1153Zm-7.31,2.6533v.3564a.102.102,0,0,0,.1153.1153h5.1152c.0674,0,.1016-.0381.1016-.1153v-.3564a.09.09,0,0,0-.1016-.1025h-5.1152C177.14,33.823,177.1,33.8571,177.1,33.9255Zm0,1.4414v.3437a.102.102,0,0,0,.1153.1153h5.1152c.0674,0,.1016-.0381.1016-.1153v-.3437c0-.0772-.0342-.1152-.1016-.1152h-5.1152A.102.102,0,0,0,177.1,35.3669Zm0,1.4287v.3565a.102.102,0,0,0,.1153.1152h5.1152c.0674,0,.1016-.0381.1016-.1152v-.3565c0-.0771-.0342-.1152-.1016-.1152h-5.1152A.102.102,0,0,0,177.1,36.7956Z"/><path d="M137.495,51.1911a.3426.3426,0,0,1-.5616-.2685v-.0762a1.4261,1.4261,0,0,1,.5616-1.1738l1.4414-1.16a1.9606,1.9606,0,0,1,1.25-.4346.6969.6969,0,0,1,.7011.7022v7.9082a.7017.7017,0,1,1-1.4033,0V49.6218c0-.0088-.0039-.0127-.0127-.0127l-.0254.0127Z"/><path d="M149.9823,49.6218,147.661,51.88a.0353.0353,0,0,0-.0127.0254c0,.0088.0039.0127.0127.0127h.2422a2.6741,2.6741,0,0,1,1.9257.6572,2.4739,2.4739,0,0,1,.69,1.8809,2.8917,2.8917,0,0,1-.8867,2.2578,3.58,3.58,0,0,1-2.4942.8037,6.8086,6.8086,0,0,1-1.7978-.2422.8058.8058,0,0,1-.4531-.3125.8917.8917,0,0,1-.1719-.542.402.402,0,0,1,.1972-.3574.4528.4528,0,0,1,.4151-.0508,5.4815,5.4815,0,0,0,1.81.3574,2.02,2.02,0,0,0,1.461-.498,1.8723,1.8723,0,0,0,.5166-1.416,1.2981,1.2981,0,0,0-.5547-1.1543,3.3175,3.3175,0,0,0-1.8047-.376h-.3574a.5437.5437,0,0,1-.5362-.5361,1.1862,1.1862,0,0,1,.3829-.9053l2.3466-2.22a.0353.0353,0,0,0,.0137-.0254.0121.0121,0,0,0-.0137-.0127h-3.3672a.5743.5743,0,1,1,0-1.1485h4.5918a.5673.5673,0,0,1,.5743.5743A1.27,1.27,0,0,1,149.9823,49.6218Z"/><path d="M154.0135,52.4157a.7422.7422,0,0,1-.7275-.7275v-.459a.7406.7406,0,0,1,.7275-.7275h.2041a.7406.7406,0,0,1,.7266.7275v.459a.7423.7423,0,0,1-.7266.7275Zm0,4.9746a.7406.7406,0,0,1-.7275-.7275v-.459a.7406.7406,0,0,1,.7275-.7275h.2041a.7406.7406,0,0,1,.7266.7275v.459a.7406.7406,0,0,1-.7266.7275Z"/><path d="M163.2293,56.3825a3.5082,3.5082,0,0,1-5.167,0,6.1009,6.1009,0,0,1-.86-3.6484,6.1056,6.1056,0,0,1,.86-3.6485,3.5084,3.5084,0,0,1,5.167,0,6.1048,6.1048,0,0,1,.86,3.6485A6.1,6.1,0,0,1,163.2293,56.3825Zm-1.0459-6.4736a1.8312,1.8312,0,0,0-3.0742,0,5.7785,5.7785,0,0,0-.5039,2.8252,5.7763,5.7763,0,0,0,.5039,2.8252,1.8312,1.8312,0,0,0,3.0742,0,5.8005,5.8005,0,0,0,.503-2.8252A5.8027,5.8027,0,0,0,162.1834,49.9089Z"/><path d="M166.4881,57.2878a.7693.7693,0,0,1-.4463-.3184.9454.9454,0,0,1-.166-.5488.387.387,0,0,1,.1973-.3506.4635.4635,0,0,1,.415-.0449,5.1527,5.1527,0,0,0,1.6836.3447,1.89,1.89,0,0,0,2.169-2.1045q0-1.7739-1.6582-1.7734a2.3086,2.3086,0,0,0-1.0469.23,2.7218,2.7218,0,0,1-1.084.332.5676.5676,0,0,1-.4268-.1787.5447.5447,0,0,1-.16-.4209l.1914-3.6484a.7911.7911,0,0,1,.2422-.5166.7235.7235,0,0,1,.5234-.211h3.8652a.5743.5743,0,1,1,0,1.1485h-3.2148c-.0684,0-.1016.0381-.1016.1152l-.1279,2.4229c0,.0087.0088.0127.0254.0127l.0254-.0127a3.2647,3.2647,0,0,1,1.5439-.3692,2.7692,2.7692,0,0,1,2.0664.752,2.8935,2.8935,0,0,1,.7393,2.1181,3.1187,3.1187,0,0,1-.9053,2.43,3.8389,3.8389,0,0,1-2.666.8223A6.0861,6.0861,0,0,1,166.4881,57.2878Z"/><path d="M181.54,52.5173c-.0762,0-.1153.0342-.1153.1025v1.2754a.1017.1017,0,0,0,.1153.1143h2.6025a.5742.5742,0,1,1,0,1.1484H181.54a.1017.1017,0,0,0-.1153.1143V56.905c0,.1787.0411.2871.1221.3252a2.5744,2.5744,0,0,0,.7461.0576,1.6722,1.6722,0,0,0,.86-.1338q.1728-.1334.2236-.7969a.6743.6743,0,0,1,.2168-.4463.5629.5629,0,0,1,.459-.1533.6567.6567,0,0,1,.459.2354.685.685,0,0,1,.166.4912q-.0249.4848-.07.7783a1.4683,1.4683,0,0,1-.1778.5234,1.3342,1.3342,0,0,1-.2617.3379,1.0576,1.0576,0,0,1-.4658.1719,4.4992,4.4992,0,0,1-.6572.0772c-.212.0078-.5274.0127-.9434.0127a8.5178,8.5178,0,0,1-1.3711-.0772.8151.8151,0,0,1-.543-.2617,1.1282,1.1282,0,0,1-.1269-.6182V55.2722a.1013.1013,0,0,0-.1153-.1143h-1.8623a.1235.1235,0,0,0-.1269.1143,4.3423,4.3423,0,0,1-3.3682,3.1386.6222.6222,0,0,1-.4912-.0517.7286.7286,0,0,1-.3379-.3819.5311.5311,0,0,1,.0254-.4531.5851.5851,0,0,1,.3574-.3,3.381,3.381,0,0,0,2.3731-1.9775c.0166-.0586-.0088-.0889-.0772-.0889h-2.2451a.5742.5742,0,1,1,0-1.1484h2.4365q.1026,0,.1026-.1143c0-.0176.0019-.0517.0058-.1025s.0069-.085.0069-.1016V52.62c0-.0683-.0391-.1025-.1153-.1025h-.4843a.5176.5176,0,0,1-.4981-.3193c-.0342-.0674-.0762-.08-.1269-.0381q-.5493.3573-1.2119.7275a.5615.5615,0,0,1-.4717.0449.6045.6045,0,0,1-.3574-.3125.6521.6521,0,0,1-.0381-.4912.6247.6247,0,0,1,.3056-.3769q1.0078-.548,1.5948-.9434a.06.06,0,0,0,.038-.0644.1069.1069,0,0,0-.0253-.0762q-1.1353-1.0211-1.1739-1.0586a.5406.5406,0,0,1-.1972-.4082.5515.5515,0,0,1,.1718-.4209.6884.6884,0,0,1,.4463-.1914.6532.6532,0,0,1,.459.1533q.2431.2035,1.2891,1.16a.135.135,0,0,0,.166.0126,9.1626,9.1626,0,0,0,1.3642-1.4287.0412.0412,0,0,0,.0069-.0566.0628.0628,0,0,0-.0576-.0322h-2.2959a.5493.5493,0,0,1-.3955-.1592.5212.5212,0,0,1-.1661-.39.5653.5653,0,0,1,.5616-.5605h3.5332a1.2034,1.2034,0,0,1,1.0839.625,8.3594,8.3594,0,0,0,.5489.7773.08.08,0,0,0,.1406.0127q.4337-.4833.8164-.9687a.6219.6219,0,0,1,.3945-.249.6516.6516,0,0,1,.46.083.5553.5553,0,0,1,.2607.37.5172.5172,0,0,1-.0947.4209q-.5112.65-1.02,1.1992a.0942.0942,0,0,0,0,.1523q.293.2682.7139.6124a.107.107,0,0,0,.1533,0,15.1,15.1,0,0,0,.9687-1.16.63.63,0,0,1,.4024-.249.6634.6634,0,0,1,.4658.083.5575.5575,0,0,1,.2608.376.53.53,0,0,1-.0948.4277q-.4467.561-1.0342,1.1992a.0856.0856,0,0,0-.0185.0762.066.066,0,0,0,.0449.0635q.74.46,1.0332.6123a.6564.6564,0,0,1,.3125.3769.6419.6419,0,0,1-.0322.4912.5758.5758,0,0,1-.37.3184.6037.6037,0,0,1-.4844-.0508q-.4468-.2548-1.1611-.7275c-.06-.0332-.1065-.0166-.14.0517a.5186.5186,0,0,1-.498.3057Zm-4.8858-1.1221h5.001a.0414.0414,0,0,0,.0381-.0263.0258.0258,0,0,0-.0127-.0381,12.62,12.62,0,0,1-2.4746-2.6016c-.0342-.0518-.0723-.0469-.1152.0127a12.511,12.511,0,0,1-2.462,2.5889.0253.0253,0,0,0-.0127.0381A.0414.0414,0,0,0,176.6541,51.3952Zm3.4063,2.5V52.62c0-.0683-.0381-.1025-.1153-.1025h-1.7216c-.0772,0-.1153.0342-.1153.1025v1.2754a.1013.1013,0,0,0,.1153.1143h1.7216A.1013.1013,0,0,0,180.06,53.8952Z"/></svg>