<svg xmlns="http://www.w3.org/2000/svg" viewBox="0 0 472.5879 46.6475"><defs><style>.a{fill:#c55b69;}.b{fill:#abbb3c;}.c{fill:#8e5a4e;}</style></defs><path d="M26.1143,18.9033a1.081,1.081,0,0,1-.78-.1943,1.0573,1.0573,0,0,1-.4424-.6738,30.0762,30.0762,0,0,1-.6553-6.4131,30.0749,30.0749,0,0,1,.6553-6.4131,1.0573,1.0573,0,0,1,.4424-.6738,1.0864,1.0864,0,0,1,.78-.1954l.6728.09a.8157.8157,0,0,1,.62.3633.8921.8921,0,0,1,.1416.7343,29.3283,29.3283,0,0,0-.6025,6.0948,29.3211,29.3211,0,0,0,.6025,6.0947.8707.8707,0,0,1-.1416.7266.8825.8825,0,0,1-.62.3711Zm6.6611.1065a4.7723,4.7723,0,0,1-3.1621-.9473,3.2534,3.2534,0,0,1-1.125-2.6309,3.1721,3.1721,0,0,1,1.1162-2.5781,4.8227,4.8227,0,0,1,3.1709-.93,5.4375,5.4375,0,0,1,1.0625.1055c.0947.0234.1426-.0176.1426-.124V9.2129a.1418.1418,0,0,0-.16-.16H30.1357a.9415.9415,0,0,1-.7-.3007.9879.9879,0,0,1-.2919-.709V7.6357a.9842.9842,0,0,1,.2919-.708.9424.9424,0,0,1,.7-.3017H33.82c.1065,0,.16-.0469.16-.1416V5.0312a.9378.9378,0,0,1,.3007-.6992.9834.9834,0,0,1,.709-.2929h.708a.9986.9986,0,0,1,.9922.9921V6.4844c0,.0947.0537.1416.16.1416h1.6113a1.0309,1.0309,0,0,1,1.0108,1.01V8.043a1.0291,1.0291,0,0,1-1.0108,1.01H36.8506a.1418.1418,0,0,0-.16.16V13.5a.3579.3579,0,0,0,.1241.248q.8334.7441,2.1084,2.0372a1.0145,1.0145,0,0,1,.2832.7177.9782.9782,0,0,1-.3008.7178l-.3545.3359a.9971.9971,0,0,1-.708.2832.91.91,0,0,1-.6914-.3007c-.06-.07-.1534-.1709-.2832-.3008s-.2246-.23-.2842-.3008a.1315.1315,0,0,0-.0967-.0361.0758.0758,0,0,0-.08.0537Q35.5929,19.0088,32.7754,19.01Zm-.1592-4.6592q-1.5249,0-1.5234,1.081,0,1.1514,1.5234,1.15a1.4371,1.4371,0,0,0,1.0449-.3183,1.4643,1.4643,0,0,0,.3194-1.0625v-.3194a.2206.2206,0,0,0-.1426-.23A2.64,2.64,0,0,0,32.6162,14.3506Z"/><path d="M56.002,6.8916a.0888.0888,0,0,0-.08.0439.06.06,0,0,0,.0088.08l.3906.6026a.897.897,0,0,1,.1328.7441.9549.9549,0,0,1-.4521.62q-.4248.2667-.9747.5488a.1873.1873,0,0,0-.1064.23q.1245,1.0811.248,1.666a.0861.0861,0,0,0,.0713.0616.0981.0981,0,0,0,.0889-.0264l.584-.4258a.901.901,0,0,1,.7178-.1855.8427.8427,0,0,1,.6113.3984l.1592.248a1.1219,1.1219,0,0,1,.16.7969,1.1529,1.1529,0,0,1-.4082.709q-.7793.6035-1.1689.8857c-.0948.0713-.124.1475-.0889.2305a12.5288,12.5288,0,0,0,1.4883,2.8877,1.2241,1.2241,0,0,1,.2392.7705,1.1338,1.1338,0,0,1-.2919.7529l-.5674.62a.8241.8241,0,0,1-.6641.292.7581.7581,0,0,1-.6289-.3272q-1.9321-2.7642-2.6934-8.3447c-.0234-.0938-.0771-.1172-.1591-.07a.3092.3092,0,0,0-.0889.0351.379.379,0,0,0-.0879.0528.207.207,0,0,0-.1426.2129v7.6894a.9387.9387,0,0,1-.3008.6992.9847.9847,0,0,1-.7089.293h-.7256a.9816.9816,0,0,1-.709-.293.94.94,0,0,1-.3018-.6992V11.9766c0-.0821-.0351-.1123-.1054-.0889a.7921.7921,0,0,1-.5938-.0537.8167.8167,0,0,1-.416-.4424l-.16-.46q-.0351-.0175-.0527,0-.0176,2.5328-.08,4.0655t-.1679,2.5068a3.5436,3.5436,0,0,1-.3633,1.3906,1.2831,1.2831,0,0,1-.5225.5313,2.1026,2.1026,0,0,1-.7978.1152q-.1422,0-1.169-.07a1.1412,1.1412,0,0,1-1.0449-1.0986l-.0176-1.0811c0-.0117-.01-.0176-.0273-.0176s-.0264.0059-.0264.0176a15.626,15.626,0,0,1-.62,1.7012.6732.6732,0,0,1-.5225.3984.7481.7481,0,0,1-.6464-.1855l-.6026-.5674a1.3176,1.3176,0,0,1-.3984-.7529,1.57,1.57,0,0,1,.0791-.8594q1.0282-2.71,1.0283-9.2129c0-.082-.0537-.123-.16-.123h-.0175a1.0311,1.0311,0,0,1-1.01-1.01V6.3066a1.031,1.031,0,0,1,1.01-1.01h1.1162a.1249.1249,0,0,0,.1416-.1416v-.833a.94.94,0,0,1,.3017-.6993.9811.9811,0,0,1,.708-.2929h.7266a.9848.9848,0,0,1,.709.2929.9428.9428,0,0,1,.3008.6993v.833c0,.0947.0537.1416.16.1416H47.498a1.0291,1.0291,0,0,1,1.01,1.01c0,.083.0234.1016.0713.0538a18.3633,18.3633,0,0,0,1.4883-2.4268,1.2661,1.2661,0,0,1,.5928-.585,1.1782,1.1782,0,0,1,.8242-.0888l.6025.1416a.7758.7758,0,0,1,.5225.417.7493.7493,0,0,1,.0263.664c-.0234.07,0,.1055.0713.1055h3.9151a1.0289,1.0289,0,0,1,1.01,1.0107v.3008a.9433.9433,0,0,1-.3007.7.984.984,0,0,1-.709.292ZM45.124,17.0254a.3223.3223,0,0,0,.2744-.1055,2.0357,2.0357,0,0,0,.16-.6738,14.446,14.446,0,0,0,.0967-1.6387q.0176-1.0722.0176-3.1094a.1411.1411,0,0,0-.1592-.16H45a.1411.1411,0,0,0-.1592.16,27.3306,27.3306,0,0,1-.6738,5.2266.129.129,0,0,0,.1064.1768A4.1362,4.1362,0,0,0,45.124,17.0254Zm4.0391-7.5469a.0874.0874,0,0,0,.0449-.0625.0845.0845,0,0,0-.0273-.08L48.0469,8.61a.8065.8065,0,0,1-.39-.8155c0-.082-.0351-.123-.1064-.123a.1343.1343,0,0,0-.0528.0176H45.0889c-.1065,0-.16.0468-.16.1406v.9746c0,.1074.0479.16.1426.16h2.1435a1.0291,1.0291,0,0,1,1.01,1.01v.0527q0,.0353.0264.0352a.06.06,0,0,0,.0439-.0176,1.0113,1.0113,0,0,1,.55-.4609Zm5.7051-2.5156a.0619.0619,0,0,0,.0175-.0449q0-.0264-.0351-.0264H51.5371a.2706.2706,0,0,0-.23.124,17.6584,17.6584,0,0,1-1.6484,2.2149q-.0175.0351,0,.0527a.0229.0229,0,0,0,.0361,0A37.6964,37.6964,0,0,0,54.8682,6.9629Z"/><path d="M60.4307,7.5469a1.0293,1.0293,0,0,1-1.01-1.01V6.2715a.9381.9381,0,0,1,.3018-.6992.981.981,0,0,1,.708-.293h6.9277a.14.14,0,0,0,.1592-.1592V4.5a.9408.9408,0,0,1,.3008-.6992.9847.9847,0,0,1,.7089-.293h.709a.9408.9408,0,0,1,.6992.3008.9845.9845,0,0,1,.293.709V5.12a.14.14,0,0,0,.1592.1592h3.5078a.9849.9849,0,0,1,.709.293.9408.9408,0,0,1,.3008.6992v.2656a1.0275,1.0275,0,0,1-1.01,1.01H70.3877a.1411.1411,0,0,0-.1592.16v3.0469a.8087.8087,0,0,0,.07.2656,5.6616,5.6616,0,0,1,.4785,2.32,5.211,5.211,0,0,1-1.3906,3.9073,8.2156,8.2156,0,0,1-4.6152,1.8154.95.95,0,0,1-.7617-.1855,1.12,1.12,0,0,1-.4258-.6817l-.07-.4785a.8984.8984,0,0,1,.1679-.7178.9174.9174,0,0,1,.6465-.3808,8.3177,8.3177,0,0,0,2.6407-.6465,1.9936,1.9936,0,0,0,.9736-1.1612.088.088,0,0,1,.0176-.0439.0886.0886,0,0,0,.0185-.0439c0-.0235-.0068-.0352-.0185-.0352h-.0352a3.9836,3.9836,0,0,1-2.0547.5313,3.8727,3.8727,0,0,1-2.7373-.9747,3.29,3.29,0,0,1-1.0547-2.5332A3.2624,3.2624,0,0,1,63.15,9.1777a4.3959,4.3959,0,0,1,4.3144-.6914c.0108,0,.0176.003.0176.0088s.0059.0088.0176.0088.0176-.0117.0176-.0351V7.707a.1411.1411,0,0,0-.1592-.16ZM67.35,12.668a1.3089,1.3089,0,0,0,0-1.9141,1.7821,1.7821,0,0,0-2.18,0,1.3089,1.3089,0,0,0,0,1.9141,1.7859,1.7859,0,0,0,2.18,0Z"/><path d="M78.2891,12.543l-.0879-.1592a1.0682,1.0682,0,0,1-.0537-.7881,1.0572,1.0572,0,0,1,.4785-.6289l6.75-3.9688.0176-.0175H79.9375a.943.943,0,0,1-.7-.3008.984.984,0,0,1-.292-.709V5.6338a.98.98,0,0,1,.292-.708.94.94,0,0,1,.7-.3018h9.5664a1.0293,1.0293,0,0,1,1.01,1.01V6.041a1.5246,1.5246,0,0,1-.8682,1.4707L85.2344,9.8506v.0176h.0176a9.4935,9.4935,0,0,1,1.6835-.1592,5.6727,5.6727,0,0,1,3.7286,1.0976,3.6706,3.6706,0,0,1,1.32,2.9766,4.6377,4.6377,0,0,1-1.86,3.9336,8.6447,8.6447,0,0,1-5.2793,1.3994q-5.3686,0-5.3681-3.2422a2.4632,2.4632,0,0,1,1.16-2.0556,5.2994,5.2994,0,0,1,3.1445-.8321,5.0948,5.0948,0,0,1,2.95.6641,2.3055,2.3055,0,0,1,.9122,1.9932,3.5724,3.5724,0,0,1-.0352.5849.0787.0787,0,0,0,.0352.0625.064.064,0,0,0,.0712.0078,2.483,2.483,0,0,0,1.3106-2.32q0-2.1972-3.3486-2.1973a15.0544,15.0544,0,0,0-3.0469.2833,15.8238,15.8238,0,0,0-2.9766.9746,1.0624,1.0624,0,0,1-.7881.0175A.9707.9707,0,0,1,78.2891,12.543Zm6.8037,4.1992a2.3064,2.3064,0,0,0,.1767-.8145.7533.7533,0,0,0-.3457-.6826,2.6367,2.6367,0,0,0-1.3017-.2217,2.1838,2.1838,0,0,0-1.1426.2393.706.706,0,0,0-.3809.6113q0,1.0269,2.7461,1.0274h.0176l.0352-.0176A.1947.1947,0,0,0,85.0928,16.7422Z"/><path d="M98.4688,13.748a.1944.1944,0,0,0,.124-.1953V9.6738a.1259.1259,0,0,0-.1426-.1426H95.7041a1.0291,1.0291,0,0,1-1.01-1.01V8.1494a.9419.9419,0,0,1,.3018-.7.9831.9831,0,0,1,.708-.291H98.45c.0947,0,.1426-.0537.1426-.16V4.5352a1.0275,1.0275,0,0,1,1.01-1.01h.8145a1.0275,1.0275,0,0,1,1.01,1.01V18.709a1.0275,1.0275,0,0,1-1.01,1.01h-.8145a1.0275,1.0275,0,0,1-1.01-1.01V16.4766c0-.0948-.0479-.13-.1426-.1065q-1.6288.6372-2.374.8858a.9362.9362,0,0,1-.753-.07.9161.9161,0,0,1-.4687-.6035l-.1416-.5136a.9759.9759,0,0,1,.0967-.7618,1.0237,1.0237,0,0,1,.5937-.4785Q96.6426,14.4561,98.4688,13.748Zm6.874,5.7051a7.503,7.503,0,0,1-1.2227-.125,1.2189,1.2189,0,0,1-.665-.4062,1.5044,1.5044,0,0,1-.336-.8155,12.9,12.9,0,0,1-.0625-1.4882V4.5352a1.0293,1.0293,0,0,1,1.01-1.01h.8857a.9414.9414,0,0,1,.7.3008.9834.9834,0,0,1,.292.709V8.0967a.0855.0855,0,0,0,.045.0791.0586.0586,0,0,0,.0791-.0078,24.3954,24.3954,0,0,0,2.498-2.0557,1.0673,1.0673,0,0,1,.7266-.2842.9176.9176,0,0,1,.6914.3018l.39.4248a.993.993,0,0,1,.2744.7265.9651.9651,0,0,1-.3095.709,24.5953,24.5953,0,0,1-4.27,3.2246.258.258,0,0,0-.1241.2129v4.8535a1.8157,1.8157,0,0,0,.0537.585c.0352.0713.1416.1182.3184.1416a4.0449,4.0449,0,0,0,.6914.0527,5.0517,5.0517,0,0,0,.709-.0527.5251.5251,0,0,0,.248-.07.894.894,0,0,0,.1416-.417,6.4145,6.4145,0,0,0,.0879-.9922q.0177-.6283.0537-1.9756a.9105.9105,0,0,1,1.0274-.8672l.5137.0528a1.1006,1.1006,0,0,1,.7089.3721,1.0175,1.0175,0,0,1,.2657.7441,26.832,26.832,0,0,1-.3008,3.667,2.6536,2.6536,0,0,1-.6025,1.4433,2.4372,2.4372,0,0,1-1.3292.4532,12.5187,12.5187,0,0,1-1.5947.0879Q106.05,19.5059,105.3428,19.4531Z"/><path d="M112.1455,13.1279l-.248-1.4521a2.6247,2.6247,0,0,1,.4082-1.8076A17.5039,17.5039,0,0,0,114.4492,4.43a.9938.9938,0,0,1,.4336-.6387,1.0093,1.0093,0,0,1,.7529-.1592l.62.1065a1.0341,1.0341,0,0,1,.6464.4258.952.952,0,0,1,.169.7441,19.0642,19.0642,0,0,1-1.01,3.4717.8307.8307,0,0,0-.0713.3017V18.709a.9876.9876,0,0,1-.292.709.9446.9446,0,0,1-.7.3008h-.69a.9432.9432,0,0,1-.7-.3008.984.984,0,0,1-.292-.709V12.9336a.0433.0433,0,0,0-.0361-.0449.0545.0545,0,0,0-.0527.0088,1.6254,1.6254,0,0,1-.1416.2129,1.5722,1.5722,0,0,0-.1416.2119.4245.4245,0,0,1-.461.1689A.4121.4121,0,0,1,112.1455,13.1279ZM128.87,7.6719a1.0291,1.0291,0,0,1-1.01,1.01h-10.01a.9418.9418,0,0,1-.7-.3017.9841.9841,0,0,1-.292-.708V7.4766a.988.988,0,0,1,.292-.709.9409.9409,0,0,1,.7-.3008h10.01a1.0275,1.0275,0,0,1,1.01,1.01ZM117.4785,18.709v-3.49a.997.997,0,0,1,.9922-.9922h8.5215a.9876.9876,0,0,1,.709.292.943.943,0,0,1,.3008.7v3.49a1.0275,1.0275,0,0,1-1.01,1.01h-1.293a.5135.5135,0,0,1-.5137-.5137.0786.0786,0,0,0-.0888-.0889h-4.8018c-.0469,0-.07.0293-.07.0889a.5135.5135,0,0,1-.5137.5137h-1.24a.9446.9446,0,0,1-.7-.3008A.988.988,0,0,1,117.4785,18.709ZM118.63,11.18a.9232.9232,0,0,1-.69-.293.9606.9606,0,0,1,0-1.3642.9256.9256,0,0,1,.69-.292h8.2207a.9258.9258,0,0,1,.69.292.9606.9606,0,0,1,0,1.3642.9234.9234,0,0,1-.69.293Zm0,2.498a.9746.9746,0,1,1,0-1.9492h8.2207a.9746.9746,0,1,1,0,1.9492ZM126.957,3.916a1.0293,1.0293,0,0,1,1.01,1.01.9987.9987,0,0,1-1.01,1.01H119.02a1.002,1.002,0,0,1-.708-1.7187.9656.9656,0,0,1,.708-.3008Zm-6.7324,12.4v.709a.1256.1256,0,0,0,.1416.1426h4.6592c.1064,0,.16-.0479.16-.1426v-.709c0-.0937-.0537-.1406-.16-.1406h-4.6592A.1246.1246,0,0,0,120.2246,16.3164Z"/><path d="M130.1455,9.957a.9237.9237,0,0,1-.3633-.6562.9347.9347,0,0,1,.2217-.7266l.2656-.3008a1.0879,1.0879,0,0,1,.6914-.372.962.962,0,0,1,.7442.2129q1.08.8687,1.5234,1.2578a1.051,1.051,0,0,1,.124,1.4521l-.2841.3555a.8481.8481,0,0,1-.6641.3359.9811.9811,0,0,1-.7178-.248Q131.12,10.7374,130.1455,9.957Zm1.9844,8.7871a.7492.7492,0,0,1-.5225.461.7814.7814,0,0,1-.7-.125l-.4609-.336a1.1689,1.1689,0,0,1-.4688-.6816,1.1929,1.1929,0,0,1,.0616-.8242,29.3783,29.3783,0,0,0,1.1513-3.26.8529.8529,0,0,1,.47-.5664.8846.8846,0,0,1,.7353-.0361l.3545.1416a1.1457,1.1457,0,0,1,.6113.541,1.0551,1.0551,0,0,1,.0977.7881A28.7838,28.7838,0,0,1,132.13,18.7441ZM130.7832,5.9883a.8941.8941,0,0,1-.3545-.6563.9109.9109,0,0,1,.2305-.708l.248-.2842a1.0928,1.0928,0,0,1,.7-.371,1.0256,1.0256,0,0,1,.77.2128q.9039.69,1.4707,1.1866a.9591.9591,0,0,1,.336.7,1.0381,1.0381,0,0,1-.2481.7343l-.2656.3369a.8994.8994,0,0,1-.6816.337.9834.9834,0,0,1-.7178-.2481Q131.2431,6.3614,130.7832,5.9883Zm14.5635,9.9746c-.0244,0-.0362.0088-.0362.0264a.0569.0569,0,0,0,.0186.0439l.1416.0889a.6993.6993,0,0,1,.3535.55.6284.6284,0,0,1-.248.584.8645.8645,0,0,1-.1143.0888.7516.7516,0,0,0-.1152.0889.072.072,0,0,0-.0274.07.0776.0776,0,0,0,.045.0527.4713.4713,0,0,0,.1064.0352.6122.6122,0,0,1,.1055.0361.9229.9229,0,0,1,.5674.4522.7726.7726,0,0,1,.0527.6992l-.0352.0527a1.1894,1.1894,0,0,1-.54.6211.9731.9731,0,0,1-.7881.0879,9.1944,9.1944,0,0,1-2.8525-1.4707c-.0117-.0117-.0332-.0078-.0625.01s-.044.0322-.044.0439a1.0218,1.0218,0,0,1-.2392.7178.9907.9907,0,0,1-.6465.3633q-2.02.2827-4.1279.4248a.9176.9176,0,0,1-.7266-.2569.9767.9767,0,0,1-.3369-.6992l-.0176-.4609c0-.0234-.0059-.0352-.0176-.0352a.0506.0506,0,0,0-.0351.0176q-.16.3722-.3194.69a.6983.6983,0,0,1-.5849.3995.8055.8055,0,0,1-.6905-.24l-.5488-.5137a1.1889,1.1889,0,0,1-.3906-.7167,1.3262,1.3262,0,0,1,.124-.8243,10.5563,10.5563,0,0,0,.6914-4.3047V11.3916a1.0293,1.0293,0,0,1,1.01-1.01h10.3115a.801.801,0,0,1,.5752.23.7575.7575,0,0,1,.2393.5674.8169.8169,0,0,1-.8145.8144H136.7c-.1055,0-.1592.0469-.1592.1416V13.43q0,.4424-.0176.6728c0,.1065.0469.1592.1416.1592h8.7168a.8508.8508,0,0,1,0,1.7012Zm-10.0811-5.918a1.0273,1.0273,0,0,1-1.01-1.01V5.3682a1.0291,1.0291,0,0,1,1.01-1.01h1.5772c.082,0,.124-.0479.124-.1416a.8786.8786,0,0,1,.8857-.8867h.8506a.8788.8788,0,0,1,.8858.8867c0,.0937.041.1416.124.1416h.85c.083,0,.124-.0479.124-.1416a.8788.8788,0,0,1,.8858-.8867h.8506a.8786.8786,0,0,1,.8857.8867c0,.0937.042.1416.124.1416H145.01a1.0291,1.0291,0,0,1,1.01,1.01v3.667a1.0273,1.0273,0,0,1-1.01,1.01h-9.7442Zm1.8067,7.4063V16.1221c0-.1065-.0469-.1592-.1416-.1592h-.4424a.1676.1676,0,0,0-.1778.1416,10.9876,10.9876,0,0,1-.3535,1.4346c-.0244.083.0176.125.1241.125l.85-.0537C137.0254,17.61,137.0723,17.5566,137.0723,17.4512Zm-.5489-11.127V6.626a.1405.1405,0,0,0,.1592.1592h.709a.1405.1405,0,0,0,.1592-.1592V6.3242a.14.14,0,0,0-.1592-.1582h-.709A.14.14,0,0,0,136.5234,6.3242Zm0,1.8252v.3018c0,.0937.0528.1406.1592.1406h.709c.1064,0,.1592-.0469.1592-.1406V8.1494a.1405.1405,0,0,0-.1592-.1592h-.709A.1405.1405,0,0,0,136.5234,8.1494Zm1.2227,4.2168h7.2988a.7641.7641,0,0,1,.55.2217.75.75,0,0,1,0,1.08.764.764,0,0,1-.55.2216h-7.2988a.7617.7617,0,1,1,0-1.5234Zm3.1709,4.8721c.0234,0,.041-.0147.0537-.0449s.0059-.05-.0176-.0616a7.1657,7.1657,0,0,1-.7627-1.0459.2567.2567,0,0,0-.2119-.123h-.2656a.1411.1411,0,0,0-.16.1592v1.1162c0,.0947.0537.1416.16.1416C139.9482,17.3564,140.3506,17.3086,140.917,17.2383ZM139.624,6.3242V6.626a.1405.1405,0,0,0,.1592.1592h.709a.1405.1405,0,0,0,.1592-.1592V6.3242a.14.14,0,0,0-.1592-.1582h-.709A.14.14,0,0,0,139.624,6.3242Zm0,1.8252v.3018c0,.0937.0528.1406.1592.1406h.709c.1064,0,.1592-.0469.1592-.1406V8.1494a.1405.1405,0,0,0-.1592-.1592h-.709A.1405.1405,0,0,0,139.624,8.1494Zm4.7129,7.919c.0235-.0118.0293-.0313.0176-.0616a.0585.0585,0,0,0-.0537-.0439h-1.5762a.0742.0742,0,0,0-.0625.0439c-.0176.03-.0146.05.0088.0616a4.6319,4.6319,0,0,0,.709.5849.1757.1757,0,0,0,.2129,0Zm-1.6123-9.7442V6.626a.14.14,0,0,0,.1592.1592h.709a.1409.1409,0,0,0,.1592-.1592V6.3242a.1406.1406,0,0,0-.1592-.1582h-.709A.14.14,0,0,0,142.7246,6.3242Zm0,1.8252v.3018c0,.0937.0527.1406.1592.1406h.709c.1054,0,.1592-.0469.1592-.1406V8.1494a.1409.1409,0,0,0-.1592-.1592h-.709A.14.14,0,0,0,142.7246,8.1494Z"/><path d="M149.2441,7.6719a.9385.9385,0,0,1-.6992-.3018.9809.9809,0,0,1-.2929-.708V6.3955a.9826.9826,0,0,1,.2929-.708.9385.9385,0,0,1,.6992-.3018h2.5694a.205.205,0,0,0,.2119-.1416c.0234-.0586.0684-.1777.1328-.3545s.1152-.3125.1514-.4072a1.1557,1.1557,0,0,1,.5049-.6465,1.1121,1.1121,0,0,1,.788-.15l.8506.1592a.8365.8365,0,0,1,.6553,1.0987c-.0117.0351-.0322.0878-.0615.1591s-.0508.1241-.0625.1592c-.0235.083.0117.124.1064.124h6.0235a1.0293,1.0293,0,0,1,1.01,1.01v.2666a1.0293,1.0293,0,0,1-1.01,1.01h-6.98a.2068.2068,0,0,0-.2119.123q-.4263.9039-.4434.94V8.77h.0352a4.4744,4.4744,0,0,1,1.4883-.2832,3.4141,3.4141,0,0,1,3.3662,1.9317.1631.1631,0,0,0,.2129.1054q1.08-.23,2.4443-.39a.99.99,0,0,1,1.0986.8857l.0352.3369a1.01,1.01,0,0,1-.2207.7354.9772.9772,0,0,1-.6651.3809q-.9565.1406-2.1259.3535a.1453.1453,0,0,0-.1241.1953q.1069,1.046.1065,1.2226a.9133.9133,0,0,1-.2832.709.9694.9694,0,0,1-.709.3008h-.8506a.981.981,0,0,1-.708-.293,1.0016,1.0016,0,0,1-.3193-.6992,4.765,4.765,0,0,0-.0176-.4785.1034.1034,0,0,0-.0527-.0879.1189.1189,0,0,0-.1065-.0176q-2.2324.8673-2.2324,1.7a1.01,1.01,0,0,0,.709.9483,7.957,7.957,0,0,0,2.7461.3095,28.4285,28.4285,0,0,0,3.4716-.3017.95.95,0,0,1,.7354.2051.911.911,0,0,1,.3633.664l.0351.4248a1.0375,1.0375,0,0,1-.2207.7442.9693.9693,0,0,1-.665.39,32.464,32.464,0,0,1-3.72.2129,10.574,10.574,0,0,1-4.8369-.8144,2.6755,2.6755,0,0,1-1.4708-2.4981,3.3459,3.3459,0,0,1,1.1338-2.41,9.1449,9.1449,0,0,1,3.4014-1.9141c.0947-.0469.1123-.1055.0537-.1758a1.5794,1.5794,0,0,0-1.2939-.5146,2.6714,2.6714,0,0,0-1.5586.5576,10.3574,10.3574,0,0,0-1.9131,2.0293,1.1282,1.1282,0,0,1-.6826.4433,1.082,1.082,0,0,1-.7881-.125l-.5137-.2832a.858.858,0,0,1-.4433-.584.89.89,0,0,1,.1416-.7265,32.4086,32.4086,0,0,0,2.4277-4.1641c.0469-.082.0176-.123-.0889-.123Z"/><path d="M173.32,18.94a9.8182,9.8182,0,0,1-5.0312-1.09,3.274,3.274,0,0,1-1.8243-2.8965,3.8468,3.8468,0,0,1,.4873-1.8076,10.1862,10.1862,0,0,1,1.6563-2.1435,1.0409,1.0409,0,0,1,.7266-.3282,1.1593,1.1593,0,0,1,.7793.2217l.4785.3545a.8078.8078,0,0,1,.3447.6289.8671.8671,0,0,1-.2383.6816,3.8877,3.8877,0,0,0-1.2939,2.1094q0,.7794.9922,1.24a7.2176,7.2176,0,0,0,2.9228.46,23.1976,23.1976,0,0,0,4.9258-.6025.9923.9923,0,0,1,.7617.1328.8841.8841,0,0,1,.4248.6113l.124.585a1.0222,1.0222,0,0,1-.1328.7793.95.95,0,0,1-.6289.4424A26.59,26.59,0,0,1,173.32,18.94Zm5.3682-12.792a1.0293,1.0293,0,0,1-1.01,1.0107h-8.61a1.0311,1.0311,0,0,1-1.01-1.0107V5.6514a.9419.9419,0,0,1,.3018-.7.9825.9825,0,0,1,.708-.291h8.61a.9866.9866,0,0,1,.709.291.9409.9409,0,0,1,.3008.7Zm-2.5332,2.8349a.9931.9931,0,0,1,.7793-.07.9716.9716,0,0,1,.6025.4961q.1948.3544.585,1.0977a.9489.9489,0,0,1,.0351.7617.97.97,0,0,1-.5136.5664.99.99,0,0,1-.7793.0361,1.0429,1.0429,0,0,1-.585-.5137c-.06-.1064-.2481-.4541-.5664-1.0459a.906.906,0,0,1-.0713-.7441.9716.9716,0,0,1,.4961-.584Zm4.2168-.2129q.5844,1.1163.6025,1.1524a.9679.9679,0,0,1-.4434,1.3281l-.0527.0352a.995.995,0,0,1-.77.0449,1.0056,1.0056,0,0,1-.5937-.5059c-.06-.1172-.1534-.3008-.2832-.5488s-.2305-.4307-.3018-.5488a.972.972,0,0,1-.0791-.7618.8812.8812,0,0,1,.4863-.5849l.0537-.0176a1.0164,1.0164,0,0,1,.7793-.0791A.94.94,0,0,1,180.3721,8.77Z"/><path d="M183.9336,17.0605l-.3721-.6191a1.3942,1.3942,0,0,1,.0879-1.6484,13.6309,13.6309,0,0,0,2.02-3.8975c.0235-.1064-.0068-.1592-.0888-.1592h-1.1338a.9393.9393,0,0,1-.7-.3008.9874.9874,0,0,1-.292-.7089V9.4434a.9874.9874,0,0,1,.292-.709.9393.9393,0,0,1,.7-.3008h1.7c.0947,0,.1416-.0537.1416-.16V6.5547q0-.1407-.1231-.1406c-.1543.0117-.3818.0254-.6826.0429s-.5283.0332-.6816.045a.97.97,0,0,1-.7442-.2393.9958.9958,0,0,1-.3545-.7l-.0176-.1592a.933.933,0,0,1,.2305-.7178.97.97,0,0,1,.6729-.3457,47.6367,47.6367,0,0,0,5.5449-.7255,1.13,1.13,0,0,1,.8066.124,1.1053,1.1053,0,0,1,.5225.62l.07.1943a.8687.8687,0,0,1-.0615.7539.8235.8235,0,0,1-.5938.4336c-.2363.0586-.8447.166-1.8242.3184a.1745.1745,0,0,0-.16.1777V8.2734a.1418.1418,0,0,0,.16.16h1.8418a1.0275,1.0275,0,0,1,1.01,1.01v.2832a1.0275,1.0275,0,0,1-1.01,1.01h-1.1689c-.0948,0-.1123.041-.0528.1241q.3722.6019,1.9131,3.1357a1.12,1.12,0,0,1-.2832,1.4531l-.248.1944a.7776.7776,0,0,1-.6651.1513.72.72,0,0,1-.5224-.4345l-.9034-1.9668q-.0175-.0352-.0439-.0352c-.0186,0-.0273.0117-.0273.0352V18.709a1.0275,1.0275,0,0,1-1.01,1.01H187.3a1.0291,1.0291,0,0,1-1.0107-1.01V14.44q0-.07-.0352,0a13.26,13.26,0,0,1-1.2227,2.6572.58.58,0,0,1-.5488.2832A.6592.6592,0,0,1,183.9336,17.0605Zm9.7256-1.3281a1.0293,1.0293,0,0,1-1.01-1.01V5.457a1.0291,1.0291,0,0,1,1.01-1.01h.4785a1.0273,1.0273,0,0,1,1.01,1.01v9.2657a1.0275,1.0275,0,0,1-1.01,1.01Zm4.6777-11.9941a1.0275,1.0275,0,0,1,1.01,1.01V16.4414q0,.8145-.0264,1.2754a4.4776,4.4776,0,0,1-.1328.8672,1.5379,1.5379,0,0,1-.248.5762,1.1845,1.1845,0,0,1-.4874.3007,2.4368,2.4368,0,0,1-.7177.16q-.3721.0264-1.0449.0264-.8511,0-1.7188-.0352a1.06,1.06,0,0,1-.7266-.3193,1.1319,1.1319,0,0,1-.3369-.7266l-.0351-.4062a.89.89,0,0,1,.2656-.6827.872.872,0,0,1,.6914-.2744q.9565.0528,1.2041.0528c.2959,0,.4756-.0352.541-.1065a1.1456,1.1456,0,0,0,.0977-.62V4.748a.9837.9837,0,0,1,.292-.7089.9408.9408,0,0,1,.6992-.3008Z"/><path d="M201.1709,18.6553a1.1058,1.1058,0,0,1-.39-.6905,1.1745,1.1745,0,0,1,.1417-.7968,8.5308,8.5308,0,0,0,.9042-2.6846,26.694,26.694,0,0,0,.2481-4.1553V4.7656a.9372.9372,0,0,1,.3008-.6992.9816.9816,0,0,1,.709-.293h12.4365a.9849.9849,0,0,1,.709.293.9407.9407,0,0,1,.3007.6992V16.582q0,.816-.0263,1.2852a3.6326,3.6326,0,0,1-.15.8682,1.58,1.58,0,0,1-.2832.5751,1.297,1.297,0,0,1-.541.3106,3.0077,3.0077,0,0,1-.7969.1592c-.2773.0185-.6641.0263-1.16.0263q-.1421,0-1.205-.0351a1.07,1.07,0,0,1-.7354-.3281,1.1411,1.1411,0,0,1-.3457-.7344l-.0176-.3369a.8189.8189,0,0,1,.2569-.6905.8863.8863,0,0,1,.6826-.2656q.8145.0352.85.0352a1.0539,1.0539,0,0,0,.62-.1065,1.0584,1.0584,0,0,0,.1065-.62V14.8105c0-.0937-.0528-.1406-.1592-.1406h-3.083c-.1065,0-.1592.0469-.1592.1406v3.5079a1.0275,1.0275,0,0,1-1.01,1.01h-.6552a1.0275,1.0275,0,0,1-1.01-1.01V14.8105a.1253.1253,0,0,0-.1426-.1406h-2.7637a.1665.1665,0,0,0-.1767.1406,10.9819,10.9819,0,0,1-1.3994,4.27.8119.8119,0,0,1-.6026.3906.912.912,0,0,1-.709-.1953Zm3.65-7.0694c0,.0957-.0039.23-.01.4082s-.0088.3067-.0088.39c0,.0947.0537.1416.16.1416h2.6035c.0947,0,.1426-.0527.1426-.1592V10.4531c0-.1064-.0479-.16-.1426-.16h-2.6035c-.0947,0-.1416.0537-.1416.16Zm0-5.3847V8.0078a.1249.1249,0,0,0,.1416.1416h2.6035a.1256.1256,0,0,0,.1426-.1416V6.2012a.1263.1263,0,0,0-.1426-.1426h-2.6035A.1256.1256,0,0,0,204.8213,6.2012Zm5.5625,0V8.0078c0,.0947.0527.1416.1592.1416h3.083c.1064,0,.1592-.0469.1592-.1416V6.2012c0-.0948-.0528-.1426-.1592-.1426h-3.083C210.4365,6.0586,210.3838,6.1064,210.3838,6.2012Zm0,4.2519v1.9131a.14.14,0,0,0,.1592.1592h3.083a.14.14,0,0,0,.1592-.1592V10.4531a.1411.1411,0,0,0-.1592-.16h-3.083A.1411.1411,0,0,0,210.3838,10.4531Z"/><path d="M223.7246,18.94q-1.5776,0-2.9141-2.0733a9.1464,9.1464,0,0,1-1.3378-5.0674,21.9265,21.9265,0,0,1,.6552-5.332,1.0816,1.0816,0,0,1,.47-.6641,1.1605,1.1605,0,0,1,.8056-.1865l.78.0889a.7917.7917,0,0,1,.6113.3633.8824.8824,0,0,1,.1328.7168,22.2024,22.2024,0,0,0-.6025,5.0136,7.6425,7.6425,0,0,0,.54,3.0391q.5406,1.248,1.0723,1.248.3354,0,.8945-.6992a9.9765,9.9765,0,0,0,1.16-2.0107,1.0548,1.0548,0,0,1,1.3291-.5674l.5664.2129a.9688.9688,0,0,1,.585,1.293,9.74,9.74,0,0,1-2.2237,3.4111A3.7983,3.7983,0,0,1,223.7246,18.94Zm7.5293-2.9239a27.4985,27.4985,0,0,0-1.7891-8.9824.8862.8862,0,0,1,.0352-.7344.8579.8579,0,0,1,.5674-.4707l.69-.1943a1.0984,1.0984,0,0,1,.8067.0615,1.144,1.144,0,0,1,.5751.5762,27.1623,27.1623,0,0,1,1.9844,9.7617.8859.8859,0,0,1-.2832.7.988.988,0,0,1-.709.292h-.8506a.9658.9658,0,0,1-.708-.3008A1.0375,1.0375,0,0,1,231.2539,16.0156Z"/><path d="M237.7207,18.6914a.865.865,0,0,1-.585-.4346.8876.8876,0,0,1-.07-.7353q1.5045-4.7842,2.4619-9.3721a.1074.1074,0,0,0-.0263-.1064.1274.1274,0,0,0-.0977-.0528h-1.1162a1.0291,1.0291,0,0,1-1.01-1.01V6.5723a1.0311,1.0311,0,0,1,1.01-1.01h1.5772a.1811.1811,0,0,0,.1943-.1592c.0244-.1064.0537-.2529.0889-.4424s.0595-.3369.0713-.4433a1.0391,1.0391,0,0,1,.4072-.6817,1.067,1.067,0,0,1,.7617-.2216l.709.0537a.9286.9286,0,0,1,.832,1.08c-.0117.07-.0293.1836-.0527.336-.0235.1543-.042.2666-.0528.3379-.0244.0937.0176.1406.1241.1406h4.9072a.9418.9418,0,0,1,.6992.3018.981.981,0,0,1,.293.708v.4082a.9849.9849,0,0,1-.293.709.9374.9374,0,0,1-.6992.3007h-5.3682a.1681.1681,0,0,0-.1777.1416,91.8543,91.8543,0,0,1-2.5332,9.9922,1.0337,1.0337,0,0,1-.5049.62,1.0911,1.0911,0,0,1-.7881.1241Zm12.791-2.498a.99.99,0,0,1,.7354.1855.9144.9144,0,0,1,.3808.6465l.0528.4258a.9914.9914,0,0,1-.1944.7519,1.0148,1.0148,0,0,1-.6552.3994,20.712,20.712,0,0,1-2.7461.1944,7.5853,7.5853,0,0,1-4.0313-.93,2.7461,2.7461,0,0,1-1.4971-2.3828,2.9969,2.9969,0,0,1,.94-2.02,1.2532,1.2532,0,0,1,.77-.4082,1.396,1.396,0,0,1,.877.1426l.3017.1406a.6581.6581,0,0,1,.3721.5147.7149.7149,0,0,1-.1953.62,1.089,1.089,0,0,0-.3369.709q0,.5127.7353.85a5.0837,5.0837,0,0,0,2.0645.3369A18.0928,18.0928,0,0,0,250.5117,16.1934Zm-5.333-4.5a.9372.9372,0,0,1-.7168-.2305.9661.9661,0,0,1-.3457-.6738l-.0351-.3536a1.0333,1.0333,0,0,1,.9209-1.1q2.8695-.2636,5.4033-.2832a.9456.9456,0,0,1,.7.3018.9841.9841,0,0,1,.292.708v.3555a1.0291,1.0291,0,0,1-1.01,1.01Q247.748,11.4454,245.1787,11.6934Z"/><path d="M255.26,18.8682a.865.865,0,0,1-.585-.4346.8851.8851,0,0,1-.07-.7344q1.5044-4.7841,2.4619-9.373a.1062.1062,0,0,0-.0264-.1055.1257.1257,0,0,0-.0976-.0527h-1.1162a1.0311,1.0311,0,0,1-1.01-1.01V6.75a1.0293,1.0293,0,0,1,1.01-1.01h1.5771a.1827.1827,0,0,0,.1953-.16c.0235-.1055.0528-.2539.0879-.4424s.06-.3369.0713-.4424a1.0415,1.0415,0,0,1,.4072-.6826,1.072,1.072,0,0,1,.7618-.2217l.7089.0537a.9305.9305,0,0,1,.8331,1.0811c-.0127.07-.03.1826-.0538.3359s-.041.2656-.0527.3369c-.0244.0948.0176.1416.124.1416h4.96a1.0631,1.0631,0,0,1,.4785.1241.0759.0759,0,0,0,.0537-.0176l-.0185-.0186V5.793q-.07-.1582-.2481-.4688c-.1181-.207-.2-.3633-.248-.47a.8766.8766,0,0,1-.0616-.7.915.915,0,0,1,1.169-.5938.9872.9872,0,0,1,.5586.4786c.0469.1064.13.2636.248.47s.2.3633.2481.47a.8946.8946,0,0,1,.0527.7168.8575.8575,0,0,1-.4785.5235.8441.8441,0,0,1-.85-.0352.0566.0566,0,0,0-.0537.0352,1.0922,1.0922,0,0,1,.1592.5312v.4082a1.0293,1.0293,0,0,1-1.01,1.01h-5.4209a.1665.1665,0,0,0-.1768.1406,92.03,92.03,0,0,1-2.5341,9.9922,1.0353,1.0353,0,0,1-.5049.6211,1.1,1.1,0,0,1-.7881.123Zm4.8369-3.2061a2.9974,2.9974,0,0,1,.9385-2.0205,1.2538,1.2538,0,0,1,.7705-.4072,1.4,1.4,0,0,1,.8769.1416l.3018.1416a.6543.6543,0,0,1,.372.5136.7136.7136,0,0,1-.1953.62,1.0907,1.0907,0,0,0-.3369.709q0,.514.7354.85a5.0853,5.0853,0,0,0,2.0644.336,17.9141,17.9141,0,0,0,2.4268-.1768.9823.9823,0,0,1,.7353.1865.9105.9105,0,0,1,.3809.6465l.0537.4248a.9989.9989,0,0,1-.1953.753,1.01,1.01,0,0,1-.6553.3984,20.717,20.717,0,0,1-2.7461.1953,7.5871,7.5871,0,0,1-4.03-.93A2.7461,2.7461,0,0,1,260.0967,15.6621Zm2.6221-3.792a.9338.9338,0,0,1-.7178-.2305.9614.9614,0,0,1-.3457-.6728l-.0352-.3545a1.0334,1.0334,0,0,1,.9209-1.0986q2.87-.2667,5.4033-.2832a.9412.9412,0,0,1,.7.3007.9878.9878,0,0,1,.292.709v.3545a1.0293,1.0293,0,0,1-1.01,1.01Q265.2871,11.622,262.7188,11.87ZM270.39,5.4746a.916.916,0,0,1-.4785.5313.8965.8965,0,0,1-.7177.0527.9817.9817,0,0,1-.5577-.4785q-.16-.3178-.5136-.9561a.9231.9231,0,0,1-.0625-.7178.8853.8853,0,0,1,.47-.54.959.959,0,0,1,.7441-.0537.9323.9323,0,0,1,.5664.4609c.06.1182.1446.2891.2579.5137.1113.2246.1914.3848.2382.4785A.881.881,0,0,1,270.39,5.4746Z"/><path d="M273.5254,11.1436a.9987.9987,0,0,1-.9922-.9922V9.8857a1.031,1.031,0,0,1,1.01-1.01q2.1093,0,6.4316-.1065c.0938,0,.13-.0468.1065-.1416-.0479-.1767-.1182-.4541-.2129-.833-.0118-.082-.0713-.123-.1768-.123q-2.9766.0879-5.333.0879a1.0275,1.0275,0,0,1-1.01-1.01V6.4844a.9593.9593,0,0,1,.3008-.7178,1.0089,1.0089,0,0,1,.7266-.292q1.6113,0,4.9072-.0713c.1182,0,.166-.0527.1416-.1592a1.18,1.18,0,0,1-.0176-.248,1.1747,1.1747,0,0,0-.0176-.2481.8659.8659,0,0,1,.2393-.6992,1.04,1.04,0,0,1,.7-.3281l.708-.0527a.9836.9836,0,0,1,.7178.2558,1.0149,1.0149,0,0,1,.3457.7l.0527.5313a.1731.1731,0,0,0,.1778.1592q1.0267-.0352,3.082-.1407a.9215.9215,0,0,1,.7265.2559.9828.9828,0,0,1,.337.7v.2656a.9685.9685,0,0,1-.2666.7178.9585.9585,0,0,1-.69.3281q-.4438.0175-1.3818.0615c-.626.03-1.0986.05-1.417.0616-.0947,0-.13.0537-.1064.16.0947.3779.1709.6553.23.832.0117.083.07.125.1768.125q1.9482-.07,2.9053-.1074a1.0149,1.0149,0,0,1,1.0459.957v.2657a.9681.9681,0,0,1-.2666.7177.9535.9535,0,0,1-.69.3272q-.3545.0191-1.0635.0449c-.4716.0176-.8261.0332-1.0625.0449q-.142,0-.07.1407.3356.7089.8848,1.6308a.8918.8918,0,0,1-.3535,1.2754l-.9922.461a2.372,2.372,0,0,1-1.8428.07,7.97,7.97,0,0,0-2.64-.4786q-2.48,0-2.48,1.1348a1.2013,1.2013,0,0,0,.8945,1.125,9.4446,9.4446,0,0,0,3.1631.3623,29.424,29.424,0,0,0,3.2237-.23.9484.9484,0,0,1,.7353.2032.9743.9743,0,0,1,.3809.664l.0537.3545a.9786.9786,0,0,1-.2041.7441.9678.9678,0,0,1-.6641.39,29.8294,29.8294,0,0,1-3.5254.23q-6.9462,0-6.9453-3.8438a2.7458,2.7458,0,0,1,1.3555-2.41,7.3959,7.3959,0,0,1,4.0127-.8858,9.8436,9.8436,0,0,1,2.498.3194h.0352v-.0362q-.16-.3178-.4424-.9912a.1956.1956,0,0,0-.1953-.125Q278.3618,11.109,273.5254,11.1436Z"/><path d="M294.2363,18.7969a4.6043,4.6043,0,0,1-3.1445-1.125,3.5794,3.5794,0,0,1-1.2852-2.8076,3.8769,3.8769,0,0,1,1.2227-2.7823,7.3688,7.3688,0,0,1,3.4727-1.8242.1774.1774,0,0,0,.1416-.1953V8.168c0-.0957-.0528-.1426-.1592-.1426h-2.8526a1.0275,1.0275,0,0,1-1.01-1.01V6.75a1.0275,1.0275,0,0,1,1.01-1.01h2.8526c.1064,0,.1592-.0468.1592-.1416V4.6777a.94.94,0,0,1,.3017-.7.9841.9841,0,0,1,.708-.292h.709a.997.997,0,0,1,.9922.9922v.9209c0,.0948.0527.1416.1592.1416h2.48a.9446.9446,0,0,1,.7.3008.9876.9876,0,0,1,.292.709v.2656a.9876.9876,0,0,1-.292.709.9409.9409,0,0,1-.7.3008h-2.48c-.1065,0-.1592.0469-.1592.1426V9.6914c0,.0938.0527.1406.1592.1406.0713,0,.1777-.0019.3193-.0078s.2481-.01.3184-.01a6.7033,6.7033,0,0,1,4.2256,1.2578,3.766,3.766,0,0,1,1.621,3.0654q0,3.8277-4.1279,4.7129a.9249.9249,0,0,1-.7529-.1514,1.103,1.103,0,0,1-.4522-.664l-.124-.4786a.9289.9289,0,0,1,.124-.7265,1.0023,1.0023,0,0,1,.6026-.4424q1.9482-.4966,1.9492-2.1084a1.5981,1.5981,0,0,0-.8506-1.3379,3.982,3.982,0,0,0-2.2148-.5576c-.083,0-.1944.0029-.336.0088s-.248.0088-.3193.0088c-.0947,0-.1416.0537-.1416.1591v3.1016a3.4649,3.4649,0,0,1-.6738,2.4707A3.4679,3.4679,0,0,1,294.2363,18.7969Zm.2657-5.917q-1.985.6738-1.9844,1.9844a1.4163,1.4163,0,0,0,.4521,1.01,1.34,1.34,0,0,0,.9658.46.7594.7594,0,0,0,.5665-.1582,1.1326,1.1326,0,0,0,.1416-.6914V12.9863C294.6436,12.8916,294.5967,12.8564,294.502,12.88Zm9.39-6.9981q1.1338,1.7007,1.5947,2.4629a.9586.9586,0,0,1,.1065.7617.9266.9266,0,0,1-.461.6026l-.23.123a1.0314,1.0314,0,0,1-.7705.09.985.985,0,0,1-.6114-.461q-.69-1.1162-1.5058-2.3564a.9488.9488,0,0,1-.15-.7441.9656.9656,0,0,1,.416-.6377l.2129-.1241a.9382.9382,0,0,1,.7529-.1416A1.0066,1.0066,0,0,1,303.8916,5.8818Z"/><path d="M307.2227,11.3379l-.1065-.3359a.9656.9656,0,0,1,.0449-.7793.9374.9374,0,0,1,.5752-.4961q1.2056-.4248,1.878-.709a.935.935,0,0,1,.7529,0,.907.907,0,0,1,.5224.5488l.0889.2481a1.0915,1.0915,0,0,1-.0176.7978,1.0409,1.0409,0,0,1-.5488.5674q-1.0282.46-1.9141.7793a.9272.9272,0,0,1-.7617-.0449A1.0027,1.0027,0,0,1,307.2227,11.3379Zm9.7089.7266c-.0947,0-.1416.0537-.1416.16v.4248c0,.1065.0469.1592.1416.1592h5.2793a.9844.9844,0,0,1,.709.293.9424.9424,0,0,1,.3008.6992v.3017a1.0293,1.0293,0,0,1-1.01,1.01h-4.0752a.0566.0566,0,0,0-.0351.0537,24.6376,24.6376,0,0,0,4.8193,1.8594.8265.8265,0,0,1,.54.4609.7706.7706,0,0,1-.0088.709l-.1953.4072a1.1432,1.1432,0,0,1-.5928.5577,1.0489,1.0489,0,0,1-.7891.0273,24.7928,24.7928,0,0,1-4.9785-2.4453q-.1055-.07-.1055.07V18.709a1.0291,1.0291,0,0,1-1.01,1.01h-.8867a1.0291,1.0291,0,0,1-1.01-1.01V16.8125c0-.0937-.041-.1113-.124-.0527a24.24,24.24,0,0,1-4.96,2.4277,1.0489,1.0489,0,0,1-.7891-.0273,1.143,1.143,0,0,1-.5927-.5577l-.1953-.4072a.7883.7883,0,0,1-.0088-.7178.825.825,0,0,1,.5576-.47,24.3323,24.3323,0,0,0,4.7842-1.8242.0619.0619,0,0,0,.0175-.0449q0-.0264-.0351-.0264h-4.0752a1.0293,1.0293,0,0,1-1.01-1.01v-.3017a.9424.9424,0,0,1,.3008-.6992.9845.9845,0,0,1,.709-.293h5.2793c.0947,0,.1416-.0527.1416-.1592v-.4248c0-.1064-.0469-.16-.1416-.16h-1.5947a1.0293,1.0293,0,0,1-1.01-1.01V5.4922a.9381.9381,0,0,1,.3018-.6992.9809.9809,0,0,1,.708-.293H313.37a.1827.1827,0,0,0,.1953-.16.3851.3851,0,0,1,.0176-.0966.3846.3846,0,0,0,.0176-.0977,1.1224,1.1224,0,0,1,.4433-.69,1.1047,1.1047,0,0,1,.7793-.23l.8858.0527a.8464.8464,0,0,1,.6377.3457.8154.8154,0,0,1,.1416.6993v.0361c-.0235.0947.0176.1416.124.1416h1.9141a.9827.9827,0,0,1,.708.293.9384.9384,0,0,1,.3017.6992v4.5351h.0176a.7346.7346,0,0,1,.0527-.1953l.1241-.3008a1.1178,1.1178,0,0,1,1.3466-.6015q.8864.3,1.9131.7256a.9046.9046,0,0,1,.5313.55,1.0446,1.0446,0,0,1-.0176.7793l-.1416.372a.9385.9385,0,0,1-.54.5225.9513.9513,0,0,1-.753-.0088q-1.0986-.479-1.9131-.78a.8779.8779,0,0,1-.6025-.708h-.0176v.6729a1.0291,1.0291,0,0,1-1.01,1.01Zm-9.1953-7.2461a.94.94,0,0,1,.6826-.3711,1.0334,1.0334,0,0,1,.753.23q.6723.53,1.3994,1.1328a.9059.9059,0,0,1,.3369.6827,1.0485,1.0485,0,0,1-.248.7353l-.2129.2656a.9215.9215,0,0,1-.6739.3457.9387.9387,0,0,1-.708-.2392Q307.86,6.5913,307.666,6.4492a.9477.9477,0,0,1-.1426-1.3652ZM313.8311,6.68v.69c0,.0947.0527.1416.1591.1416h2.6934c.1064,0,.1592-.0469.1592-.1416V6.68a.1408.1408,0,0,0-.1592-.16H313.99A.1407.1407,0,0,0,313.8311,6.68Zm2.8525,3.5781c.1064,0,.1592-.0469.1592-.1416V9.39c0-.0947-.0528-.1416-.1592-.1416H313.99c-.1064,0-.1591.0469-.1591.1416v.7266c0,.0947.0527.1416.1591.1416Zm6.2187-5.457.2295.248a.9877.9877,0,0,1-.07,1.418q-.6738.5844-1.3994,1.1338a1.0114,1.0114,0,0,1-.7617.2119,1.1584,1.1584,0,0,1-.709-.3711l-.2305-.2305a.9129.9129,0,0,1-.23-.7089.892.892,0,0,1,.3545-.6553l1.3818-1.1162a1.0405,1.0405,0,0,1,.7353-.2481A.9871.9871,0,0,1,322.9023,4.8008Z"/><path d="M332.5918,19.0273a7.0553,7.0553,0,0,1-3.2686-.6191,3.6551,3.6551,0,0,1-1.6914-2.1172,13.1571,13.1571,0,0,1-.5322-4.2265q0-3.5948.1777-6.8555a1.0644,1.0644,0,0,1,.336-.709.9593.9593,0,0,1,.7265-.2656l.9395.0176a.983.983,0,0,1,.9385,1.0273q-.1949,3.4731-.1944,6.7852a6.924,6.924,0,0,0,.5577,3.4111,2.2318,2.2318,0,0,0,2.0107.8408,3.9433,3.9433,0,0,0,2.5518-.9385,8.4973,8.4973,0,0,0,2.1259-3.0293,1.0532,1.0532,0,0,1,1.3282-.5674l.6914.2657a.9455.9455,0,0,1,.5761.5234.9034.9034,0,0,1-.01.77Q337.4106,19.0278,332.5918,19.0273Z"/><path d="M346.9248,18.7617a3.9209,3.9209,0,0,1-2.8613-1.3818,4.4184,4.4184,0,0,1-1.3194-3.1358,3.64,3.64,0,0,1,1.4795-2.8964A8,8,0,0,1,348.36,9.7969c.082-.0117.1357-.07.1591-.1768q.0528-.4263.2481-2.4267a.1256.1256,0,0,0-.1416-.1426h-3.5615a1.0291,1.0291,0,0,1-1.01-1.01V5.6338a1.031,1.031,0,0,1,1.01-1.01h5.6337a1.0311,1.0311,0,0,1,1.0108,1.01v1.417q-.2667,2.2324-.3018,2.5156c-.0234.1074.0176.16.124.16q.939.0879,1.86.2656c.1064.0234.1592-.0176.1592-.124q.0351-1.63.0361-2.835a.9987.9987,0,0,1,.9912-.9922h.709a.9849.9849,0,0,1,.709.293.9408.9408,0,0,1,.3008.6992q0,1.5587-.07,3.65a.2057.2057,0,0,0,.1416.2119,17.5425,17.5425,0,0,1,1.665.7979.9415.9415,0,0,1,.4873.6015,1.07,1.07,0,0,1-.08.7969l-.2656.5322a.8568.8568,0,0,1-.5752.46.98.98,0,0,1-.7529-.0879c-.3076-.166-.544-.2891-.709-.3721-.0713-.0361-.1182-.0117-.1416.0713a7.6541,7.6541,0,0,1-.9834,3.1172,7.0689,7.0689,0,0,1-2.1885,2.002.889.889,0,0,1-.7617.1152,1.0186,1.0186,0,0,1-.62-.4688l-.336-.5488A.92.92,0,0,1,351,17.168a1.049,1.049,0,0,1,.4609-.6211,3.8323,3.8323,0,0,0,1.3731-1.3633,6.6308,6.6308,0,0,0,.5752-2.41c.0234-.1172-.0176-.1884-.124-.2129a11.7714,11.7714,0,0,0-2.126-.3535c-.1065,0-.1651.041-.1768.1231a25.9738,25.9738,0,0,1-.7617,3.34,6.5167,6.5167,0,0,1-.9219,1.958,2.7462,2.7462,0,0,1-1.0537.9033A3.3543,3.3543,0,0,1,346.9248,18.7617Zm1.0811-6.4131a4.2273,4.2273,0,0,0-1.8868.7354,1.4634,1.4634,0,0,0-.6289,1.16,1.8728,1.8728,0,0,0,.416,1.125q.4161.5581.7881.5586.8336,0,1.4356-3.4726a.0756.0756,0,0,0-.0264-.0889A.0993.0993,0,0,0,348.0059,12.3486Z"/><path d="M365.457,18.94q-1.5775,0-2.915-2.0733a9.1536,9.1536,0,0,1-1.3369-5.0674,21.8777,21.8777,0,0,1,.6553-5.332,1.0811,1.0811,0,0,1,.47-.6641,1.1594,1.1594,0,0,1,.8056-.1865l.7793.0889a.79.79,0,0,1,.6114.3633.879.879,0,0,1,.1328.7168,22.2511,22.2511,0,0,0-.6016,5.0136,7.6407,7.6407,0,0,0,.54,3.0391q.54,1.248,1.0712,1.248.337,0,.8956-.6992a9.9816,9.9816,0,0,0,1.16-2.0107,1.0538,1.0538,0,0,1,1.3291-.5674l.5664.2129a.9688.9688,0,0,1,.585,1.293,9.74,9.74,0,0,1-2.2237,3.4111A3.8,3.8,0,0,1,365.457,18.94Zm7.5293-2.9239a27.527,27.527,0,0,0-1.789-8.9824.8861.8861,0,0,1,.0351-.7344.8559.8559,0,0,1,.5674-.4707l.69-.1943a1.0958,1.0958,0,0,1,.8057.0615,1.1428,1.1428,0,0,1,.5762.5762,27.1623,27.1623,0,0,1,1.9843,9.7617.8856.8856,0,0,1-.2832.7.9878.9878,0,0,1-.7089.292h-.8506a.9656.9656,0,0,1-.708-.3008A1.0372,1.0372,0,0,1,372.9863,16.0156Z"/><path d="M379.4521,18.6914a.865.865,0,0,1-.5849-.4346.8872.8872,0,0,1-.07-.7353q1.5058-4.7842,2.4619-9.3721a.1077.1077,0,0,0-.0264-.1064.1259.1259,0,0,0-.0976-.0528H380.02a1.0289,1.0289,0,0,1-1.0107-1.01V6.5723a1.0309,1.0309,0,0,1,1.0107-1.01h1.5762a.1827.1827,0,0,0,.1953-.1592c.0235-.1064.0528-.2529.0879-.4424s.06-.3369.0713-.4433a1.04,1.04,0,0,1,.4072-.6817,1.067,1.067,0,0,1,.7617-.2216l.709.0537a.93.93,0,0,1,.833,1.08c-.0127.07-.03.1836-.0537.336-.0234.1543-.041.2666-.0527.3379-.0244.0937.0176.1406.124.1406h4.9072a.9456.9456,0,0,1,.7.3018.9837.9837,0,0,1,.292.708v.4082a.9876.9876,0,0,1-.292.709.9412.9412,0,0,1-.7.3007h-5.3681a.1665.1665,0,0,0-.1768.1416,92.0594,92.0594,0,0,1-2.5342,9.9922,1.03,1.03,0,0,1-.5048.62,1.0912,1.0912,0,0,1-.7881.1241Zm12.7911-2.498a.99.99,0,0,1,.7353.1855.9145.9145,0,0,1,.3809.6465l.0537.4258a.9966.9966,0,0,1-.1953.7519,1.0125,1.0125,0,0,1-.6553.3994,20.6992,20.6992,0,0,1-2.7461.1944,7.5818,7.5818,0,0,1-4.03-.93,2.744,2.744,0,0,1-1.497-2.3828,2.9956,2.9956,0,0,1,.9384-2.02,1.2558,1.2558,0,0,1,.77-.4082,1.3949,1.3949,0,0,1,.877.1426l.3018.1406a.6577.6577,0,0,1,.372.5147.7143.7143,0,0,1-.1953.62,1.0872,1.0872,0,0,0-.3359.709q0,.5127.7344.85a5.0835,5.0835,0,0,0,2.0644.3369A18.093,18.093,0,0,0,392.2432,16.1934Zm-5.3321-4.5a.938.938,0,0,1-.7177-.2305.9657.9657,0,0,1-.3457-.6738l-.0352-.3536a1.0335,1.0335,0,0,1,.9209-1.1q2.8711-.2636,5.4033-.2832a.9424.9424,0,0,1,.7.3018.98.98,0,0,1,.292.708v.3555a1.0291,1.0291,0,0,1-1.01,1.01Q389.48,11.4454,386.9111,11.6934Z"/><path d="M396.9922,18.8682a.8628.8628,0,0,1-.585-.4346.8891.8891,0,0,1-.0713-.7344q1.5059-4.7841,2.4629-9.373a.1061.1061,0,0,0-.0263-.1055.1288.1288,0,0,0-.0977-.0527h-1.1162a1.0293,1.0293,0,0,1-1.01-1.01V6.75a1.0275,1.0275,0,0,1,1.01-1.01h1.5771a.1812.1812,0,0,0,.1944-.16c.0234-.1055.0537-.2539.0888-.4424s.0586-.3369.0713-.4424a1.0416,1.0416,0,0,1,.4073-.6826,1.07,1.07,0,0,1,.7617-.2217l.709.0537a.929.929,0,0,1,.832,1.0811c-.0117.07-.0293.1826-.0527.3359s-.042.2656-.0537.3369c-.0235.0948.0185.1416.124.1416h4.9609a1.0663,1.0663,0,0,1,.4785.1241.0719.0719,0,0,0,.0528-.0176l-.0176-.0186V5.793q-.07-.1582-.2481-.4688t-.248-.47a.8762.8762,0,0,1-.0615-.7.889.889,0,0,1,.4511-.54.9007.9007,0,0,1,.7178-.0538.99.99,0,0,1,.5586.4786,5.26,5.26,0,0,0,.2481.47q.1757.3105.248.47a.902.902,0,0,1,.0527.7168.8575.8575,0,0,1-.4785.5235.8461.8461,0,0,1-.8506-.0352.0562.0562,0,0,0-.0527.0352,1.0922,1.0922,0,0,1,.1592.5312v.4082a1.0293,1.0293,0,0,1-1.01,1.01h-5.4209a.1674.1674,0,0,0-.1777.1406,91.8015,91.8015,0,0,1-2.5332,9.9922,1.0384,1.0384,0,0,1-.5049.6211,1.1,1.1,0,0,1-.7881.123Zm4.8359-3.2061a2.999,2.999,0,0,1,.94-2.0205,1.2488,1.2488,0,0,1,.77-.4072,1.4013,1.4013,0,0,1,.8769.1416l.3008.1416a.65.65,0,0,1,.3721.5136.7107.7107,0,0,1-.1943.62,1.09,1.09,0,0,0-.337.709q0,.514.7354.85a5.08,5.08,0,0,0,2.0635.336,17.9279,17.9279,0,0,0,2.4277-.1768.9826.9826,0,0,1,.7354.1865.9137.9137,0,0,1,.3808.6465l.0527.4248a.9937.9937,0,0,1-.1943.753,1.01,1.01,0,0,1-.6562.3984,20.696,20.696,0,0,1-2.7461.1953,7.5921,7.5921,0,0,1-4.03-.93A2.7481,2.7481,0,0,1,401.8281,15.6621ZM404.45,11.87a.9329.9329,0,0,1-.7168-.2305.9618.9618,0,0,1-.3457-.6728l-.0361-.3545a1.033,1.033,0,0,1,.9218-1.0986q2.87-.2667,5.4034-.2832a.9415.9415,0,0,1,.7.3007.9881.9881,0,0,1,.2919.709v.3545a1.0291,1.0291,0,0,1-1.01,1.01Q407.02,11.622,404.45,11.87Zm7.6719-6.3955a.9163.9163,0,0,1-.4785.5313.8967.8967,0,0,1-.7178.0527.9812.9812,0,0,1-.5576-.4785q-.16-.3178-.5147-.9561a.9233.9233,0,0,1-.0615-.7178.8853.8853,0,0,1,.47-.54.9592.9592,0,0,1,.7442-.0537.9329.9329,0,0,1,.5664.4609c.06.1182.1445.2891.2568.5137l.2393.4785A.8818.8818,0,0,1,412.1221,5.4746Z"/><path d="M416.1963,18.9033a1.08,1.08,0,0,1-.7793-.1943,1.0573,1.0573,0,0,1-.4424-.6738,30.0751,30.0751,0,0,1-.6562-6.4131,30.0738,30.0738,0,0,1,.6562-6.4131,1.0573,1.0573,0,0,1,.4424-.6738,1.0851,1.0851,0,0,1,.7793-.1954l.833.09a.8157.8157,0,0,1,.62.3633.8921.8921,0,0,1,.1416.7343,29.3215,29.3215,0,0,0-.6025,6.0948,29.3143,29.3143,0,0,0,.6025,6.0947.8923.8923,0,0,1-.1416.7344.8163.8163,0,0,1-.62.3633Zm4.11-9.1767a1,1,0,0,1-.9921-.9922V8.3086a1,1,0,0,1,.9921-.9922h3.81a.14.14,0,0,0,.1592-.1582V5.0664a.9837.9837,0,0,1,.292-.708.9456.9456,0,0,1,.7-.3018h.709a1.031,1.031,0,0,1,1.01,1.01V7.1582a.14.14,0,0,0,.1592.1582h1.293a.9987.9987,0,0,1,.9922.9922v.4258a.9987.9987,0,0,1-.9922.9922h-1.293a.14.14,0,0,0-.1592.1591v1.7a9.42,9.42,0,0,1-.9394,4.8282,6.1425,6.1425,0,0,1-3.543,2.3125,1.0454,1.0454,0,0,1-.7969-.0713,1.0285,1.0285,0,0,1-.5322-.6026l-.1943-.5312a.884.884,0,0,1,.0439-.7442.9518.9518,0,0,1,.5762-.4785,8.0568,8.0568,0,0,0,1.1953-.4863,3.3194,3.3194,0,0,0,.77-.55,1.7835,1.7835,0,0,0,.4609-.8408,6.77,6.77,0,0,0,.1954-1.1612q.0527-.6284.0527-1.6748v-1.7a.14.14,0,0,0-.1592-.1591Z"/><path d="M433.2227,7.8125a1.0275,1.0275,0,0,1-1.01-1.01V6.3955a1.0293,1.0293,0,0,1,1.01-1.01h5.7226a.1252.1252,0,0,0,.1416-.1416V4.8359a1.0291,1.0291,0,0,1,1.01-1.01h.709a1.0308,1.0308,0,0,1,1.01,1.01v.4082a.1249.1249,0,0,0,.1416.1416h3.2422a1.0311,1.0311,0,0,1,1.01,1.01v.4072a1.0293,1.0293,0,0,1-1.01,1.01H441.957c-.0947,0-.1416.0537-.1416.16v.8144a.1256.1256,0,0,0,.1416.1426h2.5684a1.0275,1.0275,0,0,1,1.01,1.01v.3535a1.0273,1.0273,0,0,1-1.01,1.01H441.957a.1256.1256,0,0,0-.1416.1426V13.66a.2636.2636,0,0,0,.1416.2294,22.3772,22.3772,0,0,1,3.1358,2.3565.96.96,0,0,1,.3369.6992.95.95,0,0,1-.2666.7188l-.3184.3535a1.0086,1.0086,0,0,1-.6914.3281.9055.9055,0,0,1-.708-.2578q-1.0282-.9024-1.7012-1.3984c-.07-.0469-.1181-.0235-.1416.07a2.9079,2.9079,0,0,1-1.417,1.8242,6.1948,6.1948,0,0,1-2.9238.5674,4.6578,4.6578,0,0,1-3.0381-.8946,3.0834,3.0834,0,0,1-1.09-2.5244,3.0067,3.0067,0,0,1,1.0371-2.41,4.6534,4.6534,0,0,1,3.0908-.8848,7.848,7.848,0,0,1,1.6836.1943c.0938.0244.1416-.0175.1416-.124V11.4453a.126.126,0,0,0-.1416-.1426h-5.05a1.0291,1.0291,0,0,1-1.01-1.01V9.94a1.0293,1.0293,0,0,1,1.01-1.01h5.05a.126.126,0,0,0,.1416-.1426V7.9727c0-.1065-.0478-.16-.1416-.16Zm4.039,8.9121a2.4338,2.4338,0,0,0,1.4092-.293,1.492,1.492,0,0,0,.416-1.16.1969.1969,0,0,0-.124-.1953,3.9741,3.9741,0,0,0-1.3994-.2832q-1.6831,0-1.6836.9394Q435.88,16.7256,437.2617,16.7246Z"/><path d="M450.1953,7.5469a1.0275,1.0275,0,0,1-1.01-1.01V6.2715a.9408.9408,0,0,1,.3008-.6992.9849.9849,0,0,1,.709-.293h6.9268a.1411.1411,0,0,0,.16-.1592V4.5a.9372.9372,0,0,1,.3008-.6992.9833.9833,0,0,1,.709-.293H459a.943.943,0,0,1,.7.3008.984.984,0,0,1,.292.709V5.12a.1411.1411,0,0,0,.16.1592H463.66a.9812.9812,0,0,1,.708.293.9384.9384,0,0,1,.3017.6992v.2656a1.0291,1.0291,0,0,1-1.01,1.01h-3.5079a.1418.1418,0,0,0-.16.16v3.0469a.7889.7889,0,0,0,.0713.2656,5.6632,5.6632,0,0,1,.4785,2.32,5.2114,5.2114,0,0,1-1.3906,3.9073,8.2163,8.2163,0,0,1-4.6153,1.8154.9491.9491,0,0,1-.7617-.1855,1.12,1.12,0,0,1-.4258-.6817l-.07-.4785a.8985.8985,0,0,1,.168-.7178.9154.9154,0,0,1,.6465-.3808,8.3089,8.3089,0,0,0,2.64-.6465,1.991,1.991,0,0,0,.9746-1.1612.089.089,0,0,1,.0176-.0439.0857.0857,0,0,0,.0176-.0439c0-.0235-.0059-.0352-.0176-.0352H457.69a3.9841,3.9841,0,0,1-2.0547.5313,3.8708,3.8708,0,0,1-2.7373-.9747,3.2894,3.2894,0,0,1-1.0547-2.5332,3.2626,3.2626,0,0,1,1.0722-2.5332,4.3943,4.3943,0,0,1,4.3135-.6914c.0117,0,.0176.003.0176.0088s.0059.0088.0185.0088c.0108,0,.0176-.0117.0176-.0351V7.707a.1418.1418,0,0,0-.16-.16Zm6.918,5.1211a1.3068,1.3068,0,0,0,0-1.9141,1.7806,1.7806,0,0,0-2.1787,0,1.3089,1.3089,0,0,0,0,1.9141,1.7844,1.7844,0,0,0,2.1787,0Z"/><path d="M471.72,18.7168a2.9611,2.9611,0,0,1-4.1718,0,2.83,2.83,0,0,1-.8594-2.0811,2.8632,2.8632,0,0,1,.8594-2.0908,2.9541,2.9541,0,0,1,5.04,2.0908A2.8163,2.8163,0,0,1,471.72,18.7168Zm-1.2929-2.8789a1.0926,1.0926,0,0,0-.7969-.3359,1.0644,1.0644,0,0,0-.7891.3359,1.1073,1.1073,0,0,0-.3271.7978A1.1187,1.1187,0,0,0,469.63,17.752a1.1041,1.1041,0,0,0,.7969-.3282,1.0592,1.0592,0,0,0,.3369-.7881A1.09,1.09,0,0,0,470.4268,15.8379Z"/><path d="M159.7236,33.82a.09.09,0,0,0-.08.0449.06.06,0,0,0,.0087.08l.3907.6016a.8974.8974,0,0,1,.1328.7441.9566.9566,0,0,1-.4522.6211q-.4248.2652-.9746.5488a.1868.1868,0,0,0-.1064.23q.1245,1.0811.248,1.665a.086.086,0,0,0,.0713.0616.0955.0955,0,0,0,.0889-.0264l.584-.4248a.8943.8943,0,0,1,.7177-.1856.8431.8431,0,0,1,.6114.3985l.1591.248a1.1215,1.1215,0,0,1,.16.7969,1.1531,1.1531,0,0,1-.4082.709q-.7792.6021-1.1689.8848c-.0948.0712-.1241.1484-.0889.23a12.5526,12.5526,0,0,0,1.4883,2.8887,1.2213,1.2213,0,0,1,.2392.77,1.1361,1.1361,0,0,1-.292.7539l-.5673.6192a.8219.8219,0,0,1-.6641.2929.7562.7562,0,0,1-.6289-.3281q-1.9321-2.7627-2.6934-8.3437c-.0234-.0948-.0771-.1182-.1592-.0713a.3275.3275,0,0,0-.0888.0361.379.379,0,0,0-.0879.0528.2062.2062,0,0,0-.1426.2128V45.62a.9409.9409,0,0,1-.3008.7.9879.9879,0,0,1-.709.292h-.7255a.9847.9847,0,0,1-.709-.292.9419.9419,0,0,1-.3018-.7V38.9062c0-.083-.0351-.1132-.1055-.09a.7916.7916,0,0,1-.5937-.0527.8186.8186,0,0,1-.416-.4434l-.16-.46q-.0351-.0177-.0527,0-.0176,2.5326-.08,4.0654t-.168,2.5078a3.5474,3.5474,0,0,1-.3632,1.3906,1.2893,1.2893,0,0,1-.5225.5313,2.1234,2.1234,0,0,1-.7979.1152q-.142,0-1.1689-.07a1.1207,1.1207,0,0,1-.7266-.3457,1.1088,1.1088,0,0,1-.3183-.7539l-.0176-1.08c0-.0117-.01-.0176-.0273-.0176s-.0264.0059-.0264.0176a15.78,15.78,0,0,1-.62,1.7012.6773.6773,0,0,1-.5225.3984.749.749,0,0,1-.6465-.1865l-.6025-.5674a1.3149,1.3149,0,0,1-.3984-.7519,1.5682,1.5682,0,0,1,.0791-.8594q1.0283-2.7114,1.0283-9.2129c0-.082-.0537-.124-.16-.124h-.0176a1.031,1.031,0,0,1-1.01-1.01v-.3721a1.029,1.029,0,0,1,1.01-1.01h1.1163a.1252.1252,0,0,0,.1416-.1426v-.832a.9384.9384,0,0,1,.3017-.6993.9809.9809,0,0,1,.708-.2929h.7266a.9848.9848,0,0,1,.709.2929.9411.9411,0,0,1,.3007.6993v.832c0,.0957.0538.1426.16.1426H151.22a1.0273,1.0273,0,0,1,1.01,1.01c0,.0821.0234.1006.0713.0528a18.3089,18.3089,0,0,0,1.4883-2.4268,1.27,1.27,0,0,1,.5927-.585,1.1777,1.1777,0,0,1,.8243-.0878l.6025.1406a.7813.7813,0,0,1,.5225.417.7518.7518,0,0,1,.0263.665c-.0234.07,0,.1055.0713.1055h3.9151a1.0275,1.0275,0,0,1,1.01,1.01v.3008a.9452.9452,0,0,1-.3008.7012.9868.9868,0,0,1-.7089.291ZM148.8457,43.9551a.32.32,0,0,0,.2744-.1065,2.0346,2.0346,0,0,0,.16-.6728,14.4858,14.4858,0,0,0,.0967-1.6387q.0175-1.0722.0175-3.1094a.1407.1407,0,0,0-.1591-.16h-.5137a.1407.1407,0,0,0-.1592.16,27.36,27.36,0,0,1-.6738,5.2266.1282.1282,0,0,0,.1064.1758A4.0816,4.0816,0,0,0,148.8457,43.9551Zm4.0391-7.5469a.0874.0874,0,0,0,.0449-.0625.0838.0838,0,0,0-.0274-.08l-1.1337-.7265a.8057.8057,0,0,1-.39-.8145c0-.082-.0351-.124-.1064-.124a.1338.1338,0,0,0-.0528.0176h-2.4092c-.1064,0-.16.0478-.16.1416v.9746c0,.1064.0478.1592.1426.1592h2.1435a1.0309,1.0309,0,0,1,1.01,1.0107v.0527q0,.0352.0264.0352a.06.06,0,0,0,.0439-.0176,1.0031,1.0031,0,0,1,.55-.4609Zm5.705-2.5166a.0578.0578,0,0,0,.0176-.0439c0-.0176-.0117-.0274-.0351-.0274h-3.3135a.2693.2693,0,0,0-.23.125,17.6781,17.6781,0,0,1-1.6484,2.2149q-.0177.0351,0,.0527a.0229.0229,0,0,0,.0361,0A37.8087,37.8087,0,0,0,158.59,33.8916Z"/><path d="M164.1523,34.4766a1.0291,1.0291,0,0,1-1.01-1.01v-.2656a.9406.9406,0,0,1,.3017-.7.9838.9838,0,0,1,.708-.292H171.08a.1408.1408,0,0,0,.1592-.16V31.43a.9429.9429,0,0,1,.3007-.7.988.988,0,0,1,.709-.292h.709a.9372.9372,0,0,1,.6992.3008.9849.9849,0,0,1,.293.709v.6015a.1408.1408,0,0,0,.1592.16h3.5078a.9876.9876,0,0,1,.709.292.943.943,0,0,1,.3008.7v.2656a1.0275,1.0275,0,0,1-1.01,1.01h-3.5078a.14.14,0,0,0-.1592.1591v3.0479a.8115.8115,0,0,0,.07.2656,5.6632,5.6632,0,0,1,.4785,2.32,5.2086,5.2086,0,0,1-1.3906,3.9063,8.2091,8.2091,0,0,1-4.6152,1.8164.9536.9536,0,0,1-.7618-.1856,1.1183,1.1183,0,0,1-.4257-.6826l-.07-.4785a.8989.8989,0,0,1,.1679-.7178.9177.9177,0,0,1,.6465-.3808A8.3161,8.3161,0,0,0,170.69,42.9a1.9889,1.9889,0,0,0,.9737-1.16.0913.0913,0,0,1,.0175-.0449.0853.0853,0,0,0,.0186-.043c0-.0244-.0068-.0361-.0186-.0361h-.0351a3.9742,3.9742,0,0,1-2.0547.5313,3.8763,3.8763,0,0,1-2.7373-.9737,3.55,3.55,0,0,1,.0176-5.0674,4.3908,4.3908,0,0,1,4.3144-.69c.0108,0,.0176.002.0176.0078s.0059.01.0176.01.0176-.0117.0176-.0361v-.7618a.14.14,0,0,0-.1592-.1591Zm6.919,5.12a1.3077,1.3077,0,0,0,0-1.9131,1.7783,1.7783,0,0,0-2.18,0,1.3077,1.3077,0,0,0,0,1.9131,1.7821,1.7821,0,0,0,2.18,0Z"/><path d="M182.0107,39.4727l-.0878-.16a1.1243,1.1243,0,0,1,.4248-1.417l6.75-3.9678.0175-.0175h-5.456a.944.944,0,0,1-.7-.3018.98.98,0,0,1-.292-.708v-.3379a.98.98,0,0,1,.292-.708.944.944,0,0,1,.7-.3018h9.5664a1.0293,1.0293,0,0,1,1.01,1.01v.4082a1.5247,1.5247,0,0,1-.8682,1.4707l-4.4111,2.3379v.0176h.0175a9.59,9.59,0,0,1,1.6836-.1592,5.6724,5.6724,0,0,1,3.7285,1.0986,3.67,3.67,0,0,1,1.32,2.9766,4.635,4.635,0,0,1-1.86,3.9326,8.6447,8.6447,0,0,1-5.2793,1.3994q-5.3686,0-5.3682-3.2422a2.462,2.462,0,0,1,1.16-2.0547,5.3,5.3,0,0,1,3.1445-.832,5.0948,5.0948,0,0,1,2.95.6641,2.3036,2.3036,0,0,1,.9121,1.9922,3.5973,3.5973,0,0,1-.0351.5859.0773.0773,0,0,0,.0351.0615.0644.0644,0,0,0,.0713.0088,2.4832,2.4832,0,0,0,1.3106-2.32q0-2.1972-3.3487-2.1973a14.9893,14.9893,0,0,0-3.0468.2832,15.832,15.832,0,0,0-2.9766.9747,1.0718,1.0718,0,0,1-.7881.0175A.9712.9712,0,0,1,182.0107,39.4727Zm6.8038,4.1992a2.3153,2.3153,0,0,0,.1767-.8155.7544.7544,0,0,0-.3457-.6826,2.65,2.65,0,0,0-1.3017-.2207,2.1945,2.1945,0,0,0-1.1426.2383.7071.7071,0,0,0-.3809.6113q0,1.0284,2.7461,1.0274h.0176l.0351-.0176A.195.195,0,0,0,188.8145,43.6719Z"/><path d="M202.19,40.6777a.196.196,0,0,0,.1241-.1953v-3.88a.1256.1256,0,0,0-.1426-.1416h-2.7461a1.0291,1.0291,0,0,1-1.01-1.01v-.3731a.94.94,0,0,1,.3018-.6992.98.98,0,0,1,.708-.292h2.7461c.0947,0,.1426-.0537.1426-.1592V31.4648a1.0273,1.0273,0,0,1,1.01-1.01h.8145a1.0273,1.0273,0,0,1,1.01,1.01V45.6377a1.0273,1.0273,0,0,1-1.01,1.01h-.8145a1.0273,1.0273,0,0,1-1.01-1.01V43.4062c0-.0957-.0479-.1308-.1426-.1074q-1.629.6387-2.374.8867a.9367.9367,0,0,1-.753-.0712.9143.9143,0,0,1-.4687-.6026l-.1416-.5137a.9761.9761,0,0,1,.0966-.7617,1.02,1.02,0,0,1,.5938-.4785Q200.3643,41.3858,202.19,40.6777Zm6.8741,5.7041a7.6455,7.6455,0,0,1-1.2227-.124,1.22,1.22,0,0,1-.665-.4072,1.5029,1.5029,0,0,1-.336-.8154,12.8792,12.8792,0,0,1-.0625-1.4883V31.4648a1.0293,1.0293,0,0,1,1.01-1.01h.8857a.9378.9378,0,0,1,.7.3008.9837.9837,0,0,1,.292.7089v3.5606a.0871.0871,0,0,0,.0449.08.0589.0589,0,0,0,.0791-.0088,24.2423,24.2423,0,0,0,2.4981-2.0557,1.0662,1.0662,0,0,1,.7265-.2832.9169.9169,0,0,1,.6915.3008l.39.4258a.9928.9928,0,0,1,.2744.7265.9654.9654,0,0,1-.31.709,24.5862,24.5862,0,0,1-4.27,3.2237.2592.2592,0,0,0-.124.2128v4.8545a1.8078,1.8078,0,0,0,.0537.584c.0352.0713.1416.1192.3184.1426a4.0449,4.0449,0,0,0,.6914.0527,5.0528,5.0528,0,0,0,.709-.0527.5134.5134,0,0,0,.248-.0713.894.894,0,0,0,.1416-.417,6.4021,6.4021,0,0,0,.0879-.9922q.0175-.6269.0537-1.9746a.8756.8756,0,0,1,.3272-.664.8666.8666,0,0,1,.7-.2041l.5136.0537a1.1,1.1,0,0,1,.709.3711,1.0205,1.0205,0,0,1,.2657.7441,26.8349,26.8349,0,0,1-.3008,3.668,2.6564,2.6564,0,0,1-.6026,1.4433,2.4371,2.4371,0,0,1-1.3291.4522,12.5027,12.5027,0,0,1-1.5947.0888Q209.772,46.4355,209.0645,46.3818Z"/><path d="M215.8672,40.0566l-.2481-1.4521a2.6275,2.6275,0,0,1,.4082-1.8076,17.5014,17.5014,0,0,0,2.1436-5.4385.9893.9893,0,0,1,.4336-.6377,1.0053,1.0053,0,0,1,.7529-.16l.62.1075a1.0329,1.0329,0,0,1,.6465.4248.9525.9525,0,0,1,.169.7441,19.0408,19.0408,0,0,1-1.01,3.4717.8352.8352,0,0,0-.0713.3018V45.6377a.9876.9876,0,0,1-.292.709.9446.9446,0,0,1-.7.3008h-.69a.943.943,0,0,1-.7-.3008.984.984,0,0,1-.292-.709V39.8623a.0423.0423,0,0,0-.0361-.0439.0548.0548,0,0,0-.0528.0078,1.5413,1.5413,0,0,1-.1416.2129,1.6531,1.6531,0,0,0-.1416.2129.4239.4239,0,0,1-.4609.1679A.411.411,0,0,1,215.8672,40.0566Zm16.7246-5.456a1.0293,1.0293,0,0,1-1.01,1.01h-10.01a.9419.9419,0,0,1-.7-.3018.9837.9837,0,0,1-.292-.708v-.1944a.9857.9857,0,0,1,.292-.7089.9419.9419,0,0,1,.7-.3018h10.01a1.0293,1.0293,0,0,1,1.01,1.0107ZM221.2,45.6377v-3.49a.9954.9954,0,0,1,.9922-.9913h8.5215a.9867.9867,0,0,1,.709.2911.9449.9449,0,0,1,.3007.7v3.49a1.0273,1.0273,0,0,1-1.01,1.01h-1.293a.5135.5135,0,0,1-.5137-.5137.0786.0786,0,0,0-.0888-.0889h-4.8018c-.0469,0-.07.0293-.07.0889a.5135.5135,0,0,1-.5137.5137h-1.24a.9446.9446,0,0,1-.7-.3008A.988.988,0,0,1,221.2,45.6377Zm1.1514-7.5293a.9263.9263,0,0,1-.69-.292.9621.9621,0,0,1,0-1.3652.9251.9251,0,0,1,.69-.291h8.2207a.9248.9248,0,0,1,.69.291.9618.9618,0,0,1,0,1.3652.9261.9261,0,0,1-.69.292Zm0,2.498a.9741.9741,0,1,1,0-1.9482h8.2207a.9741.9741,0,1,1,0,1.9482Zm8.3271-9.7617a1.0293,1.0293,0,0,1,1.01,1.01.9972.9972,0,0,1-1.01,1.01h-7.9375a1.01,1.01,0,0,1,0-2.02Zm-6.7324,12.4014v.709a.1253.1253,0,0,0,.1416.1416h4.6592c.1064,0,.16-.0479.16-.1416v-.709c0-.0938-.0537-.1416-.16-.1416h-4.6592A.1253.1253,0,0,0,223.9463,43.2461Z"/><path d="M233.8672,36.8857a.9214.9214,0,0,1-.3633-.6552.9347.9347,0,0,1,.2217-.7266l.2656-.3008a1.0892,1.0892,0,0,1,.6914-.373.9622.9622,0,0,1,.7442.2129q1.08.8687,1.5234,1.2578a1.0521,1.0521,0,0,1,.124,1.4531l-.2842.3545a.8487.8487,0,0,1-.664.3369.9852.9852,0,0,1-.7178-.248Q234.8414,37.6655,233.8672,36.8857Zm1.9844,8.7881a.75.75,0,0,1-.5225.46.7811.7811,0,0,1-.7-.124l-.4609-.336a1.1707,1.1707,0,0,1-.4688-.6826,1.1906,1.1906,0,0,1,.0615-.8232,29.43,29.43,0,0,0,1.1514-3.26.8565.8565,0,0,1,.47-.5674.8924.8924,0,0,1,.7354-.0361l.3545.1426a1.14,1.14,0,0,1,.6113.54,1.0557,1.0557,0,0,1,.0977.7881A28.8566,28.8566,0,0,1,235.8516,45.6738ZM234.5049,32.918a.8959.8959,0,0,1-.3545-.6563.9132.9132,0,0,1,.2305-.709l.248-.2832a1.0941,1.0941,0,0,1,.7-.372,1.03,1.03,0,0,1,.77.2129q.9038.69,1.4707,1.1865a.9607.9607,0,0,1,.3359.7,1.0389,1.0389,0,0,1-.248.7353l-.2656.336a.9.9,0,0,1-.6817.3378.9869.9869,0,0,1-.7177-.248Q234.9648,33.29,234.5049,32.918Zm14.5635,9.9736c-.0245,0-.0362.0088-.0362.0264a.059.059,0,0,0,.0186.0449l.1416.0879a.7008.7008,0,0,1,.3535.55.6308.6308,0,0,1-.248.5849.7872.7872,0,0,1-.1143.0879.7516.7516,0,0,0-.1152.0889.0741.0741,0,0,0-.0274.0713.0777.0777,0,0,0,.0449.0527.5361.5361,0,0,0,.1065.0352.5468.5468,0,0,1,.1055.0351.9258.9258,0,0,1,.5673.4522.7744.7744,0,0,1,.0528.7l-.0352.0527a1.1835,1.1835,0,0,1-.54.62.9773.9773,0,0,1-.7881.0889A9.1981,9.1981,0,0,1,245.7021,45c-.0117-.0117-.0332-.0088-.0625.0088s-.0439.0322-.0439.0439a1.02,1.02,0,0,1-.2393.7178.99.99,0,0,1-.6464.3633q-2.02.2828-4.128.4248a.92.92,0,0,1-.7265-.2559.9789.9789,0,0,1-.3369-.7l-.0176-.4609c0-.0234-.0059-.0352-.0176-.0352a.051.051,0,0,0-.0352.0176q-.16.3721-.3193.6905a.6986.6986,0,0,1-.585.3994.8077.8077,0,0,1-.69-.2393l-.5488-.5137a1.1914,1.1914,0,0,1-.3906-.7177,1.3231,1.3231,0,0,1,.124-.8233,10.5581,10.5581,0,0,0,.6914-4.3056V38.32a1.0293,1.0293,0,0,1,1.01-1.01h10.3115a.8052.8052,0,0,1,.5752.23.7605.7605,0,0,1,.2392.5674.8184.8184,0,0,1-.8144.8154h-8.6289c-.1055,0-.1592.0469-.1592.1407v1.2939q0,.4438-.0176.6728c0,.1065.0469.16.1416.16h8.7168a.85.85,0,0,1,0,1.7Zm-10.0811-5.917a1.0275,1.0275,0,0,1-1.01-1.01V32.2969a1.0293,1.0293,0,0,1,1.01-1.01h1.5772c.082,0,.124-.0469.124-.1416a.8769.8769,0,0,1,.8857-.8857h.8506a.8769.8769,0,0,1,.8857.8857c0,.0947.0411.1416.1241.1416h.85c.083,0,.124-.0469.124-.1416a.8769.8769,0,0,1,.8857-.8857h.8506a.8771.8771,0,0,1,.8858.8857c0,.0947.042.1416.124.1416h1.5771a1.0293,1.0293,0,0,1,1.01,1.01v3.6679a1.0275,1.0275,0,0,1-1.01,1.01h-9.7441Zm1.8066,7.4053V43.0508c0-.1055-.0468-.1592-.1416-.1592H240.21a.1684.1684,0,0,0-.1778.1416,10.9779,10.9779,0,0,1-.3535,1.4356c-.0244.082.0176.124.124.124l.85-.0537C240.7471,44.5391,240.7939,44.4863,240.7939,44.38Zm-.5488-11.126v.3008a.1407.1407,0,0,0,.1592.16h.709a.1407.1407,0,0,0,.1592-.16v-.3008a.1405.1405,0,0,0-.1592-.1592h-.709A.1405.1405,0,0,0,240.2451,33.2539Zm0,1.8242V35.38c0,.0947.0528.1416.1592.1416h.709c.1064,0,.1592-.0469.1592-.1416v-.3018a.14.14,0,0,0-.1592-.1582h-.709A.14.14,0,0,0,240.2451,35.0781Zm1.2227,4.2168h7.2988a.7678.7678,0,0,1,.55.2217.7513.7513,0,0,1,0,1.0811.7673.7673,0,0,1-.55.2207h-7.2988a.7618.7618,0,1,1,0-1.5235Zm3.1709,4.8731c.0234,0,.041-.0157.0537-.045s.0058-.0507-.0176-.0625a7.0921,7.0921,0,0,1-.7627-1.0449.2579.2579,0,0,0-.2119-.124h-.2656a.1415.1415,0,0,0-.16.1592V44.168c0,.0937.0537.1406.16.1406C243.67,44.2852,244.0723,44.2383,244.6387,44.168Zm-1.293-10.9141v.3008a.1407.1407,0,0,0,.1592.16h.709a.1407.1407,0,0,0,.1591-.16v-.3008a.14.14,0,0,0-.1591-.1592h-.709A.14.14,0,0,0,243.3457,33.2539Zm0,1.8242V35.38c0,.0947.0527.1416.1592.1416h.709c.1064,0,.1591-.0469.1591-.1416v-.3018a.14.14,0,0,0-.1591-.1582h-.709A.14.14,0,0,0,243.3457,35.0781Zm4.7129,7.92c.0234-.0117.0293-.0322.0176-.0625a.0585.0585,0,0,0-.0537-.0439h-1.5762a.0742.0742,0,0,0-.0625.0439c-.0176.03-.0147.0508.0088.0625a4.5617,4.5617,0,0,0,.709.584.1757.1757,0,0,0,.2129,0Zm-1.6123-9.7441v.3008a.1407.1407,0,0,0,.1592.16h.709a.1411.1411,0,0,0,.1591-.16v-.3008a.1408.1408,0,0,0-.1591-.1592h-.709A.14.14,0,0,0,246.4463,33.2539Zm0,1.8242V35.38c0,.0947.0527.1416.1592.1416h.709c.1054,0,.1591-.0469.1591-.1416v-.3018a.1405.1405,0,0,0-.1591-.1582h-.709A.14.14,0,0,0,246.4463,35.0781Z"/><path d="M254.3477,45.832a1.08,1.08,0,0,1-.7793-.1943,1.0577,1.0577,0,0,1-.4434-.6729,31.713,31.713,0,0,1,0-12.8271,1.0605,1.0605,0,0,1,.4434-.6729,1.0808,1.0808,0,0,1,.7793-.1953l.833.0889a.82.82,0,0,1,.62.3633.8979.8979,0,0,1,.1416.7353,31.1177,31.1177,0,0,0,0,12.1885.8975.8975,0,0,1-.1416.7354.8177.8177,0,0,1-.62.3632Zm8.0966-.5664a6.9266,6.9266,0,0,1-3.9863-.9922,3.0923,3.0923,0,0,1-1.4346-2.6748,3.5825,3.5825,0,0,1,.4073-1.497,7.7245,7.7245,0,0,1,1.1162-1.6914.92.92,0,0,1,.6992-.3379,1.1348,1.1348,0,0,1,.7715.248l.4072.3018a.87.87,0,0,1,.3457.6552,1.0387,1.0387,0,0,1-.2217.7266,2.7264,2.7264,0,0,0-.7265,1.418,1.0163,1.0163,0,0,0,.62.9648,4.7521,4.7521,0,0,0,2.0019.3106,17.39,17.39,0,0,0,2.9053-.2657.9781.9781,0,0,1,.7442.1592.9343.9343,0,0,1,.4072.6377l.0713.5137a1.0424,1.0424,0,0,1-.168.7793.9513.9513,0,0,1-.6475.4258A17.0014,17.0014,0,0,1,262.4443,45.2656Zm2.7637-12.8437a1.0275,1.0275,0,0,1,1.01,1.01V33.91a1.0291,1.0291,0,0,1-1.01,1.01h-5.6514a1.0291,1.0291,0,0,1-1.01-1.01v-.4786a1.0275,1.0275,0,0,1,1.01-1.01Z"/><path d="M270.1152,35.3975l-.1591-.7432a.97.97,0,0,1,.1416-.7627.9841.9841,0,0,1,.6377-.4424,39.2741,39.2741,0,0,1,7.2109-1.0635q6.8554,0,6.8555,5.7227a6.0173,6.0173,0,0,1-2.6036,5.2793q-2.6044,1.8076-8.0966,1.9668a1.0006,1.0006,0,0,1-.7442-.2744,1.0626,1.0626,0,0,1-.3545-.7178l-.07-.708a.8536.8536,0,0,1,.2481-.7012.9925.9925,0,0,1,.69-.3095q4.2348-.107,6.041-1.1426A3.35,3.35,0,0,0,281.72,38.41a2.97,2.97,0,0,0-.957-2.4454,4.9148,4.9148,0,0,0-3.1006-.7793,35.3823,35.3823,0,0,0-6.3418.9747.9952.9952,0,0,1-.7617-.1329A.9532.9532,0,0,1,270.1152,35.3975Z"/><path d="M292.0127,45.8682q-1.5777,0-2.915-2.0733a9.1479,9.1479,0,0,1-1.337-5.0664,21.8918,21.8918,0,0,1,.6553-5.333,1.0846,1.0846,0,0,1,.47-.6641,1.17,1.17,0,0,1,.8057-.1865l.7793.0889a.7955.7955,0,0,1,.6113.3633.8808.8808,0,0,1,.1328.7177,22.2514,22.2514,0,0,0-.6015,5.0137,7.6374,7.6374,0,0,0,.54,3.0381q.5406,1.25,1.0713,1.249.3369,0,.8955-.6992a9.96,9.96,0,0,0,1.16-2.0117,1.0545,1.0545,0,0,1,1.3291-.5664l.5664.2129a.9362.9362,0,0,1,.5762.5224.9493.9493,0,0,1,.0087.7705,9.7243,9.7243,0,0,1-2.2236,3.41A3.8005,3.8005,0,0,1,292.0127,45.8682Zm7.5293-2.9229a27.5166,27.5166,0,0,0-1.7891-8.9824.8884.8884,0,0,1,.0352-.7354.8517.8517,0,0,1,.5674-.47l.69-.1953a1.0961,1.0961,0,0,1,.8057.0625,1.1384,1.1384,0,0,1,.5761.5762,27.1538,27.1538,0,0,1,1.9844,9.7617.8839.8839,0,0,1-.2832.6992.9849.9849,0,0,1-.709.293h-.8506a.97.97,0,0,1-.708-.3008A1.0375,1.0375,0,0,1,299.542,42.9453Z"/><path d="M306.31,34.7773a1.017,1.017,0,0,1-.7256-.2832.9334.9334,0,0,1-.3018-.7089v-.5664a.9987.9987,0,0,1,.9922-.9922q6.378-.0352,12.6856-.3184a.935.935,0,0,1,.708.2656.9718.9718,0,0,1,.3193.6905l.0176.5673a1.0046,1.0046,0,0,1-.2569.7344,1.08,1.08,0,0,1-.7.3633,11.1581,11.1581,0,0,0-5.3858,1.7539,3.9693,3.9693,0,0,0-1.8066,3.26,3.2559,3.2559,0,0,0,1.1162,2.5957,4.3038,4.3038,0,0,0,2.9228.9658,8.7372,8.7372,0,0,0,1.1338-.0713.99.99,0,0,1,.7354.1865.9124.9124,0,0,1,.3808.6465l.0889.62a1.0343,1.0343,0,0,1-.2041.77.9687.9687,0,0,1-.6816.3994,12.0157,12.0157,0,0,1-1.5948.0879,7.6282,7.6282,0,0,1-5.0849-1.6123,5.3456,5.3456,0,0,1-1.9131-4.3056,5.1625,5.1625,0,0,1,.8681-2.7891,7.4549,7.4549,0,0,1,2.3916-2.33c.0118,0,.0176-.0117.0176-.0351a.0155.0155,0,0,0-.0176-.0176Q309.4277,34.7422,306.31,34.7773Z"/><path d="M324.7178,45.832a1.0785,1.0785,0,0,1-.7793-.1943,1.0577,1.0577,0,0,1-.4434-.6729,31.713,31.713,0,0,1,0-12.8271,1.0605,1.0605,0,0,1,.4434-.6729,1.08,1.08,0,0,1,.7793-.1953l.6728.0889a.8186.8186,0,0,1,.62.3633.8939.8939,0,0,1,.1416.7353,31.1735,31.1735,0,0,0,0,12.1885.8689.8689,0,0,1-.1416.7266.8832.8832,0,0,1-.62.372Zm6.6611.1075a4.7676,4.7676,0,0,1-3.1621-.9483,3.2536,3.2536,0,0,1-1.125-2.6308,3.17,3.17,0,0,1,1.1162-2.5772,4.8172,4.8172,0,0,1,3.1709-.9307,5.3806,5.3806,0,0,1,1.0635.1065c.0937.0234.1416-.0176.1416-.125V36.1416a.1409.1409,0,0,0-.1592-.1592h-3.6855a.9375.9375,0,0,1-.6993-.3008.9846.9846,0,0,1-.2929-.7089v-.4082a.9812.9812,0,0,1,.2929-.7081.9421.9421,0,0,1,.6993-.3017h3.6855c.1055,0,.1592-.0469.1592-.1406V31.9609a.94.94,0,0,1,.3008-.7.9878.9878,0,0,1,.709-.2919h.7089a.9984.9984,0,0,1,.9922.9921v1.4532c0,.0937.0528.1406.1592.1406h1.6123a1.031,1.031,0,0,1,1.01,1.01v.4082a1.0293,1.0293,0,0,1-1.01,1.01h-1.6123a.1405.1405,0,0,0-.1592.1592V40.43a.3577.3577,0,0,0,.124.248q.832.7441,2.1075,2.0371a1.0092,1.0092,0,0,1,.2841.7168.9808.9808,0,0,1-.3017.7188l-.3545.3359a.9954.9954,0,0,1-.708.2832.9117.9117,0,0,1-.6914-.3007c-.0586-.0713-.1533-.1719-.2832-.3008-.13-.1309-.2246-.23-.2832-.3018a.1354.1354,0,0,0-.0977-.0361.0759.0759,0,0,0-.08.0537Q334.1964,45.939,331.3789,45.94Zm-.1592-4.66q-1.5234,0-1.5234,1.0811,0,1.1528,1.5234,1.1513a1.4343,1.4343,0,0,0,1.0449-.3183,1.467,1.467,0,0,0,.3194-1.0635v-.3194a.2219.2219,0,0,0-.1416-.23A2.644,2.644,0,0,0,331.22,41.2793Z"/><path class="a" d="M11.6716,10.865H11.38a.3721.3721,0,0,0-.3713-.3584h-.584a.3721.3721,0,1,0,0,.7441h.1087a.3732.3732,0,0,0,.3714.3584h.7665a.3721.3721,0,0,0,0-.7441m.1072.48a.1563.1563,0,0,1-.1072.0449h-.7665a.1534.1534,0,0,1-.1522-.1537.1591.1591,0,0,1,.0112-.0544.1108.1108,0,0,0-.0112-.1025.1094.1094,0,0,0-.0911-.048H10.425a.1528.1528,0,0,1-.1074-.2608.1472.1472,0,0,1,.1074-.0431h.584a.1518.1518,0,0,1,.152.1519.1312.1312,0,0,1-.0112.0545.117.117,0,0,0,.0112.1024.11.11,0,0,0,.0913.048h.4193a.153.153,0,0,1,.152.152.15.15,0,0,1-.0448.1088"/><path class="a" d="M15.6662,5.7006l-.1025.144a5.5262,5.5262,0,0,1,.5746.5041l-.3488.3457a5.1,5.1,0,0,0-.5122-.4513l-.1073.1488a4.8425,4.8425,0,0,1,1.9061,3.8522c0,.1457-.0081.2976-.0224.4561,0,.0047-.0016.03-.0064.0671l-.0143.1233a14.1636,14.1636,0,0,1-2.6343,6.4736l-.0208.0287A3.7759,3.7759,0,0,1,9.57,18.7886a.761.761,0,0,0-.11-.0545,1.287,1.287,0,0,0-.9842-.0033.77.77,0,0,0-.1218.0578,3.7782,3.7782,0,0,1-4.75-1.3044v-.0464l-.0993-.1041A14.1012,14.1012,0,0,1,.8914,10.8906l-.0048-.0368c-.0033-.024-.0064-.0511-.01-.0785-.0047-.0448-.0065-.0719-.008-.0831C.8546,10.54.8483,10.39.8483,10.2441A4.8609,4.8609,0,0,1,5.7038,5.3885a5.0276,5.0276,0,0,1,.7474.056l.0255-.1761a5.0862,5.0862,0,0,0-.5808-.056l.0191-.49a5.1576,5.1576,0,0,1,.629.0609L6.57,4.6043a5.963,5.963,0,0,0-.8658-.064A5.71,5.71,0,0,0,0,10.2441c0,.1713.008.3473.024.5153,0,0,.0016.0384.01.1088.0032.03.0063.0625.0112.0912l.0048.0368A15.011,15.011,0,0,0,2.7558,17.75v.03l.09.0913a4.6228,4.6228,0,0,0,5.891,1.674l.0368-.0207a.1849.1849,0,0,1,.0273-.0114.413.413,0,0,1,.3344.0049.0482.0482,0,0,1,.0161.0065l.0368.0207a4.621,4.621,0,0,0,5.8957-1.6835,15.0336,15.0336,0,0,0,2.791-6.8658l.0049-.0431.01-.0833c.008-.064.0111-.1025.0111-.1025.0161-.1759.024-.3519.024-.5232a5.7,5.7,0,0,0-2.258-4.5435M5.1516,4.7451l.048.49a4.9707,4.9707,0,0,0-.6866.1169l-.1151-.4786a5.67,5.67,0,0,1,.7537-.128m-1.482.36.1809.4561a5.0176,5.0176,0,0,0-.6273.3009L2.98,5.4349a5.4308,5.4308,0,0,1,.69-.33M2.343,5.8574l.2993.39a4.943,4.943,0,0,0-.5218.461l-.35-.3456a5.7071,5.7071,0,0,1,.573-.5058M1.2722,6.9425l.3938.2944a4.9922,4.9922,0,0,0-.3761.5858L.86,7.5858a5.5641,5.5641,0,0,1,.4127-.6433M.5377,8.28l.4593.1744a5.0421,5.0421,0,0,0-.2016.6658L.3169,9.0118A5.4934,5.4934,0,0,1,.5377,8.28M.1792,10.2441c0-.1585.0065-.3185.0193-.477l.49.0417c-.0112.144-.0177.29-.0177.4353,0,.0879.0016.1744.0065.2608l-.4913.0256c-.0049-.0944-.0065-.19-.0065-.2864M.27,11.2826l.4849-.0751c.0354.2273.08.4641.1313.7057l-.48.1025C.352,11.7661.3072,11.52.27,11.2826m.309,1.4564.4752-.1264c.0608.23.13.4641.2017.6914l-.4689.1472c-.0736-.2336-.144-.4737-.208-.7122m.45,1.4148.4608-.17c.0832.2242.1729.45.2673.6674l-.4512.1937c-.0978-.2258-.1906-.4577-.2769-.6914m.5857,1.3668.4416-.2161c.1042.2161.2161.4289.3314.637l-.429.2384c-.12-.2144-.2352-.437-.344-.6593m1.1378,1.92c-.1424-.2018-.2832-.41-.4144-.6194l.416-.2626c.1265.2034.2608.4034.3985.597Zm.941,1.1762a4.5027,4.5027,0,0,1-.5136-.5761l.3921-.2945a3.9766,3.9766,0,0,0,.4592.512Zm1.2883.845a4.4909,4.4909,0,0,1-.68-.3665l.2688-.4113a4.0037,4.0037,0,0,0,.605.3264Zm1.5.352a4.3812,4.3812,0,0,1-.765-.11l.1121-.4786a3.8842,3.8842,0,0,0,.68.0976Zm.7714-.0222-.0561-.4882a3.9786,3.9786,0,0,0,.6723-.1394l.1408.4706a4.5187,4.5187,0,0,1-.757.157m1.9686-.4307-.021-.0095a.5923.5923,0,0,0-.47-.0016l-.0161.0063-.192-.4529.0208-.0079a1.0933,1.0933,0,0,1,.8466.0032.3771.3771,0,0,1,.0415.0176Zm1.4723.4321a4.2054,4.2054,0,0,1-.7571-.1519l.1377-.4706a4.0315,4.0315,0,0,0,.6738.1345Zm.7729.0193-.03-.49a4.0579,4.0579,0,0,0,.68-.1023l.1153.4768a4.3952,4.3952,0,0,1-.7651.1153m1.4964-.36-.1969-.4512a3.9264,3.9264,0,0,0,.6035-.3281l.272.41a4.4826,4.4826,0,0,1-.6786.37M16.2455,7.221l.3937-.2962a5.4185,5.4185,0,0,1,.4145.6418l-.4289.2385a4.9882,4.9882,0,0,0-.3793-.5841m.6738,1.2147.4593-.1776a5.5047,5.5047,0,0,1,.224.7313l-.4785.11a5.0514,5.0514,0,0,0-.2048-.6641M14.2467,18.6013l-.3393-.3569a3.988,3.988,0,0,0,.4561-.5153l.3952.2928a4.6452,4.6452,0,0,1-.512.5794m.9394-1.1795-.4017-.2834c.1376-.1935.27-.3936.3968-.5968l.4177.2608c-.1328.21-.272.4192-.4128.6194m.79-1.2611-.43-.2369c.1151-.208.2256-.4225.3312-.6386l.4418.2161c-.1089.2225-.2242.4449-.3426.6594m.65-1.3363-.4513-.1936c.0928-.2177.1825-.4418.2657-.6675l.4608.17c-.0864.2337-.1792.4657-.2752.6914m.5153-1.394-.4673-.1488c.072-.2272.1393-.4593.2-.69l.4754.1249c-.0641.2385-.1329.4785-.2081.7137m.3809-1.4372-.4817-.1023c.0528-.2417.0961-.4785.1313-.7058l.4849.0752c-.0368.2369-.0816.4833-.1345.7329m.2161-1.485-.49-.024q.0048-.12.0048-.24c0-.1521-.0063-.3057-.0207-.4562l.49-.0448c.0145.1649.0224.3328.0224.501,0,.0879-.0016.176-.0063.2641"/><path class="b" d="M14.9444.8865A3.0624,3.0624,0,0,0,9.82,2.3142a9.8845,9.8845,0,0,0-.4321,2.85c-.0016.0417-.0016.0848-.0016.1281,0,.2352.0081.4769.0273.7281l.0016.0016a.3965.3965,0,0,0,.0431.2256.3922.3922,0,0,0,.0657.09l.008.01a.3927.3927,0,0,0,.2817.1169c.0143,0,.0289-.0017.0448-.0032v.0015c.2225.0145.44.0209.65.0209a9.9592,9.9592,0,0,0,3.0535-.4594,2.9355,2.9355,0,0,0,.4706-.1648c.0448-.0192.09-.04.1329-.0624.0671-.0337.1326-.0688.1967-.1088a2.989,2.989,0,0,0,.4465-.3249c.048-.0417.0929-.0848.1377-.13l.0175-.016c.021-.0208.0417-.0417.0609-.0641a3.06,3.06,0,0,0-.08-4.2667M11.92,2.0933a1.2991,1.2991,0,1,1,.0079,1.8373A1.3,1.3,0,0,1,11.92,2.0933"/><path class="c" d="M8.6532,7.421c-.0016.0256-.0016.0527-.0031.0783-.0032.0321-.0048.0641-.0081.0962l.0017.01-.0017.0031-.0047.0209a.2473.2473,0,0,1-.2209.2144.1043.1043,0,0,1-.0223.0015H8.3876A.2994.2994,0,0,1,8.1123,7.53c-.0032-.0288-.0048-.0608-.0095-.0944a9.2765,9.2765,0,0,0-.2513-1.426c-.0128-.048-.0256-.096-.0384-.1424-.0208-.0752-.0433-.1505-.0657-.2256-.0224-.072-.0464-.1442-.07-.2146-.0464-.1344-.096-.2687-.152-.4017-.03-.0751-.064-.1487-.0976-.2224-.0193-.0447-.0417-.09-.0641-.1344-.0256-.0544-.0527-.1089-.08-.1617a5.5466,5.5466,0,0,0-1.9-2.1317.8206.8206,0,0,1-.3231-.53.7191.7191,0,0,1,.0558-.4066A.7518.7518,0,0,1,5.7406.997c.0224-.0016.0431-.0016.064-.0016a.7543.7543,0,0,1,.4145.1249.795.795,0,0,1,.0752.0576l.0128.0112A6.861,6.861,0,0,1,7.7714,3.0439a6.702,6.702,0,0,1,.4593,1.0643,7.2987,7.2987,0,0,1,.2722,1.0371c.0047.0224.01.0447.0126.0671.0049.024.01.048.0129.0737.0384.216.0689.4369.09.6609.008.0688.0145.1361.0193.2048.0064.0769.0112.1553.0143.2321.0033.0481.0049.0961.0065.1441.0128.2929.01.5921-.0049.893"/><path class="a" d="M8.4276,17.1881c0,.5521-.8243.9844-1.8741.9844-1.0514,0-1.874-.4323-1.874-.9844,0-.2913.2241-.5553.6322-.7409a.11.11,0,0,1,.1457.0527.1111.1111,0,0,1-.0545.1457c-.32.1473-.5041.3458-.5041.5425,0,.4144.7569.7649,1.6547.7649.8962,0,1.6548-.3505,1.6548-.7649,0-.1857-.1648-.3745-.4528-.5169a.1068.1068,0,0,1-.0609-.1009.0977.0977,0,0,1,.0112-.0463.11.11,0,0,1,.1473-.05.8638.8638,0,0,1,.5745.7138"/><path class="a" d="M6.6848,16.5608a.8389.8389,0,0,1-.008.168,1.27,1.27,0,0,1-.24.5538.1117.1117,0,0,1-.09.0463.1059.1059,0,0,1-.0641-.0207.11.11,0,0,1-.0255-.1536,1.2471,1.2471,0,0,0,.1215-.2034.8349.8349,0,0,0,.08-.2527.6884.6884,0,0,0,.0064-.1409.9065.9065,0,0,0-.0159-.1249.0909.0909,0,0,0-.0065-.0223,1.5671,1.5671,0,0,0-.056-.1985l-.0063-.0207a1.05,1.05,0,0,1-.0657-.3249,1.5616,1.5616,0,0,1,.176-.6947.11.11,0,0,1,.192.1056,1.3733,1.3733,0,0,0-.1487.5891.8743.8743,0,0,0,.056.2576l.0063.0192a2.4158,2.4158,0,0,1,.0673.2464,1.0986,1.0986,0,0,1,.0208.1713"/><path class="a" d="M7.3409,15.5926a.7319.7319,0,0,0-.1391.4528.36.36,0,0,0,.0128.0865,1.2149,1.2149,0,0,0,.0431.136,1.2016,1.2016,0,0,1,.0592.1856.7086.7086,0,0,1,.0161.1137.5678.5678,0,0,1-.0049.1648,1.0272,1.0272,0,0,1-.2624.4945.1084.1084,0,0,1-.0816.0368.1087.1087,0,0,1-.0832-.1808,1.4518,1.4518,0,0,0,.1233-.1648.6805.6805,0,0,0,.0879-.2225.5138.5138,0,0,0,.0032-.1313c-.0032-.0191-.0065-.04-.0112-.0606a.122.122,0,0,0-.0065-.024c-.0128-.0466-.03-.093-.0447-.1361A1.3945,1.3945,0,0,1,7,16.1847a.6315.6315,0,0,1-.0176-.1393.9513.9513,0,0,1,.1936-.5985.11.11,0,1,1,.1648.1457"/><path class="a" d="M6.0318,15.535a.7355.7355,0,0,0-.1377.4528.4529.4529,0,0,0,.0257.1361c.01.0287.0193.0559.03.0848a1.3245,1.3245,0,0,1,.0688.2368.6109.6109,0,0,1,.01.1072.6459.6459,0,0,1-.024.1906,1.1071,1.1071,0,0,1-.2464.4256.1144.1144,0,0,1-.0832.0368.1048.1048,0,0,1-.0722-.0271.1076.1076,0,0,1-.011-.1537,1.134,1.134,0,0,0,.1231-.1664.628.628,0,0,0,.0785-.1729.49.49,0,0,0,.0159-.1345.3454.3454,0,0,0-.0063-.0688.38.38,0,0,0-.0145-.0608,1.3493,1.3493,0,0,0-.0447-.1359c-.0112-.0321-.0224-.0641-.0336-.0944a.6861.6861,0,0,1-.0368-.2034.95.95,0,0,1,.1936-.5985.11.11,0,1,1,.1648.1457"/><path class="a" d="M12.8174,16.2359,11.64,15.0565a.3422.3422,0,0,0-.47,0L9.9912,16.2359a.9988.9988,0,0,0,0,1.4132,1.9922,1.9922,0,0,0,2.8262,0,.9985.9985,0,0,0,0-1.4132m-.1568,1.2547a1.7751,1.7751,0,0,1-2.5109,0,.7656.7656,0,0,1-.1521-.216h2.8151a.7436.7436,0,0,1-.1521.216m-2.73-.4385a.7728.7728,0,0,1,.2193-.6577l1.1778-1.18a.1082.1082,0,0,1,.1536,0l1.18,1.18a.771.771,0,0,1,.2274.5472.8557.8557,0,0,1-.0081.11Z"/><path class="a" d="M11.4155,15.727l-.5826.5809a.1087.1087,0,0,1-.0783.0336.1126.1126,0,0,1-.08-.0336.1109.1109,0,0,1,0-.1568l.5825-.5826a.112.112,0,0,1,.1584.1585"/><path class="a" d="M11.8332,13.0863,11.71,12.963a.474.474,0,0,0-.3664-.13.3389.3389,0,0,0,.0017-.0415.4608.4608,0,0,0-.1361-.3281l-.1233-.1233a.4748.4748,0,0,0-.6544,0l-.1233.1233a.4608.4608,0,0,0-.1361.3281.36.36,0,0,0,.0016.0415.4663.4663,0,0,0-.3649.1313l-.1232.1232a.4618.4618,0,0,0,0,.6546l.1232.1233a.4551.4551,0,0,0,.3265.1359A.3083.3083,0,0,0,10.1736,14a.284.284,0,0,0-.0016.0368.4681.4681,0,0,0,.1361.3281l.1233.1233a.4614.4614,0,0,0,.6544,0l.1233-.1233a.461.461,0,0,0,.1361-.3281.29.29,0,0,0-.0017-.0383A.3313.3313,0,0,0,11.382,14a.4663.4663,0,0,0,.3279-.1343l.1233-.1249a.46.46,0,0,0,.1345-.3265.4663.4663,0,0,0-.1345-.3281m-1.4962.5954-.0289.0289a.2446.2446,0,0,1-.3442,0l-.1232-.1233a.2419.2419,0,0,1,0-.3442l.1232-.1232a.2419.2419,0,0,1,.3442,0l.0271.0272a.2445.2445,0,0,0-.008.0577v.07a.2087.2087,0,0,0,.0529.1392.213.213,0,0,0-.0529.1408v.0689a.1655.1655,0,0,0,.01.0576m.7169.5281-.1233.1233a.2509.2509,0,0,1-.3442,0l-.1231-.1233a.2406.2406,0,0,1-.07-.1729.2368.2368,0,0,1,.07-.1711l.0287-.0289a.1662.1662,0,0,0,.0578.01h.0687a.22.22,0,0,0,.1408-.0513.216.216,0,0,0,.1393.0513h.0688a.1646.1646,0,0,0,.0576-.01h.0016l.0273.0273v.0016a.2383.2383,0,0,1,.072.1711.2421.2421,0,0,1-.072.1729m-.5458-1.045H10.51a.0521.0521,0,0,1,.04-.0177h.0687a.0574.0574,0,0,1,.0576.0577v.128H10.55a.0575.0575,0,0,1-.0578-.0576v-.07a.0463.0463,0,0,1,.0177-.0384l-.0016-.0016m.0417.3328h.1263v.1265a.0574.0574,0,0,1-.0576.0576H10.55a.0521.0521,0,0,1-.04-.0177v-.0016a.0462.0462,0,0,1-.0177-.0383v-.0689a.0575.0575,0,0,1,.0578-.0576m.4176,0a.0587.0587,0,0,1,.0592.0576v.0689a.0514.0514,0,0,1-.0175.04.0584.0584,0,0,1-.0417.0177h-.0688a.0574.0574,0,0,1-.0577-.0576v-.1265Zm-.1265-.1648v-.128a.0574.0574,0,0,1,.0577-.0577h.0688a.0584.0584,0,0,1,.0417.0177.0519.0519,0,0,1,.0175.04v.07a.0587.0587,0,0,1-.0592.0576Zm.2177-.3729-.0047.0031v.0017l-.0289.0288v-.0016a.2213.2213,0,0,0-.0576-.008h-.0688a.216.216,0,0,0-.1393.0513.22.22,0,0,0-.1408-.0513H10.55a.2235.2235,0,0,0-.0578.008v.0016l-.0287-.0288V12.963a.2424.2424,0,0,1,0-.3424l.1231-.1248a.2494.2494,0,0,1,.1729-.07.2451.2451,0,0,1,.1713.07l.1233.1248a.2358.2358,0,0,1,.072.1713.24.24,0,0,1-.0673.168m.6194.6258-.1249.1249a.247.247,0,0,1-.3424-.0017l-.0289-.0288a.2117.2117,0,0,0,.0081-.056v-.0689a.2205.2205,0,0,0-.0512-.1408.216.216,0,0,0,.0512-.1392v-.07a.2348.2348,0,0,0-.0081-.0577l.0289-.0287a.2483.2483,0,0,1,.3424,0l.1249.1233a.2472.2472,0,0,1,.07.1727.2408.2408,0,0,1-.07.1713"/><path class="a" d="M7.1441,7.181l-.1281-.13a.4833.4833,0,0,0-.3809-.1343.4871.4871,0,0,0-.1391-.3841l-.13-.1281a.479.479,0,0,0-.68,0l-.1282.1281a.4789.4789,0,0,0-.1391.3792.4822.4822,0,0,0-.3809.1408L4.91,7.181a.4807.4807,0,0,0,0,.6817l.1279.1281a.477.477,0,0,0,.3408.1408.3157.3157,0,0,0,.04-.0017.2926.2926,0,0,0-.0017.0385.4774.4774,0,0,0,.1408.3409l.1282.128a.4793.4793,0,0,0,.6818,0l.128-.128a.4774.4774,0,0,0,.1408-.3409A.2926.2926,0,0,0,6.6351,8.13a.3173.3173,0,0,0,.04.0017.4813.4813,0,0,0,.3408-.1424l.1281-.1282a.4817.4817,0,0,0,0-.68m-.6786.0622.0305-.03.0047-.0047a.2611.2611,0,0,1,.3537.0047l.128.13a.2511.2511,0,0,1,0,.357l-.128.128a.259.259,0,0,1-.3584,0l-.0289-.0289A.2348.2348,0,0,0,6.4752,7.74V7.6674a.2224.2224,0,0,0-.0529-.1455.2234.2234,0,0,0,.0529-.1458V7.3042a.1919.1919,0,0,0-.01-.061M5.72,6.6944l.128-.128a.2525.2525,0,0,1,.1794-.0753.2488.2488,0,0,1,.1776.0753l.13.128a.2543.2543,0,0,1,.0048.3521l-.0048.0047-.0287.03H6.3039a.1814.1814,0,0,0-.0592-.01h-.072a.2188.2188,0,0,0-.1456.0544.2164.2164,0,0,0-.1457-.0544h-.072a.19.19,0,0,0-.0608.01H5.747L5.72,7.0528a.253.253,0,0,1,0-.3584m.525.741H6.1119V7.3042a.0609.0609,0,0,1,.0608-.061h.072a.0584.0584,0,0,1,.0416.0177.0621.0621,0,0,1,.0176.0433v.0719a.06.06,0,0,1-.0592.0593m.0592.232V7.74a.06.06,0,0,1-.0592.0591h-.072A.06.06,0,0,1,6.1119,7.74V7.6066h.1328a.06.06,0,0,1,.0592.0608m-.4945-.232a.06.06,0,0,1-.0608-.0593V7.3042a.062.062,0,0,1,.0175-.0433.0592.0592,0,0,1,.0433-.0177h.072a.0606.0606,0,0,1,.0592.061v.1312Zm.1312.1712V7.74a.06.06,0,0,1-.0592.0591h-.072a.0591.0591,0,0,1-.0433-.0175A.0582.0582,0,0,1,5.7486,7.74V7.6674a.0608.0608,0,0,1,.0608-.0608ZM5.5869,7.8l-.0289.0289H5.5566a.2573.2573,0,0,1-.357,0l-.128-.128a.2531.2531,0,0,1,0-.3586l.128-.128a.2523.2523,0,0,1,.1792-.0752.249.249,0,0,1,.1778.0752H5.558l.0289.0287a.1976.1976,0,0,0-.01.061v.0719a.2228.2228,0,0,0,.0529.1458.2218.2218,0,0,0-.0529.1455V7.74a.1952.1952,0,0,0,.01.0607m.7474.5474-.128.128a.2593.2593,0,0,1-.3586,0l-.128-.128a.25.25,0,0,1-.0752-.1792A.2468.2468,0,0,1,5.72,7.9908l.0289-.03a.19.19,0,0,0,.0608.01h.072a.2233.2233,0,0,0,.1457-.0529.2258.2258,0,0,0,.1456.0529h.072a.1917.1917,0,0,0,.0609-.01l.0287.0289v.0016a.2453.2453,0,0,1,.0736.1776.249.249,0,0,1-.0736.1792"/><path class="a" d="M4.726,8.0883,4.598,7.96a.48.48,0,0,0-.381-.1394.4784.4784,0,0,0-.1393-.3792L3.95,7.3137a.4928.4928,0,0,0-.6817,0L3.14,7.4418a.488.488,0,0,0-.1408.3857.4806.4806,0,0,0-.3794.1343L2.4918,8.09a.4792.4792,0,0,0,0,.68L2.62,8.9a.4867.4867,0,0,0,.341.1408.3344.3344,0,0,0,.04-.0016.3083.3083,0,0,0-.0016.0384.477.477,0,0,0,.1408.3409l.1281.128a.483.483,0,0,0,.6817,0l.128-.128a.4767.4767,0,0,0,.1409-.3409.3361.3361,0,0,0-.0016-.04.3165.3165,0,0,0,.04.0017.48.48,0,0,0,.3409-.1408l.128-.128a.4844.4844,0,0,0,0-.6819m-1.5572.6194v.0017L3.14,8.7381l-.0047.0048a.2564.2564,0,0,1-.3538-.0048l-.1279-.13a.2511.2511,0,0,1,0-.357l.1279-.128a.2512.2512,0,0,1,.3585,0l.0289.0273v.0016a.19.19,0,0,0-.01.0607v.0721a.2156.2156,0,0,0,.0545.1455.2165.2165,0,0,0-.0545.1457v.072a.1812.1812,0,0,0,.01.0593m.1328-1.1043.128-.128a.2511.2511,0,0,1,.3584,0l.1281.128a.2513.2513,0,0,1,0,.357l-.0288.03a.1968.1968,0,0,0-.0608-.01H3.7544a.2163.2163,0,0,0-.1456.0544.2157.2157,0,0,0-.1457-.0544H3.3913a.1954.1954,0,0,0-.0608.01l-.0289-.0289V7.96a.2511.2511,0,0,1,0-.357m.5249.741H3.6936V8.2131a.0608.0608,0,0,1,.0608-.0607h.0721a.06.06,0,0,1,.0608.0607v.0721a.06.06,0,0,1-.0608.0592m.0608.232v.072A.0586.0586,0,0,1,3.87,8.69a.0621.0621,0,0,1-.0433.0176H3.7544a.0605.0605,0,0,1-.0608-.0593V8.5157h.1329a.0606.0606,0,0,1,.0608.0607m-.496-.232a.06.06,0,0,1-.0608-.0592V8.2131a.06.06,0,0,1,.0608-.0607h.0718a.06.06,0,0,1,.0594.0607v.1313Zm.1312.1713v.1327a.0593.0593,0,0,1-.0594.0593H3.3913A.0619.0619,0,0,1,3.348,8.69a.0582.0582,0,0,1-.0175-.0417v-.072a.0606.0606,0,0,1,.0608-.0607Zm.3936.7409-.1281.1281a.2532.2532,0,0,1-.3584,0l-.128-.1281a.2535.2535,0,0,1-.0049-.3521L3.3016,8.9l.0289-.03a.1954.1954,0,0,0,.0608.01h.0718a.2229.2229,0,0,0,.1457-.0527.2236.2236,0,0,0,.1456.0527h.0721a.1968.1968,0,0,0,.0608-.01l.0288.0289a.2518.2518,0,0,1,.0737.1792.2491.2491,0,0,1-.0737.1792m.6482-.6481-.128.128a.2533.2533,0,0,1-.3586,0L4.049,8.7077a.24.24,0,0,0,.0079-.0593v-.072a.2231.2231,0,0,0-.0527-.1457.2222.2222,0,0,0,.0527-.1455V8.2131a.1923.1923,0,0,0-.01-.0607l.03-.03a.2547.2547,0,0,1,.3586,0l.128.128a.2533.2533,0,0,1,0,.3586"/><path class="a" d="M15.0243,10.7417H12.7358a.2093.2093,0,0,0-.21.21v4.0937a.2106.2106,0,0,0,.21.2112h2.2885a.2105.2105,0,0,0,.21-.2112V10.9515a.2093.2093,0,0,0-.21-.21m-1.4738.1473H14.21a.0505.0505,0,0,1,.0512.0513.0516.0516,0,0,1-.0512.0512h-.6593a.0516.0516,0,0,1-.0513-.0512.0506.0506,0,0,1,.0513-.0513m.33,4.23a.208.208,0,1,1,.208-.208.2075.2075,0,0,1-.208.208m1.1411-.5472H12.739V11.14h2.2822Z"/><path class="a" d="M9.93,11.7852a.2669.2669,0,0,0-.3121-.0864,1.516,1.516,0,0,1-1.4563-.0736.2722.2722,0,0,0-.1522-.0479h-.024v-.349a1.6736,1.6736,0,0,0,1.234-.5025.2694.2694,0,0,0,.0032-.3345.2559.2559,0,0,0-.2736-.0848,1.2152,1.2152,0,0,1-.9874-.01.79.79,0,0,1-.3426-.5345.2581.2581,0,0,0-.2512-.21H4.7194a.2552.2552,0,0,0-.25.21.7875.7875,0,0,1-.344.5345,1.2123,1.2123,0,0,1-.986.01.2522.2522,0,0,0-.2736.0848.2653.2653,0,0,0,.0033.3345,1.6733,1.6733,0,0,0,1.2339.5025v.349h-.024a.2719.2719,0,0,0-.1521.0479,1.52,1.52,0,0,1-1.458.0736.2645.2645,0,0,0-.31.0864.2816.2816,0,0,0,.0112.3536,2.1132,2.1132,0,0,0,1.5155.6595V13.35h-.41a.2842.2842,0,0,0-.28.2465l-.1359.901a.2912.2912,0,0,0,.0671.2352.279.279,0,0,0,.2128.0976h5.81a.2814.2814,0,0,0,.2128-.0976.2909.2909,0,0,0,.0672-.2352l-.136-.901a.2854.2854,0,0,0-.28-.2465h-.41v-.5521a2.1042,2.1042,0,0,0,1.5139-.6595.28.28,0,0,0,.0129-.3536M3.044,10.58a.0379.0379,0,0,1,0-.048.0253.0253,0,0,1,.0207-.0095h.008a1.4276,1.4276,0,0,0,1.17-.03,1.0242,1.0242,0,0,0,.45-.6866A.0292.0292,0,0,1,4.7194,9.78H7.3682a.0306.0306,0,0,1,.0287.0256,1.0129,1.0129,0,0,0,.45.6866,1.4276,1.4276,0,0,0,1.17.03.03.03,0,0,1,.0287.0095.0382.0382,0,0,1,0,.048,1.598,1.598,0,0,1-1.2883.429H4.3307A1.5935,1.5935,0,0,1,3.044,10.58m4.7146.9972H7.2545v-.3409h.5041Zm-.7313,0H6.5232v-.3409h.5041Zm-.7314,0H5.7918v-.3409h.5041Zm-.73,0H5.06v-.3409h.5057Zm-.7313,0H4.3307v-.3409h.5041Zm3.9785,2.0005a.06.06,0,0,1,.056.0527l.1361.901a.0754.0754,0,0,1-.0145.0545.06.06,0,0,1-.0415.0191H3.14a.06.06,0,0,1-.0415-.0191.0686.0686,0,0,1-.0144-.0545l.1361-.901a.0594.0594,0,0,1,.0559-.0527H8.8133Zm-4.9019-.7747h.6721V13.35H3.9114Zm.8993,0h.6706V13.35H4.8107Zm.8978.5473v-.5473h.6723V13.35H5.7085Zm1.57,0H6.6064v-.5473h.6721Zm.2272-.5473h.6706V13.35H7.5057Zm2.2422-.8146a1.9239,1.9239,0,0,1-1.4964.589H3.8378a1.9239,1.9239,0,0,1-1.4964-.589.0507.0507,0,0,1-.0017-.0656.0374.0374,0,0,1,.0321-.016.0233.0233,0,0,1,.0143.0032,1.74,1.74,0,0,0,1.6708-.0992.0365.0365,0,0,1,.0225-.0065H8.01a.04.04,0,0,1,.0226.0065,1.7362,1.7362,0,0,0,1.6691.0992.04.04,0,0,1,.048.0128.0529.0529,0,0,1-.0016.0656"/><path class="a" d="M16.1846,9.415H15.911V9.3943a.4323.4323,0,0,0-.4321-.4321h-.1536a.403.403,0,0,0,.0031-.0464.4319.4319,0,0,0-.432-.4306h-.3729L13.2671,7.23a.6888.6888,0,0,0-.9713,0l-.485.485-.2433-.2417a.524.524,0,0,0-.7265,0l-.869.8691H9.6647a.4283.4283,0,0,0-.3041.1248.4373.4373,0,0,0-.1264.269H8.4884a.434.434,0,0,0-.432.432.4323.4323,0,0,0,.432.4321H9.8951a.4339.4339,0,0,0,.4306.389h.5585a.4286.4286,0,0,0,.3057-.1265.4224.4224,0,0,0,.1248-.2625.4349.4349,0,0,0,.4226-.4321.4319.4319,0,0,0-.4322-.432h-.1457c-.0016-.0177-.0048-.0338-.0079-.0513l.2048-.2048.4545-.4529.0785-.0785.0767-.0783.485-.485a.4676.4676,0,0,1,.6611,0l1.0993,1.0994h-.4176A.4321.4321,0,0,0,13.49,8.61a.42.42,0,0,0-.11.184.3946.3946,0,0,0-.0144.1681h-.39a.437.437,0,0,0-.3058.1263.4323.4323,0,0,0,.3058.7378h.4608l-.0015.0192a.4337.4337,0,0,0,.4321.4338h2.3188a.4318.4318,0,0,0,.3058-.1281.4269.4269,0,0,0,.1263-.3057.432.432,0,0,0-.4321-.4305m-4.8795-.4577a.2041.2041,0,0,1,.1808.1056.1853.1853,0,0,1,.03.1057.2131.2131,0,0,1-.2113.2128H11.2a.1113.1113,0,0,0-.0865.04.1087.1087,0,0,0-.0207.0928.2022.2022,0,0,1,.0047.0447.2089.2089,0,0,1-.0623.1489.2135.2135,0,0,1-.1505.0625h-.5585a.2126.2126,0,0,1-.2129-.2114.1963.1963,0,0,1,.0049-.0447.1085.1085,0,0,0-.021-.0928.1108.1108,0,0,0-.0864-.04H8.4884a.2138.2138,0,0,1-.2128-.2128A.2037.2037,0,0,1,8.3381,9.02a.2066.2066,0,0,1,.15-.0625H9.351a.1089.1089,0,0,0,.0864-.0431.1075.1075,0,0,0,.0208-.0928.2569.2569,0,0,1-.0063-.048.2092.2092,0,0,1,.0624-.1489.2127.2127,0,0,1,.15-.0625H10.729a.2022.2022,0,0,1,.16.0753.1867.1867,0,0,1,.05.1056.1018.1018,0,0,1,.0031.03.17.17,0,0,1-.0064.048.09.09,0,0,0,.01.07.0614.0614,0,0,0,.0112.0224.1092.1092,0,0,0,.0864.0431Zm-.2592-.4768a.4311.4311,0,0,0-.3169-.1377h-.4465l.7138-.7137a.2993.2993,0,0,1,.416,0l.2433.2431Zm5.2876,1.5171a.2119.2119,0,0,1-.1489.0608H13.8658a.2115.2115,0,0,1-.2114-.2129.1965.1965,0,0,1,.0177-.0847.1146.1146,0,0,0-.0079-.1041.11.11,0,0,0-.093-.05h-.5968a.2128.2128,0,0,1-.15-.3634.2212.2212,0,0,1,.15-.0622h.5376a.11.11,0,0,0,.096-.1634.2043.2043,0,0,1-.027-.1023.2159.2159,0,0,1,.0622-.1505l.0112-.01a.22.22,0,0,1,.1394-.0512h1.1026a.2124.2124,0,0,1,.2129.2113.2044.2044,0,0,1-.0272.1023.1092.1092,0,0,0,.0016.1105.1079.1079,0,0,0,.0944.0529h.3008a.2137.2137,0,0,1,.2128.2128.1888.1888,0,0,1-.0191.0848.1174.1174,0,0,0,.0079.1056.1139.1139,0,0,0,.0928.05h.4113a.2127.2127,0,0,1,.1489.3633"/></svg>