<svg xmlns="http://www.w3.org/2000/svg" viewBox="0 0 194.4743 131.5358"><defs><style>.a{fill:#ea9d33;}.b{fill:#fff;stroke:#ea9d33;stroke-miterlimit:10;stroke-width:1.0951px;}</style></defs><path d="M.88,31.3483a.3243.3243,0,0,1-.37.045.3249.3249,0,0,1-.1914-.3125v-.0772A1.4256,1.4256,0,0,1,.88,29.8308L2.3213,28.67a1.9611,1.9611,0,0,1,1.25-.4345.6984.6984,0,0,1,.7012.7021v7.9092a.6969.6969,0,0,1-.7012.7012.6969.6969,0,0,1-.7022-.7012V29.779c0-.0088-.0039-.0127-.0127-.0127l-.0253.0127Z"/><path d="M8.1631,33.3757a.5738.5738,0,1,1,0-1.1475h10.332a.5738.5738,0,1,1,0,1.1475h-7.168a.1314.1314,0,0,0-.1406.1152c-.0176.0762-.0771.2852-.1787.625-.0176.0762.0088.1153.0762.1153h6.06a.6168.6168,0,0,1,.4843.2168.6374.6374,0,0,1,.166.498q-.1025,1.0313-.2109,1.6641a7.3669,7.3669,0,0,1-.2422,1.039,1.2269,1.2269,0,0,1-.3633.5938,1.1971,1.1971,0,0,1-.4716.2422,3.1882,3.1882,0,0,1-.69.0576q-.5478,0-2.41-.0772a.6307.6307,0,0,1-.4335-.1914.6159.6159,0,0,1-.1915-.42.5261.5261,0,0,1,.5606-.5615q1.3653.063,2.0283.0635a1.8613,1.8613,0,0,0,.377-.0254c.0713-.0176.1445-.0957.2168-.2364a1.9288,1.9288,0,0,0,.165-.5488q.0586-.3369.1475-1.09c.0166-.0684-.0176-.1016-.1026-.1016h-5.459a.1492.1492,0,0,0-.1533.0889q-.1157.3061-.3447.8672a.8021.8021,0,0,1-.3887.4209.7791.7791,0,0,1-.5683.0644.541.541,0,0,1-.3819-.3125.61.61,0,0,1-.0127-.5039,25.9361,25.9361,0,0,0,.8926-2.5137c.0166-.0586-.0088-.09-.0762-.09Zm8.84-5.8418a.7406.7406,0,0,1,.7276.7275V30.736a.6772.6772,0,0,1-.2168.5039.714.714,0,0,1-.5108.21H9.6553a.71.71,0,0,1-.51-.21.6772.6772,0,0,1-.2168-.5039V28.2614a.7406.7406,0,0,1,.7266-.7275Zm-.6377,2.7939V28.7585a.1019.1019,0,0,0-.1152-.1152H10.4082a.1017.1017,0,0,0-.1143.1152v1.5693c0,.0674.0381.1026.1143.1026H16.25C16.3271,30.43,16.3652,30.3952,16.3652,30.3278Z"/><path d="M105.4336,11.7224V10.8H117.083a13.642,13.642,0,0,1-2.5-2.498l.8037-.4922a16.0732,16.0732,0,0,0,3.8086,3.4521,16.0544,16.0544,0,0,0-3.8086,3.4522l-.8037-.4922a13.6805,13.6805,0,0,1,2.5-2.499Z"/><path class="a" d="M116.93,32.6315a.39.39,0,0,1,0,.6739l-8.2041,4.747a.3993.3993,0,0,1-.59-.3486l-.0127-9.4824a.3721.3721,0,0,1,.1993-.3428.3545.3545,0,0,1,.3916.0069Z"/><rect class="b" x="30.6335" y="0.5476" width="68" height="20"/><path d="M48.8486,15.9968a.6506.6506,0,0,1-.4658.1914.6535.6535,0,0,1-.65-.65V11.6472a.0389.0389,0,0,0-.0254-.0137,13.845,13.845,0,0,1-.5488,1.34.3774.3774,0,0,1-.3447.2295.41.41,0,0,1-.3819-.1914l-.0136-.0381a1.1653,1.1653,0,0,1-.0381-1.25,14.725,14.725,0,0,0,1.3144-3.6484c.0166-.0762-.0088-.1152-.0771-.1152h-.7266a.577.577,0,0,1-.415-.1651.5706.5706,0,0,1,0-.8164.5782.5782,0,0,1,.415-.166H47.63q.1024,0,.1025-.1142v-1.34a.6535.6535,0,0,1,.65-.65.6465.6465,0,0,1,.4658.1914.6141.6141,0,0,1,.1973.459v1.34q0,.1141.1025.1142h.51a.5738.5738,0,1,1,0,1.1475h-.3955a.0907.0907,0,0,0-.0635.0254.0575.0575,0,0,0-.0127.0644q.6372,1.4532,1.2881,3.01a.75.75,0,0,1,.0381.4922.7059.7059,0,0,1-.2676.4013.4338.4338,0,0,1-.6631-.2041q-.2167-.6123-.498-1.3144-.0249-.0117-.0381,0v5.1035A.6171.6171,0,0,1,48.8486,15.9968Zm7.1241-4.8985a.7156.7156,0,0,1,.5293.0254.6608.6608,0,0,1,.3632.3692q.65,1.62,1.2891,3.5849a.6918.6918,0,0,1-.4346.8682.6173.6173,0,0,1-.497-.0322.6476.6476,0,0,1-.3321-.39,1.2945,1.2945,0,0,1-.0635-.1777,1.3431,1.3431,0,0,0-.0634-.18.1136.1136,0,0,0-.128-.0889,53.7318,53.7318,0,0,1-6.0712.7022.5542.5542,0,0,1-.4209-.1533.6281.6281,0,0,1-.2041-.4082.552.552,0,0,1,.1523-.4209.6279.6279,0,0,1,.4082-.2041c.085-.0088.2148-.0166.39-.0264.1739-.0078.3038-.0156.3887-.0254a.1627.1627,0,0,0,.1533-.1143q.7647-2.4243,1.3907-5.1406a.72.72,0,0,1,.8291-.5478.6289.6289,0,0,1,.4336.2861.6491.6491,0,0,1,.0888.5166q-.6123,2.6411-1.2881,4.7715c-.0175.0508.0088.0762.0762.0762q1.9263-.2052,3.2783-.4082c.0684-.0176.0938-.0547.0772-.1153q-.3706-1.0576-.7149-1.9a.66.66,0,0,1,.0069-.5166A.5916.5916,0,0,1,55.9727,11.0983Zm-5.5489-.9062a.67.67,0,0,1-.2929-.4649.75.75,0,0,1,.1015-.5429,16.7594,16.7594,0,0,0,1.5049-3.4571.6744.6744,0,0,1,.3125-.3945.652.652,0,0,1,.5039-.0762.623.623,0,0,1,.3955.2989.5935.5935,0,0,1,.0645.4922,17.5159,17.5159,0,0,1-1.6719,3.9668.5827.5827,0,0,1-.4209.2929A.6023.6023,0,0,1,50.4238,10.1921Zm7.3223,0a.6574.6574,0,0,1-.957-.166,17.0435,17.0435,0,0,1-1.8243-3.9668.5716.5716,0,0,1,.0508-.4971.62.62,0,0,1,.4082-.3057.652.652,0,0,1,.5039.0762.7816.7816,0,0,1,.3379.4082,15.3469,15.3469,0,0,0,1.6455,3.4434.7356.7356,0,0,1,.1211.5429A.6531.6531,0,0,1,57.7461,10.1921Z"/><path d="M72.4785,14.2614a.5779.5779,0,0,1-.4717.1475.5318.5318,0,0,1-.4082-.2617.7969.7969,0,0,1-.1152-.543.8118.8118,0,0,1,.2559-.5039,20.5709,20.5709,0,0,0,4.2216-5.2422.0423.0423,0,0,0,.0069-.0566.0638.0638,0,0,0-.0576-.0332H72.3379a.5751.5751,0,0,1-.4141-.1651.5573.5573,0,0,1-.1718-.4209.58.58,0,0,1,.1718-.4277.5622.5622,0,0,1,.4141-.1719h4.2988a.09.09,0,0,0,.1026-.1015V5.2683a.689.689,0,0,1,1.3779,0V6.4812a.09.09,0,0,0,.1016.1015h4.2988a.5619.5619,0,0,1,.414.1719.5807.5807,0,0,1,.1729.4277.5579.5579,0,0,1-.1729.4209.5747.5747,0,0,1-.414.1651H78.9463a.0626.0626,0,0,0-.0576.0332.0422.0422,0,0,0,.0058.0566A20.6008,20.6008,0,0,0,83.1172,13.1a.8156.8156,0,0,1,.2549.5039.8014.8014,0,0,1-.1143.543.53.53,0,0,1-.4023.2617.5719.5719,0,0,1-.4659-.1475A23.5572,23.5572,0,0,1,78.168,8.9558a.0444.0444,0,0,0-.0323-.0137c-.0127,0-.0185.0088-.0185.0254v3.9551a.0892.0892,0,0,0,.1016.1015H80.26a.5869.5869,0,0,1,.5869.5869.5242.5242,0,0,1-.1719.4014.587.587,0,0,1-.415.16h-2.041c-.0684,0-.1016.038-.1016.1152v1.3389a.689.689,0,0,1-1.3779,0V14.2878c0-.0772-.0342-.1152-.1026-.1152h-2.041a.5833.5833,0,0,1-.4141-.16.5211.5211,0,0,1-.1718-.4014.5867.5867,0,0,1,.5859-.5869h2.041a.09.09,0,0,0,.1026-.1015V8.9675a.03.03,0,0,0-.0508-.0254A23.4441,23.4441,0,0,1,72.4785,14.2614Z"/><path d="M47.3242,34.486a2.9649,2.9649,0,0,1-2.2451-.8486,3.23,3.23,0,0,1-.8164-2.34,3.0372,3.0372,0,0,1,.918-2.3282,3.453,3.453,0,0,1,2.4619-.8613q3.3809,0,3.3808,4.082a6.9163,6.9163,0,0,1-1.0019,4.1641,3.4723,3.4723,0,0,1-2.9531,1.32,7.7346,7.7346,0,0,1-1.3262-.1269.6718.6718,0,0,1-.4277-.2618.7688.7688,0,0,1-.1592-.4785.416.416,0,0,1,.1787-.3574.4957.4957,0,0,1,.4082-.0762,5.7415,5.7415,0,0,0,1.3262.1534,2.2426,2.2426,0,0,0,1.7412-.7207,3.0867,3.0867,0,0,0,.6953-2.06c0-.0176-.0039-.0254-.0127-.0254h-.0254A2.8975,2.8975,0,0,1,47.3242,34.486Zm.3184-5.2295a1.9488,1.9488,0,0,0-1.4541.5293,2.0589,2.0589,0,0,0-.5225,1.5118,2.1635,2.1635,0,0,0,.542,1.5683,1.9006,1.9006,0,0,0,1.4346.5615,1.8457,1.8457,0,0,0,1.416-.5742,2.1869,2.1869,0,0,0,.5361-1.5556,2.0176,2.0176,0,0,0-.5547-1.48A1.8875,1.8875,0,0,0,47.6426,29.2565Z"/><path d="M54.1357,32.573a.7406.7406,0,0,1-.7275-.7266v-.46a.7406.7406,0,0,1,.7275-.7275H54.34a.7406.7406,0,0,1,.7266.7275v.46a.7406.7406,0,0,1-.7266.7266Zm0,4.9746a.7406.7406,0,0,1-.7275-.7266v-.46a.7406.7406,0,0,1,.7275-.7275H54.34a.7406.7406,0,0,1,.7266.7275v.46a.7406.7406,0,0,1-.7266.7266Z"/><path d="M63.166,29.779l-2.3213,2.2578a.0356.0356,0,0,0-.0127.0264c0,.0078.0039.0117.0127.0117h.2422a2.6749,2.6749,0,0,1,1.9258.6572,2.4764,2.4764,0,0,1,.6894,1.8819,2.8945,2.8945,0,0,1-.8867,2.2578,3.5837,3.5837,0,0,1-2.4941.8027,6.81,6.81,0,0,1-1.7979-.2422A.8014.8014,0,0,1,58.07,37.12a.8894.8894,0,0,1-.1719-.541.4.4,0,0,1,.1973-.3574.4474.4474,0,0,1,.415-.0508,5.504,5.504,0,0,0,1.8106.3565,2.0234,2.0234,0,0,0,1.4609-.4971,1.8748,1.8748,0,0,0,.5166-1.416,1.2957,1.2957,0,0,0-.5547-1.1543,3.3069,3.3069,0,0,0-1.8046-.377H59.582a.5437.5437,0,0,1-.5361-.5351,1.1882,1.1882,0,0,1,.3828-.9063l2.3467-2.2187a.0389.0389,0,0,0,.0137-.0254.0124.0124,0,0,0-.0137-.0137H58.4082A.5773.5773,0,0,1,58,28.4011a.56.56,0,0,1,.4082-.166H63a.5669.5669,0,0,1,.5742.5742A1.27,1.27,0,0,1,63.166,29.779Z"/><path d="M71.3359,36.948a4.7745,4.7745,0,0,1-5.0634,0,2.3647,2.3647,0,0,1-.9121-1.9512,2.1487,2.1487,0,0,1,.5039-1.3711,3.2167,3.2167,0,0,1,1.3964-.9766c.0088,0,.0127-.0039.0127-.0127s-.0039-.0127-.0127-.0127a2.7389,2.7389,0,0,1-1.1669-.9179,2.2056,2.2056,0,0,1-.4151-1.3008,1.9949,1.9949,0,0,1,.8291-1.666,4.4948,4.4948,0,0,1,4.5928,0,1.9949,1.9949,0,0,1,.8291,1.666,2.2063,2.2063,0,0,1-1.582,2.0918c-.0088,0-.0127.0039-.0127.0117,0,.01.0039.0137.0127.0137a2.4658,2.4658,0,0,1,1.9,2.4746A2.3647,2.3647,0,0,1,71.3359,36.948Zm-2.6972-3.7754a3.2757,3.2757,0,0,0-1.4541.707,1.412,1.412,0,0,0-.4981,1.0527,1.44,1.44,0,0,0,.5684,1.2051,2.4629,2.4629,0,0,0,1.55.4414,2.353,2.353,0,0,0,1.5234-.4414,1.4676,1.4676,0,0,0,.543-1.2051q0-1.3008-2.0283-1.76A.4011.4011,0,0,0,68.6387,33.1726Zm-1.6075-2.6407a1.233,1.233,0,0,0,.4209.9121,2.6368,2.6368,0,0,0,1.2374.5928.5346.5346,0,0,0,.2294,0,2.9848,2.9848,0,0,0,1.27-.6181,1.1869,1.1869,0,0,0,.4394-.8868,1.1522,1.1522,0,0,0-.4717-.97,2.2119,2.2119,0,0,0-1.3515-.3564,2.1258,2.1258,0,0,0-1.32.35A1.1653,1.1653,0,0,0,67.0312,30.5319Z"/><path d="M81.6621,32.6745c-.0762,0-.1152.0342-.1152.1026v1.2753a.1013.1013,0,0,0,.1152.1143h2.6025a.5653.5653,0,0,1,.5733.5742.5653.5653,0,0,1-.5733.5742H81.6621a.1024.1024,0,0,0-.1152.1153v1.6328c0,.1777.041.2871.122.3242a2.5541,2.5541,0,0,0,.7461.0586,1.6687,1.6687,0,0,0,.86-.1348q.1728-.1332.2236-.7968a.6739.6739,0,0,1,.2168-.4463.5631.5631,0,0,1,.459-.1534.6582.6582,0,0,1,.459.2364.6826.6826,0,0,1,.166.49c-.0166.3242-.04.583-.07.7793a1.4661,1.4661,0,0,1-.1777.5225,1.3221,1.3221,0,0,1-.2618.3379,1.057,1.057,0,0,1-.4658.1728,4.6338,4.6338,0,0,1-.6572.0762c-.2119.0078-.5274.0127-.9434.0127a8.5178,8.5178,0,0,1-1.3711-.0772.8146.8146,0,0,1-.5429-.2617,1.127,1.127,0,0,1-.127-.6182V35.43a.102.102,0,0,0-.1152-.1153H78.2051a.1244.1244,0,0,0-.127.1153A4.3414,4.3414,0,0,1,74.71,38.5681a.6181.6181,0,0,1-.4912-.0518.7243.7243,0,0,1-.3379-.3818.5313.5313,0,0,1,.0253-.4531.5851.5851,0,0,1,.3575-.3,3.382,3.382,0,0,0,2.373-1.9765c.0166-.06-.0088-.09-.0771-.09H74.3145a.5669.5669,0,0,1-.5743-.5742.5669.5669,0,0,1,.5743-.5742H76.751c.0683,0,.1025-.0371.1025-.1143,0-.0166.002-.0517.0059-.1025s.0068-.084.0068-.1016V32.7771c0-.0684-.0391-.1026-.1152-.1026h-.4844a.5165.5165,0,0,1-.498-.3183c-.0342-.0684-.0762-.0811-.127-.0391q-.5493.3574-1.2119.7275a.5583.5583,0,0,1-.4717.045.6022.6022,0,0,1-.3574-.3125.6516.6516,0,0,1-.0381-.4913.6276.6276,0,0,1,.3057-.3769q1.0077-.5478,1.5947-.9434.0381-.0117.0381-.0644a.1071.1071,0,0,0-.0254-.0762q-1.1352-1.02-1.1738-1.0586a.5387.5387,0,0,1-.1973-.4082.5515.5515,0,0,1,.1719-.4209.693.693,0,0,1,.4463-.1914.6535.6535,0,0,1,.4589.1533q.2433.205,1.2891,1.16a.1367.1367,0,0,0,.166.0137,9.2157,9.2157,0,0,0,1.3643-1.43.0411.0411,0,0,0,.0068-.0567.062.062,0,0,0-.0576-.0312H75.6543a.55.55,0,0,1-.3955-.16.52.52,0,0,1-.166-.3887.5653.5653,0,0,1,.5615-.5615h3.5332a1.2036,1.2036,0,0,1,1.084.625,8.3415,8.3415,0,0,0,.5488.7783.0807.0807,0,0,0,.1406.0118q.4337-.4834.8164-.9688a.6172.6172,0,0,1,.3946-.248.6509.6509,0,0,1,.46.082.5551.5551,0,0,1,.2608.37.5168.5168,0,0,1-.0947.4209q-.5114.65-1.0206,1.1992a.0943.0943,0,0,0,0,.1524c.1954.18.4336.3828.7139.6133a.107.107,0,0,0,.1533,0q.42-.4469.9688-1.1612a.63.63,0,0,1,.4023-.249.6634.6634,0,0,1,.4658.083.56.56,0,0,1,.2608.376.528.528,0,0,1-.0947.4277q-.4468.5625-1.0342,1.1992a.0873.0873,0,0,0-.0186.0762.0684.0684,0,0,0,.0449.0645q.74.4584,1.0333.6113a.66.66,0,0,1,.3125.3769.6421.6421,0,0,1-.0323.4913.58.58,0,0,1-.37.3193.604.604,0,0,1-.4844-.0518q-.4467-.2549-1.1611-.7275c-.06-.0332-.1064-.0166-.14.0518a.5187.5187,0,0,1-.4981.3056Zm-4.8857-1.1221h5.0009a.0412.0412,0,0,0,.0381-.0263.0248.0248,0,0,0-.0127-.0371,12.5993,12.5993,0,0,1-2.4746-2.6026c-.0342-.0517-.0722-.0468-.1152.0127a12.5367,12.5367,0,0,1-2.4619,2.59.0243.0243,0,0,0-.0127.0371A.0412.0412,0,0,0,76.7764,31.5524Zm3.4062,2.5V32.7771c0-.0684-.0381-.1026-.1152-.1026H78.3457c-.0771,0-.1152.0342-.1152.1026v1.2753a.1009.1009,0,0,0,.1152.1143h1.7217A.1009.1009,0,0,0,80.1826,34.0524Z"/><rect class="b" x="125.9268" y="0.5476" width="68" height="20"/><path d="M144.0566,6.3913a.5718.5718,0,0,1-.414-.166.5988.5988,0,0,1,0-.8418.5755.5755,0,0,1,.414-.166h10.18a.5757.5757,0,0,1,.4141.166.599.599,0,0,1,0,.8418.572.572,0,0,1-.4141.166h-3.291a.1016.1016,0,0,0-.1152.1152V7.82a.1009.1009,0,0,0,.1152.1143H153.56a.72.72,0,0,1,.7148.7148v6.62a.6537.6537,0,0,1-.6631.6631h-.1152a.5436.5436,0,0,1-.5479-.5488.0794.0794,0,0,0-.09-.0889h-7.4238a.0787.0787,0,0,0-.0889.0889.5453.5453,0,0,1-.5488.5488h-.1153a.6537.6537,0,0,1-.663-.6631v-6.62a.72.72,0,0,1,.7148-.7148h2.3594a.1013.1013,0,0,0,.1152-.1143V6.5065a.102.102,0,0,0-.1152-.1152Zm4.3887,2.7676a6.1122,6.1122,0,0,1-.4336,2.2715,3.8558,3.8558,0,0,1-1.3525,1.4531.7584.7584,0,0,1-.5615.1348.8436.8436,0,0,1-.5225-.2871l-.1533-.1661a.0407.0407,0,0,0-.0508-.0127.04.04,0,0,0-.0254.0381v1.5059a.101.101,0,0,0,.1143.1142h7.373a.1016.1016,0,0,0,.1152-.1142V12.5007a.1017.1017,0,0,0-.1152-.1143h-1.7344a1.9727,1.9727,0,0,1-1.206-.2675,1.2607,1.2607,0,0,1-.3252-1.0079V9.1589a.101.101,0,0,0-.1143-.1143H148.56A.101.101,0,0,0,148.4453,9.1589Zm-3.1,0v2.9473a.06.06,0,0,0,.0381.0566.0484.0484,0,0,0,.0635-.0059,3.7517,3.7517,0,0,0,1.3457-1.205,4.1867,4.1867,0,0,0,.3759-1.8047q0-.1026-.1142-.1026H145.46A.101.101,0,0,0,145.3457,9.1589Zm3.1377-2.6524V7.82c0,.0772.0332.1143.1016.1143h.8681a.1006.1006,0,0,0,.1143-.1143V6.5065a.1013.1013,0,0,0-.1143-.1152h-.8681C148.5166,6.3913,148.4834,6.4294,148.4834,6.5065ZM150.83,9.1589v1.4805c0,.331.0322.5273.0957.5859a1.2552,1.2552,0,0,0,.6445.09h1.2627a.1023.1023,0,0,0,.1152-.1152V9.1589a.1017.1017,0,0,0-.1152-.1143h-1.8877A.1013.1013,0,0,0,150.83,9.1589Z"/><path d="M169.9,15.6774a.64.64,0,0,1-.4844.0127.6186.6186,0,0,1-.3574-.332.6006.6006,0,0,1-.0127-.4707.5325.5325,0,0,1,.3311-.332,15.5116,15.5116,0,0,0,4.0312-2.2324.026.026,0,0,0,.0127-.0391.0419.0419,0,0,0-.0381-.0254H169.76a.5489.5489,0,0,1-.3955-.1592.5189.5189,0,0,1-.1661-.3887.567.567,0,0,1,.5616-.5615h4.1709a.1016.1016,0,0,0,.1152-.1152v-.3692a.6686.6686,0,0,1,.2109-.498.6944.6944,0,0,1,.9815,0,.6686.6686,0,0,1,.2109.498v.3692a.1013.1013,0,0,0,.1143.1152h4.1719a.5651.5651,0,0,1,.56.5615.5182.5182,0,0,1-.165.3887.5525.5525,0,0,1-.3955.1592h-3.6231a.0314.0314,0,0,0-.0322.0254.0532.0532,0,0,0,.02.0517,15.4626,15.4626,0,0,0,4.0313,2.2315.5876.5876,0,0,1,.3183.332.5731.5731,0,0,1-.0127.459.6173.6173,0,0,1-.3633.332.6571.6571,0,0,1-.4912-.0127,16.7984,16.7984,0,0,1-4.0566-2.4228c-.0508-.0352-.0762-.0215-.0762.0371v2.1309a.7017.7017,0,0,1-1.4033,0V13.2917a.0532.0532,0,0,0-.0322-.0439c-.02-.0127-.0362-.0108-.044.0068A16.99,16.99,0,0,1,169.9,15.6774ZM173.459,8.7a.0568.0568,0,0,0,.0322-.0381.0545.0545,0,0,0-.0195-.0517,13.8719,13.8719,0,0,1-1.6836-1.1094.125.125,0,0,0-.166,0q-.523.3706-1.0713.6894a.76.76,0,0,1-.5166.0957.7756.7756,0,0,1-.4658-.2617.48.48,0,0,1-.127-.4209.4682.4682,0,0,1,.2549-.3574,11.0064,11.0064,0,0,0,2.8955-2.2578,1.1279,1.1279,0,0,1,1.1221-.4082.45.45,0,0,1,.3388.2744.3812.3812,0,0,1-.0576.4141l-.0508.0507c-.0429.0606-.0263.09.0508.09h4.3877a.532.532,0,0,1,.3828.16.5041.5041,0,0,1,.166.376,1.2661,1.2661,0,0,1-.3828.9307,11.8029,11.8029,0,0,1-2.207,1.6973.0515.0515,0,0,0,0,.0888,34.377,34.377,0,0,0,3.6865,1.0205.5018.5018,0,0,1,.3447.2617.5428.5428,0,0,1,.0508.4278.6125.6125,0,0,1-.2929.3633.6524.6524,0,0,1-.46.07,26.6005,26.6005,0,0,1-4.668-1.4414.2829.2829,0,0,0-.2041,0,24.49,24.49,0,0,1-4.9111,1.4531.6174.6174,0,0,1-.459-.0762.5856.5856,0,0,1-.2812-.3691.4965.4965,0,0,1,.0576-.4151.53.53,0,0,1,.3506-.249A26.6777,26.6777,0,0,0,173.459,8.7Zm-.7266-1.9258A11.0342,11.0342,0,0,0,174.8115,8.05a.2412.2412,0,0,0,.2041-.0127A8.5369,8.5369,0,0,0,177.12,6.57a.0425.0425,0,0,0,.0127-.0517.0419.0419,0,0,0-.0381-.0254h-4.12a.2564.2564,0,0,0-.1914.0771l-.0508.0508C172.6641,6.6726,172.6641,6.7233,172.7324,6.7741Z"/><path d="M136.9287,31.3483a.3419.3419,0,0,1-.5615-.2675v-.0772a1.4229,1.4229,0,0,1,.5615-1.1728L138.37,28.67a1.9613,1.9613,0,0,1,1.25-.4345.6984.6984,0,0,1,.7012.7021v7.9092a.7017.7017,0,1,1-1.4033,0V29.779c0-.0088-.0039-.0127-.0127-.0127l-.0254.0127Z"/><path d="M149.6016,36.54a3.5082,3.5082,0,0,1-5.167,0,6.1,6.1,0,0,1-.86-3.6484,6.1043,6.1043,0,0,1,.86-3.6484,3.5082,3.5082,0,0,1,5.167,0,6.1051,6.1051,0,0,1,.86,3.6484A6.1009,6.1009,0,0,1,149.6016,36.54Zm-1.0459-6.4736a1.8325,1.8325,0,0,0-3.0743,0,5.7811,5.7811,0,0,0-.5039,2.8252,5.7806,5.7806,0,0,0,.5039,2.8262,1.8325,1.8325,0,0,0,3.0743,0,5.8062,5.8062,0,0,0,.5029-2.8262A5.8067,5.8067,0,0,0,148.5557,30.0661Z"/><path d="M153.4473,32.573a.7406.7406,0,0,1-.7276-.7266v-.46a.7406.7406,0,0,1,.7276-.7275h.2041a.7406.7406,0,0,1,.7265.7275v.46a.7407.7407,0,0,1-.7265.7266Zm0,4.9746a.7406.7406,0,0,1-.7276-.7266v-.46a.7406.7406,0,0,1,.7276-.7275h.2041a.7406.7406,0,0,1,.7265.7275v.46a.7407.7407,0,0,1-.7265.7266Z"/><path d="M158.0264,31.3483a.342.342,0,0,1-.5616-.2675v-.0772a1.423,1.423,0,0,1,.5616-1.1728l1.4414-1.1612a1.9611,1.9611,0,0,1,1.25-.4345.6984.6984,0,0,1,.7011.7021v7.9092a.7017.7017,0,1,1-1.4033,0V29.779c0-.0088-.0039-.0127-.0127-.0127l-.0254.0127Z"/><path d="M167.1084,36.361a.0372.0372,0,0,0-.0127.0264c0,.0078.0039.0117.0127.0117h3.3672a.5743.5743,0,1,1,0,1.1485h-4.72a.5673.5673,0,0,1-.5743-.5743,1.1645,1.1645,0,0,1,.4463-.9316,19.2391,19.2391,0,0,0,3.1446-2.9785,3.6094,3.6094,0,0,0,.8232-2.1485q0-1.6332-1.7353-1.6328a4.8046,4.8046,0,0,0-1.8877.4463.4338.4338,0,0,1-.4082-.0254.3779.3779,0,0,1-.1915-.3447,1.0313,1.0313,0,0,1,.1661-.5742.8089.8089,0,0,1,.4589-.3438,6.704,6.704,0,0,1,2.0538-.332,3.193,3.193,0,0,1,2.2138.708,2.52,2.52,0,0,1,.7842,1.9707,4.3207,4.3207,0,0,1-.8105,2.4561A17.3837,17.3837,0,0,1,167.1084,36.361Z"/><path d="M183.8438,31.2722a.4836.4836,0,0,1,.3632.1523.5093.5093,0,0,1,0,.7149.4836.4836,0,0,1-.3632.1523H176.751a.1211.1211,0,0,0-.127.1025c-.0088.0342-.0234.085-.0449.1534s-.0361.1191-.0449.1523c-.0166.0684.0088.1025.0771.1025h5.9317a.71.71,0,0,1,.51.21.6784.6784,0,0,1,.2168.5039v4.5156a.6828.6828,0,0,1-.2041.4912.6646.6646,0,0,1-.497.211h-.2549a.4572.4572,0,0,1-.4473-.4463.0563.0563,0,0,0-.0635-.0645h-5.1914c-.0508,0-.0771.0215-.0771.0645a.4393.4393,0,0,1-.127.3125.41.41,0,0,1-.3066.1338h-.2422a.6757.6757,0,0,1-.6885-.6885V35.38c0-.0176-.0068-.0254-.02-.0254a.043.043,0,0,0-.0313.0117,7.4842,7.4842,0,0,1-1.4414,1.7735.5145.5145,0,0,1-.46.1337.5738.5738,0,0,1-.4082-.2607.7631.7631,0,0,1-.1143-.5234.7472.7472,0,0,1,.2549-.4727,7.8189,7.8189,0,0,0,2.334-3.6221c.0176-.0673-.0078-.1025-.0762-.1025h-1.9521a.4837.4837,0,0,1-.3633-.1523.5093.5093,0,0,1,0-.7149.4837.4837,0,0,1,.3633-.1523h4.6181c.0684,0,.1016-.0391.1016-.1153v-.3183c0-.0772-.0332-.1153-.1016-.1153h-3.61a.5.5,0,0,1-.4971-.498.4579.4579,0,0,1,.1465-.3438.489.489,0,0,1,.3506-.1406h3.61c.0684,0,.1016-.0381.1016-.1152v-.3184c0-.0761-.0332-.1152-.1016-.1152h-4.2226a.5219.5219,0,0,1-.5225-.5225.5214.5214,0,0,1,.1533-.3759.4882.4882,0,0,1,.3692-.16h2.1435a.0621.0621,0,0,0,.0576-.0313.0434.0434,0,0,0-.0068-.0576.2778.2778,0,0,1-.0508-.083.2866.2866,0,0,0-.0508-.083.4709.4709,0,0,1-.039-.44.4618.4618,0,0,1,.332-.2988.8078.8078,0,0,1,.5488.0117.8254.8254,0,0,1,.4209.3574l.3057.5361a.1653.1653,0,0,0,.1533.0889h2.2324a.1966.1966,0,0,0,.1661-.0889c.0332-.0595.123-.2216.2675-.4853a.897.897,0,0,1,.4082-.3828.83.83,0,0,1,.5489-.0635.52.52,0,0,1,.3632.3.49.49,0,0,1-.0195.4658c-.0088.0166-.0254.044-.0508.083a.7907.7907,0,0,0-.0507.083.057.057,0,0,0,.0058.0576.0621.0621,0,0,0,.0576.0313h2.0537a.4918.4918,0,0,1,.37.16.5255.5255,0,0,1,.1533.3759.5219.5219,0,0,1-.5235.5225h-3.9541a.102.102,0,0,0-.1152.1152v.3184a.1016.1016,0,0,0,.1152.1152h3.3418a.489.489,0,0,1,.3506.1406.4579.4579,0,0,1,.1465.3438.5.5,0,0,1-.4971.498h-3.3418a.1016.1016,0,0,0-.1152.1153v.3183a.102.102,0,0,0,.1152.1153Zm-7.31,2.6523v.3574a.1024.1024,0,0,0,.1152.1153h5.1152c.0674,0,.1016-.0391.1016-.1153v-.3574a.09.09,0,0,0-.1016-.1015h-5.1152C176.5732,33.823,176.5342,33.8571,176.5342,33.9245Zm0,1.4414v.3447a.1013.1013,0,0,0,.1152.1143h5.1152c.0674,0,.1016-.0371.1016-.1143v-.3447c0-.0762-.0342-.1142-.1016-.1142h-5.1152A.1016.1016,0,0,0,176.5342,35.3659Zm0,1.43v.3565a.1012.1012,0,0,0,.1152.1142h5.1152c.0674,0,.1016-.0371.1016-.1142v-.3565c0-.0771-.0342-.1152-.1016-.1152h-5.1152A.1019.1019,0,0,0,176.5342,36.7956Z"/><path d="M1.9258,82.7614a.0372.0372,0,0,0-.0127.0264c0,.0078.0039.0117.0127.0117H5.293a.5743.5743,0,1,1,0,1.1485H.5732a.5523.5523,0,0,1-.4082-.1661A.5538.5538,0,0,1,0,83.3737a1.1613,1.1613,0,0,1,.4463-.9316A19.2588,19.2588,0,0,0,3.59,79.4636a3.6089,3.6089,0,0,0,.8233-2.1485q0-1.6332-1.7344-1.6328A4.81,4.81,0,0,0,.79,76.1286a.4338.4338,0,0,1-.4082-.0254A.378.378,0,0,1,.19,75.7585a1.032,1.032,0,0,1,.166-.5742.8094.8094,0,0,1,.459-.3438,6.7087,6.7087,0,0,1,2.0537-.332,3.1914,3.1914,0,0,1,2.2139.708,2.52,2.52,0,0,1,.7842,1.9707,4.319,4.319,0,0,1-.81,2.4561A17.3651,17.3651,0,0,1,1.9258,82.7614Z"/><path d="M8.1631,79.7761a.5738.5738,0,1,1,0-1.1475h10.332a.5738.5738,0,1,1,0,1.1475h-7.168a.1314.1314,0,0,0-.1406.1152c-.0176.0762-.0771.2852-.1787.625-.0176.0762.0088.1152.0762.1152h6.06a.6171.6171,0,0,1,.4843.2168.6378.6378,0,0,1,.166.4981q-.1025,1.0313-.2109,1.6641a7.3669,7.3669,0,0,1-.2422,1.039,1.2269,1.2269,0,0,1-.3633.5938,1.1971,1.1971,0,0,1-.4716.2422,3.1882,3.1882,0,0,1-.69.0576q-.5478,0-2.41-.0772a.6307.6307,0,0,1-.4335-.1914.6159.6159,0,0,1-.1915-.42.5261.5261,0,0,1,.5606-.5615q1.3653.063,2.0283.0634a1.8633,1.8633,0,0,0,.377-.0253c.0713-.0176.1445-.0957.2168-.2364a1.9288,1.9288,0,0,0,.165-.5488q.0586-.3369.1475-1.09c.0166-.0684-.0176-.1016-.1026-.1016h-5.459a.1492.1492,0,0,0-.1533.0889q-.1157.3062-.3447.8671a.8014.8014,0,0,1-.3887.4209.7786.7786,0,0,1-.5683.0645.541.541,0,0,1-.3819-.3125.61.61,0,0,1-.0127-.5039,25.9361,25.9361,0,0,0,.8926-2.5137c.0166-.0586-.0088-.09-.0762-.09Zm8.84-5.8418a.7406.7406,0,0,1,.7276.7275v2.4746a.6772.6772,0,0,1-.2168.5039.714.714,0,0,1-.5108.21H9.6553a.71.71,0,0,1-.51-.21.6772.6772,0,0,1-.2168-.5039V74.6618a.7406.7406,0,0,1,.7266-.7275Zm-.6377,2.7939V75.1589a.1019.1019,0,0,0-.1152-.1152H10.4082a.1017.1017,0,0,0-.1143.1152v1.5693c0,.0674.0381.1026.1143.1026H16.25C16.3271,76.8308,16.3652,76.7956,16.3652,76.7282Z"/><path d="M105.4336,58.1228V57.2H117.083a13.642,13.642,0,0,1-2.5-2.498l.8037-.4922a16.0753,16.0753,0,0,0,3.8086,3.4521,16.0544,16.0544,0,0,0-3.8086,3.4522l-.8037-.4922a13.6805,13.6805,0,0,1,2.5-2.499Z"/><path class="a" d="M116.93,79.0319a.39.39,0,0,1,0,.6739l-8.2041,4.747a.3993.3993,0,0,1-.59-.3486l-.0127-9.4824a.3721.3721,0,0,1,.1993-.3428.3547.3547,0,0,1,.3916.0068Z"/><rect class="b" x="30.6335" y="46.948" width="68" height="20"/><path d="M48.5439,53.0114a.5755.5755,0,0,1-.414-.166.5988.5988,0,0,1,0-.8418.5759.5759,0,0,1,.414-.166h10.18a.5761.5761,0,0,1,.4141.166.599.599,0,0,1,0,.8418.5757.5757,0,0,1-.4141.166h-3.291a.1013.1013,0,0,0-.1152.1143V54.44a.102.102,0,0,0,.1152.1153h2.6143a.7184.7184,0,0,1,.7148.7138v6.62a.6537.6537,0,0,1-.6631.664h-.1152a.5451.5451,0,0,1-.5479-.5488.0793.0793,0,0,0-.09-.09H49.9219a.0786.0786,0,0,0-.0889.09.5466.5466,0,0,1-.5488.5488h-.1153a.6537.6537,0,0,1-.663-.664v-6.62a.7184.7184,0,0,1,.7148-.7138H51.58a.1024.1024,0,0,0,.1152-.1153V53.1257a.1017.1017,0,0,0-.1152-.1143ZM52.9326,55.78a6.0958,6.0958,0,0,1-.4336,2.27,3.8525,3.8525,0,0,1-1.3525,1.4551.7484.7484,0,0,1-.5615.1328.847.847,0,0,1-.5225-.2861l-.1533-.166a.043.043,0,0,0-.0508-.0127.0393.0393,0,0,0-.0254.038v1.5049a.1013.1013,0,0,0,.1143.1153H57.32a.102.102,0,0,0,.1152-.1153V59.1218a.1024.1024,0,0,0-.1152-.1153H55.5859a1.98,1.98,0,0,1-1.206-.2675,1.2605,1.2605,0,0,1-.3252-1.0078V55.78a.1013.1013,0,0,0-.1143-.1153h-.8935A.1013.1013,0,0,0,52.9326,55.78Zm-3.1,0v2.9453a.0629.0629,0,0,0,.0381.0586.0522.0522,0,0,0,.0635-.0068A3.7528,3.7528,0,0,0,51.28,57.571a4.1863,4.1863,0,0,0,.3759-1.8047c0-.0683-.038-.1016-.1142-.1016H49.9473A.1013.1013,0,0,0,49.833,55.78Zm3.1377-2.6543V54.44c0,.0762.0332.1153.1016.1153H53.94a.1017.1017,0,0,0,.1143-.1153V53.1257a.101.101,0,0,0-.1143-.1143h-.8681C53.0039,53.0114,52.9707,53.05,52.9707,53.1257ZM55.3174,55.78v1.4785c0,.332.0322.5273.0957.5879a1.282,1.282,0,0,0,.6445.0889H57.32a.1017.1017,0,0,0,.1152-.1143V55.78a.102.102,0,0,0-.1152-.1153H55.4326A.1016.1016,0,0,0,55.3174,55.78Z"/><path d="M74.3877,62.2976a.6367.6367,0,0,1-.4844.0127.62.62,0,0,1-.3574-.3311.6054.6054,0,0,1-.0127-.4727.54.54,0,0,1,.3311-.332,15.4832,15.4832,0,0,0,4.0312-2.2314.0252.0252,0,0,0,.0127-.0381A.04.04,0,0,0,77.87,58.88h-3.623a.55.55,0,0,1-.3955-.16.5188.5188,0,0,1-.1661-.3886.5672.5672,0,0,1,.5616-.5616H78.418a.1012.1012,0,0,0,.1152-.1142v-.3711a.6615.6615,0,0,1,.2109-.4961.69.69,0,0,1,.9815,0,.6615.6615,0,0,1,.2109.4961v.3711a.101.101,0,0,0,.1143.1142h4.1719a.5653.5653,0,0,1,.56.5616.5182.5182,0,0,1-.165.3886.5535.5535,0,0,1-.3955.16H80.6a.0305.0305,0,0,0-.0322.0254.0532.0532,0,0,0,.0195.0508,15.4939,15.4939,0,0,0,4.0313,2.2324.5811.5811,0,0,1,.3183.332.5733.5733,0,0,1-.0127.459.6192.6192,0,0,1-.3633.3311.6533.6533,0,0,1-.4912-.0127,16.8019,16.8019,0,0,1-4.0566-2.4239c-.0508-.0332-.0762-.0215-.0762.0391v2.13a.7017.7017,0,0,1-1.4033,0v-2.13a.0533.0533,0,0,0-.0322-.0449c-.02-.0137-.0362-.0108-.044.0058A16.96,16.96,0,0,1,74.3877,62.2976ZM77.9463,55.32a.0568.0568,0,0,0,.0322-.0381.0523.0523,0,0,0-.0195-.0507,13.9914,13.9914,0,0,1-1.6836-1.1094.1228.1228,0,0,0-.166,0q-.523.3691-1.0713.6875a.75.75,0,0,1-.5166.0957.77.77,0,0,1-.4658-.2608.479.479,0,0,1-.127-.4209.465.465,0,0,1,.2549-.3574,10.9857,10.9857,0,0,0,2.8955-2.2578A1.1262,1.1262,0,0,1,78.2012,51.2a.4479.4479,0,0,1,.3388.2744.3829.3829,0,0,1-.0576.4151l-.0508.0507c-.0429.0586-.0263.0889.0508.0889H82.87a.5389.5389,0,0,1,.3828.1592.509.509,0,0,1,.166.3769,1.2714,1.2714,0,0,1-.3828.9317,11.7924,11.7924,0,0,1-2.207,1.6953.0477.0477,0,0,0-.0254.0449.0457.0457,0,0,0,.0254.0449,34.1442,34.1442,0,0,0,3.6865,1.02.5034.5034,0,0,1,.3448.2608.5429.5429,0,0,1,.0507.4277.6064.6064,0,0,1-.2929.3633.632.632,0,0,1-.46.07,26.4323,26.4323,0,0,1-4.668-1.4414.2829.2829,0,0,0-.2041,0,24.5472,24.5472,0,0,1-4.9111,1.4551.6268.6268,0,0,1-.459-.0772.585.585,0,0,1-.2812-.37.4941.4941,0,0,1,.0576-.414.53.53,0,0,1,.3506-.2491A26.4247,26.4247,0,0,0,77.9463,55.32ZM77.22,53.3942A11.0863,11.0863,0,0,0,79.2988,54.67a.2412.2412,0,0,0,.2041-.0127A8.561,8.561,0,0,0,81.6074,53.19a.0416.0416,0,0,0,.0127-.0507.04.04,0,0,0-.0381-.0254h-4.12a.2594.2594,0,0,0-.1914.0761l-.0508.0508C77.1514,53.2917,77.1514,53.3425,77.22,53.3942Z"/><path d="M41.6357,77.7487a.3419.3419,0,0,1-.5615-.2675V77.404a1.4229,1.4229,0,0,1,.5615-1.1728L43.0771,75.07a1.9615,1.9615,0,0,1,1.25-.4345.6984.6984,0,0,1,.7012.7021v7.9092a.7017.7017,0,1,1-1.4033,0V76.1794c0-.0088-.0039-.0127-.0127-.0127l-.0254.0127Z"/><path d="M49.6719,77.7487a.3419.3419,0,0,1-.5615-.2675V77.404a1.4229,1.4229,0,0,1,.5615-1.1728L51.1133,75.07a1.9611,1.9611,0,0,1,1.25-.4345.6984.6984,0,0,1,.7012.7021v7.9092a.7017.7017,0,1,1-1.4034,0V76.1794c0-.0088-.0039-.0127-.0127-.0127l-.0254.0127Z"/><path d="M58.1543,78.9733a.7406.7406,0,0,1-.7275-.7265v-.46a.7406.7406,0,0,1,.7275-.7275h.2041a.7406.7406,0,0,1,.7266.7275v.46a.7407.7407,0,0,1-.7266.7265Zm0,4.9747a.7406.7406,0,0,1-.7275-.7266v-.46a.7406.7406,0,0,1,.7275-.7275h.2041a.7406.7406,0,0,1,.7266.7275v.46a.7406.7406,0,0,1-.7266.7266Z"/><path d="M67.1846,76.1794l-2.3213,2.2578a.0356.0356,0,0,0-.0127.0264c0,.0078.0039.0117.0127.0117h.2422a2.6741,2.6741,0,0,1,1.9257.6572,2.4764,2.4764,0,0,1,.6895,1.8819,2.8945,2.8945,0,0,1-.8867,2.2578,3.5839,3.5839,0,0,1-2.4942.8027,6.8086,6.8086,0,0,1-1.7978-.2422.801.801,0,0,1-.4531-.3125.8887.8887,0,0,1-.1719-.541.4.4,0,0,1,.1973-.3574.4468.4468,0,0,1,.415-.0508,5.5036,5.5036,0,0,0,1.81.3564,2.0236,2.0236,0,0,0,1.461-.497,1.8754,1.8754,0,0,0,.5166-1.416,1.2959,1.2959,0,0,0-.5547-1.1543,3.3073,3.3073,0,0,0-1.8047-.377h-.3574a.5436.5436,0,0,1-.5361-.5351,1.1882,1.1882,0,0,1,.3828-.9063l2.3466-2.2187a.0389.0389,0,0,0,.0137-.0254.0124.0124,0,0,0-.0137-.0137H62.4268a.5772.5772,0,0,1-.4082-.9824.56.56,0,0,1,.4082-.166h4.5918a.5669.5669,0,0,1,.5742.5742A1.27,1.27,0,0,1,67.1846,76.1794Z"/><path d="M71.1387,83.2722a36.0146,36.0146,0,0,1,3.457-7.4492c0-.0088.002-.0137.0068-.0137s.0059-.0039.0059-.0117-.0039-.0137-.0127-.0137H70.3994a.5773.5773,0,0,1-.4082-.9824.5583.5583,0,0,1,.4082-.166H75.374a.5669.5669,0,0,1,.5742.5742,1.9979,1.9979,0,0,1-.2939,1.0586,34.052,34.052,0,0,0-3.0615,6.99.9783.9783,0,0,1-.3633.498.9634.9634,0,0,1-.58.1915h-.0127a.5046.5046,0,0,1-.4277-.2168A.4624.4624,0,0,1,71.1387,83.2722Z"/><path d="M85.6807,79.0749c-.0762,0-.1153.0342-.1153.1025v1.2754a.1013.1013,0,0,0,.1153.1143h2.6025a.5653.5653,0,0,1,.5732.5742.5653.5653,0,0,1-.5732.5742H85.6807a.1024.1024,0,0,0-.1153.1153v1.6328c0,.1777.041.2871.1221.3242a2.5541,2.5541,0,0,0,.7461.0586,1.668,1.668,0,0,0,.86-.1348q.173-.1332.2237-.7969a.6734.6734,0,0,1,.2168-.4462.5628.5628,0,0,1,.459-.1534.6574.6574,0,0,1,.4589.2364.6827.6827,0,0,1,.1661.49c-.0166.3242-.04.583-.07.7793a1.4622,1.4622,0,0,1-.1777.5225,1.32,1.32,0,0,1-.2617.3379,1.0575,1.0575,0,0,1-.4658.1728,4.6352,4.6352,0,0,1-.6573.0762c-.2119.0078-.5273.0127-.9433.0127a8.5178,8.5178,0,0,1-1.3711-.0772.8151.8151,0,0,1-.543-.2617,1.128,1.128,0,0,1-.1269-.6182V81.8308a.102.102,0,0,0-.1153-.1153H82.2236a.1243.1243,0,0,0-.1269.1153,4.3415,4.3415,0,0,1-3.3682,3.1377.6185.6185,0,0,1-.4912-.0518.7251.7251,0,0,1-.3379-.3818.5312.5312,0,0,1,.0254-.4532.5851.5851,0,0,1,.3574-.3,3.3822,3.3822,0,0,0,2.3731-1.9765c.0166-.06-.0088-.09-.0772-.09H78.333a.5773.5773,0,0,1-.4082-.9824.56.56,0,0,1,.4082-.166H80.77c.0684,0,.1026-.0371.1026-.1143,0-.0166.0019-.0517.0058-.1025s.0069-.084.0069-.1016V79.1774c0-.0683-.0391-.1025-.1153-.1025h-.4843a.5166.5166,0,0,1-.4981-.3184c-.0342-.0683-.0762-.081-.1269-.039q-.5495.3575-1.212.7275a.5576.5576,0,0,1-.4716.0449.6018.6018,0,0,1-.3575-.3125.6518.6518,0,0,1-.038-.4912.6274.6274,0,0,1,.3056-.3769q1.0078-.5479,1.5947-.9434.0381-.0117.0381-.0644a.1071.1071,0,0,0-.0254-.0762q-1.1352-1.02-1.1738-1.0586a.5393.5393,0,0,1-.1973-.4082.5521.5521,0,0,1,.1719-.4209.6934.6934,0,0,1,.4463-.1914A.6537.6537,0,0,1,79.2,75.3q.2432.205,1.2891,1.16a.1367.1367,0,0,0,.166.0136,9.2146,9.2146,0,0,0,1.3642-1.43.0411.0411,0,0,0,.0069-.0567.0621.0621,0,0,0-.0576-.0312H79.6729a.55.55,0,0,1-.3956-.16.5207.5207,0,0,1-.166-.3887.5653.5653,0,0,1,.5616-.5615h3.5332a1.2034,1.2034,0,0,1,1.0839.625,8.3612,8.3612,0,0,0,.5489.7783.0807.0807,0,0,0,.1406.0118q.4337-.4834.8164-.9688a.6173.6173,0,0,1,.3945-.248.6511.6511,0,0,1,.46.082.5553.5553,0,0,1,.2607.37.5165.5165,0,0,1-.0947.4209q-.5112.65-1.02,1.1992a.0942.0942,0,0,0,0,.1524c.1953.18.4336.3828.7139.6132a.1068.1068,0,0,0,.1533,0q.42-.4467.9687-1.1611a.63.63,0,0,1,.4024-.249.6634.6634,0,0,1,.4658.083.56.56,0,0,1,.2607.376.5276.5276,0,0,1-.0947.4277c-.2978.375-.6426.7734-1.0342,1.1992a.0873.0873,0,0,0-.0185.0762.0683.0683,0,0,0,.0449.0645q.74.4584,1.0332.6113a.66.66,0,0,1,.3125.3769.6414.6414,0,0,1-.0322.4912.58.58,0,0,1-.37.3194.6039.6039,0,0,1-.4844-.0518q-.4468-.2549-1.1611-.7275c-.06-.0332-.1065-.0166-.14.0517a.5186.5186,0,0,1-.498.3057Zm-4.8858-1.1221h5.001a.0414.0414,0,0,0,.0381-.0263.0248.0248,0,0,0-.0127-.0371,12.5993,12.5993,0,0,1-2.4746-2.6026c-.0342-.0517-.0723-.0469-.1153.0127a12.534,12.534,0,0,1-2.4619,2.59.0243.0243,0,0,0-.0127.0371A.0414.0414,0,0,0,80.7949,77.9528Zm3.4063,2.5V79.1774c0-.0683-.0381-.1025-.1153-.1025H82.3643c-.0772,0-.1153.0342-.1153.1025v1.2754a.1009.1009,0,0,0,.1153.1143h1.7216A.1009.1009,0,0,0,84.2012,80.4528Z"/><rect class="b" x="125.9268" y="46.948" width="68" height="20"/><path d="M141.7246,55.0524a.5443.5443,0,0,1-.5615-.5615.5674.5674,0,0,1,.1592-.4082.5354.5354,0,0,1,.4023-.166h.5606a.1013.1013,0,0,0,.1152-.1143V52.2077a.6535.6535,0,0,1,.65-.65.6465.6465,0,0,1,.4658.1914.6145.6145,0,0,1,.1973.459v1.5947q0,.1143.1025.1143h.625a.7463.7463,0,0,1,.166.0254c.0762.0176.127,0,.1524-.0508a11.9649,11.9649,0,0,0,1.1738-2.3086.8141.8141,0,0,1,.3252-.3955.7113.7113,0,0,1,.4912-.1025.5252.5252,0,0,1,.376.25.5136.5136,0,0,1,.0576.4521.0893.0893,0,0,1-.0127.0381.0968.0968,0,0,0-.0127.0391c-.0176.0674.0039.1015.0635.1015h5.0137a.5616.5616,0,0,1,0,1.1231h-5.46a.1506.1506,0,0,0-.1533.0879c-.0938.1963-.2041.4082-.3311.6386a.05.05,0,0,0-.0068.0635.06.06,0,0,0,.0576.0381h5.1914a.7094.7094,0,0,1,.5107.2109.6785.6785,0,0,1,.2168.5039V56.405a.7406.7406,0,0,1-.7275.7265H146.125a.7406.7406,0,0,1-.7275-.7265V55.3327a.04.04,0,0,0-.0254-.0381.0252.0252,0,0,0-.0381.0127c-.0088,0-.0127.0039-.0127.0127a.0391.0391,0,0,1-.0127.0264.6235.6235,0,0,1-.44.248.5924.5924,0,0,1-.4786-.1464.6549.6549,0,0,1-.19-.2813q-.0513-.1143-.1406-.1143h-.2422q-.1026,0-.1025.1143v4.49q0,.1143.1025.0645.4718-.1919.8164-.3574a.41.41,0,0,1,.2041-.0391q.1143,0,.1143-.0762v-.6a.7406.7406,0,0,1,.7275-.7265H151.75a.7406.7406,0,0,1,.7275.7265V61.38a.0787.0787,0,0,0,.0889.0889h.0772a.5436.5436,0,0,1,.5351.5361.5364.5364,0,0,1-.1592.3828.509.509,0,0,1-.3759.166h-8.0362a.5678.5678,0,0,1-.5488-.5488.5045.5045,0,0,1,.166-.377.5377.5377,0,0,1,.3828-.1591h.23a.101.101,0,0,0,.1143-.1143v-.8936a.0527.0527,0,0,0-.0313-.0439c-.0215-.0137-.0371-.0156-.0449-.0068a.5636.5636,0,0,1-.1406.1025,24.7062,24.7062,0,0,1-2.8828,1.2363.4878.4878,0,0,1-.4268-.0449.449.449,0,0,1-.2363-.3633.6878.6878,0,0,1,.1084-.49.77.77,0,0,1,.4013-.3125c.2217-.0684.4209-.1367.6-.2051A.1481.1481,0,0,0,142.4,60.18V55.1667a.1013.1013,0,0,0-.1152-.1143Zm4.502,3.98v2.3223a.1017.1017,0,0,0,.1152.1143h.6377a.1017.1017,0,0,0,.1152-.1143V59.0319a.1023.1023,0,0,0-.1152-.1152h-.6377A.1023.1023,0,0,0,146.2266,59.0319Zm.4472-3.9922V56.073a.0892.0892,0,0,0,.1016.1015h4.0058a.09.09,0,0,0,.1016-.1015V55.04c0-.0761-.0342-.1152-.1016-.1152h-4.0058C146.707,54.9245,146.6738,54.9636,146.6738,55.04Zm1.5938,3.9922v2.3223a.1017.1017,0,0,0,.1152.1143h.6377a.1017.1017,0,0,0,.1152-.1143V59.0319a.1023.1023,0,0,0-.1152-.1152h-.6377A.1023.1023,0,0,0,148.2676,59.0319Zm2.041,0v2.3223a.1013.1013,0,0,0,.1152.1143h.6377a.1017.1017,0,0,0,.1153-.1143V59.0319a.1024.1024,0,0,0-.1153-.1152h-.6377A.102.102,0,0,0,150.3086,59.0319Z"/><path d="M167.6445,62.1189l-.0644-.0635a1.0567,1.0567,0,0,1-.2041-1.1865,9.8545,9.8545,0,0,0,.5869-2.2452,22.5811,22.5811,0,0,0,.1787-3.15V52.3991a.7186.7186,0,0,1,.7139-.7148h8.4062a.7081.7081,0,0,1,.5108.2109.6787.6787,0,0,1,.2168.5039v2.1934a.6757.6757,0,0,1-.2168.5039.7081.7081,0,0,1-.5108.2109h-3.8262c-.0175,0-.0283.0127-.0322.0391s.002.042.02.0508a.643.643,0,0,1,.1914.4717q-.04.8423-.0391.88a.08.08,0,0,0,.09.09h2.13a.7406.7406,0,0,1,.7276.7265v3.4571c0,.2041.0185.3232.0566.3574a.82.82,0,0,0,.39.0508,1.3868,1.3868,0,0,0,.2871-.02.507.507,0,0,0,.1787-.0888.4441.4441,0,0,0,.1269-.3c.0215-.1533.04-.3321.0576-.5352.0166-.2051.0342-.5058.0508-.9062a.6.6,0,0,1,.2041-.4278.5546.5546,0,0,1,.4463-.1465.6362.6362,0,0,1,.44.2295.6553.6553,0,0,1,.1592.4717c-.0254.418-.0527.7617-.083,1.0332-.0293.2735-.0615.5215-.0947.7461a1.2609,1.2609,0,0,1-.1729.5176,3.7083,3.7083,0,0,1-.2353.3125.6039.6039,0,0,1-.3643.1777q-.249.0455-.4658.0645t-.625.02a2.4007,2.4007,0,0,1-1.3769-.2617,1.3741,1.3741,0,0,1-.3194-1.0781V58.1a.101.101,0,0,0-.1142-.1143h-1.5313a.1235.1235,0,0,0-.1269.1143,6.3411,6.3411,0,0,1-1.0469,2.66,6.1729,6.1729,0,0,1-2.1553,1.7666.65.65,0,0,1-.51.0449.6915.6915,0,0,1-.3955-.3252.5555.5555,0,0,1-.0517-.4658.5834.5834,0,0,1,.3066-.3633,4.8194,4.8194,0,0,0,1.6836-1.3076,4.5977,4.5977,0,0,0,.8037-1.9961c.0166-.085-.0127-.128-.09-.128H170.374a.5887.5887,0,0,1-.415-.1591.5265.5265,0,0,1-.1719-.4024.5869.5869,0,0,1,.5869-.5859h1.7217c.0772,0,.1152-.0342.1152-.1026.0079-.0927.0147-.2334.0186-.4209s.0068-.332.0068-.4336a.695.695,0,0,1,.23-.498.0355.0355,0,0,0,.0069-.0508.0587.0587,0,0,0-.045-.0254H169.583c-.0684,0-.1025.0391-.1025.1153v.9433a13.4206,13.4206,0,0,1-1.02,5.6387.4536.4536,0,0,1-.376.2734A.4867.4867,0,0,1,167.6445,62.1189Zm1.836-9.21v1.2129q0,.1143.1025.1142h6.9649c.0673,0,.1015-.038.1015-.1142V52.9089c0-.0762-.0342-.1143-.1015-.1143H169.583Q169.48,52.7946,169.4805,52.9089Z"/><path d="M136.9287,77.7487a.3419.3419,0,0,1-.5615-.2675V77.404a1.4229,1.4229,0,0,1,.5615-1.1728L138.37,75.07a1.9613,1.9613,0,0,1,1.25-.4345.6984.6984,0,0,1,.7012.7021v7.9092a.7017.7017,0,1,1-1.4033,0V76.1794c0-.0088-.0039-.0127-.0127-.0127l-.0254.0127Z"/><path d="M146.0107,82.7614a.0376.0376,0,0,0-.0127.0264c0,.0078.004.0117.0127.0117h3.3672a.5743.5743,0,1,1,0,1.1485h-4.72a.5671.5671,0,0,1-.5742-.5743,1.1642,1.1642,0,0,1,.4463-.9316,19.2374,19.2374,0,0,0,3.1445-2.9785,3.6094,3.6094,0,0,0,.8232-2.1485q0-1.6332-1.7353-1.6328a4.8054,4.8054,0,0,0-1.8877.4463.4338.4338,0,0,1-.4082-.0254.3778.3778,0,0,1-.1914-.3447,1.032,1.032,0,0,1,.166-.5742.8094.8094,0,0,1,.459-.3438,6.7029,6.7029,0,0,1,2.0537-.332,3.1935,3.1935,0,0,1,2.2139.708,2.52,2.52,0,0,1,.7841,1.9707,4.321,4.321,0,0,1-.81,2.4561A17.3835,17.3835,0,0,1,146.0107,82.7614Z"/><path d="M153.4473,78.9733a.7406.7406,0,0,1-.7276-.7265v-.46a.7406.7406,0,0,1,.7276-.7275h.2041a.7406.7406,0,0,1,.7265.7275v.46a.7407.7407,0,0,1-.7265.7265Zm0,4.9747a.7406.7406,0,0,1-.7276-.7266v-.46a.7406.7406,0,0,1,.7276-.7275h.2041a.7406.7406,0,0,1,.7265.7275v.46a.7407.7407,0,0,1-.7265.7266Z"/><path d="M162.4775,76.1794l-2.3213,2.2578a.0358.0358,0,0,0-.0126.0264c0,.0078.0039.0117.0126.0117h.2422a2.6745,2.6745,0,0,1,1.9258.6572,2.4764,2.4764,0,0,1,.69,1.8819,2.8945,2.8945,0,0,1-.8867,2.2578,3.5841,3.5841,0,0,1-2.4942.8027,6.8086,6.8086,0,0,1-1.7978-.2422.8016.8016,0,0,1-.4532-.3125.8893.8893,0,0,1-.1718-.541.4.4,0,0,1,.1972-.3574.4471.4471,0,0,1,.4151-.0508,5.5036,5.5036,0,0,0,1.81.3564,2.0238,2.0238,0,0,0,1.461-.497,1.8754,1.8754,0,0,0,.5166-1.416,1.2959,1.2959,0,0,0-.5547-1.1543,3.3075,3.3075,0,0,0-1.8047-.377h-.3574a.5437.5437,0,0,1-.5362-.5351,1.1886,1.1886,0,0,1,.3828-.9063l2.3467-2.2187a.0389.0389,0,0,0,.0137-.0254.0124.0124,0,0,0-.0137-.0137H157.72a.5773.5773,0,0,1-.4082-.9824.56.56,0,0,1,.4082-.166h4.5918a.5669.5669,0,0,1,.5742.5742A1.27,1.27,0,0,1,162.4775,76.1794Z"/><path d="M170.6475,83.3483a4.7741,4.7741,0,0,1-5.0635,0,2.3644,2.3644,0,0,1-.9121-1.9511,2.1487,2.1487,0,0,1,.5039-1.3711,3.2171,3.2171,0,0,1,1.3965-.9766c.0088,0,.0127-.0039.0127-.0127s-.0039-.0127-.0127-.0127a2.7386,2.7386,0,0,1-1.167-.9179,2.2056,2.2056,0,0,1-.4151-1.3008,1.9949,1.9949,0,0,1,.8291-1.666,4.4948,4.4948,0,0,1,4.5928,0,1.9949,1.9949,0,0,1,.8291,1.666,2.2063,2.2063,0,0,1-1.582,2.0918c-.0088,0-.0127.0039-.0127.0117,0,.01.0039.0137.0127.0137a2.4658,2.4658,0,0,1,1.9,2.4746A2.3644,2.3644,0,0,1,170.6475,83.3483ZM167.95,79.573a3.2757,3.2757,0,0,0-1.4541.707,1.4123,1.4123,0,0,0-.4981,1.0527,1.44,1.44,0,0,0,.5684,1.2051,2.4635,2.4635,0,0,0,1.55.4414,2.3536,2.3536,0,0,0,1.5234-.4414,1.4676,1.4676,0,0,0,.543-1.2051q0-1.3008-2.0283-1.76A.4011.4011,0,0,0,167.95,79.573Zm-1.6074-2.6407a1.2327,1.2327,0,0,0,.4209.9121,2.6359,2.6359,0,0,0,1.2373.5928.535.535,0,0,0,.23,0A2.9832,2.9832,0,0,0,169.5,77.819a1.1864,1.1864,0,0,0,.44-.8867,1.1524,1.1524,0,0,0-.4717-.97,2.2124,2.2124,0,0,0-1.3516-.3564,2.126,2.126,0,0,0-1.32.35A1.1655,1.1655,0,0,0,166.3428,76.9323Z"/><path d="M183.8438,77.6726a.4833.4833,0,0,1,.3632.1523.5092.5092,0,0,1,0,.7148.4834.4834,0,0,1-.3632.1524H176.751a.1211.1211,0,0,0-.127.1025c-.0088.0342-.0234.085-.0449.1534s-.0361.1191-.0449.1523c-.0166.0684.0088.1025.0771.1025h5.9317a.71.71,0,0,1,.51.21.6784.6784,0,0,1,.2168.5039v4.5156a.6828.6828,0,0,1-.2041.4912.6646.6646,0,0,1-.497.211h-.2549a.4572.4572,0,0,1-.4473-.4463.0563.0563,0,0,0-.0635-.0645h-5.1914c-.0508,0-.0771.0215-.0771.0645a.4394.4394,0,0,1-.127.3125.41.41,0,0,1-.3066.1338h-.2422a.6757.6757,0,0,1-.6885-.6885V81.78c0-.0176-.0068-.0254-.02-.0254a.043.043,0,0,0-.0313.0117,7.4817,7.4817,0,0,1-1.4414,1.7734.5143.5143,0,0,1-.46.1338.5741.5741,0,0,1-.4082-.2607.7631.7631,0,0,1-.1143-.5234.7472.7472,0,0,1,.2549-.4727,7.8189,7.8189,0,0,0,2.334-3.6221c.0176-.0674-.0078-.1025-.0762-.1025h-1.9521a.4834.4834,0,0,1-.3633-.1524.5092.5092,0,0,1,0-.7148.4833.4833,0,0,1,.3633-.1523h4.6181c.0684,0,.1016-.0391.1016-.1153V77.239c0-.0772-.0332-.1153-.1016-.1153h-3.61a.5.5,0,0,1-.4971-.498.4577.4577,0,0,1,.1465-.3438.489.489,0,0,1,.3506-.1406h3.61c.0684,0,.1016-.0381.1016-.1152v-.3184c0-.0762-.0332-.1152-.1016-.1152h-4.2226a.5219.5219,0,0,1-.5225-.5225.5218.5218,0,0,1,.1533-.376.4885.4885,0,0,1,.3692-.16h2.1435a.0621.0621,0,0,0,.0576-.0313.0434.0434,0,0,0-.0068-.0576.2778.2778,0,0,1-.0508-.083.2866.2866,0,0,0-.0508-.083.4709.4709,0,0,1-.039-.44.4619.4619,0,0,1,.332-.2989.8084.8084,0,0,1,.5488.0118.8254.8254,0,0,1,.4209.3574l.3057.5361a.1653.1653,0,0,0,.1533.0889h2.2324a.1966.1966,0,0,0,.1661-.0889c.0332-.0595.123-.2217.2675-.4853a.8965.8965,0,0,1,.4082-.3828.83.83,0,0,1,.5489-.0635.52.52,0,0,1,.3632.3.49.49,0,0,1-.0195.4658c-.0088.0166-.0254.044-.0508.083a.7907.7907,0,0,0-.0507.083.057.057,0,0,0,.0058.0576.0621.0621,0,0,0,.0576.0313h2.0537a.4921.4921,0,0,1,.37.16.5259.5259,0,0,1,.1533.376.5219.5219,0,0,1-.5235.5225h-3.9541a.1019.1019,0,0,0-.1152.1152v.3184a.1016.1016,0,0,0,.1152.1152h3.3418a.489.489,0,0,1,.3506.1406.4577.4577,0,0,1,.1465.3438.5.5,0,0,1-.4971.498h-3.3418a.1016.1016,0,0,0-.1152.1153v.3183a.102.102,0,0,0,.1152.1153Zm-7.31,2.6523v.3574a.1024.1024,0,0,0,.1152.1153h5.1152c.0674,0,.1016-.0391.1016-.1153v-.3574a.09.09,0,0,0-.1016-.1016h-5.1152C176.5732,80.2233,176.5342,80.2575,176.5342,80.3249Zm0,1.4414v.3447a.1013.1013,0,0,0,.1152.1143h5.1152c.0674,0,.1016-.0371.1016-.1143v-.3447c0-.0762-.0342-.1142-.1016-.1142h-5.1152A.1016.1016,0,0,0,176.5342,81.7663Zm0,1.43v.3564a.1013.1013,0,0,0,.1152.1143h5.1152c.0674,0,.1016-.0371.1016-.1143V83.196c0-.0771-.0342-.1152-.1016-.1152h-5.1152A.1019.1019,0,0,0,176.5342,83.196Z"/><path d="M5.3311,122.5808,3.01,124.8386a.0371.0371,0,0,0-.0127.0254c0,.0088.0039.0136.0127.0136H3.252a2.6824,2.6824,0,0,1,1.9267.6563,2.4771,2.4771,0,0,1,.6885,1.8808,2.89,2.89,0,0,1-.8867,2.2579,3.5742,3.5742,0,0,1-2.4932.8046,6.8519,6.8519,0,0,1-1.7988-.2421.819.819,0,0,1-.4531-.3125.9012.9012,0,0,1-.1719-.543.4041.4041,0,0,1,.1972-.3574.4561.4561,0,0,1,.4151-.0508,5.4868,5.4868,0,0,0,1.8115.3574,2.0173,2.0173,0,0,0,1.46-.498,1.8711,1.8711,0,0,0,.5166-1.4161,1.3,1.3,0,0,0-.5547-1.1542,3.3187,3.3187,0,0,0-1.8047-.375H1.7471a.513.513,0,0,1-.376-.16.5146.5146,0,0,1-.16-.377,1.1828,1.1828,0,0,1,.3829-.9043l2.3476-2.2207a.0374.0374,0,0,0,.0127-.0253.0111.0111,0,0,0-.0127-.0118H.5732A.5653.5653,0,0,1,0,121.612a.554.554,0,0,1,.165-.4082.5526.5526,0,0,1,.4082-.166H5.166a.5654.5654,0,0,1,.5733.5742A1.27,1.27,0,0,1,5.3311,122.5808Z"/><path d="M8.1631,126.1784a.5742.5742,0,1,1,0-1.1484h10.332a.5742.5742,0,1,1,0,1.1484h-7.168a.1308.1308,0,0,0-.1406.1153q-.0264.1141-.1787.625c-.0176.0761.0088.1142.0762.1142h6.06a.6171.6171,0,0,1,.4843.2168.6367.6367,0,0,1,.166.4971q-.1025,1.0341-.2109,1.665a7.4205,7.4205,0,0,1-.2422,1.04,1.2327,1.2327,0,0,1-.3633.5927,1.1958,1.1958,0,0,1-.4716.2422,3.1818,3.1818,0,0,1-.69.0576q-.5478,0-2.41-.0761a.64.64,0,0,1-.4335-.1914.6188.6188,0,0,1-.1915-.4219.5248.5248,0,0,1,.5606-.5606q1.3653.0645,2.0283.0635a1.9315,1.9315,0,0,0,.377-.0254c.0713-.0166.1445-.0957.2168-.2353a1.95,1.95,0,0,0,.165-.5489c.0391-.2255.0879-.59.1475-1.0908q.0249-.1024-.1026-.1025h-5.459a.15.15,0,0,0-.1533.09q-.1157.3062-.3447.8672a.795.795,0,0,1-.3887.4209.7783.7783,0,0,1-.5683.0635.5364.5364,0,0,1-.3819-.3125.61.61,0,0,1-.0127-.5039,25.9212,25.9212,0,0,0,.8926-2.5127c.0166-.06-.0088-.0889-.0762-.0889Zm8.84-5.8418a.7406.7406,0,0,1,.7276.7266v2.4746a.6787.6787,0,0,1-.2168.5039.7112.7112,0,0,1-.5108.2109H9.6553a.7073.7073,0,0,1-.51-.2109.6787.6787,0,0,1-.2168-.5039v-2.4746a.7406.7406,0,0,1,.7266-.7266Zm-.6377,2.793V121.56a.1013.1013,0,0,0-.1152-.1143H10.4082a.101.101,0,0,0-.1143.1143V123.13c0,.0684.0381.1016.1143.1016H16.25C16.3271,123.2312,16.3652,123.198,16.3652,123.13Z"/><path d="M105.4336,104.5231V103.6H117.083a13.6427,13.6427,0,0,1-2.5-2.4981l.8037-.4921a16.0753,16.0753,0,0,0,3.8086,3.4521,16.0523,16.0523,0,0,0-3.8086,3.4522l-.8037-.4922a13.6812,13.6812,0,0,1,2.5-2.4991Z"/><path class="a" d="M116.93,125.4323a.39.39,0,0,1,0,.6739l-8.2041,4.747a.3993.3993,0,0,1-.59-.3486l-.0127-9.4824a.372.372,0,0,1,.1993-.3428.3547.3547,0,0,1,.3916.0068Z"/><rect class="b" x="30.6335" y="93.3491" width="68" height="20"/><path d="M46.4316,101.4538a.5459.5459,0,0,1-.5615-.5615.5661.5661,0,0,1,.1592-.4082.5343.5343,0,0,1,.4023-.1651h.5606a.1019.1019,0,0,0,.1152-.1152V98.6091a.6535.6535,0,0,1,.65-.65.6465.6465,0,0,1,.4658.1914.6155.6155,0,0,1,.1973.459v1.5947c0,.0762.0342.1152.1025.1152h.625a.6981.6981,0,0,1,.1661.0254c.0761.0166.1269,0,.1523-.0517a11.93,11.93,0,0,0,1.1738-2.3086.8137.8137,0,0,1,.3252-.3955.7057.7057,0,0,1,.4912-.1016.5227.5227,0,0,1,.376.2481.5154.5154,0,0,1,.0576.4531.0936.0936,0,0,1-.0127.0381.0931.0931,0,0,0-.0127.0381c-.0175.0683.0039.1025.0635.1025h5.0137a.5634.5634,0,0,1,.56.5615.5651.5651,0,0,1-.56.5606h-5.46a.1505.1505,0,0,0-.1533.09q-.1405.293-.3311.6377a.05.05,0,0,0-.0068.0635.0625.0625,0,0,0,.0576.039H56.24a.7089.7089,0,0,1,.5108.21.6757.6757,0,0,1,.2168.5039v1.7725a.7406.7406,0,0,1-.7276.7275H50.832a.7406.7406,0,0,1-.7275-.7275v-1.0713a.04.04,0,0,0-.0254-.0381.0258.0258,0,0,0-.0381.0127.0114.0114,0,0,0-.0127.0127.0337.0337,0,0,1-.0127.0254.6213.6213,0,0,1-.44.249.5919.5919,0,0,1-.4785-.1465.6558.6558,0,0,1-.1905-.28c-.0341-.0771-.081-.1152-.1406-.1152h-.2422c-.0683,0-.1025.0381-.1025.1152v4.49c0,.0762.0342.0976.1025.0625q.4717-.1905.8164-.3565a.398.398,0,0,1,.2041-.0381q.1143,0,.1143-.0761v-.6a.7406.7406,0,0,1,.7275-.7276H56.457a.7406.7406,0,0,1,.7276.7276V107.78a.0786.0786,0,0,0,.0888.09h.0772a.5454.5454,0,0,1,.5351.5352.5336.5336,0,0,1-.1591.3828.5024.5024,0,0,1-.376.166H49.3145a.5678.5678,0,0,1-.5489-.5488.4988.4988,0,0,1,.166-.375.5307.5307,0,0,1,.3829-.16h.2294a.1013.1013,0,0,0,.1143-.1152v-.8926a.0566.0566,0,0,0-.0312-.0449c-.0215-.0117-.0372-.0137-.045-.0059a.5343.5343,0,0,1-.1406.1016,24.7346,24.7346,0,0,1-2.8828,1.2383.4945.4945,0,0,1-.4268-.0449.4519.4519,0,0,1-.2363-.3633.6918.6918,0,0,1,.1084-.4922.7794.7794,0,0,1,.4014-.3125c.2217-.0674.4209-.1348.6-.2031a.1494.1494,0,0,0,.1025-.1534V101.569a.1016.1016,0,0,0-.1152-.1152Zm4.502,3.98v2.3213a.102.102,0,0,0,.1152.1152h.6377a.102.102,0,0,0,.1153-.1152v-2.3213a.1017.1017,0,0,0-.1153-.1143h-.6377A.1017.1017,0,0,0,50.9336,105.4333Zm.4473-3.9922v1.0332a.09.09,0,0,0,.1015.1026h4.0059a.0907.0907,0,0,0,.1015-.1026v-1.0332c0-.0771-.0341-.1152-.1015-.1152H51.4824C51.4141,101.3259,51.3809,101.364,51.3809,101.4411Zm1.5937,3.9922v2.3213a.102.102,0,0,0,.1152.1152h.6377a.102.102,0,0,0,.1153-.1152v-2.3213a.1017.1017,0,0,0-.1153-.1143H53.09A.1017.1017,0,0,0,52.9746,105.4333Zm2.041,0v2.3213a.1016.1016,0,0,0,.1153.1152h.6377a.102.102,0,0,0,.1152-.1152v-2.3213a.1017.1017,0,0,0-.1152-.1143h-.6377A.1013.1013,0,0,0,55.0156,105.4333Z"/><path d="M72.3516,108.52l-.0645-.0635a1.0568,1.0568,0,0,1-.2041-1.1865,9.8348,9.8348,0,0,0,.5869-2.2451,22.5557,22.5557,0,0,0,.1787-3.15V98.8005a.717.717,0,0,1,.7139-.7139h8.4063a.7106.7106,0,0,1,.5107.21.6756.6756,0,0,1,.2168.5039v2.1943a.6787.6787,0,0,1-.2168.5039.7066.7066,0,0,1-.5107.21H78.1426q-.0264,0-.0322.0381c-.004.0254.0019.0429.02.0508a.6452.6452,0,0,1,.1914.4726c-.0264.5606-.0391.8545-.0391.88a.079.079,0,0,0,.09.0889h2.13a.7406.7406,0,0,1,.7275.7275v3.457c0,.2041.0185.3233.0566.3565a.7905.7905,0,0,0,.39.0517,1.574,1.574,0,0,0,.2871-.0185.5288.5288,0,0,0,.1787-.09.4408.4408,0,0,0,.127-.3c.0214-.1533.04-.331.0576-.5361.0166-.2031.0342-.5059.0508-.9053a.5949.5949,0,0,1,.2041-.4267.5578.5578,0,0,1,.4462-.1475.6326.6326,0,0,1,.4405.23.6569.6569,0,0,1,.1592.4727q-.0381.624-.0831,1.0332c-.0293.2714-.0615.52-.0947.7461a1.2634,1.2634,0,0,1-.1728.5156,3.427,3.427,0,0,1-.2354.3125.6051.6051,0,0,1-.3642.18c-.1661.0293-.3213.0508-.4659.0634s-.3525.0186-.625.0186a2.3925,2.3925,0,0,1-1.3769-.2617A1.37,1.37,0,0,1,79.89,107.64v-3.1377a.1016.1016,0,0,0-.1142-.1152H78.2441a.1243.1243,0,0,0-.1269.1152,6.3509,6.3509,0,0,1-1.0469,2.6592,6.1707,6.1707,0,0,1-2.1553,1.7666.653.653,0,0,1-.51.0449.69.69,0,0,1-.3955-.3252.5556.5556,0,0,1-.0518-.4658.5814.5814,0,0,1,.3066-.3633,4.8415,4.8415,0,0,0,1.6836-1.3076,4.5965,4.5965,0,0,0,.8038-1.997c.0166-.084-.0127-.127-.09-.127h-1.581a.5884.5884,0,0,1-.4151-.1592.5258.5258,0,0,1-.1719-.4013.5884.5884,0,0,1,.587-.5879h1.7216c.0772,0,.1153-.0332.1153-.1016.0078-.0937.0146-.2344.0185-.4209s.0069-.331.0069-.4336a.6912.6912,0,0,1,.23-.4971.0366.0366,0,0,0,.0068-.0517.0585.0585,0,0,0-.0449-.0254H74.29q-.1025,0-.1025.1143v.9443a13.4141,13.4141,0,0,1-1.02,5.6377.4539.4539,0,0,1-.376.2754A.49.49,0,0,1,72.3516,108.52Zm1.8359-9.209v1.211c0,.0761.0342.1152.1025.1152h6.9649c.0674,0,.1015-.0391.1015-.1152v-1.211c0-.0771-.0341-.1152-.1015-.1152H74.29C74.2217,99.196,74.1875,99.2341,74.1875,99.3112Z"/><path d="M41.6357,124.15a.3426.3426,0,0,1-.5615-.2686v-.0761a1.4277,1.4277,0,0,1,.5615-1.1739l1.4414-1.16a1.96,1.96,0,0,1,1.25-.4336.6952.6952,0,0,1,.7012.7012v7.9082a.7017.7017,0,1,1-1.4033,0v-7.0664a.0114.0114,0,0,0-.0127-.0127l-.0254.0127Z"/><path d="M54.123,122.5808l-2.3212,2.2578a.0371.0371,0,0,0-.0127.0254c0,.0088.0039.0136.0127.0136h.2421a2.6785,2.6785,0,0,1,1.9258.6563,2.4738,2.4738,0,0,1,.6895,1.8808,2.89,2.89,0,0,1-.8867,2.2579,3.5752,3.5752,0,0,1-2.4942.8046,6.85,6.85,0,0,1-1.7978-.2421.8162.8162,0,0,1-.4532-.3125.8952.8952,0,0,1-.1718-.543.4041.4041,0,0,1,.1972-.3574.4558.4558,0,0,1,.4151-.0508,5.4815,5.4815,0,0,0,1.8105.3574,2.02,2.02,0,0,0,1.461-.498,1.8711,1.8711,0,0,0,.5166-1.4161,1.3,1.3,0,0,0-.5547-1.1542,3.3187,3.3187,0,0,0-1.8047-.375h-.3574a.5455.5455,0,0,1-.5362-.5372,1.1831,1.1831,0,0,1,.3828-.9043l2.3467-2.2207a.0351.0351,0,0,0,.0137-.0253c0-.0079-.0049-.0118-.0137-.0118H49.3652a.5742.5742,0,1,1,0-1.1484H53.957a.5669.5669,0,0,1,.5742.5742A1.2694,1.2694,0,0,1,54.123,122.5808Z"/><path d="M58.1543,125.3747a.7424.7424,0,0,1-.7275-.7275v-.459a.7406.7406,0,0,1,.7275-.7266h.2041a.7406.7406,0,0,1,.7266.7266v.459a.7424.7424,0,0,1-.7266.7275Zm0,4.9746a.7406.7406,0,0,1-.7275-.7275v-.459a.7406.7406,0,0,1,.7275-.7266h.2041a.7406.7406,0,0,1,.7266.7266v.459a.7406.7406,0,0,1-.7266.7275Z"/><path d="M67.37,129.3415a3.5063,3.5063,0,0,1-5.167,0,8.1644,8.1644,0,0,1,0-7.2959,3.5063,3.5063,0,0,1,5.167,0,8.1635,8.1635,0,0,1,0,7.2959Zm-1.0459-6.4736a1.8311,1.8311,0,0,0-3.0742,0,8.1719,8.1719,0,0,0,0,5.65,1.8312,1.8312,0,0,0,3.0742,0,8.1872,8.1872,0,0,0,0-5.65Z"/><path d="M71.8154,129.1628a.0371.0371,0,0,0-.0127.0254c0,.0088.0039.0137.0127.0137h3.3672a.5737.5737,0,1,1,0,1.1474h-4.72a.5669.5669,0,0,1-.5742-.5742,1.16,1.16,0,0,1,.4463-.9307,19.2806,19.2806,0,0,0,3.1445-2.9785,3.6165,3.6165,0,0,0,.8232-2.15q0-1.6318-1.7353-1.6318a4.8032,4.8032,0,0,0-1.8877.4463.4338.4338,0,0,1-.4082-.0254.3768.3768,0,0,1-.1914-.3447,1.0306,1.0306,0,0,1,.166-.5733.821.821,0,0,1,.459-.3457,6.7013,6.7013,0,0,1,2.0537-.331,3.1886,3.1886,0,0,1,2.2139.708,2.5217,2.5217,0,0,1,.7841,1.9707,4.318,4.318,0,0,1-.8105,2.4551A17.3194,17.3194,0,0,1,71.8154,129.1628Z"/><path d="M85.6807,125.4772c-.0762,0-.1153.0333-.1153.1016v1.2754a.1024.1024,0,0,0,.1153.1152h2.6025a.5781.5781,0,0,1,.4082.9825.561.561,0,0,1-.4082.165H85.6807a.1017.1017,0,0,0-.1153.1143v1.6328c0,.18.041.2871.1221.3261a2.6256,2.6256,0,0,0,.7461.0567,1.6873,1.6873,0,0,0,.86-.1328q.173-.1349.2237-.7979a.6739.6739,0,0,1,.2168-.4463.5661.5661,0,0,1,.459-.1533.6563.6563,0,0,1,.4589.2354.6858.6858,0,0,1,.1661.4921c-.0166.3223-.04.5821-.07.7774a1.4662,1.4662,0,0,1-.1777.5234,1.3342,1.3342,0,0,1-.2617.3379,1.0576,1.0576,0,0,1-.4658.1719,4.4847,4.4847,0,0,1-.6573.0771c-.2119.0088-.5273.0127-.9433.0127a8.5633,8.5633,0,0,1-1.3711-.0761.8236.8236,0,0,1-.543-.2618,1.1315,1.1315,0,0,1-.1269-.6191v-2.1562a.1013.1013,0,0,0-.1153-.1143H82.2236a.1235.1235,0,0,0-.1269.1143,4.3408,4.3408,0,0,1-3.3682,3.1386.6258.6258,0,0,1-.4912-.0508.7339.7339,0,0,1-.3379-.3828.5307.5307,0,0,1,.0254-.4531.5883.5883,0,0,1,.3574-.3,3.381,3.381,0,0,0,2.3731-1.9775c.0166-.0586-.0088-.0889-.0772-.0889H78.333a.5653.5653,0,0,1-.5742-.5732.5671.5671,0,0,1,.5742-.5743H80.77c.0684,0,.1026-.039.1026-.1152,0-.0176.0019-.0508.0058-.1016s.0069-.0859.0069-.1025v-1.0713c0-.0683-.0391-.1016-.1153-.1016h-.4843a.5182.5182,0,0,1-.4981-.32c-.0342-.0673-.0762-.08-.1269-.0371q-.5495.3575-1.212.7266a.5612.5612,0,0,1-.4716.0449.6021.6021,0,0,1-.3575-.3125.6525.6525,0,0,1-.038-.4912.62.62,0,0,1,.3056-.376q1.0078-.5478,1.5947-.9443a.0594.0594,0,0,0,.0381-.0635.1038.1038,0,0,0-.0254-.0762c-.7568-.6816-1.1484-1.0332-1.1738-1.0595a.5411.5411,0,0,1-.1973-.4082.5519.5519,0,0,1,.1719-.4209.6884.6884,0,0,1,.4463-.1914.6575.6575,0,0,1,.459.1533q.2432.2035,1.2891,1.1611a.1334.1334,0,0,0,.166.0117A9.1633,9.1633,0,0,0,82.02,121.446a.0426.0426,0,0,0,.0069-.0576.0649.0649,0,0,0-.0576-.0322H79.6729a.55.55,0,0,1-.3956-.1592.52.52,0,0,1-.166-.39.5669.5669,0,0,1,.5616-.5605h3.5332a1.2054,1.2054,0,0,1,1.0839.625,8.3594,8.3594,0,0,0,.5489.7773.08.08,0,0,0,.1406.0137q.4337-.4848.8164-.97a.6224.6224,0,0,1,.3945-.2491.6517.6517,0,0,1,.46.0831.5573.5573,0,0,1,.2607.37.5173.5173,0,0,1-.0947.4209q-.5112.65-1.02,1.1992a.095.095,0,0,0,0,.1533c.1953.1777.4336.3828.7139.6113a.1068.1068,0,0,0,.1533,0,15.0959,15.0959,0,0,0,.9687-1.16.6243.6243,0,0,1,.4024-.2481.6583.6583,0,0,1,.4658.0821.5571.5571,0,0,1,.2607.3769.5281.5281,0,0,1-.0947.4268q-.4467.561-1.0342,1.1992a.0867.0867,0,0,0-.0185.0771.0656.0656,0,0,0,.0449.0625q.74.46,1.0332.6133a.6522.6522,0,0,1,.3125.376.642.642,0,0,1-.0322.4912.5734.5734,0,0,1-.37.3184.6037.6037,0,0,1-.4844-.0508q-.4468-.2548-1.1611-.7266c-.06-.0342-.1065-.0176-.14.0508a.5193.5193,0,0,1-.498.3066Zm-4.8858-1.123h5.001a.04.04,0,0,0,.0381-.0254.0268.0268,0,0,0-.0127-.0391,12.62,12.62,0,0,1-2.4746-2.6015c-.0342-.0508-.0723-.0469-.1153.0127A12.4579,12.4579,0,0,1,80.77,124.29a.0262.0262,0,0,0-.0127.0391A.04.04,0,0,0,80.7949,124.3542Zm3.4063,2.5v-1.2754c0-.0683-.0381-.1016-.1153-.1016H82.3643c-.0772,0-.1153.0333-.1153.1016v1.2754a.102.102,0,0,0,.1153.1152h1.7216A.102.102,0,0,0,84.2012,126.8542Z"/><rect class="b" x="125.9268" y="93.3491" width="68" height="20"/><path d="M141.9287,104.5144a.5528.5528,0,0,1-.3955-.1582.52.52,0,0,1-.166-.39.5668.5668,0,0,1,.5615-.5615h1.0459a.101.101,0,0,0,.1143-.1143V98.737a.7406.7406,0,0,1,.7275-.7275h7.36a.52.52,0,0,1,.3886.166.5709.5709,0,0,1,0,.791.5193.5193,0,0,1-.3886.165h-6.6084c-.0762,0-.1143.0352-.1143.1026v.5224q0,.1026.1143.1026h6.289a.4607.4607,0,0,1,.3447.1474.51.51,0,0,1,0,.7012.46.46,0,0,1-.3447.1465h-6.289c-.0762,0-.1143.0342-.1143.1016v.5488a.1017.1017,0,0,0,.1143.1152h6.289a.46.46,0,0,1,.3447.1465.4923.4923,0,0,1,.14.3506.4786.4786,0,0,1-.4844.4853h-6.289a.1007.1007,0,0,0-.1143.1143v.5742a.101.101,0,0,0,.1143.1143h7.8457a.5669.5669,0,0,1,.5605.5615.52.52,0,0,1-.166.39.5522.5522,0,0,1-.3945.1582h-5.1924c-.0166,0-.0313.0136-.044.039s-.0107.043.0059.0508a9.7264,9.7264,0,0,0,2.13,1.7734c.0429.0332.0976.0254.166-.0254a11.0406,11.0406,0,0,0,1.1611-1.1865.7178.7178,0,0,1,.4463-.2617.7023.7023,0,0,1,.4971.0957.5232.5232,0,0,1,.2617.376.5044.5044,0,0,1-.1211.44q-.5361.6123-1.1221,1.1611c-.0517.0508-.0468.0889.0127.1153a18.3291,18.3291,0,0,0,1.8877.7773.4788.4788,0,0,1,.3.3.5154.5154,0,0,1-.0195.4268.7739.7739,0,0,1-.3691.3389.6264.6264,0,0,1-.4854.0185,12.723,12.723,0,0,1-6.3008-4.3369.2249.2249,0,0,0-.1787-.1025h-.8808a.1017.1017,0,0,0-.1143.1152v2.9336c0,.0771.042.1074.127.09q1.6713-.2168,2.9345-.4463a.5226.5226,0,0,1,.4014.0889.474.474,0,0,1,.2109.3447.6155.6155,0,0,1-.1025.4209.5143.5143,0,0,1-.3574.23,52.1456,52.1456,0,0,1-5.37.7393.5638.5638,0,0,1-.4268-.1211.5476.5476,0,0,1-.2109-.3887.52.52,0,0,1,.1152-.4013.5338.5338,0,0,1,.37-.1983c.0928-.0078.2315-.0215.4141-.0381s.3213-.03.415-.0381c.0762,0,.1143-.0429.1143-.1269V104.63a.1017.1017,0,0,0-.1143-.1152Z"/><path d="M167.6309,108.7507a.5947.5947,0,0,1-.4336-.1211.5492.5492,0,0,1-.2168-.39.5623.5623,0,0,1,.1338-.4335.5875.5875,0,0,1,.4023-.2178q.5859-.063,1.76-.2168a.123.123,0,0,0,.1152-.127v-1.2119c0-.0674-.0381-.1025-.1152-.1025h-1.5938a.4959.4959,0,0,1-.37-.1582.5274.5274,0,0,1-.1533-.377.5234.5234,0,0,1,.5234-.5234h1.5938c.0771,0,.1152-.0332.1152-.1016v-.74a.1013.1013,0,0,0-.1152-.1143h-1.2627a.7406.7406,0,0,1-.7266-.7275V98.7116a.7406.7406,0,0,1,.7266-.7275h4.0312a.7406.7406,0,0,1,.7266.7275v3.6348c0,.0508.03.0683.09.0508a.6505.6505,0,0,1,.23-.0371h2.1172c.0176,0,.03-.0118.0381-.0332s.0049-.0352-.0127-.044q-.65-.6753-1.3389-1.3017a.5453.5453,0,0,1-.1845-.4014.5663.5663,0,0,1,.1591-.4151.5741.5741,0,0,1,.4209-.1777.5958.5958,0,0,1,.4209.166c.085.0762.2061.1934.3633.35q.2358.2373.3633.3516c.0518.0508.0977.0547.1406.0127q.65-.7134,1.25-1.5186c.043-.0586.0254-.0888-.0508-.0888H173.792a.5638.5638,0,0,1-.5732-.5733.5653.5653,0,0,1,.5732-.5742h3.916a.5669.5669,0,0,1,.5742.5742,1.7779,1.7779,0,0,1-.3183,1.0586,18.85,18.85,0,0,1-1.5567,1.9639c-.0508.0518-.0468.1025.0127.1533l.3828.4209a.2223.2223,0,0,0,.1787.0772H178.13a.5636.5636,0,0,1,.5732.5732,2.8492,2.8492,0,0,1-.2041,1.0967,12.6984,12.6984,0,0,1-.8037,1.6074.5648.5648,0,0,1-.376.2744.5491.5491,0,0,1-.4531-.083.6189.6189,0,0,1-.1914-.8291,11.3523,11.3523,0,0,0,.7275-1.39.0932.0932,0,0,0-.0068-.0772.06.06,0,0,0-.0566-.0381H176.293a.1016.1016,0,0,0-.1153.1153v3.5586a3.47,3.47,0,0,1-.2041,1.5625q-.2036.2871-1.122.2871c-.4082,0-.7578-.0088-1.0469-.0254a.627.627,0,0,1-.4209-.1914.6338.6338,0,0,1-.19-.4336.4952.4952,0,0,1,.1523-.4024.5267.5267,0,0,1,.4082-.1465c.1875.0079.4131.0127.6768.0127.2207,0,.3505-.0283.3886-.083a1.5357,1.5357,0,0,0,.0577-.58V103.61a.1016.1016,0,0,0-.1153-.1153h-1.6709a.5441.5441,0,0,1-.2422-.0508c-.06-.0341-.1064-.0175-.1406.0508a.673.673,0,0,1-.6631.4209h-1.1992a.101.101,0,0,0-.1143.1143v.74c0,.0684.0381.1016.1143.1016h1.4668a.5235.5235,0,0,1,0,1.0469h-1.4668a.101.101,0,0,0-.1143.1142v1.02a.1169.1169,0,0,0,.0313.0762.06.06,0,0,0,.07.0254q.9052-.1392,1.48-.2422a.4382.4382,0,0,1,.37.0957.4709.4709,0,0,1,.1787.3516.5615.5615,0,0,1-.1406.4082.68.68,0,0,1-.3828.2285Q169.622,108.4948,167.6309,108.7507Zm.8681-9.542v1.1728a.09.09,0,0,0,.1016.1026h.6758c.0771,0,.1152-.0342.1152-.1026V99.2087c0-.0674-.0381-.1025-.1152-.1025h-.6758A.09.09,0,0,0,168.499,99.2087Zm.7774,3.6865a.1019.1019,0,0,0,.1152-.1152v-1.2246a.1013.1013,0,0,0-.1152-.1143h-.6758c-.0684,0-.1016.0381-.1016.1143V102.78c0,.0762.0332.1152.1016.1152Zm1.455-3.6865v1.1728q0,.1026.1143.1026h.6377c.0771,0,.1152-.0342.1152-.1026V99.2087c0-.0674-.0381-.1025-.1152-.1025h-.6377C170.77,99.1062,170.7314,99.1413,170.7314,99.2087Zm0,2.3467V102.78a.1017.1017,0,0,0,.1143.1152h.6377a.1019.1019,0,0,0,.1152-.1152v-1.2246a.1013.1013,0,0,0-.1152-.1143h-.6377A.101.101,0,0,0,170.7314,101.5554Z"/><path d="M136.9287,124.15a.3426.3426,0,0,1-.5615-.2686v-.0761a1.4277,1.4277,0,0,1,.5615-1.1739l1.4414-1.16a1.96,1.96,0,0,1,1.25-.4336.6952.6952,0,0,1,.7012.7012v7.9082a.7017.7017,0,1,1-1.4033,0v-7.0664a.0114.0114,0,0,0-.0127-.0127l-.0254.0127Z"/><path d="M144.8242,130.2468a.7654.7654,0,0,1-.4463-.3184.9432.9432,0,0,1-.166-.5488.388.388,0,0,1,.1973-.3506.46.46,0,0,1,.415-.0439,5.1746,5.1746,0,0,0,1.6836.3437,1.8893,1.8893,0,0,0,2.169-2.1045q0-1.7739-1.6582-1.7734a2.32,2.32,0,0,0-1.0469.23,2.7218,2.7218,0,0,1-1.084.332.568.568,0,0,1-.4268-.1787.5434.5434,0,0,1-.16-.4209l.1914-3.6484a.7911.7911,0,0,1,.2422-.5166.7266.7266,0,0,1,.5234-.21h3.8652a.5742.5742,0,1,1,0,1.1484h-3.2148c-.0684,0-.1016.0371-.1016.1143l-.1279,2.4228c0,.01.0088.0137.0254.0137l.0254-.0137a3.2646,3.2646,0,0,1,1.5439-.3691,2.7692,2.7692,0,0,1,2.0664.752,2.8935,2.8935,0,0,1,.7393,2.1181,3.1172,3.1172,0,0,1-.9053,2.43,3.84,3.84,0,0,1-2.666.8232A6.0864,6.0864,0,0,1,144.8242,130.2468Z"/><path d="M153.4473,125.3747a.7424.7424,0,0,1-.7276-.7275v-.459a.7406.7406,0,0,1,.7276-.7266h.2041a.7407.7407,0,0,1,.7265.7266v.459a.7424.7424,0,0,1-.7265.7275Zm0,4.9746a.7406.7406,0,0,1-.7276-.7275v-.459a.7406.7406,0,0,1,.7276-.7266h.2041a.7407.7407,0,0,1,.7265.7266v.459a.7406.7406,0,0,1-.7265.7275Z"/><path d="M159.0723,129.1628a.0371.0371,0,0,0-.0127.0254c0,.0088.0039.0137.0127.0137H162.44a.5737.5737,0,1,1,0,1.1474h-4.72a.5669.5669,0,0,1-.5742-.5742,1.16,1.16,0,0,1,.4463-.9307,19.2763,19.2763,0,0,0,3.1445-2.9785,3.616,3.616,0,0,0,.8233-2.15q0-1.6318-1.7354-1.6318a4.8036,4.8036,0,0,0-1.8877.4463.4338.4338,0,0,1-.4082-.0254.377.377,0,0,1-.1914-.3447,1.0314,1.0314,0,0,1,.166-.5733.8213.8213,0,0,1,.459-.3457,6.7022,6.7022,0,0,1,2.0537-.331,3.1883,3.1883,0,0,1,2.2139.708,2.5214,2.5214,0,0,1,.7842,1.9707,4.3174,4.3174,0,0,1-.8106,2.4551A17.318,17.318,0,0,1,159.0723,129.1628Z"/><path d="M170.6992,129.3415a3.5063,3.5063,0,0,1-5.167,0,8.1644,8.1644,0,0,1,0-7.2959,3.5063,3.5063,0,0,1,5.167,0,8.1635,8.1635,0,0,1,0,7.2959Zm-1.0459-6.4736a1.8311,1.8311,0,0,0-3.0742,0,8.1719,8.1719,0,0,0,0,5.65,1.8312,1.8312,0,0,0,3.0742,0,8.1872,8.1872,0,0,0,0-5.65Z"/><path d="M183.8438,124.073a.4805.4805,0,0,1,.3632.1533.508.508,0,0,1,0,.7138.4814.4814,0,0,1-.3632.1543H176.751a.12.12,0,0,0-.127.1016c-.0088.0342-.0234.085-.0449.1523s-.0361.1192-.0449.1543c-.0166.0674.0088.1016.0771.1016h5.9317a.7071.7071,0,0,1,.51.2109.6755.6755,0,0,1,.2168.5039v4.5157a.6839.6839,0,0,1-.2041.49.6649.6649,0,0,1-.497.2109h-.2549a.4588.4588,0,0,1-.4473-.4472.0553.0553,0,0,0-.0635-.0625h-5.1914c-.0508,0-.0771.02-.0771.0625a.4378.4378,0,0,1-.127.3125.4075.4075,0,0,1-.3066.1347h-.2422a.674.674,0,0,1-.6885-.6894V128.18c0-.0166-.0068-.0254-.02-.0254a.0408.0408,0,0,0-.0313.0137,7.499,7.499,0,0,1-1.4414,1.7724.5143.5143,0,0,1-.46.1338.5753.5753,0,0,1-.4082-.2617.7607.7607,0,0,1-.1143-.5225.7451.7451,0,0,1,.2549-.4717,7.831,7.831,0,0,0,2.334-3.623c.0176-.0684-.0078-.1016-.0762-.1016h-1.9521a.4815.4815,0,0,1-.3633-.1543.508.508,0,0,1,0-.7138.4806.4806,0,0,1,.3633-.1533h4.6181c.0684,0,.1016-.0372.1016-.1143v-.3193c0-.0762-.0332-.1143-.1016-.1143h-3.61a.502.502,0,0,1-.4971-.4971.46.46,0,0,1,.1465-.3457.4923.4923,0,0,1,.3506-.14h3.61c.0684,0,.1016-.0381.1016-.1143v-.3193c0-.0772-.0332-.1143-.1016-.1143h-4.2226a.5251.5251,0,0,1-.5225-.5234.5274.5274,0,0,1,.1533-.377.4947.4947,0,0,1,.3692-.1591h2.1435a.0629.0629,0,0,0,.0576-.0323.0423.0423,0,0,0-.0068-.0566.2917.2917,0,0,1-.0508-.083.3162.3162,0,0,0-.0508-.083.47.47,0,0,1-.039-.44.4626.4626,0,0,1,.332-.3008.8276.8276,0,0,1,.97.37l.3057.5361a.1653.1653,0,0,0,.1533.0889h2.2324a.1966.1966,0,0,0,.1661-.0889c.0332-.06.123-.2207.2675-.4844a.8872.8872,0,0,1,.4082-.3828.82.82,0,0,1,.5489-.0645.52.52,0,0,1,.3632.3.49.49,0,0,1-.0195.4658.8767.8767,0,0,1-.0508.083.6978.6978,0,0,0-.0507.083.0549.0549,0,0,0,.0058.0566.0629.0629,0,0,0,.0576.0323h2.0537a.4984.4984,0,0,1,.37.1591.5316.5316,0,0,1,.1533.377.5251.5251,0,0,1-.5235.5234h-3.9541a.1009.1009,0,0,0-.1152.1143v.3193a.1013.1013,0,0,0,.1152.1143h3.3418a.4923.4923,0,0,1,.3506.14.46.46,0,0,1,.1465.3457.502.502,0,0,1-.4971.4971h-3.3418a.1013.1013,0,0,0-.1152.1143v.3193a.101.101,0,0,0,.1152.1143Zm-7.31,2.6542v.3565a.1013.1013,0,0,0,.1152.1143h5.1152c.0674,0,.1016-.0372.1016-.1143v-.3565a.09.09,0,0,0-.1016-.1025h-5.1152C176.5732,126.6247,176.5342,126.6589,176.5342,126.7272Zm0,1.4415v.3437a.1023.1023,0,0,0,.1152.1152h5.1152c.0674,0,.1016-.039.1016-.1152v-.3437c0-.0772-.0342-.1153-.1016-.1153h-5.1152A.102.102,0,0,0,176.5342,128.1687Zm0,1.4277v.3574a.1023.1023,0,0,0,.1152.1152h5.1152c.0674,0,.1016-.039.1016-.1152v-.3574c0-.0762-.0342-.1143-.1016-.1143h-5.1152A.1017.1017,0,0,0,176.5342,129.5964Z"/></svg>