<svg xmlns="http://www.w3.org/2000/svg" viewBox="0 0 1171.2598 26.4756"><defs><style>.a{fill:#9b36a3;}</style></defs><path class="a" d="M532.4521,26.1064a1.6464,1.6464,0,0,1-1.6162-1.6152V2.2676a1.5045,1.5045,0,0,1,.4825-1.12,1.5714,1.5714,0,0,1,1.1337-.4668h8.7022a1.5259,1.5259,0,0,1,1.1191.4668,1.5272,1.5272,0,0,1,.4678,1.12V10.63a1.5706,1.5706,0,0,1-.4678,1.1338,1.5033,1.5033,0,0,1-1.1191.4814h-5.7549a.226.226,0,0,0-.2549.2559v11.99a1.6445,1.6445,0,0,1-1.6152,1.6152Zm2.6924-21.8828v.7657a.2253.2253,0,0,0,.2549.2548h3.6856a.2252.2252,0,0,0,.2548-.2548V4.2236a.2259.2259,0,0,0-.2548-.2558h-3.6856A.226.226,0,0,0,535.1445,4.2236Zm0,4.0821v.7656a.2246.2246,0,0,0,.2549.2539h3.6856a.2246.2246,0,0,0,.2548-.2539V8.3057c0-.1514-.0849-.2266-.2548-.2266h-3.6856C535.23,8.0791,535.1445,8.1543,535.1445,8.3057ZM546.2285,25.37a1.5726,1.5726,0,0,1-1.1338-.4678,1.5032,1.5032,0,0,1-.4824-1.12V20.835c0-.1514-.085-.2266-.2549-.2266H542.458a.2668.2668,0,0,0-.2832.2266,8.8668,8.8668,0,0,1-2.126,3.8828,1.8485,1.8485,0,0,1-1.19.582,1.9465,1.9465,0,0,1-1.3047-.3262l-.3682-.2275a1.111,1.111,0,0,1-.5527-.9209,1.2754,1.2754,0,0,1,.3828-1.0352,6.8654,6.8654,0,0,0,1.417-1.9843.1265.1265,0,0,0-.0283-.1407.1918.1918,0,0,0-.1416-.0566H537.64a1.2781,1.2781,0,0,1-.9355-.3975,1.3073,1.3073,0,0,1-.3975-.9638,1.3081,1.3081,0,0,1,1.333-1.3321h1.0489a.226.226,0,0,0,.2549-.2558V16.4971c0-.15-.085-.2266-.2549-.2266h-.6807a1.2916,1.2916,0,0,1-.9639-.41,1.3612,1.3612,0,0,1-.3964-.9786,1.3553,1.3553,0,0,1,1.36-1.3613h10.97a1.3572,1.3572,0,0,1,1.3614,1.3613,1.3619,1.3619,0,0,1-.3975.9786,1.2913,1.2913,0,0,1-.9639.41h-.4531a.2.2,0,0,0-.2265.2266v1.1621c0,.17.0751.2558.2265.2558h.8223a1.3032,1.3032,0,0,1,.9355.3829,1.2674,1.2674,0,0,1,.3965.9492,1.3138,1.3138,0,0,1-.3965.9638,1.2826,1.2826,0,0,1-.9355.3975h-.8223a.2.2,0,0,0-.2265.2266v2.0117a.0659.0659,0,0,0,.0566.0713.07.07,0,0,0,.085-.042,1.3559,1.3559,0,0,1,1.2187-.5391c.3213.02.6523.0283.9922.0283a2.3571,2.3571,0,0,0,1.1055-.1416q.17-.1421.17-.9922v-8.73a.226.226,0,0,0-.2549-.2559h-6.0381a1.5033,1.5033,0,0,1-1.1191-.4814,1.5706,1.5706,0,0,1-.4678-1.1338V2.2676a1.5272,1.5272,0,0,1,.4678-1.12,1.5259,1.5259,0,0,1,1.1191-.4668h8.9863a1.5763,1.5763,0,0,1,1.1338.4668,1.5109,1.5109,0,0,1,.4815,1.12V20.9189q0,1.3053-.042,2.0411a5.9487,5.9487,0,0,1-.2412,1.39,2.3748,2.3748,0,0,1-.4678.9346,2.1157,2.1157,0,0,1-.8926.4824,5.37,5.37,0,0,1-1.3047.2412q-.68.0425-1.8984.042c-.5488,0-1.0488-.01-1.5029-.0273a1.7721,1.7721,0,0,1-1.0625-.4121,1.74,1.74,0,0,1-.6094-.9776.1329.1329,0,0,0-.0713-.0713c-.0283-.01-.0527.0049-.0713.043a1.5467,1.5467,0,0,1-1.3887.7656Zm-1.8711-7.4551a.226.226,0,0,0,.2549-.2558V16.4971c0-.15-.085-.2266-.2549-.2266h-1.6162a.2.2,0,0,0-.2266.2266v1.1914a.2.2,0,0,0,.2266.2265Zm3.09-13.6914v.7657a.2252.2252,0,0,0,.2548.2548h3.9688a.2253.2253,0,0,0,.2549-.2548V4.2236a.226.226,0,0,0-.2549-.2558h-3.9688A.2259.2259,0,0,0,547.4473,4.2236Zm4.2236,5.1016a.2246.2246,0,0,0,.2549-.2539V8.3057c0-.1514-.085-.2266-.2549-.2266h-3.9688c-.17,0-.2548.0752-.2548.2266v.7656a.2246.2246,0,0,0,.2548.2539Z"/><path class="a" d="M567.0625,15.6475l-.3975-2.3243a4.2084,4.2084,0,0,1,.5957-2.92A29.8819,29.8819,0,0,0,570.4639,1.73,1.5907,1.5907,0,0,1,571.1582.708a1.6068,1.6068,0,0,1,1.2051-.2539l.9922.17a1.6006,1.6006,0,0,1,1.02.68,1.5635,1.5635,0,0,1,.2549,1.19,33.0023,33.0023,0,0,1-1.0489,3.9971,1.53,1.53,0,0,0-.0849.4824V15.251c0,.0185.0185.0273.0566.0273a.1175.1175,0,0,0,.085-.0273,48.7729,48.7729,0,0,0,2.9765-7.6543c.0371-.1133-.01-.17-.1416-.17a1.2588,1.2588,0,0,1-1.247-1.2481V2.6357a1.5487,1.5487,0,0,1,.4814-1.1328,1.5484,1.5484,0,0,1,1.1338-.4824h.6523a1.55,1.55,0,0,1,1.1338.4824,1.5488,1.5488,0,0,1,.4815,1.1328V3.8271c0,.17.0752.254.2265.254h2.4385c.15,0,.2266-.084.2266-.254V1.87a1.55,1.55,0,0,1,.4814-1.1328,1.5481,1.5481,0,0,1,1.1338-.4824h1.1914a1.5026,1.5026,0,0,1,1.1192.4824,1.5755,1.5755,0,0,1,.4677,1.1328v1.957a.2247.2247,0,0,0,.2549.254h2.41a.2247.2247,0,0,0,.2549-.254V2.6357a1.5487,1.5487,0,0,1,.4814-1.1328,1.5484,1.5484,0,0,1,1.1338-.4824h.6523a1.5484,1.5484,0,0,1,1.1338.4824,1.5488,1.5488,0,0,1,.4815,1.1328V5.8115a1.6467,1.6467,0,0,1-1.6153,1.6153h-5.5273a.0814.0814,0,0,1-.0283.0566l1.87.3691a1.2234,1.2234,0,0,1,.7939.5528,1.0693,1.0693,0,0,1,.1416.92c-.0381.0957.01.1426.1416.1426h2.9483a1.5029,1.5029,0,0,1,1.12.4824,1.5739,1.5739,0,0,1,.4678,1.1328v.1133a1.5786,1.5786,0,0,1-.4678,1.1348,1.506,1.506,0,0,1-1.12.4814h-3.628a.2.2,0,0,0-.2265.2266V13.72c0,.17.0752.2549.2265.2549h3.2032a1.26,1.26,0,0,1,1.3037,1.3037,1.286,1.286,0,0,1-.3828.9492,1.2529,1.2529,0,0,1-.9209.3829h-3.2032c-.1513,0-.2265.0859-.2265.2558v.6524c0,.17.0752.2539.2265.2539h3.2032a1.2606,1.2606,0,0,1,.9209.3828,1.3533,1.3533,0,0,1,.0146,1.8711,1.2414,1.2414,0,0,1-.9355.3828h-3.2032c-.1513,0-.2265.0849-.2265.2558v.68a.2.2,0,0,0,.2265.2266h3.9122a1.506,1.506,0,0,1,1.1191.4824,1.5762,1.5762,0,0,1,.4678,1.1338v.3115a1.5762,1.5762,0,0,1-.4678,1.1338,1.5052,1.5052,0,0,1-1.1191.4815h-12.02a.1252.1252,0,0,0-.1416.1425.885.885,0,0,1-.2832.6661.9215.9215,0,0,1-.6523.27h-1.9561a1.5733,1.5733,0,0,1-1.1338-.4688,1.5018,1.5018,0,0,1-.4814-1.1191v-5.584a.3329.3329,0,0,0-.1983-.34l-1.333-.6524a1.3073,1.3073,0,0,1-.34-.2265c-.0186-.0381-.0518-.0469-.1-.0293-.0469.02-.07.0478-.07.0859v6.7178a1.5763,1.5763,0,0,1-.4678,1.1338,1.5068,1.5068,0,0,1-1.12.4824h-.9639a1.6463,1.6463,0,0,1-1.6152-1.6162V14.7119c0-.0381-.0147-.0566-.043-.0566a.0989.0989,0,0,0-.07.0273q-.3692.5962-.8789,1.3047a.6579.6579,0,0,1-.7373.2549A.6829.6829,0,0,1,567.0625,15.6475Zm10.998-8.2207a.0283.0283,0,0,0,0,.0566l1.9278.3691a1.1861,1.1861,0,0,1,.7793.5381,1.0652,1.0652,0,0,1,.1279.9073c-.0381.1318.0088.1982.1416.1982H583.9a.2845.2845,0,0,0,.3115-.2275q.1979-.7647.4248-1.6153c.0381-.15-.0283-.2265-.1982-.2265Zm5.6983,6.2929v-.6523c0-.17-.0762-.2549-.2276-.2549H580.3a.2253.2253,0,0,0-.2549.2549V13.72a.2253.2253,0,0,0,.2549.2549h3.2314C583.6826,13.9746,583.7588,13.89,583.7588,13.72Zm0,3.7989v-.6524c0-.17-.0762-.2558-.2276-.2558H580.3a.226.226,0,0,0-.2549.2558v.6524a.2246.2246,0,0,0,.2549.2539h3.2314C583.6826,17.7725,583.7588,17.6885,583.7588,17.5186Zm0,3.8261v-.68c0-.1709-.0762-.2558-.2276-.2558H580.3a.2256.2256,0,0,0-.2549.2558v.68c0,.1514.085.2266.2549.2266h3.2314A.2007.2007,0,0,0,583.7588,21.3447Z"/><path class="a" d="M606.0674,19.7861a1.6462,1.6462,0,0,1-1.6162-1.6162V6.0947a1.5041,1.5041,0,0,1,.4814-1.12,1.5768,1.5768,0,0,1,1.1348-.4678h8.1064c.1514,0,.2266-.0849.2266-.2548V1.6162a1.5543,1.5543,0,0,1,.4824-1.1348A1.5548,1.5548,0,0,1,616.0166,0h1.417a1.5548,1.5548,0,0,1,1.1338.4814,1.5543,1.5543,0,0,1,.4824,1.1348V4.252c0,.17.0752.2548.2266.2548h8.1074a1.5973,1.5973,0,0,1,1.5869,1.5879V18.17a1.57,1.57,0,0,1-.4678,1.1338,1.5006,1.5006,0,0,1-1.1191.4824h-1.3613a1.2565,1.2565,0,0,1-.9209-.3828,1.292,1.292,0,0,1-.3828-.9492c0-.1143-.0665-.1709-.1983-.1709h-5.2441a.2.2,0,0,0-.2266.2275v6.35a1.6481,1.6481,0,0,1-1.6162,1.6152h-1.417A1.6481,1.6481,0,0,1,614.4,24.86v-6.35a.2.2,0,0,0-.2266-.2275H608.93c-.1318,0-.1983.0566-.1983.1709a1.292,1.292,0,0,1-.3828.9492,1.2565,1.2565,0,0,1-.9209.3828Zm2.664-11.2539v5.8106a.226.226,0,0,0,.2549.2558h5.1875c.1514,0,.2266-.0859.2266-.2558V8.5322a.2.2,0,0,0-.2266-.2265h-5.1875C608.8164,8.3057,608.7314,8.3818,608.7314,8.5322Zm15.7325-.2265h-5.1875a.2.2,0,0,0-.2266.2265v5.8106c0,.17.0752.2558.2266.2558h5.1875a.226.226,0,0,0,.2549-.2558V8.5322C624.7188,8.3818,624.6338,8.3057,624.4639,8.3057Z"/><path class="a" d="M515.1094,17.8281a2.0745,2.0745,0,0,1-.81-.17,2.0006,2.0006,0,0,1-.69-.46,2.7475,2.7475,0,0,1-.27-.32,2.5466,2.5466,0,0,1-.19-.37,2.5818,2.5818,0,0,1-.12-.39,2.2245,2.2245,0,0,1,0-.84,2.5907,2.5907,0,0,1,.12-.3906,1.89,1.89,0,0,1,.2-.37,1.3785,1.3785,0,0,1,.26-.3194,2.1986,2.1986,0,0,1,3.0107,0,2.1686,2.1686,0,0,1,.26.3194,2.71,2.71,0,0,1,.2.37,2.4782,2.4782,0,0,1,.1191.3906,2.219,2.219,0,0,1,0,.84,2.47,2.47,0,0,1-.1191.39,2.0317,2.0317,0,0,1-.4707.69,1.7248,1.7248,0,0,1-.3194.27,1.77,1.77,0,0,1-.36.19,1.4449,1.4449,0,0,1-.4.12A1.9687,1.9687,0,0,1,515.1094,17.8281Z"/><path class="a" d="M504.44,15.6982a2.13,2.13,0,0,1,2.12-2.13h0a2.1317,2.1317,0,0,1,2.13,2.13h0a2.1318,2.1318,0,0,1-2.13,2.13h0A2.13,2.13,0,0,1,504.44,15.6982Zm-8.55,0a2.13,2.13,0,0,1,2.12-2.13h0a2.1317,2.1317,0,0,1,2.13,2.13h0a2.1317,2.1317,0,0,1-2.13,2.13h0A2.13,2.13,0,0,1,495.89,15.6982Zm-8.55,0a2.13,2.13,0,0,1,2.12-2.13h0a2.1317,2.1317,0,0,1,2.13,2.13h0a2.1317,2.1317,0,0,1-2.13,2.13h0A2.13,2.13,0,0,1,487.34,15.6982Zm-8.55,0a2.1291,2.1291,0,0,1,2.12-2.13h0a2.1317,2.1317,0,0,1,2.13,2.13h0a2.1317,2.1317,0,0,1-2.13,2.13h0A2.1291,2.1291,0,0,1,478.79,15.6982Zm-8.5507,0a2.13,2.13,0,0,1,2.12-2.13h0a2.1312,2.1312,0,0,1,2.13,2.13h0a2.1312,2.1312,0,0,1-2.13,2.13h0A2.13,2.13,0,0,1,470.2393,15.6982Zm-8.55,0a2.13,2.13,0,0,1,2.12-2.13h0a2.1317,2.1317,0,0,1,2.13,2.13h0a2.1318,2.1318,0,0,1-2.13,2.13h0A2.13,2.13,0,0,1,461.69,15.6982Zm-8.55,0a2.13,2.13,0,0,1,2.12-2.13h0a2.1317,2.1317,0,0,1,2.13,2.13h0a2.1317,2.1317,0,0,1-2.13,2.13h0A2.13,2.13,0,0,1,453.14,15.6982Zm-8.55,0a2.13,2.13,0,0,1,2.12-2.13h0a2.1317,2.1317,0,0,1,2.13,2.13h0a2.1317,2.1317,0,0,1-2.13,2.13h0A2.13,2.13,0,0,1,444.59,15.6982Zm-8.55,0a2.1312,2.1312,0,0,1,2.13-2.13h0a2.13,2.13,0,0,1,2.12,2.13h0a2.13,2.13,0,0,1-2.12,2.13h0A2.1312,2.1312,0,0,1,436.04,15.6982Zm-8.5507,0a2.1319,2.1319,0,0,1,2.1308-2.13h0a2.1289,2.1289,0,0,1,2.1192,2.13h0a2.1289,2.1289,0,0,1-2.1192,2.13h0A2.132,2.132,0,0,1,427.4893,15.6982Zm-8.55,0a2.1317,2.1317,0,0,1,2.13-2.13h0a2.13,2.13,0,0,1,2.12,2.13h0a2.13,2.13,0,0,1-2.12,2.13h0A2.1317,2.1317,0,0,1,418.94,15.6982Zm-8.55,0a2.1317,2.1317,0,0,1,2.13-2.13h0a2.13,2.13,0,0,1,2.12,2.13h0a2.13,2.13,0,0,1-2.12,2.13h0A2.1318,2.1318,0,0,1,410.39,15.6982Zm-8.55,0a2.1317,2.1317,0,0,1,2.13-2.13h0a2.13,2.13,0,0,1,2.12,2.13h0a2.13,2.13,0,0,1-2.12,2.13h0A2.1318,2.1318,0,0,1,401.84,15.6982Zm-8.55,0a2.1312,2.1312,0,0,1,2.13-2.13h0a2.13,2.13,0,0,1,2.12,2.13h0a2.13,2.13,0,0,1-2.12,2.13h0A2.1312,2.1312,0,0,1,393.29,15.6982Zm-8.5507,0a2.1319,2.1319,0,0,1,2.1308-2.13h0a2.1289,2.1289,0,0,1,2.1192,2.13h0a2.1289,2.1289,0,0,1-2.1192,2.13h0A2.132,2.132,0,0,1,384.7393,15.6982Zm-8.55,0a2.1317,2.1317,0,0,1,2.13-2.13h0a2.13,2.13,0,0,1,2.12,2.13h0a2.13,2.13,0,0,1-2.12,2.13h0A2.1317,2.1317,0,0,1,376.19,15.6982Zm-8.55,0a2.1317,2.1317,0,0,1,2.13-2.13h0a2.13,2.13,0,0,1,2.12,2.13h0a2.13,2.13,0,0,1-2.12,2.13h0A2.1318,2.1318,0,0,1,367.64,15.6982Zm-8.55,0a2.1317,2.1317,0,0,1,2.13-2.13h0a2.13,2.13,0,0,1,2.12,2.13h0a2.13,2.13,0,0,1-2.12,2.13h0A2.1318,2.1318,0,0,1,359.09,15.6982Zm-8.55,0a2.1312,2.1312,0,0,1,2.13-2.13h0a2.13,2.13,0,0,1,2.12,2.13h0a2.13,2.13,0,0,1-2.12,2.13h0A2.1312,2.1312,0,0,1,350.54,15.6982Zm-8.5507,0a2.1319,2.1319,0,0,1,2.1308-2.13h0a2.1289,2.1289,0,0,1,2.1192,2.13h0a2.1289,2.1289,0,0,1-2.1192,2.13h0A2.132,2.132,0,0,1,341.9893,15.6982Zm-8.55,0a2.1317,2.1317,0,0,1,2.13-2.13h0a2.138,2.138,0,0,1,2.13,2.13h0a2.138,2.138,0,0,1-2.13,2.13h0A2.1317,2.1317,0,0,1,333.44,15.6982Zm-8.55,0a2.1317,2.1317,0,0,1,2.13-2.13h0a2.13,2.13,0,0,1,2.12,2.13h0a2.13,2.13,0,0,1-2.12,2.13h0A2.1318,2.1318,0,0,1,324.89,15.6982Zm-8.55,0a2.1317,2.1317,0,0,1,2.13-2.13h0a2.13,2.13,0,0,1,2.12,2.13h0a2.13,2.13,0,0,1-2.12,2.13h0A2.1318,2.1318,0,0,1,316.34,15.6982Zm-8.55,0a2.1312,2.1312,0,0,1,2.13-2.13h0a2.1317,2.1317,0,0,1,2.13,2.13h0a2.1318,2.1318,0,0,1-2.13,2.13h0A2.1312,2.1312,0,0,1,307.79,15.6982Zm-8.5507,0a2.1319,2.1319,0,0,1,2.1308-2.13h0a2.1381,2.1381,0,0,1,2.13,2.13h0a2.1381,2.1381,0,0,1-2.13,2.13h0A2.132,2.132,0,0,1,299.2393,15.6982Zm-8.55,0a2.138,2.138,0,0,1,2.13-2.13h0a2.138,2.138,0,0,1,2.13,2.13h0a2.138,2.138,0,0,1-2.13,2.13h0A2.138,2.138,0,0,1,290.69,15.6982Zm-8.55,0a2.1381,2.1381,0,0,1,2.13-2.13h0a2.138,2.138,0,0,1,2.13,2.13h0a2.138,2.138,0,0,1-2.13,2.13h0A2.1381,2.1381,0,0,1,282.14,15.6982Zm-8.55,0a2.1317,2.1317,0,0,1,2.13-2.13h0a2.1317,2.1317,0,0,1,2.13,2.13h0a2.1318,2.1318,0,0,1-2.13,2.13h0A2.1318,2.1318,0,0,1,273.59,15.6982Zm-8.54,0a2.13,2.13,0,0,1,2.12-2.13h0a2.1381,2.1381,0,0,1,2.13,2.13h0a2.1381,2.1381,0,0,1-2.13,2.13h0A2.13,2.13,0,0,1,265.05,15.6982Zm-8.56,0a2.1382,2.1382,0,0,1,2.1308-2.13h0a2.1381,2.1381,0,0,1,2.13,2.13h0a2.1381,2.1381,0,0,1-2.13,2.13h0A2.1382,2.1382,0,0,1,256.4893,15.6982Zm-8.55,0a2.138,2.138,0,0,1,2.13-2.13h0a2.1311,2.1311,0,0,1,2.13,2.13h0a2.1311,2.1311,0,0,1-2.13,2.13h0A2.138,2.138,0,0,1,247.94,15.6982Zm-8.54,0a2.13,2.13,0,0,1,2.12-2.13h0a2.1317,2.1317,0,0,1,2.13,2.13h0a2.1318,2.1318,0,0,1-2.13,2.13h0A2.13,2.13,0,0,1,239.3994,15.6982Zm-8.55,0a2.13,2.13,0,0,1,2.12-2.13h0a2.1381,2.1381,0,0,1,2.13,2.13h0a2.1381,2.1381,0,0,1-2.13,2.13h0A2.13,2.13,0,0,1,230.85,15.6982Zm-8.56,0a2.1381,2.1381,0,0,1,2.13-2.13h0a2.1317,2.1317,0,0,1,2.13,2.13h0a2.1318,2.1318,0,0,1-2.13,2.13h0A2.1381,2.1381,0,0,1,222.29,15.6982Zm-8.54,0a2.129,2.129,0,0,1,2.12-2.13h0a2.1317,2.1317,0,0,1,2.13,2.13h0a2.1318,2.1318,0,0,1-2.13,2.13h0A2.1291,2.1291,0,0,1,213.75,15.6982Zm-8.5508,0a2.13,2.13,0,0,1,2.12-2.13h0a2.1311,2.1311,0,0,1,2.13,2.13h0a2.1311,2.1311,0,0,1-2.13,2.13h0A2.13,2.13,0,0,1,205.1992,15.6982Zm-8.55,0a2.1317,2.1317,0,0,1,2.13-2.13h0a2.13,2.13,0,0,1,2.12,2.13h0a2.13,2.13,0,0,1-2.12,2.13h0A2.1318,2.1318,0,0,1,196.6494,15.6982Zm-8.55,0a2.13,2.13,0,0,1,2.12-2.13h0a2.1317,2.1317,0,0,1,2.13,2.13h0a2.1318,2.1318,0,0,1-2.13,2.13h0A2.13,2.13,0,0,1,188.1,15.6982Zm-8.55,0a2.13,2.13,0,0,1,2.12-2.13h0a2.1317,2.1317,0,0,1,2.13,2.13h0a2.1318,2.1318,0,0,1-2.13,2.13h0A2.13,2.13,0,0,1,179.55,15.6982Zm-8.55,0a2.129,2.129,0,0,1,2.12-2.13h0a2.1317,2.1317,0,0,1,2.13,2.13h0a2.1318,2.1318,0,0,1-2.13,2.13h0A2.1291,2.1291,0,0,1,171,15.6982Zm-8.5508,0a2.13,2.13,0,0,1,2.12-2.13h0a2.1311,2.1311,0,0,1,2.13,2.13h0a2.1311,2.1311,0,0,1-2.13,2.13h0A2.13,2.13,0,0,1,162.4492,15.6982Zm-8.55,0a2.13,2.13,0,0,1,2.12-2.13h0a2.1317,2.1317,0,0,1,2.13,2.13h0a2.1318,2.1318,0,0,1-2.13,2.13h0A2.13,2.13,0,0,1,153.8994,15.6982Zm-8.55,0a2.13,2.13,0,0,1,2.12-2.13h0a2.1317,2.1317,0,0,1,2.13,2.13h0a2.1318,2.1318,0,0,1-2.13,2.13h0A2.13,2.13,0,0,1,145.35,15.6982Zm-8.55,0a2.1317,2.1317,0,0,1,2.13-2.13h0a2.13,2.13,0,0,1,2.12,2.13h0a2.13,2.13,0,0,1-2.12,2.13h0A2.1318,2.1318,0,0,1,136.8,15.6982Zm-8.55,0a2.1311,2.1311,0,0,1,2.13-2.13h0a2.13,2.13,0,0,1,2.12,2.13h0a2.13,2.13,0,0,1-2.12,2.13h0A2.1311,2.1311,0,0,1,128.25,15.6982Zm-8.5508,0a2.132,2.132,0,0,1,2.1309-2.13h0a2.1288,2.1288,0,0,1,2.1191,2.13h0a2.1289,2.1289,0,0,1-2.1191,2.13h0A2.132,2.132,0,0,1,119.6992,15.6982Zm-8.55,0a2.1317,2.1317,0,0,1,2.13-2.13h0a2.13,2.13,0,0,1,2.12,2.13h0a2.13,2.13,0,0,1-2.12,2.13h0A2.1318,2.1318,0,0,1,111.1494,15.6982Zm-8.55,0a2.1317,2.1317,0,0,1,2.13-2.13h0a2.13,2.13,0,0,1,2.12,2.13h0a2.13,2.13,0,0,1-2.12,2.13h0A2.1318,2.1318,0,0,1,102.6,15.6982Zm-8.55,0a2.1317,2.1317,0,0,1,2.13-2.13h0a2.13,2.13,0,0,1,2.12,2.13h0a2.13,2.13,0,0,1-2.12,2.13h0A2.1318,2.1318,0,0,1,94.05,15.6982Zm-8.55,0a2.1311,2.1311,0,0,1,2.13-2.13h0a2.13,2.13,0,0,1,2.12,2.13h0a2.13,2.13,0,0,1-2.12,2.13h0A2.1311,2.1311,0,0,1,85.5,15.6982Zm-8.5508,0a2.132,2.132,0,0,1,2.1309-2.13h0a2.1288,2.1288,0,0,1,2.1191,2.13h0a2.1289,2.1289,0,0,1-2.1191,2.13h0A2.132,2.132,0,0,1,76.9492,15.6982Zm-8.55,0a2.1317,2.1317,0,0,1,2.13-2.13h0a2.13,2.13,0,0,1,2.12,2.13h0a2.13,2.13,0,0,1-2.12,2.13h0A2.1318,2.1318,0,0,1,68.3994,15.6982Zm-8.55,0a2.1317,2.1317,0,0,1,2.13-2.13h0a2.13,2.13,0,0,1,2.12,2.13h0a2.13,2.13,0,0,1-2.12,2.13h0A2.1318,2.1318,0,0,1,59.85,15.6982Zm-8.55,0a2.1317,2.1317,0,0,1,2.13-2.13h0a2.13,2.13,0,0,1,2.12,2.13h0a2.13,2.13,0,0,1-2.12,2.13h0A2.1318,2.1318,0,0,1,51.3,15.6982Zm-8.55,0a2.1311,2.1311,0,0,1,2.13-2.13h0a2.13,2.13,0,0,1,2.12,2.13h0a2.13,2.13,0,0,1-2.12,2.13h0A2.1311,2.1311,0,0,1,42.75,15.6982Zm-8.5508,0a2.132,2.132,0,0,1,2.1309-2.13h0a2.1288,2.1288,0,0,1,2.1191,2.13h0a2.1289,2.1289,0,0,1-2.1191,2.13h0A2.132,2.132,0,0,1,34.1992,15.6982Zm-8.55,0a2.1317,2.1317,0,0,1,2.13-2.13h0a2.1389,2.1389,0,0,1,2.1309,2.13h0a2.139,2.139,0,0,1-2.1309,2.13h0A2.1318,2.1318,0,0,1,25.6494,15.6982Zm-8.55,0a2.1381,2.1381,0,0,1,2.13-2.13h0a2.1381,2.1381,0,0,1,2.13,2.13h0a2.1381,2.1381,0,0,1-2.13,2.13h0A2.1381,2.1381,0,0,1,17.1,15.6982Zm-8.55,0a2.1381,2.1381,0,0,1,2.13-2.13h0a2.13,2.13,0,0,1,2.12,2.13h0a2.13,2.13,0,0,1-2.12,2.13h0A2.1381,2.1381,0,0,1,8.55,15.6982Z"/><path class="a" d="M2.13,17.8281a2.1119,2.1119,0,0,1-1.5-.63,2.6609,2.6609,0,0,1-.27-.32,2.5887,2.5887,0,0,1-.1992-.37,2.3719,2.3719,0,0,1-.12-.39,2.2245,2.2245,0,0,1,0-.84,1.7335,1.7335,0,0,1,.13-.3906,1.6118,1.6118,0,0,1,.19-.37A1.6948,1.6948,0,0,1,.63,14.1982a2.1754,2.1754,0,0,1,3,0,1.7282,1.7282,0,0,1,.2695.3194,2.5466,2.5466,0,0,1,.19.37,1.3906,1.3906,0,0,1,.12.3906,1.7956,1.7956,0,0,1,0,.84,1.3852,1.3852,0,0,1-.12.39,1.8431,1.8431,0,0,1-.19.37,2.7466,2.7466,0,0,1-.2695.32A2.1154,2.1154,0,0,1,2.13,17.8281Z"/><path class="a" d="M1169.13,17.8281a2.1119,2.1119,0,0,1-1.5-.63,2.6609,2.6609,0,0,1-.27-.32,2.6987,2.6987,0,0,1-.2-.37,2.47,2.47,0,0,1-.1192-.39,2.2245,2.2245,0,0,1,0-.84,1.7335,1.7335,0,0,1,.13-.3906,2.1891,2.1891,0,0,1,.1895-.37,1.6948,1.6948,0,0,1,.27-.3194,2.1754,2.1754,0,0,1,3,0,1.7282,1.7282,0,0,1,.27.3194,2.1279,2.1279,0,0,1,.19.37,1.3906,1.3906,0,0,1,.12.3906,2.0463,2.0463,0,0,1,.05.42,3.0447,3.0447,0,0,1-.04.42,2.57,2.57,0,0,1-.12.39,2.6049,2.6049,0,0,1-.2.37,2.7466,2.7466,0,0,1-.27.32,2.1782,2.1782,0,0,1-.69.47A2.215,2.215,0,0,1,1169.13,17.8281Z"/><path class="a" d="M1158.55,15.6982a2.1249,2.1249,0,0,1,2.13-2.13h0a2.1312,2.1312,0,0,1,2.13,2.13h0a2.1381,2.1381,0,0,1-2.13,2.13h0A2.1318,2.1318,0,0,1,1158.55,15.6982Zm-8.45,0a2.1249,2.1249,0,0,1,2.13-2.13h0a2.1228,2.1228,0,0,1,2.12,2.13h0a2.13,2.13,0,0,1-2.12,2.13h0A2.1318,2.1318,0,0,1,1150.1,15.6982Zm-8.45,0a2.1249,2.1249,0,0,1,2.13-2.13h0a2.1228,2.1228,0,0,1,2.12,2.13h0a2.13,2.13,0,0,1-2.12,2.13h0A2.1318,2.1318,0,0,1,1141.6494,15.6982Zm-8.45,0a2.1228,2.1228,0,0,1,2.12-2.13h0a2.1243,2.1243,0,0,1,2.13,2.13h0a2.1311,2.1311,0,0,1-2.13,2.13h0A2.13,2.13,0,0,1,1133.1992,15.6982Zm-8.4492,0a2.1222,2.1222,0,0,1,2.12-2.13h0a2.1249,2.1249,0,0,1,2.13,2.13h0a2.1318,2.1318,0,0,1-2.13,2.13h0A2.1291,2.1291,0,0,1,1124.75,15.6982Zm-8.45,0a2.1228,2.1228,0,0,1,2.12-2.13h0a2.1249,2.1249,0,0,1,2.13,2.13h0a2.1318,2.1318,0,0,1-2.13,2.13h0A2.13,2.13,0,0,1,1116.3,15.6982Zm-8.46,0a2.1312,2.1312,0,0,1,2.13-2.13h0a2.1312,2.1312,0,0,1,2.13,2.13h0a2.1381,2.1381,0,0,1-2.13,2.13h0A2.1381,2.1381,0,0,1,1107.84,15.6982Zm-8.45,0a2.1312,2.1312,0,0,1,2.13-2.13h0a2.1311,2.1311,0,0,1,2.13,2.13h0a2.138,2.138,0,0,1-2.13,2.13h0A2.1381,2.1381,0,0,1,1099.39,15.6982Zm-8.45,0a2.1248,2.1248,0,0,1,2.13-2.13h0a2.1229,2.1229,0,0,1,2.12,2.13h0a2.13,2.13,0,0,1-2.12,2.13h0A2.1317,2.1317,0,0,1,1090.94,15.6982Zm-8.45,0a2.1251,2.1251,0,0,1,2.1308-2.13h0a2.1221,2.1221,0,0,1,2.1192,2.13h0a2.1289,2.1289,0,0,1-2.1192,2.13h0A2.132,2.132,0,0,1,1082.4893,15.6982Zm-8.4493,0a2.1243,2.1243,0,0,1,2.13-2.13h0a2.1228,2.1228,0,0,1,2.12,2.13h0a2.13,2.13,0,0,1-2.12,2.13h0A2.1312,2.1312,0,0,1,1074.04,15.6982Zm-8.45,0a2.1229,2.1229,0,0,1,2.12-2.13h0a2.1249,2.1249,0,0,1,2.13,2.13h0a2.1317,2.1317,0,0,1-2.13,2.13h0A2.13,2.13,0,0,1,1065.59,15.6982Zm-8.45,0a2.1229,2.1229,0,0,1,2.12-2.13h0a2.1248,2.1248,0,0,1,2.13,2.13h0a2.1317,2.1317,0,0,1-2.13,2.13h0A2.13,2.13,0,0,1,1057.14,15.6982Zm-8.45,0a2.1228,2.1228,0,0,1,2.12-2.13h0a2.1249,2.1249,0,0,1,2.13,2.13h0a2.1318,2.1318,0,0,1-2.13,2.13h0A2.13,2.13,0,0,1,1048.69,15.6982Zm-8.46,0a2.1312,2.1312,0,0,1,2.13-2.13h0a2.1312,2.1312,0,0,1,2.13,2.13h0a2.1381,2.1381,0,0,1-2.13,2.13h0A2.1381,2.1381,0,0,1,1040.2295,15.6982Zm-8.45,0a2.1249,2.1249,0,0,1,2.13-2.13h0a2.1222,2.1222,0,0,1,2.12,2.13h0a2.1291,2.1291,0,0,1-2.12,2.13h0A2.1318,2.1318,0,0,1,1031.7793,15.6982Zm-8.4492,0a2.1243,2.1243,0,0,1,2.13-2.13h0a2.1228,2.1228,0,0,1,2.12,2.13h0a2.13,2.13,0,0,1-2.12,2.13h0A2.1311,2.1311,0,0,1,1023.33,15.6982Zm-8.45,0a2.1228,2.1228,0,0,1,2.12-2.13h0a2.1249,2.1249,0,0,1,2.13,2.13h0a2.1318,2.1318,0,0,1-2.13,2.13h0A2.13,2.13,0,0,1,1014.88,15.6982Zm-8.45,0a2.1228,2.1228,0,0,1,2.12-2.13h0a2.1249,2.1249,0,0,1,2.13,2.13h0a2.1318,2.1318,0,0,1-2.13,2.13h0A2.13,2.13,0,0,1,1006.43,15.6982Zm-8.45,0a2.1228,2.1228,0,0,1,2.12-2.13h0a2.1249,2.1249,0,0,1,2.13,2.13h0a2.1318,2.1318,0,0,1-2.13,2.13h0A2.13,2.13,0,0,1,997.98,15.6982Zm-8.45,0a2.1228,2.1228,0,0,1,2.12-2.13h0a2.1312,2.1312,0,0,1,2.13,2.13h0a2.1381,2.1381,0,0,1-2.13,2.13h0A2.13,2.13,0,0,1,989.5293,15.6982Zm-8.46,0a2.1312,2.1312,0,0,1,2.13-2.13h0a2.1222,2.1222,0,0,1,2.12,2.13h0a2.1291,2.1291,0,0,1-2.12,2.13h0A2.1381,2.1381,0,0,1,981.0693,15.6982Zm-8.4492,0a2.1243,2.1243,0,0,1,2.13-2.13h0a2.1228,2.1228,0,0,1,2.12,2.13h0a2.13,2.13,0,0,1-2.12,2.13h0A2.1311,2.1311,0,0,1,972.62,15.6982Zm-8.45,0a2.1249,2.1249,0,0,1,2.13-2.13h0a2.1228,2.1228,0,0,1,2.12,2.13h0a2.13,2.13,0,0,1-2.12,2.13h0A2.1318,2.1318,0,0,1,964.17,15.6982Zm-8.45,0a2.1249,2.1249,0,0,1,2.13-2.13h0a2.1228,2.1228,0,0,1,2.12,2.13h0a2.13,2.13,0,0,1-2.12,2.13h0A2.1318,2.1318,0,0,1,955.72,15.6982Zm-8.45,0a2.1249,2.1249,0,0,1,2.13-2.13h0a2.1228,2.1228,0,0,1,2.12,2.13h0a2.13,2.13,0,0,1-2.12,2.13h0A2.1318,2.1318,0,0,1,947.27,15.6982Zm-8.45,0a2.1229,2.1229,0,0,1,2.12-2.13h0a2.1243,2.1243,0,0,1,2.13,2.13h0a2.1311,2.1311,0,0,1-2.13,2.13h0A2.13,2.13,0,0,1,938.8193,15.6982Zm-8.46,0a2.1311,2.1311,0,0,1,2.13-2.13h0a2.1251,2.1251,0,0,1,2.1308,2.13h0a2.132,2.132,0,0,1-2.1308,2.13h0A2.138,2.138,0,0,1,930.3594,15.6982Zm-8.45,0a2.1319,2.1319,0,0,1,2.1308-2.13h0a2.1311,2.1311,0,0,1,2.13,2.13h0a2.138,2.138,0,0,1-2.13,2.13h0A2.1389,2.1389,0,0,1,921.9092,15.6982Zm-8.4492,0a2.1243,2.1243,0,0,1,2.13-2.13h0a2.1229,2.1229,0,0,1,2.12,2.13h0a2.13,2.13,0,0,1-2.12,2.13h0A2.1311,2.1311,0,0,1,913.46,15.6982Zm-8.45,0a2.1249,2.1249,0,0,1,2.13-2.13h0a2.1229,2.1229,0,0,1,2.12,2.13h0a2.13,2.13,0,0,1-2.12,2.13h0A2.1317,2.1317,0,0,1,905.01,15.6982Zm-8.45,0a2.1249,2.1249,0,0,1,2.13-2.13h0a2.1228,2.1228,0,0,1,2.12,2.13h0a2.13,2.13,0,0,1-2.12,2.13h0A2.1318,2.1318,0,0,1,896.56,15.6982Zm-8.45,0a2.1249,2.1249,0,0,1,2.13-2.13h0a2.1228,2.1228,0,0,1,2.12,2.13h0a2.13,2.13,0,0,1-2.12,2.13h0A2.1318,2.1318,0,0,1,888.1094,15.6982Zm-8.45,0a2.1251,2.1251,0,0,1,2.1308-2.13h0a2.122,2.122,0,0,1,2.1192,2.13h0a2.1289,2.1289,0,0,1-2.1192,2.13h0A2.132,2.132,0,0,1,879.6592,15.6982Zm-8.4492,0a2.1222,2.1222,0,0,1,2.12-2.13h0a2.1249,2.1249,0,0,1,2.13,2.13h0a2.1318,2.1318,0,0,1-2.13,2.13h0A2.1291,2.1291,0,0,1,871.21,15.6982Zm-8.46,0a2.1312,2.1312,0,0,1,2.13-2.13h0a2.1312,2.1312,0,0,1,2.13,2.13h0a2.1381,2.1381,0,0,1-2.13,2.13h0A2.1381,2.1381,0,0,1,862.75,15.6982Zm-8.45,0a2.1249,2.1249,0,0,1,2.13-2.13h0a2.1312,2.1312,0,0,1,2.13,2.13h0a2.1381,2.1381,0,0,1-2.13,2.13h0A2.1318,2.1318,0,0,1,854.3,15.6982Zm-8.45,0a2.1249,2.1249,0,0,1,2.13-2.13h0a2.1228,2.1228,0,0,1,2.12,2.13h0a2.13,2.13,0,0,1-2.12,2.13h0A2.1318,2.1318,0,0,1,845.85,15.6982Zm-8.45,0a2.1249,2.1249,0,0,1,2.13-2.13h0a2.1228,2.1228,0,0,1,2.12,2.13h0a2.13,2.13,0,0,1-2.12,2.13h0A2.1318,2.1318,0,0,1,837.3994,15.6982Zm-8.45,0a2.1251,2.1251,0,0,1,2.1309-2.13h0a2.122,2.122,0,0,1,2.1191,2.13h0a2.1289,2.1289,0,0,1-2.1191,2.13h0A2.132,2.132,0,0,1,828.9492,15.6982Zm-8.4492,0a2.1243,2.1243,0,0,1,2.13-2.13h0a2.1228,2.1228,0,0,1,2.12,2.13h0a2.13,2.13,0,0,1-2.12,2.13h0A2.1311,2.1311,0,0,1,820.5,15.6982Zm-8.45,0a2.1249,2.1249,0,0,1,2.13-2.13h0a2.1228,2.1228,0,0,1,2.12,2.13h0a2.13,2.13,0,0,1-2.12,2.13h0A2.1318,2.1318,0,0,1,812.05,15.6982Zm-8.46,0a2.1312,2.1312,0,0,1,2.13-2.13h0a2.1249,2.1249,0,0,1,2.13,2.13h0a2.1318,2.1318,0,0,1-2.13,2.13h0A2.1381,2.1381,0,0,1,803.59,15.6982Zm-8.45,0a2.1312,2.1312,0,0,1,2.13-2.13h0a2.1311,2.1311,0,0,1,2.13,2.13h0a2.138,2.138,0,0,1-2.13,2.13h0A2.1381,2.1381,0,0,1,795.14,15.6982Zm-8.45,0a2.1248,2.1248,0,0,1,2.13-2.13h0a2.1229,2.1229,0,0,1,2.12,2.13h0a2.13,2.13,0,0,1-2.12,2.13h0A2.1317,2.1317,0,0,1,786.69,15.6982Zm-8.45,0a2.1251,2.1251,0,0,1,2.1308-2.13h0a2.1221,2.1221,0,0,1,2.1192,2.13h0a2.1289,2.1289,0,0,1-2.1192,2.13h0A2.132,2.132,0,0,1,778.2393,15.6982Zm-8.4493,0a2.1243,2.1243,0,0,1,2.13-2.13h0a2.1228,2.1228,0,0,1,2.12,2.13h0a2.13,2.13,0,0,1-2.12,2.13h0A2.1312,2.1312,0,0,1,769.79,15.6982Zm-8.45,0a2.1249,2.1249,0,0,1,2.13-2.13h0a2.1228,2.1228,0,0,1,2.12,2.13h0a2.13,2.13,0,0,1-2.12,2.13h0A2.1318,2.1318,0,0,1,761.34,15.6982Zm-8.45,0a2.1249,2.1249,0,0,1,2.13-2.13h0a2.1228,2.1228,0,0,1,2.12,2.13h0a2.13,2.13,0,0,1-2.12,2.13h0A2.1318,2.1318,0,0,1,752.89,15.6982Zm-8.45,0a2.1228,2.1228,0,0,1,2.12-2.13h0a2.1249,2.1249,0,0,1,2.13,2.13h0a2.1318,2.1318,0,0,1-2.13,2.13h0A2.13,2.13,0,0,1,744.44,15.6982Zm-8.46,0a2.1312,2.1312,0,0,1,2.13-2.13h0a2.1312,2.1312,0,0,1,2.13,2.13h0a2.1381,2.1381,0,0,1-2.13,2.13h0A2.1381,2.1381,0,0,1,735.98,15.6982Zm-8.45,0a2.1312,2.1312,0,0,1,2.13-2.13h0a2.1313,2.1313,0,0,1,2.1308,2.13h0a2.1382,2.1382,0,0,1-2.1308,2.13h0A2.1381,2.1381,0,0,1,727.5293,15.6982Zm-8.4492,0a2.1243,2.1243,0,0,1,2.13-2.13h0a2.1228,2.1228,0,0,1,2.12,2.13h0a2.13,2.13,0,0,1-2.12,2.13h0A2.1311,2.1311,0,0,1,719.08,15.6982Zm-8.45,0a2.1249,2.1249,0,0,1,2.13-2.13h0a2.1228,2.1228,0,0,1,2.12,2.13h0a2.13,2.13,0,0,1-2.12,2.13h0A2.1318,2.1318,0,0,1,710.63,15.6982Zm-8.45,0a2.1249,2.1249,0,0,1,2.13-2.13h0a2.1228,2.1228,0,0,1,2.12,2.13h0a2.13,2.13,0,0,1-2.12,2.13h0A2.1318,2.1318,0,0,1,702.18,15.6982Zm-8.45,0a2.1249,2.1249,0,0,1,2.13-2.13h0a2.1228,2.1228,0,0,1,2.12,2.13h0a2.13,2.13,0,0,1-2.12,2.13h0A2.1318,2.1318,0,0,1,693.73,15.6982Zm-8.45,0a2.1228,2.1228,0,0,1,2.12-2.13h0a2.1243,2.1243,0,0,1,2.13,2.13h0a2.1311,2.1311,0,0,1-2.13,2.13h0A2.13,2.13,0,0,1,685.2793,15.6982Zm-8.4492,0a2.122,2.122,0,0,1,2.1191-2.13h0a2.1251,2.1251,0,0,1,2.1309,2.13h0a2.132,2.132,0,0,1-2.1309,2.13h0A2.1289,2.1289,0,0,1,676.83,15.6982Zm-8.46,0a2.1312,2.1312,0,0,1,2.13-2.13h0a2.1312,2.1312,0,0,1,2.13,2.13h0a2.1381,2.1381,0,0,1-2.13,2.13h0A2.1381,2.1381,0,0,1,668.37,15.6982Zm-8.45,0a2.1312,2.1312,0,0,1,2.13-2.13h0a2.1312,2.1312,0,0,1,2.13,2.13h0a2.1381,2.1381,0,0,1-2.13,2.13h0A2.1381,2.1381,0,0,1,659.92,15.6982Zm-8.45,0a2.1249,2.1249,0,0,1,2.13-2.13h0a2.1228,2.1228,0,0,1,2.12,2.13h0a2.13,2.13,0,0,1-2.12,2.13h0A2.1318,2.1318,0,0,1,651.47,15.6982Z"/><path class="a" d="M645.1494,17.8281a2.2623,2.2623,0,0,1-.8193-.16,2.1665,2.1665,0,0,1-.6905-.47,1.5863,1.5863,0,0,1-.26-.32,1.89,1.89,0,0,1-.2-.37,2.57,2.57,0,0,1-.12-.39,1.9728,1.9728,0,0,1-.04-.42,3.03,3.03,0,0,1,.04-.42,2.1026,2.1026,0,0,1,.32-.7607,2.0643,2.0643,0,0,1,.26-.3194,2.12,2.12,0,0,1,.33-.2705,2.0663,2.0663,0,0,1,.36-.1894,1.48,1.48,0,0,1,.3994-.12,1.9178,1.9178,0,0,1,.83,0,1.39,1.39,0,0,1,.4.12,1.8188,1.8188,0,0,1,.6894.46,1.5544,1.5544,0,0,1,.26.3194,1.89,1.89,0,0,1,.2.37,2.5907,2.5907,0,0,1,.12.3906,2.2245,2.2245,0,0,1,0,.84,2.5818,2.5818,0,0,1-.12.39,2.634,2.634,0,0,1-.19.37,2.0749,2.0749,0,0,1-.27.32,2.1515,2.1515,0,0,1-.33.27,2.0271,2.0271,0,0,1-.3593.2,2.7176,2.7176,0,0,1-.4.12A2.7724,2.7724,0,0,1,645.1494,17.8281Z"/></svg>