<svg xmlns="http://www.w3.org/2000/svg" viewBox="0 0 1171.2598 26.4746"><defs><style>.a{fill:#6e3a3a;}</style></defs><path class="a" d="M532.4521,26.1064a1.6464,1.6464,0,0,1-1.6162-1.6162V2.2676a1.5013,1.5013,0,0,1,.4825-1.12A1.5724,1.5724,0,0,1,532.4521.68h8.7022a1.5268,1.5268,0,0,1,1.1191.4678,1.524,1.524,0,0,1,.4678,1.12v8.3613a1.5744,1.5744,0,0,1-.4678,1.1348,1.507,1.507,0,0,1-1.1191.4814h-5.7549a.2253.2253,0,0,0-.2549.2549V24.49a1.6444,1.6444,0,0,1-1.6152,1.6162Zm2.6924-21.8837v.7656a.226.226,0,0,0,.2549.2558h3.6856a.2259.2259,0,0,0,.2548-.2558V4.2227a.2252.2252,0,0,0-.2548-.2549h-3.6856A.2253.2253,0,0,0,535.1445,4.2227Zm0,4.082V9.07a.2253.2253,0,0,0,.2549.2549h3.6856A.2253.2253,0,0,0,539.34,9.07V8.3047c0-.15-.0849-.2266-.2548-.2266h-3.6856C535.23,8.0781,535.1445,8.1543,535.1445,8.3047Zm11.084,17.0644a1.5757,1.5757,0,0,1-1.1338-.4668,1.5047,1.5047,0,0,1-.4824-1.12V20.834c0-.15-.085-.2266-.2549-.2266H542.458a.2676.2676,0,0,0-.2832.2266,8.8608,8.8608,0,0,1-2.126,3.8828,1.8391,1.8391,0,0,1-1.19.582,1.947,1.947,0,0,1-1.3047-.3261l-.3682-.2266a1.1139,1.1139,0,0,1-.5527-.9219,1.2734,1.2734,0,0,1,.3828-1.0342,6.8788,6.8788,0,0,0,1.417-1.9843.1283.1283,0,0,0-.0283-.1416.1954.1954,0,0,0-.1416-.0567H537.64a1.281,1.281,0,0,1-.9355-.3965,1.3112,1.3112,0,0,1-.3975-.9648,1.3079,1.3079,0,0,1,1.333-1.332h1.0489a.2253.2253,0,0,0,.2549-.2549V16.4971c0-.1514-.085-.2276-.2549-.2276h-.6807a1.2916,1.2916,0,0,1-.9639-.41,1.3579,1.3579,0,0,1-.3964-.9785,1.3553,1.3553,0,0,1,1.36-1.36h10.97a1.3572,1.3572,0,0,1,1.3614,1.36,1.3585,1.3585,0,0,1-.3975.9785,1.2913,1.2913,0,0,1-.9639.41h-.4531a.2007.2007,0,0,0-.2265.2276v1.1621c0,.17.0751.2549.2265.2549h.8223a1.3072,1.3072,0,0,1,.9355.3828,1.27,1.27,0,0,1,.3965.9492,1.3176,1.3176,0,0,1-.3965.9648,1.2855,1.2855,0,0,1-.9355.3965h-.8223a.2.2,0,0,0-.2265.2266v2.0127a.0671.0671,0,0,0,.0566.0713.0692.0692,0,0,0,.085-.043,1.3583,1.3583,0,0,1,1.2187-.5391q.482.0294.9922.0293a2.34,2.34,0,0,0,1.1055-.1425q.17-.1407.17-.9922V12.5a.2253.2253,0,0,0-.2549-.2549h-6.0381a1.507,1.507,0,0,1-1.1191-.4814,1.5744,1.5744,0,0,1-.4678-1.1348V2.2676a1.524,1.524,0,0,1,.4678-1.12A1.5268,1.5268,0,0,1,545.6328.68h8.9863a1.5773,1.5773,0,0,1,1.1338.4678,1.5077,1.5077,0,0,1,.4815,1.12V20.9189q0,1.3053-.042,2.0411a5.9652,5.9652,0,0,1-.2412,1.39,2.3821,2.3821,0,0,1-.4678.9346,2.1145,2.1145,0,0,1-.8926.4814,5.4189,5.4189,0,0,1-1.3047.2422q-.68.0411-1.8984.042c-.5488,0-1.0488-.01-1.5029-.0283a1.7766,1.7766,0,0,1-1.0625-.4111,1.7464,1.7464,0,0,1-.6094-.9776.1266.1266,0,0,0-.0713-.0713c-.0283-.01-.0527.0049-.0713.042a1.5447,1.5447,0,0,1-1.3887.7656Zm-1.8711-7.455a.2253.2253,0,0,0,.2549-.2549V16.4971c0-.1514-.085-.2276-.2549-.2276h-1.6162a.2007.2007,0,0,0-.2266.2276v1.19a.2.2,0,0,0,.2266.2266Zm3.09-13.6914v.7656a.2259.2259,0,0,0,.2548.2558h3.9688a.226.226,0,0,0,.2549-.2558V4.2227a.2253.2253,0,0,0-.2549-.2549h-3.9688A.2252.2252,0,0,0,547.4473,4.2227Zm4.2236,5.1025a.2253.2253,0,0,0,.2549-.2549V8.3047c0-.15-.085-.2266-.2549-.2266h-3.9688c-.17,0-.2548.0762-.2548.2266V9.07a.2253.2253,0,0,0,.2548.2549Z"/><path class="a" d="M567.0625,15.6465l-.3975-2.3242a4.21,4.21,0,0,1,.5957-2.92,29.86,29.86,0,0,0,3.2032-8.6738A1.6519,1.6519,0,0,1,572.3633.4531l.9922.17a1.6082,1.6082,0,0,1,1.02.68,1.566,1.566,0,0,1,.2549,1.1914A32.9835,32.9835,0,0,1,573.582,6.49a1.5352,1.5352,0,0,0-.0849.4825V15.25c0,.02.0185.0283.0566.0283a.1135.1135,0,0,0,.085-.0283,48.7729,48.7729,0,0,0,2.9765-7.6543c.0371-.1133-.01-.17-.1416-.17a1.2571,1.2571,0,0,1-1.247-1.2471V2.6357a1.5507,1.5507,0,0,1,.4814-1.1337,1.552,1.552,0,0,1,1.1338-.4825h.6523a1.5535,1.5535,0,0,1,1.1338.4825,1.5508,1.5508,0,0,1,.4815,1.1337V3.8262c0,.17.0752.2549.2265.2549h2.4385c.15,0,.2266-.085.2266-.2549V1.87a1.5525,1.5525,0,0,1,.4814-1.1338,1.5519,1.5519,0,0,1,1.1338-.4824h1.1914a1.5063,1.5063,0,0,1,1.1192.4824,1.5777,1.5777,0,0,1,.4677,1.1338V3.8262a.2253.2253,0,0,0,.2549.2549h2.41a.2253.2253,0,0,0,.2549-.2549v-1.19a1.5507,1.5507,0,0,1,.4814-1.1337A1.552,1.552,0,0,1,590.93,1.02h.6523a1.552,1.552,0,0,1,1.1338.4825,1.5508,1.5508,0,0,1,.4815,1.1337V5.8105a1.6448,1.6448,0,0,1-1.6153,1.6153h-5.5273a.08.08,0,0,1-.0283.0566l1.87.3692a1.2264,1.2264,0,0,1,.7939.5527,1.071,1.071,0,0,1,.1416.9209c-.0381.0947.01.1416.1416.1416h2.9483a1.5066,1.5066,0,0,1,1.12.4824,1.5762,1.5762,0,0,1,.4678,1.1338v.1133a1.5762,1.5762,0,0,1-.4678,1.1338,1.5033,1.5033,0,0,1-1.12.4824h-3.628a.2.2,0,0,0-.2265.2266v.68c0,.17.0752.2558.2265.2558h3.2032a1.26,1.26,0,0,1,1.3037,1.3037,1.289,1.289,0,0,1-.3828.9492,1.2568,1.2568,0,0,1-.9209.3829h-3.2032c-.1513,0-.2265.0849-.2265.2548v.6524c0,.17.0752.2549.2265.2549h3.2032a1.2567,1.2567,0,0,1,.9209.3828,1.3533,1.3533,0,0,1,.0146,1.8711,1.2443,1.2443,0,0,1-.9355.3818h-3.2032c-.1513,0-.2265.0859-.2265.2559v.68a.2.2,0,0,0,.2265.2265h3.9122a1.51,1.51,0,0,1,1.1191.4824,1.5786,1.5786,0,0,1,.4678,1.1348v.3105a1.5784,1.5784,0,0,1-.4678,1.1348,1.5089,1.5089,0,0,1-1.1191.4815h-12.02a.1249.1249,0,0,0-.1416.1416.8834.8834,0,0,1-.2832.666.9211.9211,0,0,1-.6523.27h-1.9561a1.5759,1.5759,0,0,1-1.1338-.4678,1.5039,1.5039,0,0,1-.4814-1.12V19.02a.3329.3329,0,0,0-.1983-.34l-1.333-.6524a1.259,1.259,0,0,1-.34-.2265c-.0186-.0371-.0518-.0469-.1-.0283a.0926.0926,0,0,0-.07.0849v6.7188a1.5739,1.5739,0,0,1-.4678,1.1328,1.5032,1.5032,0,0,1-1.12.4824h-.9639a1.6463,1.6463,0,0,1-1.6152-1.6152V14.7109c0-.0371-.0147-.0566-.043-.0566a.096.096,0,0,0-.07.0283q-.3692.5962-.8789,1.3037a.6584.6584,0,0,1-.7373.2559A.6841.6841,0,0,1,567.0625,15.6465Zm10.998-8.2207a.0256.0256,0,0,0-.0283.0293.0246.0246,0,0,0,.0283.0273l1.9278.3692a1.19,1.19,0,0,1,.7793.539,1.0635,1.0635,0,0,1,.1279.9063c-.0381.1328.0088.1992.1416.1992H583.9a.2854.2854,0,0,0,.3115-.2275q.1979-.7662.4248-1.6163c.0381-.15-.0283-.2265-.1982-.2265Zm5.6983,6.293v-.6524c0-.17-.0762-.2539-.2276-.2539H580.3a.2246.2246,0,0,0-.2549.2539v.6524a.226.226,0,0,0,.2549.2558h3.2314C583.6826,13.9746,583.7588,13.8887,583.7588,13.7188Zm0,3.7988v-.6524c0-.17-.0762-.2548-.2276-.2548H580.3a.2253.2253,0,0,0-.2549.2548v.6524a.2253.2253,0,0,0,.2549.2549h3.2314C583.6826,17.7725,583.7588,17.6875,583.7588,17.5176Zm0,3.8262v-.68c0-.17-.0762-.2559-.2276-.2559H580.3a.226.226,0,0,0-.2549.2559v.68c0,.1523.085.2265.2549.2265h3.2314A.2.2,0,0,0,583.7588,21.3438Z"/><path class="a" d="M606.0674,19.7852a1.6464,1.6464,0,0,1-1.6162-1.6153V6.0938a1.5036,1.5036,0,0,1,.4814-1.1192,1.5736,1.5736,0,0,1,1.1348-.4687h8.1064c.1514,0,.2266-.084.2266-.2539V1.6152a1.5521,1.5521,0,0,1,.4824-1.1338A1.5513,1.5513,0,0,1,616.0166,0h1.417a1.5513,1.5513,0,0,1,1.1338.4814,1.5521,1.5521,0,0,1,.4824,1.1338V4.252c0,.17.0752.2539.2266.2539h8.1074a1.5988,1.5988,0,0,1,1.5869,1.5879V18.17a1.5682,1.5682,0,0,1-.4678,1.1328,1.5007,1.5007,0,0,1-1.1191.4825h-1.3613a1.2528,1.2528,0,0,1-.9209-.3829,1.2888,1.2888,0,0,1-.3828-.9492c0-.1133-.0665-.17-.1983-.17h-5.2441a.2.2,0,0,0-.2266.2266v6.35a1.6463,1.6463,0,0,1-1.6162,1.6152h-1.417A1.6463,1.6463,0,0,1,614.4,24.8594V18.51a.2.2,0,0,0-.2266-.2266H608.93c-.1318,0-.1983.0566-.1983.17a1.2888,1.2888,0,0,1-.3828.9492,1.2528,1.2528,0,0,1-.9209.3829Zm2.664-11.254v5.8116a.2253.2253,0,0,0,.2549.2549h5.1875c.1514,0,.2266-.085.2266-.2549V8.5312a.2.2,0,0,0-.2266-.2265h-5.1875C608.8164,8.3047,608.7314,8.3809,608.7314,8.5312Zm15.7325-.2265h-5.1875a.2.2,0,0,0-.2266.2265v5.8116c0,.17.0752.2549.2266.2549h5.1875a.2253.2253,0,0,0,.2549-.2549V8.5312C624.7188,8.3809,624.6338,8.3047,624.4639,8.3047Z"/><path class="a" d="M515.1094,17.8213a2.0466,2.0466,0,0,1-.81-.16,2.1469,2.1469,0,0,1-.69-.46,2.1107,2.1107,0,0,1-.62-1.51,2.1616,2.1616,0,0,1,.62-1.5,3.9172,3.9172,0,0,1,.32-.26,2.615,2.615,0,0,1,.37-.2,2.7048,2.7048,0,0,1,.3994-.12,2.1193,2.1193,0,0,1,2.54,2.08,2.0766,2.0766,0,0,1-.63,1.51,1.3529,1.3529,0,0,1-.3194.26,1.8181,1.8181,0,0,1-.36.2,2.67,2.67,0,0,1-.4.12A1.9076,1.9076,0,0,1,515.1094,17.8213Z"/><path class="a" d="M504.44,15.6914a2.1213,2.1213,0,0,1,2.12-2.12h0a2.1235,2.1235,0,0,1,2.13,2.12h0a2.1256,2.1256,0,0,1-2.13,2.13h0A2.1234,2.1234,0,0,1,504.44,15.6914Zm-8.55,0a2.1214,2.1214,0,0,1,2.12-2.12h0a2.1234,2.1234,0,0,1,2.13,2.12h0a2.1255,2.1255,0,0,1-2.13,2.13h0A2.1235,2.1235,0,0,1,495.89,15.6914Zm-8.55,0a2.1214,2.1214,0,0,1,2.12-2.12h0a2.1235,2.1235,0,0,1,2.13,2.12h0a2.1256,2.1256,0,0,1-2.13,2.13h0A2.1235,2.1235,0,0,1,487.34,15.6914Zm-8.55,0a2.1208,2.1208,0,0,1,2.12-2.12h0a2.1235,2.1235,0,0,1,2.13,2.12h0a2.1256,2.1256,0,0,1-2.13,2.13h0A2.1229,2.1229,0,0,1,478.79,15.6914Zm-8.5507,0a2.1214,2.1214,0,0,1,2.12-2.12h0a2.1229,2.1229,0,0,1,2.13,2.12h0a2.125,2.125,0,0,1-2.13,2.13h0A2.1235,2.1235,0,0,1,470.2393,15.6914Zm-8.55,0a2.1213,2.1213,0,0,1,2.12-2.12h0a2.1235,2.1235,0,0,1,2.13,2.12h0a2.1256,2.1256,0,0,1-2.13,2.13h0A2.1234,2.1234,0,0,1,461.69,15.6914Zm-8.55,0a2.1214,2.1214,0,0,1,2.12-2.12h0a2.1234,2.1234,0,0,1,2.13,2.12h0a2.1255,2.1255,0,0,1-2.13,2.13h0A2.1235,2.1235,0,0,1,453.14,15.6914Zm-8.55,0a2.1214,2.1214,0,0,1,2.12-2.12h0a2.1235,2.1235,0,0,1,2.13,2.12h0a2.1256,2.1256,0,0,1-2.13,2.13h0A2.1235,2.1235,0,0,1,444.59,15.6914Zm-8.55,0a2.1229,2.1229,0,0,1,2.13-2.12h0a2.1214,2.1214,0,0,1,2.12,2.12h0a2.1235,2.1235,0,0,1-2.12,2.13h0A2.125,2.125,0,0,1,436.04,15.6914Zm-8.5507,0a2.1237,2.1237,0,0,1,2.1308-2.12h0a2.1206,2.1206,0,0,1,2.1192,2.12h0a2.1227,2.1227,0,0,1-2.1192,2.13h0A2.1258,2.1258,0,0,1,427.4893,15.6914Zm-8.55,0a2.1234,2.1234,0,0,1,2.13-2.12h0a2.1214,2.1214,0,0,1,2.12,2.12h0a2.1235,2.1235,0,0,1-2.12,2.13h0A2.1255,2.1255,0,0,1,418.94,15.6914Zm-8.55,0a2.1235,2.1235,0,0,1,2.13-2.12h0a2.1213,2.1213,0,0,1,2.12,2.12h0a2.1234,2.1234,0,0,1-2.12,2.13h0A2.1256,2.1256,0,0,1,410.39,15.6914Zm-8.55,0a2.1235,2.1235,0,0,1,2.13-2.12h0a2.1214,2.1214,0,0,1,2.12,2.12h0a2.1235,2.1235,0,0,1-2.12,2.13h0A2.1256,2.1256,0,0,1,401.84,15.6914Zm-8.55,0a2.1229,2.1229,0,0,1,2.13-2.12h0a2.1214,2.1214,0,0,1,2.12,2.12h0a2.1235,2.1235,0,0,1-2.12,2.13h0A2.125,2.125,0,0,1,393.29,15.6914Zm-8.5507,0a2.1237,2.1237,0,0,1,2.1308-2.12h0a2.1206,2.1206,0,0,1,2.1192,2.12h0a2.1227,2.1227,0,0,1-2.1192,2.13h0A2.1258,2.1258,0,0,1,384.7393,15.6914Zm-8.55,0a2.1234,2.1234,0,0,1,2.13-2.12h0a2.1214,2.1214,0,0,1,2.12,2.12h0a2.1235,2.1235,0,0,1-2.12,2.13h0A2.1255,2.1255,0,0,1,376.19,15.6914Zm-8.55,0a2.1235,2.1235,0,0,1,2.13-2.12h0a2.1213,2.1213,0,0,1,2.12,2.12h0a2.1234,2.1234,0,0,1-2.12,2.13h0A2.1256,2.1256,0,0,1,367.64,15.6914Zm-8.55,0a2.1235,2.1235,0,0,1,2.13-2.12h0a2.1214,2.1214,0,0,1,2.12,2.12h0a2.1235,2.1235,0,0,1-2.12,2.13h0A2.1256,2.1256,0,0,1,359.09,15.6914Zm-8.55,0a2.1229,2.1229,0,0,1,2.13-2.12h0a2.1214,2.1214,0,0,1,2.12,2.12h0a2.1235,2.1235,0,0,1-2.12,2.13h0A2.125,2.125,0,0,1,350.54,15.6914Zm-8.5507,0a2.1237,2.1237,0,0,1,2.1308-2.12h0a2.1206,2.1206,0,0,1,2.1192,2.12h0a2.1227,2.1227,0,0,1-2.1192,2.13h0A2.1258,2.1258,0,0,1,341.9893,15.6914Zm-8.55,0a2.1234,2.1234,0,0,1,2.13-2.12h0a2.13,2.13,0,0,1,2.13,2.12h0a2.1318,2.1318,0,0,1-2.13,2.13h0A2.1255,2.1255,0,0,1,333.44,15.6914Zm-8.55,0a2.1235,2.1235,0,0,1,2.13-2.12h0a2.1213,2.1213,0,0,1,2.12,2.12h0a2.1234,2.1234,0,0,1-2.12,2.13h0A2.1256,2.1256,0,0,1,324.89,15.6914Zm-8.55,0a2.1235,2.1235,0,0,1,2.13-2.12h0a2.1214,2.1214,0,0,1,2.12,2.12h0a2.1235,2.1235,0,0,1-2.12,2.13h0A2.1256,2.1256,0,0,1,316.34,15.6914Zm-8.55,0a2.1229,2.1229,0,0,1,2.13-2.12h0a2.1235,2.1235,0,0,1,2.13,2.12h0a2.1256,2.1256,0,0,1-2.13,2.13h0A2.125,2.125,0,0,1,307.79,15.6914Zm-8.5507,0a2.1237,2.1237,0,0,1,2.1308-2.12h0a2.13,2.13,0,0,1,2.13,2.12h0a2.1318,2.1318,0,0,1-2.13,2.13h0A2.1258,2.1258,0,0,1,299.2393,15.6914Zm-8.55,0a2.13,2.13,0,0,1,2.13-2.12h0a2.13,2.13,0,0,1,2.13,2.12h0a2.1318,2.1318,0,0,1-2.13,2.13h0A2.1317,2.1317,0,0,1,290.69,15.6914Zm-8.55,0a2.13,2.13,0,0,1,2.13-2.12h0a2.13,2.13,0,0,1,2.13,2.12h0a2.1318,2.1318,0,0,1-2.13,2.13h0A2.1318,2.1318,0,0,1,282.14,15.6914Zm-8.55,0a2.1235,2.1235,0,0,1,2.13-2.12h0a2.1235,2.1235,0,0,1,2.13,2.12h0a2.1256,2.1256,0,0,1-2.13,2.13h0A2.1256,2.1256,0,0,1,273.59,15.6914Zm-8.54,0a2.1214,2.1214,0,0,1,2.12-2.12h0a2.13,2.13,0,0,1,2.13,2.12h0a2.1318,2.1318,0,0,1-2.13,2.13h0A2.1235,2.1235,0,0,1,265.05,15.6914Zm-8.56,0a2.13,2.13,0,0,1,2.1308-2.12h0a2.13,2.13,0,0,1,2.13,2.12h0a2.1318,2.1318,0,0,1-2.13,2.13h0A2.132,2.132,0,0,1,256.4893,15.6914Zm-8.55,0a2.13,2.13,0,0,1,2.13-2.12h0a2.1229,2.1229,0,0,1,2.13,2.12h0a2.1249,2.1249,0,0,1-2.13,2.13h0A2.1317,2.1317,0,0,1,247.94,15.6914Zm-8.54,0a2.1214,2.1214,0,0,1,2.12-2.12h0a2.1235,2.1235,0,0,1,2.13,2.12h0a2.1256,2.1256,0,0,1-2.13,2.13h0A2.1235,2.1235,0,0,1,239.3994,15.6914Zm-8.55,0a2.1214,2.1214,0,0,1,2.12-2.12h0a2.13,2.13,0,0,1,2.13,2.12h0a2.1318,2.1318,0,0,1-2.13,2.13h0A2.1235,2.1235,0,0,1,230.85,15.6914Zm-8.56,0a2.13,2.13,0,0,1,2.13-2.12h0a2.1235,2.1235,0,0,1,2.13,2.12h0a2.1256,2.1256,0,0,1-2.13,2.13h0A2.1318,2.1318,0,0,1,222.29,15.6914Zm-8.54,0a2.1207,2.1207,0,0,1,2.12-2.12h0a2.1235,2.1235,0,0,1,2.13,2.12h0a2.1256,2.1256,0,0,1-2.13,2.13h0A2.1229,2.1229,0,0,1,213.75,15.6914Zm-8.5508,0a2.1214,2.1214,0,0,1,2.12-2.12h0a2.1229,2.1229,0,0,1,2.13,2.12h0a2.1249,2.1249,0,0,1-2.13,2.13h0A2.1235,2.1235,0,0,1,205.1992,15.6914Zm-8.55,0a2.1235,2.1235,0,0,1,2.13-2.12h0a2.1214,2.1214,0,0,1,2.12,2.12h0a2.1235,2.1235,0,0,1-2.12,2.13h0A2.1256,2.1256,0,0,1,196.6494,15.6914Zm-8.55,0a2.1214,2.1214,0,0,1,2.12-2.12h0a2.1235,2.1235,0,0,1,2.13,2.12h0a2.1256,2.1256,0,0,1-2.13,2.13h0A2.1235,2.1235,0,0,1,188.1,15.6914Zm-8.55,0a2.1214,2.1214,0,0,1,2.12-2.12h0a2.1235,2.1235,0,0,1,2.13,2.12h0a2.1256,2.1256,0,0,1-2.13,2.13h0A2.1235,2.1235,0,0,1,179.55,15.6914Zm-8.55,0a2.1207,2.1207,0,0,1,2.12-2.12h0a2.1235,2.1235,0,0,1,2.13,2.12h0a2.1256,2.1256,0,0,1-2.13,2.13h0A2.1229,2.1229,0,0,1,171,15.6914Zm-8.5508,0a2.1214,2.1214,0,0,1,2.12-2.12h0a2.1229,2.1229,0,0,1,2.13,2.12h0a2.1249,2.1249,0,0,1-2.13,2.13h0A2.1235,2.1235,0,0,1,162.4492,15.6914Zm-8.55,0a2.1214,2.1214,0,0,1,2.12-2.12h0a2.1235,2.1235,0,0,1,2.13,2.12h0a2.1256,2.1256,0,0,1-2.13,2.13h0A2.1235,2.1235,0,0,1,153.8994,15.6914Zm-8.55,0a2.1214,2.1214,0,0,1,2.12-2.12h0a2.1235,2.1235,0,0,1,2.13,2.12h0a2.1256,2.1256,0,0,1-2.13,2.13h0A2.1235,2.1235,0,0,1,145.35,15.6914Zm-8.55,0a2.1235,2.1235,0,0,1,2.13-2.12h0a2.1214,2.1214,0,0,1,2.12,2.12h0a2.1235,2.1235,0,0,1-2.12,2.13h0A2.1256,2.1256,0,0,1,136.8,15.6914Zm-8.55,0a2.1229,2.1229,0,0,1,2.13-2.12h0a2.1214,2.1214,0,0,1,2.12,2.12h0a2.1235,2.1235,0,0,1-2.12,2.13h0A2.1249,2.1249,0,0,1,128.25,15.6914Zm-8.5508,0a2.1237,2.1237,0,0,1,2.1309-2.12h0a2.1205,2.1205,0,0,1,2.1191,2.12h0a2.1226,2.1226,0,0,1-2.1191,2.13h0A2.1258,2.1258,0,0,1,119.6992,15.6914Zm-8.55,0a2.1235,2.1235,0,0,1,2.13-2.12h0a2.1214,2.1214,0,0,1,2.12,2.12h0a2.1235,2.1235,0,0,1-2.12,2.13h0A2.1256,2.1256,0,0,1,111.1494,15.6914Zm-8.55,0a2.1235,2.1235,0,0,1,2.13-2.12h0a2.1214,2.1214,0,0,1,2.12,2.12h0a2.1235,2.1235,0,0,1-2.12,2.13h0A2.1256,2.1256,0,0,1,102.6,15.6914Zm-8.55,0a2.1235,2.1235,0,0,1,2.13-2.12h0a2.1214,2.1214,0,0,1,2.12,2.12h0a2.1235,2.1235,0,0,1-2.12,2.13h0A2.1256,2.1256,0,0,1,94.05,15.6914Zm-8.55,0a2.1229,2.1229,0,0,1,2.13-2.12h0a2.1214,2.1214,0,0,1,2.12,2.12h0a2.1235,2.1235,0,0,1-2.12,2.13h0A2.1249,2.1249,0,0,1,85.5,15.6914Zm-8.5508,0a2.1237,2.1237,0,0,1,2.1309-2.12h0a2.1205,2.1205,0,0,1,2.1191,2.12h0a2.1226,2.1226,0,0,1-2.1191,2.13h0A2.1258,2.1258,0,0,1,76.9492,15.6914Zm-8.55,0a2.1235,2.1235,0,0,1,2.13-2.12h0a2.1214,2.1214,0,0,1,2.12,2.12h0a2.1235,2.1235,0,0,1-2.12,2.13h0A2.1256,2.1256,0,0,1,68.3994,15.6914Zm-8.55,0a2.1235,2.1235,0,0,1,2.13-2.12h0a2.1214,2.1214,0,0,1,2.12,2.12h0a2.1235,2.1235,0,0,1-2.12,2.13h0A2.1256,2.1256,0,0,1,59.85,15.6914Zm-8.55,0a2.1235,2.1235,0,0,1,2.13-2.12h0a2.1214,2.1214,0,0,1,2.12,2.12h0a2.1235,2.1235,0,0,1-2.12,2.13h0A2.1256,2.1256,0,0,1,51.3,15.6914Zm-8.55,0a2.1229,2.1229,0,0,1,2.13-2.12h0a2.1214,2.1214,0,0,1,2.12,2.12h0a2.1235,2.1235,0,0,1-2.12,2.13h0A2.1249,2.1249,0,0,1,42.75,15.6914Zm-8.5508,0a2.1237,2.1237,0,0,1,2.1309-2.12h0a2.1205,2.1205,0,0,1,2.1191,2.12h0a2.1226,2.1226,0,0,1-2.1191,2.13h0A2.1258,2.1258,0,0,1,34.1992,15.6914Zm-8.55,0a2.1235,2.1235,0,0,1,2.13-2.12h0a2.1306,2.1306,0,0,1,2.1309,2.12h0a2.1327,2.1327,0,0,1-2.1309,2.13h0A2.1256,2.1256,0,0,1,25.6494,15.6914Zm-8.55,0a2.13,2.13,0,0,1,2.13-2.12h0a2.13,2.13,0,0,1,2.13,2.12h0a2.1318,2.1318,0,0,1-2.13,2.13h0A2.1318,2.1318,0,0,1,17.1,15.6914Zm-8.55,0a2.13,2.13,0,0,1,2.13-2.12h0a2.1214,2.1214,0,0,1,2.12,2.12h0a2.1235,2.1235,0,0,1-2.12,2.13h0A2.1318,2.1318,0,0,1,8.55,15.6914Z"/><path class="a" d="M2.13,17.8213a2.0145,2.0145,0,0,1-.8106-.16,2.1437,2.1437,0,0,1-.6894-.46,2.11,2.11,0,0,1-.27-.33,2.0274,2.0274,0,0,1-.1992-.36,2.4782,2.4782,0,0,1-.12-.3994,2.6549,2.6549,0,0,1-.04-.41,2.9112,2.9112,0,0,1,.04-.42,1.8115,1.8115,0,0,1,.13-.4,1.8423,1.8423,0,0,1,.19-.37A2.6679,2.6679,0,0,1,.63,14.1914a1.331,1.331,0,0,1,.3193-.26,2.62,2.62,0,0,1,.37-.2,2.7176,2.7176,0,0,1,.4-.12,2.3246,2.3246,0,0,1,.83,0,2.583,2.583,0,0,1,.39.12,2.62,2.62,0,0,1,.37.2,1.3188,1.3188,0,0,1,.32.26,2.7542,2.7542,0,0,1,.2695.3193,2.5528,2.5528,0,0,1,.19.37,1.9109,1.9109,0,0,1,.13.4,3.0447,3.0447,0,0,1,.04.42,2.7707,2.7707,0,0,1-.04.41,2.6857,2.6857,0,0,1-.12.3994,2.0373,2.0373,0,0,1-.2.36,2.1617,2.1617,0,0,1-.2695.33,1.9166,1.9166,0,0,1-.32.26,1.8933,1.8933,0,0,1-.37.2,2.5716,2.5716,0,0,1-.39.12A1.9719,1.9719,0,0,1,2.13,17.8213Z"/><path class="a" d="M1169.13,17.8213a2.0989,2.0989,0,0,1-1.5-.62,2.6,2.6,0,0,1-.27-.32,2.6482,2.6482,0,0,1-.2-.37,2.5807,2.5807,0,0,1-.1192-.3994,2.6549,2.6549,0,0,1-.04-.41,2.15,2.15,0,0,1,.63-1.51,2.195,2.195,0,0,1,3,0,2.1539,2.1539,0,0,1,.63,1.51,2.7707,2.7707,0,0,1-.04.41,2.6857,2.6857,0,0,1-.12.3994,2.5579,2.5579,0,0,1-.2.37,2.682,2.682,0,0,1-.27.32,2.148,2.148,0,0,1-.69.46A2.0131,2.0131,0,0,1,1169.13,17.8213Z"/><path class="a" d="M1158.55,15.7012a2.1256,2.1256,0,0,1,2.13-2.13h0a2.1318,2.1318,0,0,1,2.13,2.13h0a2.13,2.13,0,0,1-2.13,2.12h0A2.1235,2.1235,0,0,1,1158.55,15.7012Zm-8.45,0a2.1256,2.1256,0,0,1,2.13-2.13h0a2.1235,2.1235,0,0,1,2.12,2.13h0a2.1214,2.1214,0,0,1-2.12,2.12h0A2.1235,2.1235,0,0,1,1150.1,15.7012Zm-8.45,0a2.1256,2.1256,0,0,1,2.13-2.13h0a2.1235,2.1235,0,0,1,2.12,2.13h0a2.1214,2.1214,0,0,1-2.12,2.12h0A2.1235,2.1235,0,0,1,1141.6494,15.7012Zm-8.45,0a2.1235,2.1235,0,0,1,2.12-2.13h0a2.1249,2.1249,0,0,1,2.13,2.13h0a2.1229,2.1229,0,0,1-2.13,2.12h0A2.1214,2.1214,0,0,1,1133.1992,15.7012Zm-8.4492,0a2.1229,2.1229,0,0,1,2.12-2.13h0a2.1256,2.1256,0,0,1,2.13,2.13h0a2.1235,2.1235,0,0,1-2.13,2.12h0A2.1207,2.1207,0,0,1,1124.75,15.7012Zm-8.45,0a2.1235,2.1235,0,0,1,2.12-2.13h0a2.1256,2.1256,0,0,1,2.13,2.13h0a2.1235,2.1235,0,0,1-2.13,2.12h0A2.1214,2.1214,0,0,1,1116.3,15.7012Zm-8.46,0a2.1318,2.1318,0,0,1,2.13-2.13h0a2.1318,2.1318,0,0,1,2.13,2.13h0a2.13,2.13,0,0,1-2.13,2.12h0A2.13,2.13,0,0,1,1107.84,15.7012Zm-8.45,0a2.1318,2.1318,0,0,1,2.13-2.13h0a2.1318,2.1318,0,0,1,2.13,2.13h0a2.13,2.13,0,0,1-2.13,2.12h0A2.13,2.13,0,0,1,1099.39,15.7012Zm-8.45,0a2.1255,2.1255,0,0,1,2.13-2.13h0a2.1235,2.1235,0,0,1,2.12,2.13h0a2.1214,2.1214,0,0,1-2.12,2.12h0A2.1234,2.1234,0,0,1,1090.94,15.7012Zm-8.45,0a2.1258,2.1258,0,0,1,2.1308-2.13h0a2.1227,2.1227,0,0,1,2.1192,2.13h0a2.1206,2.1206,0,0,1-2.1192,2.12h0A2.1237,2.1237,0,0,1,1082.4893,15.7012Zm-8.4493,0a2.125,2.125,0,0,1,2.13-2.13h0a2.1235,2.1235,0,0,1,2.12,2.13h0a2.1214,2.1214,0,0,1-2.12,2.12h0A2.1229,2.1229,0,0,1,1074.04,15.7012Zm-8.45,0a2.1235,2.1235,0,0,1,2.12-2.13h0a2.1256,2.1256,0,0,1,2.13,2.13h0a2.1235,2.1235,0,0,1-2.13,2.12h0A2.1214,2.1214,0,0,1,1065.59,15.7012Zm-8.45,0a2.1235,2.1235,0,0,1,2.12-2.13h0a2.1255,2.1255,0,0,1,2.13,2.13h0a2.1234,2.1234,0,0,1-2.13,2.12h0A2.1214,2.1214,0,0,1,1057.14,15.7012Zm-8.45,0a2.1234,2.1234,0,0,1,2.12-2.13h0a2.1256,2.1256,0,0,1,2.13,2.13h0a2.1235,2.1235,0,0,1-2.13,2.12h0A2.1213,2.1213,0,0,1,1048.69,15.7012Zm-8.46,0a2.1318,2.1318,0,0,1,2.13-2.13h0a2.1318,2.1318,0,0,1,2.13,2.13h0a2.13,2.13,0,0,1-2.13,2.12h0A2.13,2.13,0,0,1,1040.2295,15.7012Zm-8.45,0a2.1256,2.1256,0,0,1,2.13-2.13h0a2.1229,2.1229,0,0,1,2.12,2.13h0a2.1207,2.1207,0,0,1-2.12,2.12h0A2.1235,2.1235,0,0,1,1031.7793,15.7012Zm-8.4492,0a2.1249,2.1249,0,0,1,2.13-2.13h0a2.1235,2.1235,0,0,1,2.12,2.13h0a2.1214,2.1214,0,0,1-2.12,2.12h0A2.1229,2.1229,0,0,1,1023.33,15.7012Zm-8.45,0a2.1235,2.1235,0,0,1,2.12-2.13h0a2.1256,2.1256,0,0,1,2.13,2.13h0a2.1235,2.1235,0,0,1-2.13,2.12h0A2.1214,2.1214,0,0,1,1014.88,15.7012Zm-8.45,0a2.1235,2.1235,0,0,1,2.12-2.13h0a2.1256,2.1256,0,0,1,2.13,2.13h0a2.1235,2.1235,0,0,1-2.13,2.12h0A2.1214,2.1214,0,0,1,1006.43,15.7012Zm-8.45,0a2.1235,2.1235,0,0,1,2.12-2.13h0a2.1256,2.1256,0,0,1,2.13,2.13h0a2.1235,2.1235,0,0,1-2.13,2.12h0A2.1214,2.1214,0,0,1,997.98,15.7012Zm-8.45,0a2.1235,2.1235,0,0,1,2.12-2.13h0a2.1318,2.1318,0,0,1,2.13,2.13h0a2.13,2.13,0,0,1-2.13,2.12h0A2.1214,2.1214,0,0,1,989.5293,15.7012Zm-8.46,0a2.1318,2.1318,0,0,1,2.13-2.13h0a2.1229,2.1229,0,0,1,2.12,2.13h0a2.1207,2.1207,0,0,1-2.12,2.12h0A2.13,2.13,0,0,1,981.0693,15.7012Zm-8.4492,0a2.1249,2.1249,0,0,1,2.13-2.13h0a2.1235,2.1235,0,0,1,2.12,2.13h0a2.1214,2.1214,0,0,1-2.12,2.12h0A2.1229,2.1229,0,0,1,972.62,15.7012Zm-8.45,0a2.1256,2.1256,0,0,1,2.13-2.13h0a2.1235,2.1235,0,0,1,2.12,2.13h0a2.1214,2.1214,0,0,1-2.12,2.12h0A2.1235,2.1235,0,0,1,964.17,15.7012Zm-8.45,0a2.1256,2.1256,0,0,1,2.13-2.13h0a2.1235,2.1235,0,0,1,2.12,2.13h0a2.1214,2.1214,0,0,1-2.12,2.12h0A2.1235,2.1235,0,0,1,955.72,15.7012Zm-8.45,0a2.1256,2.1256,0,0,1,2.13-2.13h0a2.1235,2.1235,0,0,1,2.12,2.13h0a2.1214,2.1214,0,0,1-2.12,2.12h0A2.1235,2.1235,0,0,1,947.27,15.7012Zm-8.45,0a2.1235,2.1235,0,0,1,2.12-2.13h0a2.1249,2.1249,0,0,1,2.13,2.13h0a2.1228,2.1228,0,0,1-2.13,2.12h0A2.1214,2.1214,0,0,1,938.8193,15.7012Zm-8.46,0a2.1318,2.1318,0,0,1,2.13-2.13h0a2.1258,2.1258,0,0,1,2.1308,2.13h0a2.1237,2.1237,0,0,1-2.1308,2.12h0A2.13,2.13,0,0,1,930.3594,15.7012Zm-8.45,0a2.1326,2.1326,0,0,1,2.1308-2.13h0a2.1318,2.1318,0,0,1,2.13,2.13h0a2.13,2.13,0,0,1-2.13,2.12h0A2.1305,2.1305,0,0,1,921.9092,15.7012Zm-8.4492,0a2.1249,2.1249,0,0,1,2.13-2.13h0a2.1235,2.1235,0,0,1,2.12,2.13h0a2.1214,2.1214,0,0,1-2.12,2.12h0A2.1228,2.1228,0,0,1,913.46,15.7012Zm-8.45,0a2.1256,2.1256,0,0,1,2.13-2.13h0a2.1235,2.1235,0,0,1,2.12,2.13h0a2.1214,2.1214,0,0,1-2.12,2.12h0A2.1235,2.1235,0,0,1,905.01,15.7012Zm-8.45,0a2.1256,2.1256,0,0,1,2.13-2.13h0a2.1235,2.1235,0,0,1,2.12,2.13h0a2.1214,2.1214,0,0,1-2.12,2.12h0A2.1235,2.1235,0,0,1,896.56,15.7012Zm-8.45,0a2.1256,2.1256,0,0,1,2.13-2.13h0a2.1235,2.1235,0,0,1,2.12,2.13h0a2.1214,2.1214,0,0,1-2.12,2.12h0A2.1235,2.1235,0,0,1,888.1094,15.7012Zm-8.45,0a2.1258,2.1258,0,0,1,2.1308-2.13h0a2.1227,2.1227,0,0,1,2.1192,2.13h0a2.1205,2.1205,0,0,1-2.1192,2.12h0A2.1237,2.1237,0,0,1,879.6592,15.7012Zm-8.4492,0a2.1229,2.1229,0,0,1,2.12-2.13h0a2.1256,2.1256,0,0,1,2.13,2.13h0a2.1235,2.1235,0,0,1-2.13,2.12h0A2.1207,2.1207,0,0,1,871.21,15.7012Zm-8.46,0a2.1318,2.1318,0,0,1,2.13-2.13h0a2.1318,2.1318,0,0,1,2.13,2.13h0a2.13,2.13,0,0,1-2.13,2.12h0A2.13,2.13,0,0,1,862.75,15.7012Zm-8.45,0a2.1256,2.1256,0,0,1,2.13-2.13h0a2.1318,2.1318,0,0,1,2.13,2.13h0a2.13,2.13,0,0,1-2.13,2.12h0A2.1235,2.1235,0,0,1,854.3,15.7012Zm-8.45,0a2.1256,2.1256,0,0,1,2.13-2.13h0a2.1235,2.1235,0,0,1,2.12,2.13h0a2.1214,2.1214,0,0,1-2.12,2.12h0A2.1235,2.1235,0,0,1,845.85,15.7012Zm-8.45,0a2.1256,2.1256,0,0,1,2.13-2.13h0a2.1235,2.1235,0,0,1,2.12,2.13h0a2.1214,2.1214,0,0,1-2.12,2.12h0A2.1235,2.1235,0,0,1,837.3994,15.7012Zm-8.45,0a2.1258,2.1258,0,0,1,2.1309-2.13h0a2.1226,2.1226,0,0,1,2.1191,2.13h0a2.1205,2.1205,0,0,1-2.1191,2.12h0A2.1237,2.1237,0,0,1,828.9492,15.7012Zm-8.4492,0a2.1249,2.1249,0,0,1,2.13-2.13h0a2.1235,2.1235,0,0,1,2.12,2.13h0a2.1214,2.1214,0,0,1-2.12,2.12h0A2.1229,2.1229,0,0,1,820.5,15.7012Zm-8.45,0a2.1256,2.1256,0,0,1,2.13-2.13h0a2.1235,2.1235,0,0,1,2.12,2.13h0a2.1214,2.1214,0,0,1-2.12,2.12h0A2.1235,2.1235,0,0,1,812.05,15.7012Zm-8.46,0a2.1318,2.1318,0,0,1,2.13-2.13h0a2.1256,2.1256,0,0,1,2.13,2.13h0a2.1235,2.1235,0,0,1-2.13,2.12h0A2.13,2.13,0,0,1,803.59,15.7012Zm-8.45,0a2.1318,2.1318,0,0,1,2.13-2.13h0a2.1318,2.1318,0,0,1,2.13,2.13h0a2.13,2.13,0,0,1-2.13,2.12h0A2.13,2.13,0,0,1,795.14,15.7012Zm-8.45,0a2.1255,2.1255,0,0,1,2.13-2.13h0a2.1235,2.1235,0,0,1,2.12,2.13h0a2.1214,2.1214,0,0,1-2.12,2.12h0A2.1234,2.1234,0,0,1,786.69,15.7012Zm-8.45,0a2.1258,2.1258,0,0,1,2.1308-2.13h0a2.1227,2.1227,0,0,1,2.1192,2.13h0a2.1206,2.1206,0,0,1-2.1192,2.12h0A2.1237,2.1237,0,0,1,778.2393,15.7012Zm-8.4493,0a2.125,2.125,0,0,1,2.13-2.13h0a2.1235,2.1235,0,0,1,2.12,2.13h0a2.1214,2.1214,0,0,1-2.12,2.12h0A2.1229,2.1229,0,0,1,769.79,15.7012Zm-8.45,0a2.1256,2.1256,0,0,1,2.13-2.13h0a2.1235,2.1235,0,0,1,2.12,2.13h0a2.1214,2.1214,0,0,1-2.12,2.12h0A2.1235,2.1235,0,0,1,761.34,15.7012Zm-8.45,0a2.1256,2.1256,0,0,1,2.13-2.13h0a2.1234,2.1234,0,0,1,2.12,2.13h0a2.1213,2.1213,0,0,1-2.12,2.12h0A2.1235,2.1235,0,0,1,752.89,15.7012Zm-8.45,0a2.1234,2.1234,0,0,1,2.12-2.13h0a2.1256,2.1256,0,0,1,2.13,2.13h0a2.1235,2.1235,0,0,1-2.13,2.12h0A2.1213,2.1213,0,0,1,744.44,15.7012Zm-8.46,0a2.1318,2.1318,0,0,1,2.13-2.13h0a2.1318,2.1318,0,0,1,2.13,2.13h0a2.13,2.13,0,0,1-2.13,2.12h0A2.13,2.13,0,0,1,735.98,15.7012Zm-8.45,0a2.1318,2.1318,0,0,1,2.13-2.13h0a2.132,2.132,0,0,1,2.1308,2.13h0a2.13,2.13,0,0,1-2.1308,2.12h0A2.13,2.13,0,0,1,727.5293,15.7012Zm-8.4492,0a2.1249,2.1249,0,0,1,2.13-2.13h0a2.1235,2.1235,0,0,1,2.12,2.13h0a2.1214,2.1214,0,0,1-2.12,2.12h0A2.1229,2.1229,0,0,1,719.08,15.7012Zm-8.45,0a2.1256,2.1256,0,0,1,2.13-2.13h0a2.1235,2.1235,0,0,1,2.12,2.13h0a2.1214,2.1214,0,0,1-2.12,2.12h0A2.1235,2.1235,0,0,1,710.63,15.7012Zm-8.45,0a2.1256,2.1256,0,0,1,2.13-2.13h0a2.1235,2.1235,0,0,1,2.12,2.13h0a2.1214,2.1214,0,0,1-2.12,2.12h0A2.1235,2.1235,0,0,1,702.18,15.7012Zm-8.45,0a2.1256,2.1256,0,0,1,2.13-2.13h0a2.1235,2.1235,0,0,1,2.12,2.13h0a2.1214,2.1214,0,0,1-2.12,2.12h0A2.1235,2.1235,0,0,1,693.73,15.7012Zm-8.45,0a2.1235,2.1235,0,0,1,2.12-2.13h0a2.1249,2.1249,0,0,1,2.13,2.13h0a2.1229,2.1229,0,0,1-2.13,2.12h0A2.1214,2.1214,0,0,1,685.2793,15.7012Zm-8.4492,0a2.1226,2.1226,0,0,1,2.1191-2.13h0a2.1258,2.1258,0,0,1,2.1309,2.13h0a2.1237,2.1237,0,0,1-2.1309,2.12h0A2.1205,2.1205,0,0,1,676.83,15.7012Zm-8.46,0a2.1318,2.1318,0,0,1,2.13-2.13h0a2.1318,2.1318,0,0,1,2.13,2.13h0a2.13,2.13,0,0,1-2.13,2.12h0A2.13,2.13,0,0,1,668.37,15.7012Zm-8.45,0a2.1318,2.1318,0,0,1,2.13-2.13h0a2.1318,2.1318,0,0,1,2.13,2.13h0a2.13,2.13,0,0,1-2.13,2.12h0A2.13,2.13,0,0,1,659.92,15.7012Zm-8.45,0a2.1256,2.1256,0,0,1,2.13-2.13h0a2.1235,2.1235,0,0,1,2.12,2.13h0a2.1214,2.1214,0,0,1-2.12,2.12h0A2.1235,2.1235,0,0,1,651.47,15.7012Z"/><path class="a" d="M645.1494,17.8213a2.0562,2.0562,0,0,1-.8193-.16,2.1366,2.1366,0,0,1-.6905-.46,2.2485,2.2485,0,0,1-.46-.6905,2.6857,2.6857,0,0,1-.12-.3994,1.8254,1.8254,0,0,1-.04-.41,3.0447,3.0447,0,0,1,.04-.42,2.7007,2.7007,0,0,1,.12-.4,2.028,2.028,0,0,1,.2-.3594,2.1052,2.1052,0,0,1,.26-.33,1.9986,1.9986,0,0,1,.33-.26,2.0436,2.0436,0,0,1,.36-.2,3.1081,3.1081,0,0,1,.3994-.12,2.3248,2.3248,0,0,1,.83,0,2.7176,2.7176,0,0,1,.4.12,2.62,2.62,0,0,1,.37.2,2.4746,2.4746,0,0,1,.3193.26,1.5883,1.5883,0,0,1,.26.33,1.5547,1.5547,0,0,1,.2.3594,2.7127,2.7127,0,0,1,.12.4,1.9727,1.9727,0,0,1,.04.42,1.8254,1.8254,0,0,1-.04.41,2.6976,2.6976,0,0,1-.12.3994,1.8338,1.8338,0,0,1-.46.6905,2.1627,2.1627,0,0,1-.33.27,2.0556,2.0556,0,0,1-.3593.1894,2.7055,2.7055,0,0,1-.4.12A1.8205,1.8205,0,0,1,645.1494,17.8213Z"/></svg>