<svg xmlns="http://www.w3.org/2000/svg" viewBox="0 0 535.2242 35.2575"><path d="M19.8933,34.2668a1.337,1.337,0,0,1-2.4414.3248L.1765,4.6692A1.2865,1.2865,0,0,1,.0506,3.6565a1.2824,1.2824,0,0,1,.6152-.814A1.2869,1.2869,0,0,1,1.6785,2.717a1.2873,1.2873,0,0,1,.8144.6148L19.7683,33.2546A1.285,1.285,0,0,1,19.8933,34.2668Z"/><path d="M36.1248,18.6213a1.9172,1.9172,0,0,1-1.4278-.6142A2.0084,2.0084,0,0,1,34.1,16.5613v-.5781a2.01,2.01,0,0,1,.5966-1.4458,1.9206,1.9206,0,0,1,1.4278-.6143H40.534a1.9235,1.9235,0,0,1,1.4277.6143,2.009,2.009,0,0,1,.5957,1.4458v9.3247a1.0856,1.0856,0,0,0,.1807.5781,4.4157,4.4157,0,0,0,1.8437,1.6987.1183.1183,0,0,0,.1445-.0361.2466.2466,0,0,0,.0723-.1807,1.7015,1.7015,0,0,1,.3252-1.1206,1.7811,1.7811,0,0,1,.9394-.6865q1.626-.578,3.0362-1.1567a.1053.1053,0,0,0,.0361-.0723c0-.0239-.0244-.0361-.0723-.0361H45.81a2.0985,2.0985,0,0,1-2.06-2.06v-.2168a2.0985,2.0985,0,0,1,2.06-2.06h1.9522a.2555.2555,0,0,0,.289-.289v-.6148c0-.2168-.0967-.3252-.289-.3252H46.6052a1.9781,1.9781,0,0,1-1.4277-.5781,1.8877,1.8877,0,0,1-.5957-1.41,2.0357,2.0357,0,0,1,2.0234-2.0239h1.1573a.2553.2553,0,0,0,.289-.289,1.0815,1.0815,0,0,1,.0362-.3252q.0717-.3252-.2168-.3252-.9405,0-1.3741-.0362a4.001,4.001,0,0,1-2.3847-.5786,2.9189,2.9189,0,0,1-.543-2.0962V8.2126a1.9187,1.9187,0,0,1,.6152-1.4277A2.0063,2.0063,0,0,1,45.63,6.1887h3.6142a.2874.2874,0,0,0,.3252-.3252V5.3572q0-.2886-.3252-.2891H45.1961A1.8732,1.8732,0,0,1,43.823,4.49a1.9173,1.9173,0,0,1-.5791-1.41,1.9151,1.9151,0,0,1,1.9522-1.9516h6.9755a2.0078,2.0078,0,0,1,1.4454.5966,1.9214,1.9214,0,0,1,.6142,1.4273V7.0559a2.0984,2.0984,0,0,1-2.06,2.06h-.47v.0361l1.2285.2534a2.1793,2.1793,0,0,1,1.3731.8853,1.9177,1.9177,0,0,1,.3252,1.5722,1.9769,1.9769,0,0,1-1.12,1.5542.2733.2733,0,0,0-.1807.3614,2.0451,2.0451,0,0,1,.1084.65c0,.1933.1084.289.3252.289H57.159a.2553.2553,0,0,0,.289-.289,2.0933,2.0933,0,0,1,.0723-.5059.2331.2331,0,0,0-.1807-.3252,1.9435,1.9435,0,0,1-1.3555-.7051,3.5154,3.5154,0,0,1-.3427-1.8252V8.2126a1.9178,1.9178,0,0,1,.6142-1.4277,2.0062,2.0062,0,0,1,1.4453-.5962h3.65q.2886,0,.2891-.3252V5.3572a.2558.2558,0,0,0-.2891-.2891H57.4841A1.9142,1.9142,0,0,1,56.075,4.49a1.9161,1.9161,0,0,1-.5782-1.41,1.8749,1.8749,0,0,1,.5782-1.373,1.9162,1.9162,0,0,1,1.4091-.5786h6.795a1.949,1.949,0,0,1,1.4277.5966,1.9474,1.9474,0,0,1,.5957,1.4273V7.0559a2.0063,2.0063,0,0,1-.5957,1.4458,1.92,1.92,0,0,1-1.4277.6143h-.5059v.0361l1.2285.2534a2.18,2.18,0,0,1,1.3731.8853A1.914,1.914,0,0,1,66.7,11.863a2.0376,2.0376,0,0,1-.8848,1.482,6.6765,6.6765,0,0,1-2.44.3974H63.05q-.3252,0-.253.2891a1.6949,1.6949,0,0,1,.0362.3975c0,.1933.1084.289.3252.289h1.1572a1.8882,1.8882,0,0,1,1.4092.5967,1.9814,1.9814,0,0,1,.5781,1.4272A1.9739,1.9739,0,0,1,64.3152,18.73H63.158a.2874.2874,0,0,0-.3252.3252V19.67q0,.2894.3252.289h1.88a2.0984,2.0984,0,0,1,2.06,2.06v.2168a2.0984,2.0984,0,0,1-2.0595,2.06h-1.59c-.0488,0-.0723.0122-.0723.0361a.1014.1014,0,0,0,.0362.0723q1.0107.4335,1.77.7949a2.0557,2.0557,0,0,1,1.03,1.229,1.9786,1.9786,0,0,1-.127,1.59l-.2529.47q-.1451.2169.1084.2891a1.9852,1.9852,0,0,1,1.1025.7231,1.8662,1.8662,0,0,1,.38,1.2647v.5063a2.0322,2.0322,0,0,1-.6875,1.4634,2.1734,2.1734,0,0,1-1.5176.5967H57.8093A69.5535,69.5535,0,0,1,46.9129,32.68a13.2659,13.2659,0,0,1-5.837-2.1684.35.35,0,0,0-.47,0q-1.374,1.1565-2.8555,2.2046a1.8115,1.8115,0,0,1-1.4814.289,1.8691,1.8691,0,0,1-1.23-.9033l-.542-.9033a2.0277,2.0277,0,0,1-.2529-1.5362,2.1372,2.1372,0,0,1,.9033-1.3193q.3618-.2526,1.6992-1.229a.625.625,0,0,0,.2891-.5059V18.91q0-.2886-.3252-.2891Zm.1445-15.9746a1.9584,1.9584,0,0,1,1.4814-.542,2.0289,2.0289,0,0,1,1.4454.65q2.4213,2.5665,3.5058,3.7588a1.9,1.9,0,0,1,.5244,1.482,2.0947,2.0947,0,0,1-.6689,1.4458l-.65.5781a1.91,1.91,0,0,1-1.4453.542,1.9869,1.9869,0,0,1-1.41-.65Q37.8943,8.683,35.4734,6.1526a1.97,1.97,0,0,1-.56-1.4458,1.9252,1.9252,0,0,1,.6319-1.41ZM47.6179,9.803a.8644.8644,0,0,0,.1084.5239.6246.6246,0,0,0,.47.1265h1.4814q.5054,0,.6328-.1446a1.8367,1.8367,0,0,0,.1621-.8671c0-.2173-.0967-.3257-.289-.3257H47.907a.2555.2555,0,0,0-.2891.29ZM53.364,27.1873q-.94.5419-2.53,1.3007a.1217.1217,0,0,0-.0362.09c0,.0361.0244.0542.0723.0542q2.6748.1083,6.7588.1084h4.12c.0478,0,.0723-.0181.0723-.0542a.1257.1257,0,0,0-.0362-.09q-1.5541-.7945-3.6142-1.6264a1.8955,1.8955,0,0,1-1.0117-.9937,1.8373,1.8373,0,0,1-.0723-1.4277c.0478-.168-.0127-.2529-.1807-.2529H54.3035c-.2168,0-.2774.0849-.1807.2529a2.037,2.037,0,0,1,.1084,1.4639A1.9269,1.9269,0,0,1,53.364,27.1873Zm.0723-8.1324V19.67q0,.2894.3252.289H57.159a.2555.2555,0,0,0,.289-.289v-.6148c0-.2168-.0967-.3252-.289-.3252H53.7615A.2874.2874,0,0,0,53.4363,19.0549Zm6.2529-9.6494V9.803a.8644.8644,0,0,0,.1084.5239c.0723.0845.24.1265.5059.1265h1.4453q.5054,0,.6328-.1446a1.8367,1.8367,0,0,0,.1621-.8671c0-.2173-.0967-.3257-.289-.3257H59.9783A.2555.2555,0,0,0,59.6892,9.4055Z"/><path d="M72.3025,23.9705l-1.3018-1.1929a2.0878,2.0878,0,0,1-.6679-1.4453,2.2069,2.2069,0,0,1,.4873-1.5542q.94-1.12,4.0478-5.06,1.9878-2.529,2.9825-3.7046A12.0685,12.0685,0,0,1,79.8738,9.08a4.7561,4.7561,0,0,1,1.7529-.9033,11.1837,11.1837,0,0,1,2.0606-.1445,11.862,11.862,0,0,1,1.86.1084,5.5316,5.5316,0,0,1,1.8438.9214,21.8206,21.8206,0,0,1,2.5478,2.042q1.3374,1.23,4.2285,3.9755,5.71,5.4215,8.71,8.1685a2.1465,2.1465,0,0,1,.6875,1.4273,1.9284,1.9284,0,0,1-.5068,1.5l-1.3369,1.518a1.8363,1.8363,0,0,1-1.3917.6865,1.9322,1.9322,0,0,1-1.4638-.542q-5.2045-4.7343-10.7334-10.0834-2.5678-2.4573-3.2891-3.0181a2.2228,2.2228,0,0,0-1.3017-.56,1.9405,1.9405,0,0,0-1.3184.5782A25.322,25.322,0,0,0,79.8923,17.61q-3.5435,4.59-4.8076,6.18a1.7663,1.7663,0,0,1-1.3369.7046A1.8494,1.8494,0,0,1,72.3025,23.9705Zm19.3-20.71a2.0331,2.0331,0,0,1,1.59-.1445,1.9886,1.9886,0,0,1,1.2285,1.0122q.687,1.1924,1.4463,2.7465a1.9759,1.9759,0,0,1-.9043,2.711l-.3614.1806a1.9373,1.9373,0,0,1-1.5722.1265,2.05,2.05,0,0,1-1.21-1.03q-.2534-.4687-.7236-1.373t-.7227-1.3374a1.9435,1.9435,0,0,1-.1621-1.5361,1.7954,1.7954,0,0,1,.9932-1.1744Zm6.3242-1.4453a2.0315,2.0315,0,0,1,1.5908-.1446,1.9867,1.9867,0,0,1,1.2286,1.0118q1.0107,1.8793,1.5175,2.8554a1.9739,1.9739,0,0,1-.9033,2.71l-.47.2529a2.1273,2.1273,0,0,1-2.7832-.9394L96.59,4.7429a1.8545,1.8545,0,0,1-.1445-1.518,1.9821,1.9821,0,0,1,1.0117-1.1924Z"/><path d="M109.6,19.0188l-.1807-.3252a2.2952,2.2952,0,0,1,.8672-2.8911l13.77-8.0957.0361-.0361H112.9617a1.917,1.917,0,0,1-1.4277-.6148,2.0069,2.0069,0,0,1-.5967-1.4453v-.687a2.0084,2.0084,0,0,1,.5967-1.4453,1.9189,1.9189,0,0,1,1.4277-.6148h19.5166a1.9792,1.9792,0,0,1,1.4453.6148,1.98,1.98,0,0,1,.6143,1.4453v.8315a3.1128,3.1128,0,0,1-1.7706,3l-9,4.771v.0362h.0372a19.4,19.4,0,0,1,3.4326-.3257q4.9144,0,7.6084,2.2412a7.4863,7.4863,0,0,1,2.6924,6.0718,9.4578,9.4578,0,0,1-3.795,8.0234q-3.7953,2.8542-10.77,2.855-10.9512,0-10.95-6.6138a5.021,5.021,0,0,1,2.3672-4.1924,10.801,10.801,0,0,1,6.4151-1.6987q4.1557,0,6.0175,1.3555a4.7037,4.7037,0,0,1,1.8614,4.0659,7.2565,7.2565,0,0,1-.0723,1.1924.1535.1535,0,0,0,.0723.1264.1285.1285,0,0,0,.1445.0181,5.0673,5.0673,0,0,0,2.6738-4.7344q0-4.4809-6.83-4.4814a30.6732,30.6732,0,0,0-6.2168.5781,32.205,32.205,0,0,0-6.0712,1.9878,2.1818,2.1818,0,0,1-1.6084.0361A1.98,1.98,0,0,1,109.6,19.0188Zm13.8779,8.5659a4.7132,4.7132,0,0,0,.3623-1.6626,1.5384,1.5384,0,0,0-.7051-1.3916,5.3873,5.3873,0,0,0-2.6562-.4516,4.45,4.45,0,0,0-2.3311.4878,1.44,1.44,0,0,0-.7773,1.247q0,2.0963,5.6015,2.0962h.0362l.0722-.0361A.3968.3968,0,0,0,123.4783,27.5847Z"/><path d="M158.5007,21.8381a1.9875,1.9875,0,0,1-1.4638-.5966,2.2693,2.2693,0,0,1-.669-1.4634l-.7226-13.9507a1.91,1.91,0,0,1,.542-1.4458,1.8607,1.8607,0,0,1,1.4092-.6143h3.2529a1.8627,1.8627,0,0,1,1.41.6143,1.9169,1.9169,0,0,1,.542,1.4458l-.6865,13.9507a2.2332,2.2332,0,0,1-.6875,1.4634,2.0481,2.0481,0,0,1-1.4814.5966Zm1.8067,2.8911a2.1011,2.1011,0,0,1,2.06,2.06v1.3013a2.1,2.1,0,0,1-2.06,2.06h-2.168a2.0982,2.0982,0,0,1-2.06-2.06V26.7893a2.0992,2.0992,0,0,1,2.06-2.06Z"/><path d="M180.5828,16.9587a2.0984,2.0984,0,0,1-2.06-2.06v-.0723a2.0993,2.0993,0,0,1,2.06-2.06h6.7949a.469.469,0,0,0,.4336-.253q.2886-.5053.4336-.7949.0717-.0725,0-.1807a.2132.2132,0,0,0-.1807-.1084H182.68A1.8519,1.8519,0,0,1,180.8,9.55a1.8511,1.8511,0,0,1,1.88-1.8794h6.83a.3629.3629,0,0,0,.3975-.29q.0366-.1085.0908-.3252c.0362-.1445.0664-.2529.09-.3252.0732-.2407,0-.3613-.2168-.3613h-8.168a1.9467,1.9467,0,0,1-1.4268-.5962,1.945,1.945,0,0,1-.5966-1.4277v-.253a2.006,2.006,0,0,1,.5966-1.4458,1.92,1.92,0,0,1,1.4268-.6142h9.1084a.2531.2531,0,0,0,.2891-.2168,2.0477,2.0477,0,0,1,.7041-1.2832A1.8581,1.8581,0,0,1,193.16.0447l2.2774.0722a1.4661,1.4661,0,0,1,1.1025.542,1.388,1.388,0,0,1,.3067,1.1568q-.0734.2167.2167.2168h11.8907a1.9206,1.9206,0,0,1,1.4277.6142,2.01,2.01,0,0,1,.5967,1.4458v.253a1.9486,1.9486,0,0,1-.5967,1.4277,1.9471,1.9471,0,0,1-1.4277.5962H196.16a.3713.3713,0,0,0-.3974.3252l-.2168.65q-.0734.3259.2168.3257h12.2158A1.8511,1.8511,0,0,1,209.8572,9.55a1.8519,1.8519,0,0,1-1.8789,1.8793h-5.3848q-.29,0-.1445.2891l.3975.7949a.4982.4982,0,0,0,.47.253h6.7588a2.0991,2.0991,0,0,1,2.06,2.06v.0723a2.0982,2.0982,0,0,1-2.06,2.06h-3.542c-.0489,0-.085.0308-.1084.09s-.0127.103.0361.1264a22.2219,22.2219,0,0,0,4.2285,3.1807,2.5209,2.5209,0,0,1,1.0655,1.2832,2.4881,2.4881,0,0,1,.0546,1.6445l-.47,1.4092a1.5694,1.5694,0,0,1-.9941.9942,1.3425,1.3425,0,0,1-1.3555-.1988q-.94-.6862-1.77-1.3374-.2534-.18-.2529.1084v7.1563a2.009,2.009,0,0,1-.5967,1.4453,1.9191,1.9191,0,0,1-1.4277.6147h-2.6739a1.0494,1.0494,0,0,1-1.0488-1.0483c0-.1206-.0479-.1807-.1445-.1807H189.5818c-.0967,0-.1445.06-.1445.1807a1.0478,1.0478,0,0,1-1.0479,1.0483h-2.6748a2.0993,2.0993,0,0,1-2.06-2.06V24.26q0-.2526-.2168-.1084-1.0488.8671-1.7353,1.3374a1.4153,1.4153,0,0,1-1.3906.1988,1.5673,1.5673,0,0,1-.9942-.9942l-.47-1.4092a2.4678,2.4678,0,0,1,.0723-1.6626,2.6116,2.6116,0,0,1,1.084-1.3012,26.3771,26.3771,0,0,0,4.1923-3.1446c.0479-.0234.06-.0659.0362-.1264s-.0606-.09-.1084-.09ZM201.22,23.6453V22.6331q0-.3252-.2891-.3252H189.7263c-.1923,0-.289.1084-.289.3252v1.0122a.2555.2555,0,0,0,.289.289H200.93A.2556.2556,0,0,0,201.22,23.6453Zm0,4.6982V27.2957q0-.326-.2891-.3257H189.7263c-.1923,0-.289.1084-.289.3257v1.0478a.2554.2554,0,0,0,.289.2891H200.93A.2554.2554,0,0,0,201.22,28.3435ZM190.7029,17.2117q-.2534.3618-.76,1.0122-.1435.2168.1446.2168h10.59a.1561.1561,0,0,0,.127-.0723.13.13,0,0,0,.0175-.1445,2.7654,2.7654,0,0,1-.3613-.5059,2.8543,2.8543,0,0,0-.3613-.5063.5885.5885,0,0,0-.5059-.253h-8.4209A.5536.5536,0,0,0,190.7029,17.2117Zm2.8184-4.6983a.1615.1615,0,0,0,.0185.1626.1761.1761,0,0,0,.1621.09h3.47a.1775.1775,0,0,0,.1631-.09.1611.1611,0,0,0,.0176-.1626,6.1937,6.1937,0,0,1-.3613-.831.47.47,0,0,0-.4336-.253h-2.24a.4223.4223,0,0,0-.4346.2891A6.1963,6.1963,0,0,1,193.5213,12.5134Z"/><path d="M223.7,30.9456q-3.0733,0-5.6563-3.4693a13.7611,13.7611,0,0,1-2.584-8.4575,15.0808,15.0808,0,0,1,4.8067-11.583q4.8061-4.4634,12.6494-4.4639a14.3966,14.3966,0,0,1,10.4453,3.9937,13.5573,13.5573,0,0,1,4.12,10.1738,15.8924,15.8924,0,0,1-2.6748,9.5054,11.9167,11.9167,0,0,1-7.3008,4.771,2.0174,2.0174,0,0,1-1.6084-.3257,2.1325,2.1325,0,0,1-.9209-1.3731l-.289-1.229a1.8582,1.8582,0,0,1,.289-1.5,2.3291,2.3291,0,0,1,1.2647-.9575q5.71-1.8435,5.71-8.8911a8.7832,8.7832,0,0,0-1.8427-5.62,8.55,8.55,0,0,0-4.8789-3.0542q-.2535-.0358-.3252.289A99.6058,99.6058,0,0,1,232.79,19.8684a26.3413,26.3413,0,0,1-2.6211,6.8306,9.7962,9.7962,0,0,1-2.9629,3.3071A6.5266,6.5266,0,0,1,223.7,30.9456Zm5.1318-22.2271a10.3037,10.3037,0,0,0-5.7646,3.7046,10.5666,10.5666,0,0,0-2.0782,6.5957,9.9078,9.9078,0,0,0,.958,4.3916q.9565,1.97,1.753,1.97a1.2921,1.2921,0,0,0,.8672-.4883,6.7917,6.7917,0,0,0,1.0478-1.6987,23.9161,23.9161,0,0,0,1.1572-3.0356q.5772-1.8244,1.1924-4.7163t1.12-6.5059a.1522.1522,0,0,0-.0537-.1807A.2028.2028,0,0,0,228.8318,8.7185Z"/><path d="M250.9509,20.2117l-.5068-2.9639a5.3577,5.3577,0,0,1,.832-3.686,35.6814,35.6814,0,0,0,4.3731-11.0957,2.0219,2.0219,0,0,1,.8857-1.3013A2.0479,2.0479,0,0,1,258.07.84l1.2656.2168a2.1227,2.1227,0,0,1,1.3193.8677,1.9507,1.9507,0,0,1,.3428,1.518,38.786,38.786,0,0,1-2.06,7.0835,1.7116,1.7116,0,0,0-.1445.6143V31.5964a2.0084,2.0084,0,0,1-.5967,1.4453,1.92,1.92,0,0,1-1.4277.6148H255.36a1.9189,1.9189,0,0,1-1.4277-.6148,2.0084,2.0084,0,0,1-.5967-1.4453V19.8142a.0856.0856,0,0,0-.0723-.09.1072.1072,0,0,0-.1084.018,3.2825,3.2825,0,0,1-.289.4336,3.3,3.3,0,0,0-.2891.4336.8667.8667,0,0,1-.9394.3433A.8374.8374,0,0,1,250.9509,20.2117ZM285.0681,9.08a2.0984,2.0984,0,0,1-2.06,2.06h-20.42a1.9169,1.9169,0,0,1-1.4277-.6143,2.0071,2.0071,0,0,1-.5967-1.4458V8.6824a2.01,2.01,0,0,1,.5967-1.4458,1.9205,1.9205,0,0,1,1.4277-.6143h20.42a2.0984,2.0984,0,0,1,2.06,2.06ZM261.8289,31.5964v-7.12a2.0365,2.0365,0,0,1,2.0244-2.0239h17.3838a2.01,2.01,0,0,1,1.4463.5962,1.9229,1.9229,0,0,1,.6142,1.4277v7.12a2.0992,2.0992,0,0,1-2.06,2.06h-2.6377a1.0494,1.0494,0,0,1-1.0488-1.0483.16.16,0,0,0-.1807-.1807h-9.794c-.0966,0-.1445.06-.1445.1807a1.0494,1.0494,0,0,1-1.0478,1.0483h-2.53a1.9189,1.9189,0,0,1-1.4277-.6148A2.0084,2.0084,0,0,1,261.8289,31.5964Zm2.35-15.36a1.8864,1.8864,0,0,1-1.4092-.5962,1.9616,1.9616,0,0,1,0-2.7832,1.8864,1.8864,0,0,1,1.4092-.5962H280.948a1.8917,1.8917,0,0,1,1.41.5962,1.964,1.964,0,0,1,0,2.7832,1.8917,1.8917,0,0,1-1.41.5962Zm0,5.0962a1.9878,1.9878,0,1,1,0-3.9756H280.948a1.9878,1.9878,0,1,1,0,3.9756ZM281.1648,1.4177a1.98,1.98,0,0,1,1.4463.6148,1.98,1.98,0,0,1,.6143,1.4458,2.0375,2.0375,0,0,1-2.0606,2.06H264.9734a2.0359,2.0359,0,0,1-2.06-2.06,1.9761,1.9761,0,0,1,.6143-1.4458,1.9759,1.9759,0,0,1,1.4453-.6148ZM267.4314,26.717v1.4458a.255.255,0,0,0,.2891.2891h9.5049c.2168,0,.3252-.0957.3252-.2891V26.717c0-.1923-.1084-.289-.3252-.289h-9.5049A.2554.2554,0,0,0,267.4314,26.717Z"/><path d="M288.5017,21.91a1.9922,1.9922,0,0,1-1.3183-.8135,1.8928,1.8928,0,0,1-.3438-1.5q.6855-3.939,1.0117-8.3491a1.9136,1.9136,0,0,1,.7051-1.4092,1.959,1.959,0,0,1,1.5-.5063l.4336.0361a1.8929,1.8929,0,0,1,1.4277.7051,2.04,2.04,0,0,1,.4873,1.5361,79.799,79.799,0,0,1-1.0117,8.6738,2.1308,2.1308,0,0,1-2.4209,1.6988Zm27.6123,11.457a2.0991,2.0991,0,0,1-2.0595-2.06V20.7537q0-.2886-.2891-.2168l-.7949.2168a1.9013,1.9013,0,0,1-1.5362-.1446,1.9923,1.9923,0,0,1-.9941-1.2285q-.0366-.1083-1.4814-4.771a.0325.0325,0,0,0-.0362-.0361.032.032,0,0,0-.0361.0361v14.24a2.1,2.1,0,0,1-2.0606,2.06h-1.1923a2.0983,2.0983,0,0,1-2.0606-2.06V20.7537c0-.1924-.0967-.2647-.289-.2168l-.7588.2168a1.9348,1.9348,0,0,1-1.5723-.1626,2.0616,2.0616,0,0,1-.9941-1.21q-.18-.6512-.65-2.1689t-.7227-2.3491a.1045.1045,0,0,1-.0723.0361v1.8432a30.713,30.713,0,0,1-1.1562,9.0538,17.6811,17.6811,0,0,1-3.65,6.5234,1.99,1.99,0,0,1-1.4639.6865,2.3067,2.3067,0,0,1-1.5722-.5058l-1.2285-.9756a1.7535,1.7535,0,0,1-.7051-1.3194,1.89,1.89,0,0,1,.4883-1.4277,13.947,13.947,0,0,0,2.999-5.5659,35.31,35.31,0,0,0,.832-8.7461V3.3333a1.976,1.976,0,0,1,.6143-1.4454,1.9761,1.9761,0,0,1,1.4453-.6147h1.3369a1.98,1.98,0,0,1,1.4463.6147,1.98,1.98,0,0,1,.6142,1.4454V9.4055c0,.1929.0957.2652.2891.2168l.6865-.2168a2.1478,2.1478,0,0,1,2.6387,1.3731q.9024,2.8191,1.3369,4.2285a.147.147,0,0,0,.1084.0361V4.3455A1.9807,1.9807,0,0,1,304.1873,2.9a1.981,1.981,0,0,1,1.4463-.6143h1.1923a1.979,1.979,0,0,1,1.4454.6143,1.9782,1.9782,0,0,1,.6152,1.4458V9.4417c0,.1928.0957.2651.2891.2167l.7949-.2529a1.9518,1.9518,0,0,1,1.5537.1446,2.1258,2.1258,0,0,1,1.0488,1.2285q.4337,1.374,1.3731,4.3369c0,.0244.0175.0361.0537.0361s.0547-.0117.0547-.0361V3.3333a1.9763,1.9763,0,0,1,.6142-1.4454,1.9778,1.9778,0,0,1,1.4453-.6147h1.4825a1.98,1.98,0,0,1,1.4453.6147,1.98,1.98,0,0,1,.6142,1.4454V31.3074a2.0991,2.0991,0,0,1-2.06,2.06Z"/><path d="M332.1248,30.9456q-3.0718,0-5.6563-3.4693a13.7611,13.7611,0,0,1-2.584-8.4575,15.0843,15.0843,0,0,1,4.8067-11.583q4.8077-4.4634,12.65-4.4639a14.3942,14.3942,0,0,1,10.4443,3.9937,13.5573,13.5573,0,0,1,4.12,10.1738,15.899,15.899,0,0,1-2.6738,9.5054,11.9167,11.9167,0,0,1-7.3008,4.771,2.0167,2.0167,0,0,1-1.6084-.3257,2.1339,2.1339,0,0,1-.9219-1.3731l-.289-1.229a1.8582,1.8582,0,0,1,.289-1.5,2.3349,2.3349,0,0,1,1.2657-.9575q5.71-1.8435,5.71-8.8911a8.7782,8.7782,0,0,0-1.8437-5.62,8.5468,8.5468,0,0,0-4.8789-3.0542q-.2535-.0358-.3252.289a99.3767,99.3767,0,0,1-2.1143,11.1138,26.3448,26.3448,0,0,1-2.62,6.8306,9.7976,9.7976,0,0,1-2.9639,3.3071A6.5217,6.5217,0,0,1,332.1248,30.9456Zm5.1328-22.2271a10.2974,10.2974,0,0,0-5.7647,3.7046,10.5672,10.5672,0,0,0-2.0781,6.5957,9.9074,9.9074,0,0,0,.957,4.3916q.958,1.97,1.753,1.97a1.2916,1.2916,0,0,0,.8681-.4883,6.7944,6.7944,0,0,0,1.0479-1.6987,24.0668,24.0668,0,0,0,1.1562-3.0356q.5787-1.8244,1.1924-4.7163.6153-2.8917,1.1211-6.5059a.1538.1538,0,0,0-.0547-.1807A.201.201,0,0,0,337.2576,8.7185Z"/><path d="M359.7732,16.5613l-.2168-.6865a1.971,1.971,0,0,1,.0908-1.59,1.9179,1.9179,0,0,1,1.1739-1.0122q2.4579-.8671,3.831-1.4453a1.8952,1.8952,0,0,1,1.5361,0,1.8512,1.8512,0,0,1,1.0665,1.12l.1806.5064a2.2288,2.2288,0,0,1-.0361,1.6259,2.1089,2.1089,0,0,1-1.12,1.1568q-2.0963.94-3.9034,1.59a1.8944,1.8944,0,0,1-1.5546-.09A2.0519,2.0519,0,0,1,359.7732,16.5613Zm19.8057,1.4819c-.1934,0-.2891.1084-.2891.3252v.8672c0,.2173.0957.3257.2891.3257h10.7705a2.0089,2.0089,0,0,1,1.4453.5962,1.9177,1.9177,0,0,1,.6143,1.4277V22.2a2.0984,2.0984,0,0,1-2.06,2.06h-8.3125a.1155.1155,0,0,0-.0723.1084,50.2225,50.2225,0,0,0,9.83,3.7949,1.6872,1.6872,0,0,1,1.1025.9395,1.5748,1.5748,0,0,1-.0175,1.4458l-.3985.8315a2.327,2.327,0,0,1-1.21,1.1382,2.1281,2.1281,0,0,1-1.6084.0542,50.4933,50.4933,0,0,1-10.1563-4.9873q-.2167-.1443-.2168.1445v3.8672a2.0993,2.0993,0,0,1-2.06,2.06h-1.8076a2.0993,2.0993,0,0,1-2.06-2.06V27.7292c0-.1928-.085-.229-.253-.1083a49.4253,49.4253,0,0,1-10.12,4.9511,2.128,2.128,0,0,1-1.6084-.0542,2.3322,2.3322,0,0,1-1.2109-1.1382l-.3975-.8315a1.6057,1.6057,0,0,1-.0176-1.4639,1.6853,1.6853,0,0,1,1.1377-.9575,49.5324,49.5324,0,0,0,9.7588-3.7226.1239.1239,0,0,0,.0361-.09c0-.0361-.0244-.0542-.0722-.0542h-8.3125a2.0983,2.0983,0,0,1-2.0606-2.06v-.6143a1.921,1.921,0,0,1,.6143-1.4277,2.0094,2.0094,0,0,1,1.4463-.5962H373.074q.2886,0,.2891-.3257v-.8672q0-.3252-.2891-.3252h-3.2529a2.0983,2.0983,0,0,1-2.0606-2.06V4.6345a1.9226,1.9226,0,0,1,.6143-1.4277,2.0094,2.0094,0,0,1,1.4463-.5962h2.4931a.3715.3715,0,0,0,.3975-.3252.81.81,0,0,1,.0361-.1987.7625.7625,0,0,0,.0362-.1988,2.2968,2.2968,0,0,1,.9042-1.41,2.2585,2.2585,0,0,1,1.59-.47l1.8076.1084a1.7316,1.7316,0,0,1,1.3008.7046,1.6716,1.6716,0,0,1,.2891,1.4278v.0722c-.0489.1929.0361.2891.2529.2891h3.9033a2.0073,2.0073,0,0,1,1.4453.5962,1.92,1.92,0,0,1,.6152,1.4277V13.887h.0362a1.3972,1.3972,0,0,1,.1084-.3975l.2529-.6147a2.1783,2.1783,0,0,1,1.1563-1.1382,2.2042,2.2042,0,0,1,1.59-.09q1.8076.6145,3.9033,1.4815a1.8514,1.8514,0,0,1,1.085,1.1206,2.1389,2.1389,0,0,1-.0361,1.59l-.2891.7588a2.0177,2.0177,0,0,1-2.6387,1.0484q-2.2412-.9763-3.9033-1.59a1.796,1.796,0,0,1-1.2285-1.4458h-.0362v1.3736a2.1,2.1,0,0,1-2.06,2.06ZM360.8211,3.261a1.92,1.92,0,0,1,1.3916-.7588,2.1124,2.1124,0,0,1,1.5361.47q1.374,1.0848,2.8555,2.313a1.841,1.841,0,0,1,.6865,1.3916,2.1284,2.1284,0,0,1-.5059,1.5l-.4336.542a1.8814,1.8814,0,0,1-1.373.7051,1.9153,1.9153,0,0,1-1.4463-.4883q-2.458-2.0595-2.8555-2.3491a1.8676,1.8676,0,0,1-.74-1.3194,1.8775,1.8775,0,0,1,.4512-1.4633Zm12.4336,3.7949v1.41c0,.1933.1084.289.3251.289h5.4932c.2168,0,.3252-.0957.3252-.289v-1.41a.2874.2874,0,0,0-.3252-.3252H373.58A.2874.2874,0,0,0,373.2547,7.0559Zm5.8183,7.3008q.3252,0,.3252-.2891V12.5857q0-.2886-.3252-.2891H373.58q-.3251,0-.3251.2891v1.4819q0,.2894.3251.2891ZM391.7586,3.2249l.47.5063a1.9375,1.9375,0,0,1,.543,1.4634,1.9557,1.9557,0,0,1-.6875,1.4277q-1.3741,1.1931-2.8545,2.313a2.0658,2.0658,0,0,1-1.5547.4336,2.3637,2.3637,0,0,1-1.4453-.7588l-.47-.47a1.853,1.853,0,0,1-.47-1.4458,1.826,1.826,0,0,1,.7227-1.3374L388.8318,3.08a2.1235,2.1235,0,0,1,1.499-.5058A2.01,2.01,0,0,1,391.7586,3.2249Z"/><path d="M411.5291,32.2468a14.358,14.358,0,0,1-6.669-1.2651,7.4522,7.4522,0,0,1-3.4511-4.3189,26.8467,26.8467,0,0,1-1.084-8.62q0-7.3366.3613-13.9868a2.16,2.16,0,0,1,.6865-1.4458,1.9581,1.9581,0,0,1,1.4815-.542l1.916.0361a1.932,1.932,0,0,1,1.3916.65,1.9438,1.9438,0,0,1,.5234,1.4458q-.3969,7.0841-.3974,13.8423,0,5.2405,1.1386,6.957t4.1026,1.7168a8.0407,8.0407,0,0,0,5.2041-1.9155,17.3044,17.3044,0,0,0,4.3369-6.18,2.1113,2.1113,0,0,1,1.1387-1.12,2.0857,2.0857,0,0,1,1.5722-.0361l1.4092.542a1.9159,1.9159,0,0,1,1.1748,1.0659,1.8432,1.8432,0,0,1-.0185,1.5723Q421.36,32.2468,411.5291,32.2468Z"/><path d="M440.7673,31.7048a7.9947,7.9947,0,0,1-5.8369-2.8193,9.0185,9.0185,0,0,1-2.6923-6.397,7.43,7.43,0,0,1,3.0175-5.9092,16.3165,16.3165,0,0,1,8.44-3.1621c.168-.0239.2764-.145.3252-.3618q.1083-.8672.5058-4.9512a.2555.2555,0,0,0-.289-.289h-7.2647A1.974,1.974,0,0,1,435.5271,7.2a1.9754,1.9754,0,0,1-.6152-1.4453V4.9236a1.9771,1.9771,0,0,1,.6152-1.4453,1.9759,1.9759,0,0,1,1.4453-.6148h11.4932a1.9792,1.9792,0,0,1,1.4453.6148,1.98,1.98,0,0,1,.6143,1.4453V7.8152q-.5421,4.5534-.6143,5.1318c-.0488.2168.0361.3252.2529.3252q1.9161.1816,3.795.5425.3252.0724.3252-.2529.0717-3.3252.0722-5.7827a2.0365,2.0365,0,0,1,2.0244-2.024h1.4453a2.0113,2.0113,0,0,1,1.4463.5962,1.9214,1.9214,0,0,1,.6143,1.4278q0,3.18-.1445,7.4448a.4209.4209,0,0,0,.289.4341,36.3933,36.3933,0,0,1,3.3975,1.6259,1.9224,1.9224,0,0,1,.9931,1.229,2.1875,2.1875,0,0,1-.1621,1.6265l-.542,1.084a1.7547,1.7547,0,0,1-1.1748.94,2.0038,2.0038,0,0,1-1.5361-.1806q-.94-.5061-1.4453-.7593c-.1445-.0723-.2412-.0234-.2891.145a15.6268,15.6268,0,0,1-2.0058,6.3608,14.4578,14.4578,0,0,1-4.4639,4.084,1.8232,1.8232,0,0,1-1.5537.2349,2.0817,2.0817,0,0,1-1.2656-.958l-.6866-1.12a1.88,1.88,0,0,1-.2168-1.5181,2.14,2.14,0,0,1,.94-1.2646,7.8179,7.8179,0,0,0,2.8008-2.7832,13.49,13.49,0,0,0,1.1748-4.9151q.0717-.3611-.2529-.4341a24.0634,24.0634,0,0,0-4.337-.7226c-.2168,0-.3378.0849-.3613.2529a53.222,53.222,0,0,1-1.5537,6.813,13.3233,13.3233,0,0,1-1.88,3.9936,5.6143,5.6143,0,0,1-2.15,1.8433A6.8806,6.8806,0,0,1,440.7673,31.7048Zm2.2042-13.0835a8.6383,8.6383,0,0,0-3.8487,1.5,2.9937,2.9937,0,0,0-1.2832,2.3672,3.8159,3.8159,0,0,0,.85,2.2949q.8483,1.139,1.6084,1.1387,1.6979,0,2.9278-7.084a.154.154,0,0,0-.0547-.1806A.2027.2027,0,0,0,442.9715,18.6213Z"/><path d="M469.9334,9.4778a2.0995,2.0995,0,0,1-2.06-2.06V6.6584a1.9778,1.9778,0,0,1,.6143-1.4458,1.9775,1.9775,0,0,1,1.4453-.6142h11.2041a.2556.2556,0,0,0,.289-.2891v-2.06a1.9177,1.9177,0,0,1,.6143-1.4278,2.0083,2.0083,0,0,1,1.4463-.5962h1.8066a2.0077,2.0077,0,0,1,1.4453.5962,1.9187,1.9187,0,0,1,.6153,1.4278v2.06a.2552.2552,0,0,0,.289.2891h11.2032a1.9812,1.9812,0,0,1,1.4462.6142,1.9817,1.9817,0,0,1,.6143,1.4458v.7593a2.0994,2.0994,0,0,1-2.06,2.06H482.9441a.2556.2556,0,0,0-.2891.289q0,1.8076-.1084,3.4332a.2557.2557,0,0,0,.2891.29h13.0117a2.0985,2.0985,0,0,1,2.06,2.06v1.8071q0,3.65-.1084,6.09a28.8852,28.8852,0,0,1-.47,4.2647,12.2192,12.2192,0,0,1-.8311,2.8008,3.737,3.737,0,0,1-1.373,1.5542,5.0053,5.0053,0,0,1-1.8975.7407,16.9018,16.9018,0,0,1-2.6211.1626q-1.4824,0-5.7822-.2529a2.4563,2.4563,0,0,1-1.5361-.6685,2.0981,2.0981,0,0,1-.669-1.5L482.5466,29.5a1.8124,1.8124,0,0,1,.542-1.3916,1.6721,1.6721,0,0,1,1.41-.5239q3.0351.2167,4.915.2168a2.1556,2.1556,0,0,0,1.6446-.56,5.1112,5.1112,0,0,0,.8134-2.4942,44.5724,44.5724,0,0,0,.2891-5.9814v-.1084a.2874.2874,0,0,0-.3252-.3252h-9.542a.3418.3418,0,0,0-.3613.289,21.37,21.37,0,0,1-2.8731,7.6441,25.7558,25.7558,0,0,1-5.7646,6.1621,2.047,2.047,0,0,1-1.5361.4517,2.1574,2.1574,0,0,1-1.4278-.7408l-1.1562-1.3012a1.7452,1.7452,0,0,1-.47-1.4092,1.7115,1.7115,0,0,1,.7227-1.3013,19.4481,19.4481,0,0,0,4.4815-4.5,14.8326,14.8326,0,0,0,2.15-5.4214,46.21,46.21,0,0,0,.669-8.4028q0-.3252-.2891-.3252Z"/><path d="M516.9578,35.2068a1.3369,1.3369,0,0,1-1.502-1.9522L532.7312,3.3323a1.3292,1.3292,0,0,1,2.4424.3247,1.2852,1.2852,0,0,1-.126,1.0122L517.7722,34.592A1.2847,1.2847,0,0,1,516.9578,35.2068Z"/></svg>