<svg xmlns="http://www.w3.org/2000/svg" viewBox="0 0 29.0146 7.1719"><path d="M4.9229,5.6636a2.7786,2.7786,0,0,1-2.0381.8457A2.7793,2.7793,0,0,1,.8457,5.6636,2.78,2.78,0,0,1,0,3.625,2.78,2.78,0,0,1,.8457,1.5864,2.7793,2.7793,0,0,1,2.8848.7407a2.7786,2.7786,0,0,1,2.0381.8457A2.78,2.78,0,0,1,5.7686,3.625,2.7809,2.7809,0,0,1,4.9229,5.6636ZM4.5371,1.9722a2.2554,2.2554,0,0,0-1.6523-.6861,2.2562,2.2562,0,0,0-1.6534.6861A2.2539,2.2539,0,0,0,.5459,3.625a2.252,2.252,0,0,0,.6855,1.6523,2.2543,2.2543,0,0,0,1.6534.6861,2.2535,2.2535,0,0,0,1.6523-.6861A2.2521,2.2521,0,0,0,5.2227,3.625,2.254,2.254,0,0,0,4.5371,1.9722ZM3.0713,5.3164A1.6855,1.6855,0,0,1,1.8477,4.88,1.6629,1.6629,0,0,1,1.3955,3.625a1.7137,1.7137,0,0,1,.4326-1.2471,1.6235,1.6235,0,0,1,1.22-.4443,3.7308,3.7308,0,0,1,.5927.0386.3587.3587,0,0,1,.2178.125.3491.3491,0,0,1,.0859.2339.2044.2044,0,0,1-.0937.1752.2466.2466,0,0,1-.2022.043,2.3924,2.3924,0,0,0-.5146-.0547.9038.9038,0,0,0-.7168.2925,1.2272,1.2272,0,0,0-.2578.8379,1.1978,1.1978,0,0,0,.2734.8379.9306.9306,0,0,0,.7246.3,2.222,2.222,0,0,0,.5381-.0625.2259.2259,0,0,1,.1943.043.209.209,0,0,1,.086.1752.3612.3612,0,0,1-.082.2339.3388.3388,0,0,1-.2061.1245A3.9358,3.9358,0,0,1,3.0713,5.3164Z"/><path d="M7.7246,3.9912c.0469,0,.0606-.0156.0391-.0469l-.0078-.0078V3.9214a.3093.3093,0,0,1-.0039-.2808.2965.2965,0,0,1,.2226-.1714.545.545,0,0,1,.3545.0425.5119.5119,0,0,1,.2539.2456c.01.021.0254.0508.0459.09s.0371.0688.0469.0893A.0907.0907,0,0,0,8.77,3.999H9.44a.0619.0619,0,0,0,.0694-.07V3.3833a.0619.0619,0,0,0-.0694-.07H6.7744a.3327.3327,0,0,1-.3281-.3272.33.33,0,0,1,.0976-.2338A.3107.3107,0,0,1,6.7744,2.65H9.44c.0459,0,.0694-.02.0694-.062V2.3467c0-.0415-.0235-.0625-.0694-.0625H7.4912a.304.304,0,0,1,0-.6079H9.44c.0459,0,.0694-.021.0694-.0625V1.3721c0-.0415-.0235-.0625-.0694-.0625H7.0781A.3194.3194,0,0,1,6.84,1.2085.3384.3384,0,0,1,6.7432.9668.3375.3375,0,0,1,6.84.7251.32.32,0,0,1,7.0781.6235H8.1924c.042,0,.0547-.018.039-.0542C8.2266.5586,8.22.5435,8.2119.5225a.44.44,0,0,0-.02-.0469A.3106.3106,0,0,1,8.2.1987.31.31,0,0,1,8.4268.0312.5419.5419,0,0,1,8.77.082a.5582.5582,0,0,1,.25.2456c.01.0259.0284.065.0537.1167s.045.0913.0547.1172a.091.091,0,0,0,.0938.062h1.4267a.1143.1143,0,0,0,.0938-.0542l.14-.2339a.5741.5741,0,0,1,.2539-.2495.541.541,0,0,1,.3467-.0547.2969.2969,0,0,1,.2295.1636.29.29,0,0,1,.0039.2808c-.0049.0107-.0127.0249-.0224.043s-.0186.0327-.0235.0429a.0306.0306,0,0,0-.0039.0391A.0375.0375,0,0,0,11.7.6235h1.1309a.3293.3293,0,0,1,.2412.1016.33.33,0,0,1,.1015.2417.3189.3189,0,0,1-.1015.2378.335.335,0,0,1-.2412.0972H10.4688c-.0411,0-.0626.0234-.0626.07V1.606c0,.0468.0215.07.0626.07H12.418a.3059.3059,0,0,1,.3037.3037.28.28,0,0,1-.09.21.2962.2962,0,0,1-.2138.086H10.4688c-.0411,0-.0626.0234-.0626.07v.2339c0,.0464.0215.07.0626.07h2.666a.3318.3318,0,0,1,.3271.3276.3283.3283,0,0,1-.0967.2339.31.31,0,0,1-.23.1011h-2.666c-.0411,0-.0626.0234-.0626.07v.5454a.0554.0554,0,0,0,.0626.0625h.663a.1138.1138,0,0,0,.1016-.0469c.01-.0205.0254-.0493.0459-.0854s.0371-.065.0469-.086a.6242.6242,0,0,1,.2617-.2495.5374.5374,0,0,1,.3467-.0542.3154.3154,0,0,1,.2295.1753.2819.2819,0,0,1-.0039.2842v.0078a.027.027,0,0,0-.004.0352.0382.0382,0,0,0,.0352.02h.92a.3334.3334,0,0,1,.25.1055.3519.3519,0,0,1,.1006.2534.3246.3246,0,0,1-.1006.2451.3456.3456,0,0,1-.25.0977H6.7979a.3438.3438,0,0,1-.25-.0977A.3254.3254,0,0,1,6.4463,4.35a.3528.3528,0,0,1,.1016-.2534.3317.3317,0,0,1,.25-.1055ZM7.5928,5.0283h4.7236a.4528.4528,0,0,1,.4443.4444V6.7354a.44.44,0,0,1-.4365.4365h-.1719a.2484.2484,0,0,1-.1865-.0821.2693.2693,0,0,1-.0781-.1909c0-.0259-.0156-.039-.0469-.039H8.0684c-.0313,0-.0469.0131-.0469.039a.2693.2693,0,0,1-.0781.1909.2489.2489,0,0,1-.1875.0821H7.585a.4386.4386,0,0,1-.4366-.4365V5.4727a.4512.4512,0,0,1,.4444-.4444ZM11.8877,6.15V5.7529c0-.0415-.0234-.062-.07-.062H8.0918c-.0469,0-.07.0205-.07.062V6.15a.0621.0621,0,0,0,.07.07h3.7256A.0621.0621,0,0,0,11.8877,6.15Z"/><path d="M21.2578,4.9893q-.016.312-.0234.5219a3.69,3.69,0,0,1-.0391.417c-.02.1382-.0381.2486-.0508.3316a.729.729,0,0,1-.0859.2456c-.044.08-.0791.1416-.1045.1831a.3592.3592,0,0,1-.1562.1167,1.12,1.12,0,0,1-.1954.0742,2.1335,2.1335,0,0,1-.2607.0391,3.1308,3.1308,0,0,1-.3154.0195h-.39c-.23,0-.4131-.0039-.5537-.0117a2.6349,2.6349,0,0,1-.3818-.0469.8782.8782,0,0,1-.2578-.0855.3746.3746,0,0,1-.14-.16.6845.6845,0,0,1-.07-.23,2.5817,2.5817,0,0,1-.0156-.3232V3.75a.062.062,0,0,0-.07-.07h-.8887a.062.062,0,0,0-.07.07,3.7026,3.7026,0,0,1-.5537,1.9063,3.7555,3.7555,0,0,1-1.5664,1.2353.4257.4257,0,0,1-.3233.0274.455.455,0,0,1-.2617-.1988.3233.3233,0,0,1-.043-.2768.3173.3173,0,0,1,.1836-.2066,3.13,3.13,0,0,0,1.2588-.9785A3.0406,3.0406,0,0,0,16.3545,3.75c0-.0464-.0205-.07-.0625-.07H14.7646a.3474.3474,0,0,1-.25-.0977.3274.3274,0,0,1-.1015-.2456.3539.3539,0,0,1,.1015-.2534.335.335,0,0,1,.25-.105h2.502c.0469,0,.07-.021.07-.0625V.585a.407.407,0,0,1,.1289-.3042.423.423,0,0,1,.6,0,.4067.4067,0,0,1,.1289.3042V2.9155c0,.0415.0235.0625.07.0625h2.502a.3365.3365,0,0,1,.25.105.3527.3527,0,0,1,.1006.2534.3263.3263,0,0,1-.1006.2456.3491.3491,0,0,1-.25.0977H19.1221a.062.062,0,0,0-.07.07V5.9243c0,.1563.0283.2471.0859.273a2.3053,2.3053,0,0,0,.5918.039h.2031a.7281.7281,0,0,0,.1524-.0195.2744.2744,0,0,0,.12-.0469.5433.5433,0,0,0,.082-.0971A.3353.3353,0,0,0,20.35,5.92q.0117-.0813.0352-.2373t.0351-.3237c.0078-.1118.0137-.2559.02-.4326a.3787.3787,0,0,1,.1367-.2769.37.37,0,0,1,.292-.0972.3847.3847,0,0,1,.2841.1363A.4133.4133,0,0,1,21.2578,4.9893ZM16.2139,2.5728a.3683.3683,0,0,1-.3037.0234.4081.4081,0,0,1-.2334-.2031q-.3209-.5919-.6709-1.1612a.3445.3445,0,0,1-.043-.2885.3419.3419,0,0,1,.1836-.2261A.428.428,0,0,1,15.708.873q.31.4835.6777,1.17a.3771.3771,0,0,1,.0274.3042A.3678.3678,0,0,1,16.2139,2.5728Zm3.6718-.1485a.43.43,0,0,1-.2568.1831.421.421,0,0,1-.3125-.0346.33.33,0,0,1-.1787-.2261.35.35,0,0,1,.0469-.2886A11.6121,11.6121,0,0,0,19.8467.873a.3934.3934,0,0,1,.2226-.2143A.3844.3844,0,0,1,20.377.67a.3948.3948,0,0,1,.2148.2222.374.374,0,0,1-.0117.3A10.4652,10.4652,0,0,1,19.8857,2.4243Z"/><path d="M26.7617,3.7417c.0469,0,.07-.02.07-.062V3.0869c0-.0415-.0234-.062-.07-.062H22.4268a.3509.3509,0,1,1,0-.7017h2.62a.0618.0618,0,0,0,.0693-.07V1.5278c0-.0415-.0234-.062-.0693-.062H22.9805a.3143.3143,0,0,1-.2373-.1015.3478.3478,0,0,1,0-.4834A.3154.3154,0,0,1,22.9805.78h2.0664a.0618.0618,0,0,0,.0693-.07V.4287A.4069.4069,0,0,1,25.2451.125a.4232.4232,0,0,1,.6006,0,.4059.4059,0,0,1,.1279.3037V.71a.0622.0622,0,0,0,.07.07H28.11a.3188.3188,0,0,1,.2373.1011.3481.3481,0,0,1,0,.4834.3177.3177,0,0,1-.2373.1015H26.0439c-.0468,0-.07.02-.07.062v.7251a.0622.0622,0,0,0,.07.07h2.6192a.3509.3509,0,1,1,0,.7017h-.9043c-.0459,0-.0693.02-.0693.062V3.68c0,.0415.0234.062.0693.062h.9043a.3509.3509,0,1,1,0,.7017h-.9043a.0618.0618,0,0,0-.0693.07V5.94q0,.2967-.0118.4639a1.2972,1.2972,0,0,1-.0586.312.5.5,0,0,1-.1171.2105.57.57,0,0,1-.2217.1128,1.4417,1.4417,0,0,1-.3242.0586c-.1143.0078-.2725.0117-.4756.0117q-.312,0-1.02-.0235a.3878.3878,0,0,1-.3672-.3662.3211.3211,0,0,1,.3359-.3354c.4307.0156.7354.0234.9121.0234a.8646.8646,0,0,0,.4248-.0581c.044-.0391.0664-.168.0664-.3862v-1.45a.0621.0621,0,0,0-.07-.07H22.4268a.3509.3509,0,1,1,0-.7017ZM23.3311,4.95a.3753.3753,0,0,1,.2656-.14.3967.3967,0,0,1,.2881.0776q.4452.3274.959.78a.3634.3634,0,0,1,.1289.2568.386.386,0,0,1-.09.2808.36.36,0,0,1-.2529.1289.3563.3563,0,0,1-.27-.09q-.53-.468-.9668-.7871a.3482.3482,0,0,1-.1436-.2417A.3223.3223,0,0,1,23.3311,4.95Z"/></svg>