<svg xmlns="http://www.w3.org/2000/svg" viewBox="0 0 252 254.86"><defs><style>.cls-1{fill:#69a3d8;}.cls-2{fill:#fff;}.cls-3{fill:none;stroke:#fff;stroke-linecap:round;stroke-linejoin:round;stroke-width:1.42px;}</style></defs><g id="レイヤー_2" data-name="レイヤー 2"><g id="base"><rect class="cls-1" y="20.86" width="252" height="234" rx="50"/><path class="cls-2" d="M68.29,78a1.08,1.08,0,0,1,.77.31,1.07,1.07,0,0,1,.32.76v.33a1.11,1.11,0,0,1-1.09,1.09H66a.2.2,0,0,0-.21.17c-.09.37-.2.78-.34,1.24,0,.1,0,.16.11.16H68a1.09,1.09,0,0,1,1.09,1.09v1.24a13.93,13.93,0,0,1-2,5.82A12.92,12.92,0,0,1,63,94.36a1.21,1.21,0,0,1-.87.16,1.35,1.35,0,0,1-.78-.45l-.4-.5a.88.88,0,0,1-.2-.73.94.94,0,0,1,.43-.65,11.31,11.31,0,0,0,3-2.71.15.15,0,0,0,0-.23c-.42-.32-1-.72-1.67-1.19-.07-.06-.14,0-.21,0a2.61,2.61,0,0,1-.21.27l-.21.27a.84.84,0,0,1-.71.3.93.93,0,0,1-.7-.34L60,88.14a1.21,1.21,0,0,1-.29-.83,1.42,1.42,0,0,1,.29-.86,17.14,17.14,0,0,0,2.8-5.83c0-.12,0-.17-.12-.17H61.13A1.13,1.13,0,0,1,60,79.36V79a1,1,0,0,1,.33-.76,1.06,1.06,0,0,1,.76-.31Zm-2.05,6.39H64.66a.21.21,0,0,0-.23.15c-.13.27-.34.67-.62,1.21a.16.16,0,0,0,.06.23L65.42,87c.09.06.15,0,.19,0a12.76,12.76,0,0,0,.77-2.49C66.4,84.4,66.36,84.35,66.24,84.35Zm5,6.24a1.11,1.11,0,0,1-1.09-1.09v-10A1.09,1.09,0,0,1,71.2,78.4h.52a1.11,1.11,0,0,1,1.09,1.09v10a1,1,0,0,1-.33.76,1,1,0,0,1-.76.33Zm4.78-13a1,1,0,0,1,.76.33,1.06,1.06,0,0,1,.31.76V91.35c0,.59,0,1.05,0,1.38a4.73,4.73,0,0,1-.15.94,1.59,1.59,0,0,1-.26.62,1.42,1.42,0,0,1-.53.33,2.94,2.94,0,0,1-.78.17c-.26,0-.64,0-1.13,0s-1.12,0-1.66,0a1.09,1.09,0,0,1-.78-.35,1.2,1.2,0,0,1-.37-.78l0-.44a1,1,0,0,1,.29-.74.91.91,0,0,1,.75-.29l.66,0,.47,0c.31,0,.51,0,.57-.1a1.37,1.37,0,0,0,.1-.68V78.72a1,1,0,0,1,.32-.76,1,1,0,0,1,.77-.33Z"/><path class="cls-2" d="M80,93.15a1.05,1.05,0,0,1-.76-.32,1.08,1.08,0,0,1-.31-.77v-.15a1.06,1.06,0,0,1,.31-.77,1.05,1.05,0,0,1,.76-.32h6c.1,0,.15,0,.15-.16V90c0-.11,0-.17-.15-.17H81.36a1.08,1.08,0,0,1-.77-.31,1.05,1.05,0,0,1-.32-.76V83.07a1.07,1.07,0,0,1,.32-.77,1.09,1.09,0,0,1,.77-.32H86c.1,0,.15,0,.15-.16v-.63c0-.11,0-.17-.15-.17H80.23A1.06,1.06,0,0,1,79.16,80V79.8a1.06,1.06,0,0,1,.31-.77,1,1,0,0,1,.76-.32H86q.15,0,.15-.18V78.3a1.13,1.13,0,0,1,1.09-1.09h1a1,1,0,0,1,.76.33,1,1,0,0,1,.33.76v.23q0,.18.15.18h5.78A1,1,0,0,1,96,79a1.06,1.06,0,0,1,.31.77V80a1.06,1.06,0,0,1-.31.76,1,1,0,0,1-.76.31H89.45c-.1,0-.15.06-.15.17v.63c0,.11,0,.16.15.16H94.1a1.09,1.09,0,0,1,1.09,1.09v5.68a1.05,1.05,0,0,1-.32.76,1.06,1.06,0,0,1-.77.31H89.45c-.1,0-.15.06-.15.17v.67c0,.11,0,.16.15.16h6a1,1,0,0,1,.76.32,1.06,1.06,0,0,1,.31.77v.15a1.08,1.08,0,0,1-.31.77,1,1,0,0,1-.76.32h-6a.13.13,0,0,0-.15.15V94a1,1,0,0,1-.33.77,1,1,0,0,1-.76.32h-1a1,1,0,0,1-.76-.32,1,1,0,0,1-.33-.77V93.3a.13.13,0,0,0-.15-.15Zm3-8.92v.58c0,.1.06.15.17.15H86a.13.13,0,0,0,.15-.15v-.58a.13.13,0,0,0-.15-.15H83.25C83.14,84.08,83.08,84.13,83.08,84.23Zm.17,3.51H86c.1,0,.15,0,.15-.16V87c0-.11,0-.17-.15-.17H83.25a.15.15,0,0,0-.17.17v.59C83.08,87.69,83.14,87.74,83.25,87.74Zm9-3.66H89.45a.13.13,0,0,0-.15.15v.58a.13.13,0,0,0,.15.15h2.76a.13.13,0,0,0,.15-.15v-.58A.13.13,0,0,0,92.21,84.08Zm.15,3.5V87c0-.11,0-.17-.15-.17H89.45c-.1,0-.15.06-.15.17v.59c0,.11,0,.16.15.16h2.76C92.31,87.74,92.36,87.69,92.36,87.58Z"/><path class="cls-2" d="M99.84,81.88a1,1,0,0,1-.75-.32,1.09,1.09,0,0,1-.32-.77V80.5a1.07,1.07,0,0,1,.32-.76,1,1,0,0,1,.75-.33h2.78a.23.23,0,0,0,.23-.15l.14-.38c.07-.19.13-.34.16-.44a1.29,1.29,0,0,1,.55-.7,1.2,1.2,0,0,1,.85-.16l.92.17a.87.87,0,0,1,.63.43.88.88,0,0,1,.08.76,1.1,1.1,0,0,0-.07.17,1.56,1.56,0,0,0-.07.17c0,.09,0,.13.12.13h6.5a1,1,0,0,1,.77.33,1.07,1.07,0,0,1,.32.76v.29a1.09,1.09,0,0,1-.32.77,1.07,1.07,0,0,1-.77.32h-7.54a.23.23,0,0,0-.23.14l-.47,1v0h0a4.62,4.62,0,0,1,1.6-.31,3.7,3.7,0,0,1,3.64,2.09.17.17,0,0,0,.23.11c.78-.16,1.65-.3,2.64-.42a1,1,0,0,1,.79.23,1,1,0,0,1,.39.73l0,.36a1.08,1.08,0,0,1-.24.8,1.06,1.06,0,0,1-.72.41c-.68.1-1.45.23-2.29.38-.12,0-.16.1-.13.21.07.75.11,1.19.11,1.32a1,1,0,0,1-.31.77,1.05,1.05,0,0,1-.76.32h-.92a1.08,1.08,0,0,1-.77-.31,1.13,1.13,0,0,1-.34-.76c0-.23,0-.4,0-.52a.1.1,0,0,0-.06-.09.11.11,0,0,0-.11,0c-1.61.62-2.41,1.24-2.41,1.83a1.09,1.09,0,0,0,.76,1,8.74,8.74,0,0,0,3,.33,29.84,29.84,0,0,0,3.75-.32,1.07,1.07,0,0,1,1.19.94l0,.45a1.12,1.12,0,0,1-.23.81,1.08,1.08,0,0,1-.72.42,35.84,35.84,0,0,1-4,.23,11.31,11.31,0,0,1-5.22-.88,2.9,2.9,0,0,1-1.59-2.7,3.62,3.62,0,0,1,1.22-2.6,9.87,9.87,0,0,1,3.68-2.07c.1,0,.12-.11,0-.19a1.69,1.69,0,0,0-1.39-.55,2.88,2.88,0,0,0-1.69.6,10.91,10.91,0,0,0-2.06,2.19,1.25,1.25,0,0,1-.74.48,1.16,1.16,0,0,1-.85-.14l-.56-.3a1,1,0,0,1-.48-.63,1,1,0,0,1,.16-.79A36.31,36.31,0,0,0,101.7,82c0-.09,0-.14-.1-.14Z"/><path class="cls-2" d="M118.59,94.85a1,1,0,0,1-.75-.32,1.07,1.07,0,0,1-.32-.77V78.92a1.07,1.07,0,0,1,.32-.77,1,1,0,0,1,.75-.32h4.65a1,1,0,0,1,.76.32,1.07,1.07,0,0,1,.32.77V79c0,.17,0,.42,0,.75a.07.07,0,0,0,0,.06.14.14,0,0,0,.09,0A13.86,13.86,0,0,0,126.34,78a2,2,0,0,1,1.76-.73l.9.1a.47.47,0,0,1,.43.28.49.49,0,0,1,0,.52s0,0,0,.07a.07.07,0,0,0,.06,0h4a1.06,1.06,0,0,1,.77.31,1,1,0,0,1,.32.76v.09a2.72,2.72,0,0,1-.71,1.94A17.59,17.59,0,0,1,132.06,83s0,0,0,.09,0,.07.05.08a20,20,0,0,0,2.17.65.94.94,0,0,1,.62.48,1,1,0,0,1,.06.79l-.13.36a1.2,1.2,0,0,1-1.42.77l-.73-.22-.53-.15c-.1,0-.15,0-.15.12v.59a.15.15,0,0,0,.17.17h1.4a1.13,1.13,0,0,1,1.09,1.09v.08A1.13,1.13,0,0,1,133.54,89h-1.4a.15.15,0,0,0-.17.17v1.11a.15.15,0,0,0,.17.17h1.8A1.11,1.11,0,0,1,135,91.54v.23a1.07,1.07,0,0,1-.32.77,1.05,1.05,0,0,1-.77.32h-1.8A.15.15,0,0,0,132,93v.78a1.07,1.07,0,0,1-.32.77,1,1,0,0,1-.75.32H130a1.09,1.09,0,0,1-1.09-1.09V93a.14.14,0,0,0-.16-.16H124a1,1,0,0,1-.76-.32,1,1,0,0,1-.33-.77v-.23a1.2,1.2,0,0,1,.12-.46s0,0,0,0,0,0,0,0a2.93,2.93,0,0,1-1.21.42,1.06,1.06,0,0,1-.83-.24,1.4,1.4,0,0,1-.49-.78l-.17-.72,0,0v4a1.07,1.07,0,0,1-.32.77,1.05,1.05,0,0,1-.77.32Zm1.61-14.61v3.4s0,0,0,0l0,0a23.28,23.28,0,0,0,1.38-3.4q0-.18-.12-.18h-1.19Q120.2,80.06,120.2,80.24Zm0,4.91V89a.13.13,0,0,0,.15.15c.4,0,.66-.08.79-.26a2,2,0,0,0,.19-1.08,3.84,3.84,0,0,0-.22-1.36,5.7,5.7,0,0,0-.81-1.35s0,0-.07,0A.05.05,0,0,0,120.2,85.15Zm2.43-.8a.3.3,0,0,0,0,.29,6.41,6.41,0,0,1,1.24,3.79,4.05,4.05,0,0,1-.47,2.08s0,0,0,.06a0,0,0,0,0,0,0,1.08,1.08,0,0,1,.5-.12h.77c.1,0,.15,0,.15-.17V89.1c0-.07,0-.1-.08-.1a.61.61,0,0,1-.45-.18.6.6,0,0,1-.18-.43v-.56a1.13,1.13,0,0,1,1.09-1.09h3.5c.11,0,.16,0,.16-.15a1,1,0,0,1,.29-.72,1,1,0,0,1,.72-.3h1.19a.05.05,0,0,0,0,0,14.46,14.46,0,0,1-1.65-.69.34.34,0,0,0-.28,0,21.49,21.49,0,0,1-3.77,1.4,1.18,1.18,0,0,1-.87-.08,1.37,1.37,0,0,1-.63-.65l-.17-.35a.85.85,0,0,1,0-.76.86.86,0,0,1,.59-.48,23.23,23.23,0,0,0,2.28-.73s0,0,.05-.07a.17.17,0,0,0,0-.1,7.93,7.93,0,0,1-.84-.75.15.15,0,0,0-.23,0l-.07,0-.07,0a1,1,0,0,1-.81.18,1,1,0,0,1-.7-.47l-.09-.15a.16.16,0,0,0-.09,0,.12.12,0,0,0-.07,0Q123.05,83.53,122.63,84.35Zm6.3,5.93V89.17c0-.11-.05-.17-.16-.17h-1c-.11,0-.16.06-.16.17v1.11c0,.12,0,.17.16.17h1C128.88,90.45,128.93,90.4,128.93,90.28Zm-1.09-9.78a.06.06,0,0,0-.06,0,.08.08,0,0,0,0,.07,9,9,0,0,0,1.4,1.15.21.21,0,0,0,.26,0A13.18,13.18,0,0,0,131,80.62a0,0,0,0,0,0-.07s0,0-.05,0Z"/><path class="cls-2" d="M139.83,88.1a1,1,0,0,1-.76-.33,1,1,0,0,1-.33-.76V79.45a1,1,0,0,1,.33-.76,1,1,0,0,1,.76-.33h.85a1.09,1.09,0,0,1,1.07,1.07v2.13s0,0,0,0a0,0,0,0,0,0,0,6.1,6.1,0,0,1,5.1-2.82,4.86,4.86,0,0,1,3.89,1.69,7.1,7.1,0,0,1,1.43,4.72c0,3-.82,5.25-2.47,6.7s-4.25,2.25-7.82,2.37a1,1,0,0,1-.79-.28,1.21,1.21,0,0,1-.36-.77l0-.61a1.08,1.08,0,0,1,1-1.11q4-.14,5.6-1.57c1.06-1,1.59-2.53,1.59-4.73s-.8-3.46-2.39-3.46a4.12,4.12,0,0,0-3.07,1.5A7,7,0,0,0,141.77,87a1.34,1.34,0,0,1-.42.77,1.09,1.09,0,0,1-.77.32Z"/><path class="cls-2" d="M157.46,82.07a1.13,1.13,0,0,1-.79-.3,1,1,0,0,1-.32-.77v-.61a1,1,0,0,1,.31-.76,1,1,0,0,1,.76-.31q6.89,0,13.7-.35a1,1,0,0,1,.76.29,1.06,1.06,0,0,1,.35.75l0,.61a1.08,1.08,0,0,1-.28.79,1.16,1.16,0,0,1-.76.4,12,12,0,0,0-5.81,1.89,4.27,4.27,0,0,0-2,3.52,3.52,3.52,0,0,0,1.21,2.8,4.64,4.64,0,0,0,3.16,1A9.62,9.62,0,0,0,169,91a1.09,1.09,0,0,1,.8.2,1,1,0,0,1,.41.7l.09.67a1.09,1.09,0,0,1-.22.83,1,1,0,0,1-.73.43,13.56,13.56,0,0,1-1.73.1,8.25,8.25,0,0,1-5.49-1.74,5.79,5.79,0,0,1-2.06-4.65,5.64,5.64,0,0,1,.93-3A8.09,8.09,0,0,1,163.62,82s0,0,0,0l0,0C161.75,82,159.7,82.05,157.46,82.07Z"/><path class="cls-2" d="M176.55,87a1.11,1.11,0,0,1-1.09-1.09v-.44a1.13,1.13,0,0,1,1.09-1.09h2.85c.12,0,.17,0,.17-.15,0-.73.05-1.26.08-1.59a.13.13,0,0,0-.15-.15h-2.41a1.11,1.11,0,0,1-1.09-1.1v-.44a1,1,0,0,1,.32-.76,1,1,0,0,1,.77-.33h2.58c.12,0,.17,0,.17-.15s0-.46.06-.84a1,1,0,0,1,.36-.77,1.09,1.09,0,0,1,.81-.28l.93,0a1,1,0,0,1,1,1.13c0,.08,0,.21,0,.36s0,.27,0,.36.05.17.15.17h5.19a1,1,0,0,1,.76.33,1,1,0,0,1,.33.76v.44a1,1,0,0,1-.33.77,1,1,0,0,1-.76.33h-5.36a.15.15,0,0,0-.17.17c-.05.72-.08,1.24-.1,1.55,0,.11.06.17.18.17h4a1,1,0,0,1,.76.33,1,1,0,0,1,.33.76v.44A1.11,1.11,0,0,1,186.85,87h-4.14c-.11,0-.17,0-.17.13,0,1,0,1.61,0,1.92a2.87,2.87,0,0,0,.5,2,3.75,3.75,0,0,0,2.28.45,5.74,5.74,0,0,0,2.74-.43,1.69,1.69,0,0,0,.68-1.56,2.78,2.78,0,0,0-.06-.54,1.14,1.14,0,0,1,.17-.83,1,1,0,0,1,.68-.47l.72-.17a1.06,1.06,0,0,1,.83.14,1,1,0,0,1,.45.68,8.8,8.8,0,0,1,.14,1.42,4,4,0,0,1-1.5,3.44,8.4,8.4,0,0,1-4.85,1.09q-3.32,0-4.59-1.14c-.84-.76-1.27-2.13-1.27-4.12,0-.81,0-1.44,0-1.92,0-.08-.05-.13-.15-.13Z"/><path class="cls-2" d="M77.15,111.26a1.13,1.13,0,0,1-1.09-1.09v-.6a1,1,0,0,1,.33-.76,1,1,0,0,1,.76-.33H90.22a1,1,0,0,1,.77.32,1,1,0,0,1,.3.77,8.55,8.55,0,0,1-2.87,6.52c-1.8,1.52-4.51,2.43-8.15,2.73a1.15,1.15,0,0,1-.82-.25,1.23,1.23,0,0,1-.46-.75l-.12-.63a1,1,0,0,1,.19-.77,1,1,0,0,1,.71-.38,13.3,13.3,0,0,0,5.43-1.41,5.33,5.33,0,0,0,2.61-3.24c0-.09,0-.13-.12-.13Zm1.36-7.81h10.6a1.09,1.09,0,0,1,1.07,1.09v.61a1,1,0,0,1-.31.76,1.07,1.07,0,0,1-.76.32H78.51a1.05,1.05,0,0,1-.76-.32,1,1,0,0,1-.31-.76v-.61a1,1,0,0,1,.31-.76A1,1,0,0,1,78.51,103.45Z"/><path class="cls-2" d="M96.3,112l-.53-.46a1,1,0,0,1-.36-.73,1,1,0,0,1,.26-.78,14.19,14.19,0,0,0,3.12-6.2,1.27,1.27,0,0,1,.45-.74,1.2,1.2,0,0,1,.81-.27l.87,0a1,1,0,0,1,.72.37.88.88,0,0,1,.21.76.54.54,0,0,1,0,.19.74.74,0,0,0,0,.19c0,.11,0,.17.13.17h7a1.1,1.1,0,0,1,.79.32,1,1,0,0,1,.3.77q-.12,6.24-2.92,9.31t-8.9,3.78a1.12,1.12,0,0,1-.83-.22,1.2,1.2,0,0,1-.45-.74l-.1-.63a1,1,0,0,1,.18-.79.93.93,0,0,1,.68-.41q4.5-.62,6.54-2.5t2.43-5.94c0-.12,0-.17-.13-.17h-5.49a.22.22,0,0,0-.23.15,15.77,15.77,0,0,1-2.93,4.46,1,1,0,0,1-.77.36A1.11,1.11,0,0,1,96.3,112Z"/><path class="cls-2" d="M121.73,119a7.56,7.56,0,0,1-3.53-.67,4,4,0,0,1-1.82-2.29,14,14,0,0,1-.58-4.56c0-2.59.07-5.06.19-7.4a1.15,1.15,0,0,1,.37-.77,1,1,0,0,1,.78-.29l1,0a1,1,0,0,1,.74.35,1,1,0,0,1,.28.76q-.21,3.75-.21,7.33a7.47,7.47,0,0,0,.6,3.68,2.4,2.4,0,0,0,2.17.91,4.3,4.3,0,0,0,2.76-1,9.2,9.2,0,0,0,2.29-3.27,1.15,1.15,0,0,1,.61-.6,1.13,1.13,0,0,1,.83,0l.74.29a1,1,0,0,1,.63.57,1,1,0,0,1,0,.83Q126.94,118.95,121.73,119Z"/><path class="cls-2" d="M134.07,118.59a1,1,0,0,1-.63-.47,1,1,0,0,1-.07-.8Q135,112.16,136,107.2a.11.11,0,0,0,0-.11.15.15,0,0,0-.11-.06h-1.2a1,1,0,0,1-.77-.33,1,1,0,0,1-.32-.76v-.44a1.05,1.05,0,0,1,.32-.77,1.07,1.07,0,0,1,.77-.32h1.7a.2.2,0,0,0,.21-.17c0-.12.06-.28.1-.48s.06-.37.07-.48a1.14,1.14,0,0,1,.44-.74,1.22,1.22,0,0,1,.83-.24l.76.06a1,1,0,0,1,.71.39,1,1,0,0,1,.19.78c0,.07,0,.2-.06.36a2.59,2.59,0,0,1-.06.36c0,.11,0,.16.14.16H145a1,1,0,0,1,.75.32,1.09,1.09,0,0,1,.32.77v.44a1.05,1.05,0,0,1-.32.76,1,1,0,0,1-.75.33h-5.8a.18.18,0,0,0-.19.15A96.52,96.52,0,0,1,136.29,118a1.1,1.1,0,0,1-.54.67,1.17,1.17,0,0,1-.85.14Zm13.82-2.7a1.05,1.05,0,0,1,.79.2.93.93,0,0,1,.41.7l.06.46a1.11,1.11,0,0,1-.92,1.24,22.26,22.26,0,0,1-3,.21,8.21,8.21,0,0,1-4.36-1,3,3,0,0,1-1.61-2.58,3.23,3.23,0,0,1,1-2.18,1.38,1.38,0,0,1,.83-.44,1.54,1.54,0,0,1,1,.15l.33.16a.7.7,0,0,1,.4.55.76.76,0,0,1-.21.67,1.22,1.22,0,0,0-.37.77c0,.37.27.67.8.92a5.54,5.54,0,0,0,2.23.36A19,19,0,0,0,147.89,115.89ZM142.13,111a1.06,1.06,0,0,1-1.15-1l0-.38a1.13,1.13,0,0,1,1-1.19c2.06-.19,4-.29,5.83-.3a1,1,0,0,1,.76.32,1.07,1.07,0,0,1,.32.77v.38a1.06,1.06,0,0,1-.33.77,1.07,1.07,0,0,1-.77.32C145.85,110.75,144,110.85,142.13,111Z"/><path class="cls-2" d="M157.23,118.85c-1.14,0-2.19-.74-3.15-2.23a10,10,0,0,1-1.45-5.48,23.78,23.78,0,0,1,.71-5.76,1.19,1.19,0,0,1,.51-.71,1.21,1.21,0,0,1,.87-.2l.84.09a.88.88,0,0,1,.66.39,1,1,0,0,1,.15.78,23.65,23.65,0,0,0-.66,5.41,8.19,8.19,0,0,0,.59,3.28c.39.9.77,1.35,1.16,1.35q.36,0,1-.75a11.45,11.45,0,0,0,1.26-2.17,1.1,1.1,0,0,1,.6-.6,1.13,1.13,0,0,1,.83,0l.61.23a1,1,0,0,1,.62.57,1,1,0,0,1,0,.83,10.4,10.4,0,0,1-2.4,3.68A4,4,0,0,1,157.23,118.85Zm8.13-3.15a29.89,29.89,0,0,0-1.93-9.7,1,1,0,0,1,0-.8.94.94,0,0,1,.62-.51l.74-.21a1.24,1.24,0,0,1,.87.07,1.21,1.21,0,0,1,.62.62,29.36,29.36,0,0,1,2.15,10.55,1,1,0,0,1-.31.75,1.05,1.05,0,0,1-.76.32h-.92a1,1,0,0,1-.77-.33A1.11,1.11,0,0,1,165.36,115.7Z"/><path class="cls-2" d="M173.47,113.44a1.06,1.06,0,0,1-.77-.32,1.23,1.23,0,0,1-.36-.77L172,105a1,1,0,0,1,.29-.76,1,1,0,0,1,.74-.33h1.72a1,1,0,0,1,.76.33.94.94,0,0,1,.28.76l-.37,7.39a1.09,1.09,0,0,1-.35.77,1.12,1.12,0,0,1-.79.32Zm1,1.53a1.11,1.11,0,0,1,1.09,1.09v.69a1.13,1.13,0,0,1-1.09,1.09h-1.15a1.11,1.11,0,0,1-1.09-1.09v-.69a1.09,1.09,0,0,1,1.09-1.09Z"/><path class="cls-2" d="M46.27,169.34a1.22,1.22,0,0,1,.9.37,1.2,1.2,0,0,1,.39.9V171a1.24,1.24,0,0,1-.39.91,1.2,1.2,0,0,1-.9.39h-2.7a.23.23,0,0,0-.25.2c-.11.44-.24.93-.41,1.47,0,.13,0,.19.14.19H46a1.31,1.31,0,0,1,1.3,1.29v1.47a16.55,16.55,0,0,1-2.34,6.9,15.18,15.18,0,0,1-4.9,5,1.38,1.38,0,0,1-1,.19,1.47,1.47,0,0,1-.92-.53l-.48-.59a1,1,0,0,1-.23-.87,1,1,0,0,1,.51-.76A13.66,13.66,0,0,0,41.39,183a.17.17,0,0,0,0-.27q-.75-.57-2-1.41c-.09-.07-.17-.06-.25.05l-.24.31-.26.32a.94.94,0,0,1-.83.36A1.09,1.09,0,0,1,37,182l-.46-.55a1.41,1.41,0,0,1-.35-1,1.76,1.76,0,0,1,.35-1,20.45,20.45,0,0,0,3.31-6.92c0-.14,0-.2-.13-.2H37.79a1.33,1.33,0,0,1-1.3-1.3v-.38a1.2,1.2,0,0,1,.39-.9,1.26,1.26,0,0,1,.91-.37Zm-2.43,7.57H42a.25.25,0,0,0-.27.18c-.15.32-.4.8-.73,1.43a.18.18,0,0,0,.07.27c.63.44,1.25.87,1.84,1.3.1.07.18.06.22-.05a15.2,15.2,0,0,0,.91-2.95C44,177,44,176.91,43.84,176.91Zm5.87,7.39a1.21,1.21,0,0,1-.9-.38,1.24,1.24,0,0,1-.39-.91V171.15a1.2,1.2,0,0,1,.39-.9,1.22,1.22,0,0,1,.9-.39h.62a1.22,1.22,0,0,1,.9.39,1.2,1.2,0,0,1,.39.9V183a1.24,1.24,0,0,1-.39.91,1.21,1.21,0,0,1-.9.38ZM55.38,169a1.2,1.2,0,0,1,.9.39,1.26,1.26,0,0,1,.37.91v15c0,.7,0,1.24,0,1.63a5.59,5.59,0,0,1-.17,1.12,1.94,1.94,0,0,1-.32.73,1.54,1.54,0,0,1-.62.39,3.22,3.22,0,0,1-.92.2c-.32,0-.76,0-1.34,0s-1.34,0-2,0a1.33,1.33,0,0,1-.93-.41,1.4,1.4,0,0,1-.43-.93l-.05-.52a1.16,1.16,0,0,1,.34-.87,1.11,1.11,0,0,1,.89-.35l.78,0,.56,0a1.15,1.15,0,0,0,.68-.12,1.64,1.64,0,0,0,.11-.8V170.25a1.24,1.24,0,0,1,.39-.91,1.2,1.2,0,0,1,.9-.39Z"/><path class="cls-2" d="M60.19,187.34a1.23,1.23,0,0,1-.9-.38,1.3,1.3,0,0,1-.37-.91v-.18a1.3,1.3,0,0,1,.37-.91,1.23,1.23,0,0,1,.9-.38h7.08a.16.16,0,0,0,.18-.18v-.8c0-.13-.06-.2-.18-.2H61.76a1.27,1.27,0,0,1-.91-.38,1.18,1.18,0,0,1-.39-.89v-6.74a1.2,1.2,0,0,1,.39-.9,1.24,1.24,0,0,1,.91-.39h5.51a.16.16,0,0,0,.18-.18v-.75c0-.14-.06-.2-.18-.2H60.42a1.23,1.23,0,0,1-.9-.38,1.22,1.22,0,0,1-.37-.89v-.18a1.26,1.26,0,0,1,.37-.91,1.2,1.2,0,0,1,.9-.39h6.85c.12,0,.18-.07.18-.2v-.27a1.27,1.27,0,0,1,.38-.91,1.24,1.24,0,0,1,.91-.39h1.13a1.33,1.33,0,0,1,1.3,1.3V170c0,.13.06.2.18.2H78.2a1.2,1.2,0,0,1,.89.39,1.27,1.27,0,0,1,.38.91v.18A1.3,1.3,0,0,1,78.2,173H71.35c-.12,0-.18.06-.18.2v.75a.16.16,0,0,0,.18.18h5.51a1.32,1.32,0,0,1,1.29,1.29v6.74a1.21,1.21,0,0,1-.38.89,1.27,1.27,0,0,1-.91.38H71.35c-.12,0-.18.07-.18.2v.8a.16.16,0,0,0,.18.18h7.07a1.23,1.23,0,0,1,.9.38,1.26,1.26,0,0,1,.37.91v.18a1.26,1.26,0,0,1-.37.91,1.23,1.23,0,0,1-.9.38H71.35a.16.16,0,0,0-.18.18v.82a1.31,1.31,0,0,1-1.3,1.29H68.74a1.23,1.23,0,0,1-.91-.38,1.27,1.27,0,0,1-.38-.91v-.82a.16.16,0,0,0-.18-.18Zm3.61-10.56v.68c0,.12.07.18.2.18h3.27a.16.16,0,0,0,.18-.18v-.68a.17.17,0,0,0-.18-.19H64A.18.18,0,0,0,63.8,176.78Zm.2,4.15h3.27c.12,0,.18-.06.18-.19V180c0-.13-.06-.2-.18-.2H64a.18.18,0,0,0-.2.2v.7C63.8,180.87,63.87,180.93,64,180.93Zm10.61-4.34H71.35a.17.17,0,0,0-.18.19v.68a.16.16,0,0,0,.18.18h3.26a.16.16,0,0,0,.18-.18v-.68A.17.17,0,0,0,74.61,176.59Zm.18,4.15V180c0-.13-.06-.2-.18-.2H71.35c-.12,0-.18.07-.18.2v.7c0,.13.06.19.18.19h3.26C74.73,180.93,74.79,180.87,74.79,180.74Z"/><path class="cls-2" d="M83.39,176a1.2,1.2,0,0,1-.9-.39,1.25,1.25,0,0,1-.37-.91v-.52a1.24,1.24,0,0,1,.37-.9,1.2,1.2,0,0,1,.9-.39h2.4a.23.23,0,0,0,.23-.2c0-.2.23-1.18.54-2.95a1.4,1.4,0,0,1,.53-.89,1.35,1.35,0,0,1,1-.29l.66,0a1.27,1.27,0,0,1,.86.46,1.05,1.05,0,0,1,.25.91c-.09.62-.24,1.53-.45,2.74,0,.12,0,.18.16.18h3.39a4.44,4.44,0,0,1,1.49.32,2.44,2.44,0,0,1,1,.57,4.14,4.14,0,0,1,.44,1.28,8.39,8.39,0,0,1,.24,1.91v3q0,8.42-4.11,8.41a15.31,15.31,0,0,1-3.65-.59,1.23,1.23,0,0,1-.78-.61,1.39,1.39,0,0,1-.12-1l.16-.64a1.18,1.18,0,0,1,.58-.75,1.33,1.33,0,0,1,1-.11,10.56,10.56,0,0,0,2.06.41.51.51,0,0,0,.35-.17,1.58,1.58,0,0,0,.33-.59,6.13,6.13,0,0,0,.28-1c.07-.42.14-1,.19-1.63s.08-1.41.08-2.24a10.32,10.32,0,0,0-.22-3c-.14-.29-.63-.43-1.46-.43H88.9a.23.23,0,0,0-.25.18,89.53,89.53,0,0,1-3.36,11.2,1.3,1.3,0,0,1-.66.74,1.27,1.27,0,0,1-1,.06L83,188a1.14,1.14,0,0,1-.72-.64,1.27,1.27,0,0,1,0-1,92.93,92.93,0,0,0,3-10.2c0-.11,0-.16-.16-.16Zm15.94,6.32c-.81-3-1.74-6-2.79-8.86a1.19,1.19,0,0,1,.82-1.52l.86-.25a1.42,1.42,0,0,1,1,.11,1.37,1.37,0,0,1,.67.77q1.56,4.43,2.79,8.94a1.21,1.21,0,0,1-.14,1,1.17,1.17,0,0,1-.79.58l-.86.2a1.31,1.31,0,0,1-1.57-.93Z"/><path class="cls-2" d="M107.52,181.72a1.26,1.26,0,0,1-.82-.57,1.33,1.33,0,0,1-.2-1c.27-1.51.51-3,.72-4.51a1.43,1.43,0,0,1,.5-.89,1.26,1.26,0,0,1,1-.29l1,.09a1.22,1.22,0,0,1,1.11,1.38c-.12.94-.25,1.79-.37,2.56v0h0a11.7,11.7,0,0,1,6.35-2.06q3.5,0,5.1,1.34a5.12,5.12,0,0,1,1.61,4.17,5.42,5.42,0,0,1-2.57,4.74q-2.58,1.72-7.38,1.72c-1.41,0-2.82-.06-4.24-.2a1.22,1.22,0,0,1-.87-.46,1.32,1.32,0,0,1-.29-.95l0-.54a1.21,1.21,0,0,1,.47-.86,1.26,1.26,0,0,1,.94-.3c1.59.14,2.9.21,3.95.21a8.33,8.33,0,0,0,4.28-.91A2.75,2.75,0,0,0,119.4,182c0-1.62-1-2.42-3.11-2.42a12.47,12.47,0,0,0-5.64,1.92,3.21,3.21,0,0,1-2.36.39ZM110.9,170q4.53.47,8.55.54a1.35,1.35,0,0,1,.92.39,1.19,1.19,0,0,1,.37.9v.52a1.26,1.26,0,0,1-1.27,1.27c-3.09,0-6.07-.22-9-.52a1.27,1.27,0,0,1-1.13-1.43l.07-.54a1.2,1.2,0,0,1,.5-.85A1.31,1.31,0,0,1,110.9,170Z"/><path class="cls-2" d="M127.81,185.78a32.81,32.81,0,0,0,5.36-2.45.11.11,0,0,0,0-.06s0,0-.05,0h-3.76a1.24,1.24,0,0,1-.91-.39,1.21,1.21,0,0,1-.38-.9v0a1.21,1.21,0,0,1,.38-.9,1.24,1.24,0,0,1,.91-.39h.27q.21,0,.21-.18v-.77a.19.19,0,0,0-.21-.21h-1.18a1.23,1.23,0,0,1-.91-.38,1.27,1.27,0,0,1-.38-.91v-.32a1.32,1.32,0,0,1,1.29-1.29h1.18a.18.18,0,0,0,.21-.2v-.73q0-.18-.21-.18h-.5a1.32,1.32,0,0,1-1.29-1.29v0a1.2,1.2,0,0,1,.39-.89,1.23,1.23,0,0,1,.9-.38h6.35c.12,0,.18-.07.18-.2v-.43c0-.12-.06-.18-.2-.18-2.3.06-4.08.09-5.35.09a1.2,1.2,0,0,1-.9-.39,1.26,1.26,0,0,1-.37-.91v0a1.26,1.26,0,0,1,.37-.91,1.23,1.23,0,0,1,.9-.38A132.57,132.57,0,0,0,145,168.7a1.23,1.23,0,0,1,.94.26,1.29,1.29,0,0,1,.49.85l0,.16a1.22,1.22,0,0,1-.25.94,1.19,1.19,0,0,1-.84.49q-2.57.3-5.73.45a.19.19,0,0,0-.21.21v.59c0,.13.06.2.18.2h6.35a1.27,1.27,0,0,1,.91.38,1.2,1.2,0,0,1,.39.89v0a1.24,1.24,0,0,1-.39.91,1.27,1.27,0,0,1-.91.38h-.5c-.13,0-.2.06-.2.18v.73a.18.18,0,0,0,.2.2h1.18a1.24,1.24,0,0,1,.91.39,1.22,1.22,0,0,1,.39.9v.32a1.31,1.31,0,0,1-1.3,1.29h-1.18a.18.18,0,0,0-.2.21v.77c0,.12.07.18.2.18h.28a1.33,1.33,0,0,1,1.29,1.29v0a1.33,1.33,0,0,1-1.29,1.29h-3.77s0,0,0,0,0,.06,0,.07a35,35,0,0,0,5.33,2.41,1.2,1.2,0,0,1,.71.65,1.08,1.08,0,0,1,0,1l-.32.68a1.3,1.3,0,0,1-1.74.65,31.37,31.37,0,0,1-6.35-3.53c-.09-.06-.14,0-.14.09v2.85a1.27,1.27,0,0,1-.38.91,1.24,1.24,0,0,1-.91.39H137a1.33,1.33,0,0,1-1.3-1.3v-2.85c0-.12-.05-.15-.16-.07a31.87,31.87,0,0,1-6.35,3.54,1.18,1.18,0,0,1-1,0,1.32,1.32,0,0,1-.73-.7l-.32-.68a1.18,1.18,0,0,1,0-.94A1.21,1.21,0,0,1,127.81,185.78Zm5.42-10.14v.73a.18.18,0,0,0,.21.2h2.06c.12,0,.18-.07.18-.2v-.73a.16.16,0,0,0-.18-.18h-2.06Q133.23,175.46,133.23,175.64Zm0,4v.77q0,.18.21.18h2.06a.16.16,0,0,0,.18-.18v-.77q0-.21-.18-.21h-2.06A.19.19,0,0,0,133.23,179.68Zm6.17-4v.73c0,.13.06.2.18.2h2.09c.12,0,.18-.07.18-.2v-.73a.16.16,0,0,0-.18-.18h-2.09A.16.16,0,0,0,139.4,175.64Zm0,4v.77a.16.16,0,0,0,.18.18h2.09a.16.16,0,0,0,.18-.18v-.77q0-.21-.18-.21h-2.09Q139.4,179.47,139.4,179.68Z"/><path class="cls-2" d="M153.73,181.36a1.22,1.22,0,0,1-.9-.39,1.24,1.24,0,0,1-.39-.91v-8.95a1.24,1.24,0,0,1,.39-.91,1.22,1.22,0,0,1,.9-.39h1a1.23,1.23,0,0,1,.9.38,1.22,1.22,0,0,1,.37.89v2.52s0,0,0,0,0,0,0,0a7.25,7.25,0,0,1,6-3.33,5.75,5.75,0,0,1,4.61,2,8.4,8.4,0,0,1,1.7,5.6q0,5.35-2.93,7.94t-9.27,2.81a1.16,1.16,0,0,1-.93-.34,1.33,1.33,0,0,1-.43-.9l0-.73a1.23,1.23,0,0,1,.34-.91,1.25,1.25,0,0,1,.88-.4c3.18-.11,5.39-.73,6.65-1.86s1.88-3,1.88-5.61-.94-4.1-2.83-4.1a4.87,4.87,0,0,0-3.64,1.78,8.34,8.34,0,0,0-2.06,4.52,1.59,1.59,0,0,1-.48.92,1.31,1.31,0,0,1-.92.38Z"/><path class="cls-2" d="M173,178.54a1.3,1.3,0,0,1-.81-.6,1.38,1.38,0,0,1-.21-1c.27-1.81.48-3.84.61-6.07a1.26,1.26,0,0,1,.43-.86,1.22,1.22,0,0,1,.91-.32,1.35,1.35,0,0,1,1.23,1.38c0,.09,0,.23,0,.42a3,3,0,0,1,0,.42c0,.14.06.2.18.2h.09c.13,0,.19-.06.19-.18V170a1.21,1.21,0,0,1,.38-.9,1.24,1.24,0,0,1,.91-.39h.84A1.33,1.33,0,0,1,179,170v1.95c0,.12.07.18.2.18h.16a1.31,1.31,0,0,1,1.29,1.3v.38a1.19,1.19,0,0,1-.38.9,1.26,1.26,0,0,1-.91.37h-.16a.18.18,0,0,0-.2.21v3.92c0,.12.07.17.2.14a.49.49,0,0,0,.18,0l.16,0a1,1,0,0,1,.88.14,1,1,0,0,1,.44.78l0,.39v.2a.07.07,0,0,0,0,.07s0,0,.08,0a19.83,19.83,0,0,0,4.17-6.71c0-.11,0-.16-.12-.16h-.45a.25.25,0,0,0-.27.18,21.48,21.48,0,0,1-2.16,3.72,1,1,0,0,1-.79.42,1.06,1.06,0,0,1-.84-.37l-.45-.5a1.57,1.57,0,0,1-.4-1,1.61,1.61,0,0,1,.28-1,20.81,20.81,0,0,0,2.68-5.89,1.6,1.6,0,0,1,.6-.84,1.34,1.34,0,0,1,1-.25l.77.09a1.06,1.06,0,0,1,.8.48,1,1,0,0,1,.13.9l-.14.42-.13.42c0,.12,0,.18.13.18h6a1.23,1.23,0,0,1,.9.38,1.22,1.22,0,0,1,.37.89c0,2.86-.09,5.19-.13,7s-.13,3.39-.24,4.74-.23,2.36-.34,3a4.05,4.05,0,0,1-.56,1.58,1.5,1.5,0,0,1-.74.69,4.19,4.19,0,0,1-1.07.1q-.66,0-2.88-.09a1.4,1.4,0,0,1-.95-.41,1.27,1.27,0,0,1-.43-.92l-.07-1s0,0-.06-.07a.06.06,0,0,0-.08,0,19.24,19.24,0,0,1-2,1.91,1.29,1.29,0,0,1-1,.31,1.47,1.47,0,0,1-.94-.47l-.52-.54a1,1,0,0,1-.31-.86,1.18,1.18,0,0,1,.44-.82,21.5,21.5,0,0,0,4.83-5.32,26.13,26.13,0,0,0,3.18-6.9c0-.14,0-.21-.14-.21h-.36a.25.25,0,0,0-.27.18,28.42,28.42,0,0,1-2.54,5.4,20.66,20.66,0,0,1-3.34,4.22,1.19,1.19,0,0,1-.93.33,1.48,1.48,0,0,1-.93-.42l-.45-.46a1.09,1.09,0,0,1-.32-.9c0-.11,0-.15-.13-.12h0a.05.05,0,0,1,0,0l-.29.08-.28.07a.24.24,0,0,0-.18.25v5.51a1.24,1.24,0,0,1-.39.91,1.22,1.22,0,0,1-.9.39h-.84a1.31,1.31,0,0,1-1.29-1.3v-4.67c0-.13-.06-.19-.19-.16-.53.13-1.14.25-1.83.37a1.16,1.16,0,0,1-.93-.23,1.11,1.11,0,0,1-.48-.84l0-.38a1.44,1.44,0,0,1,1.14-1.5c1-.18,1.69-.33,2.15-.43a.23.23,0,0,0,.19-.25v-4.76c0-.14-.06-.21-.19-.21h-.34c-.1,0-.17.07-.2.21-.06.6-.17,1.4-.32,2.38a1.1,1.1,0,0,1-.52.79,1.13,1.13,0,0,1-.93.14Zm16.38,3a.11.11,0,0,0-.1-.05,24.29,24.29,0,0,1-3,4.54c-.06.09,0,.13.09.13,1.06.06,1.72.09,2,.09a.52.52,0,0,0,.45-.27,4.13,4.13,0,0,0,.31-1.33C189.24,183.93,189.33,182.89,189.41,181.52Z"/><path class="cls-2" d="M196.21,183.1l-.82-.75a1.32,1.32,0,0,1-.42-.9,1.39,1.39,0,0,1,.31-1c.39-.47,1.24-1.52,2.54-3.17.83-1.06,1.45-1.84,1.87-2.33a7.9,7.9,0,0,1,1.27-1.21,3,3,0,0,1,1.1-.57,7,7,0,0,1,1.29-.09,6.82,6.82,0,0,1,1.17.07,3.67,3.67,0,0,1,1.16.58,14.66,14.66,0,0,1,1.6,1.28l2.65,2.49q3.58,3.4,5.46,5.13a1.33,1.33,0,0,1,.43.89,1.24,1.24,0,0,1-.31,1l-.84.95a1.19,1.19,0,0,1-.88.43,1.22,1.22,0,0,1-.91-.34q-3.27-3-6.74-6.33c-1.07-1-1.76-1.66-2.06-1.89a1.36,1.36,0,0,0-.82-.35,1.23,1.23,0,0,0-.83.36,16.49,16.49,0,0,0-1.46,1.79c-1.48,1.92-2.49,3.21-3,3.88a1.13,1.13,0,0,1-.84.44A1.19,1.19,0,0,1,196.21,183.1Z"/><path class="cls-2" d="M82.82,213.28a1,1,0,0,1-.84.15,1.25,1.25,0,0,1-.72-.49,1.15,1.15,0,0,1-.21-.85c.32-2,.59-4,.82-6.08a1,1,0,0,1,.42-.73,1.13,1.13,0,0,1,.83-.24.87.87,0,0,1,.56.25.11.11,0,0,0,.11,0s0,0,0-.07v-3.38a1.25,1.25,0,0,1,.38-.9,1.2,1.2,0,0,1,.89-.39h.73a1.18,1.18,0,0,1,.89.39,1.25,1.25,0,0,1,.38.9v2.72a.09.09,0,0,0,.06.08.08.08,0,0,0,.1,0l.27-.13a1.07,1.07,0,0,1,.86,0,1.16,1.16,0,0,1,.57.64q.41,1.2.81,2.67a1.22,1.22,0,0,1-.79,1.5,1,1,0,0,1-.88-.08,1.08,1.08,0,0,1-.55-.69c-.07-.3-.2-.76-.38-1.36,0,0,0,0,0,0s0,0,0,0V220a1.27,1.27,0,0,1-.38.91,1.18,1.18,0,0,1-.89.39h-.73a1.2,1.2,0,0,1-.89-.39,1.27,1.27,0,0,1-.38-.91V208.89l0,0c-.2,1.6-.37,2.83-.52,3.7A1,1,0,0,1,82.82,213.28Zm14.47-.1c-.14,0-.17.06-.11.18q1.13,2.47,4.83,4.47a1.24,1.24,0,0,1,.61.75,1.17,1.17,0,0,1-.09.95l-.43.75a1.32,1.32,0,0,1-.78.63,1.19,1.19,0,0,1-1-.11,14.61,14.61,0,0,1-5.17-5c-.08-.11-.14-.12-.2,0a13.64,13.64,0,0,1-5.31,5.11,1.32,1.32,0,0,1-1,.08,1.52,1.52,0,0,1-.81-.65l-.47-.79a1.1,1.1,0,0,1-.1-.92,1.08,1.08,0,0,1,.6-.72,12.39,12.39,0,0,0,3.06-2,6.31,6.31,0,0,0,1.63-2.48c0-.12,0-.18-.11-.18H89a1.33,1.33,0,0,1-1.3-1.29v-.37a1.33,1.33,0,0,1,1.3-1.29h3.9a.16.16,0,0,0,.18-.18v-3.58q0-.21-.18-.21H90.44A1.32,1.32,0,0,1,89.15,205v-.45a1.24,1.24,0,0,1,.39-.91,1.2,1.2,0,0,1,.9-.39h2.41c.12,0,.18-.06.18-.2v-1.29a1.23,1.23,0,0,1,.38-.9,1.26,1.26,0,0,1,.91-.37h1a1.26,1.26,0,0,1,.91.37,1.19,1.19,0,0,1,.38.9V203c0,.14.06.2.19.2h3.71a1.23,1.23,0,0,1,.91.39,1.24,1.24,0,0,1,.39.91v5.57c0,.1,0,.14.13.14a1,1,0,0,1,1,1v.68a1.33,1.33,0,0,1-1.29,1.29Zm-.54-3h1.54a.16.16,0,0,0,.18-.18v-3.58q0-.21-.18-.21H96.75c-.13,0-.19.07-.19.21v3.58C96.56,210.17,96.62,210.23,96.75,210.23Z"/><path class="cls-2" d="M105.48,211.86a1.23,1.23,0,0,1-.9-.38,1.26,1.26,0,0,1-.37-.91v-.36a1.26,1.26,0,0,1,.37-.91,1.19,1.19,0,0,1,.9-.38h2.76a1.31,1.31,0,0,1,1.3,1.29v5.85a.71.71,0,0,0,.09.36,2.84,2.84,0,0,0,1.29,1.12,8.57,8.57,0,0,0,2.61.51c1.21.11,3,.16,5.44.16h4.94a1.17,1.17,0,0,1,.88.38,1.2,1.2,0,0,1,.33.89v.32a1.28,1.28,0,0,1-.44.92,1.34,1.34,0,0,1-1,.37h-4.65a42.54,42.54,0,0,1-6.83-.41,8.32,8.32,0,0,1-3.67-1.36.23.23,0,0,0-.29,0c-.58.49-1.17,1-1.79,1.39a1.18,1.18,0,0,1-1.7-.39l-.34-.57a1.25,1.25,0,0,1-.16-1,1.32,1.32,0,0,1,.57-.83l1.06-.77a.38.38,0,0,0,.18-.31V212c0-.12-.07-.18-.2-.18Zm1.81-10c1,1.07,1.75,1.86,2.2,2.36a1.19,1.19,0,0,1,.33.93,1.28,1.28,0,0,1-.42.9l-.41.37a1.23,1.23,0,0,1-.91.34,1.26,1.26,0,0,1-.88-.41c-.48-.52-1.23-1.3-2.24-2.36a1.25,1.25,0,0,1-.36-.91,1.19,1.19,0,0,1,.4-.88l.46-.41a1.19,1.19,0,0,1,.92-.34A1.27,1.27,0,0,1,107.29,201.91Zm15.13,2.38c-.12.33-.28.71-.46,1.13q-.09.18.12.18h1.27a1.2,1.2,0,0,1,.89.39,1.27,1.27,0,0,1,.38.91v6.6a14.25,14.25,0,0,1-.18,2.73,1.53,1.53,0,0,1-.62,1.05,3.27,3.27,0,0,1-1.54.25l-2.58-.09a.72.72,0,0,1-.47-.2.64.64,0,0,1-.21-.46c0-.07,0-.11-.12-.11H117c-.08,0-.12,0-.12.11a.65.65,0,0,1-.68.68h-.59a1.22,1.22,0,0,1-.89-.37,1.23,1.23,0,0,1-.38-.9v-3a1.2,1.2,0,0,1,.39-.9,1.26,1.26,0,0,1,.91-.37h.2c.14,0,.2-.07.2-.21v-.38c0-.12-.06-.19-.2-.19h-.75a1.06,1.06,0,0,1-.78-.32A1.07,1.07,0,0,1,114,210a1,1,0,0,1,.33-.77,1.09,1.09,0,0,1,.78-.31h.75c.14,0,.2-.07.2-.21v-.27c0-.12-.06-.18-.2-.18h-2c-.14,0-.2.06-.2.18v7.8a1.27,1.27,0,0,1-.38.91,1.23,1.23,0,0,1-.89.38h-.57a1.27,1.27,0,0,1-.91-.38,1.23,1.23,0,0,1-.38-.91V206.9a1.31,1.31,0,0,1,1.29-1.3h1.13c.12,0,.17-.06.14-.2l-.34-1.09a.25.25,0,0,0-.25-.18h-1.36a1.24,1.24,0,0,1-.91-.39,1.19,1.19,0,0,1-.38-.9v-.09a1.31,1.31,0,0,1,1.29-1.3h4.35q.21,0,.21-.18a1.25,1.25,0,0,1,.36-.89,1.19,1.19,0,0,1,.88-.38H118a1.23,1.23,0,0,1,.9.38,1.22,1.22,0,0,1,.37.89.16.16,0,0,0,.18.18h4.31a1.33,1.33,0,0,1,1.3,1.3v.09a1.2,1.2,0,0,1-.39.9,1.24,1.24,0,0,1-.91.39h-1.06A.23.23,0,0,0,122.42,204.29Zm-3.88,1.13c.12-.24.29-.62.5-1.13,0-.11,0-.16-.14-.16h-2.67c-.12,0-.17.07-.14.2s.17.61.29,1.09a.24.24,0,0,0,.25.18h1.61A.28.28,0,0,0,118.54,205.42Zm-.23,9.14v-.81c0-.13-.07-.19-.2-.19h-1c-.14,0-.21.06-.21.19v.81q0,.18.21.18h1C118.24,214.74,118.31,214.68,118.31,214.56Zm3.11-.41v-5.71q0-.18-.21-.18h-2c-.13,0-.2.06-.2.18v.27a.18.18,0,0,0,.2.21H120a1.06,1.06,0,0,1,.77.31,1,1,0,0,1,.31.77,1.09,1.09,0,0,1-.31.79,1,1,0,0,1-.77.32h-.78a.18.18,0,0,0-.2.19v.38a.18.18,0,0,0,.2.21h.21a1.26,1.26,0,0,1,.91.37,1.23,1.23,0,0,1,.38.9v1.31a.19.19,0,0,0,.21.21H121a.53.53,0,0,0,.33-.07A1,1,0,0,0,121.42,214.15Z"/><path class="cls-2" d="M128.29,217.33a1.2,1.2,0,0,1-.71-.65,1.19,1.19,0,0,1,0-1q1.54-4.11,2.91-8.85c0-.12,0-.18-.14-.18H128.9a1.22,1.22,0,0,1-.9-.37,1.2,1.2,0,0,1-.39-.9v-.54a1.2,1.2,0,0,1,.39-.9,1.22,1.22,0,0,1,.9-.37h2.25a.22.22,0,0,0,.23-.18c.18-.73.31-1.28.4-1.66a1.37,1.37,0,0,1,.57-.84,1.41,1.41,0,0,1,1-.25l.72.09a1.16,1.16,0,0,1,.82.49,1.08,1.08,0,0,1,.18.92c0,.14-.07.34-.14.62s-.1.49-.13.63,0,.18.16.18H137a1.26,1.26,0,0,1,.91.37,1.19,1.19,0,0,1,.38.9v.54a1.19,1.19,0,0,1-.38.9,1.26,1.26,0,0,1-.91.37h-2.86c-.12,0-.19.07-.22.21q-1.32,4.89-3.22,9.91a1.25,1.25,0,0,1-.67.72,1.31,1.31,0,0,1-1,.05Zm15.63-10.52c-.13,0-.19.06-.19.18v6.37a.35.35,0,0,0,.16.29,28.21,28.21,0,0,1,3,2.43,1.29,1.29,0,0,1,.07,1.82l-.41.45a1.3,1.3,0,0,1-.91.42,1.28,1.28,0,0,1-.95-.33c-.38-.35-.74-.67-1.09-.95a.12.12,0,0,0-.12,0,.16.16,0,0,0-.11.1c-.66,2-2.38,3-5.14,3a6.31,6.31,0,0,1-4.14-1.23,4.42,4.42,0,0,1,0-6.59,7.43,7.43,0,0,1,6-1c.12,0,.18,0,.18-.14v-6.73a1.21,1.21,0,0,1,.4-.91,1.16,1.16,0,0,1,.92-.36c1.86,0,3.47.14,4.83.29a1.17,1.17,0,0,1,.85.48,1.26,1.26,0,0,1,.26,1l-.07.55a1.26,1.26,0,0,1-.49.84,1.22,1.22,0,0,1-.94.24C145.4,206.89,144.7,206.84,143.92,206.81Zm-5.67,10.81a2,2,0,0,0,1.56-.5,3,3,0,0,0,.43-1.92.29.29,0,0,0-.18-.3,4,4,0,0,0-1.81-.47,2.6,2.6,0,0,0-1.61.42,1.34,1.34,0,0,0-.55,1.14,1.42,1.42,0,0,0,.57,1.19A2.51,2.51,0,0,0,138.25,217.62Z"/><path class="cls-2" d="M168.41,204.88a.13.13,0,0,0-.11.06.08.08,0,0,0,0,.1l.49.77a1.1,1.1,0,0,1,.17.95,1.19,1.19,0,0,1-.57.79c-.37.23-.78.47-1.25.71a.24.24,0,0,0-.14.29c.11.92.21,1.64.32,2.13,0,0,0,.08.09.08a.11.11,0,0,0,.11,0l.75-.54a1.1,1.1,0,0,1,.92-.24,1.06,1.06,0,0,1,.78.51l.21.31a1.47,1.47,0,0,1,.2,1,1.44,1.44,0,0,1-.52.91c-.67.52-1.16.89-1.5,1.14-.12.09-.16.19-.11.29a16,16,0,0,0,1.91,3.7,1.52,1.52,0,0,1,.3,1,1.48,1.48,0,0,1-.37,1l-.73.79a1.08,1.08,0,0,1-.85.38,1,1,0,0,1-.8-.42q-2.47-3.54-3.45-10.69c0-.12-.1-.15-.2-.09l-.12.05c-.06,0-.1,0-.11.07a.25.25,0,0,0-.18.27V220a1.2,1.2,0,0,1-.39.9,1.26,1.26,0,0,1-.91.37h-.93a1.24,1.24,0,0,1-.9-.37,1.2,1.2,0,0,1-.39-.9v-8.59c0-.11,0-.15-.13-.12a1,1,0,0,1-.76-.06,1.11,1.11,0,0,1-.54-.57l-.2-.59s-.05,0-.07,0c0,2.16,0,3.9-.1,5.2s-.13,2.38-.22,3.21a4.49,4.49,0,0,1-.46,1.78,1.61,1.61,0,0,1-.67.68,2.67,2.67,0,0,1-1,.15l-1.5-.09a1.46,1.46,0,0,1-1.34-1.41l0-1.38s0,0,0,0,0,0,0,0a19.24,19.24,0,0,1-.79,2.18.9.9,0,0,1-.67.51,1,1,0,0,1-.83-.24l-.77-.73a1.67,1.67,0,0,1-.51-1,2,2,0,0,1,.1-1.1q1.32-3.47,1.32-11.79c0-.11-.07-.16-.2-.16h0a1.2,1.2,0,0,1-.9-.39,1.22,1.22,0,0,1-.39-.9v-.48a1.32,1.32,0,0,1,1.29-1.29h1.43a.16.16,0,0,0,.18-.18v-1.07a1.2,1.2,0,0,1,.39-.9,1.3,1.3,0,0,1,.91-.37h.93a1.28,1.28,0,0,1,.9.37,1.2,1.2,0,0,1,.39.9v1.07c0,.12.07.18.2.18h1.52a1.27,1.27,0,0,1,.91.38,1.23,1.23,0,0,1,.38.91c0,.11,0,.13.09.07a23.25,23.25,0,0,0,1.91-3.11,1.67,1.67,0,0,1,.76-.75,1.53,1.53,0,0,1,1.05-.11l.77.18a1,1,0,0,1,.67.53,1,1,0,0,1,0,.85c0,.1,0,.14.09.14h5a1.32,1.32,0,0,1,1.29,1.29v.39a1.21,1.21,0,0,1-.38.89,1.27,1.27,0,0,1-.91.38Zm-13.93,13a.4.4,0,0,0,.35-.14,2.48,2.48,0,0,0,.21-.86,17,17,0,0,0,.12-2.1c0-.91,0-2.24,0-4a.18.18,0,0,0-.21-.2h-.66a.18.18,0,0,0-.2.2,35.13,35.13,0,0,1-.86,6.69c0,.13,0,.2.13.23A5.14,5.14,0,0,0,154.48,217.85Zm5.17-9.66a.12.12,0,0,0,.06-.08.1.1,0,0,0,0-.1l-1.46-.93a1,1,0,0,1-.49-1c0-.11,0-.16-.14-.16a.11.11,0,0,0-.07,0h-3.08q-.21,0-.21.18v1.25c0,.13.06.2.18.2h2.75a1.32,1.32,0,0,1,1.29,1.29v.07s0,.05,0,.05l0,0a1.26,1.26,0,0,1,.7-.59ZM167,205a.11.11,0,0,0,0-.06s0,0,0,0h-4.24a.33.33,0,0,0-.29.16,23.6,23.6,0,0,1-2.11,2.83s0,.06,0,.07a0,0,0,0,0,0,0A48.26,48.26,0,0,0,167,205Z"/><circle class="cls-1" cx="126" cy="31.83" r="30.42"/><path class="cls-2" d="M126,2.83a29,29,0,1,1-29,29,29,29,0,0,1,29-29M126,0a31.84,31.84,0,1,0,31.83,31.83A31.87,31.87,0,0,0,126,0Z"/><path class="cls-2" d="M141.58,19.38H109.3A2.4,2.4,0,0,0,107,21l-2.35,7.21a6.86,6.86,0,0,0-.33,2.16V40.65h5.36v-.17a5.16,5.16,0,0,1,10.32,0c0,.06,0,.11,0,.17h12.75a1,1,0,0,1,0-.17,5.16,5.16,0,1,1,10.32,0,1,1,0,0,1,0,.17h4.56V25.44A6.06,6.06,0,0,0,141.58,19.38ZM112.68,33.5a.62.62,0,0,1-.62.61h-3.41a.61.61,0,0,1-.61-.61V30.35a3.75,3.75,0,0,1,.19-1.19l2-6.14a.61.61,0,0,1,.59-.43h1.25a.62.62,0,0,1,.62.61Zm10.89-4.75a.3.3,0,0,1-.31.3h-7.07a.29.29,0,0,1-.3-.3V22.9a.3.3,0,0,1,.3-.31h7.07a.31.31,0,0,1,.31.31Zm10.52,0a.29.29,0,0,1-.3.3h-7.33a.3.3,0,0,1-.31-.3V22.9a.31.31,0,0,1,.31-.31h7.33a.3.3,0,0,1,.3.31Zm9.87-.31a.61.61,0,0,1-.61.61h-5.66a.61.61,0,0,1-.61-.61V23.2a.61.61,0,0,1,.61-.61H141a3,3,0,0,1,3,2.95Z"/><path class="cls-2" d="M114.88,36.67a3.81,3.81,0,1,0,3.81,3.81A3.81,3.81,0,0,0,114.88,36.67Zm0,5.41a1.6,1.6,0,1,1,1.59-1.6A1.6,1.6,0,0,1,114.88,42.08Z"/><path class="cls-2" d="M137.93,36.67a3.81,3.81,0,1,0,3.81,3.81A3.82,3.82,0,0,0,137.93,36.67Zm0,5.41a1.6,1.6,0,1,1,1.59-1.6A1.6,1.6,0,0,1,137.93,42.08Z"/><path class="cls-3" d="M29.85,109.6s19.24,31.51,90.71,33.05L126,152.9l5.44-10.25c71.47-1.54,90.71-33.05,90.71-33.05"/></g></g></svg>