<svg xmlns="http://www.w3.org/2000/svg" viewBox="0 0 252 254.85"><defs><style>.cls-1{fill:#53b98d;}.cls-2{fill:#fff;}.cls-3,.cls-5,.cls-6{fill:none;}.cls-3{stroke:#fff;stroke-linecap:round;stroke-linejoin:round;stroke-width:1.42px;}.cls-4{fill:#a674b0;}.cls-5,.cls-6{stroke:#53b98d;stroke-miterlimit:10;}.cls-5{stroke-width:0.71px;}.cls-6{stroke-width:0.57px;}</style></defs><g id="レイヤー_2" data-name="レイヤー 2"><g id="base"><rect class="cls-1" y="20.85" width="252" height="234" rx="50"/><path class="cls-2" d="M44.69,178.76c-.12,0-.18.07-.18.2v.37c0,.13.06.2.18.2h2.88a1.23,1.23,0,0,1,1.22,1.22,1.2,1.2,0,0,1-.36.87,1.18,1.18,0,0,1-.86.36H44.69c-.12,0-.18.07-.18.2v.39a.16.16,0,0,0,.18.18h3.08a1.24,1.24,0,0,1,.91.39,1.22,1.22,0,0,1,.39.9v.05a1.24,1.24,0,0,1-.39.91,1.27,1.27,0,0,1-.91.38H44.69a.16.16,0,0,0-.18.18,1.28,1.28,0,0,1-.16.59.08.08,0,0,0,0,.1.11.11,0,0,0,.1.06h3.65a1.2,1.2,0,0,1,1.2,1.27l0,.32a1.27,1.27,0,0,1-.43.92,1.35,1.35,0,0,1-1,.37H44a22.58,22.58,0,0,1-4.8-.42A8.24,8.24,0,0,1,36,187.31c-.12-.09-.2-.08-.25,0a14.29,14.29,0,0,1-.86,1.25.9.9,0,0,1-.81.34,1,1,0,0,1-.76-.46l-.38-.56a1.61,1.61,0,0,1-.26-1.05,1.75,1.75,0,0,1,.42-1c.25-.34.47-.62.63-.86a.24.24,0,0,0,0-.32c-.31-.53-.66-1.16-1-1.88l0-.08a.27.27,0,0,1,0-.08l-.06,0v5.44a1.27,1.27,0,0,1-.38.91,1.19,1.19,0,0,1-.89.38h-.62a1.19,1.19,0,0,1-.9-.38,1.24,1.24,0,0,1-.39-.91v-7.44s0,0,0,0l-.06,0-.09.15a.71.71,0,0,0-.09.15.47.47,0,0,1-.54.22.48.48,0,0,1-.41-.43l-.32-1.65a3.81,3.81,0,0,1,.38-2.41,24,24,0,0,0,2.16-6.82,1.44,1.44,0,0,1,.51-.9,1.41,1.41,0,0,1,1-.33l.71,0a1.11,1.11,0,0,1,1.08.74c.06.12.14.16.23.12a1.25,1.25,0,0,1,.43-.07H36.5a1.26,1.26,0,0,1,.91.37,1.2,1.2,0,0,1,.39.9v.38a6.93,6.93,0,0,1-.43,2.5A20.59,20.59,0,0,1,36.21,176a.08.08,0,0,0,0,.11.1.1,0,0,0,.1.07h.36a1.27,1.27,0,0,1,.91.38,1.24,1.24,0,0,1,.39.91v1.57a23.59,23.59,0,0,1-1,5.28.32.32,0,0,0,.09.34,6.84,6.84,0,0,0,4,1.5c.09,0,.12-.06.07-.18a1,1,0,0,1-.09-.46.16.16,0,0,0-.18-.18H39a1.3,1.3,0,0,1-1.29-1.29V184A1.32,1.32,0,0,1,39,182.75h1.84a.16.16,0,0,0,.18-.18v-.39c0-.13-.06-.2-.18-.2H39.45a1.18,1.18,0,0,1-.86-.36,1.2,1.2,0,0,1-.36-.87,1.23,1.23,0,0,1,1.22-1.22h1.41c.12,0,.18-.07.18-.2V179c0-.13-.06-.2-.18-.2H39.68a1.18,1.18,0,1,1,0-2.36h1.18a.16.16,0,0,0,.18-.18v-.39c0-.13-.06-.2-.18-.2H38.7a1.22,1.22,0,0,1-.9-.39,1.2,1.2,0,0,1-.39-.9v-.12a1.33,1.33,0,0,1,1.29-1.29h2.16c.12,0,.18-.07.18-.2v-.34q0-.21-.18-.21h-1.3a1.19,1.19,0,0,1-.87-.36,1.23,1.23,0,0,1,0-1.72,1.16,1.16,0,0,1,.87-.37H40.9c.09,0,.14,0,.14-.13a1,1,0,0,1,1-.95h1.57a.88.88,0,0,1,.66.28.92.92,0,0,1,.29.67c0,.09,0,.13.13.13h2.61a1.31,1.31,0,0,1,1.29,1.3v1.76a.12.12,0,0,0,.14.14.81.81,0,0,1,.61.25.82.82,0,0,1,.25.61v1a.82.82,0,0,1-.25.61.81.81,0,0,1-.61.25.12.12,0,0,0-.14.14v1.72a1.16,1.16,0,0,1-.38.89,1.27,1.27,0,0,1-.91.38Zm-9.59,2.77a22.52,22.52,0,0,0,.32-2.27.17.17,0,0,0-.19-.18h-.9a1.33,1.33,0,0,1-1.3-1.3v-.27a4.86,4.86,0,0,1,.66-2.4c.47-.85.89-1.69,1.27-2.54.06-.12,0-.18-.11-.18h-.57a1.28,1.28,0,0,1-.77-.28c-.09-.06-.15,0-.18.07-.2,1.08-.44,2.13-.73,3.15a1.43,1.43,0,0,0-.06.39v5.6s0,0,.06,0a1.86,1.86,0,0,1,.41-.65l.18-.19a.84.84,0,0,1,.77-.24.76.76,0,0,1,.64.47c0,.06.09.19.17.39l.19.43s0,0,.07,0A.12.12,0,0,0,35.1,181.53Zm9.41-9.14v.34c0,.13.06.2.18.2h.88a.18.18,0,0,0,.21-.2v-.34a.19.19,0,0,0-.21-.21h-.88Q44.51,172.18,44.51,172.39Zm0,3.44v.39a.16.16,0,0,0,.18.18h.88q.21,0,.21-.18v-.39a.18.18,0,0,0-.21-.2h-.88C44.57,175.63,44.51,175.7,44.51,175.83Z"/><path class="cls-2" d="M52.36,188.6l-.89-1.11a2.25,2.25,0,0,1-.29-2.22A14.12,14.12,0,0,0,51.8,182c.11-1.27.17-3.21.17-5.82v-5a1.2,1.2,0,0,1,.39-.9,1.22,1.22,0,0,1,.9-.37h6.85c.12,0,.18-.07.18-.2v-.28a1.33,1.33,0,0,1,1.29-1.29h1.14a1.2,1.2,0,0,1,.9.39,1.22,1.22,0,0,1,.39.9v.28c0,.13.06.2.18.2H70.7A1.26,1.26,0,0,1,72,171.23v.29a1.26,1.26,0,0,1-1.27,1.27H65.64a.18.18,0,0,0-.2.21v.23a.18.18,0,0,0,.2.2h4.11A1.32,1.32,0,0,1,71,174.72v1.43c0,.11,0,.16.14.16a1,1,0,0,1,1,1v.45a1,1,0,0,1-.3.73,1,1,0,0,1-.72.29.13.13,0,0,0-.14.14v1.45a1.3,1.3,0,0,1-.29.82.17.17,0,0,0,0,.13.15.15,0,0,0,.08.12l0,0a.05.05,0,0,0,0,0l.12.09a1.31,1.31,0,0,1,.45.89,1.21,1.21,0,0,1-.32.94c-.45.5-.91,1-1.38,1.45a.22.22,0,0,0,0,.14.1.1,0,0,0,.07.11q.45.3,1.41.84a1.23,1.23,0,0,1,.6.74,1.12,1.12,0,0,1-.13.94l-.27.45a1.29,1.29,0,0,1-1.79.48,16.63,16.63,0,0,1-4-3.38.07.07,0,0,0-.08,0s-.06,0-.06.05c0,.7,0,1.24,0,1.64a5,5,0,0,1-.18,1.11,2.42,2.42,0,0,1-.34.75,1.41,1.41,0,0,1-.65.38,3.55,3.55,0,0,1-1,.19c-.34,0-.82,0-1.44,0l-1.13,0a1.51,1.51,0,0,1-1-.42,1.29,1.29,0,0,1-.42-.94v-.32a1.08,1.08,0,0,1,.33-.86,1,1,0,0,1,.87-.32l.61,0q.49,0,.6-.12a1.75,1.75,0,0,0,.1-.81v-3.67c0-.14-.06-.21-.2-.21H57.19a1.1,1.1,0,0,1-.79-.32,1.07,1.07,0,0,1-.33-.79,1,1,0,0,1,.33-.77,1.1,1.1,0,0,1,.79-.32h4.44c.14,0,.2-.06.2-.2V179c0-.13-.06-.19-.2-.19H55.58c-.13,0-.19.07-.19.21a32.27,32.27,0,0,1-.38,5.51,15.25,15.25,0,0,1-1.25,4,.75.75,0,0,1-.66.44A.83.83,0,0,1,52.36,188.6Zm2.9-2.56c.87-.52,1.46-.88,1.77-1.09.1-.09.11-.18,0-.27-.27-.27-.48-.49-.61-.64a1.15,1.15,0,0,1-.35-.88,1.18,1.18,0,0,1,.39-.89l.09-.09a1.28,1.28,0,0,1,.94-.35,1.25,1.25,0,0,1,.92.4c.09.09.23.23.4.42s.31.33.4.42a.17.17,0,0,0,.27,0l0,0a1.23,1.23,0,0,1,.93-.29,1.2,1.2,0,0,1,.84.47l0,0a1.41,1.41,0,0,1,.3,1,1.28,1.28,0,0,1-.44.92A29.2,29.2,0,0,1,57,188.42a1.23,1.23,0,0,1-1,.18,1.37,1.37,0,0,1-.85-.57l-.25-.31a1.15,1.15,0,0,1-.19-.92A1.07,1.07,0,0,1,55.26,186Zm.13-13v3.11c0,.13.06.2.19.2h6.05a.18.18,0,0,0,.2-.2v-.28a.18.18,0,0,0-.2-.2H57.19a1.1,1.1,0,0,1-.79-.32,1,1,0,0,1-.33-.77,1.13,1.13,0,0,1,1.12-1.11h4.44a.18.18,0,0,0,.2-.2V173c0-.14-.06-.21-.2-.21H55.58C55.45,172.79,55.39,172.86,55.39,173Zm10,2.83v.28a.18.18,0,0,0,.2.2h2a.18.18,0,0,0,.2-.2v-.28a.18.18,0,0,0-.2-.2h-2A.18.18,0,0,0,65.44,175.83Zm0,3.16v.29a.18.18,0,0,0,.2.2h2c.14,0,.2-.06.2-.2V179c0-.13-.06-.19-.2-.19h-2C65.51,178.8,65.44,178.86,65.44,179Zm2.18,4.17c.15-.14.58-.58,1.29-1.34,0,0,0,0,0-.08a.07.07,0,0,0-.07-.06H66.17c-.11,0-.13,0-.07.14a14.67,14.67,0,0,0,1.22,1.36C67.4,183.26,67.5,183.25,67.62,183.16Z"/><path class="cls-2" d="M75.05,189a1.2,1.2,0,0,1-.89-.39,1.24,1.24,0,0,1-.37-.9V172.61a1.28,1.28,0,0,1,1.26-1.27h1.07c.15,0,.24-.05.25-.16.2-.65.35-1.2.45-1.67a1.49,1.49,0,0,1,.59-.85,1.35,1.35,0,0,1,1-.26l.86.11a1.1,1.1,0,0,1,.81.47,1.13,1.13,0,0,1,.17.91c-.08.29-.19.71-.34,1.25,0,.14,0,.2.13.2h1.43a1.27,1.27,0,0,1,.91.38,1.2,1.2,0,0,1,.39.89v1.3s0,.05,0,.05a0,0,0,0,0,.06,0,23.08,23.08,0,0,0,1.92-4.49,1.6,1.6,0,0,1,.63-.85,1.41,1.41,0,0,1,1-.24l.8.09a1.1,1.1,0,0,1,.8.49,1,1,0,0,1,.13.92l-.14.42-.13.42c0,.12,0,.18.13.18H93.2a1.22,1.22,0,0,1,.89.37,1.23,1.23,0,0,1,.38.9c0,2.12-.07,3.94-.1,5.46s-.09,2.92-.15,4.15-.13,2.26-.2,3.06a14.58,14.58,0,0,1-.29,2.06,10.44,10.44,0,0,1-.36,1.31,1.77,1.77,0,0,1-.49.71,1.33,1.33,0,0,1-.6.31,3.82,3.82,0,0,1-.76.06c-.59,0-1.88,0-3.88-.09a1.33,1.33,0,0,1-.93-.41,1.42,1.42,0,0,1-.43-.93l0-.5a1.09,1.09,0,0,1,.34-.86,1.14,1.14,0,0,1,.88-.34c1,0,1.77.07,2.41.07a.3.3,0,0,0,.24-.11,1.59,1.59,0,0,0,.21-.53,6.15,6.15,0,0,0,.18-1.2q.08-.8.15-2.13c0-.89.1-2,.15-3.32s.09-2.92.13-4.8c0-.13-.06-.2-.18-.2h-4a.27.27,0,0,0-.28.18c-.46,1-.92,1.81-1.36,2.54a.08.08,0,0,0,0,.08s.05,0,.06,0l.68-.34a1.42,1.42,0,0,1,1-.07,1.34,1.34,0,0,1,.78.64q1.09,2,1.86,3.78a1.25,1.25,0,0,1,0,1,1.27,1.27,0,0,1-.71.71l-.52.2a1.17,1.17,0,0,1-1,0,1.35,1.35,0,0,1-.71-.68,44.26,44.26,0,0,0-2.11-4.13.14.14,0,0,0-.11,0s-.08,0-.09,0a1,1,0,0,1-.67.4,1.07,1.07,0,0,1-.76-.17c-.11-.08-.16-.05-.16.09v7.94a1.22,1.22,0,0,1-.37.89,1.23,1.23,0,0,1-.9.38H77.32a.18.18,0,0,0-.2.2v.14A1.33,1.33,0,0,1,75.83,189Zm2.07-14.54v3.29a.18.18,0,0,0,.2.21h2q.18,0,.18-.21v-3.29a.16.16,0,0,0-.18-.18h-2C77.19,174.29,77.12,174.35,77.12,174.47Zm0,6.53v3.34a.18.18,0,0,0,.2.2h2c.12,0,.18-.07.18-.2V181c0-.13-.06-.2-.18-.2h-2A.18.18,0,0,0,77.12,181Z"/><path class="cls-2" d="M100.07,188.35a1.42,1.42,0,0,1-1.57-1.11,40.54,40.54,0,0,1,0-16.42,1.38,1.38,0,0,1,.57-.86,1.43,1.43,0,0,1,1-.25l1.06.11a1.06,1.06,0,0,1,.8.47,1.19,1.19,0,0,1,.18.94,39.89,39.89,0,0,0,0,15.6,1.19,1.19,0,0,1-.18.94,1.06,1.06,0,0,1-.8.47Zm10.36-.72a8.9,8.9,0,0,1-5.1-1.27,4,4,0,0,1-1.84-3.43A4.7,4.7,0,0,1,104,181a10,10,0,0,1,1.43-2.17,1.18,1.18,0,0,1,.9-.43,1.38,1.38,0,0,1,1,.32l.53.38a1.1,1.1,0,0,1,.44.84,1.3,1.3,0,0,1-.29.93,3.47,3.47,0,0,0-.92,1.81,1.3,1.3,0,0,0,.79,1.24,6,6,0,0,0,2.56.4,23,23,0,0,0,3.72-.34,1.26,1.26,0,0,1,.95.2,1.2,1.2,0,0,1,.52.82l.09.66a1.29,1.29,0,0,1-.21,1,1.19,1.19,0,0,1-.83.55A21.93,21.93,0,0,1,110.43,187.63ZM114,171.18a1.24,1.24,0,0,1,.91.39,1.27,1.27,0,0,1,.38.91v.61a1.3,1.3,0,0,1-1.29,1.29h-7.23a1.25,1.25,0,0,1-.91-.38,1.24,1.24,0,0,1-.39-.91v-.61a1.24,1.24,0,0,1,.39-.91,1.23,1.23,0,0,1,.91-.39Z"/><path class="cls-2" d="M118.84,181l-.31-1.86a3.35,3.35,0,0,1,.52-2.31,22.42,22.42,0,0,0,2.74-7,1.34,1.34,0,0,1,1.52-1l.8.14a1.36,1.36,0,0,1,.82.54,1.22,1.22,0,0,1,.22,1,24.89,24.89,0,0,1-1.29,4.44,1.08,1.08,0,0,0-.09.39V188.1a1.27,1.27,0,0,1-.38.91,1.19,1.19,0,0,1-.89.38h-.89a1.16,1.16,0,0,1-.89-.38,1.27,1.27,0,0,1-.38-.91v-7.39a.05.05,0,0,0,0-.06h-.07a2.81,2.81,0,0,1-.18.28,2,2,0,0,0-.18.27.55.55,0,0,1-.59.21A.52.52,0,0,1,118.84,181Zm21.41-7a1.27,1.27,0,0,1-.38.91,1.24,1.24,0,0,1-.91.39H126.15a1.2,1.2,0,0,1-.9-.39,1.26,1.26,0,0,1-.37-.91v-.25a1.24,1.24,0,0,1,.37-.9,1.2,1.2,0,0,1,.9-.39H139a1.32,1.32,0,0,1,1.29,1.29ZM125.67,188.1v-4.47a1.22,1.22,0,0,1,.37-.89,1.23,1.23,0,0,1,.9-.38h10.91a1.27,1.27,0,0,1,.91.38,1.23,1.23,0,0,1,.38.89v4.47a1.27,1.27,0,0,1-.38.91,1.23,1.23,0,0,1-.91.38h-1.66a.65.65,0,0,1-.65-.65.11.11,0,0,0-.12-.12h-6.14q-.09,0-.09.12a.63.63,0,0,1-.2.46.62.62,0,0,1-.46.19h-1.59a1.19,1.19,0,0,1-.9-.38A1.26,1.26,0,0,1,125.67,188.1Zm1.47-9.64a1.18,1.18,0,0,1-.88-.37,1.24,1.24,0,0,1,0-1.75,1.18,1.18,0,0,1,.88-.37h10.53a1.18,1.18,0,0,1,.88.37,1.24,1.24,0,0,1,0,1.75,1.18,1.18,0,0,1-.88.37Zm0,3.2a1.25,1.25,0,1,1,0-2.49h10.53a1.25,1.25,0,1,1,0,2.49Zm10.66-12.49a1.31,1.31,0,0,1,1.3,1.29,1.26,1.26,0,0,1-.38.92,1.24,1.24,0,0,1-.92.37H127.64a1.25,1.25,0,0,1-.92-.37,1.29,1.29,0,0,1-.37-.92,1.24,1.24,0,0,1,.39-.91,1.19,1.19,0,0,1,.9-.38ZM129.19,185V186a.16.16,0,0,0,.18.18h6q.21,0,.21-.18V185q0-.18-.21-.18h-6A.16.16,0,0,0,129.19,185Z"/><path class="cls-2" d="M142.41,182a1.24,1.24,0,0,1-.83-.51,1.17,1.17,0,0,1-.22-.94c.29-1.64.5-3.39.64-5.24a1.18,1.18,0,0,1,.44-.88,1.23,1.23,0,0,1,.94-.32l.27,0a1.17,1.17,0,0,1,.9.44,1.34,1.34,0,0,1,.31,1,50.08,50.08,0,0,1-.64,5.44,1.25,1.25,0,0,1-.54.84,1.29,1.29,0,0,1-1,.23Zm17.32,7.19a1.3,1.3,0,0,1-1.29-1.29V181.3c0-.12-.06-.17-.18-.14l-.5.14a1.26,1.26,0,0,1-1.59-.86q0-.08-.93-3l0,0s0,0,0,0v8.94a1.24,1.24,0,0,1-.39.91,1.27,1.27,0,0,1-.91.38h-.75a1.32,1.32,0,0,1-1.29-1.29V181.3c0-.12-.06-.17-.18-.14l-.47.14a1.26,1.26,0,0,1-1-.1,1.35,1.35,0,0,1-.63-.76c-.07-.27-.21-.73-.4-1.36l-.46-1.48a0,0,0,0,1,0,0v1.16a19,19,0,0,1-.73,5.68,11.11,11.11,0,0,1-2.29,4.1,1.27,1.27,0,0,1-.92.43,1.43,1.43,0,0,1-1-.32l-.77-.61a1.12,1.12,0,0,1-.45-.83,1.2,1.2,0,0,1,.31-.9,8.68,8.68,0,0,0,1.88-3.49,22,22,0,0,0,.52-5.49v-7a1.31,1.31,0,0,1,1.3-1.29h.83a1.31,1.31,0,0,1,1.3,1.29v3.81c0,.12.06.16.18.13l.43-.13a1.28,1.28,0,0,1,1,.1,1.31,1.31,0,0,1,.65.76c.37,1.18.65,2.06.83,2.65a.09.09,0,0,0,.07,0V171a1.33,1.33,0,0,1,1.29-1.29h.75a1.24,1.24,0,0,1,.91.39,1.22,1.22,0,0,1,.39.9v3.2c0,.12.06.17.18.14l.5-.16a1.18,1.18,0,0,1,1,.09,1.32,1.32,0,0,1,.66.77l.86,2.72s0,0,0,0,0,0,0,0v-7.39a1.27,1.27,0,0,1,.38-.91,1.23,1.23,0,0,1,.91-.38h.93a1.3,1.3,0,0,1,1.29,1.29v17.55a1.23,1.23,0,0,1-.38.91,1.27,1.27,0,0,1-.91.38Z"/><path class="cls-2" d="M169.78,187.69a4.5,4.5,0,0,1-3.55-2.17,8.64,8.64,0,0,1-1.62-5.31,9.47,9.47,0,0,1,3-7.27,11.24,11.24,0,0,1,7.94-2.8,9,9,0,0,1,6.55,2.51A8.49,8.49,0,0,1,184.7,179a10,10,0,0,1-1.68,6,7.5,7.5,0,0,1-4.58,3,1.26,1.26,0,0,1-1-.21,1.33,1.33,0,0,1-.58-.86l-.18-.77a1.22,1.22,0,0,1,.18-.94,1.5,1.5,0,0,1,.8-.6q3.58-1.16,3.58-5.58a5.55,5.55,0,0,0-1.16-3.53,5.36,5.36,0,0,0-3.06-1.91c-.1,0-.17,0-.2.18a63.83,63.83,0,0,1-1.33,7,16.67,16.67,0,0,1-1.64,4.29A6.2,6.2,0,0,1,172,187.1,4,4,0,0,1,169.78,187.69ZM173,173.75a6.49,6.49,0,0,0-3.62,2.32,6.62,6.62,0,0,0-1.3,4.14,6.27,6.27,0,0,0,.6,2.76c.4.82.77,1.23,1.1,1.23a.83.83,0,0,0,.54-.3,4.18,4.18,0,0,0,.66-1.07,16.57,16.57,0,0,0,.73-1.91c.24-.76.49-1.75.74-2.95s.49-2.57.71-4.09a.1.1,0,0,0,0-.11A.11.11,0,0,0,173,173.75Z"/><path class="cls-2" d="M188.08,178.92a1.24,1.24,0,0,1-.91-.39,1.22,1.22,0,0,1-.38-.91v0a1.23,1.23,0,0,1,.38-.91,1.27,1.27,0,0,1,.91-.38h4.26a.3.3,0,0,0,.27-.16c.12-.21.22-.38.28-.5a.08.08,0,0,0,0-.11.13.13,0,0,0-.12-.07h-3.38a1.19,1.19,0,0,1-.84-2,1.14,1.14,0,0,1,.84-.34h4.29a.23.23,0,0,0,.25-.18,1.89,1.89,0,0,1,.06-.21c0-.09,0-.15,0-.2s0-.23-.13-.23h-5.13a1.22,1.22,0,0,1-.9-.37,1.26,1.26,0,0,1-.37-.9v-.16a1.28,1.28,0,0,1,.37-.9,1.2,1.2,0,0,1,.9-.39h5.72a.16.16,0,0,0,.18-.13,1.26,1.26,0,0,1,.44-.81,1.18,1.18,0,0,1,.85-.31l1.43,0a.92.92,0,0,1,.69.34.87.87,0,0,1,.19.73c0,.09,0,.13.14.13h7.46a1.2,1.2,0,0,1,.9.39,1.24,1.24,0,0,1,.37.9V171a1.26,1.26,0,0,1-1.27,1.27h-8a.24.24,0,0,0-.25.21l-.13.41c0,.13,0,.2.13.2h7.67a1.14,1.14,0,0,1,.84.34,1.18,1.18,0,0,1-.84,2h-3.38q-.18,0-.09.18l.25.5a.32.32,0,0,0,.29.16h4.24a1.27,1.27,0,0,1,.91.38,1.24,1.24,0,0,1,.39.91v0a1.23,1.23,0,0,1-.39.91,1.24,1.24,0,0,1-.91.39h-2.22s-.05,0-.07.05,0,.07,0,.08a14,14,0,0,0,2.66,2,1.58,1.58,0,0,1,.67.8,1.55,1.55,0,0,1,0,1l-.29.88a1,1,0,0,1-.63.62.82.82,0,0,1-.85-.12l-1.11-.84c-.1-.08-.16-.05-.16.07V188a1.26,1.26,0,0,1-.37.91,1.23,1.23,0,0,1-.9.38h-1.68a.62.62,0,0,1-.46-.19.64.64,0,0,1-.19-.47c0-.07,0-.11-.09-.11h-7.22c-.06,0-.09,0-.09.11a.64.64,0,0,1-.19.47.62.62,0,0,1-.46.19H191.3a1.27,1.27,0,0,1-.91-.38A1.23,1.23,0,0,1,190,188V183.5c0-.11,0-.13-.14-.07-.44.36-.8.64-1.09.84a.86.86,0,0,1-.87.12,1,1,0,0,1-.63-.62l-.29-.88a1.52,1.52,0,0,1,0-1,1.62,1.62,0,0,1,.67-.81,17.12,17.12,0,0,0,2.64-2s0,0,0-.08,0-.05-.07-.05ZM201,183.11v-.63q0-.21-.18-.21h-7c-.13,0-.19.07-.19.21v.63c0,.12.06.18.19.18h7A.16.16,0,0,0,201,183.11Zm0,2.95v-.66c0-.13-.06-.2-.18-.2h-7c-.13,0-.19.07-.19.2v.66c0,.12.06.18.19.18h7A.16.16,0,0,0,201,186.06Zm-6.6-7-.48.63c-.06.09,0,.14.09.14h6.65s.05,0,.08,0a.1.1,0,0,0,0-.09,1.48,1.48,0,0,1-.23-.32,1.64,1.64,0,0,0-.23-.31.35.35,0,0,0-.31-.16h-5.29A.33.33,0,0,0,194.43,179.08Zm1.77-3s0,.06,0,.1a.1.1,0,0,0,.1.06h2.18a.11.11,0,0,0,.1-.06s0-.07,0-.1a4.16,4.16,0,0,1-.23-.52.29.29,0,0,0-.27-.16h-1.4a.27.27,0,0,0-.28.18A4.1,4.1,0,0,1,196.2,176.13Z"/><path class="cls-2" d="M211.69,174a1.19,1.19,0,0,1-.9-.38,1.26,1.26,0,0,1-.37-.91v-.34a1.26,1.26,0,0,1,.37-.91,1.23,1.23,0,0,1,.9-.38H215a.27.27,0,0,0,.28-.18c0-.08.08-.23.17-.46s.14-.4.19-.52a1.46,1.46,0,0,1,1.65-1l1.09.21a1.06,1.06,0,0,1,.75.51,1,1,0,0,1,.09.89,1.19,1.19,0,0,1-.08.21c0,.09-.06.15-.08.2s0,.16.14.16h7.71a1.3,1.3,0,0,1,1.29,1.29v.34a1.27,1.27,0,0,1-.38.91,1.23,1.23,0,0,1-.91.38h-8.94a.28.28,0,0,0-.27.16l-.56,1.2v0h0a5.72,5.72,0,0,1,1.9-.36,4.36,4.36,0,0,1,4.31,2.47.21.21,0,0,0,.28.13c.92-.19,2-.36,3.13-.49a1.25,1.25,0,0,1,1.4,1.13l.05.43a1.29,1.29,0,0,1-.29.94,1.26,1.26,0,0,1-.85.49c-.81.12-1.72.27-2.72.45a.19.19,0,0,0-.16.25c.09.89.14,1.42.14,1.57a1.18,1.18,0,0,1-.36.9,1.24,1.24,0,0,1-.91.39H222a1.26,1.26,0,0,1-.91-.37,1.29,1.29,0,0,1-.4-.9,4.5,4.5,0,0,0,0-.61.13.13,0,0,0-.07-.12.15.15,0,0,0-.13,0c-1.91.74-2.86,1.47-2.86,2.18a1.28,1.28,0,0,0,.91,1.21,10,10,0,0,0,3.51.4,36.18,36.18,0,0,0,4.45-.39,1.24,1.24,0,0,1,.94.26,1.18,1.18,0,0,1,.46.85l.05.55a1.37,1.37,0,0,1-.28.95,1.26,1.26,0,0,1-.85.5,42,42,0,0,1-4.77.27q-4.31,0-6.19-1a3.43,3.43,0,0,1-1.88-3.2,4.27,4.27,0,0,1,1.45-3.08,11.74,11.74,0,0,1,4.36-2.45c.12-.06.14-.14.06-.23a2,2,0,0,0-1.65-.66,3.41,3.41,0,0,0-2,.72,13.33,13.33,0,0,0-2.45,2.59,1.35,1.35,0,0,1-.87.57,1.37,1.37,0,0,1-1-.16l-.66-.36a1.1,1.1,0,0,1-.56-.75,1.11,1.11,0,0,1,.18-.93,40.83,40.83,0,0,0,3.1-5.33c.07-.1,0-.16-.11-.16Z"/><path class="cls-2" d="M70.21,212.85,69.9,211a3.21,3.21,0,0,1,.49-2.31,22.42,22.42,0,0,0,2.75-7,1.21,1.21,0,0,1,.57-.81,1.29,1.29,0,0,1,1-.21l.77.14a1.22,1.22,0,0,1,.83.52,1.25,1.25,0,0,1,.22,1,27.56,27.56,0,0,1-1.07,3.86.92.92,0,0,0-.07.36v8.12s0,.05,0,.07,0,0,.06,0A32.53,32.53,0,0,0,80,207.13c.06-.12,0-.18-.11-.18H77.27a1.27,1.27,0,0,1-.91-.38,1.24,1.24,0,0,1-.39-.91v-.36a1.33,1.33,0,0,1,1.3-1.3h4.35c.14,0,.2-.06.2-.2v-2a1.24,1.24,0,0,1,.39-.91,1.27,1.27,0,0,1,.91-.38h.93a1.32,1.32,0,0,1,1.29,1.29v2c0,.14.06.2.18.2h4.67a1.31,1.31,0,0,1,1.29,1.3v.36a1.23,1.23,0,0,1-.38.91,1.27,1.27,0,0,1-.91.38H87.27q-.21,0-.12.18a31.11,31.11,0,0,0,4.09,7,1.87,1.87,0,0,1,.18,2.14l-.66,1.22a.74.74,0,0,1-.65.41.76.76,0,0,1-.69-.34l-.77-1.18s-.06,0-.09,0v.14a1.32,1.32,0,0,1-1.29,1.29H85.52a.16.16,0,0,0-.18.18V220a1.24,1.24,0,0,1-.39.91,1.21,1.21,0,0,1-.9.38h-.93a1.31,1.31,0,0,1-1.3-1.29v-1.93c0-.12-.06-.18-.2-.18H79.83a1.27,1.27,0,0,1-.91-.38,1.23,1.23,0,0,1-.38-.91v-.11a.06.06,0,0,0-.05-.06s0,0-.07,0c-.33.52-.59.9-.77,1.16a1,1,0,0,1-1.61.09l-.54-.63a.09.09,0,0,0-.09,0s0,0,0,.07V220a1.26,1.26,0,0,1-.37.91,1.19,1.19,0,0,1-.9.38h-.77a1.23,1.23,0,0,1-.91-.38A1.27,1.27,0,0,1,72,220V212.1s0,0,0,0a.05.05,0,0,0,0,0c-.2.31-.43.66-.71,1a.5.5,0,0,1-.59.2A.54.54,0,0,1,70.21,212.85Zm9.14,2.08a.14.14,0,0,0,0,.11.14.14,0,0,0,.11.05h2.15c.14,0,.2-.06.2-.18V210s0,0,0,0l0,0A34.15,34.15,0,0,1,79.35,214.93Zm6-4.92v4.9a.16.16,0,0,0,.18.18h2.13a.11.11,0,0,0,.1-.05.12.12,0,0,0,0-.11A35.53,35.53,0,0,1,85.41,210l0,0S85.34,210,85.34,210Z"/><path class="cls-2" d="M94.34,214.93l-.75-.93a2,2,0,0,1-.27-2.15,12.14,12.14,0,0,0,.63-3c.11-1.22.17-3.1.17-5.62V203a1.23,1.23,0,0,1,.38-.91,1.27,1.27,0,0,1,.91-.38h9.11c.12,0,.19-.07.19-.21a1.21,1.21,0,0,1,.38-.87,1.25,1.25,0,0,1,.89-.35h.56a1.26,1.26,0,0,1,.88.35,1.33,1.33,0,0,1,.42.87c0,.14.06.21.2.21h.86c.11,0,.14-.06.11-.16a.94.94,0,0,1,.06-.77.91.91,0,0,1,.63-.5l.42-.12a1.7,1.7,0,0,1,1.09.06,1.53,1.53,0,0,1,.82.72,2.15,2.15,0,0,1,.16.31,1.31,1.31,0,0,0,.16.3.34.34,0,0,0,.27.2,1.29,1.29,0,0,1,.7.46,1.23,1.23,0,0,1,.28.79v.11a1.27,1.27,0,0,1-.38.91,1.2,1.2,0,0,1-.89.39h-4.06a.2.2,0,0,0-.14.05.12.12,0,0,0,0,.13c.1.68.24,1.46.44,2.33a.08.08,0,0,0,.09.07.1.1,0,0,0,.09,0c.34-.4.78-.95,1.29-1.66a1.37,1.37,0,0,1,.84-.57,1.28,1.28,0,0,1,1,.18l.32.21a1.28,1.28,0,0,1,.58.83,1.21,1.21,0,0,1-.17,1,19.27,19.27,0,0,1-2.7,3.36.21.21,0,0,0,0,.27c.42.79.77,1.18,1.06,1.18s.52-.35.75-1a1.26,1.26,0,0,1,.6-.75,1.07,1.07,0,0,1,.92-.09l.09,0a1.48,1.48,0,0,1,.83.66,1.31,1.31,0,0,1,.15,1,4.4,4.4,0,0,1-2.16,3.15c-.11.08-.12.14,0,.18a1.34,1.34,0,0,1,.4.39c.65,1,1.26,2,1.82,3.08a1.14,1.14,0,0,1,0,.94,1.25,1.25,0,0,1-.65.72l-.59.27a1.25,1.25,0,0,1-1,0,1.37,1.37,0,0,1-.75-.65l-.34-.63c-.15-.28-.27-.48-.34-.62s0,0-.07,0a.05.05,0,0,0,0,.06,3.28,3.28,0,0,1-.83,2.1,4.58,4.58,0,0,1-2.37.67c-.67.06-1.64.09-2.93.09s-2.18,0-2.92-.07a4.21,4.21,0,0,1-2.6-.64,4.39,4.39,0,0,1-.53-2.69V216.2a1.22,1.22,0,0,1,.37-.89,1.23,1.23,0,0,1,.9-.38h1a1.27,1.27,0,0,1,.91.38,1.19,1.19,0,0,1,.38.89v1.43a2.31,2.31,0,0,0,.08.79c.06.09.23.15.51.17s.93.06,1.7.06,1.28,0,1.7-.06a2,2,0,0,0,.88-.22,1,1,0,0,0,.37-.69,1.52,1.52,0,0,1,.5-.83,1.07,1.07,0,0,1,.89-.26l.83.11c.11,0,.13,0,.07-.09a.9.9,0,0,1-.13-.78.93.93,0,0,1,.47-.62l.36-.18s0-.08,0-.14a5,5,0,0,1-2.79-2.36c-.09-.12-.19-.14-.29,0l-.07,0-.09.06a1.25,1.25,0,0,1-1,.15,1.45,1.45,0,0,1-.81-.54s-.06,0-.08,0a.06.06,0,0,0,0,.06,1.24,1.24,0,0,1-.68,1,0,0,0,0,0,0,0s0,0,0,0a1.52,1.52,0,0,1,1,.27q.44.3,1.29,1a1.15,1.15,0,0,1,.43.88,1.09,1.09,0,0,1-.36.91l-.25.25a1.33,1.33,0,0,1-.9.39,1.36,1.36,0,0,1-.94-.32c-.3-.26-.77-.63-1.4-1.11a1.07,1.07,0,0,1-.43-.79A.94.94,0,0,1,103,214l.25-.25a1.66,1.66,0,0,1,.46-.3s0,0,0,0H101q-.12,0-.12.09a.57.57,0,0,1-.17.43.54.54,0,0,1-.42.18H99a1.23,1.23,0,0,1-.9-.38,1.26,1.26,0,0,1-.37-.91v-3.49a1.26,1.26,0,0,1,.37-.91,1.2,1.2,0,0,1,.9-.39h4.72a1.33,1.33,0,0,1,1.29,1.3v.54c0,.12,0,.14.16.07l.29-.19c.12-.09.22-.15.3-.2a.25.25,0,0,0,.11-.31c-.21-.67-.39-1.38-.55-2.14,0-.09-.08-.11-.15-.06a1.16,1.16,0,0,1-.75.29H98a.94.94,0,0,1-.43-.09c-.12-.06-.18,0-.18.11a17.19,17.19,0,0,1-1.61,7.46.81.81,0,0,1-.71.46A.89.89,0,0,1,94.34,214.93Zm2.59.68a1.46,1.46,0,0,1,.7.75,1.24,1.24,0,0,1,0,1A14.14,14.14,0,0,1,96,220.17a1.18,1.18,0,0,1-.86.49,1.34,1.34,0,0,1-1-.28l-.54-.43a1.18,1.18,0,0,1-.45-.85,1.4,1.4,0,0,1,.27-1A13.32,13.32,0,0,0,94.73,216a1.29,1.29,0,0,1,.71-.67,1.14,1.14,0,0,1,1,0Zm.7-11.17c-.12,0-.18.06-.18.2v.48c0,.1,0,.14.16.11a1.43,1.43,0,0,1,.43-.09h6.35a1,1,0,0,1,.43.09c.1,0,.16,0,.16-.07s0-.15,0-.26l0-.26c0-.14-.1-.2-.2-.2Zm4.58,6.89v-1.16a.18.18,0,0,0-.2-.2h-.93a.18.18,0,0,0-.21.2v1.16a.18.18,0,0,0,.21.2H102A.18.18,0,0,0,102.21,211.33Z"/><path class="cls-2" d="M117.38,205.71a1.26,1.26,0,0,1-.91-.39,1.27,1.27,0,0,1-.38-.91v-.34a1.21,1.21,0,0,1,.38-.89,1.29,1.29,0,0,1,.91-.38h8.87a.18.18,0,0,0,.2-.2v-.8a1.2,1.2,0,0,1,.39-.89,1.27,1.27,0,0,1,.91-.38h.9a1.2,1.2,0,0,1,.9.39,1.26,1.26,0,0,1,.37.91v.77a.18.18,0,0,0,.21.2h4.49a1.25,1.25,0,0,1,.9.38,1.18,1.18,0,0,1,.39.89v.34a1.24,1.24,0,0,1-.39.91,1.22,1.22,0,0,1-.9.39h-4.49c-.14,0-.21.06-.21.2v3.9a1,1,0,0,0,.09.34,7.22,7.22,0,0,1,.62,3,6.69,6.69,0,0,1-1.78,5c-1.19,1.16-3.16,1.93-5.91,2.33a1.23,1.23,0,0,1-1-.24,1.43,1.43,0,0,1-.54-.88l-.09-.61a1.17,1.17,0,0,1,.21-.92,1.15,1.15,0,0,1,.83-.48,10.89,10.89,0,0,0,3.38-.83A2.55,2.55,0,0,0,127,215a.06.06,0,0,1,0-.05.1.1,0,0,0,0-.06s0,0,0,0h0a5.5,5.5,0,0,1-6.13-.56,4.55,4.55,0,0,1,0-6.49,5.58,5.58,0,0,1,5.52-.88h0s0,0,0,0,0,0,0-.05v-1a.18.18,0,0,0-.2-.2Zm8.86,6.55a1.68,1.68,0,0,0,0-2.45,2,2,0,0,0-1.4-.48,2,2,0,0,0-1.39.48,1.68,1.68,0,0,0,0,2.45,2,2,0,0,0,1.39.47A2,2,0,0,0,126.24,212.26Z"/><path class="cls-2" d="M140.24,212.1l-.11-.2a1.45,1.45,0,0,1,.54-1.82l8.64-5.08,0,0h-7a1.2,1.2,0,0,1-.9-.39,1.28,1.28,0,0,1-.37-.9v-.43a1.3,1.3,0,0,1,.37-.91,1.2,1.2,0,0,1,.9-.39H154.6a1.22,1.22,0,0,1,.9.39,1.24,1.24,0,0,1,.39.91v.52a2,2,0,0,1-1.11,1.88l-5.65,3v0h0a11.94,11.94,0,0,1,2.16-.21,7.24,7.24,0,0,1,4.77,1.41,4.67,4.67,0,0,1,1.69,3.81,5.92,5.92,0,0,1-2.38,5c-1.59,1.2-3.84,1.79-6.76,1.79q-6.87,0-6.87-4.15a3.16,3.16,0,0,1,1.49-2.63,6.77,6.77,0,0,1,4-1.06,6.52,6.52,0,0,1,3.78.85,2.92,2.92,0,0,1,1.16,2.55,4.77,4.77,0,0,1,0,.75.1.1,0,0,0,0,.08.1.1,0,0,0,.09,0,3.19,3.19,0,0,0,1.68-3q0-2.82-4.28-2.82a19.28,19.28,0,0,0-3.9.37,20.46,20.46,0,0,0-3.81,1.24,1.36,1.36,0,0,1-1,0A1.24,1.24,0,0,1,140.24,212.1Zm8.71,5.37a3,3,0,0,0,.23-1,1,1,0,0,0-.45-.87,3.32,3.32,0,0,0-1.66-.29,2.87,2.87,0,0,0-1.47.31.92.92,0,0,0-.48.78q0,1.32,3.51,1.32h0l0,0A.25.25,0,0,0,149,217.47Z"/><path class="cls-2" d="M179.74,204.87a.14.14,0,0,0-.1,0,.08.08,0,0,0,0,.1l.5.78a1.1,1.1,0,0,1,.17.95,1.17,1.17,0,0,1-.58.79c-.36.23-.78.46-1.24.7a.25.25,0,0,0-.14.3c.11.92.21,1.63.32,2.13a.1.1,0,0,0,.09.08.11.11,0,0,0,.11,0l.75-.55a1.17,1.17,0,0,1,.92-.24,1.12,1.12,0,0,1,.78.51l.21.32a1.47,1.47,0,0,1,.2,1,1.44,1.44,0,0,1-.52.91l-1.5,1.13c-.12.09-.16.19-.11.3a16.05,16.05,0,0,0,1.9,3.69,1.58,1.58,0,0,1,.31,1,1.45,1.45,0,0,1-.37,1l-.73.8a1,1,0,0,1-.85.37,1,1,0,0,1-.81-.42q-2.46-3.54-3.44-10.68,0-.18-.21-.09l-.11,0-.11.06a.27.27,0,0,0-.19.28V220a1.16,1.16,0,0,1-.38.89,1.27,1.27,0,0,1-.91.38h-.93a1.23,1.23,0,0,1-.9-.38,1.17,1.17,0,0,1-.39-.89v-8.6c0-.1-.05-.14-.14-.11a1,1,0,0,1-.76-.07,1.07,1.07,0,0,1-.53-.56l-.2-.59s-.06,0-.07,0c0,2.16,0,3.89-.1,5.2s-.13,2.38-.22,3.21a4.54,4.54,0,0,1-.46,1.78,1.73,1.73,0,0,1-.67.68,2.67,2.67,0,0,1-1,.15l-1.5-.09a1.48,1.48,0,0,1-1.34-1.41l0-1.38a0,0,0,0,0,0,0s0,0,0,0a19.1,19.1,0,0,1-.79,2.17.86.86,0,0,1-.67.51.94.94,0,0,1-.83-.23l-.77-.73a1.73,1.73,0,0,1-.51-1,2,2,0,0,1,.1-1.1q1.32-3.48,1.32-11.8,0-.15-.21-.15h0a1.24,1.24,0,0,1-.91-.39,1.27,1.27,0,0,1-.38-.91v-.47a1.27,1.27,0,0,1,.38-.91,1.24,1.24,0,0,1,.91-.39h1.43a.16.16,0,0,0,.18-.18v-1.06a1.2,1.2,0,0,1,.39-.9,1.24,1.24,0,0,1,.9-.37h.93a1.26,1.26,0,0,1,.91.37,1.2,1.2,0,0,1,.39.9v1.06c0,.12.06.18.2.18h1.52a1.24,1.24,0,0,1,.91.39,1.27,1.27,0,0,1,.38.91c0,.1,0,.13.09.07a23.9,23.9,0,0,0,1.91-3.11,1.63,1.63,0,0,1,.76-.75,1.47,1.47,0,0,1,1.05-.11l.77.18a1,1,0,0,1,.67.53,1,1,0,0,1,0,.85c0,.09,0,.14.09.14h5a1.3,1.3,0,0,1,1.29,1.29v.39a1.23,1.23,0,0,1-.38.89,1.27,1.27,0,0,1-.91.38Zm-13.92,13a.41.41,0,0,0,.35-.14,2.55,2.55,0,0,0,.21-.86,19.2,19.2,0,0,0,.12-2.1c0-.91,0-2.24,0-4a.18.18,0,0,0-.2-.2h-.66a.18.18,0,0,0-.2.2,36,36,0,0,1-.86,6.69.17.17,0,0,0,.13.23A5.79,5.79,0,0,0,165.82,217.84Zm5.17-9.66a.12.12,0,0,0,.06-.08.13.13,0,0,0,0-.1l-1.45-.93a1,1,0,0,1-.5-1c0-.1,0-.16-.13-.16l-.07,0h-3.08q-.21,0-.21.18v1.24q0,.21.18.21h2.75a1.32,1.32,0,0,1,1.29,1.29v.07s0,.05,0,.05a.07.07,0,0,0,.06,0,1.35,1.35,0,0,1,.7-.59Zm7.3-3.22a.09.09,0,0,0,0-.06s0,0,0,0H174a.37.37,0,0,0-.3.15,21.85,21.85,0,0,1-2.1,2.84s0,0,0,.07h0A48.16,48.16,0,0,0,178.29,205Z"/><path class="cls-2" d="M32.09,86A1.13,1.13,0,0,1,31,85v0a1.13,1.13,0,0,1,1.09-1.09h3.6a.25.25,0,0,0,.23-.13l.23-.42a.09.09,0,0,0,0-.1.12.12,0,0,0-.1-.06H33.2a1,1,0,0,1-.71-.28,1,1,0,0,1-.28-.71,1,1,0,0,1,1-1h3.62A.2.2,0,0,0,37,81a1.46,1.46,0,0,0,0-.17l0-.18c0-.12,0-.19-.11-.19H32.68a1,1,0,0,1-.75-.31,1,1,0,0,1-.32-.76v-.13a1.09,1.09,0,0,1,.32-.77,1,1,0,0,1,.75-.32h4.83a.14.14,0,0,0,.15-.12,1.1,1.1,0,0,1,.37-.68,1,1,0,0,1,.72-.25l1.21,0a.8.8,0,0,1,.58.29.74.74,0,0,1,.16.61q0,.12.12.12h6.29a1.05,1.05,0,0,1,.76.32,1.08,1.08,0,0,1,.31.77v.13a1,1,0,0,1-.31.76,1,1,0,0,1-.76.31H40.34a.19.19,0,0,0-.21.18L40,81c0,.12,0,.17.12.17h6.46a1,1,0,0,1,.71.29,1,1,0,0,1,.29.71,1,1,0,0,1-.29.71,1,1,0,0,1-.71.28H43.74c-.1,0-.12,0-.07.16l.21.42a.25.25,0,0,0,.24.13H47.7a1,1,0,0,1,.77.33,1,1,0,0,1,.32.76v0a1,1,0,0,1-.32.76,1,1,0,0,1-.77.33H45.83a.06.06,0,0,0-.06,0s0,0,0,.06A11.61,11.61,0,0,0,48,87.84a1.36,1.36,0,0,1,.59,1.55l-.25.74a.81.81,0,0,1-.52.53.72.72,0,0,1-.72-.1l-.94-.71c-.09-.07-.13,0-.13.06v3.78a1.07,1.07,0,0,1-.32.77,1,1,0,0,1-.75.32H43.57a.55.55,0,0,1-.55-.55c0-.06,0-.1-.08-.1H36.85c-.05,0-.07,0-.07.1a.57.57,0,0,1-.16.39.54.54,0,0,1-.4.16H34.81a1,1,0,0,1-.77-.32,1.07,1.07,0,0,1-.32-.77V89.91q0-.14-.12-.06c-.37.3-.67.54-.92.71a.74.74,0,0,1-.73.1.82.82,0,0,1-.53-.53l-.25-.74a1.33,1.33,0,0,1,0-.88,1.44,1.44,0,0,1,.57-.69A13.67,13.67,0,0,0,34,86.15s0,0,0-.06A.06.06,0,0,0,34,86ZM43,89.58V89a.15.15,0,0,0-.16-.17H36.93c-.1,0-.15.06-.15.17v.54a.13.13,0,0,0,.15.15h5.93A.14.14,0,0,0,43,89.58Zm0,2.49v-.56a.15.15,0,0,0-.16-.17H36.93c-.1,0-.15.06-.15.17v.56a.13.13,0,0,0,.15.15h5.93A.14.14,0,0,0,43,92.07Zm-5.57-5.9-.4.54c0,.08,0,.11.07.11h5.61a.11.11,0,0,0,.07,0s0-.05,0-.08a1.63,1.63,0,0,1-.19-.27,1.49,1.49,0,0,0-.19-.27.3.3,0,0,0-.27-.13H37.7A.28.28,0,0,0,37.45,86.17Zm1.49-2.48a.08.08,0,0,0,0,.08.11.11,0,0,0,.09,0h1.83a.11.11,0,0,0,.09,0,.08.08,0,0,0,0-.08,3,3,0,0,1-.19-.44.25.25,0,0,0-.23-.14H39.36a.23.23,0,0,0-.23.16A4.28,4.28,0,0,1,38.94,83.69Z"/><path class="cls-2" d="M54.92,93.44a3.8,3.8,0,0,1-3-1.83,7.32,7.32,0,0,1-1.37-4.48A8,8,0,0,1,53.1,81a9.42,9.42,0,0,1,6.7-2.36,7.63,7.63,0,0,1,5.53,2.11,7.19,7.19,0,0,1,2.18,5.39,8.38,8.38,0,0,1-1.42,5,6.3,6.3,0,0,1-3.86,2.52,1,1,0,0,1-.85-.17,1.09,1.09,0,0,1-.49-.73l-.16-.65a1,1,0,0,1,.16-.79,1.22,1.22,0,0,1,.67-.51q3-1,3-4.7a4.66,4.66,0,0,0-1-3A4.56,4.56,0,0,0,61,81.54c-.09,0-.15,0-.17.16a53.68,53.68,0,0,1-1.12,5.88,14.18,14.18,0,0,1-1.39,3.62A5.18,5.18,0,0,1,56.77,93,3.43,3.43,0,0,1,54.92,93.44Zm2.71-11.76a5.47,5.47,0,0,0-3.05,2,5.61,5.61,0,0,0-1.1,3.49A5.24,5.24,0,0,0,54,89.46c.34.69.65,1,.93,1a.71.71,0,0,0,.46-.26,3.57,3.57,0,0,0,.55-.9,12.59,12.59,0,0,0,.61-1.61,23.34,23.34,0,0,0,.63-2.49q.33-1.53.6-3.45a.08.08,0,0,0,0-.09A.11.11,0,0,0,57.63,81.68Z"/><path class="cls-2" d="M69.34,87.76l-.26-1.57a2.77,2.77,0,0,1,.44-2,18.92,18.92,0,0,0,2.31-5.87,1,1,0,0,1,.47-.69,1.06,1.06,0,0,1,.81-.17l.67.11a1.14,1.14,0,0,1,.7.46,1,1,0,0,1,.18.8,20.4,20.4,0,0,1-1.09,3.75.93.93,0,0,0-.07.33V93.79a1.05,1.05,0,0,1-.32.76,1,1,0,0,1-.76.33h-.74a1,1,0,0,1-.76-.33,1,1,0,0,1-.31-.76V87.55a.07.07,0,0,0,0,0h-.06a1.67,1.67,0,0,1-.15.23,1.37,1.37,0,0,0-.15.23.45.45,0,0,1-.5.18A.44.44,0,0,1,69.34,87.76Zm18.07-5.89a1,1,0,0,1-.33.76,1,1,0,0,1-.76.33H75.5a1,1,0,0,1-.75-.33,1.05,1.05,0,0,1-.32-.76v-.21a1.09,1.09,0,0,1,.32-.77,1,1,0,0,1,.75-.32H86.32a1.11,1.11,0,0,1,1.09,1.09ZM75.1,93.79V90a1.05,1.05,0,0,1,.32-.76,1,1,0,0,1,.75-.31h9.21a1,1,0,0,1,.76.31,1,1,0,0,1,.33.76v3.77a1.13,1.13,0,0,1-1.09,1.09H84a.55.55,0,0,1-.55-.55.09.09,0,0,0-.1-.1H78.15c-.06,0-.08,0-.08.1a.57.57,0,0,1-.16.39.54.54,0,0,1-.4.16H76.17a1,1,0,0,1-.75-.33A1.05,1.05,0,0,1,75.1,93.79Zm1.25-8.13a1,1,0,0,1-.75-.32,1,1,0,0,1,0-1.47,1,1,0,0,1,.75-.32h8.87a1.06,1.06,0,0,1,0,2.11Zm0,2.7a1.05,1.05,0,0,1-.75-1.8,1,1,0,0,1,.75-.31h8.87a1.05,1.05,0,0,1,.75,1.8,1,1,0,0,1-.75.31Zm9-10.55a1.09,1.09,0,1,1,0,2.18H76.77A1.08,1.08,0,0,1,76,78.14a1,1,0,0,1,.77-.33Zm-7.27,13.4V92a.13.13,0,0,0,.15.15h5q.18,0,.18-.15v-.76c0-.11-.06-.16-.18-.16h-5C78.12,91.05,78.07,91.1,78.07,91.21Z"/><path class="cls-2" d="M89.22,88.66a1,1,0,0,1-.69-.43,1,1,0,0,1-.19-.79A44.53,44.53,0,0,0,88.88,83a1,1,0,0,1,.37-.75,1.09,1.09,0,0,1,.8-.27l.23,0a1,1,0,0,1,.75.38,1,1,0,0,1,.26.81,39.23,39.23,0,0,1-.54,4.59,1.13,1.13,0,0,1-1.28.9Zm14.62,6.07a1,1,0,0,1-.76-.33,1,1,0,0,1-.33-.76V88.05q0-.15-.15-.12l-.42.12a1,1,0,0,1-.82-.08,1,1,0,0,1-.52-.65s-.28-.88-.79-2.52c0,0,0,0,0,0s0,0,0,0v7.53a1.13,1.13,0,0,1-1.1,1.1h-.63a1,1,0,0,1-.76-.33,1,1,0,0,1-.33-.77V88.05q0-.15-.15-.12l-.4.12a1,1,0,0,1-.83-.09,1.05,1.05,0,0,1-.53-.64L95,86.17c-.17-.53-.3-1-.39-1.24a.05.05,0,0,1,0,0v1a16.22,16.22,0,0,1-.61,4.79A9.3,9.3,0,0,1,92,94.17a1.08,1.08,0,0,1-.78.37,1.24,1.24,0,0,1-.83-.27l-.65-.52a.93.93,0,0,1-.37-.7,1,1,0,0,1,.26-.75,7.58,7.58,0,0,0,1.59-3,19,19,0,0,0,.43-4.63V78.83a1.11,1.11,0,0,1,1.1-1.09h.7a1.09,1.09,0,0,1,1.09,1.09V82c0,.1,0,.14.16.12L95,82a1.15,1.15,0,0,1,1.4.73c.32,1,.55,1.74.71,2.24l0,0V79.36a1.13,1.13,0,0,1,1.09-1.09h.63a1,1,0,0,1,.77.33,1,1,0,0,1,.33.76v2.7c0,.1,0,.14.15.11l.42-.13a1,1,0,0,1,.82.08,1.12,1.12,0,0,1,.56.65l.72,2.29s0,0,0,0,0,0,0,0V78.83a1,1,0,0,1,.33-.77,1,1,0,0,1,.76-.32h.79a1,1,0,0,1,.76.32,1,1,0,0,1,.33.77V93.64a1.13,1.13,0,0,1-1.09,1.09Z"/><path class="cls-2" d="M109.41,81.87a1.09,1.09,0,0,1-1.07-1.09v-.29a1.09,1.09,0,0,1,1.07-1.09h2.78a.21.21,0,0,0,.22-.15c0-.07.08-.19.15-.39l.16-.44a1.22,1.22,0,0,1,.55-.69,1.2,1.2,0,0,1,.85-.17l.92.18a.87.87,0,0,1,.63.43.86.86,0,0,1,.07.75,1.2,1.2,0,0,1-.06.17.89.89,0,0,0-.07.18c0,.09,0,.13.11.13h6.51a1.11,1.11,0,0,1,1.09,1.09v.29a1.11,1.11,0,0,1-1.09,1.09h-7.54a.23.23,0,0,0-.23.13q-.45,1-.48,1v0h0a4.71,4.71,0,0,1,1.61-.31,3.67,3.67,0,0,1,3.63,2.08.17.17,0,0,0,.23.12,26.21,26.21,0,0,1,2.64-.42,1,1,0,0,1,.8.23,1,1,0,0,1,.39.73l0,.36a1.13,1.13,0,0,1-.24.79,1,1,0,0,1-.72.41c-.69.11-1.45.23-2.29.39-.12,0-.16.09-.14.21q.12,1.13.12,1.32a1,1,0,0,1-.31.76,1,1,0,0,1-.76.33h-.92a1.07,1.07,0,0,1-.77-.32A1.09,1.09,0,0,1,117,89c0-.23,0-.41,0-.52a.12.12,0,0,0-.06-.1.11.11,0,0,0-.11,0c-1.61.62-2.42,1.23-2.42,1.83a1.11,1.11,0,0,0,.77,1,8.74,8.74,0,0,0,3,.33,32.24,32.24,0,0,0,3.75-.32,1,1,0,0,1,.79.22.94.94,0,0,1,.39.71l0,.46a1.1,1.1,0,0,1-.24.81,1,1,0,0,1-.72.42,35.53,35.53,0,0,1-4,.23,11.52,11.52,0,0,1-5.23-.88,2.9,2.9,0,0,1-1.59-2.7,3.6,3.6,0,0,1,1.23-2.6,9.76,9.76,0,0,1,3.67-2.07c.1,0,.12-.12.06-.19a1.72,1.72,0,0,0-1.4-.56,2.83,2.83,0,0,0-1.68.61,11.19,11.19,0,0,0-2.07,2.19,1.25,1.25,0,0,1-.73.48,1.2,1.2,0,0,1-.85-.14l-.56-.3a1,1,0,0,1-.48-.64,1,1,0,0,1,.15-.78,34.65,34.65,0,0,0,2.63-4.5c0-.09,0-.13-.1-.13Z"/><path class="cls-2" d="M128.87,82.63a1.05,1.05,0,0,1-.77-.32,1.07,1.07,0,0,1-.32-.77V81.1A1.11,1.11,0,0,1,128.87,80q3,0,6.83-.09c.09,0,.13-.06.13-.17s-.05-.49-.07-.92a1.1,1.1,0,0,1,1-1.13l.77-.06a1.05,1.05,0,0,1,.77.28,1.07,1.07,0,0,1,.38.73c0,.44.05.77.07,1s.07.15.19.15l3.31-.11A1,1,0,0,1,143,80a1,1,0,0,1,.34.75l0,.44a1.09,1.09,0,0,1-.28.78,1.06,1.06,0,0,1-.75.35l-3,.11c-.1,0-.14.06-.11.18a15.2,15.2,0,0,0,1.53,3.59,1,1,0,0,1,.09.78,1,1,0,0,1-.51.6l-.84.4a2.27,2.27,0,0,1-1.95,0,7.28,7.28,0,0,0-3.12-.71,3.14,3.14,0,0,0-1.92.5,1.61,1.61,0,0,0-.67,1.35c0,1.61,1.43,2.42,4.27,2.42a23,23,0,0,0,3.65-.35,1.05,1.05,0,0,1,.81.18,1.16,1.16,0,0,1,.46.7l.09.48a1,1,0,0,1-.18.81,1,1,0,0,1-.7.45,26.67,26.67,0,0,1-4.13.35,9,9,0,0,1-5.5-1.41,4.52,4.52,0,0,1-1.87-3.8,3.84,3.84,0,0,1,1.46-3.13,6.31,6.31,0,0,1,4.06-1.17,8.76,8.76,0,0,1,2.77.47h0v0a15.06,15.06,0,0,1-.79-2.32.19.19,0,0,0-.21-.17C132.86,82.6,130.45,82.63,128.87,82.63Z"/><path class="cls-2" d="M146.53,88.16c1.31-1.51,2.44-2.74,3.37-3.69a.39.39,0,0,0,.11-.27V83.06q0-.18-.15-.18h-2.35a1.07,1.07,0,0,1-.77-.32,1,1,0,0,1-.32-.77v-.28a1,1,0,0,1,.32-.76,1.07,1.07,0,0,1,.77-.32h2.35c.1,0,.15-.05.15-.17v-1.4a1,1,0,0,1,.33-.76,1,1,0,0,1,.76-.33h.61a1,1,0,0,1,.76.33,1.07,1.07,0,0,1,.32.76v2.8q0,.15.15.06a7.9,7.9,0,0,1,4.76-2,4.71,4.71,0,0,1,4,1.6c.83,1.07,1.24,2.86,1.24,5.39a7.56,7.56,0,0,1-1.48,5,5,5,0,0,1-4,1.74,7.31,7.31,0,0,1-2.28-.38.94.94,0,0,1-.6-.57,1.27,1.27,0,0,1,0-.88l.19-.56a1,1,0,0,1,.53-.59,1.19,1.19,0,0,1,.85-.08,5.23,5.23,0,0,0,1.32.21c1.64,0,2.47-1.3,2.47-3.9a7.46,7.46,0,0,0-.49-3.31,2,2,0,0,0-1.85-.82q-1.68,0-4.65,2.85a.36.36,0,0,0-.11.26v7.49a1.07,1.07,0,0,1-.32.76,1,1,0,0,1-.76.33h-.61a1,1,0,0,1-.76-.33,1,1,0,0,1-.33-.76V88.6a.05.05,0,0,0,0,0s0,0-.06,0c-.8.85-1.24,1.34-1.34,1.47a1,1,0,0,1-.73.35,1,1,0,0,1-.77-.27l-.45-.43a1.12,1.12,0,0,1-.37-.74A1.06,1.06,0,0,1,146.53,88.16Z"/><path class="cls-2" d="M165.62,86l-.24-.59a1,1,0,0,1,0-.83A1,1,0,0,1,166,84l1.24-.49,1.23-.48a.17.17,0,0,0,.09-.23c-.28-.92-.53-1.74-.76-2.45a1.1,1.1,0,0,1,.71-1.36l.86-.25a1,1,0,0,1,.83.08,1.07,1.07,0,0,1,.53.63c.33,1,.57,1.79.72,2.29a.14.14,0,0,0,.19.1c.81-.29,1.42-.5,1.84-.63.09,0,.12-.1.1-.21s-.15-.47-.26-.82-.18-.6-.22-.71a1,1,0,0,1,.73-1.32l.84-.23a1.06,1.06,0,0,1,.82.09,1.08,1.08,0,0,1,.52.64c.1.34.25.87.46,1.58,0,.12.09.16.21.14a8.94,8.94,0,0,1,1.6-.16,4.36,4.36,0,0,1,4.6,4.6,4.86,4.86,0,0,1-1.39,3.66,5.15,5.15,0,0,1-3.72,1.33,12.48,12.48,0,0,1-1.38-.08,1,1,0,0,1-.74-.4,1.19,1.19,0,0,1-.24-.82l.06-.59a1,1,0,0,1,.37-.71,1.07,1.07,0,0,1,.8-.23l.8,0a2.53,2.53,0,0,0,1.69-.56,1.85,1.85,0,0,0,.65-1.47,1.74,1.74,0,0,0-2-2l-.41,0c-.1,0-.14.08-.11.17s.07.27.12.5.11.4.15.51a1.11,1.11,0,0,1-.77,1.34l-.69.21a1,1,0,0,1-.81-.07,1.08,1.08,0,0,1-.53-.65,3.5,3.5,0,0,0-.15-.52,3.5,3.5,0,0,1-.15-.52c0-.11-.09-.14-.19-.09l-1.8.63a.17.17,0,0,0-.1.21q1.13,3.82,2.24,8.06a1,1,0,0,1-.12.81,1,1,0,0,1-.66.49l-.9.21a1.13,1.13,0,0,1-.84-.14,1,1,0,0,1-.5-.67c-.79-3-1.5-5.58-2.11-7.67,0-.11-.09-.15-.19-.1l-2.22.88a1,1,0,0,1-.83,0A1.14,1.14,0,0,1,165.62,86Z"/><path class="cls-2" d="M185.72,83.59a1,1,0,0,1-.76-.32,1.09,1.09,0,0,1-.32-.77v-.44a1.09,1.09,0,0,1,.32-.77,1,1,0,0,1,.76-.32h2a.19.19,0,0,0,.2-.17c0-.17.19-1,.45-2.49a1.21,1.21,0,0,1,.44-.75,1.19,1.19,0,0,1,.83-.25l.55,0a1,1,0,0,1,.73.39.89.89,0,0,1,.21.76c-.08.52-.2,1.3-.38,2.32,0,.1,0,.15.13.15h2.86a3.63,3.63,0,0,1,1.27.27,2.15,2.15,0,0,1,.83.48,3.27,3.27,0,0,1,.37,1.08,7.3,7.3,0,0,1,.2,1.61v2.52q0,7.09-3.46,7.1a12.81,12.81,0,0,1-3.08-.5,1,1,0,0,1-.66-.52,1.11,1.11,0,0,1-.11-.86l.14-.53a1,1,0,0,1,.49-.63,1.09,1.09,0,0,1,.83-.1,8.32,8.32,0,0,0,1.74.34.38.38,0,0,0,.29-.14,1.31,1.31,0,0,0,.28-.5,4.62,4.62,0,0,0,.23-.88c.06-.35.12-.8.16-1.36s.07-1.2.07-1.9a9.14,9.14,0,0,0-.18-2.51c-.12-.24-.53-.36-1.24-.36h-1.56a.18.18,0,0,0-.21.15,76.71,76.71,0,0,1-2.84,9.46,1.11,1.11,0,0,1-1.41.67l-.52-.16a1,1,0,0,1-.61-.54,1.07,1.07,0,0,1,0-.84,78.42,78.42,0,0,0,2.56-8.6c0-.09,0-.14-.13-.14Zm13.45,5.34c-.69-2.56-1.48-5.06-2.36-7.48a1,1,0,0,1,.07-.79.93.93,0,0,1,.62-.49l.73-.21a1.18,1.18,0,0,1,1.42.74Q201,84.44,202,88.24a1,1,0,0,1-.12.81.94.94,0,0,1-.67.49l-.72.17a1.09,1.09,0,0,1-.83-.13A1,1,0,0,1,199.17,88.93Z"/><path class="cls-2" d="M206.57,94a1.2,1.2,0,0,1-1.32-.94,34.13,34.13,0,0,1,0-13.85,1.2,1.2,0,0,1,1.32-.94l.9.1a.86.86,0,0,1,.67.39.93.93,0,0,1,.15.79,33.68,33.68,0,0,0,0,13.17.92.92,0,0,1-.15.79.86.86,0,0,1-.67.39Zm8.75-.61A7.52,7.52,0,0,1,211,92.32a3.36,3.36,0,0,1-1.55-2.89,4,4,0,0,1,.44-1.62A8.27,8.27,0,0,1,211.11,86a1,1,0,0,1,.75-.36,1.28,1.28,0,0,1,.84.27l.43.32a1,1,0,0,1,.38.71,1.09,1.09,0,0,1-.24.78,3,3,0,0,0-.79,1.54,1.1,1.1,0,0,0,.67,1,5.25,5.25,0,0,0,2.17.33,18.72,18.72,0,0,0,3.13-.28,1,1,0,0,1,.81.17,1,1,0,0,1,.44.69l.07.55a1.08,1.08,0,0,1-.18.84,1,1,0,0,1-.7.46A18.31,18.31,0,0,1,215.32,93.39Zm3-13.87a1.05,1.05,0,0,1,.77.32,1.07,1.07,0,0,1,.32.77v.51a1.07,1.07,0,0,1-.32.77,1.09,1.09,0,0,1-.77.32h-6.1a1.07,1.07,0,0,1-.77-.32,1,1,0,0,1-.32-.77v-.51a1.09,1.09,0,0,1,1.09-1.09Z"/><path class="cls-2" d="M80.12,109.5A1.09,1.09,0,0,1,79,108.41v-.3A1.09,1.09,0,0,1,80.12,107h1.22q.15,0,.15-.18v-2.9a1,1,0,0,1,.33-.77,1,1,0,0,1,.76-.32h.79a1,1,0,0,1,.76.32,1,1,0,0,1,.33.77v2.9c0,.12.06.18.17.18h1.74a.16.16,0,0,0,.18-.18v-3.75a1.06,1.06,0,0,1,.31-.76,1,1,0,0,1,.76-.33h.95a1,1,0,0,1,.77.33,1,1,0,0,1,.32.76v.2c0,.1,0,.15.16.15h4.51a1.07,1.07,0,0,1,.77.32,1.05,1.05,0,0,1,.32.77v.15a1,1,0,0,1-.32.77,1.07,1.07,0,0,1-.77.32H89.82a.14.14,0,0,0-.16.16v.91c0,.12,0,.18.16.18h5.53a1,1,0,0,1,.76.32,1,1,0,0,1,.33.77v.3a1,1,0,0,1-.33.77,1,1,0,0,1-.76.32H93.7s0,0-.06,0a.14.14,0,0,0,0,.09A38.41,38.41,0,0,1,96,112.79a1,1,0,0,1,.14.82,1,1,0,0,1-.49.68l-.46.28a1,1,0,0,1-.82.13,1.17,1.17,0,0,1-.71-.49,31.66,31.66,0,0,0-2.06-2.75.94.94,0,0,1-.21-.76.83.83,0,0,1,.42-.66l.69-.44a0,0,0,0,0,0-.06s0,0-.06,0H89.82c-.11,0-.16.06-.16.18v1.72c0,.6,0,1.06,0,1.39a3.92,3.92,0,0,1-.17.94,1.53,1.53,0,0,1-.31.63,1.44,1.44,0,0,1-.61.33,3.61,3.61,0,0,1-.88.16c-.32,0-.75,0-1.32,0s-1,0-1.51,0a1.09,1.09,0,0,1-.77-.35,1.31,1.31,0,0,1-.36-.8v-.32a.92.92,0,0,1,.27-.73,1,1,0,0,1,.74-.29l1.09,0a1.22,1.22,0,0,0,.64-.09,1.45,1.45,0,0,0,.09-.69v-1.93c0-.12,0-.18-.16-.18H82.68s0,0,0,0a.08.08,0,0,0,0,0l.65.33a1.15,1.15,0,0,1,.57.62,1.09,1.09,0,0,1,0,.83,18.42,18.42,0,0,1-2,3.29,1,1,0,0,1-.72.42,1.14,1.14,0,0,1-.83-.21l-.5-.36a.93.93,0,0,1-.41-.69,1.1,1.1,0,0,1,.22-.8,21.75,21.75,0,0,0,2.07-3.37.1.1,0,0,0,0-.09.11.11,0,0,0-.09,0Zm10.73,4.42a1.12,1.12,0,0,1,.81-.26,1.06,1.06,0,0,1,.78.34l.32.34a1,1,0,0,1,.31.78,1,1,0,0,1-.36.74q-3.92,3.19-11.06,3.86a1.37,1.37,0,0,1-.88-.22,1.3,1.3,0,0,1-.56-.72l-.19-.51a.79.79,0,0,1,.09-.73.72.72,0,0,1,.62-.36Q87.32,116.66,90.85,113.92Z"/><path class="cls-2" d="M100.13,110.42a1.08,1.08,0,0,1-1.07-1.07v-.29a1.11,1.11,0,0,1,1.09-1.09c1.52,0,3.83,0,6.95-.11.1,0,.14,0,.11-.15l-.23-.9c0-.09-.08-.14-.19-.14-2.14.07-4.06.1-5.76.1a1.11,1.11,0,0,1-1.09-1.09v-.29a1,1,0,0,1,.32-.77,1.06,1.06,0,0,1,.79-.32c1.16,0,2.93,0,5.3-.08.13,0,.18,0,.15-.17a1.47,1.47,0,0,1,0-.27.87.87,0,0,0,0-.26,1,1,0,0,1,.26-.76,1.11,1.11,0,0,1,.76-.35l.76-.06a1.08,1.08,0,0,1,.78.28,1,1,0,0,1,.37.75l.06.58a.19.19,0,0,0,.19.17L113,104a1,1,0,0,1,.78.28,1.09,1.09,0,0,1,.37.76v.28a1.07,1.07,0,0,1-.29.78,1,1,0,0,1-.75.35l-1.49.07-1.53.07c-.1,0-.14,0-.11.17.1.41.18.71.25.9s.07.13.19.13l3.13-.11a1.09,1.09,0,0,1,1.13,1V109a1,1,0,0,1-.28.77,1.07,1.07,0,0,1-.75.36l-1.15.05-1.15,0c-.1,0-.12,0-.07.16.24.51.56,1.09,1,1.76a.95.95,0,0,1-.38,1.37l-1.07.5a2.59,2.59,0,0,1-2,.08,8.44,8.44,0,0,0-2.85-.52c-1.79,0-2.68.41-2.68,1.23a1.3,1.3,0,0,0,1,1.21,10.21,10.21,0,0,0,3.41.39,30.44,30.44,0,0,0,3.48-.25,1.09,1.09,0,0,1,.8.22,1.11,1.11,0,0,1,.41.72l.06.38a1.1,1.1,0,0,1-.94,1.23,33.71,33.71,0,0,1-3.81.25c-5,0-7.5-1.39-7.5-4.15a3,3,0,0,1,1.47-2.61,8,8,0,0,1,4.33-1,10.63,10.63,0,0,1,2.7.34h0v0c-.11-.23-.27-.58-.47-1.07a.21.21,0,0,0-.21-.13Q105.35,110.39,100.13,110.42Z"/><path class="cls-2" d="M118.86,118.57a.92.92,0,0,1-.63-.47,1,1,0,0,1-.08-.79,103.94,103.94,0,0,0,2.66-10.12.11.11,0,0,0,0-.12.18.18,0,0,0-.11,0h-1.21a1.13,1.13,0,0,1-1.09-1.09v-.44a1,1,0,0,1,.33-.77,1,1,0,0,1,.76-.32h1.71a.2.2,0,0,0,.21-.18c0-.11.06-.27.09-.48s.07-.36.08-.47a1.12,1.12,0,0,1,.44-.74,1.16,1.16,0,0,1,.82-.24l.77.06a.94.94,0,0,1,.71.39,1,1,0,0,1,.19.78c0,.07,0,.19-.06.36s0,.29-.06.36,0,.16.14.16h5.3a1,1,0,0,1,.75.32,1.07,1.07,0,0,1,.32.77v.44a1.07,1.07,0,0,1-.32.76,1,1,0,0,1-.75.33H124a.18.18,0,0,0-.19.15A99.33,99.33,0,0,1,121.08,118a1.13,1.13,0,0,1-.54.67,1.17,1.17,0,0,1-.85.13Zm13.82-2.69a1,1,0,0,1,.79.2,1,1,0,0,1,.41.69l.06.46a1.08,1.08,0,0,1-.21.82,1.13,1.13,0,0,1-.71.43,22.26,22.26,0,0,1-3,.21,8.2,8.2,0,0,1-4.36-1,2.94,2.94,0,0,1-1.61-2.57,3.21,3.21,0,0,1,1-2.18,1.35,1.35,0,0,1,.83-.44,1.54,1.54,0,0,1,.95.15l.33.15a.74.74,0,0,1,.4.56.83.83,0,0,1-.21.67,1.15,1.15,0,0,0-.37.76c0,.37.27.68.8.92a5.35,5.35,0,0,0,2.23.37A20.71,20.71,0,0,0,132.68,115.88ZM126.92,111a1.05,1.05,0,0,1-.78-.25,1,1,0,0,1-.37-.73l0-.38a1.11,1.11,0,0,1,1-1.19c2.06-.19,4-.29,5.83-.31a1,1,0,0,1,.76.33,1.06,1.06,0,0,1,.31.77v.38a1,1,0,0,1-.32.76,1,1,0,0,1-.77.33C130.64,110.74,128.77,110.84,126.92,111Z"/><path class="cls-2" d="M142,118.84c-1.13,0-2.18-.74-3.14-2.24a9.8,9.8,0,0,1-1.45-5.47,23.78,23.78,0,0,1,.71-5.76,1.21,1.21,0,0,1,.51-.72,1.26,1.26,0,0,1,.87-.2l.84.1a.83.83,0,0,1,.66.39.94.94,0,0,1,.14.78,24.19,24.19,0,0,0-.65,5.41,8.22,8.22,0,0,0,.59,3.28c.39.9.77,1.35,1.15,1.35s.57-.25,1-.76a10.41,10.41,0,0,0,1.25-2.17,1.1,1.1,0,0,1,.61-.59,1.13,1.13,0,0,1,.83,0l.61.23a1.05,1.05,0,0,1,.63,1.4,10.4,10.4,0,0,1-2.4,3.68A4.13,4.13,0,0,1,142,118.84Zm8.14-3.16a29.69,29.69,0,0,0-1.94-9.7,1,1,0,0,1,.65-1.3l.75-.21a1.15,1.15,0,0,1,.87.07,1.17,1.17,0,0,1,.62.62,29.31,29.31,0,0,1,2.15,10.54,1,1,0,0,1-.31.76,1.06,1.06,0,0,1-.77.31h-.91a1,1,0,0,1-.77-.32A1.09,1.09,0,0,1,150.15,115.68Z"/><path class="cls-2" d="M163.9,113.43a1.06,1.06,0,0,1-.77-.32,1.17,1.17,0,0,1-.35-.77l-.39-7.39a1,1,0,0,1,.29-.77,1,1,0,0,1,.75-.32h1.72a1,1,0,0,1,.74.32,1,1,0,0,1,.29.77l-.36,7.39a1.2,1.2,0,0,1-.37.77,1.06,1.06,0,0,1-.78.32Zm1,1.53a1.09,1.09,0,0,1,.77.32,1.07,1.07,0,0,1,.32.77v.69a1.11,1.11,0,0,1-1.09,1.09h-1.15a1.13,1.13,0,0,1-1.09-1.09v-.69a1.11,1.11,0,0,1,1.09-1.09Z"/><path class="cls-3" d="M29.85,109.59s19.24,31.51,90.71,33L126,152.89l5.44-10.26c71.47-1.53,90.71-33,90.71-33"/><circle class="cls-4" cx="162.5" cy="31.85" r="30.42"/><path class="cls-2" d="M162.5,2.85a29,29,0,1,1-29,29,29,29,0,0,1,29-29m0-2.84a31.84,31.84,0,1,0,31.83,31.84A31.87,31.87,0,0,0,162.5,0Z"/><circle class="cls-2" cx="158.03" cy="21.93" r="3.75"/><circle class="cls-2" cx="166.97" cy="21.93" r="3.75"/><circle class="cls-2" cx="158.03" cy="30.8" r="3.75"/><circle class="cls-2" cx="166.97" cy="30.8" r="3.75"/><circle class="cls-2" cx="158.03" cy="39.68" r="3.75"/><circle class="cls-2" cx="166.97" cy="39.68" r="3.75"/><path class="cls-2" d="M172,10.19H153a3.11,3.11,0,0,0-3.1,3.11V50.4a3.11,3.11,0,0,0,3.1,3.1h19a3.12,3.12,0,0,0,3.1-3.1V13.3A3.12,3.12,0,0,0,172,10.19Zm-9.5,41.34a1.41,1.41,0,1,1,1.41-1.41A1.42,1.42,0,0,1,162.5,51.53Zm10.66-4.76H151.84V15.51h21.32Z"/><line class="cls-2" x1="160.62" y1="13.03" x2="164.38" y2="13.03"/><path class="cls-4" d="M164.38,13.51h-3.76a.47.47,0,0,1-.48-.48.48.48,0,0,1,.48-.48h3.76a.48.48,0,0,1,.48.48A.47.47,0,0,1,164.38,13.51Z"/><circle class="cls-1" cx="89.5" cy="31.83" r="30.42"/><path class="cls-2" d="M89.5,2.83a29,29,0,1,1-29,29,29,29,0,0,1,29-29M89.5,0a31.84,31.84,0,1,0,31.83,31.83A31.87,31.87,0,0,0,89.5,0Z"/><path class="cls-2" d="M100,51.59l-4.15-8.18s-1.76-4.33-1.76-4.33c-.73.82-3.5,3.62-3.65,3.78l1.18,2.29.09.18,5,8a1.93,1.93,0,0,0,2.55.73A1.78,1.78,0,0,0,100,51.59Z"/><path class="cls-2" d="M85.13,26.67c-.3-1.14-.6-2.21-.85-3a8.52,8.52,0,0,1-.37-2.13L81.3,25.32l-4.48,6.56A1.49,1.49,0,0,0,77.18,34a1.62,1.62,0,0,0,2.2-.34l5.07-6.17Z"/><path class="cls-2" d="M82.8,55.09a2.44,2.44,0,0,1-.66-.09,2.35,2.35,0,0,1-1.42-1.12,2.24,2.24,0,0,1-.17-1.7l2.54-9.94a9.08,9.08,0,0,1,.69-1.42l3.86-6.91c-.25-.92-2-7.31-2.89-10.4-1.1-3.67.55-5.63,2.3-6.19a4.84,4.84,0,0,1,1.42-.22,5.08,5.08,0,0,1,4.2,2.37l8,11.36a1.76,1.76,0,0,1,.35,1.33,1.8,1.8,0,0,1-.73,1.2,1.93,1.93,0,0,1-1.12.35A1.87,1.87,0,0,1,97.73,33l-2.79-3.28c.2,1.09.37,2,.46,2.51A7.12,7.12,0,0,1,94,38a77.23,77.23,0,0,1-5.55,6L85,53.47A2.34,2.34,0,0,1,82.8,55.09Z"/><path class="cls-1" d="M88.47,17.38a4.8,4.8,0,0,1,4,2.25l3.45,4.87,4.6,6.49a1.5,1.5,0,0,1-.32,2.14,1.65,1.65,0,0,1-1,.3A1.59,1.59,0,0,1,98,32.82l-3.5-4.11c.29,1.54.54,2.88.66,3.56a6.9,6.9,0,0,1-1.37,5.57,79,79,0,0,1-5.57,6l-3.4,9.57a2.07,2.07,0,0,1-2,1.43,2.06,2.06,0,0,1-2-2.55l2.55-9.95a9,9,0,0,1,.68-1.39l3.89-7S86,26.79,85,23.43s.36-5.27,2.12-5.84a4.41,4.41,0,0,1,1.33-.21m0-.56h0a5.12,5.12,0,0,0-1.51.23c-1.87.6-3.64,2.68-2.48,6.54.9,3,2.53,9.05,2.86,10.28l-3.78,6.78a8,8,0,0,0-.74,1.51l-2.55,10A2.41,2.41,0,0,0,80.48,54a2.53,2.53,0,0,0,1.58,1.26,2.67,2.67,0,0,0,3.26-1.73l3.35-9.42a74.49,74.49,0,0,0,5.53-5.95,7.41,7.41,0,0,0,1.48-6c-.06-.34-.15-.85-.27-1.46l2.11,2.48a2.19,2.19,0,0,0,3,.4,2.06,2.06,0,0,0,.44-2.94l-4.59-6.48L92.9,19.3a5.36,5.36,0,0,0-4.43-2.48Z"/><path class="cls-2" d="M88.94,12.85a4.07,4.07,0,0,1-8.13,0,4.07,4.07,0,0,1,8.13,0Z"/><path class="cls-2" d="M90.66,14.58l-.2,0-11.3-2.83a.65.65,0,0,1-.53-.59.75.75,0,0,1,.56-.71c.51-.18,2.5-.63,2.58-.65h.07L89,11.56l0,0c.07.05,1.61,1.38,2,1.79a.79.79,0,0,1,.19.83A.63.63,0,0,1,90.66,14.58Z"/><path class="cls-1" d="M81.83,10.05l7.07,1.77s1.59,1.37,1.94,1.77.16.7-.18.7h-.13l-11.3-2.84c-.42-.1-.44-.57.06-.75s2.54-.64,2.54-.64m0-.59-.13,0c-.22,0-2.1.48-2.62.67a1,1,0,0,0-.74,1,.93.93,0,0,0,.74.84l11.3,2.84.27,0a.91.91,0,0,0,.84-.52,1,1,0,0,0-.24-1.13c-.36-.41-1.83-1.68-2-1.82l-.11-.09-.13,0L82,9.5l-.13,0Z"/><path class="cls-2" d="M80.81,10.68S82,8,83,7.51a4.87,4.87,0,0,1,3.3-.09A4.84,4.84,0,0,1,89.1,9.06c.62.85.4,3.8.4,3.8"/><path class="cls-5" d="M90.78,16.85c-2.06,2-3.2,3.36,5.58,15.24"/><path class="cls-2" d="M98.84,26.2V20.52a2.88,2.88,0,0,0-3.2-3h-3.1Z"/><line class="cls-6" x1="93.96" y1="20.41" x2="99.39" y2="20.41"/></g></g></svg>