<svg xmlns="http://www.w3.org/2000/svg" viewBox="0 0 252 254.86"><defs><style>.cls-1{fill:#986063;}.cls-2{fill:#fff;}.cls-3{fill:none;stroke:#fff;stroke-linecap:round;stroke-linejoin:round;stroke-width:1.42px;}</style></defs><g id="レイヤー_2" data-name="レイヤー 2"><g id="base"><rect class="cls-1" y="20.86" width="252" height="234" rx="50"/><path class="cls-2" d="M84.23,94.83a3.3,3.3,0,0,1-1.62-.25c-.21-.16-.31-.59-.31-1.29v-3.6a.13.13,0,0,0-.15-.15h-.21q-.18,0-.18.15a6.78,6.78,0,0,1-.93,3,5.8,5.8,0,0,1-2.24,1.93,1.12,1.12,0,0,1-.86.08A1.27,1.27,0,0,1,77,94.2a.3.3,0,0,0-.25-.15H73.15c-.07,0-.11,0-.11.12a.68.68,0,0,1-.69.68h-1a1,1,0,0,1-.76-.32,1.06,1.06,0,0,1-.31-.77V89.31a.6.6,0,0,0-.1-.31l-.73-1.11a1.33,1.33,0,0,1-.19-.87,1.46,1.46,0,0,1,.38-.81,15.06,15.06,0,0,0,1.71-2.28.07.07,0,0,0,0-.09.11.11,0,0,0-.09,0h-.75a1,1,0,0,1-.76-.32,1,1,0,0,1-.33-.77v-.07a1,1,0,0,1,.33-.77,1.07,1.07,0,0,1,.76-.32h.31a.06.06,0,0,0,0-.06l-.61-.23a.77.77,0,0,1-.51-.54.93.93,0,0,1,.09-.76,15.08,15.08,0,0,0,1-2.09,1.48,1.48,0,0,1,.59-.67,1.29,1.29,0,0,1,.86-.15l.25,0a.82.82,0,0,1,.59.37.74.74,0,0,1,.06.68c0,.08,0,.12.1.12H76.6a1,1,0,0,1,.76.32,1,1,0,0,1,.33.77v.15a1.11,1.11,0,0,1-1.09,1.09h-.84a.2.2,0,0,0-.22.15,3.1,3.1,0,0,1-.09.31c0,.15-.09.27-.12.34s0,.16.12.16h1.38a1,1,0,0,1,.75.32,1.07,1.07,0,0,1,.32.77v.07a1.07,1.07,0,0,1-.32.77,1,1,0,0,1-.75.32H75.64a0,0,0,0,0,0,0s0,0,0,0l.71.18a.77.77,0,0,1,.51.4.69.69,0,0,1,0,.61c0,.08,0,.11.06.11a.83.83,0,0,1,.6.26.81.81,0,0,1,.26.61v.11a.91.91,0,0,1-.28.68,1,1,0,0,1-.69.28h-.21c-.11,0-.16.05-.16.17v.38c0,.12.05.17.16.17H77a.75.75,0,0,1,.52.2.74.74,0,0,1,0,1,.72.72,0,0,1-.52.21h-.34c-.11,0-.16,0-.16.15v.4a.14.14,0,0,0,.16.16H77a.72.72,0,0,1,.52.21.69.69,0,0,1,.21.51.66.66,0,0,1-.21.51.71.71,0,0,1-.52.2h-.34c-.11,0-.16.06-.16.17v.39c0,.11.05.17.16.17h.32a1,1,0,0,1,.46.11.37.37,0,0,0,.29,0,3,3,0,0,0,1.13-1,3.87,3.87,0,0,0,.51-1.56c0-.09,0-.13-.11-.13a.88.88,0,0,1-.65-.28.9.9,0,0,1-.27-.64V78.74a1,1,0,0,1,.32-.75,1.09,1.09,0,0,1,.77-.32h6.24a1.09,1.09,0,0,1,1.07,1.07v9.7a1.07,1.07,0,0,1-.32.77,1,1,0,0,1-.75.33H85c-.12,0-.17,0-.17.15v2.5a.8.8,0,0,0,0,.23s.09,0,.21.06h.21a.28.28,0,0,0,.28-.19,4.58,4.58,0,0,0,.08-1,.87.87,0,0,1,.33-.65.85.85,0,0,1,.68-.2,1.13,1.13,0,0,1,.69.41,1.08,1.08,0,0,1,.25.76c0,.55-.05,1-.08,1.31a3.73,3.73,0,0,1-.16.88,2.3,2.3,0,0,1-.24.57.8.8,0,0,1-.43.28,2.39,2.39,0,0,1-.59.14l-.87,0h-.94ZM72.77,80.73c0-.1,0-.15-.11-.15H72.2a.3.3,0,0,0-.25.13l-.42.69c-.07.09,0,.14,0,.14h.73a.22.22,0,0,0,.23-.16C72.64,81.1,72.72,80.89,72.77,80.73Zm1.42,6.89v-.38c0-.12-.06-.17-.16-.17h-.82a.15.15,0,0,0-.17.17v.38a.15.15,0,0,0,.17.17H74C74.13,87.79,74.19,87.74,74.19,87.62Zm0,2.16v-.4a.14.14,0,0,0-.16-.15h-.82c-.11,0-.17,0-.17.15v.4c0,.11.06.16.17.16H74A.14.14,0,0,0,74.19,89.78Zm0,2.15v-.39a.15.15,0,0,0-.16-.17h-.82a.15.15,0,0,0-.17.17v.39a.15.15,0,0,0,.17.17H74A.15.15,0,0,0,74.19,91.93ZM75,84c0-.1,0-.16-.1-.16h-.4a.25.25,0,0,0-.25.16c-.25.48-.45.84-.59,1.07s0,.11.1.11h.51a.24.24,0,0,0,.25-.13Q74.83,84.39,75,84Zm6.08-3.71V81c0,.12.06.17.18.17h2.39a.15.15,0,0,0,.17-.17v-.78c0-.12-.06-.18-.17-.18H81.27A.16.16,0,0,0,81.09,80.24Zm0,3V84c0,.11.06.16.18.16h2.39c.11,0,.17,0,.17-.16v-.8a.15.15,0,0,0-.17-.17H81.27C81.15,83.07,81.09,83.13,81.09,83.24Zm.18,4h2.39a.15.15,0,0,0,.17-.17v-.85c0-.1-.06-.15-.17-.15H81.27q-.18,0-.18.15v.85C81.09,87.2,81.15,87.26,81.27,87.26Z"/><path class="cls-2" d="M90.11,86.74a1.07,1.07,0,0,1-.77-.32,1.06,1.06,0,0,1-.33-.77v-.38a1,1,0,0,1,.33-.76,1.06,1.06,0,0,1,.77-.31h5.54c.11,0,.16-.06.16-.18V78.5a1.07,1.07,0,0,1,.32-.77,1,1,0,0,1,.77-.33h.95A1.13,1.13,0,0,1,99,78.5V84q0,.18.15.18h5.55a1,1,0,0,1,.76.31,1,1,0,0,1,.33.76v.38a1.11,1.11,0,0,1-1.09,1.09H101.2a.13.13,0,0,0-.15.15v4.56c0,.24,0,.38.13.43a3.61,3.61,0,0,0,.94.07,3.31,3.31,0,0,0,.54,0c.1,0,.2-.12.29-.31a2,2,0,0,0,.19-.75c0-.32,0-.83.09-1.52a1,1,0,0,1,.36-.73,1,1,0,0,1,.77-.26l.67.06a1.1,1.1,0,0,1,.75.38,1,1,0,0,1,.28.78q0,.81-.06,1.32a9.38,9.38,0,0,1-.12,1c-.06.35-.1.62-.12.83a1.67,1.67,0,0,1-.22.61l-.27.45a1,1,0,0,1-.41.29,4.52,4.52,0,0,1-.51.19,5.4,5.4,0,0,1-.68.09l-.81,0h-1c-.61,0-1.11,0-1.49,0a4.67,4.67,0,0,1-1-.14,2.46,2.46,0,0,1-.7-.26,1,1,0,0,1-.38-.45,1.8,1.8,0,0,1-.19-.66A7.9,7.9,0,0,1,98,92V86.89a.13.13,0,0,0-.15-.15H96.36a.16.16,0,0,0-.17.15,9.06,9.06,0,0,1-1.46,4.19,11.11,11.11,0,0,1-3.57,3.12,1,1,0,0,1-.84.12,1.2,1.2,0,0,1-.71-.5l-.42-.59a.93.93,0,0,1-.15-.79,1,1,0,0,1,.49-.63,8.58,8.58,0,0,0,2.57-2.13,6.25,6.25,0,0,0,1.12-2.79s0-.07,0-.1a.21.21,0,0,0-.12-.05Zm1.16-8a1.12,1.12,0,0,1,.86,0,1.15,1.15,0,0,1,.67.55q.69,1.26,1.23,2.43a1,1,0,0,1,0,.83,1.08,1.08,0,0,1-.58.61l-.63.3a1,1,0,0,1-.84,0,1.1,1.1,0,0,1-.61-.57c-.39-.79-.8-1.61-1.25-2.45a1,1,0,0,1-.06-.81.93.93,0,0,1,.54-.59Zm12.13-.19.69.29a1.14,1.14,0,0,1,.61.57,1,1,0,0,1,0,.83c-.45,1-.89,1.9-1.31,2.69a1.08,1.08,0,0,1-.65.55,1.16,1.16,0,0,1-.86,0l-.63-.3a1,1,0,0,1-.55-.61,1,1,0,0,1,.07-.79c.42-.82.83-1.67,1.21-2.57a1.07,1.07,0,0,1,.58-.6A1,1,0,0,1,103.4,78.55Z"/><path class="cls-2" d="M115.34,93.23c-3.54,0-5.32-1.19-5.32-3.58a3,3,0,0,1,.67-1.82A9.31,9.31,0,0,1,113,85.92q.14-.08,0-.21a8.47,8.47,0,0,1-1.68-1.87,3.27,3.27,0,0,1-.42-1.65,2.81,2.81,0,0,1,1.27-2.38,5.85,5.85,0,0,1,3.51-.93,6.4,6.4,0,0,1,3.7.88,2.83,2.83,0,0,1,1.26,2.47,3.15,3.15,0,0,1-.73,1.94,9.08,9.08,0,0,1-2.45,2c-.09.05-.1.11,0,.19l1.82,1.7s0,0,.08,0,0,0,0-.05V86.65a1.07,1.07,0,0,1,.32-.77,1,1,0,0,1,.75-.32h.79a1,1,0,0,1,.76.32,1,1,0,0,1,.33.77v4.07a.4.4,0,0,0,.11.27l1.4,1.3a.42.42,0,0,1,.11.48.4.4,0,0,1-.4.27h-1.34a2.8,2.8,0,0,1-1.89-.73l-.06-.06a.24.24,0,0,0-.28,0A12.12,12.12,0,0,1,115.34,93.23Zm-.51-5.61q-1.5,1-1.5,1.74c0,.93.73,1.4,2.19,1.4a5.48,5.48,0,0,0,2.25-.5c.09-.05.1-.11,0-.19l-2.7-2.43A.19.19,0,0,0,114.83,87.62Zm.88-6.48a2.12,2.12,0,0,0-1.29.32,1,1,0,0,0-.46.86,1.43,1.43,0,0,0,.24.81,7.4,7.4,0,0,0,1.09,1.22.18.18,0,0,0,.24,0,8,8,0,0,0,1.61-1.15,1.33,1.33,0,0,0,.36-.92C117.5,81.53,116.91,81.14,115.71,81.14Z"/><path class="cls-2" d="M127.78,83.72a1.11,1.11,0,0,1-1.09-1.09V82.3a1,1,0,0,1,.32-.75,1.09,1.09,0,0,1,.77-.32H128c.1,0,.15-.06.15-.17V78.8a1.13,1.13,0,0,1,1.09-1.09H130a1.13,1.13,0,0,1,1.09,1.09v2.26a.15.15,0,0,0,.17.17h.33a1,1,0,0,1,1,.61.2.2,0,0,0,.21.14l.65-.14a.19.19,0,0,0,.18-.19V79.43a1,1,0,0,1,.32-.75,1.07,1.07,0,0,1,.77-.32h.65a1.05,1.05,0,0,1,.76.32,1,1,0,0,1,.33.75V81.1c0,.1,0,.14.15.11l.69-.13c.11,0,.17-.09.17-.19V78.46a1,1,0,0,1,.32-.76,1,1,0,0,1,.75-.31h.39a1,1,0,0,1,.76.31,1,1,0,0,1,.33.76v1.93c0,.11,0,.16.15.13l3-.59a.91.91,0,0,1,.75.18.81.81,0,0,1,.32.68v.42A40.73,40.73,0,0,1,144,86.8c-.18,1-.48,1.66-.91,1.87a.06.06,0,0,0,0,0,.05.05,0,0,0,0,0l.69.17a1.32,1.32,0,0,1,1,1.34c-.05.75-.11,1.36-.18,1.81a3.53,3.53,0,0,1-.41,1.21,2.7,2.7,0,0,1-.64.79,3.23,3.23,0,0,1-1.14.41,9.84,9.84,0,0,1-1.59.19c-.52,0-1.29,0-2.3,0q-1.22,0-1.95,0a10.25,10.25,0,0,1-1.33-.14,3.49,3.49,0,0,1-.88-.26,1.33,1.33,0,0,1-.48-.49,1.92,1.92,0,0,1-.24-.72c0-.24,0-.59,0-1V84.75a.12.12,0,0,0-.06-.1.1.1,0,0,0-.12,0l-.3.07a1,1,0,0,1-1.19-.86c0-.11-.09-.16-.19-.13h-.48c-.11,0-.17,0-.17.15v6.24c0,.1.06.14.17.11a4.16,4.16,0,0,0,.48-.17.75.75,0,0,1,.72.1.76.76,0,0,1,.35.63v.38a1.52,1.52,0,0,1-.24.91,1.4,1.4,0,0,1-.71.58,35,35,0,0,1-4,1.25.93.93,0,0,1-.77-.16.83.83,0,0,1-.39-.67l0-.49a1.16,1.16,0,0,1,.24-.84,1.18,1.18,0,0,1,.72-.5.82.82,0,0,1,.18,0l.18,0a.18.18,0,0,0,.15-.21V83.87a.13.13,0,0,0-.15-.15Zm8.65.48v7.21c0,.37.13.59.38.65a18.19,18.19,0,0,0,2.57.1h.81a3.77,3.77,0,0,0,.6-.06,2.14,2.14,0,0,0,.48-.11,1,1,0,0,0,.31-.24.73.73,0,0,0,.22-.37c0-.12.07-.31.12-.58A7.58,7.58,0,0,0,142,90c0-.25,0-.6,0-1.06a.13.13,0,0,0-.15-.15h-.12a1.36,1.36,0,0,1-.84-.34,1.43,1.43,0,0,1-.46-.77l-.09-.44a.55.55,0,0,1,.11-.44,1.34,1.34,0,0,1,.3-.32,4,4,0,0,1,.45-.27c.08-.06.13-.27.16-.66s.06-1.19.09-2.43c0-.1-.05-.14-.15-.11l-1.23.25a.18.18,0,0,0-.15.19V89a1.13,1.13,0,0,1-1.09,1.09h-.39a1,1,0,0,1-.75-.33,1.05,1.05,0,0,1-.32-.76V84a.14.14,0,0,0-.06-.11.11.11,0,0,0-.11,0l-.69.14A.18.18,0,0,0,136.43,84.2Z"/><path class="cls-2" d="M146.36,84.45a1.08,1.08,0,0,1-.39-.73,1,1,0,0,1,.24-.79l.25-.28a1.16,1.16,0,0,1,.75-.4,1.09,1.09,0,0,1,.81.24c.71.57,1.29,1.06,1.75,1.48a1.11,1.11,0,0,1,.37.76,1.09,1.09,0,0,1-.28.81l-.29.32a1.06,1.06,0,0,1-.71.37,1,1,0,0,1-.76-.27C147.56,85.47,147,85,146.36,84.45ZM150,79.18v-.24a1,1,0,0,1,.33-.76,1.07,1.07,0,0,1,.76-.32h11.54a1.07,1.07,0,0,1,.77.32,1,1,0,0,1,.32.76v.24a1,1,0,0,1-.32.76,1.07,1.07,0,0,1-.77.32h-2.79c-.12,0-.17,0-.17.17v.72c0,.12.05.18.17.18h2.29a1.06,1.06,0,0,1,.77.31,1,1,0,0,1,.32.76V93.61a1.05,1.05,0,0,1-.32.77,1.07,1.07,0,0,1-.77.32h-1.07a.63.63,0,0,1-.46-.2.65.65,0,0,1-.19-.45.08.08,0,0,0-.09-.09h-7.14c-.06,0-.1,0-.1.09a.62.62,0,0,1-.19.46.59.59,0,0,1-.44.19h-1.09a1.11,1.11,0,0,1-1.09-1.09v-4h0a27.24,27.24,0,0,1-1.57,4.21.93.93,0,0,1-.61.52,1,1,0,0,1-.78-.12l-.54-.3a1.21,1.21,0,0,1-.46-1.54,33.83,33.83,0,0,0,1.44-3.73,1,1,0,0,1,.52-.61,1,1,0,0,1,.82,0l.44.16a1.13,1.13,0,0,1,.74.8l0,0V82.4a1,1,0,0,1,.33-.76,1,1,0,0,1,.76-.31h2.32c.11,0,.17-.06.17-.18v-.72a.15.15,0,0,0-.17-.17h-2.59a1.07,1.07,0,0,1-.76-.32A1,1,0,0,1,150,79.18Zm-1.89,2c-.59-.51-1-.9-1.36-1.16a1,1,0,0,1-.38-.73,1,1,0,0,1,.25-.77l.19-.25a1.16,1.16,0,0,1,1.59-.15c.53.43,1,.81,1.34,1.13a1.14,1.14,0,0,1,.11,1.57l-.25.29a.94.94,0,0,1-.73.36A1,1,0,0,1,148.14,81.19Zm6,2.49a.15.15,0,0,0-.17-.17h-.65c-.12,0-.18.06-.18.17v2.45a.09.09,0,0,0,0,.06s0,0,.07,0A3.8,3.8,0,0,0,154.11,83.68Zm-1,3.94v.94c0,.11.06.17.18.17h.65s0,0,.05,0a.06.06,0,0,0,0-.08l-.78-1s-.05,0-.07,0A.09.09,0,0,0,153.11,87.62Zm7.33,4V91c0-.11-.05-.17-.15-.17h-7c-.12,0-.18.06-.18.17v.65q0,.15.18.15h7A.13.13,0,0,0,160.44,91.6Zm-6-3q-.09.09.06.09h5.78c.1,0,.15-.06.15-.17v-.77a.13.13,0,0,0-.15-.15H159a1.87,1.87,0,0,1-1.48-.46,3,3,0,0,1-.38-1.82V83.68a.15.15,0,0,0-.17-.17h-.38c-.12,0-.18.06-.18.17a7.8,7.8,0,0,1-.47,2.76A6.54,6.54,0,0,1,154.45,88.64Zm1.84-8.21v.72q0,.18.15.18h.69c.1,0,.16-.06.16-.18v-.72c0-.12-.06-.17-.16-.17h-.69C156.34,80.26,156.29,80.31,156.29,80.43Zm3.2,3.25v1a1.64,1.64,0,0,0,.08.73c.06.07.25.11.58.11h.14c.1,0,.15-.06.15-.17V83.68c0-.11-.05-.17-.15-.17h-.65C159.54,83.51,159.49,83.57,159.49,83.68Z"/><path class="cls-2" d="M166.81,81.88a1,1,0,0,1-.75-.32,1.09,1.09,0,0,1-.32-.77V80.5a1.07,1.07,0,0,1,.32-.76,1,1,0,0,1,.75-.33h2.78a.23.23,0,0,0,.23-.15l.14-.38c.07-.19.13-.34.16-.44a1.29,1.29,0,0,1,.55-.7,1.2,1.2,0,0,1,.85-.16l.92.17a.87.87,0,0,1,.63.43.88.88,0,0,1,.08.76,1.1,1.1,0,0,0-.07.17l-.07.17c0,.09,0,.13.12.13h6.5a1,1,0,0,1,.77.33,1,1,0,0,1,.32.76v.29a1.05,1.05,0,0,1-.32.77,1.07,1.07,0,0,1-.77.32h-7.54a.21.21,0,0,0-.22.14l-.48,1v0h0a4.71,4.71,0,0,1,1.61-.31,3.7,3.7,0,0,1,3.64,2.09.17.17,0,0,0,.23.11q1.15-.24,2.64-.42a1,1,0,0,1,.79.23,1,1,0,0,1,.39.73l0,.36a1.08,1.08,0,0,1-.24.8,1.06,1.06,0,0,1-.72.41c-.68.1-1.45.23-2.29.38-.12,0-.16.1-.13.21.07.75.11,1.19.11,1.32a1,1,0,0,1-.31.77,1.05,1.05,0,0,1-.76.32h-.92a1.08,1.08,0,0,1-.77-.31,1.13,1.13,0,0,1-.34-.76c0-.23,0-.4,0-.52a.1.1,0,0,0-.06-.09.11.11,0,0,0-.11,0c-1.61.62-2.41,1.24-2.41,1.83a1.09,1.09,0,0,0,.76,1,8.74,8.74,0,0,0,3,.33,29.84,29.84,0,0,0,3.75-.32,1.07,1.07,0,0,1,1.19.94l0,.45a1.09,1.09,0,0,1-.24.81,1,1,0,0,1-.71.42,35.84,35.84,0,0,1-4,.23,11.34,11.34,0,0,1-5.22-.88,2.9,2.9,0,0,1-1.59-2.7,3.62,3.62,0,0,1,1.22-2.6,9.87,9.87,0,0,1,3.68-2.07c.1,0,.12-.11,0-.19a1.69,1.69,0,0,0-1.39-.55,2.91,2.91,0,0,0-1.69.6,10.91,10.91,0,0,0-2.06,2.19,1.25,1.25,0,0,1-.74.48,1.16,1.16,0,0,1-.85-.14l-.56-.3a1,1,0,0,1-.48-.63,1,1,0,0,1,.16-.79A36.31,36.31,0,0,0,168.67,82c.05-.09,0-.14-.1-.14Z"/><path class="cls-2" d="M79.12,110.65l-.11-.37a1,1,0,0,1,0-.84,1,1,0,0,1,.62-.54c.86-.3,1.54-.56,2-.76a1,1,0,0,1,1.37.59l.1.27a1.16,1.16,0,0,1,0,.86,1.1,1.1,0,0,1-.59.61c-.74.34-1.43.62-2.07.85a1,1,0,0,1-.82,0A1.1,1.1,0,0,1,79.12,110.65Zm10.49.78c-.1,0-.15.06-.15.17v.46c0,.12.05.17.15.17h5.7a1.09,1.09,0,0,1,.77.32,1,1,0,0,1,.32.76v.32a1.09,1.09,0,0,1-1.09,1.09h-4.4a.05.05,0,0,0,0,.06,26.56,26.56,0,0,0,5.21,2,.87.87,0,0,1,.58.5.82.82,0,0,1,0,.76l-.21.44a1.25,1.25,0,0,1-.64.6,1.14,1.14,0,0,1-.85,0,26.7,26.7,0,0,1-5.38-2.64c-.08,0-.11,0-.11.08v2a1.13,1.13,0,0,1-1.1,1.1h-1a1,1,0,0,1-.77-.33,1.07,1.07,0,0,1-.32-.77v-2c0-.1,0-.12-.14-.06a26.37,26.37,0,0,1-5.35,2.62,1.16,1.16,0,0,1-.86,0,1.25,1.25,0,0,1-.64-.6l-.21-.44a.91.91,0,0,1,.6-1.28,26.42,26.42,0,0,0,5.16-2,.08.08,0,0,0,0,0s0,0,0,0h-4.4a1.11,1.11,0,0,1-1.09-1.09v-.32a1,1,0,0,1,.33-.76,1.05,1.05,0,0,1,.76-.32h5.7c.11,0,.16,0,.16-.17v-.46c0-.11,0-.17-.16-.17H84.44a1.13,1.13,0,0,1-1.09-1.09v-6a1,1,0,0,1,.33-.75,1.05,1.05,0,0,1,.76-.32h1.32a.19.19,0,0,0,.21-.17.65.65,0,0,1,0-.11.58.58,0,0,0,0-.1,1.18,1.18,0,0,1,.48-.75,1.23,1.23,0,0,1,.84-.25l1,.06a1,1,0,0,1,.69.37.93.93,0,0,1,.15.76v0c0,.1,0,.15.13.15h2.07a1.09,1.09,0,0,1,.77.32,1,1,0,0,1,.32.75v4.9h0q0-.2.06-.21l.13-.33a1.15,1.15,0,0,1,.61-.6,1.19,1.19,0,0,1,.85,0c.63.22,1.32.48,2.06.79a1,1,0,0,1,.58.59,1.16,1.16,0,0,1,0,.84l-.16.4a1,1,0,0,1-.58.57,1,1,0,0,1-.81,0c-.79-.34-1.48-.63-2.07-.84a1,1,0,0,1-.65-.77h0v.73a1.11,1.11,0,0,1-1.09,1.09Zm-9.93-7.83a1,1,0,0,1,.73-.4,1.18,1.18,0,0,1,.82.25c.48.38,1,.79,1.51,1.23a.94.94,0,0,1,.36.73,1.07,1.07,0,0,1-.27.8l-.22.28a1,1,0,0,1-.73.38,1,1,0,0,1-.77-.26c-.86-.73-1.37-1.14-1.51-1.25a1,1,0,0,1-.39-.69,1,1,0,0,1,.24-.78Zm6.58,2v.75c0,.1.06.15.17.15h2.91c.12,0,.17-.05.17-.15v-.75a.15.15,0,0,0-.17-.17H86.43A.15.15,0,0,0,86.26,105.61Zm3.08,3.87c.12,0,.17,0,.17-.15v-.79c0-.1-.05-.15-.17-.15H86.43c-.11,0-.17,0-.17.15v.79c0,.1.06.15.17.15Zm6.72-5.9.24.27a1,1,0,0,1,.29.78,1,1,0,0,1-.36.75c-.49.42-1,.83-1.51,1.23a1.11,1.11,0,0,1-.83.23,1.26,1.26,0,0,1-.76-.4l-.25-.25a1,1,0,0,1-.25-.77,1,1,0,0,1,.38-.71l1.5-1.2a1.14,1.14,0,0,1,.79-.27A1.09,1.09,0,0,1,96.06,103.58Z"/><path class="cls-2" d="M106.52,119a7.56,7.56,0,0,1-3.53-.67,4,4,0,0,1-1.82-2.29,14,14,0,0,1-.58-4.56q0-3.89.19-7.4a1.15,1.15,0,0,1,.37-.77,1,1,0,0,1,.78-.29l1,0a1,1,0,0,1,.74.35,1,1,0,0,1,.28.76q-.21,3.75-.21,7.33a7.47,7.47,0,0,0,.6,3.68,2.4,2.4,0,0,0,2.17.91,4.3,4.3,0,0,0,2.76-1,9.2,9.2,0,0,0,2.29-3.27,1.15,1.15,0,0,1,.61-.6,1.13,1.13,0,0,1,.83,0l.74.29a1,1,0,0,1,.62,1.4Q111.73,118.95,106.52,119Z"/><path class="cls-2" d="M122,118.66a4.21,4.21,0,0,1-3.09-1.49,4.76,4.76,0,0,1-1.42-3.39,3.92,3.92,0,0,1,1.59-3.12,8.6,8.6,0,0,1,4.47-1.68.2.2,0,0,0,.17-.19c0-.31.13-1.18.27-2.62a.13.13,0,0,0-.15-.15H120a1,1,0,0,1-.76-.33,1,1,0,0,1-.33-.77v-.44a1,1,0,0,1,.33-.76,1,1,0,0,1,.76-.33h6.09a1.13,1.13,0,0,1,1.09,1.09V106c-.19,1.6-.3,2.51-.33,2.71s0,.17.14.17c.67.07,1.34.16,2,.29.11,0,.17,0,.17-.13,0-1.18,0-2.2,0-3.06a1.08,1.08,0,0,1,1.07-1.08H131a1.07,1.07,0,0,1,.77.32,1,1,0,0,1,.32.76c0,1.12,0,2.43-.07,3.94a.23.23,0,0,0,.15.23,18.28,18.28,0,0,1,1.8.86,1,1,0,0,1,.52.65,1.12,1.12,0,0,1-.08.86l-.29.57a.92.92,0,0,1-.62.5,1,1,0,0,1-.81-.09l-.77-.41a.1.1,0,0,0-.15.08,8.46,8.46,0,0,1-1.06,3.37,7.76,7.76,0,0,1-2.37,2.16.92.92,0,0,1-.82.12,1.1,1.1,0,0,1-.67-.5l-.36-.6a1,1,0,0,1-.12-.8,1.15,1.15,0,0,1,.5-.67,4.08,4.08,0,0,0,1.48-1.47,7.08,7.08,0,0,0,.62-2.6c0-.13,0-.21-.13-.23a12.16,12.16,0,0,0-2.3-.39.17.17,0,0,0-.19.14,27.52,27.52,0,0,1-.82,3.6,7,7,0,0,1-1,2.12,2.93,2.93,0,0,1-1.14,1A3.59,3.59,0,0,1,122,118.66Zm1.17-6.92a4.52,4.52,0,0,0-2,.79,1.59,1.59,0,0,0-.68,1.25,2,2,0,0,0,.45,1.22c.3.4.58.6.85.6.6,0,1.12-1.25,1.55-3.75a.06.06,0,0,0,0-.09A.08.08,0,0,0,123.17,111.74Z"/><path class="cls-2" d="M138,118.59a1,1,0,0,1-.63-.47,1,1,0,0,1-.08-.8q1.62-5.16,2.66-10.12a.11.11,0,0,0,0-.11.14.14,0,0,0-.11-.06h-1.2a1.11,1.11,0,0,1-1.09-1.09v-.44a1.09,1.09,0,0,1,1.09-1.09h1.7a.19.19,0,0,0,.21-.17c0-.12.06-.28.1-.48s.06-.37.08-.48a1.13,1.13,0,0,1,.43-.74,1.23,1.23,0,0,1,.83-.24l.76.06a1,1,0,0,1,.71.39,1,1,0,0,1,.19.78c0,.07,0,.2-.05.36l-.06.36c0,.11,0,.16.13.16h5.3a1,1,0,0,1,.76.32,1.08,1.08,0,0,1,.31.77v.44a1,1,0,0,1-.31.76,1,1,0,0,1-.76.33h-5.8a.18.18,0,0,0-.19.15A98.77,98.77,0,0,1,140.22,118a1.08,1.08,0,0,1-.55.67,1.16,1.16,0,0,1-.85.14Zm13.81-2.7a1.08,1.08,0,0,1,.8.2,1,1,0,0,1,.41.7l0,.46a1.07,1.07,0,0,1-.21.81,1,1,0,0,1-.7.43,22.53,22.53,0,0,1-3,.21,8.19,8.19,0,0,1-4.35-1,3,3,0,0,1-1.62-2.58,3.28,3.28,0,0,1,1-2.18,1.38,1.38,0,0,1,.84-.44,1.51,1.51,0,0,1,.94.15l.33.16a.7.7,0,0,1,.4.55.76.76,0,0,1-.21.67,1.2,1.2,0,0,0-.36.77c0,.37.26.67.79.92a5.54,5.54,0,0,0,2.23.36A18.9,18.9,0,0,0,151.81,115.89ZM146.05,111a1.08,1.08,0,0,1-1.15-1l0-.38a1,1,0,0,1,.25-.79,1.08,1.08,0,0,1,.74-.4c2.07-.19,4-.29,5.84-.3a1,1,0,0,1,.75.32,1.07,1.07,0,0,1,.32.77v.38a1.11,1.11,0,0,1-1.09,1.09C149.78,110.75,147.9,110.85,146.05,111Z"/><path class="cls-2" d="M161.15,118.85c-1.14,0-2.19-.74-3.15-2.23a9.94,9.94,0,0,1-1.44-5.48,23.3,23.3,0,0,1,.71-5.76,1.14,1.14,0,0,1,.5-.71,1.21,1.21,0,0,1,.87-.2l.85.09a.85.85,0,0,1,.65.39,1,1,0,0,1,.15.78,24.19,24.19,0,0,0-.65,5.41,8.19,8.19,0,0,0,.58,3.28c.39.9.78,1.35,1.16,1.35s.56-.25,1-.75a11,11,0,0,0,1.25-2.17,1.17,1.17,0,0,1,.6-.6,1.13,1.13,0,0,1,.83,0l.62.23a1,1,0,0,1,.62.57,1,1,0,0,1,0,.83,10.68,10.68,0,0,1-2.4,3.68A4.08,4.08,0,0,1,161.15,118.85Zm8.13-3.15a29.63,29.63,0,0,0-1.93-9.7,1,1,0,0,1,0-.8.92.92,0,0,1,.61-.51l.75-.21a1.25,1.25,0,0,1,.87.07,1.29,1.29,0,0,1,.62.62,29.36,29.36,0,0,1,2.14,10.55,1,1,0,0,1-.3.75,1.09,1.09,0,0,1-.77.32h-.92a1,1,0,0,1-.76-.33A1.08,1.08,0,0,1,169.28,115.7Z"/><path class="cls-2" d="M25,175.08l-.16-.91a2.15,2.15,0,0,1,.75-2.07,18.83,18.83,0,0,0,2.13-2.2,2.65,2.65,0,0,1,2.11-1h.66a3.12,3.12,0,0,1,2.2.9,21.51,21.51,0,0,0,1.67,1.48.1.1,0,0,0,.12,0,.13.13,0,0,0,.09-.09c.1-.42.19-.78.25-1.07a1.25,1.25,0,0,1,.54-.8,1.27,1.27,0,0,1,.95-.19l.53.09a1.36,1.36,0,0,1,.84.56,1.29,1.29,0,0,1,.22,1,.36.36,0,0,0,0,.11.37.37,0,0,1,0,.12c0,.13,0,.2.16.2h.74A.16.16,0,0,0,39,171v-1.11a1.2,1.2,0,0,1,.39-.9,1.26,1.26,0,0,1,.91-.37h1a1.26,1.26,0,0,1,1.27,1.27V171c0,.12.07.18.2.18h1.86a1.24,1.24,0,0,1,.91.39,1.22,1.22,0,0,1,.39.9v.37a1.22,1.22,0,0,1-.39.9,1.24,1.24,0,0,1-.91.39H42.68a.18.18,0,0,0-.2.2v2.77c0,.12.07.18.2.18h2.09a1.32,1.32,0,0,1,1.29,1.29v.48a1.19,1.19,0,0,1-.38.89,1.27,1.27,0,0,1-.91.38H42.89c-.14,0-.19.07-.16.2a7.54,7.54,0,0,0,2.61,4.74,1.84,1.84,0,0,1,.62.91,1.7,1.7,0,0,1,0,1.07l-.27.79a1,1,0,0,1-.67.62.92.92,0,0,1-.87-.14A12.14,12.14,0,0,1,40.69,184q-.09-.14-.18,0A13.46,13.46,0,0,1,36,188.66a1,1,0,0,1-.93.09,1.09,1.09,0,0,1-.65-.66l-.25-.61c0-.09-.12-.11-.23,0a1.46,1.46,0,0,1-.54.25c-2.19.49-4.45.9-6.76,1.23a1.25,1.25,0,0,1-.95-.26,1.22,1.22,0,0,1-.5-.85l-.05-.25a1.23,1.23,0,0,1,.26-.94,1.25,1.25,0,0,1,.85-.49l1-.15,1-.15a.21.21,0,0,0,.18-.22v-5.33a.16.16,0,0,0-.18-.18H26.58a1.22,1.22,0,0,1-.9-.39,1.24,1.24,0,0,1-.39-.91v-.2a1.32,1.32,0,0,1,1.29-1.29h1.59a.16.16,0,0,0,.18-.18V176a.16.16,0,0,0-.18-.18h-1a.49.49,0,0,1-.39-.17.57.57,0,0,1-.16-.39l0,0s-.09.08-.16.16l-.18.16a.72.72,0,0,1-.75.15A.76.76,0,0,1,25,175.08ZM27,185a1,1,0,0,1-.81-.18,1,1,0,0,1-.44-.73c-.11-.79-.2-1.4-.3-1.84a1,1,0,0,1,.17-.8,1.14,1.14,0,0,1,.72-.47,1.06,1.06,0,0,1,.83.17,1.12,1.12,0,0,1,.46.72c.08.39.17,1,.3,1.86a1.07,1.07,0,0,1-.21.81A1.12,1.12,0,0,1,27,185Zm1.88-12c-.08.1,0,.15.07.15H32s0,0,.06-.05,0-.07,0-.08c-.51-.5-1.05-1.07-1.61-1.72-.09-.1-.17-.1-.25,0C29.86,171.75,29.4,172.32,28.83,173Zm4.1,2.85h-1c-.14,0-.2.06-.2.18v1.12c0,.12.06.18.2.18h.88a1.23,1.23,0,0,1,.9.38,1.26,1.26,0,0,1,.37.91v.2a1.26,1.26,0,0,1-.37.91,1.2,1.2,0,0,1-.9.39h-.88c-.14,0-.2.06-.2.18V185c0,.14.07.19.22.16l.59-.11.59-.12a1.12,1.12,0,0,1,1.23.55.12.12,0,0,0,.11.08.2.2,0,0,0,.14,0l.18-.13a8.15,8.15,0,0,0,3.81-4.88c0-.12,0-.18-.14-.18H35.9A1.25,1.25,0,0,1,35,180a1.17,1.17,0,0,1-.39-.89v-1a.77.77,0,0,1,.75-.75s0,0,0,0l-1.2-.7a1.34,1.34,0,0,1-.61-.68.21.21,0,0,0-.27-.13Zm-.56,6a1.08,1.08,0,0,1,.43-.75,1.05,1.05,0,0,1,.81-.25.94.94,0,0,1,.75.39,1.11,1.11,0,0,1,.25.83c-.06.59-.11,1-.16,1.25A1.08,1.08,0,0,1,34,184a1.11,1.11,0,0,1-.85.21,1,1,0,0,1-.73-.44,1.08,1.08,0,0,1-.2-.83C32.25,182.66,32.31,182.28,32.37,181.77Zm3.72-4.63c-.06.12,0,.18.11.18h2.58a.16.16,0,0,0,.18-.18v-2.77c0-.13-.06-.2-.18-.2H37.33a.24.24,0,0,0-.25.2C36.8,175.28,36.46,176.2,36.09,177.14Z"/><path class="cls-2" d="M48.85,180a1.19,1.19,0,0,1-.9-.38,1.24,1.24,0,0,1-.39-.91v-.36a1.24,1.24,0,0,1,.39-.91,1.19,1.19,0,0,1,.9-.38h2.91a1.21,1.21,0,0,1,.9.38,1.24,1.24,0,0,1,.39.91v5.85a.72.72,0,0,0,.11.36,2.84,2.84,0,0,0,1.29,1.12,8.56,8.56,0,0,0,2.6.51c1.2.11,3,.16,5.43.16H67.2a1.21,1.21,0,0,1,1.2,1.27l0,.32a1.31,1.31,0,0,1-.43.92,1.38,1.38,0,0,1-1,.37H62.6a43.46,43.46,0,0,1-6.92-.41,7.8,7.8,0,0,1-3.65-1.4.24.24,0,0,0-.3,0c-.6.51-1.23,1-1.88,1.45a1.19,1.19,0,0,1-.93.18,1.2,1.2,0,0,1-.77-.57l-.34-.56a1.29,1.29,0,0,1-.15-1,1.42,1.42,0,0,1,.58-.84c.42-.29.83-.58,1.22-.88a.35.35,0,0,0,.16-.3v-4.72c0-.12-.06-.18-.2-.18Zm1.86-10.07c.49.52,1.21,1.31,2.18,2.36a1.22,1.22,0,0,1,.33.93,1.28,1.28,0,0,1-.42.91l-.41.36a1.15,1.15,0,0,1-.9.34,1.22,1.22,0,0,1-.87-.4c-.48-.52-1.23-1.31-2.24-2.36a1.2,1.2,0,0,1-.35-.91,1.15,1.15,0,0,1,.39-.88l.43-.41a1.23,1.23,0,0,1,.94-.34A1.28,1.28,0,0,1,50.71,169.9Zm16.4.53a1.3,1.3,0,0,1,1.29,1.29V172a1.32,1.32,0,0,1-1.29,1.29h-4.4a.23.23,0,0,0-.25.18,1.15,1.15,0,0,0-.06.24l0,.26c0,.12,0,.18.13.18h3.65a1.24,1.24,0,0,1,.91.39,1.2,1.2,0,0,1,.39.9v8.67A1.2,1.2,0,0,1,67,185a1.27,1.27,0,0,1-.91.38H55.54a1.27,1.27,0,0,1-.91-.38,1.23,1.23,0,0,1-.38-.89v-8.67a1.32,1.32,0,0,1,1.29-1.29h2.79c.15,0,.24,0,.25-.16l.14-.54c0-.11,0-.16-.16-.16H54.48a1.24,1.24,0,0,1-.91-.39,1.22,1.22,0,0,1-.39-.9v-.23a1.24,1.24,0,0,1,.39-.91,1.27,1.27,0,0,1,.91-.38h1.27a.11.11,0,0,0,.1-.06.08.08,0,0,0,0-.1l-.09-.18a1,1,0,0,1,0-.88.87.87,0,0,1,.67-.53l.7-.16a1.81,1.81,0,0,1,1.1.13,1.65,1.65,0,0,1,.81.73c.06.09.13.24.23.43a4.4,4.4,0,0,0,.22.44.27.27,0,0,0,.27.18h2.23a.27.27,0,0,0,.27-.18l.41-.82a1.6,1.6,0,0,1,.74-.78,1.58,1.58,0,0,1,1-.17l.79.15a1,1,0,0,1,.74.54.87.87,0,0,1,0,.87l-.06.09a1,1,0,0,0,0,.12c-.06.12,0,.18.11.18Zm-3.4,6.07H57.86a.17.17,0,0,0-.19.19v.47c0,.14.06.21.19.21h5.85a.18.18,0,0,0,.2-.21v-.47C63.91,176.56,63.84,176.5,63.71,176.5Zm.2,3.5v-.41a.18.18,0,0,0-.2-.21H57.86c-.13,0-.19.07-.19.21V180c0,.13.06.2.19.2h5.85A.18.18,0,0,0,63.91,180Zm0,2.85v-.52c0-.12-.07-.18-.2-.18H57.86c-.13,0-.19.06-.19.18v.52c0,.14.06.21.19.21h5.85A.18.18,0,0,0,63.91,182.85Z"/><path class="cls-2" d="M72,188.32a1.12,1.12,0,0,1-.75-.56,1.18,1.18,0,0,1-.09-.94,121.71,121.71,0,0,0,3.15-12,.12.12,0,0,0,0-.14.15.15,0,0,0-.12-.07H72.69a1.27,1.27,0,0,1-.91-.38,1.24,1.24,0,0,1-.39-.91v-.52a1.31,1.31,0,0,1,1.3-1.29h2a.23.23,0,0,0,.24-.21c0-.14.07-.32.12-.57l.09-.56a1.32,1.32,0,0,1,.52-.88,1.36,1.36,0,0,1,1-.28l.91.07a1.12,1.12,0,0,1,.84.46,1.14,1.14,0,0,1,.23.92c0,.09,0,.24-.07.43s0,.34-.07.43,0,.19.16.19H85a1.4,1.4,0,0,1,.61.15s.06,0,.07,0l0,0v0c-.06-.13-.17-.33-.32-.6a6.54,6.54,0,0,1-.32-.6,1.18,1.18,0,0,1,.5-1.59,1.14,1.14,0,0,1,.92-.06,1.22,1.22,0,0,1,.71.61c.06.13.17.33.32.6a6.54,6.54,0,0,1,.32.6,1.18,1.18,0,0,1,.07.92,1.12,1.12,0,0,1-.61.67,1.09,1.09,0,0,1-1.09,0,.08.08,0,0,0-.07,0,1.46,1.46,0,0,1,.2.68v.52A1.3,1.3,0,0,1,85,174.62H78.06a.22.22,0,0,0-.23.18,117,117,0,0,1-3.24,12.79,1.31,1.31,0,0,1-.64.8,1.45,1.45,0,0,1-1,.16Zm6.19-4.11a3.83,3.83,0,0,1,1.2-2.58,1.6,1.6,0,0,1,1-.52,1.79,1.79,0,0,1,1.12.18l.39.18a.83.83,0,0,1,.47.66.87.87,0,0,1-.25.79,1.43,1.43,0,0,0-.43.91c0,.44.32.8.94,1.09a6.67,6.67,0,0,0,2.65.43,23.13,23.13,0,0,0,3.1-.23,1.33,1.33,0,0,1,1,.24,1.17,1.17,0,0,1,.48.83l.07.54a1.28,1.28,0,0,1-.25,1,1.37,1.37,0,0,1-.84.51,27.49,27.49,0,0,1-3.51.24,9.64,9.64,0,0,1-5.16-1.19A3.51,3.51,0,0,1,78.15,184.21Zm3.36-4.85a1.22,1.22,0,0,1-.92-.29,1.23,1.23,0,0,1-.44-.87l-.05-.45a1.32,1.32,0,0,1,1.18-1.4Q85,176,88.2,176a1.2,1.2,0,0,1,.89.39,1.25,1.25,0,0,1,.38.9v.46a1.24,1.24,0,0,1-.39.91,1.27,1.27,0,0,1-.91.38Q84.8,179,81.51,179.36Zm9.82-8.19a1.15,1.15,0,0,1-.62.68,1.08,1.08,0,0,1-.91.07,1.27,1.27,0,0,1-.72-.61c-.13-.27-.35-.68-.66-1.22a1.18,1.18,0,0,1-.07-.92,1.08,1.08,0,0,1,.6-.69,1.21,1.21,0,0,1,1-.07,1.16,1.16,0,0,1,.72.59l.33.66c.15.28.25.49.31.61A1.14,1.14,0,0,1,91.33,171.17Z"/><path class="cls-2" d="M94.73,176a1.2,1.2,0,0,1-.9-.39,1.25,1.25,0,0,1-.37-.91v-.52a1.24,1.24,0,0,1,.37-.9,1.2,1.2,0,0,1,.9-.39h2.4a.23.23,0,0,0,.23-.2c0-.2.23-1.18.54-2.95a1.4,1.4,0,0,1,.53-.89,1.35,1.35,0,0,1,1-.29l.66,0a1.27,1.27,0,0,1,.86.46,1.05,1.05,0,0,1,.25.91c-.09.62-.24,1.53-.46,2.74,0,.12,0,.18.17.18h3.38a4.45,4.45,0,0,1,1.5.32,2.44,2.44,0,0,1,1,.57,4.14,4.14,0,0,1,.44,1.28,8.39,8.39,0,0,1,.24,1.91v3q0,8.42-4.11,8.41a15.31,15.31,0,0,1-3.65-.59,1.2,1.2,0,0,1-.78-.61,1.34,1.34,0,0,1-.12-1l.15-.64a1.2,1.2,0,0,1,.59-.75,1.33,1.33,0,0,1,1-.11,10.56,10.56,0,0,0,2.06.41.51.51,0,0,0,.35-.17,1.58,1.58,0,0,0,.33-.59,5.37,5.37,0,0,0,.27-1c.08-.42.14-1,.2-1.63s.08-1.41.08-2.24a10.32,10.32,0,0,0-.22-3c-.14-.29-.63-.43-1.46-.43h-1.86a.23.23,0,0,0-.25.18,89.53,89.53,0,0,1-3.36,11.2,1.28,1.28,0,0,1-.67.74,1.24,1.24,0,0,1-1,.06l-.62-.19a1.14,1.14,0,0,1-.72-.64,1.27,1.27,0,0,1-.05-1,95.17,95.17,0,0,0,3-10.2c0-.11,0-.16-.16-.16Zm15.94,6.32c-.82-3-1.75-6-2.79-8.86a1.19,1.19,0,0,1,.82-1.52l.86-.25a1.42,1.42,0,0,1,1,.11,1.37,1.37,0,0,1,.67.77q1.56,4.43,2.79,8.94a1.21,1.21,0,0,1-.14,1,1.17,1.17,0,0,1-.79.58l-.86.2a1.31,1.31,0,0,1-1.57-.93Z"/><path class="cls-2" d="M118.86,181.72a1.26,1.26,0,0,1-.82-.57,1.28,1.28,0,0,1-.2-1c.27-1.51.51-3,.72-4.51a1.43,1.43,0,0,1,.5-.89,1.25,1.25,0,0,1,1-.29l1,.09a1.22,1.22,0,0,1,1.11,1.38c-.12.94-.24,1.79-.36,2.56v0h0a11.7,11.7,0,0,1,6.35-2.06q3.49,0,5.1,1.34a5.12,5.12,0,0,1,1.61,4.17,5.42,5.42,0,0,1-2.57,4.74q-2.58,1.72-7.39,1.72c-1.4,0-2.81-.06-4.24-.2a1.22,1.22,0,0,1-.86-.46,1.32,1.32,0,0,1-.29-.95l0-.54a1.21,1.21,0,0,1,.47-.86,1.26,1.26,0,0,1,.94-.3c1.59.14,2.9.21,3.94.21a8.35,8.35,0,0,0,4.29-.91,2.75,2.75,0,0,0,1.52-2.45c0-1.62-1-2.42-3.11-2.42a12.43,12.43,0,0,0-5.64,1.92,3.21,3.21,0,0,1-2.36.39ZM122.24,170q4.53.47,8.55.54a1.33,1.33,0,0,1,.91.39,1.2,1.2,0,0,1,.38.9v.52a1.23,1.23,0,0,1-.38.9,1.2,1.2,0,0,1-.89.37c-3.09,0-6.07-.22-9-.52a1.19,1.19,0,0,1-.86-.47,1.21,1.21,0,0,1-.27-1l.07-.54a1.23,1.23,0,0,1,.49-.85A1.35,1.35,0,0,1,122.24,170Z"/><path class="cls-2" d="M139.9,188.5a1.32,1.32,0,0,1-1.29-1.29V171a1.23,1.23,0,0,1,.38-.9,1.26,1.26,0,0,1,.91-.37H145a1.2,1.2,0,0,1,.89.37,1.23,1.23,0,0,1,.38.9v.86s0,0,0,0,0,0,.06,0a1.19,1.19,0,0,1,1.09-.59h3a.18.18,0,0,0,.2-.2v-1.29a1.3,1.3,0,0,1,.37-.91,1.2,1.2,0,0,1,.9-.39h1a1.33,1.33,0,0,1,1.3,1.3V171c0,.13.06.2.18.2h3.24a1.27,1.27,0,0,1,.91.38,1.23,1.23,0,0,1,.38.89v.39a1.3,1.3,0,0,1-1.29,1.29h-3.24a.16.16,0,0,0-.18.18v2.22q0,.21.18.21h3.58a1.3,1.3,0,0,1,1.29,1.29v.36a1.27,1.27,0,0,1-.38.91,1.24,1.24,0,0,1-.91.39H156q-.18,0-.09.18a28.72,28.72,0,0,0,2.93,4.47,2,2,0,0,1,.41,1,1.79,1.79,0,0,1-.25,1.06l-.64,1.07a.86.86,0,0,1-.7.41.83.83,0,0,1-.73-.34,30.8,30.8,0,0,1-2.67-4.51s0,0-.06,0,0,0,0,0v5.21a1.31,1.31,0,0,1-1.3,1.29h-1a1.19,1.19,0,0,1-.9-.38,1.3,1.3,0,0,1-.37-.91V183.1s0,0-.09,0a33.11,33.11,0,0,1-2.79,4.6,1,1,0,0,1-.81.43,1.1,1.1,0,0,1-.87-.34l-.45-.45a.29.29,0,0,0-.32-.07,2,2,0,0,1-.36.05H142.1a.14.14,0,0,0-.16.15,1,1,0,0,1-.3.76,1,1,0,0,1-.74.31Zm2-15.6v11.25q0,.18.21.18H143a.16.16,0,0,0,.18-.18V172.9a.16.16,0,0,0-.18-.18h-.88Q141.94,172.72,141.94,172.9Zm5.47,1.29a1.22,1.22,0,0,1-1.09-.61s0,0-.06,0a0,0,0,0,0,0,.05v3.22a.12.12,0,0,0,.07.11.08.08,0,0,0,.11,0,1.31,1.31,0,0,1,.59-.13h3.45a.18.18,0,0,0,.2-.21v-2.22c0-.12-.07-.18-.2-.18Zm1.56,5.72a.11.11,0,0,0,0-.11.12.12,0,0,0-.1-.05H147a1.42,1.42,0,0,1-.59-.16.08.08,0,0,0-.11,0,.1.1,0,0,0-.07.1v4.22a.05.05,0,0,0,0,.06s.06,0,.09,0A27.06,27.06,0,0,0,149,179.91Z"/><path class="cls-2" d="M161.67,181.45q2.34-2.7,4-4.38a.45.45,0,0,0,.14-.32v-1.36c0-.13-.06-.2-.18-.2h-2.79a1.24,1.24,0,0,1-.91-.39,1.21,1.21,0,0,1-.38-.9v-.34a1.19,1.19,0,0,1,.38-.9,1.26,1.26,0,0,1,.91-.37h2.79q.18,0,.18-.21v-1.65a1.27,1.27,0,0,1,.38-.91,1.24,1.24,0,0,1,.91-.39h.73a1.2,1.2,0,0,1,.89.39,1.27,1.27,0,0,1,.38.91v3.31c0,.12.06.14.18.07a9.38,9.38,0,0,1,5.65-2.32q3.24,0,4.7,1.9c1,1.26,1.46,3.39,1.46,6.38a8.92,8.92,0,0,1-1.75,5.94,5.93,5.93,0,0,1-4.76,2.06,8.48,8.48,0,0,1-2.69-.45,1.13,1.13,0,0,1-.72-.68,1.49,1.49,0,0,1,0-1l.23-.66a1.15,1.15,0,0,1,.63-.7,1.44,1.44,0,0,1,1-.09,6.54,6.54,0,0,0,1.56.25c2,0,2.93-1.55,2.93-4.63a8.66,8.66,0,0,0-.58-3.92,2.32,2.32,0,0,0-2.19-1c-1.33,0-3.16,1.13-5.51,3.38a.44.44,0,0,0-.13.32v8.86a1.27,1.27,0,0,1-.38.91,1.2,1.2,0,0,1-.89.39h-.73a1.24,1.24,0,0,1-.91-.39,1.27,1.27,0,0,1-.38-.91V182a.08.08,0,0,0,0-.07.05.05,0,0,0-.07,0c-.94,1-1.47,1.6-1.59,1.75a1.21,1.21,0,0,1-.86.42,1.19,1.19,0,0,1-.91-.33l-.54-.5a1.31,1.31,0,0,1-.44-.88A1.2,1.2,0,0,1,161.67,181.45Z"/><path class="cls-2" d="M185.94,187.41l-.46-.63a1.22,1.22,0,0,1-.22-1,1.18,1.18,0,0,1,.52-.81l10.63-7.3v-.05s0,0,0,0h-8.66a1.23,1.23,0,0,1-.9-.38,1.2,1.2,0,0,1-.37-.89v-.55a1.22,1.22,0,0,1,.37-.89,1.23,1.23,0,0,1,.9-.38h12.36a1.3,1.3,0,0,1,1.27,1.27v1a2.33,2.33,0,0,1-1.05,2l-3.42,2.41v0H197c.63,0,1.11.68,1.43,2a2.8,2.8,0,0,0,.62,1.4,2.36,2.36,0,0,0,1.39.28,9.52,9.52,0,0,0,1.34-.09,1.39,1.39,0,0,1,1,.22,1.13,1.13,0,0,1,.53.78l.11.56a1.22,1.22,0,0,1-.19,1,1.21,1.21,0,0,1-.83.54,16.57,16.57,0,0,1-2.31.21,6.45,6.45,0,0,1-3.27-.66,3.28,3.28,0,0,1-1.45-2.13,5.17,5.17,0,0,0-.51-1.46.73.73,0,0,0-.62-.4,2.88,2.88,0,0,0-1.23.55c-.57.38-2.31,1.57-5.21,3.6a1.29,1.29,0,0,1-1,.2A1.24,1.24,0,0,1,185.94,187.41Zm4.15-18q4.22.48,8.25.55a1.32,1.32,0,0,1,.91.39,1.23,1.23,0,0,1,.38.9v.61a1.26,1.26,0,0,1-.37.91,1.11,1.11,0,0,1-.9.36c-2.7-.07-5.6-.28-8.68-.63a1.26,1.26,0,0,1-.85-.49,1.19,1.19,0,0,1-.26-.94l.06-.55a1.23,1.23,0,0,1,.5-.83A1.35,1.35,0,0,1,190.09,169.38Z"/><path class="cls-2" d="M208.27,180.22l-.11-.2a1.45,1.45,0,0,1,.54-1.82l8.64-5.08,0,0h-7a1.21,1.21,0,0,1-.89-.38,1.27,1.27,0,0,1-.38-.91v-.43a1.27,1.27,0,0,1,.38-.91,1.17,1.17,0,0,1,.89-.38h12.25a1.23,1.23,0,0,1,.91.38,1.27,1.27,0,0,1,.38.91v.52a2,2,0,0,1-1.11,1.88l-5.65,3v0h0a11.75,11.75,0,0,1,2.15-.21,7.22,7.22,0,0,1,4.77,1.41,4.69,4.69,0,0,1,1.69,3.81,5.92,5.92,0,0,1-2.38,5,11,11,0,0,1-6.76,1.8c-4.58,0-6.87-1.39-6.87-4.15a3.15,3.15,0,0,1,1.49-2.63,6.77,6.77,0,0,1,4-1.07,6.52,6.52,0,0,1,3.78.85,3,3,0,0,1,1.17,2.55,4.53,4.53,0,0,1-.05.75.1.1,0,0,0,.05.08.08.08,0,0,0,.09,0,3.17,3.17,0,0,0,1.68-3q0-2.81-4.29-2.81a19.32,19.32,0,0,0-3.9.36,20,20,0,0,0-3.81,1.25,1.41,1.41,0,0,1-1,0A1.24,1.24,0,0,1,208.27,180.22ZM217,185.6a3,3,0,0,0,.23-1,1,1,0,0,0-.44-.87,3.39,3.39,0,0,0-1.67-.28,2.82,2.82,0,0,0-1.46.3.91.91,0,0,0-.49.79c0,.87,1.17,1.31,3.51,1.31h0l0,0A.25.25,0,0,0,217,185.6Z"/><path class="cls-2" d="M83.37,208.1a1.24,1.24,0,0,1-.91-.39,1.22,1.22,0,0,1-.39-.9v-.57a1.2,1.2,0,0,1,.39-.9,1.26,1.26,0,0,1,.91-.37h6.57c.12,0,.18-.07.18-.2v-2.91a1.22,1.22,0,0,1,.39-.9,1.24,1.24,0,0,1,.91-.39h1.13a1.32,1.32,0,0,1,1.29,1.29v2.91c0,.13.06.2.19.2h6.57a1.26,1.26,0,0,1,.91.37,1.19,1.19,0,0,1,.38.9v.57a1.21,1.21,0,0,1-.38.9,1.24,1.24,0,0,1-.91.39H94.25c-.13,0-.19.07-.16.2q1.06,6,7.1,9.46a1.14,1.14,0,0,1,.57.75,1.1,1.1,0,0,1-.18.9l-.52.73a1.48,1.48,0,0,1-.87.59,1.32,1.32,0,0,1-1-.16,16.42,16.42,0,0,1-4-3.29,18.51,18.51,0,0,1-3-4.46.08.08,0,0,0-.07,0,.06.06,0,0,0-.06,0,18.94,18.94,0,0,1-3.1,4.51,16.91,16.91,0,0,1-4.16,3.29,1.35,1.35,0,0,1-1,.12,1.5,1.5,0,0,1-.87-.6l-.52-.73a1.07,1.07,0,0,1-.18-.9,1.11,1.11,0,0,1,.57-.75q6-3.42,7.1-9.46c0-.13,0-.2-.16-.2Z"/><path class="cls-2" d="M105.3,220.14l-.55-.75a1.15,1.15,0,0,1-.19-.93,1.12,1.12,0,0,1,.56-.77,16.09,16.09,0,0,0,5.84-6,17.76,17.76,0,0,0,1.93-8.55v-1.25a1.22,1.22,0,0,1,.39-.9,1.24,1.24,0,0,1,.91-.39h1.13a1.32,1.32,0,0,1,1.29,1.29v1.25a17.76,17.76,0,0,0,1.93,8.55,16.12,16.12,0,0,0,5.85,6,1.15,1.15,0,0,1,.56.77,1.2,1.2,0,0,1-.2.93l-.54.75a1.4,1.4,0,0,1-.85.58,1.33,1.33,0,0,1-1-.17,17.25,17.25,0,0,1-4.25-3.81,21,21,0,0,1-3.12-5.26s0,0-.07,0,0,0-.07,0a21.44,21.44,0,0,1-3.25,5.26,17.53,17.53,0,0,1-4.41,3.81,1.4,1.4,0,0,1-1.88-.41Z"/><path class="cls-2" d="M132.46,219.6a4.54,4.54,0,0,1-3.55-2.18,8.64,8.64,0,0,1-1.62-5.31,9.48,9.48,0,0,1,3-7.27,11.22,11.22,0,0,1,7.94-2.8,9,9,0,0,1,6.55,2.51,8.52,8.52,0,0,1,2.58,6.38,10,10,0,0,1-1.67,6,7.52,7.52,0,0,1-4.58,3,1.25,1.25,0,0,1-1-.2,1.32,1.32,0,0,1-.58-.86l-.18-.78a1.14,1.14,0,0,1,.18-.94,1.48,1.48,0,0,1,.79-.6q3.58-1.15,3.59-5.58a5.5,5.5,0,0,0-1.16-3.52,5.32,5.32,0,0,0-3.06-1.92q-.16,0-.21.18a62.43,62.43,0,0,1-1.32,7,16.33,16.33,0,0,1-1.65,4.28,6.14,6.14,0,0,1-1.86,2.08A4.11,4.11,0,0,1,132.46,219.6Zm3.22-13.95a6.46,6.46,0,0,0-3.61,2.32,6.67,6.67,0,0,0-1.31,4.14,6.24,6.24,0,0,0,.6,2.76c.4.82.77,1.23,1.1,1.23a.83.83,0,0,0,.55-.3,4.83,4.83,0,0,0,.66-1.07,14.83,14.83,0,0,0,.72-1.9c.24-.77.49-1.75.75-3s.49-2.57.7-4.08a.09.09,0,0,0,0-.12A.12.12,0,0,0,135.68,205.65Z"/><path class="cls-2" d="M168.41,204.88a.13.13,0,0,0-.11.06.08.08,0,0,0,0,.1l.49.77a1.14,1.14,0,0,1,.18.95,1.24,1.24,0,0,1-.58.79c-.37.23-.78.47-1.25.71a.24.24,0,0,0-.14.29c.11.92.21,1.64.32,2.13,0,0,0,.08.09.08a.11.11,0,0,0,.11,0l.75-.54a1.11,1.11,0,0,1,.92-.24,1.06,1.06,0,0,1,.78.51l.21.31a1.47,1.47,0,0,1,.2,1,1.44,1.44,0,0,1-.52.91c-.67.52-1.16.89-1.5,1.14a.24.24,0,0,0-.11.29,16,16,0,0,0,1.91,3.7,1.52,1.52,0,0,1,.3,1,1.48,1.48,0,0,1-.37,1l-.73.79a1.06,1.06,0,0,1-.85.38,1,1,0,0,1-.8-.42q-2.47-3.54-3.45-10.69c0-.12-.1-.15-.2-.09l-.12.05c-.06,0-.1,0-.11.07a.25.25,0,0,0-.18.27V220a1.2,1.2,0,0,1-.39.9,1.26,1.26,0,0,1-.9.37h-.93a1.25,1.25,0,0,1-.91-.37,1.2,1.2,0,0,1-.39-.9v-8.59c0-.11,0-.15-.13-.12a1,1,0,0,1-.76-.06,1.11,1.11,0,0,1-.54-.57l-.2-.59s-.05,0-.07,0c0,2.16,0,3.9-.1,5.2s-.13,2.38-.22,3.21a4.49,4.49,0,0,1-.46,1.78,1.61,1.61,0,0,1-.67.68,2.67,2.67,0,0,1-1,.15l-1.5-.09a1.45,1.45,0,0,1-.93-.44,1.5,1.5,0,0,1-.41-1l0-1.38s0,0,0,0,0,0,0,0a19.24,19.24,0,0,1-.79,2.18.9.9,0,0,1-.67.51,1,1,0,0,1-.83-.24l-.77-.73a1.67,1.67,0,0,1-.51-1,2,2,0,0,1,.1-1.1q1.32-3.47,1.32-11.79c0-.11-.07-.16-.2-.16h0a1.33,1.33,0,0,1-1.29-1.29v-.48a1.32,1.32,0,0,1,1.29-1.29h1.43a.16.16,0,0,0,.18-.18v-1.07a1.2,1.2,0,0,1,.39-.9,1.3,1.3,0,0,1,.91-.37h.93a1.28,1.28,0,0,1,.9.37,1.2,1.2,0,0,1,.39.9v1.07c0,.12.07.18.2.18h1.52a1.27,1.27,0,0,1,.91.38,1.23,1.23,0,0,1,.38.91c0,.11,0,.13.1.07a23.21,23.21,0,0,0,1.9-3.11,1.67,1.67,0,0,1,.76-.75,1.53,1.53,0,0,1,1.05-.11l.77.18a1,1,0,0,1,.67.53,1,1,0,0,1,0,.85c0,.1,0,.14.09.14h5a1.24,1.24,0,0,1,.91.39,1.21,1.21,0,0,1,.38.9v.39a1.17,1.17,0,0,1-.38.89,1.27,1.27,0,0,1-.91.38Zm-13.93,13a.4.4,0,0,0,.35-.14,2.48,2.48,0,0,0,.21-.86,17,17,0,0,0,.12-2.1c0-.91,0-2.24,0-4a.18.18,0,0,0-.21-.2h-.66a.18.18,0,0,0-.2.2,35.13,35.13,0,0,1-.86,6.69c0,.13,0,.2.13.23A5.14,5.14,0,0,0,154.48,217.85Zm5.17-9.66a.12.12,0,0,0,.06-.08.1.1,0,0,0,0-.1l-1.46-.93a1,1,0,0,1-.49-1c0-.11,0-.16-.14-.16a.11.11,0,0,0-.07,0h-3.08q-.21,0-.21.18v1.25c0,.13.06.2.19.2h2.74a1.32,1.32,0,0,1,1.29,1.29v.07s0,.05,0,.05l0,0a1.25,1.25,0,0,1,.71-.59ZM167,205a.11.11,0,0,0,0-.06s0,0,0,0h-4.24a.33.33,0,0,0-.29.16,23.6,23.6,0,0,1-2.11,2.83s0,.06,0,.07a0,0,0,0,0,0,0A48.26,48.26,0,0,0,167,205Z"/><circle class="cls-1" cx="126" cy="31.83" r="30.42"/><path class="cls-2" d="M126,2.83a29,29,0,1,1-29,29,29,29,0,0,1,29-29M126,0a31.84,31.84,0,1,0,31.83,31.83A31.87,31.87,0,0,0,126,0Z"/><path class="cls-2" d="M124.7,20.21a3.51,3.51,0,0,1-.18-3.89l2.25-3.76a1,1,0,0,0,0-1,1,1,0,0,0-.84-.49H114.48a1,1,0,0,0-.84.49,1,1,0,0,0,0,1l2.26,3.76a3.51,3.51,0,0,1-.19,3.89l-2.14,3.39A10.49,10.49,0,0,0,112,29.23v15.1a4,4,0,0,0,4,4h8.62a4,4,0,0,0,4-4V29.23a10.5,10.5,0,0,0-1.64-5.63Z"/><path class="cls-2" d="M131.57,37.34V39.2a6.84,6.84,0,0,0,3.57,6v2.06h6.51V45.19a6.83,6.83,0,0,0,3.56-6V37.34Z"/><path class="cls-3" d="M29.85,109.6s19.24,31.51,90.71,33.05L126,152.9l5.44-10.25c71.47-1.54,90.71-33.05,90.71-33.05"/></g></g></svg>