<svg xmlns="http://www.w3.org/2000/svg" viewBox="0 0 810 63.67"><defs><style>.cls-1{fill:none;stroke:#69a3d8;stroke-miterlimit:10;stroke-width:2.83px;}.cls-2{fill:#69a3d8;}.cls-3{fill:#fff;}</style></defs><g id="レイヤー_2" data-name="レイヤー 2"><g id="base"><line class="cls-1" x1="810" y1="4.83" y2="4.83"/><line class="cls-1" x1="810" y1="58.83" y2="58.83"/><path class="cls-2" d="M339.91,45a1.77,1.77,0,0,1-1-1.06,1.89,1.89,0,0,1,0-1.46,66.71,66.71,0,0,0,3.44-10.28,2,2,0,0,1,.88-1.22,1.84,1.84,0,0,1,1.46-.27l1.16.24a1.88,1.88,0,0,1,1.22.83,1.81,1.81,0,0,1,.28,1.45c0,.11-.07.27-.12.49s-.1.38-.12.49a.69.69,0,0,0,.07.55,10.69,10.69,0,0,0,4.59,4.35c.16.07.24,0,.24-.17V28.58a.25.25,0,0,0-.28-.27h-6.53a1.9,1.9,0,0,1-1.31-.51,1.92,1.92,0,0,1-.63-1.26q0-.27-.27-.21a1.78,1.78,0,0,1-.47.07h-1.16a1.78,1.78,0,0,1-1.34-.58,1.87,1.87,0,0,1-.57-1.36v-5a1.93,1.93,0,0,1,1.91-1.9h9.76c.18,0,.27-.1.27-.31V16.4a1.82,1.82,0,0,1,.58-1.34,1.87,1.87,0,0,1,1.36-.56h1.7a1.86,1.86,0,0,1,1.36.56A1.78,1.78,0,0,1,357,16.4v.85c0,.21.09.31.27.31h9.77a1.8,1.8,0,0,1,1.34.56,1.84,1.84,0,0,1,.56,1.34v5a1.9,1.9,0,0,1-.56,1.36,1.78,1.78,0,0,1-1.34.58H365.9a1.85,1.85,0,0,1-.48-.07q-.27-.06-.27.21a1.83,1.83,0,0,1-.63,1.26,1.88,1.88,0,0,1-1.31.51h-5.3c-.19,0-.28.1-.28.3V31.5a.24.24,0,0,0,.28.28H365a1.81,1.81,0,0,1,1.34.57,1.92,1.92,0,0,1,.56,1.37v.4a1.88,1.88,0,0,1-.56,1.36,1.78,1.78,0,0,1-1.34.58h-7.11c-.19,0-.28.09-.28.27v4a.31.31,0,0,0,.28.34,82.07,82.07,0,0,0,9.49.41h.51A1.86,1.86,0,0,1,369.74,43l-.06.72a2.09,2.09,0,0,1-.65,1.37,1.92,1.92,0,0,1-1.4.56h-.3q-9,0-13.83-1.27a15.43,15.43,0,0,1-7.74-4.61.16.16,0,0,0-.15-.07.15.15,0,0,0-.15.1q-.82,2.36-1.84,4.6a1.91,1.91,0,0,1-1.11,1,2,2,0,0,1-1.51,0Zm5.34-21h18a1.79,1.79,0,0,1,.48.07c.18.05.27,0,.27-.2V22.12c0-.18-.1-.28-.3-.28H344.81c-.2,0-.31.1-.31.28v1.77c0,.18.09.25.28.2A1.78,1.78,0,0,1,345.25,24Z"/><path class="cls-2" d="M374,37.9A2,2,0,0,1,372.09,36v-.51a1.51,1.51,0,0,1,.46-1.11,1.58,1.58,0,0,1,1.14-.45.21.21,0,0,0,.24-.24V22q0-.21-.24-.21a1.45,1.45,0,0,1-1.43-1.43V19a1.42,1.42,0,0,1,.43-1,1.34,1.34,0,0,1,1-.44q.24,0,.24-.21V17a1.9,1.9,0,0,1,.56-1.36,1.78,1.78,0,0,1,1.34-.58h1.29A2,2,0,0,1,379.06,17v.31c0,.18.09.27.28.27h2.72a.24.24,0,0,0,.27-.27V17A2,2,0,0,1,384.27,15h1A2,2,0,0,1,387.19,17v.41a.15.15,0,0,0,.17.17,1.24,1.24,0,0,1,.92.37,1.26,1.26,0,0,1,.38.92v1.6a1.26,1.26,0,0,1-.38.92,1.24,1.24,0,0,1-.92.37c-.11,0-.17.07-.17.21V33.72a.15.15,0,0,0,.17.17,1.11,1.11,0,0,1,.82.34,1.09,1.09,0,0,1,.34.81V36a2,2,0,0,1-1.94,1.94h-.78c-.18,0-.22.09-.1.27.77,1.16,1.38,2.12,1.83,2.89.09.12.16.09.21-.07l.1-.3a19.84,19.84,0,0,0,1.31-5.1,67.18,67.18,0,0,0,.36-8V17.56a2,2,0,0,1,1.94-1.94h9.83a1.85,1.85,0,0,1,1.36.58,1.88,1.88,0,0,1,.58,1.36V39.67c0,1,0,1.83,0,2.45a9.43,9.43,0,0,1-.2,1.68,4.09,4.09,0,0,1-.38,1.11,1.55,1.55,0,0,1-.69.57,2.9,2.9,0,0,1-1,.29,14.62,14.62,0,0,1-1.48,0l-2.62-.06a2.21,2.21,0,0,1-1.43-.61,2,2,0,0,1-.65-1.4l0-.71a1.59,1.59,0,0,1,.51-1.28,1.68,1.68,0,0,1,1.32-.49h.34c.57,0,.9-.05,1-.16A2.24,2.24,0,0,0,398,40v-4a.24.24,0,0,0-.27-.27h-3.3c-.23,0-.34.09-.34.27A25.75,25.75,0,0,1,392,44.33a1.35,1.35,0,0,1-1,.78,1.42,1.42,0,0,1-1.27-.34l-1.19-1.05a.75.75,0,0,1-.28-.28s-.06-.06-.13-.06-.12,0-.14.06a1.87,1.87,0,0,1-.85.89l-.44.27a1.85,1.85,0,0,1-1.46.15,1.8,1.8,0,0,1-1.16-.9c-.59-1-1.15-2-1.67-2.79a1.74,1.74,0,0,1-.25-1.43,1.69,1.69,0,0,1,.87-1.12l.85-.47a.16.16,0,0,0,0-.09s0-.05-.07-.05H378c-.05,0-.07,0-.07.05a.16.16,0,0,0,0,.09l.85.47a1.93,1.93,0,0,1,.94,1.19,1.89,1.89,0,0,1-.19,1.5A31.06,31.06,0,0,1,377,44.84a1.92,1.92,0,0,1-1.31.75,2.09,2.09,0,0,1-1.48-.38l-.51-.37a1.65,1.65,0,0,1-.73-1.23,1.92,1.92,0,0,1,.39-1.39,33.16,33.16,0,0,0,2.79-4.08.12.12,0,0,0,0-.16.18.18,0,0,0-.15-.08Zm5-15.85v1.29c0,.21.09.31.28.31h2.72c.18,0,.27-.1.27-.31V22.05c0-.21-.09-.31-.27-.31h-2.72C379.15,21.74,379.06,21.84,379.06,22.05Zm0,5.07v1.32c0,.21.09.31.28.31h2.72c.18,0,.27-.1.27-.31V27.12c0-.21-.09-.31-.27-.31h-2.72C379.15,26.81,379.06,26.91,379.06,27.12Zm0,5.1v1.36c0,.2.09.31.28.31h2.72c.18,0,.27-.11.27-.31V32.22c0-.21-.09-.31-.27-.31h-2.72C379.15,31.91,379.06,32,379.06,32.22ZM394.37,30c0,.16,0,.39,0,.7s0,.53,0,.66.09.31.27.31h3.1a.24.24,0,0,0,.27-.27V28.07c0-.21-.09-.31-.27-.31h-3.07c-.18,0-.27.1-.27.31Zm0-9.69v3.09a.25.25,0,0,0,.27.28h3.07a.25.25,0,0,0,.27-.28V20.35c0-.21-.09-.31-.27-.31h-3.07C394.46,20,394.37,20.14,394.37,20.35Z"/><path class="cls-2" d="M432.78,45.86a6,6,0,0,1-2.9-.46c-.36-.28-.54-1-.54-2.3V36.71a.24.24,0,0,0-.27-.27h-.38q-.3,0-.3.27a12.21,12.21,0,0,1-1.67,5.41,10.29,10.29,0,0,1-4,3.43,2,2,0,0,1-1.53.14,2.32,2.32,0,0,1-1.26-.95.51.51,0,0,0-.44-.28h-6.43c-.14,0-.2.07-.2.21a1.19,1.19,0,0,1-.36.87,1.22,1.22,0,0,1-.87.35h-1.87a1.78,1.78,0,0,1-1.34-.58,1.84,1.84,0,0,1-.56-1.36V36a1.1,1.1,0,0,0-.17-.55l-1.3-2a2.33,2.33,0,0,1-.34-1.55,2.55,2.55,0,0,1,.68-1.44,26.37,26.37,0,0,0,3-4.05.11.11,0,0,0,0-.15.18.18,0,0,0-.16-.09h-1.32a2,2,0,0,1-1.94-1.94v-.13a2,2,0,0,1,1.94-1.94h.54a.09.09,0,0,0,0-.1l-1.09-.41a1.41,1.41,0,0,1-.9-.95A1.63,1.63,0,0,1,407,19.4a28.51,28.51,0,0,0,1.83-3.71,2.46,2.46,0,0,1,1.06-1.19,2.2,2.2,0,0,1,1.53-.27l.44.06a1.43,1.43,0,0,1,1,.67,1.3,1.3,0,0,1,.12,1.2c-.05.14,0,.21.17.21h6a2,2,0,0,1,1.94,1.94v.27a1.85,1.85,0,0,1-.58,1.36,1.88,1.88,0,0,1-1.36.58h-1.49a.35.35,0,0,0-.38.27c0,.09-.08.27-.17.54s-.16.48-.2.62,0,.27.2.27h2.45a1.78,1.78,0,0,1,1.34.58,1.87,1.87,0,0,1,.57,1.36v.13a1.87,1.87,0,0,1-.57,1.36,1.78,1.78,0,0,1-1.34.58H417.5s0,0,0,0a0,0,0,0,0,0,0l1.26.31a1.38,1.38,0,0,1,.9.71,1.2,1.2,0,0,1,0,1.09c0,.14,0,.2.11.2a1.57,1.57,0,0,1,1.53,1.53v.21a1.63,1.63,0,0,1-.51,1.21,1.74,1.74,0,0,1-1.23.49h-.37c-.19,0-.28.1-.28.3V33c0,.2.09.3.28.3h.61a1.28,1.28,0,0,1,.92.36,1.19,1.19,0,0,1,.37.9,1.26,1.26,0,0,1-1.29,1.29h-.61c-.19,0-.28.09-.28.27v.72c0,.18.09.27.28.27h.61a1.26,1.26,0,0,1,.92.38,1.21,1.21,0,0,1,.37.91,1.2,1.2,0,0,1-.37.91,1.32,1.32,0,0,1-.92.35h-.61c-.19,0-.28.1-.28.31v.68c0,.2.09.3.28.3h.58a1.63,1.63,0,0,1,.81.21.65.65,0,0,0,.51,0,5.44,5.44,0,0,0,2-1.75,6.78,6.78,0,0,0,.92-2.78c0-.15,0-.23-.21-.23a1.53,1.53,0,0,1-1.15-.5,1.57,1.57,0,0,1-.48-1.14V17.25a1.78,1.78,0,0,1,.58-1.34,1.86,1.86,0,0,1,1.36-.56h11.09a1.91,1.91,0,0,1,1.9,1.9V34.5a1.87,1.87,0,0,1-.56,1.36,1.82,1.82,0,0,1-1.34.58h-1.19c-.21,0-.31.09-.31.27v4.45a1,1,0,0,0,.05.41s.16.08.36.11h.37c.28,0,.45-.14.51-.35a8.41,8.41,0,0,0,.14-1.76,1.52,1.52,0,0,1,.58-1.14,1.46,1.46,0,0,1,1.22-.36,2,2,0,0,1,1.23.71,2,2,0,0,1,.44,1.37c-.05,1-.09,1.75-.14,2.33a6.65,6.65,0,0,1-.29,1.56,3.81,3.81,0,0,1-.42,1,1.44,1.44,0,0,1-.77.51,3.59,3.59,0,0,1-1.05.24c-.33,0-.85.05-1.55.07h-1.66ZM412.4,20.79c0-.18,0-.27-.2-.27h-.82a.51.51,0,0,0-.44.24c-.39.65-.64,1.06-.75,1.22s-.08.24.1.24h1.29A.4.4,0,0,0,412,22C412.17,21.45,412.31,21.06,412.4,20.79ZM414.92,33v-.69c0-.2-.09-.3-.28-.3h-1.46a.27.27,0,0,0-.3.3V33a.27.27,0,0,0,.3.3h1.46C414.83,33.34,414.92,33.24,414.92,33Zm0,3.84v-.72c0-.18-.09-.27-.28-.27h-1.46q-.3,0-.3.27v.72q0,.27.3.27h1.46C414.83,37.15,414.92,37.06,414.92,36.88Zm0,3.81V40c0-.21-.09-.31-.28-.31h-1.46c-.2,0-.3.1-.3.31v.68a.27.27,0,0,0,.3.3h1.46C414.83,41,414.92,40.89,414.92,40.69Zm1.46-14.19c.09-.18,0-.27-.17-.27h-.71a.43.43,0,0,0-.45.27c-.45.87-.8,1.5-1.05,1.91-.09.14,0,.2.17.2h.92a.44.44,0,0,0,.44-.23C415.89,27.65,416.18,27,416.38,26.5Zm10.82-6.6v1.4a.27.27,0,0,0,.3.31h4.25a.28.28,0,0,0,.31-.31V19.9c0-.2-.1-.3-.31-.3H427.5A.27.27,0,0,0,427.2,19.9Zm0,5.35v1.42c0,.19.1.28.3.28h4.25c.21,0,.31-.09.31-.28V25.25a.27.27,0,0,0-.31-.31H427.5C427.3,24.94,427.2,25,427.2,25.25Zm.3,7.14h4.25a.27.27,0,0,0,.31-.31V30.59c0-.19-.1-.28-.31-.28H427.5c-.2,0-.3.09-.3.28v1.49C427.2,32.29,427.3,32.39,427.5,32.39Z"/><path class="cls-2" d="M443.22,31.47a2,2,0,0,1-1.94-1.94v-.68a1.78,1.78,0,0,1,.58-1.34,1.86,1.86,0,0,1,1.36-.56h9.86c.18,0,.27-.11.27-.31V16.81a1.88,1.88,0,0,1,.58-1.36,1.85,1.85,0,0,1,1.36-.58H457a2,2,0,0,1,1.94,1.94v9.83c0,.2.09.31.28.31h9.86a1.87,1.87,0,0,1,1.36.56,1.78,1.78,0,0,1,.58,1.34v.68a2,2,0,0,1-1.94,1.94H463a.25.25,0,0,0-.28.27v8.1c0,.43.08.68.24.76a6,6,0,0,0,1.67.12,5.34,5.34,0,0,0,.95,0c.18,0,.36-.21.53-.54a3.52,3.52,0,0,0,.32-1.35c.05-.56.11-1.46.17-2.68a1.83,1.83,0,0,1,.63-1.31,1.77,1.77,0,0,1,1.38-.46l1.19.1a2,2,0,0,1,1.33.68,1.93,1.93,0,0,1,.51,1.39c0,1-.09,1.74-.12,2.35a17.36,17.36,0,0,1-.21,1.86c-.1.62-.17,1.11-.22,1.48a2.62,2.62,0,0,1-.39,1.08c-.21.37-.37.63-.47.8a1.66,1.66,0,0,1-.74.51,5.42,5.42,0,0,1-.9.34,7.88,7.88,0,0,1-1.21.16c-.58,0-1.07.07-1.44.07h-1.82c-1.09,0-2,0-2.65-.06a9.4,9.4,0,0,1-1.86-.25,4.58,4.58,0,0,1-1.24-.46,2,2,0,0,1-.68-.8,3.52,3.52,0,0,1-.34-1.17,15.15,15.15,0,0,1-.07-1.69v-9a.24.24,0,0,0-.27-.27h-2.62a.29.29,0,0,0-.3.27,15.85,15.85,0,0,1-2.61,7.43,19.52,19.52,0,0,1-6.34,5.57,1.93,1.93,0,0,1-1.5.2,2.16,2.16,0,0,1-1.26-.88L441.58,43a1.68,1.68,0,0,1-.25-1.39,1.72,1.72,0,0,1,.87-1.13,15.12,15.12,0,0,0,4.56-3.79,10.91,10.91,0,0,0,2-4.95c0-.07,0-.13-.07-.18a.28.28,0,0,0-.2-.09Zm2.07-14.22a2,2,0,0,1,1.53-.07,2.13,2.13,0,0,1,1.19,1q1.23,2.25,2.18,4.32a1.88,1.88,0,0,1-.95,2.55l-1.12.55a1.87,1.87,0,0,1-1.5,0,2,2,0,0,1-1.09-1q-1-2.12-2.21-4.36a1.68,1.68,0,0,1-.12-1.42,1.7,1.7,0,0,1,1-1.06Zm21.57-.34,1.22.51a2,2,0,0,1,1.08,1,1.77,1.77,0,0,1,0,1.46q-1.19,2.7-2.31,4.8a1.93,1.93,0,0,1-1.16,1,2.08,2.08,0,0,1-1.53-.08L463.05,25a1.8,1.8,0,0,1-1-1.07,1.66,1.66,0,0,1,.12-1.41q1.13-2.18,2.14-4.56a2,2,0,0,1,1-1.07A1.82,1.82,0,0,1,466.86,16.91Z"/><path class="cls-2" d="M476,42.46a1.82,1.82,0,0,1-1-1.07,1.7,1.7,0,0,1,.11-1.41,54,54,0,0,0,5.69-19.74,1.84,1.84,0,0,1,.68-1.3,1.9,1.9,0,0,1,1.39-.5l1.94.1a2,2,0,0,1,1.31.65,1.85,1.85,0,0,1,.49,1.36,56.43,56.43,0,0,1-6.12,21.87,1.93,1.93,0,0,1-1.16,1,2.08,2.08,0,0,1-1.53-.08ZM494,21.4c-.11-.2-.48-.87-1.09-2a1.75,1.75,0,0,1-.13-1.43,1.83,1.83,0,0,1,.95-1.13h0a1.91,1.91,0,0,1,1.5-.13,1.85,1.85,0,0,1,1.15.95c.25.45.63,1.16,1.13,2.11a1.85,1.85,0,0,1,.07,1.46,1.94,1.94,0,0,1-2.49,1.16A2,2,0,0,1,494,21.4ZM498.15,25a2,2,0,0,1,1.52.14,1.88,1.88,0,0,1,1,1.12q2.31,6.9,4.15,14.8a1.87,1.87,0,0,1-.26,1.44,1.71,1.71,0,0,1-1.21.8l-2.11.44a1.92,1.92,0,0,1-1.46-.32,2,2,0,0,1-.85-1.24q-1.72-7.69-3.81-14.32a1.68,1.68,0,0,1,.16-1.43,2,2,0,0,1,1.13-.92Zm1.26-4.66q-.17-.35-.54-1.05c-.25-.48-.44-.83-.58-1.06a1.85,1.85,0,0,1-.15-1.46,1.67,1.67,0,0,1,.93-1.12l.1,0a2,2,0,0,1,1.5-.15,1.82,1.82,0,0,1,1.16.94c.75,1.42,1.13,2.16,1.15,2.21a1.78,1.78,0,0,1,.12,1.46,1.8,1.8,0,0,1-1,1.09l-.1.07a2,2,0,0,1-1.48.08A1.92,1.92,0,0,1,499.41,20.38Z"/><path class="cls-2" d="M511.73,42.39l-.62-1.12a1.75,1.75,0,0,1-.12-1.45,2,2,0,0,1,.94-1.14q11.49-6,17.08-15.92a.17.17,0,0,0,0-.15.16.16,0,0,0-.15-.09H515.16a2,2,0,0,1-1.94-1.93V19.36A1.89,1.89,0,0,1,513.8,18a1.85,1.85,0,0,1,1.36-.58h18.23a1.82,1.82,0,0,1,1.36.58,1.85,1.85,0,0,1,.58,1.36v1.23a7.9,7.9,0,0,1-.85,3.64,41.85,41.85,0,0,1-5.17,7.44.26.26,0,0,0,0,.41q3.75,3.3,7.66,7a1.78,1.78,0,0,1,.57,1.34,1.8,1.8,0,0,1-.57,1.35l-1.06,1a1.89,1.89,0,0,1-1.38.58,1.94,1.94,0,0,1-1.37-.55q-3.61-3.49-7.49-7a.31.31,0,0,0-.44,0,47.06,47.06,0,0,1-10.82,7.38,2,2,0,0,1-1.53.12A1.89,1.89,0,0,1,511.73,42.39Z"/><circle class="cls-2" cx="297.95" cy="31.83" r="30.42"/><path class="cls-3" d="M298,2.83a29,29,0,1,1-29,29,29,29,0,0,1,29-29M298,0a31.84,31.84,0,1,0,31.84,31.83A31.87,31.87,0,0,0,298,0Z"/><path class="cls-3" d="M313.53,19.38H281.26A2.38,2.38,0,0,0,279,21l-2.35,7.21a6.87,6.87,0,0,0-.34,2.16V40.65h5.37a1,1,0,0,1,0-.17,5.16,5.16,0,0,1,10.32,0,1,1,0,0,1,0,.17h12.75c0-.06,0-.11,0-.17a5.16,5.16,0,0,1,10.32,0v.17h4.56V25.44A6.06,6.06,0,0,0,313.53,19.38ZM284.63,33.5a.61.61,0,0,1-.61.61H280.6a.62.62,0,0,1-.61-.61V30.35a3.75,3.75,0,0,1,.19-1.19l2-6.14a.6.6,0,0,1,.58-.43H284a.61.61,0,0,1,.61.61Zm10.89-4.75a.3.3,0,0,1-.31.3h-7.06a.3.3,0,0,1-.31-.3V22.9a.31.31,0,0,1,.31-.31h7.06a.31.31,0,0,1,.31.31Zm10.53,0a.3.3,0,0,1-.31.3h-7.33a.3.3,0,0,1-.31-.3V22.9a.31.31,0,0,1,.31-.31h7.33a.31.31,0,0,1,.31.31Zm9.86-.31a.61.61,0,0,1-.61.61h-5.66a.61.61,0,0,1-.61-.61V23.2a.61.61,0,0,1,.61-.61H313a3,3,0,0,1,3,2.95Z"/><path class="cls-3" d="M286.83,36.67a3.81,3.81,0,1,0,3.81,3.81A3.82,3.82,0,0,0,286.83,36.67Zm0,5.41a1.6,1.6,0,1,1,1.59-1.6A1.6,1.6,0,0,1,286.83,42.08Z"/><path class="cls-3" d="M309.88,36.67a3.81,3.81,0,1,0,3.81,3.81A3.82,3.82,0,0,0,309.88,36.67Zm0,5.41a1.6,1.6,0,1,1,1.6-1.6A1.6,1.6,0,0,1,309.88,42.08Z"/></g></g></svg>