<svg xmlns="http://www.w3.org/2000/svg" viewBox="0 0 345 27.19"><defs><style>.cls-1,.cls-4,.cls-5{fill:none;stroke:#69c295;stroke-miterlimit:10;}.cls-1{stroke-width:1.21px;}.cls-2{fill:#69c295;}.cls-3{fill:#fff;}.cls-4{stroke-width:0.3px;}.cls-5{stroke-width:0.24px;}</style></defs><g id="レイヤー_2" data-name="レイヤー 2"><g id="Contents"><line class="cls-1" x1="345" y1="1.7" y2="1.7"/><line class="cls-1" x1="345" y1="24.77" y2="24.77"/><path class="cls-2" d="M130.08,18.62a.81.81,0,0,1-.38-.33.75.75,0,0,1-.1-.49,22.86,22.86,0,0,0,.31-2.63.45.45,0,0,1,.35-.42.75.75,0,0,1,.26,0h.07a.64.64,0,0,1,.38.22.59.59,0,0,1,.13.41,26.38,26.38,0,0,1-.31,2.83.5.5,0,0,1-.11.26l0,0h0A.48.48,0,0,1,130.08,18.62Zm3.1-.54a.67.67,0,0,1,.1-.39,0,0,0,0,0,0-.05s0,0,0,0h-.09a.38.38,0,0,1-.33-.08.43.43,0,0,1-.18-.29c0-.6-.12-1.25-.22-2a.46.46,0,0,1,.34-.52l.06,0h0a.49.49,0,0,1,.34.06.34.34,0,0,1,.17.29c.06.38.14,1,.25,2a.45.45,0,0,1,0,.23.06.06,0,0,0,0,.06s0,0,0,0a.88.88,0,0,1,.29-.05l.41,0a.21.21,0,0,0,.13,0s0-.08.08-.18a3,3,0,0,0,.05-.48,0,0,0,0,0,0,0h0a.57.57,0,0,1-.23.16,1.11,1.11,0,0,1-.23,0,.36.36,0,0,1-.32-.35c-.07-.52-.13-.95-.19-1.31a.38.38,0,0,1,.19-.41.37.37,0,0,1,.19-.09.39.39,0,0,1,.29.08.41.41,0,0,1,.17.26l.17,1.09,0,0V14.43a.1.1,0,0,0-.11-.11h-3.45a.85.85,0,0,1-.83-.83V7.08a.75.75,0,0,1,.25-.57.78.78,0,0,1,.58-.24h4.5a.78.78,0,0,1,.58.24.75.75,0,0,1,.25.57v.13a.74.74,0,0,1-.25.57.78.78,0,0,1-.58.24h-.31a.13.13,0,0,0-.14.14v.46c0,.08,0,.12.14.12h.33a.65.65,0,0,1,.65.65.64.64,0,0,1-.19.47.63.63,0,0,1-.46.18h-.33c-.09,0-.14,0-.14.12v.47a.12.12,0,0,0,.14.13h.33a.63.63,0,0,1,.46.18.59.59,0,0,1,.19.46.62.62,0,0,1-.19.46.6.6,0,0,1-.46.19h-.33c-.09,0-.14,0-.14.12v.49c0,.09,0,.13.14.13h.33a.79.79,0,0,1,.58.25.8.8,0,0,1,.24.58v.81c0,1,0,1.76,0,2.3h0a29.15,29.15,0,0,0,.6-7V7.15a.82.82,0,0,1,.81-.81h4.28a.82.82,0,0,1,.58.24.78.78,0,0,1,.24.57v5a.8.8,0,0,1-.24.58.85.85,0,0,1-.58.23h-.29c-.09,0-.12,0-.1.12A13.84,13.84,0,0,0,143,17.31a.94.94,0,0,1,.1.66.85.85,0,0,1-.34.57l-.4.31a.75.75,0,0,1-.6.14.58.58,0,0,1-.47-.34,17.45,17.45,0,0,1-1.63-5.54c0-.1-.06-.15-.14-.15h-.45c-.09,0-.13,0-.13.12a20,20,0,0,1-1,5.51.59.59,0,0,1-.4.38.69.69,0,0,1-.56-.09l-.45-.29a1,1,0,0,1-.35-.44s0,0,0,0,0,0,0,0a1.42,1.42,0,0,1-.47.87,1.52,1.52,0,0,1-.88.21l-.75,0a.84.84,0,0,1-.59-.27,1,1,0,0,1-.27-.6Zm-1.4-3.31a.46.46,0,0,1,.34.08.41.41,0,0,1,.16.31c.07.92.13,1.81.18,2.69a.52.52,0,0,1-.13.36,1.52,1.52,0,0,1-.19.17.73.73,0,0,1-.25.11.45.45,0,0,1-.35-.11.53.53,0,0,1-.17-.34c0-1.17-.07-2.07-.1-2.72a.53.53,0,0,1,.45-.54h.06Zm1.46-6.15V8.16c0-.09,0-.14-.11-.14h-.67c-.08,0-.12.05-.12.14v.46a.11.11,0,0,0,.12.12h.67C133.2,8.74,133.24,8.7,133.24,8.62Zm0,2v-.47c0-.08,0-.12-.11-.12h-.67a.11.11,0,0,0-.12.12v.47c0,.08,0,.13.12.13h.67C133.2,10.76,133.24,10.71,133.24,10.63Zm0,2v-.49c0-.08,0-.12-.11-.12h-.67a.11.11,0,0,0-.12.12v.49c0,.09,0,.13.12.13h.67C133.2,12.79,133.24,12.75,133.24,12.66ZM139,10.74V11c0,.08,0,.12.13.12h1.54c.08,0,.13,0,.13-.12V8.4c0-.08,0-.11-.13-.11h-1.54c-.09,0-.13,0-.13.11Z"/><path class="cls-2" d="M145.48,10.7a.75.75,0,0,1-.57-.25.8.8,0,0,1-.24-.58V9.54a.82.82,0,0,1,.24-.59.78.78,0,0,1,.57-.24H147c.08,0,.12-.05.14-.13s.15-.76.35-1.89a.93.93,0,0,1,.33-.57.91.91,0,0,1,.63-.19l.42,0a.81.81,0,0,1,.55.29.7.7,0,0,1,.16.58c-.06.4-.16,1-.29,1.76,0,.08,0,.12.1.12h2.17a2.87,2.87,0,0,1,.95.21,1.5,1.5,0,0,1,.63.36,2.5,2.5,0,0,1,.28.82,5.07,5.07,0,0,1,.16,1.23v1.91q0,5.38-2.63,5.39a9.8,9.8,0,0,1-2.33-.38.79.79,0,0,1-.5-.39.86.86,0,0,1-.08-.65l.1-.41a.8.8,0,0,1,1-.55,6.9,6.9,0,0,0,1.32.26.35.35,0,0,0,.23-.11,1.16,1.16,0,0,0,.21-.38,5.19,5.19,0,0,0,.17-.66,9.76,9.76,0,0,0,.12-1c0-.43,0-.91,0-1.44a7.14,7.14,0,0,0-.13-1.91c-.1-.18-.41-.27-.94-.27H149a.15.15,0,0,0-.16.11A57.87,57.87,0,0,1,146.7,18a.83.83,0,0,1-.43.47.75.75,0,0,1-.64,0l-.39-.12a.71.71,0,0,1-.47-.41.86.86,0,0,1,0-.63,60.9,60.9,0,0,0,1.95-6.54c0-.07,0-.1-.11-.1Zm10.19,4.05c-.52-1.94-1.12-3.84-1.78-5.68a.76.76,0,0,1,.52-1l.55-.16a.84.84,0,0,1,.64.07.86.86,0,0,1,.43.49q1,2.84,1.78,5.73a.79.79,0,0,1-.59,1l-.55.13a.84.84,0,0,1-.62-.1A.82.82,0,0,1,155.67,14.75Z"/><path class="cls-2" d="M160.9,14.35a.79.79,0,0,1-.52-.37.81.81,0,0,1-.13-.62c.17-1,.33-1.94.46-2.89A.91.91,0,0,1,161,9.9a.79.79,0,0,1,.61-.19l.65.06a.73.73,0,0,1,.54.29.74.74,0,0,1,.17.59c-.08.61-.16,1.15-.23,1.65h0a7.42,7.42,0,0,1,4-1.32,5,5,0,0,1,3.26.86,3.26,3.26,0,0,1,1,2.67,3.49,3.49,0,0,1-1.64,3,8.51,8.51,0,0,1-4.72,1.1c-.9,0-1.8,0-2.71-.13a.78.78,0,0,1-.55-.3.83.83,0,0,1-.19-.6l0-.35a.77.77,0,0,1,.3-.55.79.79,0,0,1,.6-.19c1,.09,1.86.13,2.52.13a5.34,5.34,0,0,0,2.74-.58,1.76,1.76,0,0,0,1-1.57q0-1.56-2-1.56a8,8,0,0,0-3.61,1.24,2.08,2.08,0,0,1-1.51.25Zm2.16-7.52c1.93.21,3.75.32,5.46.35a.86.86,0,0,1,.59.25.77.77,0,0,1,.24.58v.33a.82.82,0,0,1-.82.82c-2,0-3.87-.14-5.72-.34a.78.78,0,0,1-.55-.3.81.81,0,0,1-.17-.61l0-.35a.81.81,0,0,1,.32-.54A.81.81,0,0,1,163.06,6.83Z"/><path class="cls-2" d="M174.11,17.63a.78.78,0,0,1-.41-.46.7.7,0,0,1,.05-.6,23.16,23.16,0,0,0,2.42-8.43.83.83,0,0,1,.29-.56.81.81,0,0,1,.59-.21l.83,0a.86.86,0,0,1,.56.28.79.79,0,0,1,.21.58A24.08,24.08,0,0,1,176,17.61a.81.81,0,0,1-.49.42.89.89,0,0,1-.66,0Zm9.77-.09a79.55,79.55,0,0,0-2.57-9,.77.77,0,0,1,.05-.61.75.75,0,0,1,.46-.39l.71-.22a.88.88,0,0,1,.64.05.86.86,0,0,1,.43.49,71.78,71.78,0,0,1,2.78,9.2.76.76,0,0,1-.11.62.71.71,0,0,1-.51.35l-.9.17a.85.85,0,0,1-1-.65Z"/><path class="cls-2" d="M188.66,13.23l-.1-.56a.76.76,0,0,1,.14-.6.89.89,0,0,1,.54-.34,21,21,0,0,0,5.08-1.62,18.54,18.54,0,0,0,4.31-2.74.85.85,0,0,1,.59-.2.73.73,0,0,1,.55.27l.36.41a.79.79,0,0,1,.21.6.88.88,0,0,1-.29.58,20.29,20.29,0,0,1-3.39,2.34.21.21,0,0,0-.12.19V17.8a.76.76,0,0,1-.25.58.78.78,0,0,1-.58.24h-.88a.82.82,0,0,1-.81-.82V12.75a.09.09,0,0,0,0-.08.08.08,0,0,0-.08,0,22.64,22.64,0,0,1-4.29,1.23.81.81,0,0,1-1-.66Z"/><path class="cls-2" d="M203.77,15.74a.86.86,0,0,1-.86-.8v-.46a.81.81,0,0,1,.22-.59.84.84,0,0,1,.58-.26l4-.14c.08,0,.12-.05.12-.13l-.22-2.43c0-.08,0-.12-.13-.12l-3.07.11a.82.82,0,0,1-.59-.22.81.81,0,0,1-.27-.57V9.67a.81.81,0,0,1,.22-.59.81.81,0,0,1,.58-.27l2.95-.1a.11.11,0,0,0,.12-.12l-.12-1.31a.8.8,0,0,1,.19-.59.84.84,0,0,1,.55-.28l.83-.07a.85.85,0,0,1,.6.21.76.76,0,0,1,.29.56l.12,1.39c0,.08,0,.12.13.12l3.59-.13a.81.81,0,0,1,.59.22.83.83,0,0,1,.27.58v.45a.78.78,0,0,1-.22.59.81.81,0,0,1-.57.27l-3.48.11c-.07,0-.1,0-.1.13l.22,2.44c0,.08,0,.12.13.12l3.73-.13a.81.81,0,0,1,.59.22.83.83,0,0,1,.27.58v.45a.78.78,0,0,1-.22.59.81.81,0,0,1-.57.27l-3.63.11c-.07,0-.11,0-.11.13l.2,2.36a.76.76,0,0,1-.19.59.82.82,0,0,1-.55.28l-.82.07a.82.82,0,0,1-.6-.21.81.81,0,0,1-.3-.56L208,15.71c0-.08,0-.12-.13-.12Z"/><path class="cls-2" d="M218.74,9.27a.77.77,0,0,1-.35-1.07l.33-.65a.81.81,0,0,1,.49-.42.84.84,0,0,1,.64,0c1,.47,2,1,3.06,1.52a.77.77,0,0,1,.4.48.81.81,0,0,1-.07.63l-.38.65a.73.73,0,0,1-.48.39.81.81,0,0,1-.63-.05C220.74,10.26,219.74,9.76,218.74,9.27ZM229,8.56a.81.81,0,0,1,.52.36.76.76,0,0,1,.12.62,10.55,10.55,0,0,1-3.36,5.94,12.73,12.73,0,0,1-6.81,2.66.81.81,0,0,1-.62-.17.85.85,0,0,1-.34-.56l-.1-.67a.71.71,0,0,1,.15-.59.75.75,0,0,1,.53-.31,10.9,10.9,0,0,0,5.51-2.11A8.63,8.63,0,0,0,227.41,9a.84.84,0,0,1,.37-.51.76.76,0,0,1,.62-.11Z"/><path class="cls-2" d="M232.44,13.57l-.4-.34a.84.84,0,0,1-.08-1.15,10.66,10.66,0,0,0,2.36-4.71,1,1,0,0,1,.35-.57.88.88,0,0,1,.61-.2l.65,0a.78.78,0,0,1,.55.28.65.65,0,0,1,.16.58s0,.12,0,.22,0,.18,0,.23,0,.11.1.11h4.23A.05.05,0,0,0,241,8s0,0,0-.07l-.18-.34-.17-.33a.69.69,0,0,1,0-.58.74.74,0,0,1,.95-.48.84.84,0,0,1,.46.39c0,.09.12.22.2.39l.21.38a.69.69,0,0,1,0,.68.14.14,0,0,0,0,.19.75.75,0,0,1,.31.63c-.08,3.12-.83,5.44-2.25,7s-3.66,2.48-6.7,2.82a.83.83,0,0,1-.63-.16,1,1,0,0,1-.35-.56l-.07-.48a.73.73,0,0,1,.15-.6.76.76,0,0,1,.53-.32,9.08,9.08,0,0,0,4.9-1.86,6.71,6.71,0,0,0,1.85-4.4c0-.09,0-.13-.1-.13H236a.17.17,0,0,0-.18.12,12.23,12.23,0,0,1-2.16,3.24.8.8,0,0,1-.58.27A.83.83,0,0,1,232.44,13.57Zm10.75-5.71-.42-.78a.81.81,0,0,1-.05-.59.72.72,0,0,1,.38-.44.76.76,0,0,1,.61,0,.74.74,0,0,1,.47.37c0,.1.12.24.21.42l.19.4a.77.77,0,0,1-.93,1.06A.82.82,0,0,1,243.19,7.86Z"/><path class="cls-2" d="M112.2,26.59a13,13,0,1,1,13-13A13,13,0,0,1,112.2,26.59Z"/><path class="cls-3" d="M112.2,1.21A12.39,12.39,0,1,1,99.85,13.6,12.37,12.37,0,0,1,112.2,1.21m0-1.21a13.6,13.6,0,1,0,13.57,13.6A13.6,13.6,0,0,0,112.2,0Z"/><path class="cls-3" d="M116.67,22l-1.77-3.5-.75-1.85c-.31.35-1.49,1.55-1.55,1.61l.5,1a.2.2,0,0,0,0,.08l2.12,3.41a.81.81,0,0,0,1.09.31A.75.75,0,0,0,116.67,22Z"/><path class="cls-3" d="M110.34,11.39c-.12-.49-.25-.94-.36-1.3a3.64,3.64,0,0,1-.16-.91l-1.11,1.63-1.91,2.81a.64.64,0,0,0,.16.91.69.69,0,0,0,.94-.15l2.15-2.63Z"/><path class="cls-3" d="M109.35,23.53a.9.9,0,0,1-.28,0,1,1,0,0,1-.6-.48.93.93,0,0,1-.08-.73L109.48,18a2.93,2.93,0,0,1,.29-.6l1.66-3h0s-.83-3-1.25-4.4c-.47-1.57.24-2.4,1-2.64a1.8,1.8,0,0,1,.6-.1,2.19,2.19,0,0,1,1.8,1L117,13.17a.71.71,0,0,1,.15.56.79.79,0,0,1-.31.52.8.8,0,0,1-.47.15.78.78,0,0,1-.64-.31l-1.19-1.4c.09.46.16.85.2,1.07a3,3,0,0,1-.61,2.47,33.87,33.87,0,0,1-2.38,2.57l-1.42,4A1,1,0,0,1,109.35,23.53Z"/><path class="cls-2" d="M111.76,7.42a2.07,2.07,0,0,1,1.7,1l1.47,2.08,1.95,2.78a.63.63,0,0,1-.13.91.66.66,0,0,1-.4.13.67.67,0,0,1-.54-.26l-1.49-1.76c.12.66.23,1.23.28,1.52a2.93,2.93,0,0,1-.59,2.38,31.71,31.71,0,0,1-2.37,2.55l-1.45,4.09a.87.87,0,0,1-.84.61.77.77,0,0,1-.25,0,.84.84,0,0,1-.59-1.05l1.08-4.25a4.65,4.65,0,0,1,.29-.59l1.66-3s-.81-3.06-1.24-4.49.15-2.26.9-2.5a2.11,2.11,0,0,1,.56-.09m0-.24h0a2.38,2.38,0,0,0-.65.1c-.79.26-1.55,1.14-1.05,2.79.38,1.28,1.07,3.87,1.21,4.4l-1.61,2.89a4.49,4.49,0,0,0-.31.64l-1.09,4.26a1,1,0,0,0,.09.81,1.08,1.08,0,0,0,.68.53,1.06,1.06,0,0,0,.31,0,1.12,1.12,0,0,0,1.07-.78l1.43-4a34.48,34.48,0,0,0,2.36-2.54,3.21,3.21,0,0,0,.63-2.56l-.12-.63.9,1.06a.92.92,0,0,0,.73.35.9.9,0,0,0,.54-.18.84.84,0,0,0,.36-.59.86.86,0,0,0-.17-.66l-2-2.77-1.47-2.08a2.28,2.28,0,0,0-1.88-1.06Z"/><path class="cls-3" d="M112,5.49a1.74,1.74,0,0,1-3.47,0,1.74,1.74,0,0,1,3.47,0Z"/><path class="cls-3" d="M112.61,6.21,107.8,5a.29.29,0,0,1-.23-.25.33.33,0,0,1,.24-.3c.22-.08,1.07-.27,1.1-.28l3.07.76c.07.05.73.62.89.79a.37.37,0,0,1,.08.35.26.26,0,0,1-.25.15Z"/><path class="cls-2" d="M108.94,4.29l3,.76s.68.58.82.75.07.3-.07.3h-.06l-4.81-1.21c-.18,0-.19-.25,0-.33s1.09-.27,1.09-.27m0-.25h0c-.1,0-.9.21-1.12.29a.44.44,0,0,0-.32.42.41.41,0,0,0,.32.36l4.81,1.21.12,0a.4.4,0,0,0,.36-.23.46.46,0,0,0-.1-.48c-.16-.17-.78-.71-.85-.78l0,0,0,0-3-.75-.06,0Z"/><path class="cls-3" d="M108.5,4.56s.51-1.16.92-1.35a2,2,0,0,1,1.4,0,2,2,0,0,1,1.21.7,3.75,3.75,0,0,1,.17,1.62"/><path class="cls-4" d="M112.75,7.19c-.88.84-1.36,1.44,2.38,6.51"/><path class="cls-3" d="M116.18,11.19V8.76a1.23,1.23,0,0,0-1.36-1.28H113.5Z"/><line class="cls-5" x1="114.1" y1="8.72" x2="116.41" y2="8.72"/></g></g></svg>