<svg xmlns="http://www.w3.org/2000/svg" viewBox="0 0 814.25 155.68"><defs><style>.cls-1,.cls-4,.cls-5{fill:none;stroke:#986063;}.cls-1{stroke-miterlimit:10;stroke-width:2.83px;}.cls-2{fill:#986063;}.cls-3{fill:#fff;}.cls-4,.cls-5{stroke-linecap:round;stroke-linejoin:round;stroke-width:4.25px;}.cls-5{stroke-dasharray:0 8.5;}</style></defs><g id="レイヤー_2" data-name="レイヤー 2"><g id="base"><path d="M386.84,56.14a.52.52,0,0,1-.36.1.47.47,0,0,1-.33-.19.45.45,0,0,1-.09-.36.47.47,0,0,1,.18-.31l5.15-4H387a.41.41,0,0,1-.32-.13.42.42,0,0,1-.13-.32.43.43,0,0,1,.45-.44h5.33a.52.52,0,0,1,.35.14.49.49,0,0,1,.15.36,1,1,0,0,1-.4.83l-1.8,1.42h0s0,0,0,0h0a.55.55,0,0,1,.47.26,3.13,3.13,0,0,1,.37,1,1.68,1.68,0,0,0,.34.77,1.11,1.11,0,0,0,.7.16,5.14,5.14,0,0,0,.78-.07.45.45,0,0,1,.34.07.4.4,0,0,1,.19.27.42.42,0,0,1-.06.35.41.41,0,0,1-.29.19,7.17,7.17,0,0,1-1.06.11,2.2,2.2,0,0,1-1.25-.28,1.65,1.65,0,0,1-.58-1,3.23,3.23,0,0,0-.31-.83.46.46,0,0,0-.39-.22,1.31,1.31,0,0,0-.63.28C389,54.49,388.19,55.1,386.84,56.14Zm1.24-7.82a29.39,29.39,0,0,0,3.6.28.51.51,0,0,1,.33.15.42.42,0,0,1,.14.32.45.45,0,0,1-.14.32.36.36,0,0,1-.32.13,36.67,36.67,0,0,1-3.71-.3.42.42,0,0,1-.3-.17.45.45,0,0,1,.4-.73Z"/><path d="M396.21,51.93a.44.44,0,0,1-.3-.11.44.44,0,0,1,0-.6.38.38,0,0,1,.3-.13c1.11,0,2.46,0,4-.07.05,0,.08,0,.06-.07l-.24-.89A.09.09,0,0,0,400,50c-1.52,0-2.64.06-3.37.06a.4.4,0,0,1-.29-.12.43.43,0,0,1-.13-.3.41.41,0,0,1,.13-.29.37.37,0,0,1,.29-.13c.94,0,2,0,3.23-.05.05,0,.08,0,.07-.1s0-.38-.06-.49a.47.47,0,0,1,.12-.36.48.48,0,0,1,.35-.16.5.5,0,0,1,.37.12.59.59,0,0,1,.18.35l.06.51q0,.09.09.09l.64,0,.76,0,.64,0a.39.39,0,0,1,.3.11.44.44,0,0,1,.14.28.43.43,0,0,1-.41.45l-1.91.08c-.06,0-.09,0-.08.08a9.09,9.09,0,0,0,.25.89.11.11,0,0,0,.12.07c.8,0,1.41,0,1.83-.07a.4.4,0,0,1,.3.11.36.36,0,0,1,.14.29.43.43,0,0,1-.1.31.47.47,0,0,1-.3.14l-1.55.06c-.06,0-.08,0,0,.07a12.12,12.12,0,0,0,.6,1.14.52.52,0,0,1,.08.42.64.64,0,0,1-.24.36,1,1,0,0,1-1,.08,4.93,4.93,0,0,0-1.9-.39,3,3,0,0,0-1.37.23.74.74,0,0,0-.42.69,1,1,0,0,0,.6.91,4.92,4.92,0,0,0,2,.3,15.56,15.56,0,0,0,1.9-.13.4.4,0,0,1,.32.08.36.36,0,0,1,.16.28.43.43,0,0,1-.08.33.4.4,0,0,1-.29.17,15.57,15.57,0,0,1-2,.14c-2.48,0-3.72-.7-3.72-2.08a1.47,1.47,0,0,1,.73-1.29,3.91,3.91,0,0,1,2.15-.48,5.25,5.25,0,0,1,1.85.34h0a0,0,0,0,1,0,0c-.19-.37-.35-.71-.48-1a.13.13,0,0,0-.13-.08C398.85,51.91,397.41,51.93,396.21,51.93Z"/><path d="M419.46,56.55a2.7,2.7,0,0,1-2.25-.81,5,5,0,0,1-.63-3c0-1.11,0-2.42.1-3.93a.58.58,0,0,1,.17-.38.52.52,0,0,1,.39-.15.56.56,0,0,1,.36.17.49.49,0,0,1,.14.38c-.06,1.49-.1,2.79-.1,3.91a9,9,0,0,0,.1,1.42,1.92,1.92,0,0,0,.34.84,1.11,1.11,0,0,0,.56.41,2.62,2.62,0,0,0,.82.11c1.24,0,2.24-.84,3-2.51a.45.45,0,0,1,.27-.27.46.46,0,0,1,.38,0,.47.47,0,0,1,.28.27.44.44,0,0,1,0,.37,5.75,5.75,0,0,1-1.67,2.35A3.58,3.58,0,0,1,419.46,56.55Z"/><path d="M427,55.08a.38.38,0,0,1-.3.13.41.41,0,0,1-.43-.43V51a.43.43,0,0,1,.12-.31.44.44,0,0,1,.32-.13.45.45,0,0,1,.32.12.44.44,0,0,1,.13.31v1.35h0a3.45,3.45,0,0,1,2.42-1.69c.05,0,.07,0,.07-.08v-.35a.48.48,0,0,1,.14-.34.46.46,0,0,1,.34-.15.47.47,0,0,1,.35.15.48.48,0,0,1,.14.34v.31c0,.06,0,.1.09.1a2.68,2.68,0,0,1,1.71.67,2.11,2.11,0,0,1,.59,1.61,2.09,2.09,0,0,1-.64,1.64,2.9,2.9,0,0,1-1.84.66.12.12,0,0,0-.11.08,1.85,1.85,0,0,1-.47.76,2.66,2.66,0,0,1-.82.54.5.5,0,0,1-.36,0,.55.55,0,0,1-.28-.24.36.36,0,0,1,0-.32.45.45,0,0,1,.22-.25,1.54,1.54,0,0,0,.7-.59s0-.09-.05-.1a3.16,3.16,0,0,1-1.21-.66.45.45,0,0,1-.14-.32.47.47,0,0,1,.11-.34.32.32,0,0,1,.27-.13.43.43,0,0,1,.31.1,2.27,2.27,0,0,0,.88.49q.09,0,.09-.06a3.78,3.78,0,0,0,0-.38V51.59c0-.06,0-.08-.08-.07a3,3,0,0,0-1.68,1.1,3.94,3.94,0,0,0-.76,2.15A.48.48,0,0,1,427,55.08Zm5-2.22a1.31,1.31,0,0,0-1.32-1.39c-.06,0-.09,0-.09.07v2.21c0,.19,0,.33,0,.42a.14.14,0,0,0,0,.06s0,0,.06,0C431.57,54.13,432,53.66,432,52.86Z"/><line class="cls-1" x1="812.13" y1="1.42" x2="2.13" y2="1.42"/><line class="cls-1" x1="812.13" y1="100.42" x2="2.13" y2="100.42"/><path class="cls-2" d="M300.24,24.34,300,23.15a2.84,2.84,0,0,1,1-2.71,24.36,24.36,0,0,0,2.8-2.89,3.48,3.48,0,0,1,2.77-1.31h.86a4.08,4.08,0,0,1,2.89,1.19,27.23,27.23,0,0,0,2.2,1.94.14.14,0,0,0,.15,0,.18.18,0,0,0,.12-.12c.14-.55.25-1,.33-1.4a1.6,1.6,0,0,1,.71-1.05,1.66,1.66,0,0,1,1.25-.26l.69.12a1.81,1.81,0,0,1,1.1.74,1.71,1.71,0,0,1,.29,1.29.29.29,0,0,0,0,.14.33.33,0,0,1,0,.15c0,.18,0,.27.21.27h1a.21.21,0,0,0,.23-.24V17.58a1.58,1.58,0,0,1,.51-1.17,1.64,1.64,0,0,1,1.19-.49h1.25a1.6,1.6,0,0,1,1.18.49,1.63,1.63,0,0,1,.49,1.17V19c0,.16.09.24.26.24h2.45a1.73,1.73,0,0,1,1.69,1.7v.47a1.73,1.73,0,0,1-1.69,1.7h-2.45a.24.24,0,0,0-.26.27v3.63c0,.16.09.24.26.24h2.74a1.73,1.73,0,0,1,1.7,1.69v.63a1.55,1.55,0,0,1-.51,1.17,1.62,1.62,0,0,1-1.19.49h-2.47q-.27,0-.21.27a9.9,9.9,0,0,0,3.43,6.22,2.52,2.52,0,0,1,.82,1.19,2.23,2.23,0,0,1,0,1.4l-.36,1a1.3,1.3,0,0,1-.87.82,1.21,1.21,0,0,1-1.15-.19,15.9,15.9,0,0,1-4.52-5.92q-.12-.18-.24,0a17.51,17.51,0,0,1-5.93,6.07,1.32,1.32,0,0,1-1.22.12,1.46,1.46,0,0,1-.86-.86l-.33-.81c-.06-.12-.15-.14-.29-.06a2.31,2.31,0,0,1-.72.33c-2.88.63-5.83,1.17-8.87,1.61a1.64,1.64,0,0,1-1.25-.35,1.59,1.59,0,0,1-.65-1.11l-.06-.33a1.56,1.56,0,0,1,.34-1.23,1.6,1.6,0,0,1,1.12-.64l1.26-.2,1.27-.19a.28.28,0,0,0,.23-.3v-7a.21.21,0,0,0-.23-.24h-2.09a1.64,1.64,0,0,1-1.19-.51,1.59,1.59,0,0,1-.5-1.19V29a1.63,1.63,0,0,1,.5-1.19,1.67,1.67,0,0,1,1.19-.5h2.09a.21.21,0,0,0,.23-.24V25.56a.21.21,0,0,0-.23-.24H303.1a.67.67,0,0,1-.51-.22.73.73,0,0,1-.21-.52l-.06-.06-.21.21-.23.21a1,1,0,0,1-1,.19A1,1,0,0,1,300.24,24.34Zm2.53,13a1.28,1.28,0,0,1-1.06-.24,1.4,1.4,0,0,1-.58-1c-.14-1-.27-1.84-.38-2.41a1.3,1.3,0,0,1,.22-1.06,1.44,1.44,0,0,1,.94-.61,1.33,1.33,0,0,1,1.08.22,1.44,1.44,0,0,1,.61.94c.1.52.23,1.33.39,2.44a1.37,1.37,0,0,1-.27,1.07A1.51,1.51,0,0,1,302.77,37.38Zm2.47-15.81q-.15.21.09.21h4.11s.06,0,.08-.07a.09.09,0,0,0,0-.11c-.68-.65-1.38-1.41-2.12-2.26q-.18-.18-.33,0A27.12,27.12,0,0,1,305.24,21.57Zm5.39,3.75h-1.37q-.27,0-.27.24V27q0,.24.27.24h1.16a1.59,1.59,0,0,1,1.17.5,1.66,1.66,0,0,1,.49,1.19v.27a1.62,1.62,0,0,1-.49,1.19,1.56,1.56,0,0,1-1.17.51h-1.16q-.27,0-.27.24v6.25c0,.18.1.25.3.2a5.93,5.93,0,0,0,.77-.14l.77-.15a1.47,1.47,0,0,1,1.61.71.17.17,0,0,0,.15.11.21.21,0,0,0,.18,0l.24-.18a10.62,10.62,0,0,0,5-6.4q.06-.24-.18-.24h-3.3a1.66,1.66,0,0,1-1.2-.49,1.57,1.57,0,0,1-.5-1.17V28.27a1,1,0,0,1,1-1q.09,0,0-.06l-1.58-.92a1.89,1.89,0,0,1-.8-.9.28.28,0,0,0-.36-.18Zm-.75,7.8a1.51,1.51,0,0,1,.57-1,1.39,1.39,0,0,1,1.07-.33,1.3,1.3,0,0,1,1,.52,1.46,1.46,0,0,1,.33,1.09c-.08.77-.15,1.32-.21,1.64a1.41,1.41,0,0,1-.61,1,1.53,1.53,0,0,1-1.12.29,1.41,1.41,0,0,1-.95-.59,1.39,1.39,0,0,1-.27-1.08C309.73,34.3,309.8,33.8,309.88,33.12Zm4.88-6.07q-.12.24.15.24h3.4a.21.21,0,0,0,.23-.24V23.42c0-.18-.08-.27-.23-.27H316.4a.31.31,0,0,0-.33.27C315.7,24.61,315.26,25.82,314.76,27.05Z"/><path class="cls-2" d="M331.52,30.77a1.74,1.74,0,0,1-1.7-1.7V28.6a1.74,1.74,0,0,1,1.7-1.7h3.81a1.74,1.74,0,0,1,1.7,1.7v7.68a1,1,0,0,0,.14.47,3.82,3.82,0,0,0,1.7,1.47,11.32,11.32,0,0,0,3.41.67c1.58.14,4,.21,7.13.21h6.19a1.54,1.54,0,0,1,1.15.49,1.59,1.59,0,0,1,.43,1.18l0,.42a1.67,1.67,0,0,1-.57,1.2,1.78,1.78,0,0,1-1.25.49h-5.77a59.4,59.4,0,0,1-9.08-.53,10.32,10.32,0,0,1-4.79-1.85.32.32,0,0,0-.39,0c-.79.68-1.62,1.31-2.47,1.91a1.55,1.55,0,0,1-2.23-.51l-.45-.74a1.65,1.65,0,0,1-.19-1.28,1.78,1.78,0,0,1,.76-1.1c.55-.38,1.09-.77,1.6-1.16a.46.46,0,0,0,.21-.39V31q0-.24-.27-.24ZM334,17.55c.64.68,1.59,1.71,2.86,3.1a1.55,1.55,0,0,1,.43,1.22,1.71,1.71,0,0,1-.55,1.19l-.54.48A1.56,1.56,0,0,1,335,24a1.65,1.65,0,0,1-1.15-.53c-.63-.68-1.62-1.71-2.94-3.1a1.62,1.62,0,0,1-.47-1.19A1.6,1.6,0,0,1,331,18l.56-.53a1.63,1.63,0,0,1,1.23-.45A1.72,1.72,0,0,1,334,17.55Zm21.52.69a1.62,1.62,0,0,1,1.19.51,1.6,1.6,0,0,1,.51,1.18v.3a1.74,1.74,0,0,1-1.7,1.7h-5.77a.3.3,0,0,0-.33.24,2.55,2.55,0,0,0-.08.31c0,.15-.05.26-.07.34s0,.24.18.24h4.79a1.74,1.74,0,0,1,1.7,1.7V36.13a1.58,1.58,0,0,1-.51,1.17,1.64,1.64,0,0,1-1.19.49H340.3a1.64,1.64,0,0,1-1.19-.49,1.58,1.58,0,0,1-.51-1.17V24.76a1.74,1.74,0,0,1,1.7-1.7H344q.3,0,.33-.21l.18-.71q.06-.21-.21-.21H338.9a1.64,1.64,0,0,1-1.19-.51,1.59,1.59,0,0,1-.5-1.19v-.3a1.59,1.59,0,0,1,.5-1.18,1.64,1.64,0,0,1,1.19-.51h1.67a.14.14,0,0,0,.13-.08.09.09,0,0,0,0-.13l-.12-.24a1.24,1.24,0,0,1-.05-1.14,1.15,1.15,0,0,1,.88-.7l.93-.21a2.31,2.31,0,0,1,1.44.16,2.22,2.22,0,0,1,1.06,1c.07.12.17.31.29.56a4.52,4.52,0,0,0,.3.57.35.35,0,0,0,.36.24h2.91a.35.35,0,0,0,.36-.24l.54-1.07a2.24,2.24,0,0,1,1-1,2.21,2.21,0,0,1,1.39-.22l1,.21a1.31,1.31,0,0,1,1,.7,1.13,1.13,0,0,1,0,1.14.54.54,0,0,0-.07.12l-.08.15q-.12.24.15.24Zm-4.46,8h-7.68a.21.21,0,0,0-.24.23v.63q0,.27.24.27H351a.24.24,0,0,0,.26-.27v-.63C351.28,26.3,351.19,26.22,351,26.22Zm.26,4.58v-.54A.23.23,0,0,0,351,30h-7.68c-.16,0-.24.09-.24.26v.54q0,.27.24.27H351A.24.24,0,0,0,351.28,30.8Zm0,3.75v-.69c0-.15-.09-.23-.26-.23h-7.68a.21.21,0,0,0-.24.23v.69q0,.27.24.27H351A.24.24,0,0,0,351.28,34.55Z"/><path class="cls-2" d="M362.06,23.21a1.69,1.69,0,0,1-1.22-.48,1.54,1.54,0,0,1-.51-1.19v-.95A1.67,1.67,0,0,1,362,18.92q10.71-.06,21.31-.53a1.59,1.59,0,0,1,1.19.44A1.65,1.65,0,0,1,385,20l0,.95a1.71,1.71,0,0,1-.44,1.23,1.79,1.79,0,0,1-1.17.61q-6,.69-9.06,3a7,7,0,0,0-3,5.73,5.88,5.88,0,0,0,1.86,4.6,7.09,7.09,0,0,0,4.93,1.68,16.91,16.91,0,0,0,1.91-.11,1.6,1.6,0,0,1,1.23.31,1.53,1.53,0,0,1,.64,1.08l.15,1a1.78,1.78,0,0,1-.34,1.3,1.62,1.62,0,0,1-1.15.67,19.85,19.85,0,0,1-2.68.15,12.63,12.63,0,0,1-8.56-2.77A9.37,9.37,0,0,1,366.17,32a9.26,9.26,0,0,1,1.44-4.91,12.4,12.4,0,0,1,4-4s0,0,0-.06a0,0,0,0,0,0,0C368.75,23.1,365.55,23.17,362.06,23.21ZM379,26.6a1.71,1.71,0,0,1,1.31-.12,1.65,1.65,0,0,1,1,.84l1,1.84a1.67,1.67,0,0,1-.81,2.23,1.66,1.66,0,0,1-1.31.06,1.72,1.72,0,0,1-1-.86c-.1-.18-.42-.76-.95-1.75a1.52,1.52,0,0,1-.12-1.25,1.66,1.66,0,0,1,.83-1Zm7.09-.35,1,1.93a1.55,1.55,0,0,1,.1,1.28,1.58,1.58,0,0,1-.84.95l-.09.06a1.72,1.72,0,0,1-1.3.08,1.75,1.75,0,0,1-1-.85c-.1-.2-.25-.51-.47-.93s-.39-.72-.51-.92a1.62,1.62,0,0,1-.13-1.28,1.49,1.49,0,0,1,.82-1l.09,0a1.7,1.7,0,0,1,1.31-.13A1.59,1.59,0,0,1,386.05,26.25Z"/><path class="cls-2" d="M391.11,30.23a1.62,1.62,0,0,1-1.19-.49,1.56,1.56,0,0,1-.51-1.17v-.51a1.74,1.74,0,0,1,1.7-1.7H395a1.58,1.58,0,0,1,1.17.51,1.64,1.64,0,0,1,.49,1.19v8a.84.84,0,0,0,.15.47A3.93,3.93,0,0,0,398.56,38a12.15,12.15,0,0,0,3.41.67c1.57.14,3.95.2,7.14.2H415a1.54,1.54,0,0,1,1.16.51,1.56,1.56,0,0,1,.44,1.19l-.05.63a1.84,1.84,0,0,1-.57,1.2,1.67,1.67,0,0,1-1.22.49h-5.57a59.73,59.73,0,0,1-9.09-.53,10.4,10.4,0,0,1-4.81-1.85.3.3,0,0,0-.38,0c-.8.68-1.62,1.31-2.47,1.91a1.5,1.5,0,0,1-1.21.24,1.56,1.56,0,0,1-1-.75l-.44-.74a1.65,1.65,0,0,1-.19-1.28,1.77,1.77,0,0,1,.75-1.1c.52-.34,1.09-.75,1.7-1.22a.49.49,0,0,0,.21-.42V30.5a.24.24,0,0,0-.27-.27Zm2.5-12.53,2.71,3a1.73,1.73,0,0,1,.4,1.23,1.76,1.76,0,0,1-.58,1.21l-.51.48a1.55,1.55,0,0,1-1.19.43,1.61,1.61,0,0,1-1.13-.55c-.75-.88-1.68-1.87-2.77-3a1.61,1.61,0,0,1-.46-1.19,1.57,1.57,0,0,1,.52-1.16l.57-.54a1.78,1.78,0,0,1,2.44.09ZM400,36.28a44.78,44.78,0,0,0-3.16-8.37,3.13,3.13,0,0,1,0-3,47.75,47.75,0,0,0,2.8-7,2.11,2.11,0,0,1,.83-1.07,1.78,1.78,0,0,1,1.31-.27l.87.15a1.49,1.49,0,0,1,1,.67,1.36,1.36,0,0,1,.15,1.21,48.34,48.34,0,0,1-3.07,7.59.56.56,0,0,0,0,.44,46.8,46.8,0,0,1,3.42,8.72,1.61,1.61,0,0,1-1.22,2l-.92.21a1.65,1.65,0,0,1-1.28-.23A1.71,1.71,0,0,1,400,36.28Zm8.3.92A1.68,1.68,0,0,1,407,37a1.76,1.76,0,0,1-.82-1A43,43,0,0,0,403,27.76a3,3,0,0,1,0-2.94,41.24,41.24,0,0,0,2.8-6.91,2.11,2.11,0,0,1,.83-1.07,1.78,1.78,0,0,1,1.31-.27l.9.15a1.42,1.42,0,0,1,1,.67A1.39,1.39,0,0,1,410,18.6,50.94,50.94,0,0,1,407,26a.69.69,0,0,0,0,.44A48.53,48.53,0,0,1,410.36,35a1.38,1.38,0,0,1-.16,1.23,1.61,1.61,0,0,1-1.06.73Zm4.91-11.13a.49.49,0,0,0,0,.41A48.53,48.53,0,0,1,416.58,35a1.38,1.38,0,0,1-.16,1.23,1.61,1.61,0,0,1-1.05.73l-.9.21a1.66,1.66,0,0,1-1.28-.23,1.81,1.81,0,0,1-.8-1,43,43,0,0,0-3.13-8.16,3.07,3.07,0,0,1,0-2.94,41.24,41.24,0,0,0,2.8-6.91,2.07,2.07,0,0,1,.84-1.07,1.75,1.75,0,0,1,1.3-.27l.9.15a1.49,1.49,0,0,1,1,.67,1.36,1.36,0,0,1,.15,1.21A46.24,46.24,0,0,1,413.16,26.07Z"/><path class="cls-2" d="M421.7,31.1l-.14-.27a1.79,1.79,0,0,1-.09-1.33,1.77,1.77,0,0,1,.8-1.05l11.34-6.67,0,0h-9.17a1.59,1.59,0,0,1-1.17-.5,1.66,1.66,0,0,1-.49-1.2v-.56a1.64,1.64,0,0,1,.49-1.19,1.56,1.56,0,0,1,1.17-.51h16.08a1.73,1.73,0,0,1,1.69,1.7v.68a2.56,2.56,0,0,1-1.46,2.47l-7.41,3.93v0h0a15.89,15.89,0,0,1,2.83-.27,9.55,9.55,0,0,1,6.27,1.85,6.19,6.19,0,0,1,2.21,5,7.8,7.8,0,0,1-3.12,6.61c-2.09,1.56-5,2.35-8.87,2.35q-9,0-9-5.45a4.13,4.13,0,0,1,1.95-3.45,8.91,8.91,0,0,1,5.28-1.4c2.28,0,3.94.37,5,1.12a3.87,3.87,0,0,1,1.53,3.35,6,6,0,0,1-.06,1,.12.12,0,0,0,.06.1.11.11,0,0,0,.12,0,4.18,4.18,0,0,0,2.2-3.9q0-3.69-5.62-3.69a25.73,25.73,0,0,0-5.12.47,26.85,26.85,0,0,0-5,1.64,1.8,1.8,0,0,1-1.33,0A1.68,1.68,0,0,1,421.7,31.1Zm11.43,7a3.82,3.82,0,0,0,.3-1.37,1.25,1.25,0,0,0-.58-1.14,4.39,4.39,0,0,0-2.19-.38,3.65,3.65,0,0,0-1.92.41,1.19,1.19,0,0,0-.64,1q0,1.73,4.62,1.73h0l.06,0A.31.31,0,0,0,433.13,38.15Z"/><path class="cls-2" d="M448.82,32.08l-.42-2.44a4.39,4.39,0,0,1,.69-3,29.18,29.18,0,0,0,3.6-9.13,1.67,1.67,0,0,1,.73-1.08,1.7,1.7,0,0,1,1.26-.26l1,.17a1.74,1.74,0,0,1,1.09.72,1.59,1.59,0,0,1,.28,1.25,31.66,31.66,0,0,1-1.69,5.83,1.42,1.42,0,0,0-.12.51V41.45a1.66,1.66,0,0,1-.49,1.19,1.58,1.58,0,0,1-1.18.51h-1.16a1.58,1.58,0,0,1-1.18-.51,1.66,1.66,0,0,1-.49-1.19v-9.7a.07.07,0,0,0-.06-.07s-.06,0-.08,0-.12.2-.24.36a2.71,2.71,0,0,0-.24.36.73.73,0,0,1-.78.28A.69.69,0,0,1,448.82,32.08Zm28.1-9.17a1.74,1.74,0,0,1-1.7,1.7H458.4a1.58,1.58,0,0,1-1.17-.51,1.64,1.64,0,0,1-.49-1.19v-.33a1.66,1.66,0,0,1,.49-1.19,1.6,1.6,0,0,1,1.17-.5h16.82a1.73,1.73,0,0,1,1.7,1.69ZM457.78,41.45V35.59a1.58,1.58,0,0,1,.49-1.17,1.61,1.61,0,0,1,1.18-.5h14.31a1.65,1.65,0,0,1,1.19.5,1.56,1.56,0,0,1,.51,1.17v5.86a1.74,1.74,0,0,1-1.7,1.7h-2.17a.85.85,0,0,1-.86-.86.13.13,0,0,0-.15-.15h-8.07q-.12,0-.12.15a.85.85,0,0,1-.86.86h-2.08a1.58,1.58,0,0,1-1.18-.51A1.62,1.62,0,0,1,457.78,41.45Zm1.93-12.64a1.66,1.66,0,0,1-1.63-1.64,1.59,1.59,0,0,1,.47-1.15,1.56,1.56,0,0,1,1.16-.49h13.81a1.53,1.53,0,0,1,1.16.49,1.6,1.6,0,0,1,.48,1.15,1.57,1.57,0,0,1-.48,1.14,1.54,1.54,0,0,1-1.16.5Zm0,4.19a1.59,1.59,0,0,1-1.16-.48,1.55,1.55,0,0,1-.47-1.16,1.58,1.58,0,0,1,.47-1.16,1.62,1.62,0,0,1,1.16-.47h13.81a1.62,1.62,0,0,1,1.64,1.63A1.64,1.64,0,0,1,473.52,33Zm14-16.4a1.7,1.7,0,0,1,1.21,2.9,1.65,1.65,0,0,1-1.21.5H460.37a1.65,1.65,0,0,1-1.21-.5,1.72,1.72,0,0,1,1.21-2.9ZM462.39,37.44v1.19c0,.16.08.23.24.23h7.83c.18,0,.27-.07.27-.23V37.44q0-.24-.27-.24h-7.83A.21.21,0,0,0,462.39,37.44Z"/><path class="cls-2" d="M479.74,33.48a1.62,1.62,0,0,1-1.08-.67,1.56,1.56,0,0,1-.28-1.24q.56-3.24.83-6.87a1.55,1.55,0,0,1,.58-1.16,1.6,1.6,0,0,1,1.23-.42l.36,0a1.55,1.55,0,0,1,1.18.58A1.72,1.72,0,0,1,483,25a68.12,68.12,0,0,1-.83,7.14,1.77,1.77,0,0,1-2,1.4Zm22.74,9.43a1.71,1.71,0,0,1-1.69-1.69v-8.7c0-.15-.08-.21-.24-.17l-.66.17a1.59,1.59,0,0,1-1.26-.11,1.65,1.65,0,0,1-.82-1c0-.05-.43-1.37-1.22-3.92a0,0,0,1,0-.06,0V39.19a1.74,1.74,0,0,1-1.7,1.7h-1a1.64,1.64,0,0,1-1.19-.51,1.59,1.59,0,0,1-.5-1.19V32.52c0-.15-.08-.21-.24-.17l-.63.17a1.57,1.57,0,0,1-1.29-.13,1.69,1.69,0,0,1-.82-1c-.1-.35-.28-.95-.54-1.78s-.45-1.48-.59-1.94l-.06,0v1.52a25.49,25.49,0,0,1-.95,7.46,14.66,14.66,0,0,1-3,5.37,1.64,1.64,0,0,1-1.2.57,1.9,1.9,0,0,1-1.3-.42l-1-.81a1.4,1.4,0,0,1-.58-1.08,1.55,1.55,0,0,1,.4-1.18,11.51,11.51,0,0,0,2.47-4.58,29,29,0,0,0,.68-7.2V18.18a1.74,1.74,0,0,1,1.7-1.7h1.1a1.74,1.74,0,0,1,1.7,1.7v5q0,.24.24.18l.56-.18a1.72,1.72,0,0,1,1.33.13,1.66,1.66,0,0,1,.84,1q.75,2.32,1.11,3.48s.05,0,.09,0V19a1.71,1.71,0,0,1,1.69-1.69h1a1.59,1.59,0,0,1,1.19.5,1.64,1.64,0,0,1,.51,1.19v4.2q0,.24.24.18l.65-.21a1.59,1.59,0,0,1,1.28.12,1.74,1.74,0,0,1,.87,1c.23.75.61,2,1.13,3.57,0,0,0,0,0,0s.05,0,.05,0v-9.7a1.73,1.73,0,0,1,1.69-1.7h1.22a1.74,1.74,0,0,1,1.7,1.7v23a1.73,1.73,0,0,1-1.7,1.69Z"/><path class="cls-2" d="M509.09,26.9a1.64,1.64,0,0,1-.61-1.13,1.6,1.6,0,0,1,.37-1.22l.39-.45a1.82,1.82,0,0,1,1.18-.61,1.71,1.71,0,0,1,1.26.37c1.09.88,2,1.64,2.71,2.3a1.73,1.73,0,0,1,.15,2.44l-.45.5a1.63,1.63,0,0,1-1.11.57,1.46,1.46,0,0,1-1.18-.42C511,28.5,510.06,27.71,509.09,26.9Zm5.72-8.18v-.39a1.57,1.57,0,0,1,.5-1.18,1.7,1.7,0,0,1,1.19-.49h18a1.68,1.68,0,0,1,1.19.49,1.58,1.58,0,0,1,.51,1.18v.39a1.58,1.58,0,0,1-.51,1.17,1.64,1.64,0,0,1-1.19.49H530.1a.24.24,0,0,0-.26.27v1.13a.24.24,0,0,0,.26.27h3.58a1.66,1.66,0,0,1,1.19.49,1.61,1.61,0,0,1,.5,1.18V41.16a1.71,1.71,0,0,1-1.69,1.69H532a.92.92,0,0,1-.71-.31,1,1,0,0,1-.3-.7.13.13,0,0,0-.15-.15h-11.1a.13.13,0,0,0-.15.15,1,1,0,0,1-1,1h-1.7a1.73,1.73,0,0,1-1.7-1.69V35h0a43.9,43.9,0,0,1-2.44,6.54,1.42,1.42,0,0,1-.95.81,1.46,1.46,0,0,1-1.22-.18l-.83-.48a1.77,1.77,0,0,1-.81-1,1.83,1.83,0,0,1,.09-1.34,50.93,50.93,0,0,0,2.23-5.8,1.52,1.52,0,0,1,.82-.95,1.56,1.56,0,0,1,1.27-.06l.68.23A1.8,1.8,0,0,1,515.19,34l0,0V23.72a1.58,1.58,0,0,1,.51-1.18,1.64,1.64,0,0,1,1.19-.49h3.6a.24.24,0,0,0,.27-.27V20.65a.24.24,0,0,0-.27-.27h-4a1.66,1.66,0,0,1-1.19-.49A1.57,1.57,0,0,1,514.81,18.72Zm-2.95,3.12L509.75,20a1.57,1.57,0,0,1-.6-1.13,1.53,1.53,0,0,1,.39-1.19l.29-.38a1.8,1.8,0,0,1,1.2-.61,1.71,1.71,0,0,1,1.28.37c.83.67,1.52,1.26,2.08,1.75a1.77,1.77,0,0,1,.18,2.44l-.39.45a1.49,1.49,0,0,1-1.13.57A1.56,1.56,0,0,1,511.86,21.84Zm9.29,3.87a.24.24,0,0,0-.27-.27h-1a.24.24,0,0,0-.27.27v3.81a.1.1,0,0,0,0,.09s.07,0,.11,0A6,6,0,0,0,521.15,25.71Zm-1.55,6.13V33.3a.24.24,0,0,0,.27.27h1s.07,0,.09-.08a.15.15,0,0,0,0-.13l-1.22-1.58s-.08-.05-.11,0A.1.1,0,0,0,519.6,31.84ZM531,38V37q0-.27-.24-.27H519.87a.24.24,0,0,0-.27.27v1q0,.24.27.24h10.89A.21.21,0,0,0,531,38Zm-9.32-4.61q-.15.15.09.15h9q.24,0,.24-.27V32.11a.21.21,0,0,0-.24-.24h-2a2.93,2.93,0,0,1-2.29-.71,4.76,4.76,0,0,1-.59-2.83V25.71a.24.24,0,0,0-.27-.27H525a.24.24,0,0,0-.26.27A11.94,11.94,0,0,1,524,30,10.05,10.05,0,0,1,521.68,33.42Zm2.86-12.77v1.13q0,.27.24.27h1.07q.24,0,.24-.27V20.65q0-.27-.24-.27h-1.07Q524.54,20.38,524.54,20.65Zm5,5.06v1.52a2.6,2.6,0,0,0,.13,1.14c.09.11.39.17.91.17h.21q.24,0,.24-.27V25.71q0-.27-.24-.27h-1Q529.51,25.44,529.51,25.71Z"/><path class="cls-2" d="M540.13,42.26l-.92-1.13a2.73,2.73,0,0,1-.38-2.83,17.64,17.64,0,0,0,.83-4.23q.24-2.58.24-7.88v-1.7a1.73,1.73,0,0,1,1.69-1.7h12.74q.15,0,.15-.12a1,1,0,0,1,.3-.71.94.94,0,0,1,.68-.3h0a.09.09,0,0,0,.09-.07c0-.05,0-.09,0-.11a.89.89,0,0,1-.21-.56c0-.08,0-.12-.11-.12h-5.54a.16.16,0,0,0-.18.18,1.15,1.15,0,0,1-.36.83,1.11,1.11,0,0,1-.83.36h-2.23a1.13,1.13,0,0,1-.85-.36,1.16,1.16,0,0,1-.34-.83.16.16,0,0,0-.18-.18h-4.14a1.74,1.74,0,0,1-1.7-1.7V19a1.56,1.56,0,0,1,.51-1.17,1.64,1.64,0,0,1,1.19-.49h4.08a.21.21,0,0,0,.24-.24,1.37,1.37,0,0,1,1.4-1.4h1.78a1.35,1.35,0,0,1,1,.42,1.32,1.32,0,0,1,.42,1q0,.24.21.24h5.42c.13,0,.2-.08.2-.24a1.32,1.32,0,0,1,.42-1,1.38,1.38,0,0,1,1-.42h1.79a1.35,1.35,0,0,1,1,.4,1.39,1.39,0,0,1,.4,1,.21.21,0,0,0,.24.24h4.07a1.62,1.62,0,0,1,1.19.49A1.56,1.56,0,0,1,566,19v.15a1.74,1.74,0,0,1-1.7,1.7H559.9a.11.11,0,0,0-.12.12.84.84,0,0,1-.27.62.86.86,0,0,1-.62.27h-.48a.1.1,0,0,0-.09.06.06.06,0,0,0,0,.09,1,1,0,0,1,.3.71q0,.12.15.12h2q.21,0,.15-.27a1.21,1.21,0,0,1,.18-.9,1.17,1.17,0,0,1,.74-.55l.24,0a2.35,2.35,0,0,1,1.44.09,2,2,0,0,1,1.09.92.29.29,0,0,1,.06.1.36.36,0,0,0,.06.11,1.49,1.49,0,0,1,.15.44.69.69,0,0,0,.21.42,1.58,1.58,0,0,1,.71,1.4,1.72,1.72,0,0,1-1.7,1.7H559c-.14,0-.21.08-.21.23a39.13,39.13,0,0,0,.68,5.15q.06.15.15,0a24.94,24.94,0,0,0,1.16-3.12,1.7,1.7,0,0,1,.82-1,1.6,1.6,0,0,1,1.26-.16l.66.18a1.63,1.63,0,0,1,1,.78,1.57,1.57,0,0,1,.13,1.27,25.82,25.82,0,0,1-3.45,7.11.36.36,0,0,0,0,.42c.51.95.91,1.43,1.19,1.43s.53-.76.77-2.26a1.44,1.44,0,0,1,.66-1,1.28,1.28,0,0,1,1.16-.13l.21,0a2.24,2.24,0,0,1,1.13.85,2,2,0,0,1,.32,1.36,11,11,0,0,1-1.36,4.51,2.75,2.75,0,0,1-2.24,1.5q-2.46,0-4.58-3.07a.16.16,0,0,0-.15-.1.24.24,0,0,0-.18,0,21.93,21.93,0,0,1-2.83,2.27,1.7,1.7,0,0,1-1.31.23A1.78,1.78,0,0,1,552.9,42l-.38-.57a.44.44,0,0,1-.09-.11A.45.45,0,0,0,552,41h-3.21q-.21,0-.21.18a1.24,1.24,0,0,1-.36.9,1.19,1.19,0,0,1-.89.38h-1a1.72,1.72,0,0,1-1.7-1.7V28.66a1.72,1.72,0,0,1,1.7-1.7h7.2a1.41,1.41,0,0,1,1,.36q.15.15.15-.09a3.3,3.3,0,0,1-.06-.39q0-.27,0-.39c0-.15-.09-.23-.27-.23h-10c-.18,0-.27.08-.27.23v3.19a51,51,0,0,1-.44,7.72,15.09,15.09,0,0,1-1.55,4.78,1,1,0,0,1-.92.59A1.14,1.14,0,0,1,540.13,42.26Zm8.49-12.15v.69q0,.24.27.24h1q.27,0,.27-.24v-.69c0-.15-.09-.23-.27-.23h-1C548.71,29.88,548.62,30,548.62,30.11Zm2.88,4v-.71c0-.18-.08-.27-.23-.27h-2.38a.24.24,0,0,0-.27.27v.71q0,.24.27.24h2.38A.21.21,0,0,0,551.5,34.16Zm-1.39,3.34v-.69q0-.24-.27-.24h-1q-.27,0-.27.24v.69c0,.18.09.26.27.26h1C550,37.76,550.11,37.68,550.11,37.5Zm6.37-1.43a33.49,33.49,0,0,1-1.55-6.73.07.07,0,0,0-.06-.07.07.07,0,0,0-.09,0,1.37,1.37,0,0,1-1.16.57h-.21c-.18,0-.27.08-.27.23v.69a.21.21,0,0,0,.24.24,1.44,1.44,0,0,1,1.06.44,1.54,1.54,0,0,1,.43,1.08v2.5a1.53,1.53,0,0,1-.43,1.07,1.4,1.4,0,0,1-1.06.44q-.24,0-.24.21v.72c0,.18.09.26.27.26h.15a1.72,1.72,0,0,1,.77.21.34.34,0,0,0,.39,0,17.48,17.48,0,0,0,1.67-1.49A.39.39,0,0,0,556.48,36.07Z"/><path class="cls-2" d="M570.82,40l-.53-1a1.5,1.5,0,0,1-.11-1.26,1.71,1.71,0,0,1,.82-1,35.56,35.56,0,0,0,14.94-13.93.12.12,0,0,0,0-.13.16.16,0,0,0-.14-.08h-12a1.59,1.59,0,0,1-1.19-.5,1.64,1.64,0,0,1-.51-1.19V19.88a1.72,1.72,0,0,1,1.7-1.7h15.95a1.72,1.72,0,0,1,1.7,1.7V21a6.84,6.84,0,0,1-.75,3.18,37.09,37.09,0,0,1-4.52,6.52.22.22,0,0,0,0,.36q3.27,2.88,6.7,6.13a1.63,1.63,0,0,1,0,2.35l-.93.89a1.63,1.63,0,0,1-1.2.51,1.7,1.7,0,0,1-1.21-.48q-3.15-3.06-6.55-6.1a.28.28,0,0,0-.38,0,41.63,41.63,0,0,1-9.47,6.46,1.77,1.77,0,0,1-2.35-.74Z"/><path class="cls-2" d="M600.67,30.92l-.74-.69a1.58,1.58,0,0,1-.55-1.14,1.59,1.59,0,0,1,.4-1.21,21.87,21.87,0,0,0,4.82-9.64,2,2,0,0,1,.72-1.18,1.82,1.82,0,0,1,1.25-.43l1.19.09a1.66,1.66,0,0,1,1.16.57,1.3,1.3,0,0,1,.33,1.16,1.08,1.08,0,0,1-.06.28,1.08,1.08,0,0,0-.06.28.18.18,0,0,0,0,.18.22.22,0,0,0,.17.09h11.42a1.66,1.66,0,0,1,1.2.49,1.61,1.61,0,0,1,.5,1.18q-.06,10-4.43,15t-14,6a1.65,1.65,0,0,1-1.28-.36,1.76,1.76,0,0,1-.69-1.13l-.17-1a1.56,1.56,0,0,1,.29-1.24,1.58,1.58,0,0,1,1.1-.63q7-1,10.09-3.81c.12-.12.1-.22,0-.3q-2.21-1.14-5.54-2.68a1.47,1.47,0,0,1-.82-.94,1.55,1.55,0,0,1,.13-1.23l.66-1.22a1.7,1.7,0,0,1,1-.85,1.75,1.75,0,0,1,1.33.07c2.44,1.13,4.39,2.07,5.83,2.8a.2.2,0,0,0,.3-.09,19.38,19.38,0,0,0,1.07-5.51.21.21,0,0,0-.24-.23h-9a.35.35,0,0,0-.36.23,23.71,23.71,0,0,1-4.58,7,1.63,1.63,0,0,1-1.2.53A1.71,1.71,0,0,1,600.67,30.92Z"/><path class="cls-2" d="M631.51,22.67a1.48,1.48,0,0,1-.83-1,1.52,1.52,0,0,1,.12-1.25l.68-1.34a1.76,1.76,0,0,1,2.32-.77c2,1,4.14,2,6.28,3.12a1.49,1.49,0,0,1,.82,1,1.63,1.63,0,0,1-.13,1.28L640,25.08a1.67,1.67,0,0,1-1,.81,1.64,1.64,0,0,1-1.3-.12C635.64,24.7,633.57,23.67,631.51,22.67Zm21.13-1.45a1.62,1.62,0,0,1,1.07.72,1.59,1.59,0,0,1,.24,1.27q-1.76,7.83-6.89,12.17t-14,5.45a1.72,1.72,0,0,1-1.28-.34,1.76,1.76,0,0,1-.69-1.15l-.2-1.37a1.49,1.49,0,0,1,.29-1.2,1.59,1.59,0,0,1,1.1-.64q7.28-1,11.33-4.32a17.79,17.79,0,0,0,5.73-9.61,1.72,1.72,0,0,1,.76-1.06,1.6,1.6,0,0,1,1.26-.22Z"/><path class="cls-2" d="M681,15a4.47,4.47,0,0,1,4.46,4.47,4.43,4.43,0,0,1-4.17,4.46c-.15,0-.23.09-.23.27,0,0,0,.06,0,.12a.86.86,0,0,0,0,.15q-.93,7.86-5.35,12T663,41.66a1.67,1.67,0,0,1-1.28-.34A1.81,1.81,0,0,1,661,40.2l-.21-1.13a1.49,1.49,0,0,1,.28-1.2,1.53,1.53,0,0,1,1.09-.64q6.63-.87,9.89-4T676,23.86c0-.18,0-.26-.21-.26h-15.6a1.73,1.73,0,0,1-1.69-1.7V20.71a1.57,1.57,0,0,1,.5-1.18,1.68,1.68,0,0,1,1.19-.49H676.3a.28.28,0,0,0,.3-.24,4.37,4.37,0,0,1,1.48-2.73A4.23,4.23,0,0,1,681,15Zm-1.37,5.84a1.83,1.83,0,0,0,1.37.56,1.86,1.86,0,0,0,1.37-.56A1.94,1.94,0,0,0,681,17.49a1.94,1.94,0,0,0-1.37,3.31Z"/><path class="cls-2" d="M690.29,30a1.71,1.71,0,0,1-1.69-1.69v-.92a1.59,1.59,0,0,1,.5-1.19,1.64,1.64,0,0,1,1.19-.51h20.33a1.64,1.64,0,0,1,1.21.49,1.54,1.54,0,0,1,.46,1.21Q712,34,707.82,37.54t-12.67,4.24a1.77,1.77,0,0,1-1.29-.39,1.93,1.93,0,0,1-.71-1.16l-.18-1a1.44,1.44,0,0,1,.3-1.19,1.5,1.5,0,0,1,1.1-.59,20.91,20.91,0,0,0,8.44-2.19,8.33,8.33,0,0,0,4.06-5.05c0-.13,0-.21-.18-.21Zm2.12-12.14H708.9a1.58,1.58,0,0,1,1.17.51,1.64,1.64,0,0,1,.49,1.19v1a1.6,1.6,0,0,1-.49,1.18,1.63,1.63,0,0,1-1.17.49H692.41a1.64,1.64,0,0,1-1.18-.49,1.6,1.6,0,0,1-.49-1.18v-1a1.64,1.64,0,0,1,.49-1.19A1.58,1.58,0,0,1,692.41,17.88Z"/><path class="cls-2" d="M722.17,31.1a1.74,1.74,0,0,1-1.7-1.7V19.22a1.55,1.55,0,0,1,.51-1.17,1.65,1.65,0,0,1,1.19-.5h1.67a1.67,1.67,0,0,1,1.19.5,1.57,1.57,0,0,1,.5,1.17V29.4a1.73,1.73,0,0,1-1.69,1.7Zm16.49-13.55a1.65,1.65,0,0,1,1.19.5,1.55,1.55,0,0,1,.51,1.17v6.7q0,7.35-3.53,11.25T725.92,42a1.73,1.73,0,0,1-1.29-.33,1.78,1.78,0,0,1-.73-1.13l-.24-1.07a1.54,1.54,0,0,1,.27-1.21,1.59,1.59,0,0,1,1.07-.67c3.85-.59,6.5-1.74,8-3.43s2.21-4.41,2.21-8.14V19.22a1.54,1.54,0,0,1,.5-1.17,1.67,1.67,0,0,1,1.19-.5Z"/><path class="cls-2" d="M749.46,32a1.64,1.64,0,0,1-1.19-.51,1.59,1.59,0,0,1-.5-1.19V28.84a1.63,1.63,0,0,1,.5-1.2,1.67,1.67,0,0,1,1.19-.5h21.43a1.72,1.72,0,0,1,1.7,1.7v1.42a1.74,1.74,0,0,1-1.7,1.7Z"/><path class="cls-2" d="M301,67.87a1.56,1.56,0,0,1-.77-1,1.67,1.67,0,0,1,.15-1.28,44.44,44.44,0,0,0,2.59-5.83,1.94,1.94,0,0,1,.86-1.07,1.87,1.87,0,0,1,1.34-.27l1.37.21a1.14,1.14,0,0,1,.82.53,1.11,1.11,0,0,1,.13,1q-.06.18.15.18h5a.33.33,0,0,0,.33-.24l.09-.26a2.13,2.13,0,0,1,.83-1.1,2,2,0,0,1,1.34-.36l1.37.12a1.16,1.16,0,0,1,.94.53,1.26,1.26,0,0,1,.16,1.1q-.06.21.15.21h6.61a1.6,1.6,0,0,1,1.16.49A1.66,1.66,0,0,1,326,62a1.62,1.62,0,0,1-1.63,1.64h-7c-.18,0-.27.08-.27.23v.48q0,.24.27.24h6.46a1.16,1.16,0,0,1,.89.37,1.33,1.33,0,0,1,0,1.82,1.19,1.19,0,0,1-.89.37h-6.46a.24.24,0,0,0-.27.27v.44a.24.24,0,0,0,.27.27h6.46a1.16,1.16,0,0,1,.89.37,1.33,1.33,0,0,1,0,1.82,1.16,1.16,0,0,1-.89.37h-6.46q-.27,0-.27.24v.47q0,.24.27.24h7.21a1.32,1.32,0,0,1,1,.42,1.35,1.35,0,0,1,.4,1,1.4,1.4,0,0,1-1.39,1.4h-8q-.24,0-.24.27v.44q0,.27.24.27h8.81a1.65,1.65,0,0,1,1.18.48,1.58,1.58,0,0,1,.49,1.16,1.6,1.6,0,0,1-.49,1.17,1.63,1.63,0,0,1-1.18.5h-7a.06.06,0,0,0,0,.08,64.06,64.06,0,0,0,7.89,2,1.53,1.53,0,0,1,1,.71,1.36,1.36,0,0,1,.13,1.19l-.24.72a1.76,1.76,0,0,1-.87,1,1.68,1.68,0,0,1-1.33.14,56.2,56.2,0,0,1-8.42-3q-.24-.12-.24.12V84a1.74,1.74,0,0,1-1.7,1.7h-1.48a1.74,1.74,0,0,1-1.7-1.7V81.71q0-.24-.21-.15a51.52,51.52,0,0,1-8.42,3,1.7,1.7,0,0,1-1.34-.14,1.72,1.72,0,0,1-.89-1l-.24-.72a1.44,1.44,0,0,1,1.07-1.9,62.73,62.73,0,0,0,8-2.05q.12-.06,0-.06h-7.27a1.6,1.6,0,0,1-1.17-.5,1.56,1.56,0,0,1-.49-1.17,1.54,1.54,0,0,1,.49-1.16,1.62,1.62,0,0,1,1.17-.48h9.11q.24,0,.24-.27v-.44q0-.27-.24-.27H304a1.6,1.6,0,0,1-1.18-.49,1.64,1.64,0,0,1-.49-1.18V68.85a.35.35,0,0,0-.24-.35Zm6-4v.45c0,.18.07.27.23.27H312a.24.24,0,0,0,.26-.27v-.45a.23.23,0,0,0-.26-.26H307.2C307,63.59,307,63.68,307,63.85Zm0,3.52v.44c0,.18.07.27.23.27H312a.24.24,0,0,0,.26-.27v-.44a.24.24,0,0,0-.26-.27H307.2C307,67.1,307,67.19,307,67.37Zm0,3.51v.47c0,.16.07.24.23.24H312c.17,0,.26-.08.26-.24v-.47c0-.16-.09-.24-.26-.24H307.2C307,70.64,307,70.72,307,70.88Z"/><path class="cls-2" d="M332.86,83.05l-.6-.83A1.6,1.6,0,0,1,332,81a1.53,1.53,0,0,1,.68-1.07l14-9.59v-.06a0,0,0,0,0,0,0H335.21a1.56,1.56,0,0,1-1.17-.49,1.6,1.6,0,0,1-.5-1.17v-.72a1.59,1.59,0,0,1,.5-1.17,1.56,1.56,0,0,1,1.17-.49h16.22a1.6,1.6,0,0,1,1.18.49,1.58,1.58,0,0,1,.49,1.17v1.34a3.08,3.08,0,0,1-1.37,2.68L347.24,75v0h.09c.83,0,1.45.9,1.87,2.68a3.52,3.52,0,0,0,.82,1.83,3.1,3.1,0,0,0,1.83.38,12.23,12.23,0,0,0,1.75-.12,1.83,1.83,0,0,1,1.27.28,1.49,1.49,0,0,1,.7,1l.15.74a1.62,1.62,0,0,1-.25,1.28,1.58,1.58,0,0,1-1.09.71,22.25,22.25,0,0,1-3,.27,8.39,8.39,0,0,1-4.28-.86,4.29,4.29,0,0,1-1.91-2.8,6.64,6.64,0,0,0-.67-1.92,1,1,0,0,0-.82-.52,3.71,3.71,0,0,0-1.6.73q-1.14.73-6.85,4.72a1.71,1.71,0,0,1-2.35-.42Zm5.45-23.66c3.69.42,7.3.65,10.83.71a1.8,1.8,0,0,1,1.19.52,1.58,1.58,0,0,1,.51,1.18v.8a1.66,1.66,0,0,1-.49,1.19,1.49,1.49,0,0,1-1.18.48q-5.32-.15-11.4-.83a1.63,1.63,0,0,1-1.11-.64,1.6,1.6,0,0,1-.35-1.24l.09-.71a1.54,1.54,0,0,1,.66-1.1A1.76,1.76,0,0,1,338.31,59.39Z"/><path class="cls-2" d="M363.9,75.94a1.67,1.67,0,0,1-1.2-.49,1.87,1.87,0,0,1-.55-1.21l-.6-11.49a1.58,1.58,0,0,1,.45-1.19,1.52,1.52,0,0,1,1.16-.5h2.68a1.55,1.55,0,0,1,1.17.5,1.46,1.46,0,0,1,.44,1.19l-.57,11.49a1.69,1.69,0,0,1-.55,1.21,1.78,1.78,0,0,1-1.24.49Zm1.49,2.38a1.62,1.62,0,0,1,1.19.51,1.6,1.6,0,0,1,.51,1.18v1.08a1.73,1.73,0,0,1-1.7,1.69h-1.78a1.73,1.73,0,0,1-1.7-1.69V80a1.74,1.74,0,0,1,1.7-1.69Z"/><path class="cls-2" d="M381,84.33a1.62,1.62,0,0,1-.79-.67,1.4,1.4,0,0,1-.19-1,50.37,50.37,0,0,0,.62-5.38,1,1,0,0,1,.71-.87,1.7,1.7,0,0,1,.54-.09l.07,0H382a1.27,1.27,0,0,1,.77.45,1.14,1.14,0,0,1,.27.83,57.67,57.67,0,0,1-.62,5.81.89.89,0,0,1-.24.53l0,0,0,0A.93.93,0,0,1,381,84.33Zm6.37-1.1a1.29,1.29,0,0,1,.21-.8.2.2,0,0,0,0-.11s0,0-.06,0a.42.42,0,0,1-.18,0,.88.88,0,0,1-.69-.17.9.9,0,0,1-.36-.61c-.09-1.21-.24-2.56-.44-4a.93.93,0,0,1,.68-1.07.24.24,0,0,1,.12,0l.12,0a1,1,0,0,1,.7.14.7.7,0,0,1,.34.58q.18,1.19.51,4.05a1,1,0,0,1-.06.47.13.13,0,0,0,0,.12.06.06,0,0,0,.09,0,1.87,1.87,0,0,1,.59-.09q.39,0,.84,0a.46.46,0,0,0,.28-.06.77.77,0,0,0,.15-.35,5.69,5.69,0,0,0,.1-1s0-.06,0-.06a.11.11,0,0,0-.08,0,1.07,1.07,0,0,1-.47.33,1.39,1.39,0,0,1-.48,0,.74.74,0,0,1-.65-.71c-.14-1.06-.27-2-.39-2.68a.8.8,0,0,1,.39-.84.73.73,0,0,1,.38-.17.78.78,0,0,1,.61.14.85.85,0,0,1,.35.54l.35,2.23.06,0V75.76a.21.21,0,0,0-.23-.24H383a1.74,1.74,0,0,1-1.7-1.7V60.7a1.58,1.58,0,0,1,.51-1.18A1.68,1.68,0,0,1,383,59h9.26a1.7,1.7,0,0,1,1.19.49,1.57,1.57,0,0,1,.5,1.18V61a1.57,1.57,0,0,1-.5,1.17,1.66,1.66,0,0,1-1.19.49h-.66c-.18,0-.26.09-.26.27v1c0,.16.08.24.26.24h.69a1.3,1.3,0,0,1,1,.39,1.28,1.28,0,0,1,.39,1,1.27,1.27,0,0,1-.39.95,1.3,1.3,0,0,1-1,.39h-.69c-.18,0-.26.08-.26.24V68c0,.18.08.27.26.27h.69a1.32,1.32,0,0,1,1,.37,1.24,1.24,0,0,1,.39.94,1.28,1.28,0,0,1-.39.95,1.3,1.3,0,0,1-1,.39h-.69c-.18,0-.26.08-.26.24v1c0,.18.08.27.26.27h.69A1.71,1.71,0,0,1,394,74.09v1.67c0,2,0,3.59-.12,4.7a0,0,0,0,0,.06,0q1.26-4.54,1.26-14.26V60.85a1.67,1.67,0,0,1,1.66-1.67h8.78a1.68,1.68,0,0,1,1.19.49,1.58,1.58,0,0,1,.51,1.18V71.09a1.58,1.58,0,0,1-.51,1.17,1.64,1.64,0,0,1-1.19.49H405q-.27,0-.21.24a28.34,28.34,0,0,0,2.77,8.66,2,2,0,0,1,.22,1.36,1.88,1.88,0,0,1-.7,1.17l-.83.63a1.48,1.48,0,0,1-1.22.29,1.26,1.26,0,0,1-1-.71,36.23,36.23,0,0,1-3.33-11.34q-.06-.3-.3-.3h-.92q-.27,0-.27.24a40.47,40.47,0,0,1-2,11.28,1.17,1.17,0,0,1-.82.78,1.38,1.38,0,0,1-1.15-.18l-.92-.6a1.91,1.91,0,0,1-.71-.89.1.1,0,0,0-.18,0,2.94,2.94,0,0,1-1,1.77,3.14,3.14,0,0,1-1.81.43l-1.55-.06a1.67,1.67,0,0,1-1.2-.55,2,2,0,0,1-.55-1.23Zm-2.89-6.79a.88.88,0,0,1,.7.18.84.84,0,0,1,.34.63c.14,1.88.26,3.72.36,5.5a1.08,1.08,0,0,1-.27.75,2.51,2.51,0,0,1-.39.35,1.34,1.34,0,0,1-.5.21.85.85,0,0,1-.73-.22,1,1,0,0,1-.34-.7c-.08-2.38-.15-4.24-.21-5.56a1,1,0,0,1,.24-.72,1,1,0,0,1,.68-.39h.06Zm3-12.59v-1q0-.27-.24-.27h-1.37q-.24,0-.24.27v1a.21.21,0,0,0,.24.24h1.37A.21.21,0,0,0,387.45,63.85Zm0,4.11V67a.21.21,0,0,0-.24-.24h-1.37a.21.21,0,0,0-.24.24V68q0,.27.24.27h1.37Q387.45,68.23,387.45,68Zm0,4.17v-1a.21.21,0,0,0-.24-.24h-1.37a.21.21,0,0,0-.24.24v1q0,.27.24.27h1.37Q387.45,72.4,387.45,72.13Zm11.87-3.93v.45c0,.16.09.23.27.23h3.15c.18,0,.27-.07.27-.23V63.41q0-.24-.27-.24h-3.15q-.27,0-.27.24Z"/><path class="cls-2" d="M410.9,69.42a1.64,1.64,0,0,1-.61-1.13,1.56,1.56,0,0,1,.37-1.22l.39-.45a1.77,1.77,0,0,1,1.17-.61,1.72,1.72,0,0,1,1.27.37c1.09.88,2,1.64,2.71,2.3a1.73,1.73,0,0,1,.15,2.44l-.45.5a1.63,1.63,0,0,1-1.12.57,1.45,1.45,0,0,1-1.17-.42C412.77,71,411.87,70.23,410.9,69.42Zm5.71-8.19v-.38a1.58,1.58,0,0,1,.51-1.18,1.68,1.68,0,0,1,1.19-.49h17.95a1.7,1.7,0,0,1,1.19.49,1.57,1.57,0,0,1,.5,1.18v.38a1.57,1.57,0,0,1-.5,1.18,1.66,1.66,0,0,1-1.19.49h-4.35c-.18,0-.26.09-.26.27V64.3c0,.18.08.27.26.27h3.57a1.62,1.62,0,0,1,1.19.49,1.58,1.58,0,0,1,.51,1.17V83.68a1.73,1.73,0,0,1-1.7,1.69h-1.66a1,1,0,0,1-.72-.31,1,1,0,0,1-.29-.7.13.13,0,0,0-.15-.15h-11.1a.13.13,0,0,0-.15.15,1,1,0,0,1-1,1h-1.69a1.73,1.73,0,0,1-1.7-1.69V77.51h0a43.59,43.59,0,0,1-2.44,6.55,1.5,1.5,0,0,1-2.17.63l-.84-.48a1.79,1.79,0,0,1-.8-1,1.83,1.83,0,0,1,.09-1.34,50.93,50.93,0,0,0,2.23-5.8,1.54,1.54,0,0,1,.82-1,1.64,1.64,0,0,1,1.27-.06l.68.24A1.8,1.8,0,0,1,417,76.5l0,0V66.23a1.58,1.58,0,0,1,.51-1.17,1.62,1.62,0,0,1,1.19-.49h3.6a.24.24,0,0,0,.27-.27V63.17a.24.24,0,0,0-.27-.27h-4a1.64,1.64,0,0,1-1.19-.49A1.58,1.58,0,0,1,416.61,61.23Zm-2.94,3.13-2.12-1.82a1.6,1.6,0,0,1-.59-1.13,1.53,1.53,0,0,1,.39-1.19l.29-.38a1.75,1.75,0,0,1,1.19-.61,1.68,1.68,0,0,1,1.28.37c.84.67,1.53,1.26,2.09,1.75a1.77,1.77,0,0,1,.18,2.44l-.39.45a1.51,1.51,0,0,1-1.13.57A1.55,1.55,0,0,1,413.67,64.36ZM423,68.23a.24.24,0,0,0-.26-.27h-1a.24.24,0,0,0-.26.27V72a.1.1,0,0,0,0,.09s.06,0,.11,0A6,6,0,0,0,423,68.23Zm-1.54,6.13v1.46a.24.24,0,0,0,.26.27h1s.06,0,.09-.08a.28.28,0,0,0,0-.13l-1.22-1.58c-.05,0-.08,0-.11,0A.1.1,0,0,0,421.41,74.36Zm11.4,6.19v-1q0-.27-.24-.27h-10.9a.24.24,0,0,0-.26.27v1c0,.16.09.24.26.24h10.9A.21.21,0,0,0,432.81,80.55Zm-9.32-4.61q-.15.15.09.15h9q.24,0,.24-.27V74.63a.21.21,0,0,0-.24-.24h-2a2.93,2.93,0,0,1-2.29-.71,4.69,4.69,0,0,1-.59-2.83V68.23a.24.24,0,0,0-.27-.27h-.6c-.18,0-.26.09-.26.27a11.94,11.94,0,0,1-.75,4.3A10.2,10.2,0,0,1,423.49,75.94Zm2.86-12.77V64.3c0,.18.08.27.23.27h1.08c.16,0,.23-.09.23-.27V63.17c0-.18-.07-.27-.23-.27h-1.08C426.43,62.9,426.35,63,426.35,63.17Zm5,5.06v1.52a2.6,2.6,0,0,0,.13,1.14c.09.11.39.17.91.17h.21q.24,0,.24-.27V68.23q0-.27-.24-.27h-1Q431.32,68,431.32,68.23Z"/><path class="cls-2" d="M441.35,82.6a1.56,1.56,0,0,1-.85-.93,1.5,1.5,0,0,1,.1-1.24,47.19,47.19,0,0,0,5-17.26,1.61,1.61,0,0,1,.59-1.15,1.73,1.73,0,0,1,1.22-.43l1.7.09a1.7,1.7,0,0,1,1.14.57,1.57,1.57,0,0,1,.43,1.19,49.48,49.48,0,0,1-5.35,19.14,1.71,1.71,0,0,1-1,.84,1.75,1.75,0,0,1-1.33-.07Zm22.5-16.9a4.45,4.45,0,1,1,1.31-3.16A4.32,4.32,0,0,1,463.85,65.7Zm-2.71,2.77a1.6,1.6,0,0,1,1.28.12,1.69,1.69,0,0,1,.86,1Q465,75,466.56,81.41a1.57,1.57,0,0,1-.23,1.24,1.59,1.59,0,0,1-1.05.73l-1.85.39a1.67,1.67,0,0,1-1.28-.24,1.69,1.69,0,0,1-.74-1.07q-1.31-5.74-3-11.43a1.57,1.57,0,0,1,.12-1.27,1.66,1.66,0,0,1,1-.82Zm.92-7.29a1.92,1.92,0,1,0,.57,1.36A1.84,1.84,0,0,0,462.06,61.18Z"/><path class="cls-2" d="M472.69,74.48a1.74,1.74,0,0,1-1.7-1.7V71.35a1.73,1.73,0,0,1,1.7-1.69h21.43a1.73,1.73,0,0,1,1.7,1.69v1.43a1.74,1.74,0,0,1-1.7,1.7Z"/><path class="cls-2" d="M506.32,84.48a1.64,1.64,0,0,1-1.19-.51,1.59,1.59,0,0,1-.5-1.19V61.35a1.63,1.63,0,0,1,.5-1.19,1.67,1.67,0,0,1,1.19-.5H508a1.57,1.57,0,0,1,1.17.5,1.67,1.67,0,0,1,.5,1.19V67.6a.3.3,0,0,0,.26.33q7,1.72,14.14,4.23a1.71,1.71,0,0,1,1.07,2.17l-.47,1.34a1.65,1.65,0,0,1-.84,1,1.59,1.59,0,0,1-1.25.09q-6.09-2.17-12.68-3.87c-.16,0-.23,0-.23.21v9.73a1.63,1.63,0,0,1-.5,1.19,1.55,1.55,0,0,1-1.17.51Z"/><path class="cls-2" d="M533.59,75.94a1.68,1.68,0,0,1-1.21-.49,1.87,1.87,0,0,1-.55-1.21l-.6-11.49a1.58,1.58,0,0,1,.45-1.19,1.53,1.53,0,0,1,1.16-.5h2.68a1.57,1.57,0,0,1,1.18.5,1.49,1.49,0,0,1,.43,1.19l-.57,11.49a1.69,1.69,0,0,1-.55,1.21,1.77,1.77,0,0,1-1.23.49Zm1.48,2.38a1.74,1.74,0,0,1,1.7,1.69v1.08a1.73,1.73,0,0,1-1.7,1.69h-1.78a1.73,1.73,0,0,1-1.7-1.69V80a1.74,1.74,0,0,1,1.7-1.69Z"/><path class="cls-2" d="M550.73,84l-.27-.59a1.28,1.28,0,0,1,0-1.19,1.37,1.37,0,0,1,.9-.78,47.16,47.16,0,0,0,8.19-3.06.1.1,0,0,0,.06-.09.05.05,0,0,0-.06-.06h-3.39q-.12,0-.18.15a1.22,1.22,0,0,1-.46.73,1.07,1.07,0,0,1-.82.22L553,79.18a1.57,1.57,0,0,1-1.4-1.81q.69-3.93,1-5.66a1.9,1.9,0,0,1,.66-1.17,1.85,1.85,0,0,1,1.25-.47h7c.16,0,.24-.08.24-.26v-.66q0-.27-.24-.27h-7.94a1.62,1.62,0,0,1-1.19-.49,1.56,1.56,0,0,1-.51-1.17V67a1.66,1.66,0,0,1,.18-.75c.08-.15.05-.26-.09-.32a1.49,1.49,0,0,1-.33-.27l-.47-.48a1.62,1.62,0,0,1-.49-1.17,1.64,1.64,0,0,1,.46-1.21,19.4,19.4,0,0,0,2.5-3.39,2.48,2.48,0,0,1,1-1,2.13,2.13,0,0,1,1.39-.24l1.4.24a.88.88,0,0,1,.64.44.93.93,0,0,1,.07.81q-.09.15.12.15h4.7a1.47,1.47,0,0,1,1.46,1.45.1.1,0,0,0,.06.09.06.06,0,0,0,.09,0,18.63,18.63,0,0,0,1.58-2,2.29,2.29,0,0,1,2.47-1.16l1.4.24a.85.85,0,0,1,.64.46.83.83,0,0,1,0,.79q-.09.15.09.15H576a1.66,1.66,0,0,1,1.19.49,1.58,1.58,0,0,1,.51,1.17v.27a1.74,1.74,0,0,1-1.7,1.7h-2.32q-.21,0-.15.21a.85.85,0,0,1,.06.19.85.85,0,0,0,.06.19,1.33,1.33,0,0,1,0,1.07q-.06.24.18.24h.68a1.68,1.68,0,0,1,1.19.49,1.58,1.58,0,0,1,.51,1.18v5a1.74,1.74,0,0,1-1.7,1.7h-7.77a.21.21,0,0,0-.24.23v.66q0,.27.24.27h9a1.64,1.64,0,0,1,1.19.49,1.48,1.48,0,0,1,.48,1.17,23,23,0,0,1-.54,5.33,3.61,3.61,0,0,1-1.38,2.26,5.67,5.67,0,0,1-2.81.54c-.66,0-1.52,0-2.59-.09a1.69,1.69,0,0,1-1.21-.55,1.86,1.86,0,0,1-.52-1.24v-.47a1.47,1.47,0,0,1,.46-1.15,1.41,1.41,0,0,1,1.18-.43l1.25.06a.78.78,0,0,0,.77-.36,6.29,6.29,0,0,0,.27-1.84q0-.27-.24-.27h-5.27q-.24,0-.24.27V83.8a1.71,1.71,0,0,1-1.69,1.69h-1.49a1.73,1.73,0,0,1-1.7-1.69V81.44a.14.14,0,0,0-.07-.13.09.09,0,0,0-.13,0A45.87,45.87,0,0,1,553.11,85a1.93,1.93,0,0,1-1.38,0A1.78,1.78,0,0,1,550.73,84Zm5-20.38c-.26.33-.67.82-1.22,1.45a.11.11,0,0,0,0,.14.13.13,0,0,0,.11.07h2.32a.13.13,0,0,0,.13-.09.23.23,0,0,0,0-.18l-.27-.69-.27-.7a.37.37,0,0,0-.38-.24A.52.52,0,0,0,555.7,63.65Zm1.19,11.16h4.49q.24,0,.24-.27v-.66a.21.21,0,0,0-.24-.23H557.1a.29.29,0,0,0-.3.26,1.78,1.78,0,0,1,0,.32c0,.15-.06.26-.08.34S556.71,74.81,556.89,74.81Zm4.49-9.5h3.22s.06,0,.06,0a.09.09,0,0,0-.06-.08,1.83,1.83,0,0,1-.48-.35l-1.28-1.25a.57.57,0,0,0-.41-.18h-1.22q-.24,0-.18.21a1.67,1.67,0,0,1,.07.19,1.35,1.35,0,0,0,.08.19,1.42,1.42,0,0,1,0,1.07C561.17,65.23,561.23,65.31,561.38,65.31Zm5.21-.36a2.79,2.79,0,0,1-.35.24.11.11,0,0,0,0,.08s0,0,.06,0h3.06a.15.15,0,0,0,.14-.09.23.23,0,0,0,0-.18l-.27-.69-.27-.7a.33.33,0,0,0-.35-.24h-.24a.61.61,0,0,0-.42.21A13,13,0,0,1,566.59,65Zm5,4.86v-.66c0-.18-.08-.27-.23-.27h-4.59q-.24,0-.24.27v.66c0,.18.08.26.24.26h4.59C571.48,70.07,571.56,70,571.56,69.81Z"/><path class="cls-2" d="M582.7,82.78a1.71,1.71,0,0,1-1.7-1.69V80.4a3.27,3.27,0,0,1,1.34-2.71,43.78,43.78,0,0,0,6.62-6,6.54,6.54,0,0,0,1.62-4c0-1.82-1-2.74-3-2.74A13.24,13.24,0,0,0,583,66a1.14,1.14,0,0,1-1.07-.12,1,1,0,0,1-.51-.92V63.68a2.29,2.29,0,0,1,.45-1.39,2.17,2.17,0,0,1,1.19-.82,20.69,20.69,0,0,1,5.21-.71,8.16,8.16,0,0,1,5.55,1.71,6,6,0,0,1,1.95,4.75,8.58,8.58,0,0,1-1.65,5,39.11,39.11,0,0,1-6.44,6.42.06.06,0,0,0,0,.06s0,0,0,0h6.51a1.57,1.57,0,0,1,1.18.5,1.66,1.66,0,0,1,.49,1.19v.69a1.66,1.66,0,0,1-.49,1.19,1.61,1.61,0,0,1-1.18.5Z"/><path class="cls-2" d="M600.64,76.44a1.51,1.51,0,0,1-1.51-1.66q.38-3.6.62-7.21a1.65,1.65,0,0,1,.55-1.19,1.81,1.81,0,0,1,1.24-.47h2.26q.24,0,.24-.27V63.29a.21.21,0,0,0-.24-.24h-2.74a1.74,1.74,0,0,1-1.7-1.7v-.5a1.58,1.58,0,0,1,.51-1.18,1.68,1.68,0,0,1,1.19-.49h5.57a1.7,1.7,0,0,1,1.19.49,1.61,1.61,0,0,1,.5,1.18V68a1.61,1.61,0,0,1-.5,1.18,1.7,1.7,0,0,1-1.19.49h-2.47a.24.24,0,0,0-.27.27l-.18,2.41c0,.2.07.29.21.29h2.59a1.6,1.6,0,0,1,1.17.5,1.47,1.47,0,0,1,.46,1.17l-.06,1.13a59.51,59.51,0,0,1-.58,6.79,6,6,0,0,1-.93,2.74,2.41,2.41,0,0,1-1.79.59c-.75,0-1.94,0-3.54-.09a1.83,1.83,0,0,1-1.76-1.75v-.63a1.43,1.43,0,0,1,.46-1.14,1.52,1.52,0,0,1,1.15-.44c.51,0,1,.06,1.61.06a.5.5,0,0,0,.53-.32,33.34,33.34,0,0,0,.39-4.53.21.21,0,0,0-.24-.24Zm16.43,9.23a1.64,1.64,0,0,1-1.19-.51,1.59,1.59,0,0,1-.5-1.19V82.1a.24.24,0,0,0-.27-.27h-5a1.62,1.62,0,0,1-1.19-.49,1.58,1.58,0,0,1-.51-1.18v-.5a1.74,1.74,0,0,1,1.7-1.7h5q.27,0,.27-.24V76.5c0-.15-.09-.24-.27-.24H611a1.61,1.61,0,0,1-1.19-.5,1.64,1.64,0,0,1-.51-1.19V64.06a1.13,1.13,0,0,1,.36-.85,1.21,1.21,0,0,1,.84-.34c.09,0,.12-.06.08-.18-.35-.87-.63-1.51-.83-1.93a1.54,1.54,0,0,1,.89-2.06l.45-.14a1.77,1.77,0,0,1,1.37.07,1.89,1.89,0,0,1,1,1c.46,1,.87,2,1.25,3a.33.33,0,0,0,.33.24h1a.18.18,0,0,0,.15-.07.17.17,0,0,0,0-.17c-.34-.83-.65-1.55-.92-2.17a1.45,1.45,0,0,1,0-1.22,1.41,1.41,0,0,1,.89-.83l.45-.15a1.72,1.72,0,0,1,1.35.07,1.91,1.91,0,0,1,1,1c.61,1.37,1.09,2.54,1.43,3.51a.05.05,0,0,0,.06.06q.09,0,.09-.06c.51-1,1-2.08,1.48-3.21a1.9,1.9,0,0,1,2.24-1.16l.74.18a1.32,1.32,0,0,1,1,.74,1.38,1.38,0,0,1,0,1.22c-.59,1.35-.9,2.05-.92,2.11s0,.18.09.18a1.19,1.19,0,0,1,.85.34,1.15,1.15,0,0,1,.34.85V74.57a1.64,1.64,0,0,1-.51,1.19,1.59,1.59,0,0,1-1.19.5h-4.25c-.18,0-.27.09-.27.24v1.22q0,.24.27.24h5a1.56,1.56,0,0,1,1.17.51,1.64,1.64,0,0,1,.49,1.19v.5a1.6,1.6,0,0,1-.49,1.18,1.58,1.58,0,0,1-1.17.49h-5a.24.24,0,0,0-.27.27V84a1.74,1.74,0,0,1-1.7,1.7ZM613.2,66.92V68a.24.24,0,0,0,.27.27h1.85c.18,0,.26-.09.26-.27V66.92c0-.18-.08-.27-.26-.27h-1.85A.24.24,0,0,0,613.2,66.92Zm2.12,6c.18,0,.26-.09.26-.27v-1.1c0-.18-.08-.27-.26-.27h-1.85a.24.24,0,0,0-.27.27v1.1a.24.24,0,0,0,.27.27Zm4.58-6V68a.24.24,0,0,0,.27.27H622a.24.24,0,0,0,.27-.27V66.92a.24.24,0,0,0-.27-.27h-1.84A.24.24,0,0,0,619.9,66.92Zm0,4.61v1.1a.24.24,0,0,0,.27.27H622a.24.24,0,0,0,.27-.27v-1.1a.24.24,0,0,0-.27-.27h-1.84A.24.24,0,0,0,619.9,71.53Z"/><path class="cls-2" d="M117.53,45.47a.83.83,0,0,1-.91.16,1,1,0,0,1-.61-.73,2.59,2.59,0,0,1,.9-2.53,35.79,35.79,0,0,0,3.57-3.6,2.94,2.94,0,0,1,2.32-1.07,3.49,3.49,0,0,1,2.47,1A32,32,0,0,0,127.92,41a2,2,0,0,1,.77,1.15,2.06,2.06,0,0,1-.12,1.38l-.29.6a.93.93,0,0,0-.06.39,1.33,1.33,0,0,1-1.34,1.34h-2.44c-.16,0-.24.07-.24.23v2.41a.21.21,0,0,0,.24.24h2.47a1.26,1.26,0,0,1,.92.39,1.25,1.25,0,0,1,.39.92,1.27,1.27,0,0,1-.39.93,1.29,1.29,0,0,1-.92.38h-2.47a.21.21,0,0,0-.24.24V59q0,.24.24.18l2.71-.66a1.07,1.07,0,0,1,.89.18,1.1,1.1,0,0,1,.47.81,1.56,1.56,0,0,1,0,.47.08.08,0,0,0,0,.11s.06,0,.1,0a12.1,12.1,0,0,0,5.72-8.27q.06-.24-.21-.24h-3.78a1.29,1.29,0,0,1-1-.4,1.4,1.4,0,0,1,0-1.94,1.33,1.33,0,0,1,1-.4h4a.24.24,0,0,0,.27-.27V43.83a.24.24,0,0,0-.27-.27h-1.67a.3.3,0,0,0-.33.24,29.72,29.72,0,0,1-1.19,3.34,1.18,1.18,0,0,1-.78.74,1.3,1.3,0,0,1-1.09-.12,1.62,1.62,0,0,1-.75-.86,1.48,1.48,0,0,1,0-1.13,37.53,37.53,0,0,0,2.06-6.67,1.52,1.52,0,0,1,.61-.89,1.24,1.24,0,0,1,1-.21,1.43,1.43,0,0,1,.93.58,1.28,1.28,0,0,1,.21,1c0,.14-.06.33-.11.56s-.08.39-.1.49,0,.23.18.23h1c.18,0,.27-.07.27-.23V38.89a1.54,1.54,0,0,1,.44-1.12,1.51,1.51,0,0,1,1.1-.46,1.56,1.56,0,0,1,1.12.46,1.52,1.52,0,0,1,.46,1.12v1.76c0,.16.08.23.24.23h3.54a1.27,1.27,0,0,1,.95.39,1.34,1.34,0,0,1-.95,2.29H138q-.24,0-.24.27v4.76a.24.24,0,0,0,.27.27h3.78a1.33,1.33,0,0,1,1,.4,1.4,1.4,0,0,1,0,1.94,1.29,1.29,0,0,1-1,.4h-3.6q-.3,0-.24.27a12,12,0,0,0,4.4,8.18,2.18,2.18,0,0,1,.75,1.05,1.91,1.91,0,0,1,0,1.25,1.27,1.27,0,0,1-.78.77,1,1,0,0,1-1-.15,15.26,15.26,0,0,1-5.12-6.91.13.13,0,0,0-.09-.07.08.08,0,0,0-.09,0,16.51,16.51,0,0,1-6.36,7,1.21,1.21,0,0,1-1.08.09,1.37,1.37,0,0,1-.8-.8,1.72,1.72,0,0,1,0-1.14.07.07,0,0,0,0-.1.11.11,0,0,0-.12,0,.25.25,0,0,0-.12,0l-.12.06c-3.49.94-6.67,1.66-9.55,2.18a1.29,1.29,0,0,1-1-.24,1.22,1.22,0,0,1-.52-.86,1.46,1.46,0,0,1,.28-1,1.35,1.35,0,0,1,.91-.55c1.41-.26,2.55-.48,3.43-.66a.3.3,0,0,0,.23-.32V51.63c0-.16-.09-.24-.26-.24h-3a1.31,1.31,0,0,1-1.31-1.31,1.33,1.33,0,0,1,1.31-1.31h3c.17,0,.26-.08.26-.24V46.12c0-.16-.09-.23-.26-.23h-1.64a.88.88,0,0,1-.66-.29,1,1,0,0,1-.26-.67.09.09,0,0,0,0-.06,0,0,0,0,0-.06,0A6.44,6.44,0,0,1,117.53,45.47Zm2.53,12.39a1.21,1.21,0,0,1-.74.56,1.1,1.1,0,0,1-.9-.15,1.24,1.24,0,0,1-.53-.75l-.81-3.3a1.2,1.2,0,0,1,.09-.91,1.09,1.09,0,0,1,.72-.55,1.14,1.14,0,0,1,.92.09,1.09,1.09,0,0,1,.57.71c.2.7.47,1.82.83,3.37A1.17,1.17,0,0,1,120.06,57.86Zm0-14.71s0,.06,0,.12.06.08.1.08h6.22a.09.09,0,0,0,.09-.05s0-.07,0-.09A39,39,0,0,1,123.1,40a.19.19,0,0,0-.33,0A34.72,34.72,0,0,1,120,43.15Zm5.84,10.21a1.12,1.12,0,0,1,.52-.73,1.17,1.17,0,0,1,.87-.17,1.13,1.13,0,0,1,.75.48,1,1,0,0,1,.15.86c-.36,1.49-.59,2.42-.69,2.8a1,1,0,0,1-.55.7,1.25,1.25,0,0,1-.91.1,1.11,1.11,0,0,1-.8-1.43Q125.39,55.33,125.87,53.36Z"/><path class="cls-2" d="M147.06,51.21a1.33,1.33,0,0,1-1-.37,1.27,1.27,0,0,1-.38-.94,1.33,1.33,0,0,1,.38-.95,1.3,1.3,0,0,1,1-.39h3.66a1.67,1.67,0,0,1,1.19.5,1.55,1.55,0,0,1,.51,1.17v7.32a.88.88,0,0,0,.14.48,5.09,5.09,0,0,0,1.86,1.83,9.76,9.76,0,0,0,3.32.89A52.53,52.53,0,0,0,164,61h7.06a1.22,1.22,0,0,1,.92.42,1.25,1.25,0,0,1,.36.95,1.3,1.3,0,0,1-.45.94,1.43,1.43,0,0,1-1,.37h-7.06a40.91,40.91,0,0,1-8.29-.62,7.8,7.8,0,0,1-4.24-2.23c-.12-.14-.23-.15-.35,0a28.57,28.57,0,0,1-3,2.53,1.3,1.3,0,0,1-1.93-.45,1.62,1.62,0,0,1-.15-1.18,1.69,1.69,0,0,1,.68-1,27.21,27.21,0,0,0,2.62-2.15.45.45,0,0,0,.15-.38V51.48q0-.27-.24-.27Zm1.69-12q1.38,1.43,3.07,3.3a1.26,1.26,0,0,1,.34,1,1.42,1.42,0,0,1-.46,1,1.3,1.3,0,0,1-1,.32,1.42,1.42,0,0,1-.95-.47q-1.05-1.14-3.13-3.28a1.36,1.36,0,0,1,.06-1.93,1.45,1.45,0,0,1,1.06-.36A1.48,1.48,0,0,1,148.75,39.19Zm15.66,3.57a.3.3,0,0,0-.33.24c-.12.59-.22,1-.3,1.31s0,.24.18.24h5.3a1.6,1.6,0,0,1,1.18.49,1.62,1.62,0,0,1,.49,1.17V57.43a1.66,1.66,0,0,1-.49,1.19,1.58,1.58,0,0,1-1.18.51H156.19a1.73,1.73,0,0,1-1.69-1.7V46.21A1.59,1.59,0,0,1,155,45a1.66,1.66,0,0,1,1.19-.49h3.93a.3.3,0,0,0,.33-.24c0-.16.1-.39.16-.69s.13-.51.17-.65,0-.21-.21-.21H154a1.26,1.26,0,0,1-.92-.39,1.23,1.23,0,0,1-.39-.92,1.25,1.25,0,0,1,.39-.92,1.26,1.26,0,0,1,.92-.39h3q.24,0,.12-.24a5.65,5.65,0,0,0-.3-.56l-.27-.45a1.11,1.11,0,0,1,.72-1.61,2,2,0,0,1,1.25.11,1.76,1.76,0,0,1,.92.82c.3.49.6,1.07.92,1.72a.35.35,0,0,0,.36.21h3.72a.45.45,0,0,0,.39-.24c.29-.53.57-1.06.83-1.57a2,2,0,0,1,.88-.91,1.81,1.81,0,0,1,1.23-.2,1.18,1.18,0,0,1,.84.63,1.07,1.07,0,0,1,0,1l-.29.54c-.13.23-.22.41-.28.53a.12.12,0,0,0,0,.14.14.14,0,0,0,.13.07h2.89a1.26,1.26,0,0,1,.92.39,1.25,1.25,0,0,1,.39.92,1.23,1.23,0,0,1-.39.92,1.26,1.26,0,0,1-.92.39Zm3.16,4.17H157.8q-.27,0-.27.24v1.27a.24.24,0,0,0,.27.27h9.77c.15,0,.23-.09.23-.27V47.17A.21.21,0,0,0,167.57,46.93Zm.23,5.53V51.09a.2.2,0,0,0-.23-.23H157.8c-.18,0-.27.07-.27.23v1.37q0,.24.27.24h9.77A.21.21,0,0,0,167.8,52.46Zm0,4.08v-1.4c0-.18-.08-.27-.23-.27H157.8a.24.24,0,0,0-.27.27v1.4a.24.24,0,0,0,.27.27h9.77C167.72,56.81,167.8,56.72,167.8,56.54Z"/><path class="cls-2" d="M183.91,57.88l4.76-4.76a.23.23,0,0,0,0-.36L183.91,48a1.41,1.41,0,0,1,1-2.41,1.39,1.39,0,0,1,1,.41l4.76,4.77a.22.22,0,0,0,.36,0L195.78,46a1.48,1.48,0,0,1,1-.41,1.34,1.34,0,0,1,1,.41,1.4,1.4,0,0,1,0,2L193,52.76a.22.22,0,0,0,0,.36l4.76,4.76a1.36,1.36,0,0,1,.42,1,1.34,1.34,0,0,1-.42,1,1.32,1.32,0,0,1-1,.42,1.45,1.45,0,0,1-1-.42L191,55.11a.23.23,0,0,0-.36,0l-4.76,4.76a1.36,1.36,0,0,1-1,.42,1.32,1.32,0,0,1-1-.42,1.34,1.34,0,0,1-.42-1A1.36,1.36,0,0,1,183.91,57.88Z"/><path class="cls-2" d="M212.57,50.05c-.74-.71-1.72-1.6-2.95-2.65a1.4,1.4,0,0,1-.49-.93,1.17,1.17,0,0,1,.31-1,1.43,1.43,0,0,1,1-.51,1.3,1.3,0,0,1,1,.33c1.21,1,2.21,1.87,3,2.62a1.4,1.4,0,0,1,.45,1,1.42,1.42,0,0,1-.36,1.05,1.37,1.37,0,0,1-1,.45A1.29,1.29,0,0,1,212.57,50.05Zm-2,13.13a1.67,1.67,0,0,1-.62-2.12,47.78,47.78,0,0,0,2.47-6.28,1.27,1.27,0,0,1,.7-.8,1.28,1.28,0,0,1,1,0,1.68,1.68,0,0,1,.85.77,1.46,1.46,0,0,1,.11,1.14,50.29,50.29,0,0,1-2.59,6.75,1.37,1.37,0,0,1-2,.57Zm-.15-22.65a1.26,1.26,0,0,1-.44-.91,1.21,1.21,0,0,1,.35-.94,1.55,1.55,0,0,1,1-.46,1.39,1.39,0,0,1,1,.34c.89.74,1.73,1.48,2.5,2.24a1.29,1.29,0,0,1,.43,1,1.3,1.3,0,0,1-.4,1,1.26,1.26,0,0,1-1,.42,1.36,1.36,0,0,1-1-.42C212.12,42,211.29,41.26,210.39,40.53Zm6.76.44a1.24,1.24,0,0,1-.92-.38,1.29,1.29,0,0,1,0-1.85,1.25,1.25,0,0,1,.92-.39H235.1a1.21,1.21,0,0,1,.91.39,1.34,1.34,0,0,1,0,1.85,1.2,1.2,0,0,1-.91.38H230q-.27,0-.27.24v2c0,.18.09.26.27.26h3.84a1.67,1.67,0,0,1,1.19.5,1.54,1.54,0,0,1,.5,1.17V62.43A1.5,1.5,0,0,1,234.06,64h-.36a1.15,1.15,0,0,1-.85-.34,1.11,1.11,0,0,1-.34-.82q0-.18-.15-.18H219.68a.16.16,0,0,0-.18.18,1.07,1.07,0,0,1-.34.83,1.14,1.14,0,0,1-.82.33H218a1.54,1.54,0,0,1-1.08-.44,1.44,1.44,0,0,1-.46-1.08V45.17a1.54,1.54,0,0,1,.5-1.17,1.67,1.67,0,0,1,1.19-.5h3.72c.16,0,.24-.08.24-.26v-2a.21.21,0,0,0-.24-.24Zm7.77,5.3a13.41,13.41,0,0,1-.67,4.47A8.06,8.06,0,0,1,222,53.89a1.42,1.42,0,0,1-1.19.4,1.75,1.75,0,0,1-1.16-.61s-.05,0-.1,0-.08.05-.08.09V55.2a.24.24,0,0,0,.27.27h12.5q.24,0,.24-.27V53.27q0-.27-.24-.27h-2.56a2.86,2.86,0,0,1-2.23-.64,4.69,4.69,0,0,1-.54-2.75V46.27q0-.24-.27-.24h-1.48Q224.92,46,224.92,46.27Zm-2.68,0A.21.21,0,0,0,222,46h-2.23q-.27,0-.27.24v5.84s0,.07.08.08a.1.1,0,0,0,.13,0,6.47,6.47,0,0,0,2-2.44A9.57,9.57,0,0,0,222.24,46.27Zm10.27,13.54V58.18q0-.27-.24-.27h-12.5a.24.24,0,0,0-.27.27v1.63a.24.24,0,0,0,.27.27h12.5Q232.51,60.08,232.51,59.81Zm-7.65-18.6v2c0,.18.09.26.27.26h1.63c.18,0,.27-.08.27-.26v-2q0-.24-.27-.24h-1.63Q224.86,41,224.86,41.21Zm4.76,5.06v2.35a3.47,3.47,0,0,0,.21,1.63c.14.16.55.25,1.22.25h1.22q.24,0,.24-.27v-4a.21.21,0,0,0-.24-.24h-2.38Q229.62,46,229.62,46.27Z"/><path class="cls-2" d="M242,62.91a1,1,0,0,1-.84.65,1.1,1.1,0,0,1-1-.35,2.39,2.39,0,0,1-.51-2.71,20.51,20.51,0,0,0,1.06-4.7,66.52,66.52,0,0,0,.31-7.33V45.71a1.66,1.66,0,0,1,.49-1.19,1.58,1.58,0,0,1,1.18-.51h13q.15,0,.15-.18a1.12,1.12,0,0,1,.35-.82,1.09,1.09,0,0,1,.82-.34h0a.1.1,0,0,0,.09,0s0-.07,0-.11a1.13,1.13,0,0,1-.35-.8q0-.15-.18-.15h-7.06a.18.18,0,0,0-.2.21,1.5,1.5,0,0,1-1.49,1.49h-.15a1.44,1.44,0,0,1-1.06-.44,1.41,1.41,0,0,1-.43-1q0-.21-.24-.21H241a1.21,1.21,0,0,1-.89-.39,1.21,1.21,0,0,1,0-1.78A1.21,1.21,0,0,1,241,39h4.88a.21.21,0,0,0,.24-.24v-.12a1.5,1.5,0,0,1,.45-1.1,1.49,1.49,0,0,1,1.1-.45,1.56,1.56,0,0,1,1.12.45,1.51,1.51,0,0,1,.46,1.1v.12a.21.21,0,0,0,.23.24h7a.21.21,0,0,0,.24-.24v-.12a1.53,1.53,0,0,1,.44-1.1,1.5,1.5,0,0,1,1.1-.45,1.55,1.55,0,0,1,1.12.45,1.47,1.47,0,0,1,.46,1.1v.12A.21.21,0,0,0,260,39h4.88a1.28,1.28,0,0,1,0,2.56H260q-.18,0-.18.15a1,1,0,0,1-.33.77,1,1,0,0,1-.77.33h-.3q-.18,0-.06.12a1.06,1.06,0,0,1,.42.89.16.16,0,0,0,.18.18h2.35a.13.13,0,0,0,.13-.08.09.09,0,0,0,0-.13.74.74,0,0,1-.12-.16.83.83,0,0,0-.12-.17,1,1,0,0,1-.16-.9,1,1,0,0,1,.58-.7,1.57,1.57,0,0,1,1.07-.11,1.48,1.48,0,0,1,.89.61c.1.14.26.36.46.66s.36.52.46.68l0,0v.06a.53.53,0,0,0,.36.21,1.1,1.1,0,0,1,.79.39,1.21,1.21,0,0,1,.31.83,1.21,1.21,0,0,1-1.22,1.22h-5.59q-.24,0-.24.27A39.44,39.44,0,0,0,260,54a.13.13,0,0,0,.09.07.07.07,0,0,0,.09,0,26.52,26.52,0,0,0,1.93-4.94,1.43,1.43,0,0,1,1.79-1,1.47,1.47,0,0,1,.89.73A1.36,1.36,0,0,1,265,50a27.53,27.53,0,0,1-3.51,7.53.41.41,0,0,0-.06.42,11.3,11.3,0,0,0,1.13,2c.36.48.62.72.77.72s.48-.87.72-2.62a1.18,1.18,0,0,1,.53-.89,1.22,1.22,0,0,1,1.05-.18,1.67,1.67,0,0,1,1,.65,1.52,1.52,0,0,1,.27,1.13,10.94,10.94,0,0,1-1.24,4.19,2.33,2.33,0,0,1-1.89,1.35,3.36,3.36,0,0,1-2.14-1,10.1,10.1,0,0,1-2.17-2.81c0-.06-.07-.09-.15-.11a.21.21,0,0,0-.18,0,20.45,20.45,0,0,1-3.75,3.12,1.52,1.52,0,0,1-1.12.23,1.66,1.66,0,0,1-1-.58,1.08,1.08,0,0,1-.26-1,1.23,1.23,0,0,1,.58-.84,0,0,0,0,0,0,0l.06,0s0-.08-.06-.12h-5.71q-.24,0-.24.21v0a1.44,1.44,0,0,1-.43,1,1.45,1.45,0,0,1-2.06,0,1.44,1.44,0,0,1-.43-1v-12a1.74,1.74,0,0,1,1.7-1.7h8.07a1.09,1.09,0,0,1,.8.33,1.08,1.08,0,0,1,.33.8,1,1,0,0,1-.33.79,1.12,1.12,0,0,1-.8.31h-1.37a.24.24,0,0,0-.27.27v1.13a.24.24,0,0,0,.27.27h.5a1.64,1.64,0,0,1,1.19.49,1.58,1.58,0,0,1,.51,1.18v2a1.58,1.58,0,0,1-.51,1.18,1.68,1.68,0,0,1-1.19.49h-.5a.24.24,0,0,0-.27.26v1.2a.24.24,0,0,0,.27.26h1.25a1.21,1.21,0,0,1,1.19,1c0,.11.11.14.23.06a21.21,21.21,0,0,0,2.12-2.12.46.46,0,0,0,.06-.45,37.89,37.89,0,0,1-2-10.47q0-.27-.3-.27H244.18q-.24,0-.24.27v3.84a47.83,47.83,0,0,1-.45,7.26A18.48,18.48,0,0,1,242,62.91Zm5.6-12.62v1.13a.24.24,0,0,0,.27.27h2a.24.24,0,0,0,.27-.27V50.29a.24.24,0,0,0-.27-.27h-2A.24.24,0,0,0,247.57,50.29Zm4.91,4.7V53.71a.24.24,0,0,0-.27-.27h-4.37a.24.24,0,0,0-.27.27V55a.24.24,0,0,0,.27.27h4.37A.24.24,0,0,0,252.48,55Zm-2.38,3.49v-1.2a.24.24,0,0,0-.27-.26h-2a.24.24,0,0,0-.27.26v1.2a.24.24,0,0,0,.27.26h2A.24.24,0,0,0,250.1,58.48Z"/><circle class="cls-2" cx="68.19" cy="50.92" r="30.42"/><path class="cls-3" d="M68.19,21.92a29,29,0,1,1-29,29,29,29,0,0,1,29-29m0-2.84A31.84,31.84,0,1,0,100,50.92,31.87,31.87,0,0,0,68.19,19.08Z"/><path class="cls-3" d="M66.89,39.29a3.51,3.51,0,0,1-.18-3.89L69,31.64a1,1,0,0,0-.82-1.46H56.67a1,1,0,0,0-.84.49,1,1,0,0,0,0,1L58.1,35.4a3.49,3.49,0,0,1-.19,3.89l-2.14,3.39a10.52,10.52,0,0,0-1.63,5.64v15.1a4,4,0,0,0,4,4h8.63a4,4,0,0,0,4-4V48.32A10.53,10.53,0,0,0,69,42.68Z"/><path class="cls-3" d="M73.77,56.42v1.86a6.8,6.8,0,0,0,3.56,6v2.07h6.51V64.27a6.81,6.81,0,0,0,3.57-6V56.42Z"/><path class="cls-2" d="M359.45,155.31a1.66,1.66,0,0,1-1.62-1.62V131.47a1.5,1.5,0,0,1,.48-1.12,1.6,1.6,0,0,1,1.14-.47h8.7a1.54,1.54,0,0,1,1.12.47,1.53,1.53,0,0,1,.47,1.12v8.36a1.58,1.58,0,0,1-.47,1.13,1.52,1.52,0,0,1-1.12.49H362.4c-.17,0-.26.08-.26.25v12a1.66,1.66,0,0,1-1.61,1.62Zm2.69-21.89v.77c0,.17.09.25.26.25h3.68c.17,0,.26-.08.26-.25v-.77c0-.17-.09-.25-.26-.25H362.4C362.23,133.17,362.14,133.25,362.14,133.42Zm0,4.09v.76a.23.23,0,0,0,.26.26h3.68a.23.23,0,0,0,.26-.26v-.76c0-.16-.09-.23-.26-.23H362.4C362.23,137.28,362.14,137.35,362.14,137.51Zm11.08,17.06a1.58,1.58,0,0,1-1.13-.47,1.5,1.5,0,0,1-.48-1.12V150c0-.15-.09-.22-.26-.22h-1.9a.26.26,0,0,0-.28.22,8.9,8.9,0,0,1-2.13,3.89,1.83,1.83,0,0,1-1.19.58,1.89,1.89,0,0,1-1.3-.33l-.37-.22a1.12,1.12,0,0,1-.55-.93,1.27,1.27,0,0,1,.38-1,6.68,6.68,0,0,0,1.42-2,.14.14,0,0,0,0-.15.22.22,0,0,0-.14-.05h-.62a1.35,1.35,0,1,1,0-2.7h1c.17,0,.26-.08.26-.25V145.7c0-.15-.09-.23-.26-.23H365a1.3,1.3,0,0,1-1-.41,1.38,1.38,0,0,1-.4-1,1.31,1.31,0,0,1,.4-1,1.29,1.29,0,0,1,1-.4h11a1.35,1.35,0,0,1,1.36,1.36,1.37,1.37,0,0,1-.39,1,1.32,1.32,0,0,1-1,.41h-.45a.21.21,0,0,0-.23.23v1.16c0,.17.08.25.23.25h.82a1.31,1.31,0,0,1,.94.39,1.27,1.27,0,0,1,.39.95,1.3,1.3,0,0,1-.39,1,1.28,1.28,0,0,1-.94.4h-.82c-.15,0-.23.07-.23.22v2a.07.07,0,0,0,.06.07.08.08,0,0,0,.09,0,1.33,1.33,0,0,1,1.21-.54c.33,0,.66,0,1,0a2.26,2.26,0,0,0,1.1-.14c.12-.09.17-.42.17-1V141.7a.22.22,0,0,0-.25-.25h-6a1.51,1.51,0,0,1-1.12-.49,1.58,1.58,0,0,1-.47-1.13v-8.36a1.6,1.6,0,0,1,1.59-1.59h9a1.58,1.58,0,0,1,1.13.47,1.5,1.5,0,0,1,.48,1.12v18.65c0,.87,0,1.55,0,2a6.21,6.21,0,0,1-.24,1.39,2.28,2.28,0,0,1-.47.93,2.22,2.22,0,0,1-.89.49,5.62,5.62,0,0,1-1.31.24c-.45,0-1.08,0-1.9,0q-.83,0-1.5,0a1.81,1.81,0,0,1-1.67-1.39.12.12,0,0,0-.07-.07.06.06,0,0,0-.07,0,1.56,1.56,0,0,1-1.39.77Zm-1.87-7.46c.17,0,.26-.08.26-.25V145.7c0-.15-.09-.23-.26-.23h-1.61a.21.21,0,0,0-.23.23v1.19c0,.15.08.22.23.22Zm3.09-13.69v.77c0,.17.09.25.26.25h4a.22.22,0,0,0,.25-.25v-.77a.22.22,0,0,0-.25-.25h-4C374.53,133.17,374.44,133.25,374.44,133.42Zm4.23,5.11c.17,0,.25-.09.25-.26v-.76c0-.16-.08-.23-.25-.23h-4c-.17,0-.26.07-.26.23v.76a.23.23,0,0,0,.26.26Z"/><path class="cls-2" d="M394.06,144.85l-.4-2.33a4.21,4.21,0,0,1,.6-2.92,29.9,29.9,0,0,0,3.2-8.67,1.55,1.55,0,0,1,.7-1,1.59,1.59,0,0,1,1.2-.26l1,.17a1.59,1.59,0,0,1,1,.68,1.57,1.57,0,0,1,.26,1.19,31.53,31.53,0,0,1-1.05,4,1.45,1.45,0,0,0-.09.48v8.28s0,0,.06,0a.12.12,0,0,0,.09,0,49.77,49.77,0,0,0,3-7.65c0-.12,0-.17-.14-.17a1.23,1.23,0,0,1-.88-.37,1.19,1.19,0,0,1-.37-.88v-3.54a1.56,1.56,0,0,1,.48-1.14,1.57,1.57,0,0,1,1.14-.48h.65a1.55,1.55,0,0,1,1.13.48,1.53,1.53,0,0,1,.49,1.14V133c0,.17.07.25.22.25h2.44c.15,0,.23-.08.23-.25v-2a1.66,1.66,0,0,1,1.61-1.62h1.19a1.51,1.51,0,0,1,1.12.49,1.54,1.54,0,0,1,.47,1.13v2c0,.17.09.25.26.25h2.41a.22.22,0,0,0,.25-.25v-1.19a1.64,1.64,0,0,1,1.62-1.62h.65a1.64,1.64,0,0,1,1.61,1.62V135a1.66,1.66,0,0,1-1.61,1.62h-5.53s0,0,0,.05l1.87.37a1.27,1.27,0,0,1,.8.55,1.1,1.1,0,0,1,.14.93c0,.09,0,.14.14.14h2.95a1.51,1.51,0,0,1,1.12.48,1.58,1.58,0,0,1,.47,1.13v.12a1.58,1.58,0,0,1-.47,1.13,1.51,1.51,0,0,1-1.12.48h-3.63a.21.21,0,0,0-.23.23v.68c0,.17.08.25.23.25h3.2a1.32,1.32,0,1,1,0,2.64h-3.2c-.15,0-.23.09-.23.26v.65c0,.17.08.25.23.25h3.2a1.27,1.27,0,0,1,.93.39,1.3,1.3,0,0,1,.38.95,1.33,1.33,0,0,1-.37.92,1.27,1.27,0,0,1-.94.38h-3.2c-.15,0-.23.08-.23.25v.68a.2.2,0,0,0,.23.23h3.91a1.5,1.5,0,0,1,1.12.48,1.59,1.59,0,0,1,.47,1.14v.31a1.58,1.58,0,0,1-.47,1.13,1.5,1.5,0,0,1-1.12.48h-12c-.09,0-.14.05-.14.15a.87.87,0,0,1-.28.66.92.92,0,0,1-.65.27h-2a1.53,1.53,0,0,1-1.13-.47,1.47,1.47,0,0,1-.49-1.12v-5.58a.33.33,0,0,0-.19-.34l-1.34-.65a1.42,1.42,0,0,1-.34-.23s-.05-.05-.1,0a.11.11,0,0,0-.07.09v6.72a1.57,1.57,0,0,1-.46,1.13,1.53,1.53,0,0,1-1.12.48h-1a1.64,1.64,0,0,1-1.61-1.61v-9.87s0-.06-.05-.06a.09.09,0,0,0-.07,0c-.24.4-.54.84-.88,1.31a.64.64,0,0,1-.73.25A.67.67,0,0,1,394.06,144.85Zm11-8.22s0,0,0,0a0,0,0,0,0,0,0l1.93.37a1.2,1.2,0,0,1,.77.54,1,1,0,0,1,.13.91c0,.13,0,.2.14.2h2.87a.29.29,0,0,0,.31-.23l.42-1.62c0-.15,0-.22-.2-.22Zm5.69,6.29v-.65c0-.17-.07-.26-.22-.26H407.3a.23.23,0,0,0-.26.26v.65c0,.17.09.25.26.25h3.23C410.68,143.17,410.75,143.09,410.75,142.92Zm0,3.8v-.65c0-.17-.07-.26-.22-.26H407.3a.23.23,0,0,0-.26.26v.65c0,.17.09.25.26.25h3.23C410.68,147,410.75,146.89,410.75,146.72Zm0,3.82v-.68c0-.17-.07-.25-.22-.25H407.3c-.17,0-.26.08-.26.25v.68c0,.16.09.23.26.23h3.23C410.68,150.77,410.75,150.7,410.75,150.54Z"/><path class="cls-2" d="M433.06,149a1.66,1.66,0,0,1-1.61-1.62V135.29a1.53,1.53,0,0,1,.48-1.12,1.57,1.57,0,0,1,1.13-.46h8.11c.15,0,.23-.09.23-.26v-2.63A1.64,1.64,0,0,1,443,129.2h1.42a1.55,1.55,0,0,1,1.13.48,1.53,1.53,0,0,1,.49,1.14v2.63c0,.17.07.26.22.26h8.11a1.53,1.53,0,0,1,1.12.46,1.56,1.56,0,0,1,.47,1.12v12.08a1.56,1.56,0,0,1-.47,1.13,1.49,1.49,0,0,1-1.12.49H453a1.23,1.23,0,0,1-.92-.39,1.26,1.26,0,0,1-.38-.95c0-.11-.07-.17-.2-.17h-5.25c-.15,0-.22.08-.22.23v6.35a1.52,1.52,0,0,1-.49,1.13,1.56,1.56,0,0,1-1.13.49H443a1.66,1.66,0,0,1-1.61-1.62v-6.35a.21.21,0,0,0-.23-.23h-5.24c-.14,0-.2.06-.2.17a1.27,1.27,0,0,1-.39.95,1.23,1.23,0,0,1-.92.39Zm2.67-11.26v5.81c0,.17.08.26.25.26h5.19c.15,0,.23-.09.23-.26v-5.81c0-.15-.08-.22-.23-.22H436C435.81,137.51,435.73,137.58,435.73,137.73Zm15.73-.22h-5.19a.19.19,0,0,0-.22.22v5.81c0,.17.07.26.22.26h5.19a.23.23,0,0,0,.26-.26v-5.81C451.72,137.58,451.63,137.51,451.46,137.51Z"/><line class="cls-4" x1="342.11" y1="144.9" x2="342.11" y2="144.9"/><line class="cls-5" x1="333.61" y1="144.9" x2="6.38" y2="144.9"/><line class="cls-4" x1="2.13" y1="144.9" x2="2.13" y2="144.9"/><line class="cls-4" x1="812.13" y1="144.9" x2="812.13" y2="144.9"/><line class="cls-5" x1="803.63" y1="144.9" x2="476.39" y2="144.9"/><line class="cls-4" x1="472.14" y1="144.9" x2="472.14" y2="144.9"/></g></g></svg>