<svg xmlns="http://www.w3.org/2000/svg" viewBox="0 0 810 63.67"><defs><style>.cls-1{fill:none;stroke:#a674b0;stroke-miterlimit:10;stroke-width:2.83px;}.cls-2{fill:#a674b0;}.cls-3{fill:#fff;}</style></defs><g id="レイヤー_2" data-name="レイヤー 2"><g id="base"><line class="cls-1" x1="810" y1="4.83" y2="4.83"/><line class="cls-1" x1="810" y1="58.83" y2="58.83"/><path class="cls-2" d="M360.09,31.49q-4.81-1.53-7-3.81A7.81,7.81,0,0,1,351,22.11a7,7,0,0,1,2.5-5.68q2.5-2.09,7.18-2.09a23.57,23.57,0,0,1,6.39.81,2.62,2.62,0,0,1,1.47,1.09,3.18,3.18,0,0,1,.56,1.82v1.11a1.33,1.33,0,0,1-.65,1.18,1.48,1.48,0,0,1-1.38.15,18.27,18.27,0,0,0-6-1.14q-3.53,0-3.52,2.75,0,2.34,3.06,3.33,5.28,1.61,7.33,3.75A7.84,7.84,0,0,1,370,34.82Q370,43,359.6,43a16.4,16.4,0,0,1-6-1,2.78,2.78,0,0,1-1.44-1.2,3.69,3.69,0,0,1-.52-1.9V37.69a1.28,1.28,0,0,1,1.84-1.11,12.71,12.71,0,0,0,5.7,1.37,5.13,5.13,0,0,0,3.08-.78,2.63,2.63,0,0,0,1.06-2.24,3,3,0,0,0-.73-2.06A5.74,5.74,0,0,0,360.09,31.49Z"/><path class="cls-2" d="M376.62,51.08a2.13,2.13,0,0,1-1.53-.65,2.1,2.1,0,0,1-.65-1.53v-24a2.22,2.22,0,0,1,2.18-2.18h1.54a2.15,2.15,0,0,1,1.56.63,2.19,2.19,0,0,1,.69,1.55v.31s0,0,0,0l.08-.08a7.51,7.51,0,0,1,5.89-2.83,6.86,6.86,0,0,1,5.68,2.68c1.42,1.78,2.13,4.34,2.13,7.65a11.87,11.87,0,0,1-2.2,7.58A6.87,6.87,0,0,1,386.42,43a8,8,0,0,1-5.66-2.33s-.05,0-.08,0a0,0,0,0,0,0,0V48.9a2.22,2.22,0,0,1-2.18,2.18Zm3.87-20.74v4.74a3.08,3.08,0,0,0,1.17,2.32,3.84,3.84,0,0,0,2.66,1.05A3.28,3.28,0,0,0,387.11,37a7.37,7.37,0,0,0,1-4.31c0-3.82-1.27-5.74-3.82-5.74A3.84,3.84,0,0,0,381.66,28,3.11,3.11,0,0,0,380.49,30.34Z"/><path class="cls-2" d="M414.2,40.33a11.42,11.42,0,0,1-14.77,0q-2.64-2.71-2.64-7.62t2.64-7.61a11.39,11.39,0,0,1,14.77,0q2.64,2.71,2.64,7.61T414.2,40.33Zm-4.53-12.21a3.57,3.57,0,0,0-5.7,0,8.5,8.5,0,0,0-.94,4.59A8.5,8.5,0,0,0,404,37.3a3.57,3.57,0,0,0,5.7,0,8.6,8.6,0,0,0,.94-4.59A8.6,8.6,0,0,0,409.67,28.12Z"/><path class="cls-2" d="M421.78,27.85a2.12,2.12,0,0,1-1.53-.63,2,2,0,0,1-.65-1.51,2.1,2.1,0,0,1,.65-1.53,2.06,2.06,0,0,1,1.53-.65h1.53c.2,0,.31-.12.31-.35V18.44a2.22,2.22,0,0,1,2.18-2.18h1.83a2.22,2.22,0,0,1,2.19,2.18v4.74a.31.31,0,0,0,.34.35h3.75a2,2,0,0,1,1.51.65,2.12,2.12,0,0,1,.63,1.53,2.15,2.15,0,0,1-2.14,2.14h-3.75a.31.31,0,0,0-.34.35v6.54a6.44,6.44,0,0,0,.44,3.06c.29.44.95.65,2,.65a8.41,8.41,0,0,0,1.26-.07,1.92,1.92,0,0,1,1.49.38,1.54,1.54,0,0,1,.65,1.3v.31a2.52,2.52,0,0,1-.61,1.68,2.38,2.38,0,0,1-1.57.84,22.21,22.21,0,0,1-2.75.15q-3.92,0-5.49-1.66t-1.59-6V28.2c0-.23-.11-.35-.31-.35Z"/><path class="cls-2" d="M442.71,20.12a2.06,2.06,0,0,1-1.53-.65,2.1,2.1,0,0,1-.65-1.53v-1a2.1,2.1,0,0,1,.65-1.53,2.06,2.06,0,0,1,1.53-.65h17.07a2.06,2.06,0,0,1,1.53.65,2.1,2.1,0,0,1,.65,1.53v1a2.1,2.1,0,0,1-.65,1.53,2.06,2.06,0,0,1-1.53.65h-4.9a.28.28,0,0,0-.31.31v20a2.22,2.22,0,0,1-2.18,2.18H450.1a2.22,2.22,0,0,1-2.18-2.18v-20a.28.28,0,0,0-.31-.31Z"/><path class="cls-2" d="M482.51,40.33a11.42,11.42,0,0,1-14.77,0q-2.64-2.71-2.64-7.62t2.64-7.61a11.39,11.39,0,0,1,14.77,0q2.64,2.71,2.64,7.61T482.51,40.33ZM478,28.12a3.57,3.57,0,0,0-5.7,0,8.6,8.6,0,0,0-.94,4.59,8.6,8.6,0,0,0,.94,4.59,3.57,3.57,0,0,0,5.7,0,8.5,8.5,0,0,0,.94-4.59A8.5,8.5,0,0,0,478,28.12Z"/><path class="cls-2" d="M495.06,43q-3.36,0-4.88-1.87t-1.51-6.43v-9.8a2.13,2.13,0,0,1,.65-1.53,2.1,2.1,0,0,1,1.53-.65h1.69a2.22,2.22,0,0,1,2.18,2.18v9.38a5.49,5.49,0,0,0,.59,3,2.36,2.36,0,0,0,2.05.82,3.42,3.42,0,0,0,2.45-1.09,3.25,3.25,0,0,0,1.11-2.35v-9.8a2.22,2.22,0,0,1,2.18-2.18h1.83a2.24,2.24,0,0,1,2.19,2.18V40.48a2.24,2.24,0,0,1-2.19,2.18h-1.56a2.1,2.1,0,0,1-1.55-.63,2.19,2.19,0,0,1-.67-1.55v-.31s0,0,0,0l-.08.07A7.68,7.68,0,0,1,495.06,43Z"/><path class="cls-2" d="M514.31,42.66A2,2,0,0,1,512.8,42a2.12,2.12,0,0,1-.63-1.53V24.94a2.15,2.15,0,0,1,.63-1.53,2,2,0,0,1,1.51-.65h1.87a2.06,2.06,0,0,1,1.52.65,2.15,2.15,0,0,1,.63,1.53v1.61s0,0,0,0,.07,0,.07,0a9.34,9.34,0,0,1,6.62-3.71,1.69,1.69,0,0,1,1.51.53,2.16,2.16,0,0,1,.64,1.57v.31a2.09,2.09,0,0,1-.64,1.53,2.32,2.32,0,0,1-1.55.73,7.6,7.6,0,0,0-4.8,2.12,6.43,6.43,0,0,0-1.7,4.61v6.24a2.12,2.12,0,0,1-.63,1.53,2,2,0,0,1-1.51.65Z"/><circle class="cls-2" cx="310.03" cy="31.83" r="30.42"/><path class="cls-3" d="M310,2.83a29,29,0,1,1-29,29,29,29,0,0,1,29-29M310,0a31.84,31.84,0,1,0,31.84,31.83A31.87,31.87,0,0,0,310,0Z"/><circle class="cls-3" cx="305.57" cy="21.92" r="3.75"/><circle class="cls-3" cx="314.5" cy="21.92" r="3.75"/><circle class="cls-3" cx="305.57" cy="30.79" r="3.75"/><circle class="cls-3" cx="314.5" cy="30.79" r="3.75"/><circle class="cls-3" cx="305.57" cy="39.66" r="3.75"/><circle class="cls-3" cx="314.5" cy="39.66" r="3.75"/><path class="cls-3" d="M319.53,10.18h-19a3.12,3.12,0,0,0-3.11,3.11V50.38a3.12,3.12,0,0,0,3.11,3.11h19a3.11,3.11,0,0,0,3.1-3.11V13.29A3.11,3.11,0,0,0,319.53,10.18ZM310,51.51a1.41,1.41,0,1,1,1.41-1.4A1.4,1.4,0,0,1,310,51.51Zm10.67-4.75H299.37V15.49H320.7Z"/><line class="cls-3" x1="308.15" y1="13.02" x2="311.92" y2="13.02"/><path class="cls-2" d="M311.92,13.5h-3.77a.49.49,0,0,1-.48-.48.48.48,0,0,1,.48-.48h3.77a.48.48,0,0,1,.48.48A.49.49,0,0,1,311.92,13.5Z"/></g></g></svg>