<svg xmlns="http://www.w3.org/2000/svg" xmlns:xlink="http://www.w3.org/1999/xlink" viewBox="0 0 115.19 112.67"><defs><style>.cls-1{fill:#f6d1af;}.cls-2{fill:#f7d9be;}.cls-3,.cls-31{fill:#008027;}.cls-3,.cls-30,.cls-34{stroke:#008027;}.cls-10,.cls-11,.cls-13,.cls-17,.cls-22,.cls-26,.cls-29,.cls-3,.cls-30,.cls-34,.cls-40,.cls-44,.cls-46,.cls-50,.cls-7{stroke-linecap:round;stroke-linejoin:round;}.cls-29,.cls-3,.cls-30,.cls-34{stroke-width:0.82px;}.cls-4{fill:#954e92;}.cls-5{isolation:isolate;}.cls-6{fill:#003f80;}.cls-10,.cls-11,.cls-13,.cls-17,.cls-18,.cls-22,.cls-26,.cls-34,.cls-40,.cls-41,.cls-43,.cls-44,.cls-46,.cls-50,.cls-7{fill:none;}.cls-7{stroke:#002f63;}.cls-11,.cls-13,.cls-17,.cls-22,.cls-26,.cls-44,.cls-46,.cls-50,.cls-7{stroke-width:1.11px;}.cls-8{fill:#002f63;}.cls-9{fill:#df4a2d;}.cls-10,.cls-11{stroke:#b4000d;}.cls-10,.cls-40{stroke-width:1.49px;}.cls-12{clip-path:url(#clip-path);}.cls-13{stroke:#f1b484;}.cls-14{fill:#00984d;}.cls-15{fill:#b7c6e5;}.cls-16{fill:#0053a4;}.cls-17{stroke:#003f80;}.cls-18{stroke:#767676;}.cls-18,.cls-41,.cls-43{stroke-width:2.62px;}.cls-19,.cls-29,.cls-39{fill:#1a1311;}.cls-20{fill:#d0d1d1;}.cls-21{fill:#2b70b7;}.cls-22{stroke:#255f9a;}.cls-23{clip-path:url(#clip-path-2);}.cls-24{fill:#f3c0a8;}.cls-25{fill:#816928;}.cls-26{stroke:#00853a;}.cls-27{clip-path:url(#clip-path-3);}.cls-28{fill:#f2f2f2;}.cls-29{stroke:#1a1311;}.cls-29,.cls-33,.cls-39{mix-blend-mode:multiply;}.cls-29,.cls-33{opacity:0.2;}.cls-30{fill:#007723;}.cls-32{clip-path:url(#clip-path-4);}.cls-35{fill:#fff;}.cls-36{fill:#5cad51;}.cls-37{fill:#534115;}.cls-38{clip-path:url(#clip-path-5);}.cls-39{opacity:0.1;}.cls-40{stroke:#e7e7e8;}.cls-41{stroke:#bc953f;}.cls-42{fill:#cca144;}.cls-43{stroke:#cca144;}.cls-44{stroke:#755c23;}.cls-45{clip-path:url(#clip-path-6);}.cls-46{stroke:#f4cfe0;}.cls-47{fill:#f4cfe0;}.cls-48{fill:#f6dbe8;}.cls-49{fill:#533700;}.cls-50{stroke:#d80011;}</style><clipPath id="clip-path"><path class="cls-1" d="M89.8,56,93.6,53S96.27,56.3,97.78,57c1.49-.21,3.47-.66,3.58.59s-2.78,1.13-2.78,1.13c1.29,1,3.3,3.45,1.39,5.67s-7.09.61-6.89-4.49Z"/></clipPath><clipPath id="clip-path-2"><path class="cls-1" d="M59.3,51.35l3.46,3.43s-3,3-3.6,4.61c.37,1.45,1.05,3.37-.18,3.62s-1.44-2.63-1.44-2.63c-.88,1.39-2.49,3.09-4.92,1.45s-1.95-6.42,3.13-6.78Z"/></clipPath><clipPath id="clip-path-3"><path class="cls-2" d="M62,60l3.63-2.93s2.56,3.21,4,3.93c1.43-.2,3.32-.64,3.43.56s-2.66,1.09-2.66,1.09c1.23,1,3.16,3.3,1.33,5.43s-6.8.58-6.6-4.3Z"/></clipPath><clipPath id="clip-path-4"><polygon class="cls-3" points="55.92 60.19 59.44 70.15 72.62 64.01 69.1 54.05 55.92 60.19"/></clipPath><clipPath id="clip-path-5"><path class="cls-4" d="M58.87,57.24S69.66,87.2,75.34,91c-4.2-.35-12.76-2.6-14-.53a6.12,6.12,0,0,1-8.9,1.38c-3.71-2.76-8.9-1-11.12.35S25.69,92.43,24,90C28.91,86.2,41.33,75.25,41.83,70.4s-.74-9.35,2-15.24Z"/></clipPath><clipPath id="clip-path-6"><path class="cls-2" d="M32.78,55.57l3.32,3.29s-2.9,2.9-3.45,4.41c.35,1.4,1,3.24-.18,3.48s-1.38-2.52-1.38-2.52c-.84,1.33-2.92,3.5-5.25,1.92s-1.33-6.69,3.54-7Z"/></clipPath></defs><g class="cls-5"><g id="レイヤー_2" data-name="レイヤー 2"><g id="base"><path class="cls-6" d="M91,85.88l4.54-3.47s9.21,16.13,9.37,16.09c1.24.41,1.39.75,4.35.12,1.5-.32,6.15-2.55,5.9,2.38-.26,2.06-5.33,4.56-8.79,5.28a6.91,6.91,0,0,1-2.26.16C102,106.1,101,102.1,101,102.1Z"/><path class="cls-7" d="M111.66,98.4c-.89,2.33-5.73,3.66-8.32,1.77"/><line class="cls-7" x1="109.68" y1="98.92" x2="110.06" y2="100.74"/><line class="cls-7" x1="107.91" y1="99.13" x2="108.2" y2="101.38"/><line class="cls-7" x1="105.85" y1="99.08" x2="106.16" y2="101.88"/><polygon class="cls-8" points="104.28 101.77 103.99 102.68 103.03 102.68 103.8 103.24 103.51 104.14 104.28 103.58 105.05 104.14 104.75 103.24 105.52 102.68 104.57 102.68 104.28 101.77"/><path class="cls-6" d="M64.89,81.2l4.43,3.62S55.76,97.51,55.83,97.65c-.1,1.31-.4,1.53.9,4.26.66,1.39,3.9,5.4-.95,6.29-2.07.23-5.67-4.13-7.18-7.33a6.76,6.76,0,0,1-.67-2.16c-.16-2.14,3.49-4.07,3.49-4.07Z"/><path class="cls-7" d="M57.49,104.18c-2.47-.33-4.89-4.73-3.65-7.69"/><line class="cls-7" x1="56.53" y1="102.37" x2="54.84" y2="103.16"/><line class="cls-7" x1="55.91" y1="100.7" x2="53.79" y2="101.5"/><line class="cls-7" x1="55.49" y1="98.69" x2="52.83" y2="99.63"/><polygon class="cls-8" points="52.5 97.78 51.55 97.7 51.33 96.78 50.96 97.66 50.02 97.58 50.74 98.2 50.37 99.08 51.19 98.58 51.91 99.2 51.69 98.27 52.5 97.78"/><path class="cls-9" d="M77.4,21.75c-5,.67-8.28,2-10.26,4.3S55.72,53.19,56.71,57.17s10.6,5.62,13.58,4.46C70.94,53.19,77.4,21.75,77.4,21.75Z"/><path class="cls-10" d="M73.92,22.91c-2.48,1.65-8.44,8.77-10.75,18.37"/><path class="cls-11" d="M69,47.07s-3.31,7.45-3.14,10.43S67,61.3,67,61.3"/><path class="cls-1" d="M89.8,56,93.6,53S96.27,56.3,97.78,57c1.49-.21,3.47-.66,3.58.59s-2.78,1.13-2.78,1.13c1.29,1,3.3,3.45,1.39,5.67s-7.09.61-6.89-4.49Z"/><g class="cls-12"><path class="cls-13" d="M95.83,62.81a5.1,5.1,0,0,1,2,3.11"/><path class="cls-13" d="M98.62,60.88A5.94,5.94,0,0,1,101,64.24"/><path class="cls-13" d="M97.26,61.94a5.94,5.94,0,0,1,2.36,3.37"/></g><path class="cls-14" d="M77.31,24.81c6.41-2.5,13.43,19.15,19.5,30-1,1-3.6,3.56-6.16,4C90.65,58.89,72.88,26.53,77.31,24.81Z"/><path class="cls-15" d="M54.37,89.61l-3.51,3.66a15.08,15.08,0,0,0,5.84,6.19l3.78-4.07C58.21,94.43,55.7,91.4,54.37,89.61Z"/><path class="cls-16" d="M80.86,65.3s-2.59-7.47-9.42-10.07c.66,4.33-7.14,24-7.14,24L54.37,89.61c1.33,1.79,3.84,4.82,6.11,5.78L74.69,80.13Z"/><path class="cls-16" d="M85.84,60,68.62,57.5c-.49,4.83,7.95,11.08,7.95,11.08S90.8,88.76,97,97.9A27.07,27.07,0,0,0,105.09,94C99.31,83.73,85.84,60,85.84,60Z"/><path class="cls-15" d="M108.52,97.71c-.28-.52-2.14-1.43-3.43-3.73A27.07,27.07,0,0,1,97,97.9c1.16,2.29,1.85,4,2.07,4.44C99.09,102.34,106.79,99.15,108.52,97.71Z"/><path class="cls-17" d="M78.37,71.15l-1.8-2.57s-8.44-6.25-7.95-11.08l1.3.19"/><path class="cls-14" d="M84.17,21.88a10.13,10.13,0,0,1,2.66,4.33A67.08,67.08,0,0,1,88.75,39c0,2.38-.78,19.61.56,21.34-3.81,1.09-16.21,1.29-21.55-3,.95-3.47,3.25-6,3-10.72C70.65,42.4,74,27.85,76.93,22.2c.42-.81,1.69-1.44,2.08-1.83Z"/><polyline class="cls-18" points="50.23 75.98 57.06 61.47 49.66 58.88 38.36 69.78"/><path class="cls-19" d="M21.91,103.08a2.6,2.6,0,1,0,3.14-1.91A2.61,2.61,0,0,0,21.91,103.08Z"/><path class="cls-20" d="M23.24,103.41a1.22,1.22,0,1,0,1.48-.9A1.23,1.23,0,0,0,23.24,103.41Z"/><path class="cls-19" d="M35.78,109.46a2.6,2.6,0,1,0,3.14-1.92A2.6,2.6,0,0,0,35.78,109.46Z"/><path class="cls-20" d="M37.12,109.78a1.22,1.22,0,1,0,1.48-.9A1.22,1.22,0,0,0,37.12,109.78Z"/><path class="cls-21" d="M19,97.26a3.65,3.65,0,0,0,1.94,4.6l18.28,7.94a3.43,3.43,0,0,0,4.53-1.8L55.34,80.87a3.79,3.79,0,0,0-1.86-5L33.94,67.47a3.56,3.56,0,0,0-4.71,2.2Z"/><line class="cls-22" x1="48.78" y1="75.47" x2="35.95" y2="107.45"/><path class="cls-1" d="M59.3,51.35l3.46,3.43s-3,3-3.6,4.61c.37,1.45,1.05,3.37-.18,3.62s-1.44-2.63-1.44-2.63c-.88,1.39-2.49,3.09-4.92,1.45s-1.95-6.42,3.13-6.78Z"/><g class="cls-23"><path class="cls-13" d="M55.42,59.87s-.82.43-1.16,2.75"/><path class="cls-13" d="M52.44,58.24a4.34,4.34,0,0,0-1.43,3"/><path class="cls-13" d="M53.91,59.16s-1.1.71-1.44,3"/></g><path class="cls-14" d="M79.88,25c-2.11-2.79-3.72-3.37-6.2-.55-5.28,6-12,21.84-17.41,28.32C57,54,59.11,57,61.54,57.94,61.54,57.94,82.74,28.82,79.88,25Z"/><path class="cls-19" d="M69.79,50.88c6.78-7,14.7-18.35,9.59-29.95l-3.47,1.49c2.65,3.47,1,14.71-5.13,22.5Z"/><path class="cls-2" d="M73.57,9.33a11.62,11.62,0,0,0,8.71,13.92c6.23,1.4,12.46-1.46,13.85-8.85C97.3,8.06,93.63,1.87,87.41.48A11.62,11.62,0,0,0,73.57,9.33Z"/><path class="cls-19" d="M91.42,14.19a.68.68,0,0,0,1.33.3.69.69,0,0,0-.52-.82A.68.68,0,0,0,91.42,14.19Z"/><path class="cls-19" d="M83.49,12.67a.67.67,0,0,1-.81.51.68.68,0,0,1-.52-.81.69.69,0,0,1,.82-.52A.68.68,0,0,1,83.49,12.67Z"/><path class="cls-13" d="M88.75,16.17c.38-1.59-1.25-2.12-2-.77"/><path class="cls-24" d="M91.26,17.35a1.55,1.55,0,0,0,1.17,1.84,1.54,1.54,0,0,0,.68-3A1.56,1.56,0,0,0,91.26,17.35Z"/><path class="cls-24" d="M80.35,14.63a1.54,1.54,0,1,1-1.16-1.84A1.54,1.54,0,0,1,80.35,14.63Z"/><path class="cls-25" d="M72.57,8.08C73,6.38,76.82-2.08,87.41.48c9.07,2.18,9.4,9.8,9.09,11.54-.37,2.13-.23,2.06-.23,2.06a33.94,33.94,0,0,0-2.2-5.39L79.28,3.05c-1.39.84-5.47,7.55-5.47,7.55A1.87,1.87,0,0,1,72.57,8.08Z"/><path class="cls-2" d="M75.52,9.43c-.18-2.27-3.14-2.1-4,.49s1.74,5.26,3.71,5.15Z"/><path class="cls-13" d="M74.28,9.32c-1.59-.36-2.64,2.38-.41,3.75"/><path class="cls-25" d="M85.86,1.83c-3,5.28-8.45,3.46-10.44,11-1.18-1.73-.13-8.09-.13-8.09l5.65-3Z"/><path class="cls-25" d="M95.77,9.33c-1.53,1.42-11,.75-13.24.66,1-.1,3.8-2.82,3.8-2.82l-9.2,3.18,3.13-5.14,3.4-2.06,5.55.92Z"/><path class="cls-9" d="M80.88,16.62c2.21.68,6.46,2.82,8.06,3.13C85.85,23.24,81.49,22.57,80.88,16.62Z"/><path class="cls-26" d="M88.32,38.12s-.25,16.38.25,17.62"/><path class="cls-2" d="M62,60l3.63-2.93s2.56,3.21,4,3.93c1.43-.2,3.32-.64,3.43.56s-2.66,1.09-2.66,1.09c1.23,1,3.16,3.3,1.33,5.43s-6.8.58-6.6-4.3Z"/><g class="cls-27"><path class="cls-13" d="M67.79,66.55a4.92,4.92,0,0,1,2,3"/><path class="cls-13" d="M70.46,64.7a5.74,5.74,0,0,1,2.27,3.23"/><path class="cls-13" d="M69.16,65.72A5.74,5.74,0,0,1,71.43,69"/></g><path class="cls-28" d="M50,30.13c6.15-2.4,12.87,18.36,18.69,28.79-1,1-3.45,3.42-5.91,3.88C62.82,62.8,45.8,31.79,50,30.13Z"/><polygon class="cls-3" points="56.48 60.43 60 70.39 73.18 64.24 69.66 54.28 56.48 60.43"/><polygon class="cls-29" points="56.48 60.43 60 70.39 73.18 64.24 69.66 54.28 56.48 60.43"/><polygon class="cls-28" points="69.06 54.09 56.98 60.44 60.36 70.03 73.05 64.11 69.66 54.53 69.06 54.09"/><polygon class="cls-30" points="59.44 70.15 60 70.39 73.18 64.24 72.62 64.01 59.44 70.15"/><polygon class="cls-31" points="55.92 60.19 59.44 70.15 72.62 64.01 69.1 54.05 55.92 60.19"/><g class="cls-32"><polygon class="cls-33" points="59.29 69.34 72.2 62.84 72.62 64.01 59.65 70.06 59.29 69.34"/></g><polygon class="cls-34" points="55.92 60.19 59.44 70.15 72.62 64.01 69.1 54.05 55.92 60.19"/><path class="cls-35" d="M67.64,57.57c1.35.26,1.2,2.72.68,3.54-.35.56-1,.83-1.28,1.46s.06,1.21-.08,1.78c-.64,2.48-1.84.33-3.42,1-1.07.42-1,3-2.66,1.59s-.62-3.27.36-4.44c.48-.57.73-.68.88-1.41.12-.54-.18-1.21,0-1.81.38-1.34,1.66-1.55,2.61-2.43.51-.47.12-.82.91-.67.37.07,1.06,1,1.34,1.31.38-.33.36,0,.67.12"/><path class="cls-36" d="M64.89,63.39l1.57-.54L64.75,63l-.13-.39,1.43-.93-1.57.54-.13-.38,2-.68.21.6-1.24.83,1.49-.11.21.6-2,.68Z"/><path class="cls-36" d="M65.22,60.68a.34.34,0,0,0,0-.17.44.44,0,0,0-.12-.19.27.27,0,0,0-.18,0h0a2.83,2.83,0,0,0,0,.41,1.27,1.27,0,0,1,0,.33.39.39,0,0,1-.08.21.48.48,0,0,1-.2.14.42.42,0,0,1-.35,0,.5.5,0,0,1-.25-.31.52.52,0,0,1,0-.25.68.68,0,0,1,.07-.26h-.17l-.13-.37H64a1.3,1.3,0,0,0,.29-.08l.44-.15a.87.87,0,0,1,.36-.07.37.37,0,0,1,.22.12,1,1,0,0,1,.19.36.78.78,0,0,1,.05.46.55.55,0,0,1-.25.3l-.18-.32A.24.24,0,0,0,65.22,60.68Zm-.68-.23-.17.07a.28.28,0,0,0-.1.14.41.41,0,0,0,0,.22.24.24,0,0,0,.11.13.18.18,0,0,0,.16,0,.17.17,0,0,0,.11-.12.84.84,0,0,0,0-.23,1.61,1.61,0,0,1,0-.25Z"/><path class="cls-36" d="M63.12,60.1,63,59.72l.72-.25a.66.66,0,0,1-.23-.15.56.56,0,0,1-.12-.2.57.57,0,0,1,0-.49,1,1,0,0,1,1.11-.39.59.59,0,0,1,.35.36.58.58,0,0,1,0,.29.6.6,0,0,1-.1.25l.21-.08.12.36Zm1.46-1a.31.31,0,0,0-.16-.46.61.61,0,0,0-.37,0,.63.63,0,0,0-.32.21.25.25,0,0,0,0,.25.31.31,0,0,0,.19.2.57.57,0,0,0,.4,0A.55.55,0,0,0,64.58,59.08Z"/><path class="cls-2" d="M25.76,103.34c-1.67-2.67-2.19-4-1.89-5.76,0,0,7.33-8,9.69-10.82S40,73.55,40,73.55L45,78l2.72,1.5s-19.5,21.2-19.43,21.32a14.49,14.49,0,0,0,.18,3.32C27.82,104.8,26.62,104.72,25.76,103.34Z"/><path class="cls-37" d="M25.76,103.34c.86,1.38,2.06,1.46,2.7.82.35,2.31.84,3.82-1.11,4.19-2.45.29-5.55-3.54-5.76-6.16-.16-2,.28-2.77,2.08-4.41l.2-.2C23.57,99.39,24.09,100.67,25.76,103.34Z"/><path class="cls-2" d="M79.28,104.56c-3,1-4.33,1.27-6,.58l-6.89-13.8L56,76.38l6.89-3.72s14.33,28.94,14.47,28.9a15.19,15.19,0,0,0,3.27.55C81.16,102.87,80.82,104,79.28,104.56Z"/><path class="cls-37" d="M79.28,104.56c1.54-.53,1.88-1.69,1.39-2.45,2.34.17,3.91,0,3.85,2-.25,2.45-4.67,4.63-7.28,4.26-2-.28-2.63-.87-3.84-3l-.15-.24C75,105.83,76.32,105.6,79.28,104.56Z"/><path class="cls-4" d="M58.87,57.24S69.66,87.2,75.34,91c-4.2-.35-12.76-2.6-14-.53a6.12,6.12,0,0,1-8.9,1.38c-3.71-2.76-8.9-1-11.12.35S25.69,92.43,24,90C28.91,86.2,41.33,75.25,41.83,70.4s-.74-9.35,2-15.24Z"/><g class="cls-38"><path class="cls-39" d="M68.89,92.5c-1.49-2.24-8.19-14.15-9.43-19.61,1.73,6.7,2,20.35,2,20.35Z"/><path class="cls-39" d="M50.27,93.74c-1-3.23,0-16.39-1.24-19.12-1.74,8.94-8.93,22-10.92,23.34S50.27,93.74,50.27,93.74Z"/></g><path class="cls-1" d="M51.32,27.18l0-.16,5.33.31a58.33,58.33,0,0,1,2.93,5.35C56.41,32.85,52.27,29.9,51.32,27.18Z"/><path class="cls-28" d="M45.19,46.2C45,41.63,47.3,31.74,50.42,27l.86.05,0,.16c1,2.72,5.09,5.67,8.22,5.5a12.5,12.5,0,0,1,.73,1.91A30.33,30.33,0,0,1,61,43.72c0,1.43,0,8.43.24,13.85-7.27.87-16-1.19-17.92-2.59C43.66,53.81,45.25,47.74,45.19,46.2Z"/><path class="cls-40" d="M61,44.27c0,2.54-1.38,7.89-1,12.95"/><path class="cls-41" d="M28,73.63s4.34-9.57,1.32-9.57c-1.49,0-5-4.41-14.31,3.86"/><path class="cls-25" d="M11.9,64.5A102,102,0,0,1,38.58,76.31c1.32,3.39-.66,18.72-8,19.33S.07,84.36,0,81.41C-.13,76,7.27,65.07,11.9,64.5Z"/><path class="cls-42" d="M30.79,78.18s-3-.53-3.72-1.91l2.29-2.37,1.8.48Z"/><path class="cls-42" d="M17.17,72.39s-3-.53-3.72-1.9l2.29-2.37,1.57.77Z"/><path class="cls-43" d="M16.07,69.32c3.57-6.58,9.12-8.83,12.36-6.61,4,2.72,1.65,12.32,1.65,12.32"/><path class="cls-44" d="M29.39,94.7C23.33,93.84,4.1,84.42,1.74,80.94"/><path class="cls-2" d="M32.78,55.57l3.32,3.29s-2.9,2.9-3.45,4.41c.35,1.4,1,3.24-.18,3.48s-1.38-2.52-1.38-2.52c-.84,1.33-2.92,3.5-5.25,1.92s-1.33-6.69,3.54-7Z"/><g class="cls-45"><path class="cls-13" d="M29.06,63.74a4.86,4.86,0,0,0-1.65,3.17"/><path class="cls-13" d="M26.21,62.17a5.72,5.72,0,0,0-1.92,3.45"/><path class="cls-13" d="M27.61,63.05A5.68,5.68,0,0,0,25.7,66.5"/></g><path class="cls-28" d="M52.5,30.34C46.93,26.81,37.57,47.82,29.87,57c.75,1.12,2.73,4,5.06,4.93C34.93,61.88,56.35,32.78,52.5,30.34Z"/><path class="cls-40" d="M42.48,50.53c4.75-7,9.63-14.78,10.36-18.36"/><line class="cls-46" x1="29.79" y1="43.35" x2="27.56" y2="45.46"/><line class="cls-46" x1="29.42" y1="42.23" x2="27.19" y2="44.34"/><line class="cls-46" x1="29.05" y1="41.12" x2="26.82" y2="43.23"/><line class="cls-46" x1="31.28" y1="47.82" x2="29.05" y2="49.93"/><line class="cls-46" x1="30.91" y1="46.7" x2="28.68" y2="48.81"/><line class="cls-46" x1="30.54" y1="45.58" x2="28.31" y2="47.69"/><line class="cls-46" x1="30.17" y1="44.47" x2="27.93" y2="46.58"/><path class="cls-47" d="M51.64,32.06c-2.86,5.7-16,11.54-20.36,17l-3-8.44,21.47-10.8Z"/><path class="cls-48" d="M59.21,28.58l1.36,4.47c-3.35,2-12.53-1-13.28-2.86s2.49-2.73,2.49-2.73Z"/><path class="cls-2" d="M45.39,20.6c.21,5.25,5.59,7.65,11.74,8.27C63.55,29.51,68,25,67.77,19.71S62.38,10.4,56.2,10.64,45.18,15.35,45.39,20.6Z"/><path class="cls-49" d="M56.27,8.71c-5.54-1.89-13.2,2-13.56,11.79s.71,13.44-1.53,17.68C44.72,37,54,30.52,53.56,24.74a23.77,23.77,0,0,1,.59-11Z"/><path class="cls-2" d="M53,19.49c-.73-2-3.42-1.14-3.58,1.42s2.9,4.35,4.7,3.77Z"/><path class="cls-13" d="M51.78,19.7c-1.55.06-1.84,2.8.54,3.5"/><path class="cls-2" d="M67.36,21.21c2.35-.53,2-2.73-.29-2.76"/><path class="cls-24" d="M61.11,20.62a1.47,1.47,0,0,1-2.93.12,1.47,1.47,0,0,1,2.93-.12Z"/><path class="cls-19" d="M64.15,17.51a.7.7,0,0,1-.62.78.72.72,0,0,1-.79-.62.7.7,0,0,1,.63-.77A.69.69,0,0,1,64.15,17.51Z"/><path class="cls-50" d="M66.22,24.25c-1.66.92-3.45.75-4.15-1.11"/><path class="cls-49" d="M54.15,8.35c7.43,0,9.79,3.07,10.85,4.6,1.51,2.18-11.32,2.59-11.91,6C52.5,14.25,54.15,8.35,54.15,8.35Z"/></g></g></g></svg>