<svg xmlns="http://www.w3.org/2000/svg" viewBox="0 0 16.9844 16.9849"><defs><style>.a{fill:#fff;}</style></defs><path class="a" d="M15.9922,16.9849h-15A.9924.9924,0,0,1,0,15.9927v-15A.9923.9923,0,0,1,.9922.0005H6.27a.9922.9922,0,0,1,0,1.9844H1.9844V15.0005H15V10.7153a.9922.9922,0,0,1,1.9844,0v5.2774A.9924.9924,0,0,1,15.9922,16.9849Z"/><path class="a" d="M15.9922,7.2622A.9923.9923,0,0,1,15,6.27V1.9849H10.7148a.9922.9922,0,0,1,0-1.9844h5.2774a.9924.9924,0,0,1,.9922.9922V6.27A.9924.9924,0,0,1,15.9922,7.2622Z"/><path class="a" d="M7.3477,10.6294A.9922.9922,0,0,1,6.6465,8.936L15.291.2915a.9916.9916,0,0,1,1.4024,1.4023L8.0488,10.3384A.9853.9853,0,0,1,7.3477,10.6294Z"/></svg>