<svg xmlns="http://www.w3.org/2000/svg" width="17.321" height="16.573" viewBox="0 0 17.321 16.573"><g transform="translate(-72.19 -762.373)"><path d="M289.138,2707.574l-4.871-4.871,1.414-1.414,3.456,3.456,7.62-7.62,1.414,1.414Z" transform="translate(-208.662 -1933.419)" fill="#ff5a1f"/><path d="M292.509,2711.406h-12.5a2.04,2.04,0,0,1-2.038-2.037v-12.5a2.04,2.04,0,0,1,2.038-2.038H289.9v2h-9.892a.038.038,0,0,0-.038.038v12.5a.038.038,0,0,0,.038.037h12.5a.038.038,0,0,0,.038-.037v-7.16h2v7.16A2.04,2.04,0,0,1,292.509,2711.406Z" transform="translate(-205.784 -1932.46)" fill="#ff5a1f"/></g></svg>