<?xml version="1.0" encoding="UTF-8"?><svg id="b" xmlns="http://www.w3.org/2000/svg" viewBox="0 0 60 60"><defs><style>.d{fill:#005014;}.e{fill:#fff;}</style></defs><g id="c"><g><g><circle class="e" cx="30" cy="30" r="30"/><path class="d" d="M30,2c15.4392,0,28,12.5608,28,28s-12.5608,28-28,28S2,45.4392,2,30,14.5608,2,30,2m0-2C13.4314,0,0,13.4314,0,30s13.4314,30,30,30,30-13.4314,30-30S46.5686,0,30,0h0Z"/></g><g><polygon class="d" points="42.793 28.7568 30 15.9639 17.207 28.7568 15.793 27.3428 30 13.1357 44.207 27.3428 42.793 28.7568"/><rect class="d" x="29" y="14.5498" width="2" height="30.9004"/></g></g></g></svg>