<svg xmlns="http://www.w3.org/2000/svg" viewBox="0 0 385.4697 17.8711"><path d="M1.09,9.0312A1.0465,1.0465,0,0,1,.3252,8.706,1.043,1.043,0,0,1,0,7.94V7.9023a1.0429,1.0429,0,0,1,.3252-.7651A1.047,1.047,0,0,1,1.09,6.8115H4.6875a.2481.2481,0,0,0,.2295-.1338c.1016-.1782.1787-.3188.2295-.4209.0254-.0254.0254-.0571,0-.0957a.1126.1126,0,0,0-.0957-.0571H2.2a.9806.9806,0,0,1-.9951-.9951A.9806.9806,0,0,1,2.2,4.1138H5.8164a.1919.1919,0,0,0,.21-.1529c.0127-.0386.0293-.0957.0478-.1723s.0352-.1338.0479-.1724c.0381-.127,0-.1909-.1143-.1909H1.6836a1.03,1.03,0,0,1-.7559-.3159,1.03,1.03,0,0,1-.3164-.7559V2.22a1.0632,1.0632,0,0,1,.3164-.7656,1.015,1.015,0,0,1,.7559-.3252H6.5049a.134.134,0,0,0,.1533-.1148,1.0817,1.0817,0,0,1,.373-.6792A.983.983,0,0,1,7.749.0766L8.9541.1147a.779.779,0,0,1,.584.2871A.7346.7346,0,0,1,9.7,1.0141c-.0254.0767.0127.1148.1152.1148H16.11a1.0179,1.0179,0,0,1,.7558.3252,1.0659,1.0659,0,0,1,.3154.7656v.1338a1.0328,1.0328,0,0,1-.3154.7559,1.0331,1.0331,0,0,1-.7558.3159H9.3369a.1967.1967,0,0,0-.2109.1719l-.1143.3447q-.0381.1721.1143.1719h6.4678a.9806.9806,0,0,1,.9951.9951.9806.9806,0,0,1-.9951.9951H12.7422q-.1524,0-.0762.1528l.211.4209a.2633.2633,0,0,0,.248.1338h3.5781a1.1116,1.1116,0,0,1,1.0908,1.0908V7.94a1.1107,1.1107,0,0,1-1.0908,1.0908h-1.875c-.0254,0-.0449.0161-.0576.0479s-.0059.0542.0195.0669A11.7939,11.7939,0,0,0,17.0283,10.83a1.3538,1.3538,0,0,1,.5938,1.55l-.2491.7461a.8317.8317,0,0,1-.5263.5263.7118.7118,0,0,1-.7178-.1054q-.4965-.3633-.9375-.708c-.0889-.0635-.1338-.0445-.1338.0576V16.685a1.0661,1.0661,0,0,1-.3154.7652,1.0181,1.0181,0,0,1-.7559.3252H12.57a.5543.5543,0,0,1-.5547-.5547c0-.064-.0254-.0957-.0761-.0957H5.8545c-.0508,0-.0762.0317-.0762.0957a.556.556,0,0,1-.5556.5547H3.8076a1.1109,1.1109,0,0,1-1.0908-1.09V12.8965c0-.0894-.0381-.1084-.1152-.0576q-.5553.4591-.918.708a.752.752,0,0,1-.7373.1054.8283.8283,0,0,1-.5254-.5263L.1719,12.38A1.301,1.301,0,0,1,.21,11.5a1.3867,1.3867,0,0,1,.5742-.689,13.961,13.961,0,0,0,2.22-1.6645c.0254-.0127.0313-.0347.0186-.0669s-.0323-.0479-.0577-.0479Zm10.9258,3.54v-.5357c0-.1147-.0508-.1718-.1533-.1718H5.9307q-.1524,0-.1524.1718v.5357a.135.135,0,0,0,.1524.1533h5.9316A.1353.1353,0,0,0,12.0156,12.5708Zm0,2.4878v-.5552c0-.1147-.0508-.1719-.1533-.1719H5.9307q-.1524,0-.1524.1719v.5552a.1348.1348,0,0,0,.1524.1528h5.9316A.1351.1351,0,0,0,12.0156,15.0586ZM6.4473,9.165c-.0889.128-.2227.3062-.4014.5362-.0508.0761-.0254.1147.0762.1147h5.6064a.0835.0835,0,0,0,.0674-.0386.0687.0687,0,0,0,.0088-.0761,1.4955,1.4955,0,0,1-.19-.2681,1.5479,1.5479,0,0,0-.1914-.2681.3131.3131,0,0,0-.2686-.1338H6.6963A.2946.2946,0,0,0,6.4473,9.165ZM7.94,6.6777a.0849.0849,0,0,0,.0088.086.0943.0943,0,0,0,.0869.0478H9.873a.0938.0938,0,0,0,.086-.0478.087.087,0,0,0,.0088-.086,3.2955,3.2955,0,0,1-.1905-.44.2494.2494,0,0,0-.23-.1338H8.3613a.2224.2224,0,0,0-.2295.1528A3.474,3.474,0,0,1,7.94,6.6777Z"/><path d="M24.3955,16.436A3.8047,3.8047,0,0,1,21.4,14.5991a7.2825,7.2825,0,0,1-1.3672-4.477A7.9846,7.9846,0,0,1,22.5771,3.99a9.4472,9.4472,0,0,1,6.6973-2.3633,7.6206,7.6206,0,0,1,5.5293,2.1143,7.1792,7.1792,0,0,1,2.1817,5.3862,8.4109,8.4109,0,0,1-1.4161,5.0323,6.3093,6.3093,0,0,1-3.8652,2.5258,1.0706,1.0706,0,0,1-.8516-.1723,1.1317,1.1317,0,0,1-.4873-.7271l-.1533-.6508a.9858.9858,0,0,1,.1533-.794,1.2307,1.2307,0,0,1,.67-.5068q3.0219-.9763,3.0224-4.7071a4.65,4.65,0,0,0-.9756-2.9751,4.5268,4.5268,0,0,0-2.583-1.6171c-.09-.0123-.1465.0385-.1719.1533a52.5216,52.5216,0,0,1-1.12,5.8838A13.953,13.953,0,0,1,27.82,14.188a5.1872,5.1872,0,0,1-1.5693,1.75A3.4524,3.4524,0,0,1,24.3955,16.436ZM27.1123,4.6689A5.4537,5.4537,0,0,0,24.0605,6.63,5.5968,5.5968,0,0,0,22.96,10.1221a5.2355,5.2355,0,0,0,.5078,2.3247q.5054,1.0429.9277,1.0424a.6844.6844,0,0,0,.459-.2583,3.5713,3.5713,0,0,0,.5547-.8989,12.6643,12.6643,0,0,0,.6123-1.6074q.3061-.966.6318-2.4971t.5928-3.4438a.081.081,0,0,0-.0283-.0957A.1067.1067,0,0,0,27.1123,4.6689Z"/><path d="M39.3008,10.7534l-.2676-1.5688a2.8317,2.8317,0,0,1,.44-1.9517,18.8742,18.8742,0,0,0,2.3154-5.8745A1.0744,1.0744,0,0,1,42.2568.67,1.0853,1.0853,0,0,1,43.07.4975l.67.1148a1.1216,1.1216,0,0,1,.6983.46,1.0323,1.0323,0,0,1,.1816.8032,20.5319,20.5319,0,0,1-1.0908,3.75.9109.9109,0,0,0-.0762.3252V16.78a1.0659,1.0659,0,0,1-.3154.7656,1.0179,1.0179,0,0,1-.7559.3252h-.747a1.0179,1.0179,0,0,1-.7559-.3252,1.0659,1.0659,0,0,1-.3154-.7656V10.543a.0453.0453,0,0,0-.0381-.0479.059.059,0,0,0-.0576.0093,1.6609,1.6609,0,0,1-.1533.23,1.7434,1.7434,0,0,0-.1524.2295.46.46,0,0,1-.498.1816A.4433.4433,0,0,1,39.3008,10.7534ZM57.3633,4.86a1.1109,1.1109,0,0,1-1.0908,1.0909H45.4619a1.0163,1.0163,0,0,1-.7558-.3252,1.0644,1.0644,0,0,1-.3155-.7657v-.21a1.0654,1.0654,0,0,1,.3155-.7651,1.0163,1.0163,0,0,1,.7558-.3252H56.2725a1.1109,1.1109,0,0,1,1.0908,1.09ZM45.0605,16.78V13.0112a1.0781,1.0781,0,0,1,1.0713-1.0718H55.335a1.0645,1.0645,0,0,1,.7656.316,1.0163,1.0163,0,0,1,.3252.7558V16.78a1.1109,1.1109,0,0,1-1.0908,1.0908H53.9385a.5543.5543,0,0,1-.5547-.5547.0846.0846,0,0,0-.0957-.0957H48.1025c-.0507,0-.0761.0317-.0761.0957a.556.556,0,0,1-.5557.5547H46.1318a1.0147,1.0147,0,0,1-.7558-.3252A1.0619,1.0619,0,0,1,45.0605,16.78Zm1.2432-8.1319a1,1,0,0,1-.7461-.3154,1.041,1.041,0,0,1,0-1.4736,1,1,0,0,1,.7461-.3155h8.8779a1.0023,1.0023,0,0,1,.7471.3155,1.0408,1.0408,0,0,1,0,1.4736,1.0026,1.0026,0,0,1-.7471.3154Zm0,2.6983a1.0525,1.0525,0,1,1,0-2.105h8.8779a1.0525,1.0525,0,1,1,0,2.105ZM55.2969.8037a1.05,1.05,0,0,1,.7656.3252,1.0487,1.0487,0,0,1,.3252.7656,1.0788,1.0788,0,0,1-1.0908,1.09H46.7246a1.0788,1.0788,0,0,1-1.0908-1.09,1.0458,1.0458,0,0,1,.3262-.7656,1.0447,1.0447,0,0,1,.7646-.3252Zm-7.27,13.3936v.7656a.1348.1348,0,0,0,.1523.1528h5.0322q.1729,0,.1729-.1528v-.7656c0-.1016-.0576-.1529-.1729-.1529H48.1787A.135.135,0,0,0,48.0264,14.1973Z"/><path d="M59.6592,11.6528a1.0564,1.0564,0,0,1-.6983-.4306,1.0052,1.0052,0,0,1-.1816-.794q.3633-2.0852.5361-4.42a1.0094,1.0094,0,0,1,.3731-.7466,1.0365,1.0365,0,0,1,.7939-.2676l.23.0191a1.003,1.003,0,0,1,.7559.373,1.0842,1.0842,0,0,1,.2578.8135,42.2009,42.2009,0,0,1-.5352,4.5918,1.13,1.13,0,0,1-1.2822.8994Zm14.6181,6.0654a1.1117,1.1117,0,0,1-1.09-1.0908V11.0405c0-.102-.0518-.1406-.1533-.1152l-.4209.1152a1.0074,1.0074,0,0,1-.8135-.0766,1.0548,1.0548,0,0,1-.5264-.65q-.019-.0579-.7841-2.5259a.0173.0173,0,0,0-.02-.0191c-.0127,0-.0185.0064-.0185.0191v7.5386A1.1109,1.1109,0,0,1,69.36,16.417h-.6319a1.1109,1.1109,0,0,1-1.09-1.0908V11.0405c0-.102-.0518-.1406-.1533-.1152l-.4024.1152a1.0231,1.0231,0,0,1-.832-.0864,1.09,1.09,0,0,1-.5264-.6406q-.0952-.345-.3438-1.1485T64.998,7.9214a.0542.0542,0,0,1-.038.019v.9761a16.28,16.28,0,0,1-.6123,4.793,9.3724,9.3724,0,0,1-1.9327,3.4536,1.0559,1.0559,0,0,1-.7754.3637,1.223,1.223,0,0,1-.832-.268l-.65-.5166a.9253.9253,0,0,1-.373-.6983.9975.9975,0,0,1,.2578-.7558A7.3782,7.3782,0,0,0,61.63,12.3413a18.6835,18.6835,0,0,0,.44-4.63V1.8179a1.0487,1.0487,0,0,1,.3252-.7657A1.049,1.049,0,0,1,63.1611.727h.708a1.0485,1.0485,0,0,1,.7647.3252,1.05,1.05,0,0,1,.3262.7657V5.0322c0,.1026.0507.1406.1523.1148l.3643-.1148a1.1368,1.1368,0,0,1,1.3964.7271q.4776,1.4927.7081,2.2387a.0772.0772,0,0,0,.0576.0191V2.3535a1.0427,1.0427,0,0,1,.3252-.7651,1.0468,1.0468,0,0,1,.7646-.3257H69.36a1.0508,1.0508,0,0,1,.7656.3257,1.0466,1.0466,0,0,1,.3252.7651V5.0513q0,.1537.1523.1147l.4219-.1338a1.0345,1.0345,0,0,1,.8223.0767,1.1236,1.1236,0,0,1,.5546.65q.23.7272.7276,2.2963c0,.0127.01.0191.0283.0191s.0293-.0064.0293-.0191V1.8179a1.0449,1.0449,0,0,1,.3252-.7657A1.0484,1.0484,0,0,1,74.2773.727h.7852a1.0481,1.0481,0,0,1,.7646.3252,1.0487,1.0487,0,0,1,.3252.7657v14.81a1.1117,1.1117,0,0,1-1.09,1.0908Z"/><path d="M85.05,13.8911a15.5045,15.5045,0,0,0,2.1045-2.334c.0635-.0893.0449-.1343-.0576-.1343H85.834a1.1126,1.1126,0,0,1-1.0908-1.09v-.3061A1.1125,1.1125,0,0,1,85.834,8.9355h2.4492a.1351.1351,0,0,0,.1533-.1528.9928.9928,0,0,1,.3057-.7271,1.0164,1.0164,0,0,1,.7471-.3061h.88a.9851.9851,0,0,1,.7364.3061,1.0075,1.0075,0,0,1,.2968.7271.1351.1351,0,0,0,.1534.1528h1.9326a1.0145,1.0145,0,0,1,.7549.3252,1.0633,1.0633,0,0,1,.3164.7657v.3061a1.0611,1.0611,0,0,1-.3164.7651,1.0127,1.0127,0,0,1-.7549.3252h-.5362a.0622.0622,0,0,0-.0576.0386.0612.0612,0,0,0,.02.0762q.4584.4409,1.3769,1.3589a1.1011,1.1011,0,0,1,.335.7841,1.0712,1.0712,0,0,1-.2959.7847l-.3828.4209a.8745.8745,0,0,1-.708.2871.85.85,0,0,1-.67-.3447q-.42-.5544-1.0527-1.3584c-.0127-.0254-.0352-.0317-.0664-.019s-.0479.0322-.0479.0576V16.78a1.0659,1.0659,0,0,1-.3154.7656,1.0179,1.0179,0,0,1-.7558.3252h-.8038A1.1109,1.1109,0,0,1,88.4365,16.78V13.853a.0445.0445,0,0,0-.0283-.0478.0428.0428,0,0,0-.0478.01,18.6262,18.6262,0,0,1-1.7413,2.334.8224.8224,0,0,1-.708.2681.89.89,0,0,1-.67-.3828l-.4023-.5547a1.2026,1.2026,0,0,1-.1905-.8325A1.1836,1.1836,0,0,1,85.05,13.8911ZM95.21,1.6074a1.1262,1.1262,0,0,1-.1338.832.9913.9913,0,0,1-.67.4883,48.1824,48.1824,0,0,1-8.2656.8989,1.0958,1.0958,0,0,1-.8037-.2866,1.1941,1.1941,0,0,1-.4023-.7656l-.0567-.4209a.9078.9078,0,0,1,.22-.7461.9584.9584,0,0,1,.7177-.3447A44.3164,44.3164,0,0,0,93.832.44a1.0728,1.0728,0,0,1,.8233.1436,1.027,1.027,0,0,1,.4785.66ZM86.0254,4.3628a1.1012,1.1012,0,0,1,.8516.0761,1.1216,1.1216,0,0,1,.5644.6319q.1919.5353.5361,1.6455a.9878.9878,0,0,1-.0859.813,1.096,1.096,0,0,1-.66.5263l-.2685.0762a1.0079,1.0079,0,0,1-.8223-.0859,1.0823,1.0823,0,0,1-.5361-.66q-.3443-1.0714-.5166-1.5879a1.0013,1.0013,0,0,1,.0478-.8227,1.0142,1.0142,0,0,1,.6221-.5362ZM89.47,3.9419a1.1257,1.1257,0,0,1,.8516.0669,1.009,1.009,0,0,1,.5449.6216q.268.8034.3828,1.2246a.99.99,0,0,1-.0957.8227,1.12,1.12,0,0,1-.67.5357l-.2676.0957a.9609.9609,0,0,1-.8037-.086,1.1,1.1,0,0,1-.5166-.66q-.1143-.42-.3828-1.2246a1.01,1.01,0,0,1,.0674-.8037,1.025,1.025,0,0,1,.622-.5166Zm3.1,3.96a.992.992,0,0,1-.5742-.5356.9406.9406,0,0,1,0-.7847,21.238,21.238,0,0,0,.8037-2.1431,1.1388,1.1388,0,0,1,.5166-.6694,1.0923,1.0923,0,0,1,.8233-.1338l.3828.0952a1.0152,1.0152,0,0,1,.5928.3829.0784.0784,0,0,0,.0761.0288.085.085,0,0,0,.0576-.0479,1.0438,1.0438,0,0,1,.4971-.4975A15.44,15.44,0,0,0,99.5342,1.11a1.2024,1.2024,0,0,1,.7939-.3159,1.1242,1.1242,0,0,1,.794.2969l.4209.3828a1.0526,1.0526,0,0,1,.3447.7461.9526.9526,0,0,1-.2871.7461A17.7106,17.7106,0,0,1,97.2,5.97a1.1266,1.1266,0,0,1-.8613.0767,1.193,1.193,0,0,1-.6885-.5357l-.2686-.44a.078.078,0,0,0-.0761-.0288.0863.0863,0,0,0-.0577.0478,19.1371,19.1371,0,0,1-.8418,2.2959,1.1511,1.1511,0,0,1-.622.6026,1.17,1.17,0,0,1-.87.0288Zm1.7412,8.3809a.8368.8368,0,0,1-.1054-.7466.8922.8922,0,0,1,.5068-.5737,18.2034,18.2034,0,0,0,5.1856-3.33,1.2013,1.2013,0,0,1,.7939-.3154,1.1233,1.1233,0,0,1,.794.2963l.44.4209a1.0538,1.0538,0,0,1,.3447.7466.9828.9828,0,0,1-.3066.7652,20.0045,20.0045,0,0,1-5.6631,3.8076,1.2062,1.2062,0,0,1-.8809.0478,1.3589,1.3589,0,0,1-.708-.5263ZM99.7832,6.1421a1.1284,1.1284,0,0,1,.7744-.3443,1.0871,1.0871,0,0,1,.794.2867l.4209.3828a1.0534,1.0534,0,0,1,.3447.7461,1.0118,1.0118,0,0,1-.2871.7656,18.586,18.586,0,0,1-5.0127,3.5395,1.1823,1.1823,0,0,1-.8613.0577,1.3061,1.3061,0,0,1-.7081-.5166l-.3447-.5743a.9235.9235,0,0,1,.4024-1.3393A16.123,16.123,0,0,0,99.7832,6.1421Z"/><path d="M107.7041,11.0786a1.1127,1.1127,0,0,1-1.0908-1.0908V2.43a1.0459,1.0459,0,0,1,.3262-.7657,1.0447,1.0447,0,0,1,.7646-.3252h.8418a1.03,1.03,0,0,1,.7559.316,1.03,1.03,0,0,1,.3164.7558V4.5347c0,.0131.0058.019.0185.019a.017.017,0,0,0,.0195-.019,6.1183,6.1183,0,0,1,5.1084-2.8125,4.8387,4.8387,0,0,1,3.8838,1.6835,7.0679,7.0679,0,0,1,1.4356,4.7261q0,4.5162-2.4688,6.6968t-7.8252,2.373a1.039,1.039,0,0,1-.7842-.2871,1.1422,1.1422,0,0,1-.3642-.7656l-.0381-.6123a1.0119,1.0119,0,0,1,.2871-.7651,1.0531,1.0531,0,0,1,.7461-.3443q4.018-.1339,5.6065-1.5693t1.5879-4.7261q0-3.4629-2.3916-3.4629a4.1216,4.1216,0,0,0-3.0713,1.502,6.985,6.985,0,0,0-1.7315,3.8169,1.3417,1.3417,0,0,1-.4111.7749,1.0969,1.0969,0,0,1-.7754.3159Z"/><path d="M138.6826,17.8135a3.3459,3.3459,0,0,1-1.6269-.2583q-.3062-.2388-.3057-1.2915V12.6665a.1357.1357,0,0,0-.1533-.1528h-.211c-.1142,0-.1718.0512-.1718.1528a6.8112,6.8112,0,0,1-.9375,3.0425,5.82,5.82,0,0,1-2.2383,1.9326,1.1307,1.1307,0,0,1-.8613.0766,1.281,1.281,0,0,1-.708-.5361.2858.2858,0,0,0-.2491-.1528h-3.6162a.1011.1011,0,0,0-.1142.1147.687.687,0,0,1-.6895.689H125.748a1.0166,1.0166,0,0,1-.7558-.3252,1.0628,1.0628,0,0,1-.3164-.7656v-4.458a.5686.5686,0,0,0-.0957-.3062l-.7266-1.11a1.3071,1.3071,0,0,1-.1914-.8706,1.4025,1.4025,0,0,1,.3828-.8129,14.9337,14.9337,0,0,0,1.7031-2.2774.0632.0632,0,0,0,.0088-.0859.0934.0934,0,0,0-.0859-.0479h-.7461a1.1109,1.1109,0,0,1-1.0908-1.0908V5.6064a1.1109,1.1109,0,0,1,1.0908-1.0908h.3066q.0177-.019,0-.0571l-.6123-.23a.7769.7769,0,0,1-.5078-.5356.9207.9207,0,0,1,.0869-.7652A15.2522,15.2522,0,0,0,125.2314.8418a1.3823,1.3823,0,0,1,.5928-.6695,1.2668,1.2668,0,0,1,.8613-.1533l.2481.0386a.7983.7983,0,0,1,.584.373.7333.7333,0,0,1,.0674.6792c-.0264.0767.0058.1148.0957.1148h3.3672a1.05,1.05,0,0,1,.7656.3252,1.0487,1.0487,0,0,1,.3252.7656v.1528a1.0479,1.0479,0,0,1-.3252.7657,1.05,1.05,0,0,1-.7656.3252h-.8418a.1927.1927,0,0,0-.211.1528c-.0127.0513-.0449.1533-.0957.3062l-.1142.3447c-.0264.102.0127.1528.1142.1528h1.3779a1.0179,1.0179,0,0,1,.7559.3252,1.0659,1.0659,0,0,1,.3154.7656v.0762a1.0642,1.0642,0,0,1-.3154.7656,1.0179,1.0179,0,0,1-.7559.3252h-1.1865a.0167.0167,0,0,0-.0185.0191c0,.0131.0058.019.0185.019l.708.1724a.7881.7881,0,0,1,.5069.4018.6728.6728,0,0,1,.0293.6123c-.0264.0767-.0069.1148.0576.1148a.8819.8819,0,0,1,.86.8608v.1153a.9089.9089,0,0,1-.2871.6792.9554.9554,0,0,1-.6885.2773h-.2109c-.1016,0-.1523.0571-.1523.1724V10.6q0,.1721.1523.1723h.3447a.7207.7207,0,0,1,.5166.2007.6716.6716,0,0,1,.211.5074.72.72,0,0,1-.7276.727h-.3447a.135.135,0,0,0-.1523.1528v.4019a.1349.1349,0,0,0,.1523.1533h.3447a.72.72,0,0,1,.7276.7271.67.67,0,0,1-.211.5068.719.719,0,0,1-.5166.2012h-.3447q-.1524,0-.1523.1718v.3829q0,.172.1523.1723h.3262a.9442.9442,0,0,1,.459.1148.3744.3744,0,0,0,.2871,0,3.0358,3.0358,0,0,0,1.1289-.9854,3.7806,3.7806,0,0,0,.5166-1.56c.0254-.0888-.0127-.1337-.1153-.1337a.87.87,0,0,1-.65-.2774.8941.8941,0,0,1-.2676-.6411V1.7222a1.0164,1.0164,0,0,1,.3252-.7559,1.0616,1.0616,0,0,1,.7646-.3154h6.2383a1.0325,1.0325,0,0,1,.7559.3154,1.033,1.033,0,0,1,.3154.7559v9.7006a1.0647,1.0647,0,0,1-.3154.7657,1.0181,1.0181,0,0,1-.7559.3252h-.67c-.1143,0-.1719.0512-.1719.1528v2.5068a.5251.5251,0,0,0,.0283.2295c.02.0259.086.0449.2012.0576h.21a.293.293,0,0,0,.2871-.1914,5.1506,5.1506,0,0,0,.0771-.9951.8669.8669,0,0,1,.3252-.6411.833.833,0,0,1,.6885-.2007,1.1276,1.1276,0,0,1,.6885.4019,1.088,1.088,0,0,1,.249.7651q-.0381.8232-.0762,1.3106a3.9753,3.9753,0,0,1-.1631.88,2.3643,2.3643,0,0,1-.2392.5645.8459.8459,0,0,1-.4307.2871,2.1753,2.1753,0,0,1-.5928.1338c-.1845.0127-.4756.0254-.87.0381h-.9375ZM127.2207,3.7119c.0254-.1016-.0127-.1528-.1143-.1528h-.46a.2929.2929,0,0,0-.2481.1338q-.3252.5551-.4209.6889c-.0644.0894-.0449.1338.0577.1338h.7265a.2223.2223,0,0,0,.23-.1528Q127.1451,3.9416,127.2207,3.7119Zm1.416,6.8882v-.3823c0-.1153-.0508-.1724-.1533-.1724h-.8223a.1517.1517,0,0,0-.1718.1724V10.6a.1519.1519,0,0,0,.1718.1723h.8223C128.5859,10.7724,128.6367,10.7148,128.6367,10.6Zm0,2.1621V12.36a.1353.1353,0,0,0-.1533-.1528h-.8223c-.1152,0-.1718.0513-.1718.1528v.4019c0,.1025.0566.1533.1718.1533h.8223A.1353.1353,0,0,0,128.6367,12.7622Zm0,2.1431v-.3829c0-.1147-.0508-.1718-.1533-.1718h-.8223a.1515.1515,0,0,0-.1718.1718v.3829a.1519.1519,0,0,0,.1718.1723h.8223C128.5859,15.0776,128.6367,15.02,128.6367,14.9053Zm.8233-7.9786c.0507-.102.0185-.1533-.0957-.1533h-.4024a.2368.2368,0,0,0-.248.1533q-.3838.7273-.5938,1.0713c-.0508.0767-.0185.1148.0957.1148h.5166a.2407.2407,0,0,0,.249-.1338Q129.2875,7.3667,129.46,6.9267Zm6.0839-3.7124V3.999a.1527.1527,0,0,0,.1729.1724h2.3916a.1523.1523,0,0,0,.1719-.1724V3.2143a.1519.1519,0,0,0-.1719-.1718h-2.3916A.1523.1523,0,0,0,135.5439,3.2143Zm0,3.0044v.8037q0,.1532.1729.1529h2.3916c.1143,0,.1719-.0508.1719-.1529V6.2187a.1523.1523,0,0,0-.1719-.1723h-2.3916A.1527.1527,0,0,0,135.5439,6.2187Zm.1729,4.0181h2.3916a.1523.1523,0,0,0,.1719-.1724V9.2226c0-.102-.0576-.1533-.1719-.1533h-2.3916c-.1152,0-.1729.0513-.1729.1533v.8418A.1527.1527,0,0,0,135.7168,10.2368Z"/><path d="M145.0342,9.72a1.1109,1.1109,0,0,1-1.0908-1.0908V8.2466a1.0161,1.0161,0,0,1,.3252-.7554,1.0625,1.0625,0,0,1,.7656-.3159h5.5488q.1524,0,.1524-.1724V1.4736a1.0489,1.0489,0,0,1,.3251-.7656,1.0471,1.0471,0,0,1,.7657-.3252h.957a1.0465,1.0465,0,0,1,.7647.3252,1.05,1.05,0,0,1,.3261.7656V7.0029q0,.1722.1524.1724h5.5488a1.0627,1.0627,0,0,1,.7656.3159,1.0161,1.0161,0,0,1,.3252.7554v.3828A1.1109,1.1109,0,0,1,159.5752,9.72h-3.4434a.1351.1351,0,0,0-.1533.1528v4.5542c0,.2422.044.3858.1338.43a5.96,5.96,0,0,0,1.4736.0386c.1016-.02.2-.1211.2959-.3062a2.0165,2.0165,0,0,0,.1817-.7558q.0381-.4783.0957-1.5117a1.0066,1.0066,0,0,1,.3545-.7369.9954.9954,0,0,1,.7744-.2583l.67.0577a1.0961,1.0961,0,0,1,.7461.3828,1.0733,1.0733,0,0,1,.2871.7841q-.0381.8043-.0664,1.32a9.8655,9.8655,0,0,1-.1152,1.0429q-.0864.5267-.1241.8321a1.5956,1.5956,0,0,1-.2207.6123q-.1815.3062-.2675.45a.9038.9038,0,0,1-.4112.2871,3.7356,3.7356,0,0,1-.5068.1914,4.563,4.563,0,0,1-.68.0859c-.332.0254-.6025.0386-.8135.0386h-1.0234q-.9185,0-1.4922-.0288a5.5455,5.5455,0,0,1-1.043-.1436,2.4875,2.4875,0,0,1-.6982-.2583,1.0763,1.0763,0,0,1-.3828-.45,1.913,1.913,0,0,1-.1914-.66,9.2817,9.2817,0,0,1-.0381-.9473V9.873a.1351.1351,0,0,0-.1533-.1528H151.29a.1706.1706,0,0,0-.1718.1528,8.9414,8.9414,0,0,1-1.4639,4.1807,11.0217,11.0217,0,0,1-3.5684,3.1284,1.0838,1.0838,0,0,1-.8418.1148,1.214,1.214,0,0,1-.708-.4971l-.4209-.5933a.9308.9308,0,0,1-.1435-.7846.9578.9578,0,0,1,.4883-.6314,8.6027,8.6027,0,0,0,2.5634-2.1333,6.176,6.176,0,0,0,1.1289-2.7842.0922.0922,0,0,0-.038-.1049.18.18,0,0,0-.1153-.0479Zm1.167-7.998a1.1181,1.1181,0,0,1,.86-.0381,1.1992,1.1992,0,0,1,.67.5547q.6885,1.2627,1.2247,2.43a1.0617,1.0617,0,0,1-.5352,1.4351l-.6318.3061a1.0215,1.0215,0,0,1-.8418.0191,1.1212,1.1212,0,0,1-.6123-.5742q-.5744-1.1859-1.2442-2.4493a.9558.9558,0,0,1-.0664-.8032.95.95,0,0,1,.5449-.5932Zm12.1308-.1915.6885.2872a1.0872,1.0872,0,0,1,.6025.5737.9987.9987,0,0,1,.01.8227q-.6695,1.5118-1.3008,2.6983a1.0888,1.0888,0,0,1-.65.5454A1.1536,1.1536,0,0,1,156.82,6.41l-.6318-.3061a1.0164,1.0164,0,0,1-.5449-.603.94.94,0,0,1,.0664-.794q.6327-1.2246,1.206-2.5639a1.08,1.08,0,0,1,.583-.6026A1.025,1.025,0,0,1,158.332,1.5307Z"/><path d="M165.0283,13.2217a1.0258,1.0258,0,0,1-.7744-.2969,1.0684,1.0684,0,0,1-.3545-.7554l-.0186-.6123a.997.997,0,0,1,.2969-.7656,1.0831,1.0831,0,0,1,.7549-.3442l5.2236-.1915c.1026,0,.1534-.0576.1534-.1723l-.2871-3.1953c0-.1021-.0577-.1529-.1719-.1529l-4.0567.1338a1.0967,1.0967,0,0,1-1.1289-1.0332l-.0185-.6123a1.0237,1.0237,0,0,1,.2959-.7749,1.0725,1.0725,0,0,1,.7558-.354l3.9034-.1338a.1353.1353,0,0,0,.1533-.1533l-.1533-1.7222a1.013,1.013,0,0,1,.249-.7749,1.0459,1.0459,0,0,1,.7265-.373L171.668.8418a1.1265,1.1265,0,0,1,.7939.2778,1.0485,1.0485,0,0,1,.3926.7363l.1533,1.837c0,.1025.0567.1533.1719.1533l4.7451-.1724A1.0287,1.0287,0,0,1,178.7,3.97a1.0727,1.0727,0,0,1,.3535.7559l.02.5932a1.0246,1.0246,0,0,1-.2968.7749,1.0705,1.0705,0,0,1-.7559.354l-4.5918.1529c-.09,0-.1338.0576-.1338.1723l.2871,3.2144c0,.1025.0567.1533.1719.1533l4.9365-.1724a1.0255,1.0255,0,0,1,.7744.2969,1.0689,1.0689,0,0,1,.3545.7554l.0186.5932a1.0272,1.0272,0,0,1-.2959.7749,1.07,1.07,0,0,1-.7559.354l-4.7832.1534c-.1025,0-.1533.0571-.1533.1718l.2676,3.1a1.0132,1.0132,0,0,1-.249.7753,1.0456,1.0456,0,0,1-.7266.3731l-1.0908.0957a1.1252,1.1252,0,0,1-.794-.2778,1.048,1.048,0,0,1-.3925-.7364l-.2872-3.2148c0-.1016-.0566-.1528-.1718-.1528Z"/><path d="M184.832,9.4331l-.0762-.44a1.0532,1.0532,0,0,1,.1719-.8037,1.0849,1.0849,0,0,1,.69-.4594l2.0088-.4019c.1142-.0254.1592-.0889.1338-.1909l-.2871-1.5884a1.0615,1.0615,0,0,1,.1816-.813,1.0376,1.0376,0,0,1,.6982-.45l.69-.1147a1.0409,1.0409,0,0,1,.8135.1914,1.07,1.07,0,0,1,.4492.708l.2676,1.5112c.0254.1148.0888.16.1914.1343l6.0273-1.2056a1.0552,1.0552,0,0,1,.8037.1719,1.0837,1.0837,0,0,1,.459.689l.0771.44a3.7892,3.7892,0,0,1-.1152,2.0859,12.7407,12.7407,0,0,1-2.1426,3.7886,1.0542,1.0542,0,0,1-.7656.3921,1.1685,1.1685,0,0,1-.8232-.2583l-.459-.3442a.8994.8994,0,0,1-.3828-.68,1.0678,1.0678,0,0,1,.23-.7749,12.3993,12.3993,0,0,0,1.55-2.3916c.0254-.0254.0254-.0571,0-.0957a.0774.0774,0,0,0-.0957-.0381l-3.9219.7842c-.1152.0258-.16.09-.1338.1914l1.09,6.1611a1.0542,1.0542,0,0,1-.1817.8135,1.0351,1.0351,0,0,1-.6982.45l-.6885.1147a1.0416,1.0416,0,0,1-.8135-.1914,1.0668,1.0668,0,0,1-.4492-.708l-1.0723-6.0844q-.0381-.1722-.19-.1343l-1.9717.4018a1.0507,1.0507,0,0,1-.8027-.1718A1.0843,1.0843,0,0,1,184.832,9.4331Z"/><path d="M204.8848,4.707a1.0227,1.0227,0,0,1-.459-1.416l.4394-.8608a1.0872,1.0872,0,0,1,.6416-.5454,1.1284,1.1284,0,0,1,.8516.0478q1.97.9375,4.0371,2.0093a.9569.9569,0,0,1,.5264.6313,1.0546,1.0546,0,0,1-.0869.8228l-.4971.8608a1.1042,1.1042,0,0,1-1.4736.44Q206.875,5.6641,204.8848,4.707ZM218.47,3.77a1.0742,1.0742,0,0,1,.6885.4688,1.02,1.02,0,0,1,.1533.813,13.8485,13.8485,0,0,1-4.43,7.8256,16.8333,16.8333,0,0,1-9.0019,3.502,1.0883,1.0883,0,0,1-.8233-.22,1.1254,1.1254,0,0,1-.4394-.7368l-.1338-.88a.9487.9487,0,0,1,.19-.7749,1.0213,1.0213,0,0,1,.708-.4116,14.5433,14.5433,0,0,0,7.2813-2.7745,11.4371,11.4371,0,0,0,3.6826-6.18,1.1124,1.1124,0,0,1,.4883-.6792,1.044,1.044,0,0,1,.8135-.1436Z"/><path d="M222.4111,12.7051a1.0531,1.0531,0,0,1-.248-1.4927q2.2955-3.2147,2.3535-3.291.8219-1.1859,1.1855-1.7027t.8418-1.12a6.6928,6.6928,0,0,1,.68-.7749,3.1075,3.1075,0,0,1,.5645-.3633,1.6568,1.6568,0,0,1,.6221-.21q.2577-.0191.7363-.02a3.566,3.566,0,0,1,1.4062.23,4.0172,4.0172,0,0,1,1.1006.7652q.5742.5361,2.124,2.22,3.7121,3.999,5.4532,5.7783a1.1087,1.1087,0,0,1,0,1.5689l-.7657.7846a1.0366,1.0366,0,0,1-.7558.3252,1.0687,1.0687,0,0,1-.7559-.3061q-2.7172-2.7934-5.4912-5.8931-1.1865-1.3206-1.6074-1.7319a1.156,1.156,0,0,0-.708-.4112q-.23,0-.583.459-.3546.4593-1.2725,1.8179-1.1675,1.7607-2.5644,3.6548a1.0856,1.0856,0,0,1-.7178.44,1.0241,1.0241,0,0,1-.8125-.1914Zm11.73-11.48a3.0485,3.0485,0,0,1,4.3242,0,2.9477,2.9477,0,0,1,.8995,2.1621,2.9469,2.9469,0,0,1-.8995,2.1621,3.0485,3.0485,0,0,1-4.3242,0,2.9472,2.9472,0,0,1-.8994-2.1621A2.948,2.948,0,0,1,234.1406,1.2246Zm1.2149,3.1094a1.3389,1.3389,0,0,0,2.2861-.9473,1.3394,1.3394,0,0,0-2.6787,0A1.29,1.29,0,0,0,235.3555,4.334Z"/><path d="M243.4014,10.6767a1.1109,1.1109,0,0,1-1.0909-1.0908V8.668a1.1109,1.1109,0,0,1,1.0909-1.0909h13.7763a1.1109,1.1109,0,0,1,1.0909,1.0909v.9179a1.1109,1.1109,0,0,1-1.0909,1.0908Z"/><path d="M263.7217,4.707a1.0227,1.0227,0,0,1-.459-1.416l.4394-.8608a1.0874,1.0874,0,0,1,.6417-.5454,1.1282,1.1282,0,0,1,.8515.0478q1.97.9375,4.0371,2.0093a.9569.9569,0,0,1,.5264.6313,1.0546,1.0546,0,0,1-.0869.8228l-.4971.8608a1.1042,1.1042,0,0,1-1.4736.44Q265.7119,5.6641,263.7217,4.707ZM277.3066,3.77a1.0742,1.0742,0,0,1,.6885.4688,1.02,1.02,0,0,1,.1533.813,13.8489,13.8489,0,0,1-4.43,7.8256,16.8337,16.8337,0,0,1-9.002,3.502,1.0881,1.0881,0,0,1-.8232-.22,1.1251,1.1251,0,0,1-.44-.7368l-.1338-.88a.949.949,0,0,1,.19-.7749,1.0215,1.0215,0,0,1,.7081-.4116A14.5429,14.5429,0,0,0,271.5,10.581a11.4365,11.4365,0,0,0,3.6826-6.18,1.1124,1.1124,0,0,1,.4883-.6792,1.044,1.044,0,0,1,.8135-.1436Z"/><path d="M294.6221,16.0151a1.1109,1.1109,0,0,1-1.0909-1.0908v-.44a2.1051,2.1051,0,0,1,.8614-1.7413,28.11,28.11,0,0,0,4.2568-3.8457,4.1973,4.1973,0,0,0,1.043-2.583q0-1.7607-1.9512-1.7607a8.5343,8.5343,0,0,0-2.9082.6509.7365.7365,0,0,1-.6894-.0767.6674.6674,0,0,1-.3252-.5932V3.7309a1.4688,1.4688,0,0,1,.2871-.89,1.3837,1.3837,0,0,1,.7656-.5259,13.1164,13.1164,0,0,1,3.3486-.4595,5.2447,5.2447,0,0,1,3.5684,1.1,3.8513,3.8513,0,0,1,1.2529,3.0523A5.5084,5.5084,0,0,1,301.98,9.2129a25.1449,25.1449,0,0,1-4.1426,4.1235.0566.0566,0,0,0-.0195.0381c0,.0132.0068.019.0195.019h4.19a1.0184,1.0184,0,0,1,.7559.3257,1.064,1.064,0,0,1,.3154.7652v.44a1.0642,1.0642,0,0,1-.3154.7656,1.0179,1.0179,0,0,1-.7559.3252Z"/><path d="M315.3535,14.5224a6.0311,6.0311,0,0,1-8.3613,0q-1.3682-1.683-1.3682-5.4912T306.9922,3.54a6.0311,6.0311,0,0,1,8.3613,0q1.3682,1.6839,1.3682,5.4912T315.3535,14.5224Zm-2.4873-9.1455a1.8883,1.8883,0,0,0-3.3867,0,8.6346,8.6346,0,0,0-.5459,3.6543,8.6351,8.6351,0,0,0,.5459,3.6548,1.8886,1.8886,0,0,0,3.3867,0,8.6547,8.6547,0,0,0,.5449-3.6548A8.6542,8.6542,0,0,0,312.8662,5.3769Z"/><path d="M320.4521,16.0151a1.1109,1.1109,0,0,1-1.0908-1.0908v-.44a2.1048,2.1048,0,0,1,.8614-1.7413A28.1146,28.1146,0,0,0,324.48,8.8974a4.1973,4.1973,0,0,0,1.043-2.583q0-1.7607-1.9512-1.7607a8.5338,8.5338,0,0,0-2.9082.6509.7367.7367,0,0,1-.69-.0767.6674.6674,0,0,1-.3252-.5932V3.7309a1.4688,1.4688,0,0,1,.2871-.89,1.3839,1.3839,0,0,1,.7657-.5259,13.1158,13.1158,0,0,1,3.3486-.4595,5.2447,5.2447,0,0,1,3.5684,1.1,3.8513,3.8513,0,0,1,1.2529,3.0523A5.5084,5.5084,0,0,1,327.81,9.2129a25.1449,25.1449,0,0,1-4.1426,4.1235.0566.0566,0,0,0-.0195.0381c0,.0132.0068.019.0195.019h4.19a1.0186,1.0186,0,0,1,.7559.3257,1.0644,1.0644,0,0,1,.3154.7652v.44a1.0646,1.0646,0,0,1-.3154.7656,1.0181,1.0181,0,0,1-.7559.3252Z"/><path d="M333.3682,16.0151a1.1109,1.1109,0,0,1-1.0909-1.0908v-.44a2.1051,2.1051,0,0,1,.8614-1.7413,28.1146,28.1146,0,0,0,4.2568-3.8457,4.1973,4.1973,0,0,0,1.043-2.583q0-1.7607-1.9512-1.7607a8.5343,8.5343,0,0,0-2.9082.6509.7367.7367,0,0,1-.69-.0767.6675.6675,0,0,1-.3251-.5932V3.7309a1.4688,1.4688,0,0,1,.2871-.89,1.3837,1.3837,0,0,1,.7656-.5259,13.1164,13.1164,0,0,1,3.3486-.4595,5.2447,5.2447,0,0,1,3.5684,1.1,3.8513,3.8513,0,0,1,1.2529,3.0523,5.5084,5.5084,0,0,1-1.0615,3.2046,25.1449,25.1449,0,0,1-4.1426,4.1235.0566.0566,0,0,0-.02.0381c0,.0132.0068.019.02.019h4.19a1.0184,1.0184,0,0,1,.7559.3257,1.064,1.064,0,0,1,.3154.7652v.44a1.0642,1.0642,0,0,1-.3154.7656,1.0179,1.0179,0,0,1-.7559.3252Z"/><path d="M353.63,4.6689a1.0451,1.0451,0,0,1-.7647-.3257,1.0432,1.0432,0,0,1-.3261-.7651v-.44a1.0462,1.0462,0,0,1,.3261-.7657,1.0465,1.0465,0,0,1,.7647-.3252h7.1377a1.0465,1.0465,0,0,1,.7646.3252,1.0487,1.0487,0,0,1,.3252.7657v.44a2.1923,2.1923,0,0,1-.8418,1.7793L358.127,7.75v.019c0,.0127.0058.0191.0185.0191h.2295a3.553,3.553,0,0,1,2.67,1.0332,3.8392,3.8392,0,0,1,1.0039,2.7934A4.279,4.279,0,0,1,360.69,15.02a5.7573,5.7573,0,0,1-3.9033,1.1865,13.7127,13.7127,0,0,1-3.1-.3637,1.3277,1.3277,0,0,1-.7559-.5069,1.4337,1.4337,0,0,1-.2968-.89v-.6509a.6957.6957,0,0,1,.3164-.6025.7728.7728,0,0,1,.6982-.105,9.4739,9.4739,0,0,0,2.87.5356,2.5946,2.5946,0,0,0,1.7217-.5166,1.7762,1.7762,0,0,0,.6123-1.435,1.3753,1.3753,0,0,0-.708-1.32,6.33,6.33,0,0,0-2.6406-.4018,1.0626,1.0626,0,0,1-.7647-.3159,1.0121,1.0121,0,0,1-.3252-.7554V8.84a2.2478,2.2478,0,0,1,.8223-1.7793l2.7168-2.3535V4.688c0-.0127-.0059-.0191-.0186-.0191Z"/><path d="M366.4492,11.6909a1.0177,1.0177,0,0,1-.7558-.3252,1.0643,1.0643,0,0,1-.3155-.7656v-.2676a1.0658,1.0658,0,0,1,.3155-.7656,1.0177,1.0177,0,0,1,.7558-.3252h4.4776a1.0163,1.0163,0,0,1,.7558.3252,1.0617,1.0617,0,0,1,.3154.7656V10.6a1.06,1.06,0,0,1-.3154.7656,1.0163,1.0163,0,0,1-.7558.3252Z"/><path d="M380.0928,16.2065a5.0643,5.0643,0,0,1-3.9893-1.5786,6.9324,6.9324,0,0,1-1.4062-4.7358q0-4.018,1.6259-6.0269a5.6164,5.6164,0,0,1,4.6309-2.0093,11.6405,11.6405,0,0,1,1.9512.1534,1.1727,1.1727,0,0,1,.7558.4589,1.3742,1.3742,0,0,1,.2969.8614v.3442a.7373.7373,0,0,1-.3164.6314.8324.8324,0,0,1-.7168.1337,8.4834,8.4834,0,0,0-1.8564-.2294,2.9383,2.9383,0,0,0-2.1719.8325,3.9668,3.9668,0,0,0-1.0235,2.4013.0173.0173,0,0,0,.02.0191h.0185a4.5636,4.5636,0,0,1,2.8516-.8228,4.8029,4.8029,0,0,1,3.4824,1.1861,4.5287,4.5287,0,0,1,1.2246,3.4057,4.7178,4.7178,0,0,1-1.4355,3.6548A5.5986,5.5986,0,0,1,380.0928,16.2065Zm0-7.3857a2.137,2.137,0,0,0-1.6455.66,2.5554,2.5554,0,0,0-.6123,1.8081,2.6848,2.6848,0,0,0,.622,1.8848,2.3684,2.3684,0,0,0,3.3008.0191,2.7614,2.7614,0,0,0,.5928-1.9039,2.5685,2.5685,0,0,0-.6026-1.8271A2.1641,2.1641,0,0,0,380.0928,8.8208Z"/></svg>